<svg xmlns="http://www.w3.org/2000/svg" viewBox="0 0 1504 688" width="1504" height="688" style="background-color: transparent;"><defs><style>@import url('https://fonts.googleapis.com/css2?family=Caveat+Brush&amp;family=Source+Code+Pro&amp;family=Source+Sans+Pro&amp;family=Crimson+Pro&amp;display=block');</style></defs><g id="2f7776d5-ad2a-444d-1871-fb1b5c0bdc90_svg" class="tl-centered-g" transform="translate(16.00, 16.00) rotate(0.00, 736.00, 328.00)"><g pointer-events="none" stroke="transparent" stroke-width="4.23" stroke-linecap="round"><line x1="2.11" y1="2.11" x2="1469.88" y2="2.11" stroke-dasharray="0.03 6.46" stroke-dashoffset="0"/><line x1="1469.88" y1="2.11" x2="1469.88" y2="653.88" stroke-dasharray="0.03 6.48" stroke-dashoffset="0"/><line x1="1469.88" y1="653.88" x2="2.11" y2="653.88" stroke-dasharray="0.03 6.46" stroke-dashoffset="0"/><line x1="2.11" y1="653.88" x2="2.11" y2="2.11" stroke-dasharray="0.03 6.48" stroke-dashoffset="0"/></g></g><text font-size="69.5744433470088px" font-family="Caveat Brush" font-weight="normal" line-height="69.5744433470088px" letter-spacing="-0.03em" text-align="center" dominant-baseline="mathematical" alignment-baseline="mathematical" text-anchor="middle" fill="#ebbb38" transform="translate(28.53, 31.42) rotate(0.00, 258.00, 40.00)"><tspan y="34.7872216735044px" x="262">Stale While Revalidate
</tspan></text><g id="1711a683-be25-4d7b-1bfc-410db6ff736d_svg" class="tl-centered-g" transform="translate(370.55, 126.03) rotate(0.00, 534.65, 27.48)"><g pointer-events="none" stroke="#ebbb38" stroke-width="6.66" stroke-linecap="round"><line x1="3.33" y1="3.33" x2="1065.96" y2="3.33" stroke-dasharray="none" stroke-dashoffset="none"/><line x1="1065.96" y1="3.33" x2="1065.96" y2="51.63" stroke-dasharray="none" stroke-dashoffset="none"/><line x1="1065.96" y1="51.63" x2="3.33" y2="51.63" stroke-dasharray="none" stroke-dashoffset="none"/><line x1="3.33" y1="51.63" x2="3.33" y2="3.33" stroke-dasharray="none" stroke-dashoffset="none"/></g></g><text font-size="48px" font-family="Caveat Brush" font-weight="normal" line-height="48px" letter-spacing="-0.03em" text-align="left" dominant-baseline="mathematical" alignment-baseline="mathematical" text-anchor="start" fill="#36a64c" transform="translate(585.51, 44.21) rotate(0.00, 325.50, 29.00)"><tspan y="24px" x="4">"max-age=10, stale-while-revalidate=50"
</tspan></text><g id="3b8cab26-e93b-481b-086a-a2034bc3d660_svg" class="tl-centered-g" transform="translate(499.86, 131.36) rotate(0.00, 0.50, 18.75)"><g opacity="1"><path d="M0.000,0.130Q0.000,0.130 0.00,1.781 0.00,3.433 0.00,4.795 0.00,6.157 0.00,7.359 0.00,8.561 0.00,9.657 0.00,10.753 0.00,11.654 0.00,12.555 0.00,13.445 0.00,14.334 0.00,15.320 0.00,16.306 0.00,17.244 0.00,18.183 0.00,19.095 0.00,20.007 0.00,20.903 0.00,21.798 0.00,22.689 0.00,23.580 0.00,24.430 0.00,25.281 0.00,26.055 0.00,26.829 0.00,27.541 0.00,28.252 0.00,28.887 0.00,29.522 0.00,30.103 0.00,30.685 0.00,31.214 0.00,31.743 0.00,32.224 0.00,32.704 0.00,33.104 0.00,33.503 0.00,33.816 0.00,34.128 0.00,34.390 0.00,34.653 0.00,34.880 0.00,35.108 0.00,35.341 0.00,35.574 0.00,35.835 0.00,36.096 0.00,36.271 0.00,36.447 0.00,36.602 0.00,36.757 0.00,36.899 0.00,37.040 0.00,37.270 0.00,37.500 0.00,37.500 " fill="none" stroke="none" stroke-width="4" stroke-linejoin="round" stroke-linecap="round" pointer-events="none"/><path d="M0.000,0.130Q0.000,0.130 0.00,1.781 0.00,3.433 0.00,4.795 0.00,6.157 0.00,7.359 0.00,8.561 0.00,9.657 0.00,10.753 0.00,11.654 0.00,12.555 0.00,13.445 0.00,14.334 0.00,15.320 0.00,16.306 0.00,17.244 0.00,18.183 0.00,19.095 0.00,20.007 0.00,20.903 0.00,21.798 0.00,22.689 0.00,23.580 0.00,24.430 0.00,25.281 0.00,26.055 0.00,26.829 0.00,27.541 0.00,28.252 0.00,28.887 0.00,29.522 0.00,30.103 0.00,30.685 0.00,31.214 0.00,31.743 0.00,32.224 0.00,32.704 0.00,33.104 0.00,33.503 0.00,33.816 0.00,34.128 0.00,34.390 0.00,34.653 0.00,34.880 0.00,35.108 0.00,35.341 0.00,35.574 0.00,35.835 0.00,36.096 0.00,36.271 0.00,36.447 0.00,36.602 0.00,36.757 0.00,36.899 0.00,37.040 0.00,37.270 0.00,37.500 0.00,37.500 " fill="none" stroke="#ebbb38" stroke-width="6.25" stroke-dasharray="none" stroke-dashoffset="none" stroke-linejoin="round" stroke-linecap="round" pointer-events="none"/></g></g><text font-size="32.18267490532193px" font-family="Caveat Brush" font-weight="normal" line-height="32.18267490532193px" letter-spacing="-0.03em" text-align="left" dominant-baseline="mathematical" alignment-baseline="mathematical" text-anchor="start" fill="#ebbb38" transform="translate(415.23, 131.50) rotate(0.00, 22.00, 21.00)"><tspan y="16.091337452660966px" x="4">10s
</tspan></text><g id="366a08c0-a5b8-4441-02f6-59fb70531a19_svg" class="tl-centered-g" transform="translate(947.81, 133.51) rotate(0.00, 0.50, 18.75)"><g opacity="1"><path d="M0.000,0.130Q0.000,0.130 0.00,1.781 0.00,3.433 0.00,4.795 0.00,6.157 0.00,7.359 0.00,8.561 0.00,9.657 0.00,10.753 0.00,11.654 0.00,12.555 0.00,13.445 0.00,14.334 0.00,15.320 0.00,16.306 0.00,17.244 0.00,18.183 0.00,19.095 0.00,20.007 0.00,20.903 0.00,21.798 0.00,22.689 0.00,23.580 0.00,24.430 0.00,25.281 0.00,26.055 0.00,26.829 0.00,27.541 0.00,28.252 0.00,28.887 0.00,29.522 0.00,30.103 0.00,30.685 0.00,31.214 0.00,31.743 0.00,32.224 0.00,32.704 0.00,33.104 0.00,33.503 0.00,33.816 0.00,34.128 0.00,34.390 0.00,34.653 0.00,34.880 0.00,35.108 0.00,35.341 0.00,35.574 0.00,35.835 0.00,36.096 0.00,36.271 0.00,36.447 0.00,36.602 0.00,36.757 0.00,36.899 0.00,37.040 0.00,37.270 0.00,37.500 0.00,37.500 " fill="none" stroke="none" stroke-width="4" stroke-linejoin="round" stroke-linecap="round" pointer-events="none"/><path d="M0.000,0.130Q0.000,0.130 0.00,1.781 0.00,3.433 0.00,4.795 0.00,6.157 0.00,7.359 0.00,8.561 0.00,9.657 0.00,10.753 0.00,11.654 0.00,12.555 0.00,13.445 0.00,14.334 0.00,15.320 0.00,16.306 0.00,17.244 0.00,18.183 0.00,19.095 0.00,20.007 0.00,20.903 0.00,21.798 0.00,22.689 0.00,23.580 0.00,24.430 0.00,25.281 0.00,26.055 0.00,26.829 0.00,27.541 0.00,28.252 0.00,28.887 0.00,29.522 0.00,30.103 0.00,30.685 0.00,31.214 0.00,31.743 0.00,32.224 0.00,32.704 0.00,33.104 0.00,33.503 0.00,33.816 0.00,34.128 0.00,34.390 0.00,34.653 0.00,34.880 0.00,35.108 0.00,35.341 0.00,35.574 0.00,35.835 0.00,36.096 0.00,36.271 0.00,36.447 0.00,36.602 0.00,36.757 0.00,36.899 0.00,37.040 0.00,37.270 0.00,37.500 0.00,37.500 " fill="none" stroke="#ebbb38" stroke-width="6.25" stroke-dasharray="none" stroke-dashoffset="none" stroke-linejoin="round" stroke-linecap="round" pointer-events="none"/></g></g><text font-size="32.18267490532193px" font-family="Caveat Brush" font-weight="normal" line-height="32.18267490532193px" letter-spacing="-0.03em" text-align="left" dominant-baseline="mathematical" alignment-baseline="mathematical" text-anchor="start" fill="#ebbb38" transform="translate(698.73, 131.49) rotate(0.00, 23.50, 21.00)"><tspan y="16.091337452660966px" x="4">50s
</tspan></text><text font-size="48px" font-family="Caveat Brush" font-weight="normal" line-height="48px" letter-spacing="-0.03em" text-align="left" dominant-baseline="mathematical" alignment-baseline="mathematical" text-anchor="start" fill="#ebbb38" transform="translate(490.46, 198.59) rotate(0.00, 86.00, 29.00)"><tspan y="24px" x="4">15 seconds
</tspan></text><g id="e2bbe39c-23a6-4edb-1ae3-c77df1305074_svg" class="tl-centered-g" transform="translate(170.88, 368.64) rotate(0.00, 33.67, 35.57)"><ellipse cx="33.67" cy="35.56" rx="31.55" ry="33.45" fill="#345246" stroke="#36a64c" stroke-width="4.23" stroke-dasharray="none" stroke-dashoffset="none" pointer-events="none" stroke-linecap="round" stroke-linejoin="round"/></g><text font-size="81.66892522876701px" font-family="Caveat Brush" font-weight="normal" line-height="81.66892522876701px" letter-spacing="-0.03em" text-align="left" dominant-baseline="mathematical" alignment-baseline="mathematical" text-anchor="start" fill="#36a64c" transform="translate(125.42, 274.17) rotate(0.00, 87.50, 46.00)"><tspan y="40.834462614383504px" x="4">User 2
</tspan></text><text font-size="81.66892522876701px" font-family="Caveat Brush" font-weight="normal" line-height="81.66892522876701px" letter-spacing="-0.03em" text-align="left" dominant-baseline="mathematical" alignment-baseline="mathematical" text-anchor="start" fill="#36a64c" transform="translate(566.99, 279.57) rotate(0.00, 147.50, 46.00)"><tspan y="40.834462614383504px" x="4">CDN Cache
</tspan></text><g id="2f0db33f-8e00-4d1f-277d-a747ffd9835e_svg" class="tl-centered-g" transform="translate(685.06, 368.84) rotate(0.00, 33.67, 35.57)"><ellipse cx="33.67" cy="35.56" rx="31.55" ry="33.45" fill="#345246" stroke="#36a64c" stroke-width="4.23" stroke-dasharray="none" stroke-dashoffset="none" pointer-events="none" stroke-linecap="round" stroke-linejoin="round"/></g><g id="3ae83a00-b44a-428f-1ac4-624c45e1d4f4_svg" class="tl-centered-g" transform="translate(1176.56, 365.98) rotate(0.00, 33.67, 35.57)"><ellipse cx="33.67" cy="35.56" rx="31.55" ry="33.45" fill="#345246" stroke="#36a64c" stroke-width="4.23" stroke-dasharray="none" stroke-dashoffset="none" pointer-events="none" stroke-linecap="round" stroke-linejoin="round"/></g><text font-size="81.66892522876701px" font-family="Caveat Brush" font-weight="normal" line-height="81.66892522876701px" letter-spacing="-0.03em" text-align="left" dominant-baseline="mathematical" alignment-baseline="mathematical" text-anchor="start" fill="#36a64c" transform="translate(1114.50, 270.23) rotate(0.00, 90.00, 46.00)"><tspan y="40.834462614383504px" x="4">Server
</tspan></text><text font-size="67.30200906108425px" font-family="Crimson Pro" font-weight="normal" line-height="67.30200906108425px" letter-spacing="-0.03em" text-align="center" dominant-baseline="mathematical" alignment-baseline="mathematical" text-anchor="middle" fill="#1e78c8" transform="translate(191.57, 390.96) rotate(0.00, 37.50, 38.50)"><tspan y="33.651004530542124px" x="41.5">📄
</tspan></text><g id="6d1f5796-06c7-4723-2a14-370ca4623d93_svg" class="tl-centered-g" transform="translate(558.48, 181.33) rotate(0.00, 0.50, 9.35)"><g opacity="1"><path d="M0.000,0.000Q0.000,0.000 0.00,1.396 0.00,2.792 0.00,3.850 0.00,4.908 0.00,5.765 0.00,6.623 0.00,7.387 0.00,8.152 0.00,8.912 0.00,9.673 0.00,10.390 0.00,11.108 0.00,11.775 0.00,12.442 0.00,13.191 0.00,13.940 0.00,14.421 0.00,14.902 0.00,15.269 0.00,15.635 0.00,15.979 0.00,16.322 0.00,16.650 0.00,16.979 0.00,17.221 0.00,17.463 0.00,17.657 0.00,17.851 0.00,18.012 0.00,18.173 0.00,18.431 0.00,18.690 0.00,18.690 " fill="none" stroke="none" stroke-width="4" stroke-linejoin="round" stroke-linecap="round" pointer-events="none"/><path d="M0.000,0.000Q0.000,0.000 0.00,1.396 0.00,2.792 0.00,3.850 0.00,4.908 0.00,5.765 0.00,6.623 0.00,7.387 0.00,8.152 0.00,8.912 0.00,9.673 0.00,10.390 0.00,11.108 0.00,11.775 0.00,12.442 0.00,13.191 0.00,13.940 0.00,14.421 0.00,14.902 0.00,15.269 0.00,15.635 0.00,15.979 0.00,16.322 0.00,16.650 0.00,16.979 0.00,17.221 0.00,17.463 0.00,17.657 0.00,17.851 0.00,18.012 0.00,18.173 0.00,18.431 0.00,18.690 0.00,18.690 " fill="none" stroke="#ebbb38" stroke-width="8.5" stroke-dasharray="none" stroke-dashoffset="none" stroke-linejoin="round" stroke-linecap="round" pointer-events="none"/></g></g><text font-size="48px" font-family="Caveat Brush" font-weight="normal" line-height="48px" letter-spacing="-0.03em" text-align="left" dominant-baseline="mathematical" alignment-baseline="mathematical" text-anchor="start" fill="#ebbb38" transform="translate(159.55, 498.76) rotate(0.00, 286.50, 29.00)"><tspan y="24px" x="4">The next user who has no disk-cache
</tspan></text><text font-size="48px" font-family="Caveat Brush" font-weight="normal" line-height="48px" letter-spacing="-0.03em" text-align="left" dominant-baseline="mathematical" alignment-baseline="mathematical" text-anchor="start" fill="#ebbb38" transform="translate(164.13, 552.23) rotate(0.00, 305.50, 29.00)"><tspan y="24px" x="4">gets to benefit from the previous user's
</tspan></text><g id="c3e2ddf9-6596-49ad-0903-b9da90d537ea_svg" class="tl-centered-g" transform="translate(269.41, 444.62) rotate(0.00, 198.62, 1.03)"><defs><mask id="c3e2ddf9-6596-49ad-0903-b9da90d537ea_clip"><rect x="-100" y="-100" width="597.24" height="202.06" fill="white"/><rect x="198.62" y="1.03" width="0" height="0" rx="4" ry="4" fill="black" opacity="1"/></mask></defs><g pointer-events="none" opacity="1" mask=""><path d="M397.24,2.06L0,0" fill="#1e78c8" stroke="#1e78c8" stroke-width="6.66" stroke-dasharray="none" stroke-dashoffset="none" stroke-linecap="round" stroke-linejoin="round" pointer-events="stroke"/><g><path d="M 24.17,14.125558594727456 L 0,0 24.32,-13.874064920191861" fill="none" stroke="#1e78c8" stroke-width="6.66" stroke-linecap="round" stroke-linejoin="round" pointer-events="none"/></g></g></g><g id="1e7b7ad0-f6e8-4d6c-258b-8c6f0c1cfbea_svg" class="tl-centered-g" transform="translate(280.43, 402.42) rotate(0.00, 189.22, 1.16)"><defs><mask id="1e7b7ad0-f6e8-4d6c-258b-8c6f0c1cfbea_clip"><rect x="-100" y="-100" width="578.44" height="202.32" fill="white"/><rect x="189.22" y="1.16" width="0" height="0" rx="4" ry="4" fill="black" opacity="1"/></mask></defs><g pointer-events="none" opacity="1" mask=""><path d="M0,0L378.44,2.32" fill="#1e78c8" stroke="#1e78c8" stroke-width="6.66" stroke-dasharray="none" stroke-dashoffset="none" stroke-linecap="round" stroke-linejoin="round" pointer-events="stroke"/><g><path d="M 354.27,-11.82838917067206 L 378.44,2.32 354.10,16.171084693717976" fill="none" stroke="#1e78c8" stroke-width="6.66" stroke-linecap="round" stroke-linejoin="round" pointer-events="none"/></g></g></g><text font-size="67.30200906108425px" font-family="Crimson Pro" font-weight="normal" line-height="67.30200906108425px" letter-spacing="-0.03em" text-align="center" dominant-baseline="mathematical" alignment-baseline="mathematical" text-anchor="middle" fill="#1e78c8" transform="translate(701.20, 408.07) rotate(0.00, 37.50, 38.50)"><tspan y="33.651004530542124px" x="41.5">📄
</tspan></text><text font-size="48px" font-family="Caveat Brush" font-weight="normal" line-height="48px" letter-spacing="-0.03em" text-align="left" dominant-baseline="mathematical" alignment-baseline="mathematical" text-anchor="start" fill="#ebbb38" transform="translate(161.32, 602.69) rotate(0.00, 68.00, 29.00)"><tspan y="24px" x="4">request.
</tspan></text></svg>