<svg xmlns="http://www.w3.org/2000/svg" viewBox="0 0 1504 688" width="1472" height="656" style="background-color: transparent;"><defs><style>@import url('https://fonts.googleapis.com/css2?family=Caveat+Brush&amp;family=Source+Code+Pro&amp;family=Source+Sans+Pro&amp;family=Crimson+Pro&amp;display=block');</style></defs><g id="933fafe1-70a4-4084-063b-00446de8a362_svg" class="tl-centered-g" transform="translate(16.00, 16.00) rotate(0.00, 736.00, 328.00)"><g pointer-events="none" stroke="transparent" stroke-width="4.23" stroke-linecap="round"><line x1="2.11" y1="2.11" x2="1469.88" y2="2.11" stroke-dasharray="0.03 6.46" stroke-dashoffset="0"/><line x1="1469.88" y1="2.11" x2="1469.88" y2="653.88" stroke-dasharray="0.03 6.48" stroke-dashoffset="0"/><line x1="1469.88" y1="653.88" x2="2.11" y2="653.88" stroke-dasharray="0.03 6.46" stroke-dashoffset="0"/><line x1="2.11" y1="653.88" x2="2.11" y2="2.11" stroke-dasharray="0.03 6.48" stroke-dashoffset="0"/></g></g><g text-align="left" text-anchor="start" fill="#cecece" transform="translate(1146.95, 91.98) rotate(0.00, 59.50, 32.50)"><text y="14" letter-spacing="-0.84" font-size="28px" font-family="Caveat Brush" text-align="left" alignment-baseline="central" transform="scale(1.956587563795696)">server</text></g><g text-align="left" text-anchor="start" fill="#cecece" transform="translate(509.58, 95.28) rotate(0.00, 51.50, 30.50)"><text y="14" letter-spacing="-0.84" font-size="28px" font-family="Caveat Brush" text-align="left" alignment-baseline="central" transform="scale(1.8215634157538911)">client</text></g><g id="a9acfe7a-efa0-4039-1401-083b905b7a3d_svg" class="tl-centered-g" transform="translate(378.39, 151.49) rotate(0.00, 182.34, 209.22)"><g pointer-events="none" stroke="#cecece" stroke-width="4.23" stroke-linecap="round"><line x1="2.11" y1="2.11" x2="362.56" y2="2.11" stroke-dasharray="none" stroke-dashoffset="none"/><line x1="362.56" y1="2.11" x2="362.56" y2="416.32" stroke-dasharray="none" stroke-dashoffset="none"/><line x1="362.56" y1="416.32" x2="2.11" y2="416.32" stroke-dasharray="none" stroke-dashoffset="none"/><line x1="2.11" y1="416.32" x2="2.11" y2="2.11" stroke-dasharray="none" stroke-dashoffset="none"/></g></g><g id="ace0b3f2-0216-4262-227f-4a9bb3298553_svg" class="tl-centered-g" transform="translate(385.75, 160.10) rotate(0.00, 173.71, 20.86)"><g pointer-events="none" stroke="#cecece" stroke-width="4.23" stroke-linecap="round"><line x1="2.11" y1="2.11" x2="345.29" y2="2.11" stroke-dasharray="none" stroke-dashoffset="none"/><line x1="345.29" y1="2.11" x2="345.29" y2="39.59" stroke-dasharray="none" stroke-dashoffset="none"/><line x1="345.29" y1="39.59" x2="2.11" y2="39.59" stroke-dasharray="none" stroke-dashoffset="none"/><line x1="2.11" y1="39.59" x2="2.11" y2="2.11" stroke-dasharray="none" stroke-dashoffset="none"/></g></g><g text-align="left" text-anchor="start" fill="#cecece" transform="translate(392.71, 161.92) rotate(0.00, 38.00, 18.00)"><text y="14" letter-spacing="-0.84" font-size="28px" font-family="Caveat Brush" text-align="left" alignment-baseline="central" transform="scale(0.9156416520300283)">site.com</text></g><g id="3331ffe5-3ab2-4a2b-2b0e-0ec4c8cd1d46_svg" class="tl-centered-g" transform="translate(392.03, 213.63) rotate(0.00, 166.95, 1.02)"><defs><mask id="3331ffe5-3ab2-4a2b-2b0e-0ec4c8cd1d46_clip"><rect x="-100" y="-100" width="533.9" height="202.04" fill="white"/><rect x="166.95" y="1.02" width="0" height="0" rx="4" ry="4" fill="black" opacity="1"/></mask></defs><g pointer-events="none" opacity="1" mask=""><path d="M -0.00,1.13 Q -0.00,1.13 41.73,0.92 83.46,0.70 125.20,0.47 166.94,0.25 208.68,0.01 250.42,-0.21 292.15,-0.45 333.89,-0.69 334.00,-0.67 334.11,-0.66 334.21,-0.60 334.31,-0.55 334.39,-0.47 334.47,-0.39 334.52,-0.29 334.56,-0.19 334.58,-0.07 334.59,0.03 334.57,0.14 334.54,0.25 334.49,0.35 334.43,0.44 334.34,0.52 334.26,0.59 334.15,0.63 334.05,0.67 333.94,0.68 333.82,0.69 333.72,0.66 333.61,0.63 333.51,0.57 333.42,0.50 333.35,0.41 333.28,0.32 333.25,0.22 333.21,0.11 333.21,0.00 333.21,-0.10 333.24,-0.21 333.28,-0.32 333.35,-0.41 333.41,-0.50 333.51,-0.56 333.60,-0.62 333.71,-0.66 333.82,-0.69 333.93,-0.68 334.04,-0.68 334.15,-0.63 334.25,-0.59 334.34,-0.52 334.42,-0.45 334.48,-0.35 334.54,-0.26 334.56,-0.15 334.59,-0.04 334.58,0.07 334.57,0.18 334.52,0.28 334.47,0.38 334.40,0.46 334.32,0.55 334.22,0.60 334.12,0.65 334.01,0.67 333.90,0.69 333.90,0.69 333.90,0.69 292.16,0.96 250.42,1.23 208.69,1.51 166.95,1.78 125.21,2.07 83.48,2.35 41.74,2.64 0.00,2.94 -0.10,2.92 -0.21,2.91 -0.31,2.87 -0.41,2.84 -0.50,2.78 -0.59,2.71 -0.66,2.63 -0.73,2.55 -0.79,2.46 -0.84,2.36 -0.86,2.25 -0.89,2.15 -0.89,2.04 -0.89,1.93 -0.87,1.83 -0.84,1.72 -0.79,1.62 -0.74,1.53 -0.67,1.45 -0.60,1.36 -0.51,1.30 -0.42,1.24 -0.32,1.20 -0.22,1.16 -0.11,1.15 Z" fill="#cecece" stroke="#cecece" stroke-width="2.11" stroke-dasharray="none" stroke-dashoffset="none" stroke-linecap="round" stroke-linejoin="round" pointer-events="stroke"/></g></g><g id="e38765c2-60e1-4939-1445-e3302a44b025_svg" class="tl-centered-g" transform="translate(409.59, 228.92) rotate(0.00, 148.81, 148.59)"><path d="M -1.32,206.20 Q -1.32,206.20 -1.23,200.07 -1.14,193.93 -1.05,186.23 -0.96,178.53 -0.86,170.43 -0.77,162.33 -0.74,154.13 -0.71,145.93 -0.75,137.70 -0.79,129.48 -0.82,121.24 -0.86,113.01 -0.90,104.77 -0.94,96.54 -0.98,88.30 -1.02,80.07 -1.05,71.83 -1.09,63.59 -1.13,55.36 -1.17,47.12 -1.21,38.89 -1.25,30.65 -1.26,22.33 -1.28,14.01 1.86,8.42 5.01,2.84 12.46,1.24 19.91,-0.35 27.96,-0.61 36.02,-0.88 44.20,-0.91 52.37,-0.93 60.59,-0.89 68.81,-0.86 77.04,-0.80 85.27,-0.75 93.50,-0.70 101.74,-0.64 109.97,-0.59 118.20,-0.53 126.43,-0.47 134.67,-0.42 142.90,-0.43 151.13,-0.44 159.37,-0.52 167.60,-0.59 175.83,-0.67 184.07,-0.75 192.30,-0.83 200.53,-0.90 208.77,-0.98 217.00,-1.06 225.23,-1.14 233.47,-1.21 241.70,-1.29 249.93,-1.37 258.17,-1.45 266.40,-1.52 274.72,-1.58 283.04,-1.63 288.63,1.49 294.21,4.63 295.82,12.09 297.43,19.56 297.72,27.64 298.00,35.71 298.04,43.92 298.08,52.12 298.05,60.36 298.03,68.60 298.00,76.86 297.96,85.11 297.92,93.37 297.88,101.62 297.84,109.88 297.80,118.14 297.76,126.40 297.72,134.65 297.74,142.91 297.77,151.17 297.86,159.43 297.96,167.68 298.05,175.94 298.14,184.20 298.23,192.46 298.33,200.71 298.42,208.97 298.51,217.23 298.61,225.49 298.70,233.74 298.79,242.00 298.88,250.26 298.98,258.52 299.07,266.77 299.14,275.12 299.21,283.46 296.07,289.06 292.94,294.66 285.45,296.24 277.96,297.82 269.86,298.07 261.75,298.32 253.52,298.32 245.29,298.32 237.02,298.26 228.74,298.21 220.46,298.13 212.18,298.06 203.89,297.98 195.60,297.91 187.31,297.83 179.03,297.75 170.74,297.67 162.45,297.59 154.16,297.58 145.88,297.57 137.59,297.63 129.30,297.68 121.01,297.74 112.73,297.80 104.44,297.85 96.15,297.91 87.86,297.96 79.57,298.02 71.29,298.07 63.00,298.13 54.71,298.19 46.42,298.24 38.13,298.30 29.85,298.35 21.47,298.39 13.10,298.42 7.50,295.27 1.89,292.12 0.32,284.67 -1.24,277.22 -1.47,269.16 -1.70,261.11 -1.68,252.93 -1.67,244.74 -1.59,236.52 -1.52,228.30 -1.43,220.07 -1.34,211.84 -1.24,203.60 -1.15,195.37 -1.05,187.13 -0.96,178.90 -0.86,170.66 -0.77,162.43 -0.74,154.19 -0.71,145.96 -0.75,137.72 -0.79,129.48 -0.82,118.43 -0.84,107.37 -0.79,107.04 -0.73,106.71 -0.57,106.41 -0.41,106.11 -0.17,105.88 0.07,105.65 0.37,105.51 0.68,105.37 1.02,105.33 1.35,105.30 1.68,105.37 2.01,105.45 2.30,105.62 2.59,105.80 2.80,106.05 3.02,106.31 3.14,106.63 3.27,106.94 3.29,107.28 3.30,107.61 3.21,107.94 3.12,108.26 2.93,108.54 2.74,108.82 2.47,109.02 2.20,109.23 1.88,109.33 1.56,109.44 1.22,109.44 0.89,109.44 0.57,109.33 0.25,109.22 -0.01,109.01 -0.28,108.81 -0.47,108.53 -0.65,108.25 -0.74,107.92 -0.83,107.60 -0.81,107.26 -0.79,106.92 -0.67,106.61 -0.54,106.30 -0.32,106.04 -0.10,105.79 0.18,105.61 0.47,105.44 0.80,105.37 1.13,105.30 1.46,105.34 1.80,105.37 2.10,105.52 2.41,105.66 2.65,105.89 2.90,106.13 3.05,106.42 3.21,106.72 3.26,107.06 3.32,107.39 3.32,107.39 3.32,107.39 3.21,118.44 3.10,129.50 3.01,137.73 2.91,145.97 2.89,154.20 2.86,162.44 2.89,170.68 2.93,178.91 2.97,187.15 3.01,195.38 3.05,203.62 3.09,211.85 3.13,220.08 3.18,228.31 3.23,236.51 3.29,244.71 3.41,252.82 3.53,260.92 3.85,268.60 4.18,276.29 4.98,282.44 5.77,288.59 9.61,290.66 13.45,292.73 21.65,292.79 29.85,292.85 38.14,292.92 46.43,293.00 54.72,293.08 63.00,293.16 71.29,293.24 79.58,293.31 87.87,293.39 96.16,293.47 104.44,293.55 112.73,293.63 121.02,293.70 129.31,293.78 137.59,293.86 145.88,293.94 154.17,293.95 162.46,293.96 170.74,293.91 179.03,293.85 187.32,293.79 195.61,293.74 203.89,293.68 212.18,293.62 220.46,293.56 228.74,293.50 236.99,293.43 245.25,293.35 253.40,293.22 261.56,293.08 269.29,292.74 277.02,292.40 283.21,291.59 289.40,290.79 291.46,286.96 293.53,283.13 293.54,274.96 293.56,266.79 293.60,258.53 293.64,250.27 293.69,242.02 293.73,233.76 293.77,225.50 293.81,217.24 293.85,208.99 293.89,200.73 293.93,192.47 293.97,184.21 294.01,175.95 294.05,167.70 294.10,159.44 294.14,151.18 294.11,142.92 294.08,134.67 293.99,126.41 293.90,118.15 293.81,109.90 293.71,101.64 293.62,93.38 293.52,85.13 293.43,76.88 293.33,68.63 293.22,60.41 293.10,52.18 292.93,44.06 292.77,35.93 292.39,28.23 292.01,20.52 291.18,14.36 290.35,8.19 286.52,6.12 282.70,4.04 274.55,4.01 266.41,3.97 258.17,3.92 249.94,3.86 241.71,3.81 233.47,3.75 225.24,3.69 217.01,3.64 208.77,3.58 200.54,3.52 192.31,3.47 184.07,3.41 175.84,3.35 167.61,3.30 159.37,3.24 151.14,3.19 142.91,3.20 134.67,3.21 126.44,3.28 118.21,3.36 109.97,3.44 101.74,3.52 93.51,3.60 85.28,3.67 77.05,3.76 68.83,3.84 60.63,3.94 52.43,4.03 44.33,4.19 36.23,4.34 28.55,4.70 20.86,5.07 14.71,5.89 8.56,6.71 6.48,10.54 4.40,14.37 4.32,22.52 4.25,30.67 4.16,38.91 4.06,47.14 3.96,55.38 3.87,63.61 3.77,71.85 3.68,80.08 3.58,88.32 3.49,96.55 3.39,104.79 3.30,113.02 3.20,121.26 3.10,129.49 3.01,137.72 2.91,145.94 2.89,154.15 2.86,162.35 2.90,170.45 2.93,178.55 2.97,186.25 3.01,193.95 3.06,200.08 3.11,206.22 3.07,206.48 3.04,206.75 2.94,207.00 2.85,207.25 2.70,207.47 2.54,207.69 2.34,207.86 2.14,208.04 1.90,208.16 1.67,208.29 1.41,208.35 1.15,208.41 0.88,208.41 0.61,208.41 0.35,208.35 0.09,208.28 -0.13,208.16 -0.37,208.03 -0.57,207.85 -0.77,207.68 -0.92,207.46 -1.07,207.23 -1.16,206.98 -1.26,206.73 -1.29,206.47 Z" fill="#36a64c" stroke="#36a64c" stroke-width="3.5" pointer-events="none"/></g><g id="e1a30dd4-b070-48ec-3fb7-08b2cffb6751_svg" class="tl-centered-g" transform="translate(429.75, 256.26) rotate(0.00, 127.93, 31.51)"><path d="M 161.64,62.93 Q 161.64,62.93 155.33,62.92 149.01,62.90 141.09,62.90 133.17,62.90 124.84,63.07 116.50,63.23 108.07,63.40 99.63,63.57 91.17,63.74 82.70,63.91 74.23,64.08 65.76,64.25 57.29,64.41 48.82,64.58 40.35,64.75 31.87,64.92 23.31,65.07 14.75,65.21 9.22,62.30 3.68,59.39 2.11,55.65 0.54,51.91 0.31,48.33 0.08,44.75 0.15,41.40 0.23,38.05 0.21,34.76 0.18,31.47 0.01,28.19 -0.15,24.91 -0.31,21.63 -0.48,18.35 -0.58,14.90 -0.69,11.44 2.43,7.13 5.57,2.83 13.23,1.64 20.90,0.45 29.13,0.29 37.35,0.14 45.76,0.16 54.16,0.18 62.62,0.25 71.07,0.31 79.54,0.39 88.01,0.46 96.49,0.54 104.96,0.62 113.43,0.70 121.91,0.78 130.38,0.70 138.86,0.62 147.33,0.53 155.81,0.45 164.28,0.37 172.76,0.29 181.23,0.20 189.70,0.12 198.18,0.04 206.65,-0.04 215.13,-0.12 223.60,-0.20 232.16,-0.26 240.72,-0.32 246.24,2.59 251.76,5.52 253.33,9.13 254.90,12.74 255.13,16.17 255.37,19.60 255.29,22.79 255.21,25.97 255.23,29.09 255.25,32.22 255.42,35.32 255.59,38.43 255.75,41.54 255.91,44.65 256.02,47.93 256.12,51.22 252.99,55.48 249.87,59.74 242.21,60.98 234.54,62.22 226.32,62.45 218.10,62.69 209.69,62.75 201.29,62.81 192.83,62.83 184.38,62.85 175.91,62.86 167.44,62.87 158.97,62.88 150.49,62.88 142.02,62.89 133.54,62.90 125.07,63.06 116.60,63.23 105.23,63.43 93.85,63.63 93.52,63.58 93.19,63.53 92.89,63.37 92.59,63.22 92.36,62.98 92.13,62.74 91.98,62.43 91.84,62.13 91.80,61.80 91.76,61.46 91.83,61.14 91.90,60.81 92.07,60.52 92.24,60.23 92.49,60.01 92.74,59.79 93.06,59.66 93.37,59.53 93.70,59.51 94.04,59.49 94.36,59.58 94.68,59.66 94.96,59.85 95.24,60.03 95.45,60.30 95.66,60.57 95.77,60.88 95.88,61.20 95.88,61.53 95.88,61.87 95.78,62.19 95.68,62.51 95.48,62.78 95.27,63.05 95.00,63.24 94.72,63.43 94.40,63.52 94.08,63.62 93.74,63.60 93.41,63.59 93.09,63.47 92.78,63.34 92.52,63.13 92.26,62.91 92.09,62.63 91.91,62.34 91.84,62.02 91.76,61.69 91.79,61.35 91.83,61.02 91.97,60.71 92.10,60.41 92.33,60.16 92.56,59.92 92.86,59.76 93.15,59.60 93.48,59.54 93.81,59.48 93.81,59.48 93.81,59.48 105.19,59.44 116.56,59.41 125.03,59.40 133.51,59.40 141.98,59.23 150.45,59.06 158.92,58.89 167.39,58.72 175.86,58.55 184.32,58.38 192.76,58.19 201.21,58.01 209.55,57.79 217.90,57.56 225.86,57.19 233.82,56.82 240.11,56.20 246.40,55.58 248.50,53.04 250.59,50.49 250.69,47.57 250.79,44.65 250.95,41.54 251.11,38.44 251.27,35.34 251.43,32.24 251.41,29.16 251.39,26.07 251.15,23.06 250.91,20.05 250.53,17.34 250.14,14.62 249.28,12.28 248.41,9.94 244.40,7.65 240.38,5.36 231.99,5.30 223.60,5.24 215.13,5.16 206.65,5.08 198.18,5.00 189.71,4.92 181.23,4.84 172.76,4.76 164.28,4.68 155.81,4.60 147.33,4.52 138.86,4.44 130.38,4.36 121.91,4.28 113.44,4.36 104.96,4.45 96.49,4.53 88.02,4.61 79.55,4.70 71.08,4.79 62.64,4.88 54.20,4.98 45.85,5.12 37.50,5.26 29.54,5.56 21.58,5.85 15.29,6.42 9.00,6.99 6.92,9.57 4.84,12.15 4.74,15.25 4.64,18.35 4.48,21.62 4.32,24.90 4.16,28.17 4.01,31.44 4.03,34.70 4.05,37.95 4.29,41.14 4.53,44.32 4.93,47.20 5.32,50.09 6.18,52.55 7.05,55.01 11.05,57.27 15.05,59.53 23.43,59.50 31.82,59.47 40.29,59.46 48.77,59.46 57.24,59.45 65.71,59.45 74.19,59.44 82.66,59.43 91.12,59.43 99.59,59.42 108.03,59.42 116.46,59.41 124.80,59.41 133.13,59.40 141.05,59.24 148.97,59.07 155.29,58.93 161.60,58.78 161.85,58.81 162.10,58.84 162.33,58.92 162.56,59.01 162.77,59.15 162.98,59.29 163.15,59.48 163.32,59.66 163.43,59.88 163.55,60.10 163.61,60.34 163.68,60.59 163.68,60.84 163.68,61.09 163.62,61.33 163.57,61.57 163.45,61.80 163.34,62.02 163.18,62.21 163.01,62.40 162.81,62.54 162.60,62.68 162.37,62.78 162.14,62.87 161.89,62.90 Z" fill="#36a64c" stroke="#36a64c" stroke-width="3.5" pointer-events="none"/></g><g id="e4172576-a482-450e-2d7b-7516733d62ed_svg" class="tl-centered-g" transform="translate(430.83, 341.55) rotate(0.00, 127.93, 31.51)"><path d="M 161.15,62.78 Q 161.15,62.78 154.85,62.67 148.54,62.56 140.63,62.45 132.71,62.34 124.39,62.39 116.06,62.43 107.63,62.48 99.20,62.53 90.74,62.58 82.29,62.62 73.82,62.67 65.36,62.72 56.89,62.76 48.43,62.81 39.96,62.86 31.50,62.91 22.95,62.93 14.40,62.96 8.89,60.03 3.38,57.11 1.76,53.49 0.14,49.87 -0.15,46.43 -0.46,42.99 -0.45,39.79 -0.45,36.59 -0.54,33.45 -0.64,30.31 -0.88,27.19 -1.12,24.07 -1.35,20.95 -1.59,17.84 -1.76,14.52 -1.93,11.21 1.17,6.92 4.28,2.64 12.00,1.45 19.72,0.26 28.01,0.10 36.31,-0.05 44.79,-0.04 53.27,-0.04 61.80,0.01 70.33,0.06 78.88,0.12 87.42,0.18 95.97,0.25 104.52,0.31 113.08,0.38 121.63,0.44 130.18,0.35 138.73,0.25 147.28,0.15 155.83,0.06 164.38,-0.03 172.93,-0.13 181.48,-0.22 190.03,-0.32 198.59,-0.42 207.14,-0.52 215.69,-0.61 224.24,-0.71 232.87,-0.78 241.51,-0.86 247.07,2.07 252.63,5.02 254.12,8.73 255.62,12.44 255.75,15.98 255.89,19.51 255.71,22.81 255.53,26.10 255.45,29.33 255.37,32.57 255.44,35.80 255.51,39.02 255.58,42.25 255.64,45.48 255.65,48.86 255.66,52.24 252.49,56.51 249.33,60.78 241.66,61.94 233.99,63.10 225.77,63.22 217.55,63.34 209.16,63.28 200.76,63.22 192.31,63.12 183.87,63.02 175.41,62.91 166.95,62.80 158.48,62.68 150.02,62.57 141.55,62.45 133.09,62.34 124.62,62.39 116.16,62.43 104.79,62.47 93.43,62.50 93.10,62.45 92.77,62.39 92.47,62.24 92.18,62.08 91.95,61.83 91.72,61.59 91.58,61.28 91.44,60.98 91.40,60.64 91.37,60.31 91.44,59.98 91.51,59.65 91.69,59.37 91.86,59.08 92.12,58.86 92.38,58.65 92.69,58.52 93.00,58.40 93.34,58.38 93.67,58.37 93.99,58.46 94.32,58.55 94.59,58.74 94.87,58.93 95.07,59.20 95.28,59.47 95.38,59.78 95.49,60.10 95.49,60.44 95.48,60.77 95.38,61.09 95.27,61.41 95.06,61.68 94.86,61.94 94.58,62.13 94.30,62.32 93.98,62.41 93.65,62.49 93.32,62.47 92.98,62.45 92.67,62.33 92.36,62.20 92.11,61.99 91.85,61.77 91.68,61.48 91.51,61.19 91.44,60.86 91.37,60.53 91.40,60.20 91.44,59.87 91.58,59.56 91.73,59.26 91.96,59.02 92.19,58.77 92.49,58.62 92.78,58.46 93.12,58.41 93.45,58.36 93.45,58.36 93.45,58.36 104.81,58.48 116.17,58.61 124.64,58.72 133.10,58.84 141.57,58.79 150.03,58.74 158.50,58.70 166.96,58.65 175.42,58.60 183.88,58.55 192.31,58.48 200.75,58.42 209.09,58.32 217.43,58.21 225.38,57.95 233.33,57.69 239.62,57.15 245.91,56.60 248.01,54.02 250.11,51.43 250.31,48.38 250.52,45.32 250.78,42.11 251.04,38.89 251.30,35.68 251.55,32.47 251.63,29.27 251.71,26.08 251.56,22.95 251.42,19.82 251.12,17.00 250.81,14.18 250.01,11.76 249.22,9.35 245.20,7.08 241.18,4.82 232.72,4.78 224.25,4.73 215.70,4.67 207.15,4.60 198.59,4.53 190.04,4.47 181.49,4.40 172.94,4.34 164.39,4.27 155.84,4.21 147.29,4.14 138.74,4.07 130.18,4.01 121.63,3.94 113.08,4.04 104.53,4.14 95.98,4.23 87.43,4.33 78.89,4.43 70.35,4.53 61.83,4.64 53.31,4.75 44.88,4.91 36.46,5.06 28.43,5.37 20.39,5.67 14.05,6.24 7.71,6.81 5.64,9.34 3.58,11.86 3.55,14.79 3.52,17.72 3.44,20.84 3.35,23.96 3.26,27.08 3.18,30.20 3.27,33.30 3.36,36.40 3.67,39.43 3.97,42.45 4.42,45.19 4.87,47.92 5.79,50.29 6.71,52.65 10.73,54.96 14.76,57.27 23.14,57.36 31.52,57.46 39.98,57.57 48.45,57.69 56.91,57.80 65.38,57.92 73.84,58.03 82.30,58.15 90.76,58.26 99.22,58.38 107.65,58.49 116.08,58.61 124.40,58.72 132.73,58.84 140.64,58.79 148.56,58.74 154.86,58.68 161.17,58.63 161.42,58.66 161.67,58.69 161.90,58.78 162.13,58.87 162.34,59.01 162.54,59.15 162.71,59.34 162.87,59.53 162.99,59.75 163.10,59.97 163.16,60.22 163.22,60.46 163.22,60.71 163.22,60.96 163.16,61.20 163.10,61.45 162.98,61.67 162.86,61.89 162.70,62.07 162.53,62.26 162.32,62.40 162.12,62.54 161.88,62.63 161.65,62.72 161.40,62.75 Z" fill="#36a64c" stroke="#36a64c" stroke-width="3.5" pointer-events="none"/></g><g id="62f18796-c050-4f68-227d-b56236eb28d3_svg" class="tl-centered-g" transform="translate(1073.21, 224.55) rotate(0.00, 148.79, 104.33)"><path d="M 297.89,88.88 Q 297.89,88.88 297.84,94.77 297.80,100.67 297.97,108.07 298.13,115.47 298.29,123.26 298.46,131.04 298.62,138.92 298.79,146.80 298.96,154.71 299.12,162.62 299.29,170.53 299.46,178.44 299.60,186.45 299.74,194.46 296.62,199.98 293.49,205.49 286.03,207.06 278.57,208.63 270.50,208.89 262.43,209.15 254.23,209.16 246.03,209.18 237.79,209.13 229.55,209.09 221.30,209.03 213.05,208.98 204.79,208.91 196.54,208.85 188.28,208.79 180.03,208.73 171.77,208.67 163.52,208.61 155.26,208.61 147.01,208.61 138.75,208.69 130.50,208.76 122.24,208.83 113.99,208.90 105.73,208.97 97.47,209.04 89.22,209.12 80.96,209.19 72.71,209.26 64.45,209.33 56.20,209.40 47.94,209.47 39.69,209.54 31.43,209.62 23.09,209.67 14.75,209.71 9.16,206.59 3.58,203.47 1.96,196.23 0.35,188.99 0.06,181.20 -0.22,173.41 -0.26,165.52 -0.30,157.62 -0.29,149.69 -0.27,141.75 -0.24,133.81 -0.21,125.87 -0.17,117.92 -0.14,109.98 -0.29,102.03 -0.45,94.09 -0.60,86.14 -0.76,78.19 -0.91,70.25 -1.07,62.30 -1.22,54.36 -1.37,46.41 -1.53,38.47 -1.68,30.52 -1.81,22.48 -1.94,14.44 1.18,8.92 4.31,3.40 11.76,1.85 19.22,0.29 27.28,0.05 35.34,-0.17 43.54,-0.17 51.73,-0.16 59.96,-0.10 68.19,-0.04 76.43,0.03 84.67,0.11 92.92,0.19 101.17,0.27 109.41,0.36 117.66,0.44 125.90,0.52 134.15,0.61 142.40,0.62 150.64,0.64 158.89,0.59 167.14,0.54 175.38,0.49 183.63,0.44 191.88,0.39 200.12,0.34 208.37,0.29 216.62,0.24 224.86,0.19 233.11,0.14 241.36,0.09 249.60,0.04 257.85,-0.00 266.10,-0.05 274.43,-0.08 282.76,-0.11 288.34,3.01 293.92,6.13 295.54,13.35 297.16,20.57 297.46,28.33 297.77,36.09 297.82,43.96 297.88,51.83 297.87,59.73 297.87,67.63 297.85,75.55 297.83,83.46 297.81,91.38 297.79,99.29 297.96,107.21 298.12,115.12 298.31,125.75 298.51,136.37 298.45,136.71 298.40,137.05 298.24,137.36 298.08,137.66 297.84,137.90 297.59,138.14 297.28,138.29 296.97,138.44 296.62,138.48 296.28,138.52 295.94,138.45 295.61,138.37 295.31,138.20 295.01,138.03 294.79,137.76 294.56,137.50 294.43,137.19 294.30,136.87 294.28,136.52 294.26,136.18 294.35,135.85 294.44,135.51 294.63,135.23 294.82,134.94 295.09,134.73 295.36,134.52 295.69,134.40 296.01,134.29 296.36,134.29 296.70,134.29 297.03,134.39 297.36,134.50 297.63,134.71 297.91,134.91 298.11,135.20 298.30,135.48 298.40,135.81 298.49,136.14 298.48,136.49 298.46,136.83 298.34,137.15 298.21,137.47 297.99,137.74 297.77,138.00 297.48,138.18 297.18,138.36 296.85,138.44 296.51,138.51 296.17,138.48 295.83,138.45 295.51,138.30 295.20,138.16 294.95,137.93 294.69,137.69 294.53,137.39 294.37,137.09 294.31,136.75 294.25,136.41 294.25,136.41 294.25,136.41 294.25,125.78 294.24,115.16 294.27,107.24 294.29,99.32 294.12,91.41 293.95,83.50 293.78,75.59 293.61,67.68 293.43,59.80 293.24,51.92 293.00,44.13 292.76,36.34 292.31,28.96 291.86,21.58 290.98,15.67 290.09,9.76 286.25,7.66 282.40,5.57 274.24,5.50 266.09,5.44 257.84,5.36 249.59,5.28 241.35,5.19 233.10,5.11 224.85,5.03 216.61,4.94 208.36,4.86 200.11,4.78 191.87,4.69 183.62,4.61 175.38,4.53 167.13,4.44 158.88,4.36 150.64,4.27 142.39,4.26 134.14,4.24 125.90,4.29 117.65,4.34 109.40,4.39 101.16,4.44 92.91,4.50 84.67,4.55 76.43,4.60 68.19,4.66 59.98,4.73 51.76,4.80 43.65,4.92 35.53,5.05 27.84,5.39 20.15,5.72 13.99,6.50 7.84,7.29 5.78,11.03 3.73,14.78 3.72,22.63 3.70,30.48 3.67,38.43 3.63,46.38 3.60,54.32 3.56,62.27 3.53,70.22 3.49,78.16 3.46,86.11 3.42,94.06 3.38,102.00 3.35,109.95 3.50,117.89 3.66,125.84 3.82,133.77 3.98,141.71 4.15,149.62 4.32,157.54 4.55,165.36 4.78,173.17 5.22,180.58 5.65,187.99 6.53,193.92 7.41,199.85 11.25,201.94 15.09,204.03 23.26,204.07 31.43,204.11 39.68,204.17 47.94,204.23 56.20,204.30 64.45,204.36 72.71,204.42 80.96,204.48 89.22,204.55 97.47,204.61 105.73,204.67 113.98,204.73 122.24,204.79 130.49,204.86 138.75,204.92 147.00,204.98 155.26,204.98 163.52,204.97 171.77,204.90 180.03,204.83 188.28,204.76 196.54,204.68 204.79,204.61 213.04,204.54 221.29,204.46 229.54,204.39 237.76,204.30 245.98,204.20 254.10,204.06 262.23,203.91 269.93,203.56 277.63,203.20 283.79,202.41 289.95,201.61 292.01,197.87 294.06,194.14 294.06,186.31 294.06,178.49 294.08,170.58 294.11,162.66 294.13,154.76 294.15,146.85 294.18,138.96 294.20,131.08 294.22,123.29 294.25,115.51 294.28,108.11 294.30,100.70 294.16,94.81 294.01,88.91 294.03,88.68 294.06,88.45 294.14,88.23 294.22,88.01 294.35,87.81 294.48,87.62 294.66,87.46 294.83,87.31 295.04,87.20 295.24,87.09 295.47,87.03 295.70,86.97 295.93,86.97 296.16,86.97 296.39,87.02 296.62,87.07 296.83,87.18 297.03,87.29 297.21,87.44 297.39,87.59 297.52,87.79 297.66,87.98 297.74,88.20 297.83,88.41 297.86,88.64 Z" fill="#36a64c" stroke="#36a64c" stroke-width="3.5" pointer-events="none"/></g><g id="6d8096a2-dd10-4a62-39ee-11a97ee11ea2_svg" class="tl-centered-g" transform="translate(1093.32, 251.89) rotate(0.00, 127.93, 31.51)"><path d="M 256.55,40.86 Q 256.55,40.86 256.76,43.27 256.97,45.68 257.13,48.91 257.28,52.13 254.17,56.39 251.06,60.64 243.35,61.83 235.65,63.01 227.38,63.18 219.11,63.35 210.66,63.35 202.21,63.35 193.70,63.30 185.19,63.26 176.67,63.20 168.15,63.14 159.63,63.09 151.11,63.03 142.58,62.97 134.06,62.91 125.53,63.01 117.01,63.11 108.48,63.22 99.96,63.32 91.43,63.42 82.91,63.53 74.38,63.63 65.86,63.73 57.34,63.84 48.81,63.94 40.29,64.04 31.76,64.15 23.15,64.23 14.54,64.31 9.00,61.37 3.45,58.44 1.91,54.73 0.37,51.01 0.19,47.47 0.00,43.92 0.13,40.62 0.25,37.31 0.28,34.07 0.30,30.82 0.18,27.58 0.06,24.35 -0.05,21.11 -0.17,17.88 -0.23,14.47 -0.29,11.07 2.85,6.79 5.99,2.50 13.66,1.30 21.33,0.09 29.55,-0.07 37.77,-0.25 46.17,-0.25 54.58,-0.26 63.03,-0.21 71.48,-0.17 79.95,-0.12 88.42,-0.07 96.89,-0.02 105.36,0.03 113.83,0.08 122.30,0.13 130.77,0.03 139.24,-0.07 147.71,-0.18 156.18,-0.29 164.65,-0.39 173.12,-0.50 181.59,-0.61 190.07,-0.72 198.54,-0.83 207.01,-0.93 215.48,-1.04 223.95,-1.15 232.51,-1.23 241.06,-1.32 246.58,1.59 252.11,4.50 253.72,8.21 255.34,11.92 255.63,15.47 255.92,19.01 255.90,22.33 255.89,25.65 255.97,28.90 256.05,32.16 256.28,35.40 256.51,38.64 256.76,42.99 257.00,47.34 256.94,47.75 256.89,48.16 256.70,48.53 256.51,48.90 256.22,49.19 255.92,49.48 255.55,49.66 255.18,49.84 254.76,49.89 254.35,49.95 253.95,49.87 253.54,49.78 253.18,49.58 252.82,49.37 252.55,49.06 252.27,48.75 252.11,48.37 251.95,47.99 251.92,47.57 251.89,47.16 251.99,46.76 252.10,46.36 252.32,46.01 252.55,45.66 252.87,45.40 253.20,45.15 253.59,45.01 253.98,44.87 254.39,44.86 254.81,44.85 255.20,44.97 255.60,45.10 255.93,45.34 256.27,45.59 256.51,45.93 256.75,46.27 256.86,46.66 256.98,47.06 256.97,47.47 256.95,47.89 256.81,48.28 256.66,48.66 256.40,48.99 256.14,49.31 255.79,49.53 255.44,49.75 255.03,49.84 254.63,49.94 254.22,49.90 253.80,49.87 253.42,49.70 253.04,49.53 252.74,49.26 252.43,48.98 252.23,48.61 252.03,48.25 251.95,47.84 251.88,47.44 251.88,47.44 251.88,47.44 251.96,43.08 252.03,38.73 252.13,35.49 252.23,32.25 252.14,29.03 252.06,25.81 251.77,22.67 251.47,19.52 251.03,16.67 250.58,13.82 249.67,11.37 248.76,8.93 244.75,6.64 240.74,4.36 232.35,4.32 223.97,4.29 215.49,4.24 207.02,4.18 198.55,4.13 190.08,4.07 181.61,4.02 173.14,3.96 164.67,3.91 156.19,3.85 147.72,3.80 139.25,3.74 130.78,3.69 122.31,3.63 113.84,3.74 105.37,3.85 96.90,3.96 88.43,4.07 79.97,4.18 71.50,4.29 63.06,4.41 54.62,4.53 46.28,4.70 37.93,4.86 29.97,5.18 22.02,5.50 15.73,6.08 9.44,6.67 7.34,9.25 5.25,11.83 5.10,14.89 4.95,17.95 4.74,21.18 4.53,24.40 4.33,27.63 4.13,30.85 4.10,34.06 4.08,37.27 4.27,40.41 4.46,43.55 4.82,46.39 5.17,49.22 6.00,51.65 6.83,54.08 10.85,56.35 14.87,58.62 23.31,58.66 31.75,58.70 40.27,58.75 48.80,58.81 57.32,58.87 65.85,58.93 74.37,58.99 82.90,59.05 91.42,59.11 99.95,59.17 108.47,59.23 117.00,59.29 125.52,59.35 134.05,59.41 142.57,59.30 151.10,59.20 159.62,59.10 168.14,58.99 176.66,58.89 185.18,58.78 193.67,58.66 202.16,58.55 210.56,58.39 218.96,58.23 226.97,57.92 234.98,57.61 241.30,57.04 247.62,56.47 249.70,53.96 251.77,51.45 251.81,48.62 251.85,45.78 251.96,43.36 252.08,40.95 252.11,40.68 252.14,40.41 252.23,40.16 252.32,39.90 252.47,39.68 252.61,39.45 252.81,39.27 253.01,39.09 253.25,38.96 253.48,38.83 253.75,38.76 254.01,38.69 254.28,38.68 254.55,38.68 254.81,38.74 255.07,38.80 255.31,38.92 255.55,39.04 255.76,39.21 255.96,39.39 256.12,39.61 256.28,39.83 256.38,40.08 256.48,40.33 256.52,40.59 Z" fill="#36a64c" stroke="#36a64c" stroke-width="3.5" pointer-events="none"/></g><g id="903470b1-3839-41de-0360-3c79e846603c_svg" class="tl-centered-g" transform="translate(1094.40, 337.18) rotate(0.00, 127.93, 31.51)"><path d="M 256.52,42.00 Q 256.52,42.00 256.69,44.40 256.86,46.81 256.97,50.01 257.07,53.21 253.94,57.45 250.80,61.69 243.10,62.83 235.40,63.97 227.13,64.08 218.86,64.20 210.41,64.13 201.96,64.07 193.46,63.97 184.96,63.86 176.44,63.75 167.93,63.63 159.41,63.51 150.89,63.39 142.37,63.28 133.85,63.16 125.33,63.20 116.80,63.24 108.28,63.29 99.76,63.33 91.24,63.37 82.72,63.42 74.20,63.46 65.68,63.50 57.15,63.55 48.63,63.59 40.11,63.63 31.59,63.68 22.99,63.70 14.38,63.72 8.84,60.77 3.30,57.82 1.78,54.15 0.26,50.47 0.09,46.98 -0.06,43.48 0.07,40.23 0.21,36.99 0.26,33.80 0.30,30.61 0.20,27.43 0.09,24.25 -0.00,21.07 -0.10,17.89 -0.14,14.55 -0.18,11.21 2.97,6.94 6.12,2.67 13.80,1.50 21.48,0.33 29.72,0.19 37.95,0.05 46.37,0.09 54.78,0.12 63.25,0.20 71.71,0.28 80.19,0.37 88.67,0.46 97.15,0.55 105.64,0.64 114.12,0.73 122.60,0.82 131.09,0.75 139.57,0.68 148.06,0.61 156.54,0.54 165.03,0.47 173.51,0.40 181.99,0.33 190.48,0.26 198.96,0.19 207.45,0.12 215.93,0.05 224.42,-0.01 232.99,-0.05 241.55,-0.10 247.08,2.82 252.61,5.76 254.18,9.46 255.76,13.17 256.00,16.71 256.23,20.24 256.17,23.54 256.10,26.84 256.13,30.09 256.16,33.33 256.33,36.56 256.51,39.79 256.69,44.12 256.86,48.45 256.80,48.86 256.73,49.27 256.54,49.64 256.34,50.00 256.04,50.29 255.74,50.57 255.37,50.75 254.99,50.92 254.58,50.97 254.17,51.02 253.76,50.93 253.36,50.84 253.00,50.63 252.65,50.42 252.38,50.10 252.11,49.79 251.95,49.40 251.80,49.02 251.77,48.60 251.75,48.19 251.86,47.79 251.97,47.39 252.20,47.05 252.43,46.70 252.76,46.45 253.09,46.20 253.48,46.06 253.88,45.93 254.29,45.93 254.71,45.93 255.10,46.06 255.49,46.19 255.82,46.44 256.15,46.69 256.39,47.03 256.62,47.37 256.73,47.77 256.85,48.17 256.82,48.59 256.80,49.00 256.65,49.39 256.50,49.77 256.23,50.09 255.96,50.41 255.61,50.62 255.26,50.84 254.85,50.93 254.45,51.02 254.03,50.97 253.62,50.93 253.24,50.76 252.87,50.58 252.57,50.30 252.26,50.01 252.07,49.65 251.87,49.28 251.81,48.87 251.74,48.47 251.74,48.47 251.74,48.47 251.89,44.14 252.03,39.81 252.18,36.58 252.33,33.36 252.30,30.16 252.27,26.95 252.03,23.82 251.78,20.69 251.38,17.85 250.98,15.01 250.11,12.58 249.24,10.15 245.22,7.86 241.21,5.58 232.81,5.51 224.41,5.43 215.92,5.34 207.44,5.25 198.96,5.16 190.47,5.06 181.99,4.97 173.50,4.88 165.02,4.79 156.54,4.69 148.05,4.60 139.57,4.51 131.08,4.42 122.60,4.32 114.11,4.39 105.63,4.46 97.15,4.54 88.67,4.61 80.19,4.68 71.71,4.75 63.26,4.84 54.81,4.92 46.45,5.05 38.09,5.18 30.11,5.46 22.14,5.74 15.84,6.30 9.54,6.85 7.45,9.42 5.36,11.99 5.19,14.99 5.02,17.99 4.79,21.16 4.57,24.33 4.35,27.50 4.12,30.66 4.08,33.81 4.04,36.97 4.21,40.05 4.39,43.13 4.72,45.91 5.05,48.69 5.87,51.07 6.69,53.46 10.72,55.75 14.74,58.03 23.18,58.13 31.61,58.23 40.13,58.35 48.66,58.47 57.18,58.58 65.70,58.70 74.22,58.82 82.74,58.94 91.26,59.06 99.78,59.18 108.30,59.30 116.82,59.42 125.34,59.54 133.86,59.66 142.38,59.61 150.90,59.57 159.42,59.52 167.94,59.48 176.46,59.43 184.97,59.39 193.46,59.33 201.95,59.27 210.35,59.17 218.75,59.07 226.75,58.82 234.76,58.56 241.08,58.03 247.40,57.50 249.47,54.99 251.55,52.48 251.64,49.65 251.73,46.82 251.89,44.42 252.04,42.01 252.08,41.74 252.11,41.48 252.20,41.22 252.30,40.97 252.45,40.75 252.60,40.53 252.80,40.35 253.00,40.17 253.24,40.04 253.48,39.92 253.74,39.85 254.01,39.78 254.27,39.78 254.54,39.78 254.81,39.85 255.07,39.91 255.31,40.04 255.55,40.16 255.75,40.34 255.95,40.52 256.11,40.74 256.26,40.96 256.36,41.21 256.45,41.46 256.49,41.73 Z" fill="#36a64c" stroke="#36a64c" stroke-width="3.5" pointer-events="none"/></g><g id="1e4ed91c-f13a-4445-08d1-02c9677a541f_svg" class="tl-centered-g" transform="translate(767.75, 329.74) rotate(0.00, 137.71, 0.73)"><defs><mask id="1e4ed91c-f13a-4445-08d1-02c9677a541f_clip"><rect x="-100" y="-100" width="475.41" height="201.46" fill="white"/><rect x="137.70" y="0.73" width="0" height="0" rx="4" ry="4" fill="black" opacity="1"/></mask></defs><g pointer-events="none" opacity="1" mask=""><path d="M 275.40,3.19 Q 275.40,3.19 241.41,2.95 207.42,2.72 173.43,2.49 139.44,2.27 105.45,2.06 71.46,1.85 37.48,1.65 3.49,1.45 3.26,1.41 3.03,1.37 2.83,1.26 2.62,1.15 2.46,0.98 2.31,0.81 2.21,0.60 2.11,0.39 2.09,0.16 2.07,-0.06 2.12,-0.29 2.17,-0.51 2.29,-0.71 2.41,-0.91 2.59,-1.06 2.76,-1.21 2.98,-1.29 3.19,-1.38 3.43,-1.39 3.66,-1.40 3.88,-1.34 4.10,-1.27 4.29,-1.14 4.49,-1.01 4.62,-0.83 4.76,-0.64 4.84,-0.42 4.91,-0.20 4.91,0.02 4.91,0.25 4.83,0.47 4.76,0.69 4.62,0.87 4.47,1.06 4.28,1.19 4.09,1.32 3.87,1.38 3.64,1.44 3.41,1.42 3.18,1.41 2.96,1.32 2.75,1.24 2.57,1.09 2.40,0.93 2.28,0.74 2.16,0.54 2.11,0.31 2.06,0.08 2.09,-0.14 2.12,-0.37 2.22,-0.58 2.31,-0.79 2.47,-0.95 2.63,-1.12 2.84,-1.23 3.05,-1.34 3.27,-1.37 3.50,-1.41 3.50,-1.41 3.50,-1.41 37.49,-1.25 71.48,-1.09 105.47,-0.94 139.46,-0.79 173.45,-0.66 207.44,-0.52 241.43,-0.39 275.41,-0.27 275.62,-0.24 275.83,-0.22 276.02,-0.14 276.22,-0.07 276.39,0.04 276.56,0.16 276.70,0.32 276.84,0.48 276.93,0.66 277.03,0.85 277.08,1.05 277.13,1.26 277.13,1.46 277.12,1.67 277.07,1.88 277.02,2.08 276.92,2.26 276.83,2.45 276.69,2.60 276.55,2.76 276.37,2.88 276.20,2.99 276.01,3.07 275.81,3.14 275.60,3.16 Z" fill="#36a64c" stroke="#36a64c" stroke-width="3.33" stroke-dasharray="none" stroke-dashoffset="none" stroke-linecap="round" stroke-linejoin="round" pointer-events="stroke"/><g><path d="M 24.17,14.128348440743068 L 0,0 24.32,-13.87125813133104" fill="none" stroke="#36a64c" stroke-width="6.66" stroke-linecap="round" stroke-linejoin="round" pointer-events="none"/></g></g></g><g text-align="left" text-anchor="start" fill="#36a64c" transform="translate(1154.39, 478.18) rotate(0.00, 111.00, 29.00)"><text y="24" letter-spacing="-1.44" font-size="48px" font-family="Caveat Brush" text-align="left" alignment-baseline="central" transform="translate(0, 0)">userItemView</text></g><g id="08968d30-af4f-4909-351a-99b2dc300858_svg" class="tl-centered-g" transform="translate(1232.95, 357.55) rotate(0.00, 10.50, 49.13)"><defs><mask id="08968d30-af4f-4909-351a-99b2dc300858_clip"><rect x="-100" y="-100" width="221" height="298.27" fill="white"/><rect x="10.5" y="49.13" width="0" height="0" rx="3.14" ry="3.14" fill="black" opacity="1"/></mask></defs><g pointer-events="none" opacity="1" mask=""><path d="M 19.36,98.62 Q 19.36,98.62 16.88,86.75 14.41,74.88 11.92,63.01 9.43,51.15 6.92,39.29 4.42,27.42 1.91,15.56 -0.59,3.70 -0.60,3.48 -0.61,3.26 -0.55,3.05 -0.49,2.84 -0.36,2.66 -0.24,2.48 -0.06,2.35 0.10,2.22 0.31,2.15 0.52,2.08 0.73,2.08 0.95,2.08 1.16,2.16 1.37,2.23 1.54,2.36 1.71,2.49 1.84,2.68 1.96,2.86 2.02,3.07 2.07,3.28 2.06,3.50 2.05,3.72 1.96,3.92 1.88,4.12 1.74,4.29 1.60,4.45 1.41,4.57 1.22,4.68 1.01,4.72 0.79,4.77 0.57,4.74 0.36,4.72 0.16,4.63 -0.03,4.53 -0.19,4.38 -0.35,4.23 -0.45,4.04 -0.55,3.84 -0.58,3.63 -0.62,3.41 -0.58,3.19 -0.54,2.98 -0.44,2.78 -0.34,2.59 -0.18,2.44 -0.02,2.29 0.17,2.20 0.37,2.11 0.59,2.09 0.81,2.07 1.02,2.12 1.24,2.16 1.42,2.28 1.61,2.39 1.75,2.56 1.89,2.73 1.97,2.93 2.05,3.14 2.05,3.14 2.05,3.13 4.61,14.99 7.16,26.84 9.73,38.69 12.30,50.53 14.87,62.38 17.45,74.23 20.04,86.07 22.63,97.91 22.65,98.12 22.67,98.32 22.64,98.52 22.61,98.72 22.53,98.90 22.45,99.09 22.33,99.25 22.21,99.42 22.06,99.54 21.90,99.67 21.72,99.76 21.54,99.85 21.34,99.89 21.15,99.93 20.94,99.93 20.74,99.92 20.55,99.87 20.35,99.81 20.18,99.71 20.00,99.61 19.85,99.48 19.71,99.34 19.60,99.17 19.49,99.00 19.42,98.81 Z" fill="#36a64c" stroke="#36a64c" stroke-width="3.33" stroke-dasharray="none" stroke-dashoffset="none" stroke-linecap="round" stroke-linejoin="round" pointer-events="stroke"/><g><path d="M -8.623421924738103,26.639005129845714 L 0,0 18.75,20.787605019297757" fill="none" stroke="#36a64c" stroke-width="6.66" stroke-linecap="round" stroke-linejoin="round" pointer-events="none"/></g></g></g><g text-align="center" text-anchor="middle" fill="#ebbb38" transform="translate(788.04, 340.62) rotate(0.00, 124.50, 27.00)"><text y="48" letter-spacing="-2.88" font-size="96px" font-family="Caveat Brush" text-align="center" alignment-baseline="central" transform="scale(0.45843665107538945)" x="271.57">server generated</text></g></svg>