<svg xmlns="http://www.w3.org/2000/svg" viewBox="0 0 1504 688" width="1472" height="656" style="background-color: transparent;"><defs><style>@import url('https://fonts.googleapis.com/css2?family=Caveat+Brush&amp;family=Source+Code+Pro&amp;family=Source+Sans+Pro&amp;family=Crimson+Pro&amp;display=block');</style></defs><g id="c286159d-3cd8-4d6d-2ca8-8004c36d8abf_svg" class="tl-centered-g" transform="translate(16.00, 16.00) rotate(0.00, 736.00, 328.00)"><g pointer-events="none" stroke="transparent" stroke-width="4.23" stroke-linecap="round"><line x1="2.11" y1="2.11" x2="1469.88" y2="2.11" stroke-dasharray="0.03 6.46" stroke-dashoffset="0"/><line x1="1469.88" y1="2.11" x2="1469.88" y2="653.88" stroke-dasharray="0.03 6.48" stroke-dashoffset="0"/><line x1="1469.88" y1="653.88" x2="2.11" y2="653.88" stroke-dasharray="0.03 6.46" stroke-dashoffset="0"/><line x1="2.11" y1="653.88" x2="2.11" y2="2.11" stroke-dasharray="0.03 6.48" stroke-dashoffset="0"/></g></g><g id="f52a5e6c-4c6b-42ab-27ac-01a9ccb145db_svg" class="tl-centered-g" transform="translate(234.47, 107.42) rotate(0.00, 24.68, 235.26)"><g opacity="1"><path d="M 22.26,0.21 Q 22.26,0.21 21.15,0.48 20.04,0.75 18.93,1.31 17.81,1.88 16.66,2.70 15.50,3.51 14.24,4.50 12.97,5.50 11.78,6.54 10.58,7.59 9.58,8.56 8.58,9.53 7.67,10.50 6.76,11.48 5.95,12.44 5.13,13.40 4.49,14.26 3.85,15.13 3.40,15.93 2.95,16.73 2.66,17.57 2.37,18.41 2.21,19.37 2.04,20.32 1.95,21.02 1.86,21.72 1.88,22.51 1.91,23.29 2.13,24.08 2.35,24.87 2.81,25.68 3.27,26.49 3.92,27.38 4.57,28.26 5.38,29.20 6.19,30.14 7.12,31.11 8.06,32.08 9.05,33.01 10.04,33.94 11.22,34.88 12.39,35.81 13.71,36.72 15.03,37.62 16.27,38.42 17.51,39.22 18.61,39.89 19.71,40.55 20.73,41.13 21.74,41.72 22.70,42.30 23.66,42.88 24.56,43.46 25.46,44.05 26.30,44.62 27.15,45.20 27.93,45.78 28.70,46.35 29.40,46.94 30.09,47.53 30.70,48.17 31.31,48.80 31.82,49.46 32.32,50.13 32.72,50.81 33.12,51.49 33.44,52.24 33.76,53.00 34.00,53.90 34.23,54.80 34.37,55.82 34.51,56.83 34.58,57.85 34.66,58.87 34.58,59.88 34.50,60.89 34.06,62.00 33.62,63.11 32.81,64.36 32.00,65.60 30.99,66.88 29.99,68.16 28.81,69.54 27.63,70.92 25.97,72.70 24.31,74.48 23.12,75.77 21.93,77.07 20.75,78.35 19.57,79.63 18.61,80.72 17.64,81.81 16.84,82.77 16.04,83.74 15.29,84.73 14.54,85.73 13.91,86.72 13.27,87.71 12.74,88.66 12.21,89.60 11.81,90.46 11.42,91.33 11.16,92.19 10.91,93.05 10.76,93.89 10.62,94.73 10.55,95.57 10.47,96.41 10.48,97.25 10.49,98.09 10.70,98.85 10.92,99.60 11.43,100.28 11.94,100.96 12.78,101.65 13.62,102.34 14.76,103.04 15.90,103.75 17.23,104.45 18.55,105.14 20.03,105.86 21.50,106.59 23.08,107.32 24.66,108.05 26.12,108.69 27.57,109.34 28.82,109.89 30.06,110.43 31.23,110.98 32.40,111.53 33.50,112.11 34.60,112.69 35.56,113.24 36.51,113.78 37.27,114.31 38.03,114.84 38.60,115.45 39.17,116.05 39.58,116.73 39.98,117.41 40.23,118.14 40.47,118.88 40.61,119.70 40.74,120.53 40.63,121.46 40.51,122.38 39.95,123.49 39.38,124.60 38.32,125.91 37.25,127.23 35.21,129.19 33.18,131.16 31.62,132.58 30.07,133.99 27.85,135.84 25.63,137.68 23.95,139.05 22.28,140.42 20.71,141.67 19.15,142.92 17.58,144.18 16.00,145.44 14.35,146.81 12.70,148.18 11.43,149.33 10.16,150.48 8.96,151.62 7.76,152.76 6.61,153.93 5.46,155.10 4.65,156.13 3.84,157.16 3.21,158.16 2.59,159.17 2.11,160.13 1.63,161.10 1.29,162.04 0.94,162.98 0.73,163.86 0.52,164.74 0.40,165.52 0.28,166.29 0.22,167.04 0.16,167.79 0.18,168.56 0.20,169.34 0.43,170.06 0.65,170.79 1.15,171.45 1.65,172.12 2.43,172.80 3.22,173.48 4.24,174.23 5.26,174.99 6.45,175.78 7.65,176.58 8.99,177.42 10.34,178.26 11.82,179.20 13.30,180.14 14.81,181.21 16.33,182.27 17.77,183.43 19.22,184.59 20.62,185.95 22.03,187.31 23.31,188.83 24.59,190.34 25.61,191.87 26.64,193.40 27.42,194.95 28.20,196.50 28.77,198.09 29.33,199.69 29.80,201.94 30.27,204.19 30.53,205.83 30.79,207.48 30.94,209.27 31.08,211.05 31.03,212.92 30.97,214.78 30.63,216.61 30.28,218.45 29.68,220.30 29.07,222.14 28.33,223.92 27.58,225.70 26.90,227.16 26.22,228.62 25.49,229.93 24.77,231.24 24.01,232.54 23.25,233.84 22.63,234.93 22.00,236.02 21.52,236.89 21.03,237.77 20.69,238.48 20.35,239.18 20.14,239.78 19.93,240.37 19.82,240.87 19.71,241.36 19.76,241.81 19.81,242.26 20.25,242.73 20.70,243.21 21.58,243.73 22.47,244.24 23.74,244.80 25.02,245.36 26.65,245.95 28.29,246.55 29.98,247.12 31.68,247.70 33.24,248.23 34.80,248.75 36.27,249.28 37.74,249.81 39.14,250.35 40.54,250.89 41.81,251.45 43.08,252.01 44.10,252.57 45.13,253.13 45.91,253.62 46.69,254.11 47.25,254.48 47.81,254.85 48.15,255.08 48.50,255.31 48.69,255.47 48.89,255.63 48.97,255.84 49.06,256.06 48.99,256.53 48.93,257.01 48.64,257.82 48.35,258.63 47.86,259.72 47.36,260.81 46.65,262.09 45.95,263.37 45.07,264.79 44.19,266.21 43.18,267.79 42.17,269.37 40.96,271.13 39.75,272.89 38.41,274.73 37.08,276.57 35.76,278.32 34.45,280.06 33.18,281.66 31.90,283.27 30.69,284.78 29.48,286.29 28.62,287.36 27.75,288.43 26.78,289.63 25.80,290.83 25.16,291.66 24.52,292.50 24.03,293.26 23.54,294.02 23.20,294.69 22.87,295.37 22.65,295.99 22.43,296.62 22.31,297.22 22.19,297.82 22.13,298.41 22.06,299.00 22.19,299.55 22.33,300.10 22.75,300.68 23.16,301.25 23.72,301.88 24.29,302.50 24.99,303.14 25.69,303.79 26.43,304.42 27.17,305.05 27.82,305.68 28.48,306.31 29.08,306.97 29.68,307.62 30.20,308.32 30.73,309.01 31.17,309.81 31.61,310.61 31.93,311.54 32.24,312.48 32.43,313.57 32.62,314.66 32.53,316.08 32.44,317.50 31.79,319.34 31.15,321.19 29.88,323.41 28.62,325.62 26.83,328.12 25.04,330.63 23.08,333.11 21.12,335.59 19.18,337.93 17.23,340.26 15.44,342.40 13.65,344.54 12.09,346.43 10.53,348.31 9.16,349.96 7.79,351.60 6.67,352.97 5.55,354.35 4.70,355.50 3.86,356.65 3.32,357.68 2.78,358.71 2.47,359.65 2.17,360.59 2.19,361.44 2.22,362.30 2.73,363.02 3.24,363.74 4.30,364.51 5.36,365.28 6.69,365.96 8.03,366.65 9.72,367.35 11.40,368.06 13.28,368.84 15.16,369.61 16.94,370.34 18.73,371.07 20.33,371.77 21.93,372.46 23.43,373.13 24.93,373.80 26.34,374.51 27.74,375.22 28.98,376.02 30.21,376.83 31.10,377.66 31.99,378.50 32.52,379.41 33.06,380.32 33.33,381.39 33.61,382.47 33.60,383.77 33.60,385.07 33.19,386.62 32.78,388.16 32.07,389.76 31.36,391.36 30.58,392.83 29.81,394.30 29.01,395.72 28.21,397.13 27.41,398.54 26.61,399.95 25.91,401.27 25.22,402.59 24.66,403.87 24.10,405.15 23.68,406.43 23.27,407.71 23.01,408.90 22.76,410.09 22.67,411.17 22.59,412.25 22.77,413.24 22.96,414.23 23.48,415.18 24.00,416.13 24.77,417.03 25.54,417.93 26.40,418.70 27.26,419.48 28.09,420.13 28.93,420.78 29.70,421.34 30.48,421.91 31.23,422.48 31.99,423.05 32.66,423.76 33.33,424.48 33.74,425.05 34.14,425.62 34.40,426.28 34.66,426.94 34.80,427.75 34.94,428.56 34.85,429.62 34.77,430.69 34.34,431.91 33.91,433.13 33.35,434.32 32.79,435.51 32.20,436.69 31.60,437.86 30.92,439.13 30.23,440.40 29.54,441.67 28.86,442.94 28.31,444.07 27.75,445.20 27.33,446.19 26.91,447.19 26.64,448.19 26.36,449.19 26.21,450.25 26.05,451.32 25.97,452.39 25.88,453.47 25.84,454.55 25.79,455.63 25.76,456.72 25.74,457.80 25.75,458.87 25.75,459.94 25.82,461.03 25.89,462.11 26.00,463.16 26.12,464.21 26.25,465.13 26.38,466.05 26.52,466.80 26.65,467.56 26.77,468.15 26.88,468.74 27.04,469.63 27.21,470.53 27.21,470.53" fill="none" stroke="none" stroke-width="4" stroke-linejoin="round" stroke-linecap="round" pointer-events="none"/><path d="M 22.26,0.21 Q 22.26,0.21 21.15,0.48 20.04,0.75 18.93,1.31 17.81,1.88 16.66,2.70 15.50,3.51 14.24,4.50 12.97,5.50 11.78,6.54 10.58,7.59 9.58,8.56 8.58,9.53 7.67,10.50 6.76,11.48 5.95,12.44 5.13,13.40 4.49,14.26 3.85,15.13 3.40,15.93 2.95,16.73 2.66,17.57 2.37,18.41 2.21,19.37 2.04,20.32 1.95,21.02 1.86,21.72 1.88,22.51 1.91,23.29 2.13,24.08 2.35,24.87 2.81,25.68 3.27,26.49 3.92,27.38 4.57,28.26 5.38,29.20 6.19,30.14 7.12,31.11 8.06,32.08 9.05,33.01 10.04,33.94 11.22,34.88 12.39,35.81 13.71,36.72 15.03,37.62 16.27,38.42 17.51,39.22 18.61,39.89 19.71,40.55 20.73,41.13 21.74,41.72 22.70,42.30 23.66,42.88 24.56,43.46 25.46,44.05 26.30,44.62 27.15,45.20 27.93,45.78 28.70,46.35 29.40,46.94 30.09,47.53 30.70,48.17 31.31,48.80 31.82,49.46 32.32,50.13 32.72,50.81 33.12,51.49 33.44,52.24 33.76,53.00 34.00,53.90 34.23,54.80 34.37,55.82 34.51,56.83 34.58,57.85 34.66,58.87 34.58,59.88 34.50,60.89 34.06,62.00 33.62,63.11 32.81,64.36 32.00,65.60 30.99,66.88 29.99,68.16 28.81,69.54 27.63,70.92 25.97,72.70 24.31,74.48 23.12,75.77 21.93,77.07 20.75,78.35 19.57,79.63 18.61,80.72 17.64,81.81 16.84,82.77 16.04,83.74 15.29,84.73 14.54,85.73 13.91,86.72 13.27,87.71 12.74,88.66 12.21,89.60 11.81,90.46 11.42,91.33 11.16,92.19 10.91,93.05 10.76,93.89 10.62,94.73 10.55,95.57 10.47,96.41 10.48,97.25 10.49,98.09 10.70,98.85 10.92,99.60 11.43,100.28 11.94,100.96 12.78,101.65 13.62,102.34 14.76,103.04 15.90,103.75 17.23,104.45 18.55,105.14 20.03,105.86 21.50,106.59 23.08,107.32 24.66,108.05 26.12,108.69 27.57,109.34 28.82,109.89 30.06,110.43 31.23,110.98 32.40,111.53 33.50,112.11 34.60,112.69 35.56,113.24 36.51,113.78 37.27,114.31 38.03,114.84 38.60,115.45 39.17,116.05 39.58,116.73 39.98,117.41 40.23,118.14 40.47,118.88 40.61,119.70 40.74,120.53 40.63,121.46 40.51,122.38 39.95,123.49 39.38,124.60 38.32,125.91 37.25,127.23 35.21,129.19 33.18,131.16 31.62,132.58 30.07,133.99 27.85,135.84 25.63,137.68 23.95,139.05 22.28,140.42 20.71,141.67 19.15,142.92 17.58,144.18 16.00,145.44 14.35,146.81 12.70,148.18 11.43,149.33 10.16,150.48 8.96,151.62 7.76,152.76 6.61,153.93 5.46,155.10 4.65,156.13 3.84,157.16 3.21,158.16 2.59,159.17 2.11,160.13 1.63,161.10 1.29,162.04 0.94,162.98 0.73,163.86 0.52,164.74 0.40,165.52 0.28,166.29 0.22,167.04 0.16,167.79 0.18,168.56 0.20,169.34 0.43,170.06 0.65,170.79 1.15,171.45 1.65,172.12 2.43,172.80 3.22,173.48 4.24,174.23 5.26,174.99 6.45,175.78 7.65,176.58 8.99,177.42 10.34,178.26 11.82,179.20 13.30,180.14 14.81,181.21 16.33,182.27 17.77,183.43 19.22,184.59 20.62,185.95 22.03,187.31 23.31,188.83 24.59,190.34 25.61,191.87 26.64,193.40 27.42,194.95 28.20,196.50 28.77,198.09 29.33,199.69 29.80,201.94 30.27,204.19 30.53,205.83 30.79,207.48 30.94,209.27 31.08,211.05 31.03,212.92 30.97,214.78 30.63,216.61 30.28,218.45 29.68,220.30 29.07,222.14 28.33,223.92 27.58,225.70 26.90,227.16 26.22,228.62 25.49,229.93 24.77,231.24 24.01,232.54 23.25,233.84 22.63,234.93 22.00,236.02 21.52,236.89 21.03,237.77 20.69,238.48 20.35,239.18 20.14,239.78 19.93,240.37 19.82,240.87 19.71,241.36 19.76,241.81 19.81,242.26 20.25,242.73 20.70,243.21 21.58,243.73 22.47,244.24 23.74,244.80 25.02,245.36 26.65,245.95 28.29,246.55 29.98,247.12 31.68,247.70 33.24,248.23 34.80,248.75 36.27,249.28 37.74,249.81 39.14,250.35 40.54,250.89 41.81,251.45 43.08,252.01 44.10,252.57 45.13,253.13 45.91,253.62 46.69,254.11 47.25,254.48 47.81,254.85 48.15,255.08 48.50,255.31 48.69,255.47 48.89,255.63 48.97,255.84 49.06,256.06 48.99,256.53 48.93,257.01 48.64,257.82 48.35,258.63 47.86,259.72 47.36,260.81 46.65,262.09 45.95,263.37 45.07,264.79 44.19,266.21 43.18,267.79 42.17,269.37 40.96,271.13 39.75,272.89 38.41,274.73 37.08,276.57 35.76,278.32 34.45,280.06 33.18,281.66 31.90,283.27 30.69,284.78 29.48,286.29 28.62,287.36 27.75,288.43 26.78,289.63 25.80,290.83 25.16,291.66 24.52,292.50 24.03,293.26 23.54,294.02 23.20,294.69 22.87,295.37 22.65,295.99 22.43,296.62 22.31,297.22 22.19,297.82 22.13,298.41 22.06,299.00 22.19,299.55 22.33,300.10 22.75,300.68 23.16,301.25 23.72,301.88 24.29,302.50 24.99,303.14 25.69,303.79 26.43,304.42 27.17,305.05 27.82,305.68 28.48,306.31 29.08,306.97 29.68,307.62 30.20,308.32 30.73,309.01 31.17,309.81 31.61,310.61 31.93,311.54 32.24,312.48 32.43,313.57 32.62,314.66 32.53,316.08 32.44,317.50 31.79,319.34 31.15,321.19 29.88,323.41 28.62,325.62 26.83,328.12 25.04,330.63 23.08,333.11 21.12,335.59 19.18,337.93 17.23,340.26 15.44,342.40 13.65,344.54 12.09,346.43 10.53,348.31 9.16,349.96 7.79,351.60 6.67,352.97 5.55,354.35 4.70,355.50 3.86,356.65 3.32,357.68 2.78,358.71 2.47,359.65 2.17,360.59 2.19,361.44 2.22,362.30 2.73,363.02 3.24,363.74 4.30,364.51 5.36,365.28 6.69,365.96 8.03,366.65 9.72,367.35 11.40,368.06 13.28,368.84 15.16,369.61 16.94,370.34 18.73,371.07 20.33,371.77 21.93,372.46 23.43,373.13 24.93,373.80 26.34,374.51 27.74,375.22 28.98,376.02 30.21,376.83 31.10,377.66 31.99,378.50 32.52,379.41 33.06,380.32 33.33,381.39 33.61,382.47 33.60,383.77 33.60,385.07 33.19,386.62 32.78,388.16 32.07,389.76 31.36,391.36 30.58,392.83 29.81,394.30 29.01,395.72 28.21,397.13 27.41,398.54 26.61,399.95 25.91,401.27 25.22,402.59 24.66,403.87 24.10,405.15 23.68,406.43 23.27,407.71 23.01,408.90 22.76,410.09 22.67,411.17 22.59,412.25 22.77,413.24 22.96,414.23 23.48,415.18 24.00,416.13 24.77,417.03 25.54,417.93 26.40,418.70 27.26,419.48 28.09,420.13 28.93,420.78 29.70,421.34 30.48,421.91 31.23,422.48 31.99,423.05 32.66,423.76 33.33,424.48 33.74,425.05 34.14,425.62 34.40,426.28 34.66,426.94 34.80,427.75 34.94,428.56 34.85,429.62 34.77,430.69 34.34,431.91 33.91,433.13 33.35,434.32 32.79,435.51 32.20,436.69 31.60,437.86 30.92,439.13 30.23,440.40 29.54,441.67 28.86,442.94 28.31,444.07 27.75,445.20 27.33,446.19 26.91,447.19 26.64,448.19 26.36,449.19 26.21,450.25 26.05,451.32 25.97,452.39 25.88,453.47 25.84,454.55 25.79,455.63 25.76,456.72 25.74,457.80 25.75,458.87 25.75,459.94 25.82,461.03 25.89,462.11 26.00,463.16 26.12,464.21 26.25,465.13 26.38,466.05 26.52,466.80 26.65,467.56 26.77,468.15 26.88,468.74 27.04,469.63 27.21,470.53 27.21,470.53" fill="none" stroke="#717d8a" stroke-width="4" stroke-dasharray="0.1 8" stroke-dashoffset="0" stroke-linejoin="round" stroke-linecap="round" pointer-events="none"/></g></g><g id="4965379c-57c6-43a1-0d47-eaf633ec6793_svg" class="tl-centered-g" transform="translate(59.89, 372.54) rotate(0.00, 147.88, 0.50)"><defs><mask id="4965379c-57c6-43a1-0d47-eaf633ec6793_clip"><rect x="-100" y="-100" width="495.75" height="201" fill="white"/><rect x="147.87" y="0.5" width="0" height="0" rx="4" ry="4" fill="black" opacity="1"/></mask></defs><g pointer-events="none" opacity="1" mask=""><path d="M -0.00,-1.51 Q -0.00,-1.51 36.33,-1.56 72.67,-1.60 109.02,-1.67 145.36,-1.74 181.71,-1.82 218.05,-1.90 254.39,-1.99 290.74,-2.08 291.07,-2.03 291.41,-1.97 291.71,-1.81 292.01,-1.66 292.25,-1.41 292.48,-1.16 292.63,-0.86 292.77,-0.55 292.81,-0.21 292.85,0.12 292.77,0.45 292.70,0.78 292.53,1.08 292.35,1.37 292.09,1.59 291.84,1.81 291.52,1.94 291.20,2.06 290.86,2.08 290.52,2.10 290.20,2.01 289.87,1.92 289.59,1.73 289.30,1.54 289.10,1.27 288.89,1.00 288.78,0.68 288.67,0.36 288.67,0.02 288.67,-0.31 288.78,-0.63 288.88,-0.96 289.09,-1.23 289.29,-1.50 289.57,-1.69 289.86,-1.88 290.18,-1.98 290.51,-2.07 290.85,-2.05 291.19,-2.03 291.51,-1.91 291.82,-1.78 292.08,-1.56 292.34,-1.34 292.52,-1.05 292.70,-0.76 292.77,-0.43 292.84,-0.10 292.81,0.23 292.77,0.57 292.63,0.88 292.49,1.19 292.26,1.43 292.02,1.68 291.72,1.84 291.42,2.00 291.09,2.06 290.75,2.11 290.75,2.11 290.75,2.11 254.41,2.27 218.06,2.42 181.72,2.59 145.38,2.75 109.03,2.93 72.69,3.11 36.35,3.31 0.00,3.51 -0.29,3.48 -0.59,3.44 -0.87,3.34 -1.16,3.23 -1.41,3.06 -1.66,2.89 -1.86,2.66 -2.06,2.43 -2.20,2.16 -2.35,1.90 -2.42,1.60 -2.49,1.31 -2.49,1.00 -2.50,0.70 -2.42,0.40 -2.35,0.11 -2.21,-0.15 -2.07,-0.42 -1.87,-0.65 -1.67,-0.87 -1.42,-1.05 -1.17,-1.22 -0.89,-1.33 -0.61,-1.44 -0.30,-1.48 Z" fill="#36a64c" stroke="#36a64c" stroke-width="4.54" stroke-dasharray="none" stroke-dashoffset="none" stroke-linecap="round" stroke-linejoin="round" pointer-events="stroke"/><g><path d="M 261.04,-19.88275695626808 L 295.75,0 261.17,20.117014390804908" fill="none" stroke="#36a64c" stroke-width="9.09" stroke-linecap="round" stroke-linejoin="round" pointer-events="none"/></g></g></g><g text-align="left" text-anchor="start" fill="#ebbb38" transform="translate(378.41, 339.42) rotate(0.00, 95.00, 29.00)"><text y="24" letter-spacing="-1.44" font-size="48px" font-family="Caveat Brush" text-align="left" alignment-baseline="central" transform="translate(0, 0)">/products/5</text></g><g text-align="left" text-anchor="start" fill="#cecece" transform="translate(312.17, 83.24) rotate(0.00, 29.50, 17.50)"><text y="14" letter-spacing="-0.84" font-size="28px" font-family="Caveat Brush" text-align="left" alignment-baseline="central" transform="scale(0.8818427620532716)">server</text></g><g text-align="left" text-anchor="start" fill="#ebbb38" transform="translate(309.86, 47.79) rotate(0.00, 122.00, 25.50)"><text y="14" letter-spacing="-0.84" font-size="28px" font-family="Caveat Brush" text-align="left" alignment-baseline="central" transform="scale(1.4639668915507422)">Remix Framework</text></g><g id="6ed8ed5e-6caf-44e9-1a4f-04f915f570b5_svg" class="tl-centered-g" transform="translate(831.07, 54.74) rotate(0.00, 104.61, 51.63)"><path d="M 208.74,71.48 Q 208.74,71.48 208.73,76.47 208.73,81.46 208.71,87.72 208.70,93.98 207.21,97.06 205.72,100.15 199.16,100.93 192.60,101.71 184.75,101.90 176.90,102.10 168.71,102.14 160.53,102.18 152.27,102.19 144.00,102.19 135.72,102.18 127.43,102.18 119.14,102.17 110.85,102.16 102.55,102.16 94.26,102.15 85.97,102.14 77.67,102.13 69.38,102.12 61.09,102.11 52.79,102.10 44.50,102.10 36.20,102.09 27.91,102.08 19.62,102.07 11.32,102.06 7.72,100.57 4.11,99.08 3.19,93.78 2.26,88.48 2.02,82.21 1.78,75.94 1.72,69.43 1.65,62.91 1.63,56.33 1.61,49.75 1.60,43.15 1.59,36.56 1.58,29.96 1.57,23.36 1.56,16.76 1.56,10.16 3.05,6.98 4.53,3.81 11.10,2.97 17.67,2.12 25.53,1.87 33.39,1.62 41.58,1.53 49.77,1.43 58.05,1.37 66.32,1.31 74.62,1.26 82.92,1.21 91.22,1.17 99.52,1.12 107.83,1.07 116.13,1.03 124.43,0.98 132.74,0.94 141.04,0.89 149.35,0.85 157.65,0.80 165.96,0.75 174.26,0.71 182.57,0.66 190.87,0.62 199.18,0.57 202.78,2.05 206.39,3.53 207.30,8.89 208.21,14.26 208.44,20.61 208.66,26.97 208.71,33.58 208.76,40.18 208.76,46.86 208.76,53.53 208.76,60.22 208.75,66.91 208.73,75.89" fill="#345246" pointer-events="none"/><path d="M 210.02,71.49 Q 210.02,71.49 210.11,76.47 210.19,81.46 210.26,87.76 210.34,94.05 208.47,97.67 206.61,101.29 199.69,102.27 192.78,103.24 184.86,103.38 176.93,103.53 168.74,103.52 160.54,103.51 152.27,103.46 144.00,103.41 135.72,103.35 127.43,103.29 119.14,103.23 110.85,103.16 102.55,103.21 94.26,103.26 85.97,103.30 77.67,103.35 69.38,103.39 61.08,103.44 52.79,103.48 44.50,103.53 36.20,103.57 27.91,103.62 19.59,103.66 11.27,103.70 7.15,101.86 3.02,100.03 1.92,94.38 0.82,88.73 0.66,82.36 0.51,75.99 0.53,69.46 0.56,62.92 0.54,56.34 0.51,49.75 0.41,43.16 0.31,36.56 0.21,29.96 0.11,23.36 0.01,16.72 -0.07,10.09 1.78,6.38 3.63,2.67 10.55,1.63 17.47,0.59 25.41,0.39 33.34,0.19 41.55,0.15 49.76,0.10 58.04,0.10 66.31,0.10 74.61,0.10 82.91,0.11 91.21,0.11 99.52,0.12 107.82,0.02 116.12,-0.07 124.43,-0.17 132.73,-0.27 141.04,-0.37 149.34,-0.47 157.65,-0.57 165.95,-0.67 174.25,-0.77 182.56,-0.87 190.89,-0.96 199.21,-1.06 203.35,0.76 207.49,2.59 208.57,8.30 209.66,14.01 209.80,20.47 209.94,26.92 209.89,33.55 209.85,40.18 209.85,46.85 209.86,53.53 209.94,60.22 210.03,66.91 210.11,75.89 210.18,84.88 210.15,85.11 210.11,85.34 210.00,85.55 209.88,85.76 209.71,85.92 209.54,86.09 209.32,86.19 209.11,86.28 208.87,86.31 208.64,86.33 208.41,86.28 208.18,86.23 207.97,86.11 207.77,85.99 207.62,85.81 207.46,85.63 207.38,85.41 207.29,85.19 207.28,84.95 207.26,84.71 207.33,84.48 207.39,84.26 207.53,84.06 207.66,83.86 207.85,83.72 208.04,83.58 208.26,83.50 208.49,83.43 208.72,83.43 208.96,83.43 209.18,83.50 209.41,83.58 209.60,83.72 209.78,83.87 209.92,84.06 210.05,84.26 210.11,84.49 210.18,84.72 210.16,84.95 210.15,85.19 210.06,85.41 209.97,85.63 209.82,85.81 209.67,85.99 209.46,86.11 209.26,86.23 209.03,86.28 208.80,86.34 208.56,86.31 208.33,86.28 208.11,86.18 207.90,86.08 207.72,85.92 207.55,85.76 207.44,85.55 207.33,85.34 207.29,85.10 207.26,84.87 207.26,84.87 207.26,84.87 207.36,75.89 207.47,66.90 207.57,60.22 207.67,53.53 207.67,46.86 207.66,40.19 207.52,33.60 207.38,27.01 207.08,20.76 206.77,14.50 206.03,9.48 205.29,4.47 202.21,3.34 199.14,2.21 190.85,2.21 182.57,2.21 174.27,2.20 165.96,2.19 157.66,2.18 149.36,2.17 141.05,2.16 132.75,2.15 124.44,2.15 116.14,2.14 107.83,2.13 99.53,2.12 91.23,2.22 82.92,2.32 74.63,2.43 66.33,2.53 58.06,2.64 49.79,2.75 41.61,2.91 33.43,3.06 25.65,3.35 17.86,3.65 11.65,4.30 5.43,4.94 4.31,7.58 3.19,10.22 3.11,16.79 3.03,23.36 2.95,29.96 2.86,36.56 2.78,43.15 2.70,49.75 2.72,56.32 2.74,62.90 2.90,69.40 3.06,75.89 3.38,82.06 3.71,88.23 4.46,93.18 5.21,98.13 8.29,99.28 11.37,100.42 19.64,100.48 27.91,100.54 36.21,100.60 44.50,100.66 52.79,100.73 61.09,100.79 69.38,100.85 77.67,100.91 85.97,100.98 94.26,101.04 102.55,101.10 110.85,101.16 119.14,101.12 127.43,101.07 135.72,101.02 144.00,100.97 152.26,100.91 160.53,100.86 168.69,100.76 176.86,100.66 184.64,100.42 192.42,100.18 198.62,99.59 204.83,99.01 205.95,96.45 207.07,93.90 207.17,87.68 207.26,81.46 207.36,76.47 207.46,71.48 207.48,71.33 207.50,71.18 207.56,71.03 207.61,70.89 207.70,70.76 207.79,70.63 207.90,70.53 208.02,70.43 208.16,70.36 208.29,70.29 208.44,70.25 208.59,70.21 208.75,70.21 208.90,70.22 209.05,70.25 209.20,70.29 209.33,70.36 209.47,70.43 209.59,70.54 209.70,70.64 209.79,70.77 209.88,70.89 209.93,71.04 209.99,71.18 210.00,71.33 Z" fill="#36a64c" stroke="#36a64c" stroke-width="2" pointer-events="none"/></g><g id="11a2e6ac-707c-4355-0d4a-43e96711fe8e_svg" class="tl-centered-g" transform="translate(975.66, 334.57) rotate(0.00, 104.61, 51.63)"><path d="M 88.27,0.98 Q 88.27,0.98 94.45,0.99 100.63,1.01 108.38,1.02 116.13,1.04 124.28,1.06 132.44,1.08 140.69,1.10 148.95,1.12 157.23,1.14 165.51,1.15 173.80,1.17 182.09,1.19 190.38,1.21 198.67,1.23 202.27,2.72 205.88,4.22 206.82,9.52 207.77,14.82 208.04,21.10 208.31,27.37 208.41,33.89 208.50,40.41 208.56,47.00 208.61,53.58 208.65,60.18 208.69,66.78 208.73,73.38 208.77,79.99 208.81,86.59 208.84,93.20 207.36,96.37 205.88,99.55 199.29,100.37 192.70,101.20 184.80,101.42 176.90,101.65 168.67,101.72 160.44,101.80 152.12,101.83 143.81,101.86 135.47,101.89 127.13,101.91 118.79,101.94 110.44,101.96 102.10,101.98 93.76,102.00 85.41,102.02 77.07,102.04 68.72,102.06 60.38,102.08 52.03,102.10 43.69,102.13 35.34,102.15 27.00,102.17 18.65,102.19 10.31,102.21 6.69,100.73 3.07,99.24 2.19,93.89 1.31,88.54 1.13,82.20 0.94,75.87 0.94,69.28 0.93,62.69 0.97,56.04 1.01,49.39 1.06,42.72 1.11,36.05 1.17,29.38 1.22,22.71 1.28,16.03 1.33,9.36 2.83,6.17 4.34,2.98 10.90,2.18 17.46,1.38 25.31,1.19 33.16,1.00 41.34,0.96 49.51,0.93 57.78,0.93 66.04,0.94 74.32,0.95 82.60,0.97 90.89,0.99 99.18,1.00 107.47,1.02 115.76,1.04 126.89,1.07" fill="#345246" pointer-events="none"/><path d="M 88.28,-0.12 Q 88.28,-0.12 94.45,-0.05 100.63,0.01 108.38,-0.02 116.13,-0.06 124.29,-0.09 132.44,-0.13 140.70,-0.16 148.95,-0.20 157.23,-0.23 165.51,-0.27 173.80,-0.30 182.09,-0.34 190.41,-0.37 198.72,-0.40 202.84,1.43 206.97,3.26 208.09,8.92 209.21,14.57 209.40,20.94 209.59,27.32 209.59,33.86 209.60,40.40 209.65,46.98 209.70,53.57 209.84,60.17 209.97,66.77 210.10,73.38 210.23,79.98 210.36,86.62 210.48,93.26 208.63,96.97 206.78,100.68 199.83,101.71 192.89,102.73 184.91,102.90 176.94,103.08 168.69,103.10 160.45,103.12 152.13,103.10 143.81,103.08 135.47,103.05 127.13,103.02 118.79,102.99 110.45,102.96 102.10,103.03 93.76,103.11 85.41,103.18 77.07,103.26 68.73,103.33 60.38,103.41 52.04,103.48 43.69,103.56 35.35,103.63 27.00,103.71 18.63,103.78 10.26,103.85 6.12,102.01 1.97,100.17 0.92,94.47 -0.13,88.78 -0.23,82.34 -0.33,75.90 -0.24,69.30 -0.15,62.69 -0.11,56.04 -0.07,49.38 -0.11,42.71 -0.16,36.04 -0.19,29.37 -0.23,22.69 -0.26,15.99 -0.29,9.28 1.57,5.56 3.45,1.84 10.36,0.84 17.27,-0.14 25.20,-0.29 33.12,-0.43 41.32,-0.41 49.51,-0.39 57.77,-0.33 66.04,-0.27 74.32,-0.20 82.61,-0.13 90.90,-0.06 99.18,0.00 107.47,-0.02 115.76,-0.06 126.89,-0.09 138.02,-0.11 138.22,-0.08 138.41,-0.05 138.58,0.03 138.76,0.12 138.89,0.27 139.03,0.41 139.11,0.59 139.19,0.77 139.21,0.96 139.23,1.16 139.19,1.35 139.15,1.54 139.05,1.71 138.94,1.88 138.79,2.01 138.64,2.14 138.46,2.21 138.28,2.28 138.08,2.29 137.88,2.30 137.69,2.25 137.51,2.19 137.34,2.08 137.18,1.97 137.06,1.82 136.94,1.66 136.88,1.47 136.82,1.29 136.82,1.09 136.82,0.89 136.88,0.71 136.94,0.52 137.06,0.36 137.18,0.21 137.35,0.10 137.51,-0.00 137.70,-0.06 137.89,-0.11 138.09,-0.10 138.28,-0.09 138.47,-0.01 138.65,0.05 138.80,0.18 138.95,0.31 139.05,0.48 139.15,0.64 139.19,0.84 139.23,1.03 139.21,1.22 139.19,1.42 139.11,1.60 139.02,1.78 138.89,1.92 138.75,2.06 138.58,2.15 138.40,2.25 138.21,2.28 138.02,2.31 138.02,2.31 138.02,2.31 126.89,2.23 115.76,2.15 107.47,2.08 99.18,2.00 90.89,2.04 82.60,2.08 74.32,2.12 66.04,2.15 57.78,2.20 49.52,2.25 41.36,2.34 33.19,2.43 25.42,2.67 17.64,2.91 11.44,3.51 5.23,4.12 4.10,6.78 2.97,9.44 2.83,16.08 2.69,22.72 2.54,29.39 2.39,36.06 2.25,42.73 2.10,49.39 2.06,56.04 2.02,62.69 2.12,69.26 2.22,75.83 2.49,82.07 2.75,88.30 3.46,93.31 4.17,98.31 7.26,99.44 10.35,100.57 18.67,100.60 26.99,100.63 35.34,100.66 43.68,100.69 52.03,100.73 60.37,100.76 68.72,100.79 77.06,100.83 85.41,100.86 93.75,100.89 102.10,100.92 110.44,100.96 118.78,100.88 127.13,100.80 135.46,100.73 143.80,100.65 152.11,100.56 160.43,100.47 168.64,100.34 176.86,100.22 184.68,99.94 192.50,99.67 198.75,99.04 204.99,98.41 206.10,95.77 207.21,93.14 207.26,86.57 207.30,80.00 207.36,73.39 207.41,66.79 207.46,60.19 207.52,53.59 207.46,47.01 207.41,40.43 207.22,33.93 207.03,27.42 206.68,21.25 206.33,15.08 205.56,10.13 204.79,5.17 201.70,4.02 198.62,2.87 190.35,2.80 182.08,2.73 173.80,2.66 165.51,2.59 157.23,2.51 148.95,2.44 140.69,2.37 132.43,2.30 124.28,2.22 116.13,2.15 108.38,2.08 100.63,2.01 94.45,2.05 88.27,2.09 88.14,2.07 88.01,2.05 87.88,2.01 87.76,1.96 87.65,1.88 87.54,1.81 87.45,1.71 87.36,1.61 87.30,1.49 87.24,1.37 87.21,1.24 87.17,1.11 87.17,0.98 87.17,0.84 87.21,0.71 87.24,0.58 87.30,0.47 87.36,0.35 87.45,0.25 87.54,0.15 87.65,0.07 87.76,0.00 87.89,-0.04 88.01,-0.09 88.14,-0.10 Z" fill="#36a64c" stroke="#36a64c" stroke-width="2" pointer-events="none"/></g><g text-align="left" text-anchor="start" fill="#cecece" transform="translate(848.28, 81.59) rotate(0.00, 86.50, 23.50)"><text y="24" letter-spacing="-1.44" font-size="48px" font-family="Caveat Brush" text-align="left" alignment-baseline="central" transform="scale(0.7747093953293803)">MainLayout()</text></g><g id="9d1f8b60-5bbb-40c2-2cff-a716db283a90_svg" class="tl-centered-g" transform="translate(716.12, 334.53) rotate(0.00, 104.61, 51.63)"><path d="M 121.44,102.33 Q 121.44,102.33 115.26,102.34 109.09,102.35 101.34,102.35 93.59,102.36 85.44,102.37 77.29,102.38 69.04,102.39 60.79,102.40 52.51,102.40 44.24,102.41 35.95,102.42 27.67,102.43 19.38,102.44 11.09,102.45 7.49,100.96 3.89,99.47 2.92,94.13 1.96,88.79 1.67,82.47 1.37,76.15 1.25,69.58 1.13,63.01 1.05,56.37 0.98,49.74 0.91,43.09 0.85,36.43 0.78,29.78 0.72,23.12 0.66,16.47 0.59,9.81 2.07,6.62 3.54,3.43 10.11,2.59 16.68,1.75 24.55,1.50 32.41,1.25 40.61,1.16 48.81,1.07 57.09,1.01 65.37,0.96 73.68,0.91 81.98,0.87 90.29,0.82 98.60,0.78 106.91,0.74 115.22,0.70 123.53,0.65 131.85,0.61 140.16,0.57 148.47,0.53 156.78,0.49 165.09,0.45 173.40,0.40 181.71,0.36 190.03,0.32 198.34,0.28 201.95,1.76 205.56,3.24 206.49,8.62 207.43,14.00 207.68,20.37 207.93,26.74 208.01,33.37 208.09,40.00 208.13,46.69 208.16,53.38 208.18,60.09 208.21,66.80 208.23,73.51 208.25,80.23 208.27,86.94 208.29,93.65 206.80,96.86 205.32,100.06 198.77,100.88 192.21,101.70 184.37,101.92 176.53,102.14 168.35,102.20 160.18,102.26 151.92,102.28 143.66,102.30 135.38,102.31 127.10,102.33 118.82,102.33 110.53,102.34 102.25,102.35 93.96,102.36 82.84,102.37" fill="#404a53" pointer-events="none"/><path d="M 121.44,103.44 Q 121.44,103.44 115.26,103.39 109.09,103.35 101.34,103.41 93.59,103.47 85.44,103.53 77.30,103.60 69.04,103.66 60.79,103.72 52.51,103.78 44.24,103.85 35.95,103.91 27.67,103.97 19.36,104.03 11.05,104.09 6.92,102.26 2.80,100.43 1.66,94.74 0.52,89.05 0.31,82.63 0.10,76.21 0.07,69.62 0.04,63.03 -0.03,56.39 -0.11,49.75 -0.26,43.10 -0.42,36.45 -0.58,29.79 -0.73,23.14 -0.88,16.45 -1.03,9.76 0.80,6.03 2.65,2.30 9.57,1.26 16.48,0.22 24.43,0.02 32.37,-0.17 40.58,-0.21 48.79,-0.25 57.08,-0.25 65.37,-0.25 73.67,-0.24 81.98,-0.23 90.29,-0.22 98.60,-0.21 106.91,-0.31 115.22,-0.40 123.53,-0.50 131.84,-0.59 140.15,-0.69 148.46,-0.79 156.77,-0.88 165.08,-0.98 173.40,-1.07 181.71,-1.17 190.04,-1.26 198.38,-1.35 202.51,0.46 206.65,2.29 207.76,8.02 208.87,13.75 209.04,20.22 209.21,26.69 209.20,33.34 209.18,39.99 209.22,46.68 209.25,53.38 209.37,60.09 209.49,66.80 209.60,73.51 209.71,80.22 209.82,86.97 209.92,93.71 208.07,97.45 206.21,101.19 199.31,102.21 192.41,103.23 184.49,103.40 176.57,103.57 168.38,103.58 160.19,103.58 151.93,103.55 143.67,103.52 135.39,103.48 127.10,103.43 118.82,103.39 110.53,103.34 102.25,103.41 93.96,103.47 82.84,103.54 71.72,103.60 71.52,103.57 71.33,103.54 71.15,103.45 70.98,103.35 70.84,103.21 70.71,103.07 70.63,102.89 70.54,102.71 70.52,102.51 70.50,102.32 70.54,102.13 70.58,101.93 70.69,101.77 70.79,101.60 70.94,101.47 71.09,101.34 71.27,101.27 71.45,101.20 71.65,101.19 71.85,101.17 72.04,101.23 72.23,101.28 72.39,101.39 72.55,101.50 72.67,101.66 72.79,101.81 72.85,102.00 72.92,102.19 72.92,102.38 72.92,102.58 72.85,102.77 72.79,102.95 72.67,103.11 72.55,103.27 72.39,103.38 72.23,103.49 72.04,103.54 71.85,103.59 71.65,103.58 71.45,103.57 71.27,103.50 71.09,103.43 70.94,103.30 70.79,103.17 70.69,103.00 70.59,102.84 70.54,102.64 70.50,102.45 70.52,102.26 70.54,102.06 70.63,101.88 70.71,101.70 70.84,101.56 70.98,101.42 71.15,101.32 71.33,101.23 71.52,101.20 71.71,101.17 71.71,101.17 71.71,101.17 82.84,101.21 93.96,101.25 102.25,101.30 110.53,101.34 118.82,101.28 127.10,101.22 135.38,101.15 143.66,101.09 151.91,101.01 160.17,100.93 168.33,100.82 176.49,100.70 184.25,100.44 192.02,100.17 198.23,99.55 204.43,98.92 205.54,96.26 206.65,93.59 206.72,86.91 206.78,80.23 206.86,73.52 206.93,66.80 207.00,60.10 207.07,53.39 207.03,46.70 207.00,40.01 206.83,33.40 206.66,26.79 206.32,20.52 205.98,14.24 205.22,9.21 204.46,4.18 201.38,3.05 198.30,1.92 190.01,1.91 181.72,1.90 173.41,1.89 165.10,1.88 156.79,1.87 148.48,1.85 140.16,1.84 131.85,1.83 123.54,1.82 115.23,1.80 106.92,1.79 98.61,1.78 90.30,1.88 81.99,1.97 73.69,2.07 65.38,2.17 57.10,2.28 48.82,2.39 40.64,2.54 32.46,2.69 24.67,2.98 16.87,3.28 10.66,3.92 4.44,4.57 3.33,7.22 2.23,9.86 2.21,16.49 2.18,23.11 2.15,29.77 2.12,36.42 2.10,43.07 2.07,49.72 2.15,56.36 2.22,62.99 2.44,69.54 2.65,76.09 3.03,82.31 3.40,88.53 4.19,93.52 4.98,98.51 8.06,99.66 11.14,100.81 19.40,100.85 27.66,100.89 35.95,100.93 44.23,100.98 52.51,101.02 60.79,101.07 69.04,101.12 77.29,101.16 85.44,101.21 93.59,101.25 101.34,101.30 109.09,101.35 115.26,101.29 121.43,101.23 121.57,101.24 121.70,101.26 121.82,101.30 121.95,101.35 122.06,101.43 122.17,101.50 122.26,101.60 122.35,101.70 122.41,101.82 122.47,101.94 122.50,102.07 122.54,102.20 122.54,102.33 122.54,102.47 122.50,102.60 122.47,102.73 122.41,102.84 122.35,102.96 122.26,103.06 122.17,103.16 122.06,103.24 121.95,103.31 121.83,103.36 121.70,103.41 121.57,103.43 Z" fill="#717d8a" stroke="#717d8a" stroke-width="2" pointer-events="none"/></g><g text-align="left" text-anchor="start" fill="#717d8a" transform="translate(724.82, 365.48) rotate(0.00, 96.00, 21.00)"><text y="24" letter-spacing="-1.44" font-size="48px" font-family="Caveat Brush" text-align="left" alignment-baseline="central" transform="scale(0.6668748179236411)">BrowseProducts()</text></g><g id="d5effd4d-07b1-4dae-2041-9f97f8ff0023_svg" class="tl-centered-g" transform="translate(774.41, 487.79) rotate(0.00, 54.72, 30.13)"><path d="M 0.39,19.43 Q 0.39,19.43 0.40,16.73 0.41,14.04 0.42,10.66 0.42,7.28 1.92,4.93 3.41,2.58 9.12,2.01 14.82,1.45 21.60,1.34 28.38,1.23 35.44,1.23 42.49,1.24 49.62,1.27 56.74,1.30 63.88,1.35 71.02,1.39 78.17,1.43 85.32,1.48 92.47,1.52 99.61,1.57 102.93,3.07 106.24,4.57 107.12,7.62 107.99,10.68 108.25,14.13 108.51,17.59 108.60,21.14 108.70,24.70 108.76,28.28 108.82,31.86 108.86,35.44 108.91,39.03 108.96,42.62 109.00,46.21 109.05,49.80 109.09,53.38 107.61,55.79 106.13,58.19 100.39,58.79 94.65,59.39 87.82,59.53 80.99,59.67 73.88,59.69 66.78,59.71 59.60,59.70 52.42,59.69 45.23,59.67 38.03,59.65 30.83,59.63 23.63,59.61 16.43,59.59 9.23,59.57 5.90,58.08 2.58,56.58 1.73,53.51 0.89,50.44 0.69,46.96 0.48,43.49 0.43,39.91 0.39,36.33 0.38,32.72 0.38,29.12 0.38,25.51 0.39,21.90 0.40,17.05" fill="#404a53" pointer-events="none"/><path d="M -0.88,19.42 Q -0.88,19.42 -0.96,16.73 -1.05,14.04 -1.11,10.59 -1.18,7.14 0.65,4.28 2.49,1.41 8.58,0.70 14.68,-0.00 21.52,-0.02 28.36,-0.04 35.43,0.05 42.49,0.14 49.62,0.18 56.75,0.21 63.89,0.16 71.03,0.11 78.18,0.06 85.33,0.01 92.50,-0.02 99.68,-0.06 103.46,1.68 107.24,3.43 108.32,6.86 109.40,10.28 109.59,13.89 109.78,17.49 109.79,21.08 109.79,24.67 109.85,28.25 109.91,31.84 110.05,35.43 110.19,39.01 110.33,42.60 110.47,46.19 110.58,49.84 110.70,53.50 108.88,56.43 107.05,59.36 100.93,60.11 94.80,60.85 87.91,60.90 81.01,60.94 73.90,60.87 66.78,60.80 59.60,60.79 52.42,60.78 45.22,60.86 38.03,60.93 30.83,61.00 23.63,61.08 16.40,61.14 9.17,61.21 5.37,59.46 1.57,57.70 0.52,54.26 -0.51,50.82 -0.65,47.19 -0.79,43.56 -0.74,39.95 -0.70,36.34 -0.70,32.73 -0.71,29.12 -0.79,25.51 -0.88,21.90 -0.96,17.05 -1.04,12.19 -1.00,11.96 -0.96,11.73 -0.85,11.52 -0.74,11.31 -0.57,11.15 -0.40,10.98 -0.18,10.89 0.02,10.79 0.26,10.76 0.49,10.74 0.73,10.79 0.96,10.84 1.16,10.96 1.36,11.08 1.52,11.27 1.67,11.45 1.76,11.67 1.84,11.89 1.85,12.12 1.87,12.36 1.80,12.59 1.74,12.82 1.61,13.01 1.47,13.21 1.28,13.35 1.09,13.49 0.87,13.57 0.65,13.64 0.41,13.64 0.17,13.64 -0.04,13.57 -0.27,13.49 -0.46,13.35 -0.64,13.20 -0.78,13.01 -0.91,12.81 -0.97,12.58 -1.03,12.35 -1.02,12.12 -1.01,11.88 -0.92,11.66 -0.83,11.44 -0.68,11.26 -0.52,11.08 -0.32,10.96 -0.12,10.84 0.10,10.79 0.34,10.74 0.57,10.76 0.81,10.79 1.02,10.89 1.24,10.99 1.41,11.15 1.58,11.32 1.69,11.52 1.80,11.73 1.84,11.97 1.88,12.20 1.88,12.20 1.88,12.20 1.77,17.05 1.67,21.90 1.57,25.51 1.47,29.12 1.48,32.72 1.48,36.31 1.62,39.86 1.76,43.41 2.03,46.73 2.31,50.06 2.95,52.76 3.59,55.47 6.44,56.70 9.29,57.94 16.46,58.04 23.63,58.15 30.83,58.26 38.03,58.37 45.23,58.48 52.42,58.59 59.60,58.60 66.77,58.61 73.87,58.50 80.96,58.39 87.73,58.16 94.50,57.94 99.85,57.48 105.21,57.03 106.34,55.15 107.48,53.27 107.51,49.75 107.54,46.22 107.59,42.64 107.63,39.05 107.68,35.46 107.72,31.87 107.67,28.30 107.61,24.73 107.42,21.20 107.23,17.68 106.91,14.38 106.59,11.08 105.91,8.39 105.24,5.70 102.39,4.45 99.55,3.20 92.43,3.07 85.31,2.94 78.16,2.80 71.02,2.67 63.88,2.53 56.73,2.40 49.61,2.36 42.49,2.33 35.45,2.42 28.40,2.50 21.68,2.70 14.97,2.91 9.65,3.33 4.33,3.76 3.18,5.59 2.04,7.42 1.95,10.73 1.87,14.05 1.77,16.74 1.67,19.43 1.65,19.58 1.63,19.73 1.58,19.88 1.52,20.02 1.44,20.15 1.35,20.28 1.23,20.38 1.12,20.48 0.98,20.55 0.84,20.62 0.69,20.66 0.54,20.69 0.39,20.69 0.24,20.69 0.09,20.66 -0.05,20.62 -0.19,20.55 -0.33,20.48 -0.44,20.37 -0.56,20.27 -0.64,20.14 -0.73,20.02 -0.78,19.87 -0.84,19.73 -0.86,19.57 Z" fill="#717d8a" stroke="#717d8a" stroke-width="2" pointer-events="none"/></g><g id="00b59ebc-331b-464e-058f-77a7faa4651e_svg" class="tl-centered-g" transform="translate(661.64, 556.21) rotate(0.00, 38.33, 23.14)"><path d="M 52.39,1.34 Q 52.39,1.34 55.92,1.37 59.45,1.40 63.88,1.44 68.31,1.47 70.93,2.97 73.55,4.47 74.23,6.78 74.92,9.09 75.11,11.60 75.30,14.11 75.37,16.68 75.44,19.24 75.47,21.82 75.50,24.40 75.53,26.99 75.56,29.57 75.58,32.15 75.61,34.74 75.63,37.32 75.65,39.90 74.17,42.05 72.69,44.20 68.76,44.70 64.83,45.20 60.28,45.29 55.73,45.37 51.03,45.34 46.32,45.32 41.57,45.27 36.82,45.22 32.06,45.16 27.30,45.10 22.54,45.04 17.78,44.98 13.02,44.92 8.26,44.85 5.55,43.35 2.85,41.84 2.16,39.55 1.47,37.26 1.29,34.76 1.12,32.27 1.08,29.72 1.03,27.18 1.02,24.62 1.01,22.06 1.01,19.50 1.01,16.94 1.01,14.37 1.01,11.81 1.01,9.25 1.01,6.69 2.50,4.54 3.99,2.40 7.90,1.88 11.81,1.37 16.33,1.26 20.86,1.16 25.54,1.17 30.23,1.17 34.95,1.20 39.68,1.23 44.41,1.27 49.15,1.31 55.50,1.36" fill="#404a53" pointer-events="none"/><path d="M 52.40,0.06 Q 52.40,0.06 55.93,0.00 59.46,-0.06 63.94,-0.10 68.42,-0.14 71.50,1.58 74.58,3.31 75.45,5.99 76.32,8.68 76.45,11.35 76.58,14.02 76.55,16.62 76.53,19.22 76.56,21.80 76.60,24.39 76.72,26.97 76.84,29.56 76.95,32.14 77.07,34.72 77.16,37.39 77.25,40.06 75.46,42.72 73.66,45.37 69.34,46.01 65.02,46.66 60.39,46.65 55.76,46.65 51.04,46.53 46.31,46.41 41.56,46.36 36.81,46.31 32.05,46.34 27.29,46.38 22.52,46.41 17.76,46.44 12.95,46.46 8.14,46.48 4.98,44.75 1.82,43.01 0.95,40.34 0.07,37.67 -0.04,35.01 -0.15,32.36 -0.10,29.78 -0.05,27.20 -0.06,24.63 -0.07,22.07 -0.17,19.50 -0.26,16.94 -0.36,14.38 -0.45,11.81 -0.51,9.16 -0.58,6.52 1.21,3.87 3.00,1.23 7.31,0.57 11.62,-0.08 16.22,-0.09 20.83,-0.10 25.53,-0.01 30.23,0.08 34.96,0.11 39.68,0.14 44.42,0.09 49.16,0.03 55.52,-0.00 61.88,-0.04 62.11,-0.00 62.34,0.03 62.55,0.15 62.76,0.26 62.92,0.43 63.08,0.61 63.18,0.82 63.28,1.04 63.30,1.27 63.32,1.51 63.27,1.74 63.22,1.97 63.10,2.17 62.97,2.38 62.79,2.53 62.61,2.68 62.39,2.76 62.17,2.85 61.93,2.86 61.69,2.87 61.46,2.81 61.24,2.74 61.04,2.61 60.85,2.47 60.71,2.28 60.56,2.09 60.49,1.87 60.42,1.64 60.42,1.41 60.42,1.17 60.50,0.94 60.58,0.72 60.72,0.53 60.87,0.35 61.06,0.21 61.26,0.08 61.49,0.02 61.72,-0.03 61.95,-0.01 62.19,-0.00 62.41,0.08 62.63,0.17 62.81,0.32 62.99,0.48 63.11,0.68 63.23,0.89 63.28,1.12 63.33,1.35 63.30,1.59 63.27,1.82 63.17,2.04 63.07,2.25 62.90,2.42 62.74,2.59 62.53,2.70 62.32,2.81 62.08,2.85 61.85,2.88 61.85,2.88 61.85,2.88 55.49,2.74 49.14,2.59 44.40,2.46 39.67,2.33 34.95,2.30 30.23,2.26 25.56,2.35 20.89,2.44 16.44,2.63 12.00,2.82 8.48,3.19 4.97,3.57 3.79,5.21 2.60,6.85 2.54,9.33 2.47,11.81 2.38,14.37 2.28,16.94 2.19,19.50 2.10,22.06 2.11,24.61 2.12,27.16 2.26,29.67 2.39,32.18 2.63,34.51 2.87,36.84 3.37,38.76 3.87,40.68 6.12,41.95 8.37,43.23 13.09,43.37 17.80,43.51 22.56,43.67 27.32,43.82 32.08,43.97 36.83,44.12 41.58,44.18 46.32,44.23 51.02,44.16 55.71,44.09 60.18,43.92 64.65,43.75 68.18,43.39 71.71,43.03 72.88,41.39 74.06,39.74 74.10,37.25 74.14,34.75 74.21,32.17 74.28,29.58 74.35,27.00 74.41,24.42 74.38,21.85 74.34,19.27 74.19,16.74 74.03,14.21 73.77,11.85 73.51,9.50 73.01,7.57 72.52,5.64 70.35,4.37 68.19,3.09 63.81,2.98 59.43,2.86 55.91,2.74 52.38,2.62 52.22,2.60 52.07,2.58 51.93,2.52 51.78,2.46 51.66,2.38 51.53,2.29 51.43,2.17 51.33,2.05 51.26,1.92 51.19,1.78 51.15,1.63 51.12,1.48 51.12,1.33 51.12,1.17 51.16,1.02 51.20,0.87 51.27,0.74 51.34,0.60 51.44,0.49 51.55,0.37 51.68,0.29 51.80,0.20 51.95,0.15 52.09,0.09 52.25,0.08 Z" fill="#717d8a" stroke="#717d8a" stroke-width="2" pointer-events="none"/></g><g id="4a37a9ff-4b4f-46b4-0ae1-4925b5d7c323_svg" class="tl-centered-g" transform="translate(935.39, 568.15) rotate(0.00, 27.25, 16.91)"><path d="M 53.11,21.65 Q 53.11,21.65 53.08,22.92 53.05,24.20 53.01,25.80 52.98,27.39 51.48,29.29 49.98,31.19 47.23,31.67 44.48,32.15 41.41,32.27 38.34,32.39 35.20,32.42 32.05,32.45 28.88,32.45 25.71,32.45 22.54,32.45 19.36,32.45 16.19,32.45 13.01,32.44 9.84,32.44 6.66,32.44 4.36,30.95 2.06,29.46 1.52,27.82 0.97,26.19 0.88,24.52 0.78,22.85 0.80,21.17 0.82,19.50 0.87,17.82 0.92,16.13 0.98,14.45 1.03,12.77 1.09,11.09 1.15,9.41 1.21,7.73 1.26,6.05 2.77,4.13 4.27,2.21 7.01,1.70 9.75,1.20 12.80,1.05 15.85,0.90 18.98,0.84 22.11,0.79 25.27,0.76 28.42,0.72 31.57,0.70 34.73,0.67 37.89,0.65 41.05,0.62 44.21,0.60 47.37,0.57 49.66,2.06 51.96,3.54 52.51,5.19 53.07,6.84 53.18,8.54 53.29,10.23 53.28,11.94 53.28,13.65 53.25,15.35 53.22,17.06 53.18,18.77 53.14,20.48 53.09,22.77" fill="#404a53" pointer-events="none"/><path d="M 54.39,21.68 Q 54.39,21.68 54.45,22.96 54.52,24.23 54.54,25.93 54.55,27.63 52.78,30.00 51.01,32.36 47.87,32.98 44.73,33.59 41.56,33.63 38.39,33.67 35.23,33.60 32.06,33.54 28.89,33.54 25.71,33.55 22.54,33.64 19.36,33.73 16.19,33.82 13.01,33.91 9.76,33.98 6.51,34.04 3.76,32.35 1.02,30.65 0.30,28.64 -0.41,26.64 -0.45,24.78 -0.48,22.92 -0.37,21.20 -0.26,19.48 -0.21,17.79 -0.16,16.10 -0.20,14.42 -0.24,12.73 -0.27,11.04 -0.31,9.36 -0.31,7.58 -0.31,5.81 1.45,3.42 3.22,1.04 6.35,0.40 9.48,-0.23 12.64,-0.30 15.79,-0.37 18.94,-0.33 22.09,-0.29 25.25,-0.33 28.41,-0.36 31.56,-0.48 34.72,-0.60 37.88,-0.71 41.04,-0.83 44.27,-0.93 47.50,-1.02 50.25,0.66 53.00,2.34 53.73,4.37 54.46,6.39 54.51,8.27 54.56,10.15 54.47,11.90 54.37,13.65 54.34,15.36 54.31,17.08 54.37,18.80 54.42,20.51 54.46,22.81 54.50,25.10 54.45,25.34 54.41,25.57 54.29,25.78 54.18,25.98 54.00,26.14 53.82,26.30 53.61,26.39 53.39,26.49 53.15,26.51 52.92,26.53 52.69,26.47 52.46,26.42 52.26,26.29 52.06,26.16 51.91,25.98 51.76,25.79 51.68,25.57 51.59,25.35 51.59,25.11 51.58,24.88 51.65,24.65 51.72,24.42 51.86,24.23 51.99,24.04 52.19,23.90 52.38,23.76 52.60,23.69 52.83,23.62 53.07,23.62 53.30,23.63 53.53,23.71 53.75,23.79 53.93,23.94 54.12,24.09 54.25,24.29 54.38,24.49 54.43,24.72 54.49,24.95 54.47,25.18 54.45,25.42 54.36,25.64 54.27,25.85 54.11,26.03 53.95,26.21 53.75,26.32 53.54,26.44 53.31,26.49 53.08,26.53 52.84,26.50 52.61,26.47 52.39,26.37 52.18,26.26 52.01,26.09 51.85,25.93 51.74,25.71 51.63,25.50 51.60,25.27 51.57,25.03 51.57,25.03 51.57,25.03 51.72,22.74 51.86,20.45 51.99,18.75 52.13,17.04 52.16,15.34 52.19,13.64 52.10,11.98 52.01,10.32 51.84,8.81 51.68,7.30 51.30,6.02 50.92,4.74 49.07,3.46 47.23,2.18 44.14,2.13 41.06,2.09 37.90,2.02 34.74,1.95 31.58,1.88 28.43,1.82 25.28,1.85 22.13,1.88 19.02,2.03 15.91,2.18 12.96,2.41 10.01,2.64 7.67,3.01 5.32,3.38 4.08,4.83 2.85,6.29 2.73,7.87 2.61,9.46 2.46,11.14 2.31,12.81 2.16,14.49 2.01,16.17 1.96,17.84 1.92,19.51 1.99,21.14 2.06,22.78 2.21,24.26 2.37,25.74 2.73,27.00 3.10,28.26 4.95,29.54 6.80,30.83 9.91,30.90 13.01,30.98 16.19,31.08 19.36,31.17 22.54,31.27 25.71,31.36 28.87,31.36 32.04,31.35 35.17,31.23 38.29,31.11 41.26,30.91 44.23,30.71 46.58,30.36 48.94,30.01 50.17,28.58 51.40,27.16 51.49,25.66 51.59,24.16 51.71,22.89 51.84,21.62 51.86,21.47 51.88,21.31 51.94,21.17 52.00,21.03 52.09,20.90 52.18,20.78 52.30,20.68 52.41,20.58 52.55,20.51 52.69,20.44 52.84,20.41 52.99,20.38 53.15,20.38 53.30,20.39 53.45,20.43 53.60,20.47 53.73,20.54 53.87,20.62 53.98,20.72 54.09,20.83 54.18,20.95 54.26,21.08 54.31,21.23 54.36,21.37 54.38,21.53 Z" fill="#717d8a" stroke="#717d8a" stroke-width="2" pointer-events="none"/></g><g id="3f4d35c5-fda0-4c16-09fb-7964d2961208_svg" class="tl-centered-g" transform="translate(1057.65, 472.46) rotate(0.00, 62.09, 34.80)"><path d="M 1.42,21.86 Q 1.42,21.86 1.40,18.62 1.38,15.39 1.35,11.34 1.32,7.28 2.80,4.76 4.29,2.23 10.71,1.58 17.12,0.92 24.80,0.74 32.48,0.56 40.48,0.51 48.48,0.45 56.56,0.42 64.64,0.40 72.74,0.38 80.84,0.36 88.95,0.34 97.05,0.33 105.16,0.31 113.27,0.30 116.83,1.78 120.38,3.27 121.28,6.87 122.18,10.47 122.39,14.61 122.61,18.75 122.66,23.03 122.70,27.30 122.70,31.61 122.70,35.93 122.69,40.25 122.68,44.57 122.67,48.89 122.65,53.22 122.64,57.54 122.62,61.86 121.13,64.46 119.64,67.05 113.25,67.73 106.86,68.41 99.22,68.61 91.58,68.81 83.63,68.88 75.67,68.95 67.64,68.99 59.60,69.03 51.54,69.06 43.49,69.09 35.42,69.12 27.36,69.15 19.30,69.18 11.23,69.21 7.69,67.73 4.14,66.25 3.21,62.64 2.29,59.03 2.03,54.88 1.77,50.72 1.68,46.43 1.60,42.14 1.55,37.82 1.51,33.49 1.48,29.16 1.44,24.82 1.40,19.00" fill="#345246" pointer-events="none"/><path d="M 0.14,21.86 Q 0.14,21.86 0.03,18.63 -0.08,15.40 -0.18,11.29 -0.29,7.17 1.54,4.12 3.38,1.07 10.18,0.27 16.98,-0.52 24.71,-0.61 32.45,-0.70 40.46,-0.67 48.47,-0.63 56.55,-0.66 64.63,-0.69 72.74,-0.80 80.84,-0.91 88.94,-1.02 97.05,-1.13 105.18,-1.23 113.32,-1.33 117.36,0.43 121.41,2.20 122.50,6.16 123.60,10.12 123.74,14.40 123.89,18.68 123.84,22.99 123.79,27.29 123.79,31.61 123.79,35.93 123.88,40.25 123.96,44.57 124.04,48.90 124.12,53.22 124.18,57.60 124.24,61.98 122.40,65.09 120.55,68.21 113.78,69.04 107.01,69.87 99.31,69.98 91.62,70.08 83.65,70.06 75.68,70.04 67.64,70.08 59.61,70.12 51.55,70.25 43.49,70.37 35.43,70.50 27.37,70.62 19.28,70.74 11.19,70.85 7.16,69.09 3.12,67.33 2.00,63.36 0.87,59.39 0.68,55.10 0.50,50.80 0.50,46.49 0.50,42.17 0.46,37.84 0.42,33.50 0.29,29.17 0.16,24.83 0.03,19.01 -0.09,13.19 -0.06,12.96 -0.02,12.72 0.08,12.51 0.19,12.30 0.36,12.14 0.53,11.97 0.74,11.87 0.96,11.77 1.19,11.75 1.43,11.72 1.66,11.77 1.89,11.82 2.10,11.94 2.30,12.06 2.45,12.24 2.61,12.42 2.70,12.64 2.79,12.86 2.80,13.09 2.82,13.33 2.76,13.56 2.69,13.79 2.56,13.98 2.43,14.18 2.24,14.32 2.05,14.47 1.83,14.55 1.61,14.62 1.37,14.63 1.13,14.63 0.91,14.55 0.68,14.48 0.49,14.34 0.30,14.19 0.17,14.00 0.04,13.80 -0.02,13.58 -0.08,13.35 -0.07,13.11 -0.06,12.88 0.01,12.65 0.10,12.43 0.25,12.25 0.40,12.07 0.61,11.95 0.81,11.82 1.04,11.77 1.27,11.72 1.51,11.74 1.74,11.77 1.96,11.87 2.17,11.96 2.35,12.12 2.52,12.29 2.63,12.50 2.74,12.70 2.78,12.94 2.82,13.17 2.82,13.17 2.82,13.17 2.77,18.99 2.72,24.81 2.66,29.15 2.60,33.48 2.65,37.80 2.69,42.12 2.87,46.38 3.05,50.65 3.38,54.66 3.71,58.67 4.43,61.92 5.16,65.17 8.22,66.37 11.28,67.57 19.32,67.63 27.36,67.69 35.42,67.75 43.48,67.82 51.54,67.88 59.59,67.94 67.63,67.90 75.66,67.86 83.61,67.69 91.55,67.53 99.13,67.24 106.70,66.96 112.71,66.42 118.72,65.89 119.86,63.82 121.00,61.75 121.09,57.48 121.19,53.21 121.29,48.89 121.40,44.57 121.50,40.25 121.61,35.93 121.61,31.62 121.61,27.31 121.47,23.06 121.34,18.81 121.05,14.82 120.76,10.82 120.06,7.58 119.36,4.34 116.29,3.14 113.22,1.94 105.14,1.86 97.06,1.79 88.95,1.72 80.84,1.64 72.74,1.56 64.64,1.49 56.56,1.52 48.48,1.54 40.50,1.69 32.51,1.84 24.89,2.11 17.27,2.38 11.23,2.89 5.20,3.40 4.07,5.39 2.94,7.39 2.89,11.39 2.84,15.38 2.77,18.62 2.70,21.85 2.68,22.00 2.66,22.15 2.61,22.30 2.56,22.44 2.47,22.57 2.38,22.70 2.27,22.80 2.15,22.90 2.02,22.98 1.88,23.05 1.73,23.09 1.58,23.12 1.43,23.13 1.27,23.13 1.12,23.09 0.97,23.05 0.84,22.98 0.70,22.91 0.58,22.81 0.47,22.71 0.38,22.58 0.29,22.46 0.24,22.31 0.18,22.17 0.16,22.02 Z" fill="#36a64c" stroke="#36a64c" stroke-width="2" pointer-events="none"/></g><g id="3806dd86-3f8c-4783-0f64-bd7bb7077678_svg" class="tl-centered-g" transform="translate(1183.53, 576.27) rotate(0.00, 26.34, 16.56)"><path d="M 16.87,32.28 Q 16.87,32.28 14.62,32.35 12.37,32.41 9.55,32.49 6.72,32.58 4.51,31.11 2.30,29.64 1.76,27.97 1.21,26.30 1.09,24.57 0.97,22.85 0.95,21.11 0.94,19.37 0.95,17.63 0.97,15.89 0.99,14.15 1.01,12.41 1.03,10.67 1.05,8.93 1.07,7.19 1.10,5.45 2.59,3.51 4.09,1.58 6.71,1.09 9.34,0.59 12.25,0.47 15.16,0.34 18.15,0.31 21.13,0.28 24.13,0.27 27.14,0.26 30.15,0.26 33.15,0.26 36.16,0.26 39.17,0.26 42.18,0.26 45.19,0.26 47.45,1.75 49.71,3.24 50.27,4.85 50.84,6.46 50.97,8.11 51.11,9.75 51.13,11.40 51.16,13.05 51.15,14.70 51.15,16.35 51.14,18.01 51.13,19.66 51.11,21.31 51.10,22.96 51.09,24.62 51.08,26.27 49.58,28.18 48.09,30.09 45.46,30.64 42.83,31.20 39.91,31.40 36.99,31.61 33.99,31.73 31.00,31.85 27.98,31.94 24.97,32.04 21.95,32.13 18.94,32.22 14.88,32.34" fill="#345246" pointer-events="none"/><path d="M 16.91,33.56 Q 16.91,33.56 14.66,33.72 12.41,33.88 9.50,34.03 6.60,34.18 3.92,32.50 1.25,30.83 0.53,28.78 -0.17,26.74 -0.24,24.84 -0.30,22.94 -0.22,21.16 -0.14,19.38 -0.13,17.64 -0.12,15.89 -0.19,14.14 -0.26,12.40 -0.33,10.65 -0.40,8.91 -0.44,7.07 -0.47,5.23 1.28,2.82 3.04,0.42 6.05,-0.20 9.07,-0.84 12.09,-0.88 15.11,-0.92 18.11,-0.86 21.12,-0.80 24.13,-0.81 27.13,-0.82 30.14,-0.91 33.15,-1.01 36.16,-1.10 39.17,-1.19 42.26,-1.26 45.34,-1.33 48.05,0.35 50.75,2.03 51.49,4.01 52.22,5.99 52.30,7.82 52.38,9.65 52.32,11.34 52.25,13.03 52.25,14.69 52.24,16.36 52.32,18.01 52.41,19.67 52.49,21.32 52.57,22.97 52.61,24.73 52.65,26.49 50.91,28.87 49.16,31.25 46.14,31.94 43.13,32.63 40.10,32.76 37.08,32.89 34.06,32.91 31.04,32.94 28.02,33.04 25.01,33.13 21.99,33.31 18.97,33.50 14.92,33.71 10.87,33.92 10.64,33.89 10.40,33.86 10.19,33.75 9.98,33.65 9.81,33.48 9.64,33.31 9.54,33.10 9.43,32.89 9.40,32.66 9.37,32.42 9.41,32.19 9.45,31.96 9.57,31.75 9.69,31.54 9.86,31.38 10.04,31.23 10.26,31.13 10.47,31.04 10.71,31.02 10.95,31.00 11.18,31.05 11.41,31.11 11.61,31.24 11.81,31.37 11.95,31.55 12.10,31.73 12.19,31.96 12.27,32.18 12.27,32.42 12.28,32.65 12.21,32.88 12.14,33.11 12.01,33.30 11.87,33.49 11.68,33.63 11.48,33.77 11.26,33.84 11.03,33.91 10.79,33.90 10.56,33.90 10.33,33.81 10.11,33.73 9.93,33.59 9.74,33.44 9.61,33.24 9.49,33.04 9.43,32.81 9.37,32.58 9.39,32.34 9.41,32.11 9.50,31.89 9.59,31.67 9.75,31.49 9.91,31.32 10.12,31.20 10.32,31.08 10.56,31.04 10.79,30.99 10.79,30.99 10.79,30.99 14.84,30.97 18.90,30.94 21.92,30.94 24.94,30.95 27.95,30.85 30.95,30.76 33.93,30.55 36.90,30.34 39.71,30.05 42.53,29.76 44.77,29.35 47.01,28.93 48.26,27.49 49.50,26.05 49.57,24.50 49.64,22.95 49.74,21.30 49.85,19.65 49.95,18.00 50.06,16.35 50.06,14.71 50.06,13.06 49.95,11.46 49.83,9.85 49.65,8.40 49.46,6.94 49.06,5.69 48.67,4.45 46.86,3.16 45.04,1.87 42.11,1.80 39.17,1.73 36.16,1.63 33.16,1.54 30.15,1.45 27.14,1.36 24.14,1.37 21.14,1.37 18.18,1.50 15.22,1.62 12.41,1.83 9.61,2.03 7.37,2.39 5.14,2.74 3.91,4.21 2.68,5.67 2.60,7.31 2.52,8.95 2.40,10.69 2.29,12.43 2.17,14.17 2.06,15.90 2.04,17.63 2.03,19.37 2.14,21.06 2.24,22.76 2.42,24.30 2.60,25.85 2.98,27.15 3.36,28.45 5.11,29.71 6.85,30.98 9.59,30.96 12.33,30.95 14.58,30.98 16.83,31.00 16.99,31.02 17.14,31.03 17.28,31.08 17.43,31.13 17.56,31.22 17.69,31.30 17.79,31.41 17.90,31.52 17.98,31.66 18.05,31.79 18.09,31.94 18.13,32.09 18.14,32.24 18.14,32.40 18.11,32.55 18.08,32.70 18.01,32.84 17.94,32.98 17.84,33.09 17.74,33.21 17.62,33.30 17.50,33.40 17.35,33.45 17.21,33.51 17.06,33.54 Z" fill="#36a64c" stroke="#36a64c" stroke-width="2" pointer-events="none"/></g><g id="413cbbf3-1abf-473b-1467-61f102f16b36_svg" class="tl-centered-g" transform="translate(765.14, 195.48) rotate(0.00, 104.61, 51.63)"><path d="M 120.68,102.44 Q 120.68,102.44 114.51,102.46 108.34,102.48 100.59,102.51 92.84,102.53 84.70,102.56 76.55,102.59 68.30,102.62 60.05,102.65 51.78,102.67 43.50,102.70 35.22,102.73 26.94,102.76 18.65,102.79 10.37,102.82 6.77,101.33 3.17,99.85 2.29,94.51 1.41,89.18 1.22,82.86 1.03,76.54 1.02,69.97 1.01,63.40 1.05,56.77 1.08,50.14 1.13,43.49 1.18,36.84 1.23,30.18 1.28,23.53 1.33,16.88 1.38,10.22 2.88,7.03 4.38,3.85 10.96,3.03 17.53,2.21 25.39,1.99 33.26,1.78 41.45,1.71 49.65,1.65 57.92,1.63 66.20,1.60 74.50,1.59 82.80,1.58 91.11,1.57 99.41,1.56 107.72,1.55 116.03,1.54 124.33,1.53 132.64,1.52 140.95,1.51 149.25,1.50 157.56,1.49 165.87,1.48 174.18,1.47 182.48,1.46 190.79,1.45 199.10,1.44 202.70,2.93 206.31,4.42 207.17,9.73 208.02,15.05 208.17,21.33 208.32,27.62 208.29,34.16 208.26,40.70 208.19,47.30 208.11,53.90 208.03,60.52 207.94,67.13 207.85,73.75 207.76,80.38 207.67,87.00 207.58,93.62 206.07,96.80 204.56,99.98 198.00,100.81 191.44,101.64 183.60,101.87 175.75,102.11 167.58,102.19 159.41,102.27 151.15,102.31 142.90,102.35 134.62,102.38 126.34,102.42 118.06,102.45 109.78,102.47 101.50,102.50 93.21,102.53 82.09,102.57" fill="#345246" pointer-events="none"/><path d="M 120.68,103.55 Q 120.68,103.55 114.51,103.51 108.34,103.48 100.59,103.56 92.85,103.64 84.70,103.72 76.56,103.81 68.31,103.89 60.06,103.97 51.78,104.05 43.51,104.14 35.23,104.22 26.94,104.30 18.64,104.38 10.33,104.46 6.20,102.62 2.06,100.78 1.01,95.10 -0.03,89.41 -0.13,83.00 -0.24,76.58 -0.15,69.99 -0.07,63.40 -0.03,56.77 -0.00,50.13 -0.04,43.48 -0.09,36.83 -0.13,30.17 -0.18,23.52 -0.21,16.83 -0.25,10.14 1.62,6.43 3.49,2.71 10.41,1.69 17.34,0.68 25.28,0.51 33.22,0.34 41.43,0.33 49.64,0.33 57.92,0.36 66.20,0.39 74.50,0.43 82.80,0.47 91.11,0.51 99.41,0.56 107.72,0.49 116.02,0.43 124.33,0.37 132.64,0.30 140.95,0.24 149.25,0.18 157.56,0.11 165.87,0.05 174.17,-0.01 182.48,-0.07 190.81,-0.13 199.14,-0.19 203.28,1.65 207.42,3.50 208.44,9.16 209.47,14.81 209.53,21.20 209.60,27.59 209.48,34.15 209.35,40.70 209.28,47.31 209.21,53.91 209.21,60.53 209.22,67.15 209.22,73.77 209.23,80.40 209.22,87.05 209.22,93.71 207.34,97.41 205.46,101.11 198.55,102.14 191.63,103.17 183.72,103.36 175.80,103.54 167.61,103.57 159.42,103.59 151.16,103.58 142.90,103.57 134.63,103.55 126.35,103.52 118.07,103.50 109.78,103.47 101.50,103.56 93.22,103.64 82.10,103.73 70.98,103.82 70.78,103.79 70.59,103.76 70.42,103.67 70.24,103.58 70.11,103.44 69.97,103.29 69.89,103.12 69.80,102.94 69.78,102.74 69.76,102.55 69.80,102.35 69.84,102.16 69.94,101.99 70.04,101.82 70.19,101.70 70.34,101.57 70.53,101.49 70.71,101.42 70.90,101.41 71.10,101.40 71.29,101.45 71.48,101.50 71.64,101.61 71.81,101.72 71.93,101.88 72.05,102.03 72.11,102.22 72.17,102.41 72.17,102.60 72.18,102.80 72.11,102.99 72.05,103.17 71.93,103.33 71.81,103.49 71.65,103.60 71.49,103.71 71.30,103.76 71.11,103.82 70.91,103.81 70.72,103.80 70.53,103.72 70.35,103.65 70.20,103.53 70.05,103.40 69.95,103.23 69.85,103.06 69.80,102.87 69.76,102.68 69.78,102.48 69.80,102.29 69.88,102.11 69.96,101.93 70.10,101.79 70.23,101.64 70.41,101.55 70.58,101.46 70.78,101.42 70.97,101.39 70.97,101.39 70.97,101.39 82.09,101.41 93.21,101.42 101.49,101.45 109.78,101.47 118.06,101.39 126.34,101.31 134.62,101.22 142.89,101.14 151.14,101.04 159.40,100.94 167.55,100.81 175.71,100.67 183.48,100.39 191.25,100.11 197.45,99.48 203.66,98.84 204.80,96.19 205.95,93.54 206.12,86.95 206.30,80.36 206.48,73.74 206.66,67.12 206.84,60.50 207.02,53.89 207.09,47.29 207.17,40.69 207.11,34.17 207.04,27.65 206.81,21.46 206.57,15.28 205.89,10.31 205.21,5.34 202.13,4.21 199.05,3.08 190.77,3.04 182.48,3.00 174.18,2.96 165.87,2.92 157.56,2.87 149.26,2.83 140.95,2.78 132.64,2.74 124.33,2.69 116.03,2.65 107.72,2.60 99.41,2.56 91.11,2.62 82.80,2.69 74.51,2.75 66.21,2.82 57.93,2.90 49.66,2.98 41.48,3.09 33.30,3.21 25.51,3.47 17.72,3.74 11.50,4.36 5.28,4.98 4.15,7.64 3.01,10.30 2.88,16.92 2.74,23.54 2.60,30.19 2.46,36.85 2.32,43.49 2.18,50.14 2.14,56.77 2.11,63.40 2.21,69.95 2.31,76.50 2.58,82.72 2.85,88.94 3.56,93.93 4.27,98.92 7.34,100.05 10.41,101.18 18.67,101.20 26.93,101.22 35.22,101.24 43.50,101.27 51.77,101.29 60.05,101.32 68.30,101.35 76.55,101.37 84.69,101.40 92.84,101.42 100.59,101.45 108.33,101.48 114.50,101.40 120.68,101.33 120.81,101.34 120.94,101.36 121.07,101.41 121.19,101.45 121.30,101.53 121.41,101.61 121.50,101.71 121.59,101.80 121.65,101.92 121.71,102.04 121.75,102.17 121.78,102.30 121.78,102.43 121.78,102.57 121.75,102.70 121.72,102.83 121.65,102.95 121.59,103.06 121.50,103.16 121.42,103.26 121.31,103.34 121.20,103.42 121.07,103.47 120.95,103.51 120.82,103.53 Z" fill="#36a64c" stroke="#36a64c" stroke-width="2" pointer-events="none"/></g><g id="1425576c-a105-40ce-14b8-8cadf78e2f20_svg" class="tl-centered-g" transform="translate(1000.05, 204.52) rotate(0.00, 62.09, 34.80)"><path d="M 122.76,47.98 Q 122.76,47.98 122.76,51.14 122.76,54.30 122.76,58.27 122.76,62.24 121.27,64.75 119.78,67.25 113.34,67.91 106.91,68.57 99.22,68.75 91.53,68.94 83.52,69.01 75.51,69.08 67.41,69.12 59.32,69.16 51.21,69.19 43.09,69.22 34.97,69.25 26.85,69.28 18.73,69.30 10.61,69.33 7.05,67.85 3.49,66.37 2.54,62.77 1.59,59.17 1.31,55.02 1.03,50.88 0.92,46.61 0.81,42.33 0.74,38.02 0.67,33.70 0.61,29.38 0.56,25.06 0.50,20.73 0.45,16.41 0.40,12.08 0.34,7.76 1.82,5.17 3.29,2.57 9.76,1.95 16.23,1.33 23.97,1.21 31.71,1.09 39.77,1.10 47.84,1.10 55.98,1.14 64.13,1.19 72.30,1.23 80.47,1.28 88.64,1.34 96.82,1.39 104.99,1.44 113.17,1.49 116.74,2.99 120.31,4.50 121.23,8.04 122.14,11.59 122.37,15.66 122.60,19.72 122.66,23.92 122.72,28.12 122.73,32.36 122.75,36.59 122.75,40.83 122.75,45.08 122.76,50.77" fill="#404a53" pointer-events="none"/><path d="M 124.04,47.98 Q 124.04,47.98 124.13,51.14 124.22,54.31 124.30,58.33 124.37,62.36 122.53,65.39 120.69,68.41 113.88,69.22 107.06,70.02 99.31,70.12 91.56,70.22 83.54,70.20 75.52,70.17 67.42,70.21 59.33,70.25 51.21,70.37 43.10,70.50 34.98,70.62 26.86,70.74 18.71,70.86 10.56,70.97 6.52,69.21 2.47,67.46 1.32,63.49 0.17,59.53 -0.03,55.25 -0.24,50.97 -0.26,46.66 -0.28,42.36 -0.34,38.04 -0.41,33.72 -0.56,29.40 -0.71,25.07 -0.86,20.75 -1.01,16.43 -1.14,12.05 -1.27,7.66 0.56,4.53 2.40,1.41 9.25,0.64 16.09,-0.12 23.89,-0.15 31.69,-0.18 39.76,-0.08 47.84,0.01 55.99,0.05 64.14,0.09 72.31,0.05 80.48,0.01 88.65,-0.03 96.82,-0.07 105.02,-0.10 113.22,-0.14 117.28,1.63 121.33,3.41 122.44,7.32 123.56,11.23 123.72,15.44 123.88,19.65 123.84,23.88 123.81,28.11 123.83,32.35 123.84,36.59 123.94,40.83 124.03,45.07 124.13,50.77 124.22,56.47 124.18,56.70 124.14,56.94 124.03,57.15 123.92,57.36 123.75,57.52 123.58,57.68 123.36,57.78 123.15,57.88 122.91,57.91 122.68,57.93 122.45,57.88 122.21,57.83 122.01,57.71 121.81,57.59 121.65,57.41 121.50,57.23 121.41,57.00 121.33,56.78 121.31,56.55 121.30,56.31 121.36,56.08 121.43,55.86 121.56,55.66 121.69,55.46 121.88,55.32 122.07,55.18 122.29,55.10 122.52,55.03 122.76,55.03 122.99,55.03 123.22,55.10 123.44,55.18 123.63,55.32 123.82,55.46 123.95,55.66 124.08,55.86 124.15,56.08 124.21,56.31 124.20,56.55 124.19,56.78 124.10,57.01 124.01,57.23 123.86,57.41 123.70,57.59 123.50,57.71 123.30,57.83 123.07,57.88 122.83,57.93 122.60,57.91 122.36,57.88 122.15,57.78 121.93,57.68 121.76,57.52 121.59,57.36 121.48,57.15 121.37,56.94 121.33,56.70 121.29,56.47 121.29,56.47 121.29,56.47 121.38,50.77 121.48,45.08 121.57,40.84 121.65,36.59 121.64,32.37 121.63,28.14 121.47,23.97 121.32,19.80 121.02,15.87 120.72,11.95 120.01,8.76 119.30,5.58 116.20,4.35 113.11,3.13 104.96,2.99 96.81,2.85 88.63,2.71 80.46,2.56 72.29,2.42 64.13,2.28 55.98,2.24 47.84,2.20 39.78,2.28 31.73,2.37 24.05,2.58 16.37,2.79 10.28,3.26 4.19,3.74 3.07,5.80 1.96,7.85 1.94,12.12 1.91,16.39 1.87,20.72 1.83,25.04 1.80,29.36 1.76,33.68 1.83,37.99 1.90,42.30 2.10,46.55 2.30,50.80 2.66,54.80 3.01,58.80 3.75,62.04 4.50,65.28 7.57,66.48 10.65,67.69 18.75,67.75 26.85,67.81 34.97,67.88 43.09,67.94 51.20,68.00 59.32,68.06 67.41,68.03 75.50,67.99 83.50,67.83 91.50,67.66 99.13,67.39 106.76,67.11 112.81,66.60 118.86,66.08 120.00,64.10 121.14,62.12 121.21,58.21 121.29,54.30 121.39,51.14 121.48,47.98 121.50,47.83 121.52,47.67 121.57,47.53 121.62,47.38 121.71,47.26 121.80,47.13 121.92,47.03 122.03,46.93 122.17,46.86 122.30,46.78 122.45,46.75 122.60,46.71 122.76,46.71 122.91,46.71 123.06,46.75 123.21,46.78 123.35,46.86 123.48,46.93 123.60,47.03 123.71,47.13 123.80,47.26 123.89,47.39 123.94,47.53 124.00,47.67 124.02,47.83 Z" fill="#717d8a" stroke="#717d8a" stroke-width="2" pointer-events="none"/></g><g id="1de8e98f-c98f-4a64-1cf2-7bbb1c753273_svg" class="tl-centered-g" transform="translate(982.73, 162.71) rotate(0.00, 14.39, 13.88)"><defs><mask id="1de8e98f-c98f-4a64-1cf2-7bbb1c753273_clip"><rect x="-100" y="-100" width="228.79" height="227.77" fill="white"/><rect x="14.39" y="13.88" width="0" height="0" rx="2" ry="2" fill="black" opacity="1"/></mask></defs><g pointer-events="none" opacity="1" mask=""><path d="M 0.64,-0.67 Q 0.64,-0.67 4.04,2.65 7.43,5.97 10.83,9.29 14.23,12.60 17.64,15.91 21.04,19.23 24.45,22.53 27.86,25.84 27.93,25.94 28.00,26.04 28.04,26.15 28.08,26.26 28.08,26.38 28.08,26.50 28.04,26.62 28.00,26.73 27.92,26.82 27.85,26.92 27.75,26.99 27.65,27.05 27.53,27.08 27.42,27.11 27.30,27.11 27.18,27.10 27.07,27.05 26.96,27.01 26.87,26.93 26.78,26.85 26.72,26.75 26.65,26.64 26.63,26.53 26.60,26.41 26.62,26.29 26.63,26.17 26.68,26.06 26.74,25.95 26.82,25.87 26.90,25.78 27.01,25.73 27.12,25.67 27.23,25.65 27.35,25.64 27.47,25.66 27.59,25.68 27.69,25.73 27.80,25.79 27.88,25.88 27.96,25.97 28.01,26.08 28.06,26.18 28.07,26.30 28.09,26.42 28.06,26.54 28.03,26.66 27.97,26.76 27.91,26.86 27.81,26.94 27.72,27.02 27.61,27.06 27.50,27.10 27.38,27.11 27.26,27.11 27.14,27.08 27.03,27.05 26.93,26.98 26.83,26.91 26.83,26.91 26.83,26.91 23.40,23.62 19.97,20.34 16.54,17.05 13.11,13.77 9.67,10.49 6.23,7.21 2.79,3.94 -0.64,0.67 -0.72,0.58 -0.79,0.49 -0.83,0.39 -0.88,0.29 -0.90,0.18 -0.93,0.07 -0.92,-0.03 -0.92,-0.15 -0.89,-0.26 -0.85,-0.36 -0.80,-0.46 -0.74,-0.56 -0.66,-0.64 -0.58,-0.72 -0.49,-0.78 -0.39,-0.84 -0.29,-0.88 -0.18,-0.91 -0.07,-0.92 0.03,-0.93 0.15,-0.91 0.26,-0.89 0.36,-0.85 0.46,-0.80 0.55,-0.74 Z" fill="#717d8a" stroke="#717d8a" stroke-width="2.11" stroke-dasharray="none" stroke-dashoffset="none" stroke-linecap="round" stroke-linejoin="round" pointer-events="stroke"/><g><path d="M 25.10,14.955158178968716 L 28.79,27.77 15.85,24.55182484563538" fill="none" stroke="#717d8a" stroke-width="4.23" stroke-linecap="round" stroke-linejoin="round" pointer-events="none"/></g></g></g><g id="735eef7d-f29b-4490-24a2-456040576af1_svg" class="tl-centered-g" transform="translate(893.68, 160.83) rotate(0.00, 8.61, 18.05)"><defs><mask id="735eef7d-f29b-4490-24a2-456040576af1_clip"><rect x="-100" y="-100" width="217.22" height="236.1" fill="white"/><rect x="8.61" y="18.05" width="0" height="0" rx="2" ry="2" fill="black" opacity="1"/></mask></defs><g pointer-events="none" opacity="1" mask=""><path d="M 18.14,0.44 Q 18.14,0.44 16.07,4.71 13.99,8.98 11.93,13.26 9.87,17.54 7.81,21.82 5.75,26.10 3.69,30.38 1.63,34.66 1.56,34.78 1.48,34.89 1.36,34.97 1.25,35.06 1.12,35.10 0.99,35.14 0.85,35.14 0.71,35.14 0.57,35.09 0.44,35.05 0.33,34.96 0.22,34.88 0.15,34.76 0.07,34.64 0.03,34.51 0.00,34.37 0.01,34.23 0.02,34.09 0.07,33.97 0.12,33.84 0.21,33.73 0.31,33.63 0.43,33.56 0.55,33.48 0.68,33.46 0.82,33.43 0.96,33.44 1.10,33.46 1.22,33.52 1.35,33.58 1.45,33.68 1.55,33.78 1.61,33.90 1.68,34.02 1.70,34.16 1.72,34.30 1.69,34.44 1.67,34.58 1.60,34.70 1.54,34.82 1.43,34.91 1.33,35.01 1.20,35.07 1.08,35.12 0.94,35.14 0.80,35.15 0.66,35.12 0.53,35.09 0.41,35.01 0.29,34.94 0.20,34.83 0.11,34.73 0.06,34.60 0.01,34.47 0.01,34.33 0.00,34.19 0.04,34.05 0.08,33.92 0.08,33.92 0.08,33.92 2.11,29.63 4.15,25.33 6.18,21.04 8.21,16.75 10.23,12.45 12.26,8.15 14.27,3.85 16.29,-0.44 16.36,-0.54 16.42,-0.64 16.51,-0.73 16.60,-0.81 16.71,-0.88 16.82,-0.94 16.93,-0.97 17.05,-1.00 17.18,-1.01 17.30,-1.01 17.42,-0.99 17.54,-0.96 17.65,-0.91 17.76,-0.86 17.86,-0.78 17.95,-0.70 18.03,-0.60 18.10,-0.50 18.15,-0.39 18.20,-0.28 18.22,-0.16 18.24,-0.03 18.23,0.08 18.22,0.20 18.18,0.32 Z" fill="#36a64c" stroke="#36a64c" stroke-width="2.11" stroke-dasharray="none" stroke-dashoffset="none" stroke-linecap="round" stroke-linejoin="round" pointer-events="stroke"/><g><path d="M 10.98,28.54882764112725 L 0,36.1 -1.0456808489439888,22.80882764112725" fill="none" stroke="#36a64c" stroke-width="4.23" stroke-linecap="round" stroke-linejoin="round" pointer-events="none"/></g></g></g><g id="747de5be-a353-402e-3c9c-fd51388a69c2_svg" class="tl-centered-g" transform="translate(842.11, 300.05) rotate(0.00, 7.95, 18.36)"><defs><mask id="747de5be-a353-402e-3c9c-fd51388a69c2_clip"><rect x="-100" y="-100" width="215.89" height="236.71" fill="white"/><rect x="7.94" y="18.35" width="0" height="0" rx="2" ry="2" fill="black" opacity="1"/></mask></defs><g pointer-events="none" opacity="1" mask=""><path d="M 16.66,0.33 Q 16.66,0.33 14.74,4.68 12.81,9.02 10.90,13.36 8.98,17.71 7.07,22.06 5.17,26.41 3.26,30.76 1.36,35.12 1.31,35.20 1.25,35.29 1.17,35.35 1.09,35.41 1.00,35.45 0.91,35.48 0.80,35.48 0.70,35.49 0.61,35.46 0.51,35.43 0.43,35.37 0.35,35.31 0.29,35.23 0.23,35.14 0.20,35.05 0.17,34.95 0.18,34.85 0.18,34.75 0.21,34.66 0.25,34.56 0.31,34.48 0.38,34.41 0.46,34.35 0.55,34.30 0.64,34.27 0.74,34.25 0.84,34.26 0.94,34.27 1.03,34.31 1.13,34.35 1.20,34.41 1.28,34.48 1.32,34.57 1.37,34.66 1.39,34.76 1.41,34.85 1.40,34.95 1.38,35.05 1.34,35.14 1.29,35.23 1.22,35.30 1.15,35.38 1.06,35.42 0.97,35.46 0.87,35.48 0.77,35.49 0.67,35.47 0.57,35.45 0.49,35.40 0.40,35.35 0.33,35.28 0.26,35.20 0.23,35.11 0.19,35.02 0.18,34.92 0.17,34.82 0.19,34.72 0.22,34.62 0.22,34.62 0.22,34.62 2.09,30.26 3.96,25.89 5.83,21.52 7.69,17.15 9.55,12.78 11.41,8.41 13.26,4.03 15.11,-0.33 15.16,-0.42 15.21,-0.51 15.28,-0.58 15.35,-0.66 15.44,-0.71 15.53,-0.76 15.62,-0.80 15.72,-0.83 15.82,-0.84 15.92,-0.84 16.03,-0.83 16.13,-0.81 16.22,-0.77 16.31,-0.73 16.40,-0.67 16.48,-0.60 16.54,-0.52 16.61,-0.44 16.65,-0.35 16.69,-0.26 16.71,-0.16 16.73,-0.06 16.73,0.03 16.72,0.14 16.69,0.23 Z" fill="#717d8a" stroke="#717d8a" stroke-width="2.11" stroke-dasharray="none" stroke-dashoffset="none" stroke-linecap="round" stroke-linejoin="round" pointer-events="stroke"/><g><path d="M 10.70,28.761069142357755 L 0,36.71 -1.531285444621755,23.464402475691088" fill="none" stroke="#717d8a" stroke-width="4.23" stroke-linecap="round" stroke-linejoin="round" pointer-events="none"/></g></g></g><g id="6d2119c1-d015-4b0c-2bf6-a93676ed76ba_svg" class="tl-centered-g" transform="translate(968.61, 299.11) rotate(0.00, 15.77, 12.30)"><defs><mask id="6d2119c1-d015-4b0c-2bf6-a93676ed76ba_clip"><rect x="-100" y="-100" width="231.54" height="224.6" fill="white"/><rect x="15.77" y="12.3" width="0" height="0" rx="2" ry="2" fill="black" opacity="1"/></mask></defs><g pointer-events="none" opacity="1" mask=""><path d="M 0.58,-0.75 Q 0.58,-0.75 4.31,2.19 8.03,5.14 11.76,8.08 15.49,11.02 19.22,13.96 22.96,16.89 26.69,19.83 30.43,22.76 30.52,22.85 30.60,22.94 30.65,23.05 30.70,23.17 30.71,23.29 30.73,23.42 30.70,23.54 30.67,23.66 30.60,23.76 30.54,23.87 30.44,23.95 30.35,24.03 30.23,24.07 30.11,24.12 29.99,24.12 29.87,24.13 29.75,24.09 29.63,24.06 29.52,23.99 29.42,23.92 29.35,23.82 29.27,23.72 29.23,23.60 29.20,23.48 29.20,23.36 29.20,23.23 29.24,23.11 29.28,23.00 29.36,22.90 29.44,22.80 29.54,22.73 29.64,22.66 29.76,22.63 29.88,22.60 30.01,22.61 30.13,22.61 30.25,22.66 30.36,22.71 30.46,22.79 30.55,22.87 30.61,22.98 30.68,23.09 30.70,23.21 30.73,23.33 30.71,23.46 30.70,23.58 30.64,23.69 30.59,23.81 30.50,23.89 30.42,23.98 30.31,24.04 30.19,24.10 30.07,24.12 29.95,24.14 29.83,24.11 29.70,24.09 29.59,24.03 29.48,23.97 29.48,23.97 29.48,23.97 25.73,21.06 21.98,18.15 18.22,15.25 14.46,12.34 10.70,9.44 6.94,6.54 3.17,3.64 -0.58,0.75 -0.66,0.67 -0.75,0.59 -0.81,0.49 -0.87,0.39 -0.90,0.28 -0.93,0.17 -0.94,0.05 -0.95,-0.05 -0.93,-0.16 -0.91,-0.28 -0.86,-0.38 -0.81,-0.49 -0.74,-0.58 -0.67,-0.67 -0.58,-0.74 -0.49,-0.81 -0.39,-0.86 -0.28,-0.91 -0.17,-0.93 -0.05,-0.95 0.05,-0.94 0.17,-0.94 0.28,-0.90 0.39,-0.87 0.48,-0.81 Z" fill="#36a64c" stroke="#36a64c" stroke-width="2.11" stroke-dasharray="none" stroke-dashoffset="none" stroke-linecap="round" stroke-linejoin="round" pointer-events="stroke"/><g><path d="M 26.53,12.241925022300935 L 31.54,24.6 18.33,22.75525835563427" fill="none" stroke="#36a64c" stroke-width="4.23" stroke-linecap="round" stroke-linejoin="round" pointer-events="none"/></g></g></g><g id="19b1f47c-81aa-4990-08ae-d11a15b57fb8_svg" class="tl-centered-g" transform="translate(1027.31, 439.37) rotate(0.00, 16.12, 11.84)"><defs><mask id="19b1f47c-81aa-4990-08ae-d11a15b57fb8_clip"><rect x="-100" y="-100" width="232.24" height="223.68" fill="white"/><rect x="16.12" y="11.84" width="0" height="0" rx="2" ry="2" fill="black" opacity="1"/></mask></defs><g pointer-events="none" opacity="1" mask=""><path d="M 0.60,-0.82 Q 0.60,-0.82 4.41,2.01 8.22,4.84 12.04,7.67 15.85,10.50 19.67,13.33 23.49,16.15 27.31,18.98 31.13,21.80 31.23,21.90 31.33,22.00 31.39,22.12 31.45,22.25 31.47,22.39 31.48,22.52 31.46,22.66 31.43,22.80 31.36,22.92 31.29,23.04 31.18,23.13 31.08,23.22 30.95,23.28 30.82,23.33 30.68,23.34 30.54,23.35 30.41,23.31 30.27,23.28 30.16,23.20 30.04,23.13 29.95,23.02 29.87,22.91 29.82,22.78 29.78,22.64 29.77,22.50 29.77,22.37 29.81,22.23 29.86,22.10 29.94,21.99 30.02,21.88 30.13,21.80 30.25,21.72 30.38,21.68 30.52,21.64 30.66,21.64 30.79,21.65 30.92,21.70 31.06,21.75 31.16,21.83 31.27,21.92 31.34,22.04 31.42,22.16 31.45,22.29 31.48,22.43 31.47,22.57 31.46,22.71 31.40,22.84 31.34,22.96 31.25,23.07 31.16,23.17 31.03,23.24 30.91,23.30 30.77,23.33 30.64,23.35 30.50,23.33 30.36,23.31 30.24,23.25 30.11,23.19 30.11,23.19 30.11,23.19 26.28,20.38 22.44,17.58 18.60,14.78 14.77,11.98 10.92,9.19 7.08,6.39 3.24,3.61 -0.60,0.82 -0.69,0.73 -0.78,0.65 -0.85,0.55 -0.91,0.44 -0.95,0.33 -0.99,0.21 -1.01,0.09 -1.02,-0.03 -1.00,-0.15 -0.98,-0.27 -0.93,-0.38 -0.89,-0.50 -0.81,-0.60 -0.74,-0.69 -0.65,-0.77 -0.55,-0.85 -0.44,-0.91 -0.33,-0.96 -0.21,-0.99 -0.09,-1.01 0.02,-1.01 0.15,-1.01 0.27,-0.97 0.39,-0.94 0.49,-0.88 Z" fill="#36a64c" stroke="#36a64c" stroke-width="2.11" stroke-dasharray="none" stroke-dashoffset="none" stroke-linecap="round" stroke-linejoin="round" pointer-events="stroke"/><g><path d="M 26.87,11.4708394794615 L 32.24,23.68 18.98,22.217506146128162" fill="none" stroke="#36a64c" stroke-width="4.23" stroke-linecap="round" stroke-linejoin="round" pointer-events="none"/></g></g></g><g id="0b37be57-73f9-466d-0045-d3b46814583a_svg" class="tl-centered-g" transform="translate(1149.19, 545.25) rotate(0.00, 15.74, 12.34)"><defs><mask id="0b37be57-73f9-466d-0045-d3b46814583a_clip"><rect x="-100" y="-100" width="231.48" height="224.68" fill="white"/><rect x="15.74" y="12.34" width="0" height="0" rx="2" ry="2" fill="black" opacity="1"/></mask></defs><g pointer-events="none" opacity="1" mask=""><path d="M 0.61,-0.78 Q 0.61,-0.78 4.33,2.17 8.05,5.12 11.77,8.07 15.49,11.02 19.22,13.97 22.95,16.91 26.68,19.85 30.41,22.79 30.50,22.89 30.59,22.99 30.64,23.11 30.70,23.23 30.71,23.37 30.72,23.50 30.69,23.63 30.66,23.76 30.59,23.87 30.52,23.98 30.42,24.07 30.32,24.15 30.19,24.20 30.07,24.25 29.93,24.25 29.80,24.26 29.67,24.22 29.54,24.18 29.43,24.11 29.33,24.03 29.25,23.92 29.17,23.82 29.13,23.69 29.09,23.56 29.09,23.43 29.09,23.30 29.13,23.17 29.18,23.04 29.26,22.94 29.34,22.83 29.46,22.76 29.57,22.69 29.70,22.65 29.82,22.62 29.96,22.63 30.09,22.64 30.21,22.69 30.34,22.74 30.44,22.83 30.54,22.92 30.60,23.03 30.67,23.15 30.70,23.28 30.72,23.41 30.71,23.54 30.69,23.67 30.63,23.79 30.58,23.91 30.48,24.01 30.39,24.10 30.27,24.16 30.15,24.23 30.02,24.24 29.89,24.26 29.76,24.24 29.63,24.22 29.51,24.15 29.39,24.09 29.39,24.09 29.39,24.09 25.65,21.17 21.90,18.25 18.15,15.33 14.40,12.41 10.65,9.50 6.90,6.59 3.14,3.68 -0.61,0.78 -0.69,0.69 -0.78,0.61 -0.84,0.51 -0.90,0.40 -0.94,0.29 -0.97,0.17 -0.98,0.05 -0.99,-0.06 -0.97,-0.17 -0.94,-0.29 -0.90,-0.40 -0.85,-0.51 -0.77,-0.60 -0.70,-0.70 -0.60,-0.77 -0.51,-0.85 -0.40,-0.90 -0.29,-0.94 -0.17,-0.97 -0.05,-0.99 0.06,-0.98 0.17,-0.97 0.29,-0.94 0.40,-0.90 0.51,-0.84 Z" fill="#36a64c" stroke="#36a64c" stroke-width="2.11" stroke-dasharray="none" stroke-dashoffset="none" stroke-linecap="round" stroke-linejoin="round" pointer-events="stroke"/><g><path d="M 26.50,12.308831011533352 L 31.48,24.68 18.27,22.802164344866682" fill="none" stroke="#36a64c" stroke-width="4.23" stroke-linecap="round" stroke-linejoin="round" pointer-events="none"/></g></g></g><g id="a75a275b-84f5-4be2-1325-5826f08b14f2_svg" class="tl-centered-g" transform="translate(827.56, 438.80) rotate(0.00, 0.50, 20.00)"><defs><mask id="a75a275b-84f5-4be2-1325-5826f08b14f2_clip"><rect x="-100" y="-100" width="201" height="239.99" fill="white"/><rect x="0.4" y="19.99" width="0" height="0" rx="2" ry="2" fill="black" opacity="1"/></mask></defs><g pointer-events="none" opacity="1" mask=""><path d="M 0.89,-0.01 Q 0.89,-0.01 0.95,4.73 1.00,9.48 1.07,14.23 1.13,18.98 1.21,23.72 1.28,28.47 1.36,33.22 1.44,37.97 1.42,38.08 1.41,38.19 1.36,38.29 1.31,38.39 1.23,38.47 1.15,38.54 1.05,38.59 0.95,38.64 0.84,38.66 0.73,38.67 0.62,38.65 0.51,38.63 0.42,38.57 0.32,38.52 0.25,38.43 0.18,38.35 0.13,38.25 0.09,38.15 0.08,38.04 0.07,37.92 0.10,37.82 0.13,37.71 0.19,37.62 0.25,37.52 0.34,37.46 0.42,37.39 0.53,37.35 0.63,37.31 0.74,37.31 0.85,37.31 0.96,37.34 1.06,37.37 1.15,37.44 1.24,37.50 1.31,37.60 1.37,37.69 1.40,37.79 1.43,37.90 1.43,38.01 1.43,38.12 1.39,38.22 1.35,38.33 1.28,38.41 1.21,38.50 1.11,38.56 1.02,38.62 0.91,38.64 0.81,38.67 0.70,38.66 0.58,38.65 0.48,38.60 0.38,38.56 0.30,38.48 0.22,38.41 0.16,38.31 0.11,38.22 0.09,38.11 0.07,38.00 0.07,38.00 0.07,38.00 -0.03,33.25 -0.14,28.50 -0.26,23.75 -0.37,19.01 -0.50,14.26 -0.62,9.51 -0.76,4.76 -0.89,0.01 -0.88,-0.08 -0.87,-0.19 -0.83,-0.29 -0.79,-0.39 -0.74,-0.48 -0.68,-0.57 -0.60,-0.65 -0.52,-0.72 -0.42,-0.77 -0.33,-0.82 -0.22,-0.85 -0.12,-0.88 -0.01,-0.88 0.09,-0.88 0.19,-0.86 0.30,-0.84 0.39,-0.79 0.49,-0.74 0.57,-0.67 0.65,-0.60 0.72,-0.51 0.78,-0.43 0.82,-0.33 0.86,-0.23 0.87,-0.12 Z" fill="#717d8a" stroke="#717d8a" stroke-width="2.11" stroke-dasharray="none" stroke-dashoffset="none" stroke-linecap="round" stroke-linejoin="round" pointer-events="stroke"/><g><path d="M 7.23,28.3125480342201 L 0.8,39.99 -6.095940107675848,28.579214700886766" fill="none" stroke="#717d8a" stroke-width="4.23" stroke-linecap="round" stroke-linejoin="round" pointer-events="none"/></g></g></g><g id="2b66b742-24a8-454b-2c36-975ffe016764_svg" class="tl-centered-g" transform="translate(883.85, 545.43) rotate(0.00, 17.77, 8.94)"><defs><mask id="2b66b742-24a8-454b-2c36-975ffe016764_clip"><rect x="-100" y="-100" width="235.54" height="217.88" fill="white"/><rect x="17.77" y="8.94" width="0" height="0" rx="2" ry="2" fill="black" opacity="1"/></mask></defs><g pointer-events="none" opacity="1" mask=""><path d="M 0.45,-0.91 Q 0.45,-0.91 4.66,1.23 8.87,3.38 13.07,5.52 17.28,7.67 21.50,9.80 25.71,11.94 29.92,14.07 34.14,16.21 34.25,16.29 34.36,16.37 34.44,16.48 34.52,16.60 34.56,16.73 34.60,16.86 34.60,17.00 34.59,17.14 34.54,17.27 34.49,17.40 34.41,17.51 34.32,17.62 34.20,17.69 34.08,17.77 33.95,17.80 33.81,17.83 33.67,17.82 33.54,17.81 33.41,17.75 33.28,17.70 33.18,17.60 33.07,17.51 33.01,17.39 32.94,17.27 32.91,17.13 32.89,16.99 32.91,16.86 32.93,16.72 32.99,16.59 33.05,16.47 33.15,16.37 33.25,16.27 33.38,16.21 33.50,16.15 33.64,16.13 33.78,16.12 33.91,16.14 34.05,16.17 34.17,16.24 34.29,16.31 34.38,16.41 34.48,16.52 34.53,16.65 34.58,16.77 34.59,16.91 34.61,17.05 34.57,17.19 34.54,17.32 34.46,17.44 34.39,17.55 34.28,17.64 34.17,17.73 34.04,17.77 33.91,17.82 33.77,17.82 33.63,17.83 33.49,17.79 33.36,17.74 33.36,17.74 33.36,17.74 29.14,15.63 24.91,13.52 20.69,11.41 16.46,9.30 12.23,7.20 8.00,5.10 3.77,3.00 -0.45,0.91 -0.56,0.84 -0.66,0.77 -0.74,0.68 -0.83,0.59 -0.88,0.48 -0.94,0.37 -0.97,0.25 -1.01,0.14 -1.01,0.01 -1.01,-0.10 -0.98,-0.22 -0.96,-0.34 -0.90,-0.45 -0.85,-0.56 -0.77,-0.65 -0.69,-0.75 -0.59,-0.82 -0.48,-0.89 -0.37,-0.94 -0.26,-0.98 -0.13,-1.00 -0.01,-1.02 0.10,-1.00 0.22,-0.99 0.34,-0.95 Z" fill="#717d8a" stroke="#717d8a" stroke-width="2.11" stroke-dasharray="none" stroke-dashoffset="none" stroke-linecap="round" stroke-linejoin="round" pointer-events="stroke"/><g><path d="M 28.26,6.795155260111397 L 35.54,17.88 22.30,18.64182192677808" fill="none" stroke="#717d8a" stroke-width="4.23" stroke-linecap="round" stroke-linejoin="round" pointer-events="none"/></g></g></g><g id="74d63243-4327-4ed3-3832-0ad38fffb6d3_svg" class="tl-centered-g" transform="translate(741.41, 548.05) rotate(0.00, 17.39, 9.89)"><defs><mask id="74d63243-4327-4ed3-3832-0ad38fffb6d3_clip"><rect x="-100" y="-100" width="234.77" height="219.78" fill="white"/><rect x="17.38" y="9.89" width="0" height="0" rx="2" ry="2" fill="black" opacity="1"/></mask></defs><g pointer-events="none" opacity="1" mask=""><path d="M 35.25,0.85 Q 35.25,0.85 31.11,3.17 26.96,5.49 22.82,7.82 18.68,10.15 14.54,12.48 10.40,14.81 6.27,17.15 2.13,19.49 2.01,19.53 1.89,19.58 1.76,19.58 1.63,19.59 1.50,19.55 1.38,19.51 1.27,19.43 1.16,19.36 1.09,19.25 1.01,19.15 0.97,19.02 0.93,18.90 0.94,18.77 0.94,18.64 0.99,18.51 1.03,18.39 1.11,18.29 1.19,18.19 1.30,18.12 1.41,18.05 1.54,18.01 1.67,17.98 1.80,17.99 1.93,18.00 2.05,18.05 2.17,18.11 2.26,18.19 2.36,18.28 2.42,18.39 2.49,18.51 2.51,18.63 2.54,18.76 2.52,18.89 2.50,19.02 2.45,19.14 2.39,19.25 2.30,19.35 2.21,19.44 2.09,19.50 1.97,19.56 1.84,19.57 1.71,19.59 1.59,19.57 1.46,19.54 1.34,19.48 1.23,19.42 1.14,19.32 1.06,19.22 1.00,19.10 0.95,18.98 0.94,18.85 0.93,18.72 0.96,18.60 0.99,18.47 1.06,18.36 1.13,18.25 1.23,18.17 1.33,18.09 1.33,18.09 1.33,18.09 5.46,15.73 9.58,13.36 13.70,11.00 17.82,8.64 21.94,6.27 26.05,3.90 30.17,1.52 34.28,-0.85 34.39,-0.89 34.50,-0.94 34.61,-0.96 34.73,-0.98 34.85,-0.97 34.97,-0.96 35.08,-0.92 35.19,-0.88 35.29,-0.82 35.39,-0.75 35.47,-0.67 35.55,-0.58 35.61,-0.48 35.67,-0.37 35.70,-0.26 35.74,-0.15 35.74,-0.03 35.74,0.08 35.72,0.20 35.69,0.31 35.64,0.42 35.59,0.53 35.52,0.62 35.44,0.71 35.35,0.78 Z" fill="#717d8a" stroke="#717d8a" stroke-width="2.11" stroke-dasharray="none" stroke-dashoffset="none" stroke-linecap="round" stroke-linejoin="round" pointer-events="stroke"/><g><path d="M 13.33,19.8650058377146 L 0,19.78 6.74,8.275005837714602" fill="none" stroke="#717d8a" stroke-width="4.23" stroke-linecap="round" stroke-linejoin="round" pointer-events="none"/></g></g></g><g text-align="left" text-anchor="start" fill="#cecece" transform="translate(821.81, 220.40) rotate(0.00, 52.00, 23.50)"><text y="24" letter-spacing="-1.44" font-size="48px" font-family="Caveat Brush" text-align="left" alignment-baseline="central" transform="scale(0.7656448076539768)">loader()</text></g><g text-align="left" text-anchor="start" fill="#cecece" transform="translate(1031.57, 362.55) rotate(0.00, 52.00, 23.50)"><text y="24" letter-spacing="-1.44" font-size="48px" font-family="Caveat Brush" text-align="left" alignment-baseline="central" transform="scale(0.7656448076539768)">loader()</text></g><g id="9de26dd8-c521-40af-0970-44fab2afc38c_svg" class="tl-centered-g" transform="translate(1280.49, 240.23) rotate(0.00, 83.08, 61.16)"><path d="M 137.38,16.47 Q 137.38,16.47 141.84,17.52 146.31,18.58 150.82,21.52 155.33,24.46 157.72,26.78 160.12,29.09 162.32,32.08 164.53,35.07 166.40,38.67 168.26,42.28 169.59,46.44 170.92,50.60 171.45,55.26 171.99,59.92 171.48,64.93 170.97,69.94 169.20,75.09 167.43,80.24 164.28,85.27 161.13,90.31 156.58,94.95 152.03,99.59 146.23,103.71 140.42,107.82 133.45,111.20 126.47,114.57 118.51,117.00 110.54,119.43 101.86,120.72 93.18,122.02 84.14,122.05 75.11,122.07 66.13,120.76 57.16,119.45 48.70,116.82 40.24,114.18 32.72,110.31 25.21,106.44 19.02,101.52 12.83,96.59 8.29,90.83 3.74,85.08 1.05,78.78 -1.63,72.49 -2.35,65.98 -3.08,59.48 -1.87,53.12 -0.67,46.76 2.27,40.87 5.22,34.99 9.62,29.82 14.02,24.66 19.53,20.37 25.04,16.09 31.29,12.75 37.55,9.41 44.20,7.03 50.85,4.65 57.59,3.18 64.32,1.71 70.87,1.04 77.42,0.38 83.58,0.41 89.73,0.43 95.35,0.94 100.97,1.44 105.96,2.33 110.95,3.23 115.25,4.43 119.55,5.62 123.13,7.03 126.72,8.43 129.58,9.93 132.45,11.42 136.20,14.17 139.96,16.92 141.60,18.61 143.24,20.30 143.24,20.30 143.24,20.31 143.23,20.31 143.23,20.32 141.09,19.45 138.96,18.59 134.83,16.92 130.71,15.25 127.86,14.15 125.01,13.05 121.56,11.85 118.12,10.65 114.04,9.46 109.96,8.28 105.21,7.27 100.47,6.27 95.09,5.64 89.71,5.02 83.79,4.98 77.87,4.95 71.58,5.57 65.29,6.19 58.84,7.59 52.39,8.98 46.04,11.23 39.70,13.48 33.77,16.60 27.85,19.73 22.67,23.71 17.50,27.68 13.41,32.39 9.31,37.11 6.58,42.40 3.84,47.69 2.68,53.37 1.53,59.05 2.10,64.89 2.68,70.73 5.07,76.47 7.45,82.22 11.63,87.56 15.81,92.91 21.61,97.55 27.41,102.19 34.55,105.86 41.69,109.53 49.79,112.02 57.88,114.52 66.48,115.73 75.08,116.94 83.72,116.84 92.37,116.74 100.61,115.39 108.86,114.05 116.32,111.61 123.78,109.18 130.15,105.85 136.51,102.53 141.58,98.57 146.64,94.62 150.29,90.31 153.94,86.01 156.33,81.68 158.72,77.35 160.00,73.16 161.28,68.98 161.61,65.02 161.94,61.06 161.48,57.39 161.03,53.72 159.96,50.39 158.90,47.06 157.39,44.10 155.89,41.14 152.42,36.22 148.95,31.31 145.84,27.61 142.73,23.92 140.05,20.21 Z" fill="#cecece" stroke="#cecece" stroke-width="5" pointer-events="none" stroke-linecap="round" stroke-linejoin="round"/></g><g text-align="left" text-anchor="start" fill="#cecece" transform="translate(1315.58, 253.17) rotate(0.00, 43.50, 45.50)"><text y="14" letter-spacing="-0.84" font-size="28px" font-family="Caveat Brush" text-align="left" alignment-baseline="central" transform="scale(2.876548745058208)">DB</text></g><g id="9bd94bbe-8004-4ee6-011e-2d7662f65d64_svg" class="tl-centered-g" transform="translate(955.51, 223.87) rotate(0.00, 143.51, 13.23)"><defs><mask id="9bd94bbe-8004-4ee6-011e-2d7662f65d64_clip"><rect x="-100" y="-100" width="487.02" height="226.45" fill="white"/><rect x="144.32" y="0.38" width="0" height="0" rx="4" ry="4" fill="black" opacity="1"/></mask></defs><g pointer-events="none" opacity="1" mask=""><path d="M -16.50,16.07 Q -16.50,16.07 -14.08,14.75 -11.65,13.43 -8.41,12.58 -5.17,11.73 -0.71,10.63 3.74,9.54 9.37,8.26 15.00,6.99 21.73,5.64 28.46,4.30 36.16,2.98 43.87,1.66 52.43,0.47 61.00,-0.70 70.28,-1.66 79.55,-2.62 89.39,-3.27 99.22,-3.93 109.42,-4.21 119.62,-4.49 130.00,-4.37 140.38,-4.24 150.75,-3.71 161.12,-3.18 171.28,-2.25 181.45,-1.32 191.22,-0.04 200.99,1.22 210.20,2.78 219.40,4.33 227.88,6.06 236.36,7.79 243.97,9.59 251.59,11.40 258.22,13.17 264.86,14.94 270.41,16.57 275.96,18.20 280.36,19.59 284.75,20.97 287.93,22.03 291.10,23.08 293.69,23.97 296.27,24.86 296.91,25.21 297.54,25.56 298.04,26.10 298.53,26.63 298.83,27.30 299.12,27.96 299.19,28.69 299.26,29.41 299.09,30.12 298.92,30.83 298.54,31.45 298.16,32.07 297.59,32.53 297.03,32.99 296.35,33.25 295.67,33.51 294.94,33.54 294.22,33.57 293.52,33.37 292.82,33.16 292.22,32.74 291.63,32.33 291.20,31.74 290.76,31.15 290.54,30.46 290.32,29.77 290.33,29.04 290.34,28.31 290.58,27.63 290.82,26.94 291.27,26.37 291.72,25.79 292.33,25.39 292.94,24.99 293.64,24.81 294.35,24.62 295.07,24.67 295.80,24.72 296.47,25.00 297.15,25.28 297.69,25.76 298.24,26.24 298.61,26.87 298.97,27.50 299.12,28.21 299.27,28.93 299.18,29.65 299.09,30.37 298.77,31.03 298.46,31.68 297.95,32.21 297.44,32.73 296.79,33.06 296.14,33.39 295.42,33.50 294.70,33.60 293.99,33.48 293.27,33.35 293.27,33.35 293.27,33.35 290.77,32.49 288.27,31.63 285.15,30.59 282.04,29.56 277.73,28.19 273.43,26.83 267.98,25.23 262.53,23.63 256.03,21.89 249.52,20.15 242.04,18.38 234.55,16.60 226.23,14.90 217.91,13.20 208.86,11.67 199.82,10.15 190.22,8.89 180.62,7.64 170.64,6.72 160.65,5.80 150.46,5.27 140.27,4.74 130.07,4.62 119.87,4.49 109.84,4.77 99.81,5.05 90.14,5.68 80.48,6.32 71.35,7.26 62.23,8.20 53.81,9.37 45.38,10.53 37.80,11.83 30.21,13.13 23.60,14.45 16.99,15.76 11.44,17.02 5.89,18.27 1.49,19.36 -2.90,20.44 -6.08,21.27 -9.26,22.10 -12.01,22.21 -14.77,22.32 -15.16,22.38 -15.55,22.44 -15.93,22.40 -16.32,22.37 -16.69,22.24 -17.06,22.11 -17.39,21.90 -17.72,21.68 -17.99,21.40 -18.25,21.11 -18.45,20.77 -18.64,20.43 -18.74,20.05 -18.85,19.68 -18.86,19.28 -18.87,18.89 -18.78,18.51 -18.70,18.13 -18.53,17.78 -18.36,17.43 -18.11,17.13 -17.85,16.83 -17.54,16.59 -17.22,16.36 -16.86,16.21 Z" fill="#cecece" stroke="#cecece" stroke-width="0" stroke-dasharray="none" stroke-dashoffset="none" stroke-linecap="round" stroke-linejoin="round" pointer-events="none"/><g><path d="M 275.96,1.6878917798995463 L 302.28,31.81 263.03,39.541355751182415" fill="none" stroke="#cecece" stroke-width="9.09" stroke-linecap="round" stroke-linejoin="round" pointer-events="none"/></g></g></g><g id="8f42bb24-42b0-430b-003c-fad1207c05a8_svg" class="tl-centered-g" transform="translate(1151.60, 338.34) rotate(0.00, 60.54, 20.84)"><defs><mask id="8f42bb24-42b0-430b-003c-fad1207c05a8_clip"><rect x="-100" y="-100" width="321.07" height="241.67" fill="white"/><rect x="57.57" y="12.23" width="0" height="0" rx="4" ry="4" fill="black" opacity="1"/></mask></defs><g pointer-events="none" opacity="1" mask=""><path d="M -7.93,43.05 Q -7.93,43.05 -5.83,40.93 -3.73,38.80 -0.75,36.75 2.22,34.69 6.30,32.09 10.39,29.48 15.46,26.55 20.54,23.63 26.45,20.63 32.36,17.64 38.87,14.81 45.37,11.98 52.19,9.49 59.01,7.01 65.81,4.99 72.62,2.97 79.08,1.46 85.53,-0.04 91.32,-1.07 97.11,-2.10 101.93,-2.73 106.76,-3.37 110.39,-3.71 114.02,-4.05 117.04,-4.25 120.07,-4.45 120.79,-4.37 121.52,-4.29 122.18,-3.98 122.84,-3.68 123.36,-3.17 123.89,-2.67 124.23,-2.03 124.57,-1.39 124.69,-0.67 124.81,0.04 124.69,0.76 124.57,1.48 124.23,2.12 123.89,2.76 123.36,3.26 122.83,3.76 122.17,4.07 121.51,4.37 120.78,4.45 120.06,4.53 119.35,4.37 118.64,4.21 118.01,3.84 117.39,3.46 116.92,2.91 116.45,2.35 116.18,1.67 115.91,1.00 115.87,0.27 115.83,-0.45 116.03,-1.15 116.23,-1.85 116.63,-2.45 117.04,-3.05 117.62,-3.49 118.20,-3.93 118.89,-4.16 119.58,-4.40 120.31,-4.39 121.04,-4.39 121.73,-4.16 122.42,-3.93 123.00,-3.49 123.58,-3.04 123.99,-2.44 124.39,-1.84 124.59,-1.14 124.78,-0.43 124.74,0.28 124.70,1.01 124.43,1.69 124.16,2.36 123.69,2.92 123.21,3.47 122.59,3.84 121.97,4.22 121.25,4.37 120.54,4.53 120.54,4.53 120.55,4.53 117.70,4.72 114.85,4.91 111.39,5.23 107.93,5.55 103.31,6.15 98.68,6.76 93.13,7.74 87.58,8.72 81.37,10.16 75.17,11.60 68.63,13.53 62.08,15.46 55.52,17.85 48.96,20.23 42.69,22.95 36.43,25.67 30.73,28.55 25.03,31.42 20.13,34.25 15.22,37.07 11.28,39.58 7.33,42.10 4.45,44.08 1.57,46.07 -1.07,47.42 -3.72,48.78 -4.10,48.99 -4.47,49.20 -4.88,49.32 -5.30,49.43 -5.73,49.44 -6.15,49.46 -6.57,49.36 -6.99,49.27 -7.38,49.09 -7.76,48.90 -8.09,48.62 -8.42,48.35 -8.67,48.00 -8.93,47.66 -9.09,47.26 -9.25,46.86 -9.32,46.44 -9.38,46.01 -9.34,45.59 -9.30,45.16 -9.16,44.76 -9.02,44.35 -8.79,43.99 -8.55,43.63 -8.24,43.34 Z" fill="#cecece" stroke="#cecece" stroke-width="0" stroke-dasharray="none" stroke-dashoffset="none" stroke-linecap="round" stroke-linejoin="round" pointer-events="none"/><g><path d="M 92.29,-17.705455282900584 L 128.28,-0.24 95.16,22.19164951935223" fill="none" stroke="#cecece" stroke-width="9.09" stroke-linecap="round" stroke-linejoin="round" pointer-events="none"/></g></g></g></svg>