<svg xmlns="http://www.w3.org/2000/svg" viewBox="0 0 1504 688" width="1472" height="656" style="background-color: transparent;"><defs><style>@import url('https://fonts.googleapis.com/css2?family=Caveat+Brush&amp;family=Source+Code+Pro&amp;family=Source+Sans+Pro&amp;family=Crimson+Pro&amp;display=block');</style></defs><g id="c286159d-3cd8-4d6d-2ca8-8004c36d8abf_svg" class="tl-centered-g" transform="translate(16.00, 16.00) rotate(0.00, 736.00, 328.00)"><g pointer-events="none" stroke="transparent" stroke-width="4.23" stroke-linecap="round"><line x1="2.11" y1="2.11" x2="1469.88" y2="2.11" stroke-dasharray="0.03 6.46" stroke-dashoffset="0"/><line x1="1469.88" y1="2.11" x2="1469.88" y2="653.88" stroke-dasharray="0.03 6.48" stroke-dashoffset="0"/><line x1="1469.88" y1="653.88" x2="2.11" y2="653.88" stroke-dasharray="0.03 6.46" stroke-dashoffset="0"/><line x1="2.11" y1="653.88" x2="2.11" y2="2.11" stroke-dasharray="0.03 6.48" stroke-dashoffset="0"/></g></g><g text-align="left" text-anchor="start" fill="#ebbb38" transform="translate(52.22, 30.20) rotate(0.00, 691.50, 36.50)"><text y="14" letter-spacing="-0.84" font-size="28px" font-family="Caveat Brush" text-align="left" alignment-baseline="central" transform="scale(2.262123709112943)">Remix "frameworks" the relationship between the Client and Server</text></g><g text-align="left" text-anchor="start" fill="#cecece" transform="translate(852.50, 372.77) rotate(0.00, 124.50, 22.00)"><text y="24" letter-spacing="-1.44" font-size="48px" font-family="Caveat Brush" text-align="left" alignment-baseline="central" transform="scale(0.7106689092156896)">App-like Interactions</text></g><g id="605310cf-6b46-4591-3449-d0bd475d95c3_svg" class="tl-centered-g" transform="translate(822.37, 393.07) rotate(0.00, 3.49, 3.37)"><g opacity="1"><path d="M 5.43,2.53 Q 5.43,2.53 5.18,3.17 4.94,3.80 1.57,3.70 -1.79,3.60 -1.54,2.72 -1.29,1.84 -0.78,1.09 -0.26,0.34 0.45,-0.20 1.18,-0.75 2.04,-1.03 2.91,-1.32 3.82,-1.32 4.73,-1.31 5.59,-1.02 6.45,-0.73 7.17,-0.17 7.90,0.37 8.41,1.13 8.91,1.88 9.15,2.76 9.39,3.64 9.34,4.55 9.29,5.46 8.95,6.30 8.61,7.15 8.02,7.84 7.42,8.53 6.64,9.00 5.86,9.46 4.97,9.65 4.08,9.85 3.18,9.75 2.27,9.64 1.45,9.26 0.62,8.87 -0.03,8.24 -0.69,7.61 -1.11,6.81 -1.53,6.00 -1.68,5.10 -1.82,4.20 -1.67,3.31 -1.52,2.41 -1.09,1.61 -0.66,0.80 -0.00,0.18 0.66,-0.43 1.48,-0.81 2.31,-1.19 3.22,-1.29 4.12,-1.38 5.01,-1.18 5.90,-0.98 6.68,-0.51 7.46,-0.04 8.04,0.65 8.63,1.34 8.96,2.19 9.30,3.04 9.34,3.95 9.39,4.86 9.39,4.86 9.39,4.86 4.68,8.36 -0.01,11.87 -1.77,10.61 -3.54,9.35 -4.17,6.84 -4.81,4.33 -4.54,2.03 -4.28,-0.26 -2.87,-2.29 -1.46,-4.31 1.54,-4.84 4.55,-5.37 6.84,-4.54 9.13,-3.71 10.51,-1.89 11.89,-0.08 11.99,2.75 12.09,5.59 10.69,7.89 9.30,10.19 7.23,11.04 5.16,11.88 2.96,11.76 0.77,11.65 -1.31,10.67 -3.41,9.68 -4.09,7.05 -4.78,4.43 -4.18,2.23 -3.58,0.04 -3.27,-0.56 -2.97,-1.18 -2.69,-1.65 -2.40,-2.13 -2.01,-2.52 -1.63,-2.92 -1.15,-3.21 -0.68,-3.50 -0.15,-3.67 0.37,-3.83 0.92,-3.87 1.47,-3.91 2.02,-3.81 2.56,-3.72 3.07,-3.49 3.58,-3.27 4.02,-2.93 4.45,-2.59 4.80,-2.16 5.14,-1.72 5.37,-1.22 5.60,-0.71 5.71,-0.17 5.81,0.36 5.78,0.92 5.75,1.47 5.59,2.00 Z" fill="#36a64c" stroke="#36a64c" stroke-width="1.75" stroke-linejoin="round" stroke-linecap="round" pointer-events="none"/></g></g><g id="0fba1b75-8485-4830-1bd9-1e47f9103127_svg" class="tl-centered-g" transform="translate(825.22, 548.78) rotate(0.00, 4.54, 4.90)"><g opacity="1"><path d="M 2.62,4.61 Q 2.62,4.61 2.07,4.64 1.51,4.67 3.18,3.15 4.85,1.62 6.39,3.08 7.93,4.54 5.98,5.78 4.03,7.01 5.70,5.64 7.37,4.27 6.96,5.07 6.56,5.86 5.92,6.49 5.28,7.11 4.48,7.50 3.67,7.89 2.79,8.00 1.90,8.11 1.03,7.93 0.15,7.75 -0.61,7.31 -1.38,6.86 -1.97,6.19 -2.56,5.52 -2.90,4.69 -3.24,3.87 -3.31,2.98 -3.37,2.09 -3.14,1.22 -2.92,0.36 -2.43,-0.38 -1.94,-1.12 -1.24,-1.67 -0.54,-2.22 0.29,-2.52 1.13,-2.82 2.03,-2.84 2.92,-2.85 3.77,-2.58 4.62,-2.31 5.34,-1.78 6.06,-1.25 6.57,-0.52 7.08,0.20 7.33,1.06 7.59,1.91 7.55,2.81 7.52,3.70 7.20,4.53 6.88,5.37 6.32,6.06 5.75,6.74 4.99,7.22 4.24,7.69 3.37,7.89 2.50,8.10 1.61,8.02 0.72,7.94 -0.08,7.57 -0.90,7.21 -1.56,6.61 -2.22,6.00 -2.65,5.22 -3.08,4.44 -3.23,3.56 -3.39,2.68 -3.26,1.80 -3.13,0.92 -3.13,0.92 -3.13,0.92 1.51,-1.86 6.16,-4.64 8.46,-3.74 10.76,-2.83 12.08,-1.20 13.40,0.42 13.92,2.75 14.44,5.09 14.33,7.21 14.21,9.32 13.09,11.42 11.97,13.53 9.09,14.16 6.21,14.79 3.76,13.89 1.30,12.99 -0.64,11.38 -2.58,9.77 -3.59,7.83 -4.60,5.89 -4.65,3.16 -4.70,0.43 -3.76,-1.41 -2.83,-3.27 -0.65,-3.97 1.51,-4.67 2.07,-4.64 2.62,-4.61 3.18,-4.55 3.73,-4.48 4.25,-4.28 4.77,-4.09 5.23,-3.77 5.69,-3.45 6.06,-3.04 6.43,-2.62 6.69,-2.13 6.94,-1.63 7.08,-1.09 7.21,-0.55 7.21,0.00 7.21,0.55 7.08,1.09 6.94,1.63 6.69,2.13 6.43,2.62 6.06,3.04 5.69,3.45 5.23,3.77 4.77,4.09 4.25,4.28 3.73,4.48 3.18,4.55 Z" fill="#36a64c" stroke="#36a64c" stroke-width="1.75" stroke-linejoin="round" stroke-linecap="round" pointer-events="none"/></g></g><g id="fa403478-d8f9-4ef2-0bd2-d43578c770a0_svg" class="tl-centered-g" transform="translate(828.56, 604.36) rotate(0.00, 4.85, 7.07)"><g opacity="1"><path d="M 9.65,13.48 Q 9.65,13.48 8.55,13.50 7.45,13.53 4.99,13.63 2.53,13.73 3.81,11.83 5.08,9.94 4.39,7.97 3.70,6.01 5.40,4.58 7.09,3.15 6.73,4.20 6.37,5.25 7.26,5.48 8.15,5.70 8.92,6.20 9.69,6.69 10.27,7.41 10.84,8.13 11.16,8.99 11.47,9.85 11.50,10.77 11.52,11.69 11.25,12.57 10.98,13.44 10.44,14.19 9.90,14.93 9.15,15.47 8.41,16.00 7.53,16.27 6.65,16.54 5.73,16.51 4.81,16.49 3.95,16.17 3.09,15.85 2.37,15.27 1.66,14.69 1.17,13.92 0.67,13.14 0.45,12.25 0.23,11.36 0.31,10.44 0.39,9.53 0.75,8.69 1.12,7.84 1.73,7.16 2.34,6.48 3.15,6.03 3.95,5.58 4.85,5.41 5.75,5.23 6.66,5.36 7.57,5.49 8.39,5.90 9.22,6.31 9.86,6.96 10.51,7.61 10.92,8.43 11.33,9.26 11.45,10.17 11.57,11.08 11.39,11.98 11.22,12.88 10.77,13.68 10.31,14.48 9.63,15.09 8.94,15.70 8.10,16.06 7.25,16.43 6.34,16.50 5.42,16.57 5.42,16.57 5.42,16.57 1.10,13.54 -3.20,10.50 -3.63,7.88 -4.05,5.26 -3.95,3.16 -3.85,1.07 -2.51,-1.50 -1.16,-4.09 2.06,-4.73 5.29,-5.37 7.43,-4.44 9.56,-3.50 11.40,-1.54 13.25,0.42 14.12,2.58 14.99,4.74 15.06,6.78 15.14,8.82 14.90,10.84 14.67,12.86 13.47,15.21 12.27,17.55 9.84,18.49 7.40,19.42 5.32,19.09 3.24,18.76 1.12,17.73 -0.99,16.70 -2.58,15.07 -4.18,13.45 -4.50,11.09 -4.82,8.74 -3.46,6.84 -2.09,4.95 0.21,4.45 2.53,3.95 4.97,4.04 7.42,4.13 8.52,4.15 9.62,4.16 10.17,4.23 10.73,4.30 11.26,4.49 11.78,4.69 12.25,5.01 12.71,5.33 13.08,5.75 13.46,6.16 13.72,6.66 13.98,7.16 14.12,7.70 14.25,8.25 14.26,8.81 14.26,9.37 14.13,9.92 13.99,10.46 13.73,10.96 13.47,11.46 13.10,11.88 12.73,12.30 12.27,12.62 11.81,12.94 11.28,13.14 10.76,13.34 10.20,13.41 Z" fill="#36a64c" stroke="#36a64c" stroke-width="1.75" stroke-linejoin="round" stroke-linecap="round" pointer-events="none"/></g></g><g text-align="left" text-anchor="start" fill="#cecece" transform="translate(860.82, 585.48) rotate(0.00, 250.50, 22.00)"><text y="24" letter-spacing="-1.44" font-size="48px" font-family="Caveat Brush" text-align="left" alignment-baseline="central" transform="scale(0.7106689092156896)">You can still do Client-Side state if you want</text></g><g text-align="left" text-anchor="start" fill="#cecece" transform="translate(858.21, 534.27) rotate(0.00, 244.00, 22.00)"><text y="24" letter-spacing="-1.44" font-size="48px" font-family="Caveat Brush" text-align="left" alignment-baseline="central" transform="scale(0.7106689092156896)">Lots of Shared logic like UI's, validation, etc</text></g><g text-align="left" text-anchor="start" fill="#cecece" transform="translate(850.54, 423.64) rotate(0.00, 76.00, 22.00)"><text y="24" letter-spacing="-1.44" font-size="48px" font-family="Caveat Brush" text-align="left" alignment-baseline="central" transform="scale(0.7106689092156896)">Good for SEO</text></g><g text-align="left" text-anchor="start" fill="#cecece" transform="translate(850.54, 476.82) rotate(0.00, 273.00, 22.00)"><text y="24" letter-spacing="-1.44" font-size="48px" font-family="Caveat Brush" text-align="left" alignment-baseline="central" transform="scale(0.7106689092156896)">Better opportunity for performance than an SPA</text></g><g text-align="left" text-anchor="start" fill="#cecece" transform="translate(102.64, 280.22) rotate(0.00, 95.50, 19.50)"><text y="24" letter-spacing="-1.44" font-size="48px" font-family="Caveat Brush" text-align="left" alignment-baseline="central" transform="scale(0.5979007420386788)">Client-Side Routing</text></g><g text-align="left" text-anchor="start" fill="#cecece" transform="translate(102.43, 414.29) rotate(0.00, 140.50, 19.50)"><text y="24" letter-spacing="-1.44" font-size="48px" font-family="Caveat Brush" text-align="left" alignment-baseline="central" transform="scale(0.5979007420386788)">Works without JS if you want</text></g><g text-align="left" text-anchor="start" fill="#cecece" transform="translate(104.53, 457.02) rotate(0.00, 90.00, 19.50)"><text y="24" letter-spacing="-1.44" font-size="48px" font-family="Caveat Brush" text-align="left" alignment-baseline="central" transform="scale(0.5979007420386788)">CSS Encapsulation</text></g><g id="9b2cf96d-e702-4860-27ef-275bc61adb56_svg" class="tl-centered-g" transform="translate(81.68, 471.70) rotate(0.00, 2.94, 2.84)"><g opacity="1"><path d="M 5.32,2.16 Q 5.32,2.16 5.12,2.80 4.92,3.43 3.21,2.04 1.50,0.64 1.88,2.89 2.27,5.14 4.12,4.07 5.98,3.01 1.82,2.97 -2.32,2.93 -2.08,2.06 -1.83,1.20 -1.33,0.46 -0.82,-0.28 -0.10,-0.82 0.61,-1.36 1.47,-1.65 2.32,-1.93 3.22,-1.93 4.12,-1.92 4.97,-1.63 5.82,-1.34 6.54,-0.79 7.25,-0.25 7.76,0.49 8.26,1.24 8.50,2.11 8.73,2.97 8.68,3.87 8.63,4.77 8.29,5.61 7.96,6.44 7.37,7.13 6.78,7.81 6.01,8.27 5.24,8.73 4.36,8.92 3.48,9.11 2.58,9.01 1.69,8.91 0.87,8.53 0.06,8.15 -0.58,7.53 -1.24,6.90 -1.65,6.11 -2.07,5.31 -2.21,4.42 -2.36,3.53 -2.21,2.64 -2.06,1.76 -1.63,0.96 -1.21,0.17 -0.55,-0.44 0.09,-1.05 0.91,-1.43 1.73,-1.80 2.63,-1.90 3.52,-1.99 4.40,-1.79 5.28,-1.60 6.05,-1.13 6.82,-0.66 7.40,0.02 7.98,0.71 8.31,1.54 8.64,2.38 8.68,3.28 8.73,4.18 8.73,4.18 8.73,4.18 4.23,7.48 -0.26,10.78 -1.96,9.57 -3.65,8.35 -4.26,5.99 -4.87,3.63 -4.62,1.57 -4.37,-0.48 -3.02,-2.39 -1.67,-4.29 1.11,-4.80 3.91,-5.31 6.04,-4.53 8.17,-3.74 9.46,-2.03 10.74,-0.31 10.89,1.84 11.04,3.99 10.32,5.91 9.60,7.83 7.59,9.18 5.59,10.54 3.07,10.53 0.54,10.53 -1.42,9.58 -3.40,8.63 -4.09,6.43 -4.79,4.24 -4.28,2.21 -3.77,0.19 -3.51,-0.41 -3.25,-1.02 -3.00,-1.51 -2.74,-2.00 -2.38,-2.42 -2.02,-2.83 -1.56,-3.15 -1.11,-3.47 -0.60,-3.67 -0.08,-3.86 0.46,-3.93 1.00,-4.00 1.55,-3.94 2.10,-3.88 2.62,-3.68 3.14,-3.49 3.59,-3.18 4.05,-2.87 4.42,-2.46 4.78,-2.05 5.04,-1.56 5.30,-1.07 5.44,-0.54 5.57,-0.00 5.58,0.54 5.58,1.09 5.45,1.63 Z" fill="#ebbb38" stroke="#ebbb38" stroke-width="1.75" stroke-linejoin="round" stroke-linecap="round" pointer-events="none"/></g></g><g id="7f172891-320b-4a03-3759-de5754e4b3da_svg" class="tl-centered-g" transform="translate(79.57, 294.47) rotate(0.00, 2.94, 2.84)"><g opacity="1"><path d="M 5.32,2.16 Q 5.32,2.16 5.12,2.80 4.92,3.43 3.21,2.04 1.50,0.64 1.88,2.89 2.27,5.14 4.12,4.07 5.98,3.01 1.82,2.97 -2.32,2.93 -2.08,2.06 -1.83,1.20 -1.33,0.46 -0.82,-0.28 -0.10,-0.82 0.61,-1.36 1.47,-1.65 2.32,-1.93 3.22,-1.93 4.12,-1.92 4.97,-1.63 5.82,-1.34 6.54,-0.79 7.25,-0.25 7.76,0.49 8.26,1.24 8.50,2.11 8.73,2.97 8.68,3.87 8.63,4.77 8.29,5.61 7.96,6.44 7.37,7.13 6.78,7.81 6.01,8.27 5.24,8.73 4.36,8.92 3.48,9.11 2.58,9.01 1.69,8.91 0.87,8.53 0.06,8.15 -0.58,7.53 -1.24,6.90 -1.65,6.11 -2.07,5.31 -2.21,4.42 -2.36,3.53 -2.21,2.64 -2.06,1.76 -1.63,0.96 -1.21,0.17 -0.55,-0.44 0.09,-1.05 0.91,-1.43 1.73,-1.80 2.63,-1.90 3.52,-1.99 4.40,-1.79 5.28,-1.60 6.05,-1.13 6.82,-0.66 7.40,0.02 7.98,0.71 8.31,1.54 8.64,2.38 8.68,3.28 8.73,4.18 8.73,4.18 8.73,4.18 4.23,7.48 -0.26,10.78 -1.96,9.57 -3.65,8.35 -4.26,5.99 -4.87,3.63 -4.62,1.57 -4.37,-0.48 -3.02,-2.39 -1.67,-4.29 1.11,-4.80 3.91,-5.31 6.04,-4.53 8.17,-3.74 9.46,-2.03 10.74,-0.31 10.89,1.84 11.04,3.99 10.32,5.91 9.60,7.83 7.59,9.18 5.59,10.54 3.07,10.53 0.54,10.53 -1.42,9.58 -3.40,8.63 -4.09,6.43 -4.79,4.24 -4.28,2.21 -3.77,0.19 -3.51,-0.41 -3.25,-1.02 -3.00,-1.51 -2.74,-2.00 -2.38,-2.42 -2.02,-2.83 -1.56,-3.15 -1.11,-3.47 -0.60,-3.67 -0.08,-3.86 0.46,-3.93 1.00,-4.00 1.55,-3.94 2.10,-3.88 2.62,-3.68 3.14,-3.49 3.59,-3.18 4.05,-2.87 4.42,-2.46 4.78,-2.05 5.04,-1.56 5.30,-1.07 5.44,-0.54 5.57,-0.00 5.58,0.54 5.58,1.09 5.45,1.63 Z" fill="#36a64c" stroke="#36a64c" stroke-width="1.75" stroke-linejoin="round" stroke-linecap="round" pointer-events="none"/></g></g><g id="be5472eb-a46b-41f9-3334-7c710ef5189a_svg" class="tl-centered-g" transform="translate(79.27, 428.10) rotate(0.00, 2.94, 2.84)"><g opacity="1"><path d="M 5.32,2.16 Q 5.32,2.16 5.12,2.80 4.92,3.43 3.21,2.04 1.50,0.64 1.88,2.89 2.27,5.14 4.12,4.07 5.98,3.01 1.82,2.97 -2.32,2.93 -2.08,2.06 -1.83,1.20 -1.33,0.46 -0.82,-0.28 -0.10,-0.82 0.61,-1.36 1.47,-1.65 2.32,-1.93 3.22,-1.93 4.12,-1.92 4.97,-1.63 5.82,-1.34 6.54,-0.79 7.25,-0.25 7.76,0.49 8.26,1.24 8.50,2.11 8.73,2.97 8.68,3.87 8.63,4.77 8.29,5.61 7.96,6.44 7.37,7.13 6.78,7.81 6.01,8.27 5.24,8.73 4.36,8.92 3.48,9.11 2.58,9.01 1.69,8.91 0.87,8.53 0.06,8.15 -0.58,7.53 -1.24,6.90 -1.65,6.11 -2.07,5.31 -2.21,4.42 -2.36,3.53 -2.21,2.64 -2.06,1.76 -1.63,0.96 -1.21,0.17 -0.55,-0.44 0.09,-1.05 0.91,-1.43 1.73,-1.80 2.63,-1.90 3.52,-1.99 4.40,-1.79 5.28,-1.60 6.05,-1.13 6.82,-0.66 7.40,0.02 7.98,0.71 8.31,1.54 8.64,2.38 8.68,3.28 8.73,4.18 8.73,4.18 8.73,4.18 4.23,7.48 -0.26,10.78 -1.96,9.57 -3.65,8.35 -4.26,5.99 -4.87,3.63 -4.62,1.57 -4.37,-0.48 -3.02,-2.39 -1.67,-4.29 1.11,-4.80 3.91,-5.31 6.04,-4.53 8.17,-3.74 9.46,-2.03 10.74,-0.31 10.89,1.84 11.04,3.99 10.32,5.91 9.60,7.83 7.59,9.18 5.59,10.54 3.07,10.53 0.54,10.53 -1.42,9.58 -3.40,8.63 -4.09,6.43 -4.79,4.24 -4.28,2.21 -3.77,0.19 -3.51,-0.41 -3.25,-1.02 -3.00,-1.51 -2.74,-2.00 -2.38,-2.42 -2.02,-2.83 -1.56,-3.15 -1.11,-3.47 -0.60,-3.67 -0.08,-3.86 0.46,-3.93 1.00,-4.00 1.55,-3.94 2.10,-3.88 2.62,-3.68 3.14,-3.49 3.59,-3.18 4.05,-2.87 4.42,-2.46 4.78,-2.05 5.04,-1.56 5.30,-1.07 5.44,-0.54 5.57,-0.00 5.58,0.54 5.58,1.09 5.45,1.63 Z" fill="#36a64c" stroke="#36a64c" stroke-width="1.75" stroke-linejoin="round" stroke-linecap="round" pointer-events="none"/></g></g><g id="96a77ee3-730c-45ab-176e-6d3310c5fe64_svg" class="tl-centered-g" transform="translate(822.72, 441.78) rotate(0.00, 4.54, 4.90)"><g opacity="1"><path d="M 2.62,4.61 Q 2.62,4.61 2.07,4.64 1.51,4.67 3.18,3.15 4.85,1.62 6.39,3.08 7.93,4.54 5.98,5.78 4.03,7.01 5.70,5.64 7.37,4.27 6.96,5.07 6.56,5.86 5.92,6.49 5.28,7.11 4.48,7.50 3.67,7.89 2.79,8.00 1.90,8.11 1.03,7.93 0.15,7.75 -0.61,7.31 -1.38,6.86 -1.97,6.19 -2.56,5.52 -2.90,4.69 -3.24,3.87 -3.31,2.98 -3.37,2.09 -3.14,1.22 -2.92,0.36 -2.43,-0.38 -1.94,-1.12 -1.24,-1.67 -0.54,-2.22 0.29,-2.52 1.13,-2.82 2.03,-2.84 2.92,-2.85 3.77,-2.58 4.62,-2.31 5.34,-1.78 6.06,-1.25 6.57,-0.52 7.08,0.20 7.33,1.06 7.59,1.91 7.55,2.81 7.52,3.70 7.20,4.53 6.88,5.37 6.32,6.06 5.75,6.74 4.99,7.22 4.24,7.69 3.37,7.89 2.50,8.10 1.61,8.02 0.72,7.94 -0.08,7.57 -0.90,7.21 -1.56,6.61 -2.22,6.00 -2.65,5.22 -3.08,4.44 -3.23,3.56 -3.39,2.68 -3.26,1.80 -3.13,0.92 -3.13,0.92 -3.13,0.92 1.51,-1.86 6.16,-4.64 8.46,-3.74 10.76,-2.83 12.08,-1.20 13.40,0.42 13.92,2.75 14.44,5.09 14.33,7.21 14.21,9.32 13.09,11.42 11.97,13.53 9.09,14.16 6.21,14.79 3.76,13.89 1.30,12.99 -0.64,11.38 -2.58,9.77 -3.59,7.83 -4.60,5.89 -4.65,3.16 -4.70,0.43 -3.76,-1.41 -2.83,-3.27 -0.65,-3.97 1.51,-4.67 2.07,-4.64 2.62,-4.61 3.18,-4.55 3.73,-4.48 4.25,-4.28 4.77,-4.09 5.23,-3.77 5.69,-3.45 6.06,-3.04 6.43,-2.62 6.69,-2.13 6.94,-1.63 7.08,-1.09 7.21,-0.55 7.21,0.00 7.21,0.55 7.08,1.09 6.94,1.63 6.69,2.13 6.43,2.62 6.06,3.04 5.69,3.45 5.23,3.77 4.77,4.09 4.25,4.28 3.73,4.48 3.18,4.55 Z" fill="#36a64c" stroke="#36a64c" stroke-width="1.75" stroke-linejoin="round" stroke-linecap="round" pointer-events="none"/></g></g><g text-align="left" text-anchor="start" fill="#36a64c" transform="translate(805.76, 303.11) rotate(0.00, 177.50, 29.00)"><text y="24" letter-spacing="-1.44" font-size="48px" font-family="Caveat Brush" text-align="left" alignment-baseline="central" transform="translate(0, 0)">All Hybrids (Probably)</text></g><g text-align="left" text-anchor="start" fill="#36a64c" transform="translate(71.71, 115.21) rotate(0.00, 116.00, 29.00)"><text y="24" letter-spacing="-1.44" font-size="48px" font-family="Caveat Brush" text-align="left" alignment-baseline="central" transform="translate(0, 0)">Remix Specific</text></g><g text-align="left" text-anchor="start" fill="#cecece" transform="translate(105.14, 501.58) rotate(0.00, 158.50, 19.50)"><text y="24" letter-spacing="-1.44" font-size="48px" font-family="Caveat Brush" text-align="left" alignment-baseline="central" transform="scale(0.5979007420386788)">All based on standard "fetch" api</text></g><g id="17ac7580-b1f4-4a28-394a-f0e9c541ceb9_svg" class="tl-centered-g" transform="translate(82.07, 515.83) rotate(0.00, 2.94, 2.84)"><g opacity="1"><path d="M 5.32,2.16 Q 5.32,2.16 5.12,2.80 4.92,3.43 3.21,2.04 1.50,0.64 1.88,2.89 2.27,5.14 4.12,4.07 5.98,3.01 1.82,2.97 -2.32,2.93 -2.08,2.06 -1.83,1.20 -1.33,0.46 -0.82,-0.28 -0.10,-0.82 0.61,-1.36 1.47,-1.65 2.32,-1.93 3.22,-1.93 4.12,-1.92 4.97,-1.63 5.82,-1.34 6.54,-0.79 7.25,-0.25 7.76,0.49 8.26,1.24 8.50,2.11 8.73,2.97 8.68,3.87 8.63,4.77 8.29,5.61 7.96,6.44 7.37,7.13 6.78,7.81 6.01,8.27 5.24,8.73 4.36,8.92 3.48,9.11 2.58,9.01 1.69,8.91 0.87,8.53 0.06,8.15 -0.58,7.53 -1.24,6.90 -1.65,6.11 -2.07,5.31 -2.21,4.42 -2.36,3.53 -2.21,2.64 -2.06,1.76 -1.63,0.96 -1.21,0.17 -0.55,-0.44 0.09,-1.05 0.91,-1.43 1.73,-1.80 2.63,-1.90 3.52,-1.99 4.40,-1.79 5.28,-1.60 6.05,-1.13 6.82,-0.66 7.40,0.02 7.98,0.71 8.31,1.54 8.64,2.38 8.68,3.28 8.73,4.18 8.73,4.18 8.73,4.18 4.23,7.48 -0.26,10.78 -1.96,9.57 -3.65,8.35 -4.26,5.99 -4.87,3.63 -4.62,1.57 -4.37,-0.48 -3.02,-2.39 -1.67,-4.29 1.11,-4.80 3.91,-5.31 6.04,-4.53 8.17,-3.74 9.46,-2.03 10.74,-0.31 10.89,1.84 11.04,3.99 10.32,5.91 9.60,7.83 7.59,9.18 5.59,10.54 3.07,10.53 0.54,10.53 -1.42,9.58 -3.40,8.63 -4.09,6.43 -4.79,4.24 -4.28,2.21 -3.77,0.19 -3.51,-0.41 -3.25,-1.02 -3.00,-1.51 -2.74,-2.00 -2.38,-2.42 -2.02,-2.83 -1.56,-3.15 -1.11,-3.47 -0.60,-3.67 -0.08,-3.86 0.46,-3.93 1.00,-4.00 1.55,-3.94 2.10,-3.88 2.62,-3.68 3.14,-3.49 3.59,-3.18 4.05,-2.87 4.42,-2.46 4.78,-2.05 5.04,-1.56 5.30,-1.07 5.44,-0.54 5.57,-0.00 5.58,0.54 5.58,1.09 5.45,1.63 Z" fill="#36a64c" stroke="#36a64c" stroke-width="1.75" stroke-linejoin="round" stroke-linecap="round" pointer-events="none"/></g></g><g text-align="left" text-anchor="start" fill="#cecece" transform="translate(102.74, 324.91) rotate(0.00, 177.50, 19.50)"><text y="24" letter-spacing="-1.44" font-size="48px" font-family="Caveat Brush" text-align="left" alignment-baseline="central" transform="scale(0.5979007420386788)">Uses manifests instead of big bundles</text></g><g id="90073da0-5753-45c1-1c02-6544095b6e5e_svg" class="tl-centered-g" transform="translate(79.57, 338.72) rotate(0.00, 2.94, 2.84)"><g opacity="1"><path d="M 5.32,2.16 Q 5.32,2.16 5.12,2.80 4.92,3.43 3.21,2.04 1.50,0.64 1.88,2.89 2.27,5.14 4.12,4.07 5.98,3.01 1.82,2.97 -2.32,2.93 -2.08,2.06 -1.83,1.20 -1.33,0.46 -0.82,-0.28 -0.10,-0.82 0.61,-1.36 1.47,-1.65 2.32,-1.93 3.22,-1.93 4.12,-1.92 4.97,-1.63 5.82,-1.34 6.54,-0.79 7.25,-0.25 7.76,0.49 8.26,1.24 8.50,2.11 8.73,2.97 8.68,3.87 8.63,4.77 8.29,5.61 7.96,6.44 7.37,7.13 6.78,7.81 6.01,8.27 5.24,8.73 4.36,8.92 3.48,9.11 2.58,9.01 1.69,8.91 0.87,8.53 0.06,8.15 -0.58,7.53 -1.24,6.90 -1.65,6.11 -2.07,5.31 -2.21,4.42 -2.36,3.53 -2.21,2.64 -2.06,1.76 -1.63,0.96 -1.21,0.17 -0.55,-0.44 0.09,-1.05 0.91,-1.43 1.73,-1.80 2.63,-1.90 3.52,-1.99 4.40,-1.79 5.28,-1.60 6.05,-1.13 6.82,-0.66 7.40,0.02 7.98,0.71 8.31,1.54 8.64,2.38 8.68,3.28 8.73,4.18 8.73,4.18 8.73,4.18 4.23,7.48 -0.26,10.78 -1.96,9.57 -3.65,8.35 -4.26,5.99 -4.87,3.63 -4.62,1.57 -4.37,-0.48 -3.02,-2.39 -1.67,-4.29 1.11,-4.80 3.91,-5.31 6.04,-4.53 8.17,-3.74 9.46,-2.03 10.74,-0.31 10.89,1.84 11.04,3.99 10.32,5.91 9.60,7.83 7.59,9.18 5.59,10.54 3.07,10.53 0.54,10.53 -1.42,9.58 -3.40,8.63 -4.09,6.43 -4.79,4.24 -4.28,2.21 -3.77,0.19 -3.51,-0.41 -3.25,-1.02 -3.00,-1.51 -2.74,-2.00 -2.38,-2.42 -2.02,-2.83 -1.56,-3.15 -1.11,-3.47 -0.60,-3.67 -0.08,-3.86 0.46,-3.93 1.00,-4.00 1.55,-3.94 2.10,-3.88 2.62,-3.68 3.14,-3.49 3.59,-3.18 4.05,-2.87 4.42,-2.46 4.78,-2.05 5.04,-1.56 5.30,-1.07 5.44,-0.54 5.57,-0.00 5.58,0.54 5.58,1.09 5.45,1.63 Z" fill="#36a64c" stroke="#36a64c" stroke-width="1.75" stroke-linejoin="round" stroke-linecap="round" pointer-events="none"/></g></g><g text-align="left" text-anchor="start" fill="#cecece" transform="translate(103.75, 365.84) rotate(0.00, 122.50, 19.50)"><text y="24" letter-spacing="-1.44" font-size="48px" font-family="Caveat Brush" text-align="left" alignment-baseline="central" transform="scale(0.5979007420386788)">Code-splitting by default</text></g><g id="80b29963-b859-4072-350c-eeefae5aa96c_svg" class="tl-centered-g" transform="translate(80.59, 379.65) rotate(0.00, 2.94, 2.84)"><g opacity="1"><path d="M 5.32,2.16 Q 5.32,2.16 5.12,2.80 4.92,3.43 3.21,2.04 1.50,0.64 1.88,2.89 2.27,5.14 4.12,4.07 5.98,3.01 1.82,2.97 -2.32,2.93 -2.08,2.06 -1.83,1.20 -1.33,0.46 -0.82,-0.28 -0.10,-0.82 0.61,-1.36 1.47,-1.65 2.32,-1.93 3.22,-1.93 4.12,-1.92 4.97,-1.63 5.82,-1.34 6.54,-0.79 7.25,-0.25 7.76,0.49 8.26,1.24 8.50,2.11 8.73,2.97 8.68,3.87 8.63,4.77 8.29,5.61 7.96,6.44 7.37,7.13 6.78,7.81 6.01,8.27 5.24,8.73 4.36,8.92 3.48,9.11 2.58,9.01 1.69,8.91 0.87,8.53 0.06,8.15 -0.58,7.53 -1.24,6.90 -1.65,6.11 -2.07,5.31 -2.21,4.42 -2.36,3.53 -2.21,2.64 -2.06,1.76 -1.63,0.96 -1.21,0.17 -0.55,-0.44 0.09,-1.05 0.91,-1.43 1.73,-1.80 2.63,-1.90 3.52,-1.99 4.40,-1.79 5.28,-1.60 6.05,-1.13 6.82,-0.66 7.40,0.02 7.98,0.71 8.31,1.54 8.64,2.38 8.68,3.28 8.73,4.18 8.73,4.18 8.73,4.18 4.23,7.48 -0.26,10.78 -1.96,9.57 -3.65,8.35 -4.26,5.99 -4.87,3.63 -4.62,1.57 -4.37,-0.48 -3.02,-2.39 -1.67,-4.29 1.11,-4.80 3.91,-5.31 6.04,-4.53 8.17,-3.74 9.46,-2.03 10.74,-0.31 10.89,1.84 11.04,3.99 10.32,5.91 9.60,7.83 7.59,9.18 5.59,10.54 3.07,10.53 0.54,10.53 -1.42,9.58 -3.40,8.63 -4.09,6.43 -4.79,4.24 -4.28,2.21 -3.77,0.19 -3.51,-0.41 -3.25,-1.02 -3.00,-1.51 -2.74,-2.00 -2.38,-2.42 -2.02,-2.83 -1.56,-3.15 -1.11,-3.47 -0.60,-3.67 -0.08,-3.86 0.46,-3.93 1.00,-4.00 1.55,-3.94 2.10,-3.88 2.62,-3.68 3.14,-3.49 3.59,-3.18 4.05,-2.87 4.42,-2.46 4.78,-2.05 5.04,-1.56 5.30,-1.07 5.44,-0.54 5.57,-0.00 5.58,0.54 5.58,1.09 5.45,1.63 Z" fill="#36a64c" stroke="#36a64c" stroke-width="1.75" stroke-linejoin="round" stroke-linecap="round" pointer-events="none"/></g></g><g id="d41e4eed-6d68-45cf-2044-76dc4bbab629_svg" class="tl-centered-g" transform="translate(353.76, 354.25) rotate(0.00, 10.50, 17.96)"><defs><mask id="d41e4eed-6d68-45cf-2044-76dc4bbab629_clip"><rect x="-100" y="-100" width="221.00" height="235.92" fill="white"/><rect x="17.89" y="22.40" width="0" height="0" rx="2" ry="2" fill="black" opacity="1"/></mask></defs><g pointer-events="none" opacity="1" mask=""><path d="M -2.5359930986905317 36.34 A 26.60 26.60 0 0 0 18.01 -2.338872632970435" fill="none" stroke="#36a64c" stroke-width="4.23" stroke-dasharray="none" stroke-dashoffset="none" stroke-linecap="round" stroke-linejoin="round" pointer-events="none"/><g><path d="M 14.89,11.924496295047295 L 18.01,-2.338872632970435 28.80,7.496526542836776" fill="none" stroke="#36a64c" stroke-width="4.23" stroke-linecap="round" stroke-linejoin="round" pointer-events="none"/></g></g></g><g text-align="left" text-anchor="start" fill="#cecece" transform="translate(103.93, 545.33) rotate(0.00, 171.00, 19.50)"><text y="24" letter-spacing="-1.44" font-size="48px" font-family="Caveat Brush" text-align="left" alignment-baseline="central" transform="scale(0.5979007420386788)">Probably won't need useEffect much</text></g><g id="fcade47d-022b-45f6-22da-f87c0c59f224_svg" class="tl-centered-g" transform="translate(80.86, 559.58) rotate(0.00, 2.94, 2.84)"><g opacity="1"><path d="M 5.32,2.16 Q 5.32,2.16 5.12,2.80 4.92,3.43 3.21,2.04 1.50,0.64 1.88,2.89 2.27,5.14 4.12,4.07 5.98,3.01 1.82,2.97 -2.32,2.93 -2.08,2.06 -1.83,1.20 -1.33,0.46 -0.82,-0.28 -0.10,-0.82 0.61,-1.36 1.47,-1.65 2.32,-1.93 3.22,-1.93 4.12,-1.92 4.97,-1.63 5.82,-1.34 6.54,-0.79 7.25,-0.25 7.76,0.49 8.26,1.24 8.50,2.11 8.73,2.97 8.68,3.87 8.63,4.77 8.29,5.61 7.96,6.44 7.37,7.13 6.78,7.81 6.01,8.27 5.24,8.73 4.36,8.92 3.48,9.11 2.58,9.01 1.69,8.91 0.87,8.53 0.06,8.15 -0.58,7.53 -1.24,6.90 -1.65,6.11 -2.07,5.31 -2.21,4.42 -2.36,3.53 -2.21,2.64 -2.06,1.76 -1.63,0.96 -1.21,0.17 -0.55,-0.44 0.09,-1.05 0.91,-1.43 1.73,-1.80 2.63,-1.90 3.52,-1.99 4.40,-1.79 5.28,-1.60 6.05,-1.13 6.82,-0.66 7.40,0.02 7.98,0.71 8.31,1.54 8.64,2.38 8.68,3.28 8.73,4.18 8.73,4.18 8.73,4.18 4.23,7.48 -0.26,10.78 -1.96,9.57 -3.65,8.35 -4.26,5.99 -4.87,3.63 -4.62,1.57 -4.37,-0.48 -3.02,-2.39 -1.67,-4.29 1.11,-4.80 3.91,-5.31 6.04,-4.53 8.17,-3.74 9.46,-2.03 10.74,-0.31 10.89,1.84 11.04,3.99 10.32,5.91 9.60,7.83 7.59,9.18 5.59,10.54 3.07,10.53 0.54,10.53 -1.42,9.58 -3.40,8.63 -4.09,6.43 -4.79,4.24 -4.28,2.21 -3.77,0.19 -3.51,-0.41 -3.25,-1.02 -3.00,-1.51 -2.74,-2.00 -2.38,-2.42 -2.02,-2.83 -1.56,-3.15 -1.11,-3.47 -0.60,-3.67 -0.08,-3.86 0.46,-3.93 1.00,-4.00 1.55,-3.94 2.10,-3.88 2.62,-3.68 3.14,-3.49 3.59,-3.18 4.05,-2.87 4.42,-2.46 4.78,-2.05 5.04,-1.56 5.30,-1.07 5.44,-0.54 5.57,-0.00 5.58,0.54 5.58,1.09 5.45,1.63 Z" fill="#36a64c" stroke="#36a64c" stroke-width="1.75" stroke-linejoin="round" stroke-linecap="round" pointer-events="none"/></g></g><g text-align="left" text-anchor="start" fill="#cecece" transform="translate(102.72, 590.74) rotate(0.00, 277.00, 19.50)"><text y="24" letter-spacing="-1.44" font-size="48px" font-family="Caveat Brush" text-align="left" alignment-baseline="central" transform="scale(0.5979007420386788)">Don't need as much global context or fancy state managers</text></g><g id="ad03aa6f-0f16-4d71-03a4-77a2e8e3fb7a_svg" class="tl-centered-g" transform="translate(79.65, 604.99) rotate(0.00, 2.94, 2.84)"><g opacity="1"><path d="M 5.32,2.16 Q 5.32,2.16 5.12,2.80 4.92,3.43 3.21,2.04 1.50,0.64 1.88,2.89 2.27,5.14 4.12,4.07 5.98,3.01 1.82,2.97 -2.32,2.93 -2.08,2.06 -1.83,1.20 -1.33,0.46 -0.82,-0.28 -0.10,-0.82 0.61,-1.36 1.47,-1.65 2.32,-1.93 3.22,-1.93 4.12,-1.92 4.97,-1.63 5.82,-1.34 6.54,-0.79 7.25,-0.25 7.76,0.49 8.26,1.24 8.50,2.11 8.73,2.97 8.68,3.87 8.63,4.77 8.29,5.61 7.96,6.44 7.37,7.13 6.78,7.81 6.01,8.27 5.24,8.73 4.36,8.92 3.48,9.11 2.58,9.01 1.69,8.91 0.87,8.53 0.06,8.15 -0.58,7.53 -1.24,6.90 -1.65,6.11 -2.07,5.31 -2.21,4.42 -2.36,3.53 -2.21,2.64 -2.06,1.76 -1.63,0.96 -1.21,0.17 -0.55,-0.44 0.09,-1.05 0.91,-1.43 1.73,-1.80 2.63,-1.90 3.52,-1.99 4.40,-1.79 5.28,-1.60 6.05,-1.13 6.82,-0.66 7.40,0.02 7.98,0.71 8.31,1.54 8.64,2.38 8.68,3.28 8.73,4.18 8.73,4.18 8.73,4.18 4.23,7.48 -0.26,10.78 -1.96,9.57 -3.65,8.35 -4.26,5.99 -4.87,3.63 -4.62,1.57 -4.37,-0.48 -3.02,-2.39 -1.67,-4.29 1.11,-4.80 3.91,-5.31 6.04,-4.53 8.17,-3.74 9.46,-2.03 10.74,-0.31 10.89,1.84 11.04,3.99 10.32,5.91 9.60,7.83 7.59,9.18 5.59,10.54 3.07,10.53 0.54,10.53 -1.42,9.58 -3.40,8.63 -4.09,6.43 -4.79,4.24 -4.28,2.21 -3.77,0.19 -3.51,-0.41 -3.25,-1.02 -3.00,-1.51 -2.74,-2.00 -2.38,-2.42 -2.02,-2.83 -1.56,-3.15 -1.11,-3.47 -0.60,-3.67 -0.08,-3.86 0.46,-3.93 1.00,-4.00 1.55,-3.94 2.10,-3.88 2.62,-3.68 3.14,-3.49 3.59,-3.18 4.05,-2.87 4.42,-2.46 4.78,-2.05 5.04,-1.56 5.30,-1.07 5.44,-0.54 5.57,-0.00 5.58,0.54 5.58,1.09 5.45,1.63 Z" fill="#36a64c" stroke="#36a64c" stroke-width="1.75" stroke-linejoin="round" stroke-linecap="round" pointer-events="none"/></g></g><g text-align="left" text-anchor="start" fill="#cecece" transform="translate(105.66, 232.14) rotate(0.00, 142.00, 19.50)"><text y="24" letter-spacing="-1.44" font-size="48px" font-family="Caveat Brush" text-align="left" alignment-baseline="central" transform="scale(0.5979007420386788)">First-class nested layouts 😍</text></g><g id="1901fa65-5ccf-4bfb-1657-891a64b76781_svg" class="tl-centered-g" transform="translate(78.34, 247.14) rotate(0.00, 2.94, 2.84)"><g opacity="1"><path d="M 5.32,2.16 Q 5.32,2.16 5.12,2.80 4.92,3.43 3.21,2.04 1.50,0.64 1.88,2.89 2.27,5.14 4.12,4.07 5.98,3.01 1.82,2.97 -2.32,2.93 -2.08,2.06 -1.83,1.20 -1.33,0.46 -0.82,-0.28 -0.10,-0.82 0.61,-1.36 1.47,-1.65 2.32,-1.93 3.22,-1.93 4.12,-1.92 4.97,-1.63 5.82,-1.34 6.54,-0.79 7.25,-0.25 7.76,0.49 8.26,1.24 8.50,2.11 8.73,2.97 8.68,3.87 8.63,4.77 8.29,5.61 7.96,6.44 7.37,7.13 6.78,7.81 6.01,8.27 5.24,8.73 4.36,8.92 3.48,9.11 2.58,9.01 1.69,8.91 0.87,8.53 0.06,8.15 -0.58,7.53 -1.24,6.90 -1.65,6.11 -2.07,5.31 -2.21,4.42 -2.36,3.53 -2.21,2.64 -2.06,1.76 -1.63,0.96 -1.21,0.17 -0.55,-0.44 0.09,-1.05 0.91,-1.43 1.73,-1.80 2.63,-1.90 3.52,-1.99 4.40,-1.79 5.28,-1.60 6.05,-1.13 6.82,-0.66 7.40,0.02 7.98,0.71 8.31,1.54 8.64,2.38 8.68,3.28 8.73,4.18 8.73,4.18 8.73,4.18 4.23,7.48 -0.26,10.78 -1.96,9.57 -3.65,8.35 -4.26,5.99 -4.87,3.63 -4.62,1.57 -4.37,-0.48 -3.02,-2.39 -1.67,-4.29 1.11,-4.80 3.91,-5.31 6.04,-4.53 8.17,-3.74 9.46,-2.03 10.74,-0.31 10.89,1.84 11.04,3.99 10.32,5.91 9.60,7.83 7.59,9.18 5.59,10.54 3.07,10.53 0.54,10.53 -1.42,9.58 -3.40,8.63 -4.09,6.43 -4.79,4.24 -4.28,2.21 -3.77,0.19 -3.51,-0.41 -3.25,-1.02 -3.00,-1.51 -2.74,-2.00 -2.38,-2.42 -2.02,-2.83 -1.56,-3.15 -1.11,-3.47 -0.60,-3.67 -0.08,-3.86 0.46,-3.93 1.00,-4.00 1.55,-3.94 2.10,-3.88 2.62,-3.68 3.14,-3.49 3.59,-3.18 4.05,-2.87 4.42,-2.46 4.78,-2.05 5.04,-1.56 5.30,-1.07 5.44,-0.54 5.57,-0.00 5.58,0.54 5.58,1.09 5.45,1.63 Z" fill="#36a64c" stroke="#36a64c" stroke-width="1.75" stroke-linejoin="round" stroke-linecap="round" pointer-events="none"/></g></g><g text-align="left" text-anchor="start" fill="#cecece" transform="translate(102.03, 184.42) rotate(0.00, 289.00, 21.00)"><text y="24" letter-spacing="-1.44" font-size="48px" font-family="Caveat Brush" text-align="left" alignment-baseline="central" transform="scale(0.6641164656802562)">Host Remix anywhere that runs JS (Cloudflare v8 Edge)</text></g><g id="3b12e638-0202-4d51-2899-281e90b4d88b_svg" class="tl-centered-g" transform="translate(78.44, 201.36) rotate(0.00, 2.94, 2.84)"><g opacity="1"><path d="M 5.32,2.16 Q 5.32,2.16 5.12,2.80 4.92,3.43 3.21,2.04 1.50,0.64 1.88,2.89 2.27,5.14 4.12,4.07 5.98,3.01 1.82,2.97 -2.32,2.93 -2.08,2.06 -1.83,1.20 -1.33,0.46 -0.82,-0.28 -0.10,-0.82 0.61,-1.36 1.47,-1.65 2.32,-1.93 3.22,-1.93 4.12,-1.92 4.97,-1.63 5.82,-1.34 6.54,-0.79 7.25,-0.25 7.76,0.49 8.26,1.24 8.50,2.11 8.73,2.97 8.68,3.87 8.63,4.77 8.29,5.61 7.96,6.44 7.37,7.13 6.78,7.81 6.01,8.27 5.24,8.73 4.36,8.92 3.48,9.11 2.58,9.01 1.69,8.91 0.87,8.53 0.06,8.15 -0.58,7.53 -1.24,6.90 -1.65,6.11 -2.07,5.31 -2.21,4.42 -2.36,3.53 -2.21,2.64 -2.06,1.76 -1.63,0.96 -1.21,0.17 -0.55,-0.44 0.09,-1.05 0.91,-1.43 1.73,-1.80 2.63,-1.90 3.52,-1.99 4.40,-1.79 5.28,-1.60 6.05,-1.13 6.82,-0.66 7.40,0.02 7.98,0.71 8.31,1.54 8.64,2.38 8.68,3.28 8.73,4.18 8.73,4.18 8.73,4.18 4.23,7.48 -0.26,10.78 -1.96,9.57 -3.65,8.35 -4.26,5.99 -4.87,3.63 -4.62,1.57 -4.37,-0.48 -3.02,-2.39 -1.67,-4.29 1.11,-4.80 3.91,-5.31 6.04,-4.53 8.17,-3.74 9.46,-2.03 10.74,-0.31 10.89,1.84 11.04,3.99 10.32,5.91 9.60,7.83 7.59,9.18 5.59,10.54 3.07,10.53 0.54,10.53 -1.42,9.58 -3.40,8.63 -4.09,6.43 -4.79,4.24 -4.28,2.21 -3.77,0.19 -3.51,-0.41 -3.25,-1.02 -3.00,-1.51 -2.74,-2.00 -2.38,-2.42 -2.02,-2.83 -1.56,-3.15 -1.11,-3.47 -0.60,-3.67 -0.08,-3.86 0.46,-3.93 1.00,-4.00 1.55,-3.94 2.10,-3.88 2.62,-3.68 3.14,-3.49 3.59,-3.18 4.05,-2.87 4.42,-2.46 4.78,-2.05 5.04,-1.56 5.30,-1.07 5.44,-0.54 5.57,-0.00 5.58,0.54 5.58,1.09 5.45,1.63 Z" fill="#36a64c" stroke="#36a64c" stroke-width="1.75" stroke-linejoin="round" stroke-linecap="round" pointer-events="none"/></g></g><g text-align="left" text-anchor="start" fill="#cecece" transform="translate(828.82, 149.77) rotate(0.00, 224.00, 19.50)"><text y="24" letter-spacing="-1.44" font-size="48px" font-family="Caveat Brush" text-align="left" alignment-baseline="central" transform="scale(0.5979007420386788)">Remix exposes the "root " of your project to you</text></g><g id="bd7c7aa5-15cc-4250-2d15-d42c7f7e4d1e_svg" class="tl-centered-g" transform="translate(805.66, 163.58) rotate(0.00, 2.94, 2.84)"><g opacity="1"><path d="M 5.32,2.16 Q 5.32,2.16 5.12,2.80 4.92,3.43 3.21,2.04 1.50,0.64 1.88,2.89 2.27,5.14 4.12,4.07 5.98,3.01 1.82,2.97 -2.32,2.93 -2.08,2.06 -1.83,1.20 -1.33,0.46 -0.82,-0.28 -0.10,-0.82 0.61,-1.36 1.47,-1.65 2.32,-1.93 3.22,-1.93 4.12,-1.92 4.97,-1.63 5.82,-1.34 6.54,-0.79 7.25,-0.25 7.76,0.49 8.26,1.24 8.50,2.11 8.73,2.97 8.68,3.87 8.63,4.77 8.29,5.61 7.96,6.44 7.37,7.13 6.78,7.81 6.01,8.27 5.24,8.73 4.36,8.92 3.48,9.11 2.58,9.01 1.69,8.91 0.87,8.53 0.06,8.15 -0.58,7.53 -1.24,6.90 -1.65,6.11 -2.07,5.31 -2.21,4.42 -2.36,3.53 -2.21,2.64 -2.06,1.76 -1.63,0.96 -1.21,0.17 -0.55,-0.44 0.09,-1.05 0.91,-1.43 1.73,-1.80 2.63,-1.90 3.52,-1.99 4.40,-1.79 5.28,-1.60 6.05,-1.13 6.82,-0.66 7.40,0.02 7.98,0.71 8.31,1.54 8.64,2.38 8.68,3.28 8.73,4.18 8.73,4.18 8.73,4.18 4.23,7.48 -0.26,10.78 -1.96,9.57 -3.65,8.35 -4.26,5.99 -4.87,3.63 -4.62,1.57 -4.37,-0.48 -3.02,-2.39 -1.67,-4.29 1.11,-4.80 3.91,-5.31 6.04,-4.53 8.17,-3.74 9.46,-2.03 10.74,-0.31 10.89,1.84 11.04,3.99 10.32,5.91 9.60,7.83 7.59,9.18 5.59,10.54 3.07,10.53 0.54,10.53 -1.42,9.58 -3.40,8.63 -4.09,6.43 -4.79,4.24 -4.28,2.21 -3.77,0.19 -3.51,-0.41 -3.25,-1.02 -3.00,-1.51 -2.74,-2.00 -2.38,-2.42 -2.02,-2.83 -1.56,-3.15 -1.11,-3.47 -0.60,-3.67 -0.08,-3.86 0.46,-3.93 1.00,-4.00 1.55,-3.94 2.10,-3.88 2.62,-3.68 3.14,-3.49 3.59,-3.18 4.05,-2.87 4.42,-2.46 4.78,-2.05 5.04,-1.56 5.30,-1.07 5.44,-0.54 5.57,-0.00 5.58,0.54 5.58,1.09 5.45,1.63 Z" fill="#36a64c" stroke="#36a64c" stroke-width="1.75" stroke-linejoin="round" stroke-linecap="round" pointer-events="none"/></g></g><g text-align="left" text-anchor="start" fill="#36a64c" transform="translate(1284.93, 156.36) rotate(0.00, 51.50, 53.00)"><text y="14" letter-spacing="-0.84" font-size="28px" font-family="Caveat Brush" text-align="left" alignment-baseline="central" transform="scale(3.4310076550538993)">🦾</text></g><g id="bb51e4bf-7ca6-40fd-0d96-2f3bc0f1fbb8_svg" class="tl-centered-g" transform="translate(822.48, 493.70) rotate(0.00, 4.54, 4.90)"><g opacity="1"><path d="M 2.62,4.61 Q 2.62,4.61 2.07,4.64 1.51,4.67 3.18,3.15 4.85,1.62 6.39,3.08 7.93,4.54 5.98,5.78 4.03,7.01 5.70,5.64 7.37,4.27 6.96,5.07 6.56,5.86 5.92,6.49 5.28,7.11 4.48,7.50 3.67,7.89 2.79,8.00 1.90,8.11 1.03,7.93 0.15,7.75 -0.61,7.31 -1.38,6.86 -1.97,6.19 -2.56,5.52 -2.90,4.69 -3.24,3.87 -3.31,2.98 -3.37,2.09 -3.14,1.22 -2.92,0.36 -2.43,-0.38 -1.94,-1.12 -1.24,-1.67 -0.54,-2.22 0.29,-2.52 1.13,-2.82 2.03,-2.84 2.92,-2.85 3.77,-2.58 4.62,-2.31 5.34,-1.78 6.06,-1.25 6.57,-0.52 7.08,0.20 7.33,1.06 7.59,1.91 7.55,2.81 7.52,3.70 7.20,4.53 6.88,5.37 6.32,6.06 5.75,6.74 4.99,7.22 4.24,7.69 3.37,7.89 2.50,8.10 1.61,8.02 0.72,7.94 -0.08,7.57 -0.90,7.21 -1.56,6.61 -2.22,6.00 -2.65,5.22 -3.08,4.44 -3.23,3.56 -3.39,2.68 -3.26,1.80 -3.13,0.92 -3.13,0.92 -3.13,0.92 1.51,-1.86 6.16,-4.64 8.46,-3.74 10.76,-2.83 12.08,-1.20 13.40,0.42 13.92,2.75 14.44,5.09 14.33,7.21 14.21,9.32 13.09,11.42 11.97,13.53 9.09,14.16 6.21,14.79 3.76,13.89 1.30,12.99 -0.64,11.38 -2.58,9.77 -3.59,7.83 -4.60,5.89 -4.65,3.16 -4.70,0.43 -3.76,-1.41 -2.83,-3.27 -0.65,-3.97 1.51,-4.67 2.07,-4.64 2.62,-4.61 3.18,-4.55 3.73,-4.48 4.25,-4.28 4.77,-4.09 5.23,-3.77 5.69,-3.45 6.06,-3.04 6.43,-2.62 6.69,-2.13 6.94,-1.63 7.08,-1.09 7.21,-0.55 7.21,0.00 7.21,0.55 7.08,1.09 6.94,1.63 6.69,2.13 6.43,2.62 6.06,3.04 5.69,3.45 5.23,3.77 4.77,4.09 4.25,4.28 3.73,4.48 3.18,4.55 Z" fill="#36a64c" stroke="#36a64c" stroke-width="1.75" stroke-linejoin="round" stroke-linecap="round" pointer-events="none"/></g></g><g text-align="left" text-anchor="start" fill="#cecece" transform="translate(828.82, 183.69) rotate(0.00, 214.50, 19.50)"><text y="24" letter-spacing="-1.44" font-size="48px" font-family="Caveat Brush" text-align="left" alignment-baseline="central" transform="scale(0.5979007420386788)">then has "adapters" for things like express or</text></g><g text-align="left" text-anchor="start" fill="#cecece" transform="translate(828.82, 218.61) rotate(0.00, 217.50, 19.50)"><text y="24" letter-spacing="-1.44" font-size="48px" font-family="Caveat Brush" text-align="left" alignment-baseline="central" transform="scale(0.5979007420386788)">Vercel. Helps it avoid a clunky "plugin" system</text></g></svg>