<svg xmlns="http://www.w3.org/2000/svg" viewBox="0 0 1504 688" width="1472" height="656" style="background-color: transparent;"><defs><style>@import url('https://fonts.googleapis.com/css2?family=Caveat+Brush&amp;family=Source+Code+Pro&amp;family=Source+Sans+Pro&amp;family=Crimson+Pro&amp;display=block');</style></defs><g id="c286159d-3cd8-4d6d-2ca8-8004c36d8abf_svg" class="tl-centered-g" transform="translate(16.00, 16.00) rotate(0.00, 736.00, 328.00)"><g pointer-events="none" stroke="transparent" stroke-width="4.23" stroke-linecap="round"><line x1="2.11" y1="2.11" x2="1469.88" y2="2.11" stroke-dasharray="0.03 6.46" stroke-dashoffset="0"/><line x1="1469.88" y1="2.11" x2="1469.88" y2="653.88" stroke-dasharray="0.03 6.48" stroke-dashoffset="0"/><line x1="1469.88" y1="653.88" x2="2.11" y2="653.88" stroke-dasharray="0.03 6.46" stroke-dashoffset="0"/><line x1="2.11" y1="653.88" x2="2.11" y2="2.11" stroke-dasharray="0.03 6.48" stroke-dashoffset="0"/></g></g><g id="f52a5e6c-4c6b-42ab-27ac-01a9ccb145db_svg" class="tl-centered-g" transform="translate(543.18, 122.95) rotate(0.00, 24.68, 235.26)"><g opacity="1"><path d="M 22.26,0.21 Q 22.26,0.21 21.15,0.48 20.04,0.75 18.93,1.31 17.81,1.88 16.66,2.70 15.50,3.51 14.24,4.50 12.97,5.50 11.78,6.54 10.58,7.59 9.58,8.56 8.58,9.53 7.67,10.50 6.76,11.48 5.95,12.44 5.13,13.40 4.49,14.26 3.85,15.13 3.40,15.93 2.95,16.73 2.66,17.57 2.37,18.41 2.21,19.37 2.04,20.32 1.95,21.02 1.86,21.72 1.88,22.51 1.91,23.29 2.13,24.08 2.35,24.87 2.81,25.68 3.27,26.49 3.92,27.38 4.57,28.26 5.38,29.20 6.19,30.14 7.12,31.11 8.06,32.08 9.05,33.01 10.04,33.94 11.22,34.88 12.39,35.81 13.71,36.72 15.03,37.62 16.27,38.42 17.51,39.22 18.61,39.89 19.71,40.55 20.73,41.13 21.74,41.72 22.70,42.30 23.66,42.88 24.56,43.46 25.46,44.05 26.30,44.62 27.15,45.20 27.93,45.78 28.70,46.35 29.40,46.94 30.09,47.53 30.70,48.17 31.31,48.80 31.82,49.46 32.32,50.13 32.72,50.81 33.12,51.49 33.44,52.24 33.76,53.00 34.00,53.90 34.23,54.80 34.37,55.82 34.51,56.83 34.58,57.85 34.66,58.87 34.58,59.88 34.50,60.89 34.06,62.00 33.62,63.11 32.81,64.36 32.00,65.60 30.99,66.88 29.99,68.16 28.81,69.54 27.63,70.92 25.97,72.70 24.31,74.48 23.12,75.77 21.93,77.07 20.75,78.35 19.57,79.63 18.61,80.72 17.64,81.81 16.84,82.77 16.04,83.74 15.29,84.73 14.54,85.73 13.91,86.72 13.27,87.71 12.74,88.66 12.21,89.60 11.81,90.46 11.42,91.33 11.16,92.19 10.91,93.05 10.76,93.89 10.62,94.73 10.55,95.57 10.47,96.41 10.48,97.25 10.49,98.09 10.70,98.85 10.92,99.60 11.43,100.28 11.94,100.96 12.78,101.65 13.62,102.34 14.76,103.04 15.90,103.75 17.23,104.45 18.55,105.14 20.03,105.86 21.50,106.59 23.08,107.32 24.66,108.05 26.12,108.69 27.57,109.34 28.82,109.89 30.06,110.43 31.23,110.98 32.40,111.53 33.50,112.11 34.60,112.69 35.56,113.24 36.51,113.78 37.27,114.31 38.03,114.84 38.60,115.45 39.17,116.05 39.58,116.73 39.98,117.41 40.23,118.14 40.47,118.88 40.61,119.70 40.74,120.53 40.63,121.46 40.51,122.38 39.95,123.49 39.38,124.60 38.32,125.91 37.25,127.23 35.21,129.19 33.18,131.16 31.62,132.58 30.07,133.99 27.85,135.84 25.63,137.68 23.95,139.05 22.28,140.42 20.71,141.67 19.15,142.92 17.58,144.18 16.00,145.44 14.35,146.81 12.70,148.18 11.43,149.33 10.16,150.48 8.96,151.62 7.76,152.76 6.61,153.93 5.46,155.10 4.65,156.13 3.84,157.16 3.21,158.16 2.59,159.17 2.11,160.13 1.63,161.10 1.29,162.04 0.94,162.98 0.73,163.86 0.52,164.74 0.40,165.52 0.28,166.29 0.22,167.04 0.16,167.79 0.18,168.56 0.20,169.34 0.43,170.06 0.65,170.79 1.15,171.45 1.65,172.12 2.43,172.80 3.22,173.48 4.24,174.23 5.26,174.99 6.45,175.78 7.65,176.58 8.99,177.42 10.34,178.26 11.82,179.20 13.30,180.14 14.81,181.21 16.33,182.27 17.77,183.43 19.22,184.59 20.62,185.95 22.03,187.31 23.31,188.83 24.59,190.34 25.61,191.87 26.64,193.40 27.42,194.95 28.20,196.50 28.77,198.09 29.33,199.69 29.80,201.94 30.27,204.19 30.53,205.83 30.79,207.48 30.94,209.27 31.08,211.05 31.03,212.92 30.97,214.78 30.63,216.61 30.28,218.45 29.68,220.30 29.07,222.14 28.33,223.92 27.58,225.70 26.90,227.16 26.22,228.62 25.49,229.93 24.77,231.24 24.01,232.54 23.25,233.84 22.63,234.93 22.00,236.02 21.52,236.89 21.03,237.77 20.69,238.48 20.35,239.18 20.14,239.78 19.93,240.37 19.82,240.87 19.71,241.36 19.76,241.81 19.81,242.26 20.25,242.73 20.70,243.21 21.58,243.73 22.47,244.24 23.74,244.80 25.02,245.36 26.65,245.95 28.29,246.55 29.98,247.12 31.68,247.70 33.24,248.23 34.80,248.75 36.27,249.28 37.74,249.81 39.14,250.35 40.54,250.89 41.81,251.45 43.08,252.01 44.10,252.57 45.13,253.13 45.91,253.62 46.69,254.11 47.25,254.48 47.81,254.85 48.15,255.08 48.50,255.31 48.69,255.47 48.89,255.63 48.97,255.84 49.06,256.06 48.99,256.53 48.93,257.01 48.64,257.82 48.35,258.63 47.86,259.72 47.36,260.81 46.65,262.09 45.95,263.37 45.07,264.79 44.19,266.21 43.18,267.79 42.17,269.37 40.96,271.13 39.75,272.89 38.41,274.73 37.08,276.57 35.76,278.32 34.45,280.06 33.18,281.66 31.90,283.27 30.69,284.78 29.48,286.29 28.62,287.36 27.75,288.43 26.78,289.63 25.80,290.83 25.16,291.66 24.52,292.50 24.03,293.26 23.54,294.02 23.20,294.69 22.87,295.37 22.65,295.99 22.43,296.62 22.31,297.22 22.19,297.82 22.13,298.41 22.06,299.00 22.19,299.55 22.33,300.10 22.75,300.68 23.16,301.25 23.72,301.88 24.29,302.50 24.99,303.14 25.69,303.79 26.43,304.42 27.17,305.05 27.82,305.68 28.48,306.31 29.08,306.97 29.68,307.62 30.20,308.32 30.73,309.01 31.17,309.81 31.61,310.61 31.93,311.54 32.24,312.48 32.43,313.57 32.62,314.66 32.53,316.08 32.44,317.50 31.79,319.34 31.15,321.19 29.88,323.41 28.62,325.62 26.83,328.12 25.04,330.63 23.08,333.11 21.12,335.59 19.18,337.93 17.23,340.26 15.44,342.40 13.65,344.54 12.09,346.43 10.53,348.31 9.16,349.96 7.79,351.60 6.67,352.97 5.55,354.35 4.70,355.50 3.86,356.65 3.32,357.68 2.78,358.71 2.47,359.65 2.17,360.59 2.19,361.44 2.22,362.30 2.73,363.02 3.24,363.74 4.30,364.51 5.36,365.28 6.69,365.96 8.03,366.65 9.72,367.35 11.40,368.06 13.28,368.84 15.16,369.61 16.94,370.34 18.73,371.07 20.33,371.77 21.93,372.46 23.43,373.13 24.93,373.80 26.34,374.51 27.74,375.22 28.98,376.02 30.21,376.83 31.10,377.66 31.99,378.50 32.52,379.41 33.06,380.32 33.33,381.39 33.61,382.47 33.60,383.77 33.60,385.07 33.19,386.62 32.78,388.16 32.07,389.76 31.36,391.36 30.58,392.83 29.81,394.30 29.01,395.72 28.21,397.13 27.41,398.54 26.61,399.95 25.91,401.27 25.22,402.59 24.66,403.87 24.10,405.15 23.68,406.43 23.27,407.71 23.01,408.90 22.76,410.09 22.67,411.17 22.59,412.25 22.77,413.24 22.96,414.23 23.48,415.18 24.00,416.13 24.77,417.03 25.54,417.93 26.40,418.70 27.26,419.48 28.09,420.13 28.93,420.78 29.70,421.34 30.48,421.91 31.23,422.48 31.99,423.05 32.66,423.76 33.33,424.48 33.74,425.05 34.14,425.62 34.40,426.28 34.66,426.94 34.80,427.75 34.94,428.56 34.85,429.62 34.77,430.69 34.34,431.91 33.91,433.13 33.35,434.32 32.79,435.51 32.20,436.69 31.60,437.86 30.92,439.13 30.23,440.40 29.54,441.67 28.86,442.94 28.31,444.07 27.75,445.20 27.33,446.19 26.91,447.19 26.64,448.19 26.36,449.19 26.21,450.25 26.05,451.32 25.97,452.39 25.88,453.47 25.84,454.55 25.79,455.63 25.76,456.72 25.74,457.80 25.75,458.87 25.75,459.94 25.82,461.03 25.89,462.11 26.00,463.16 26.12,464.21 26.25,465.13 26.38,466.05 26.52,466.80 26.65,467.56 26.77,468.15 26.88,468.74 27.04,469.63 27.21,470.53 27.21,470.53" fill="none" stroke="none" stroke-width="4" stroke-linejoin="round" stroke-linecap="round" pointer-events="none"/><path d="M 22.26,0.21 Q 22.26,0.21 21.15,0.48 20.04,0.75 18.93,1.31 17.81,1.88 16.66,2.70 15.50,3.51 14.24,4.50 12.97,5.50 11.78,6.54 10.58,7.59 9.58,8.56 8.58,9.53 7.67,10.50 6.76,11.48 5.95,12.44 5.13,13.40 4.49,14.26 3.85,15.13 3.40,15.93 2.95,16.73 2.66,17.57 2.37,18.41 2.21,19.37 2.04,20.32 1.95,21.02 1.86,21.72 1.88,22.51 1.91,23.29 2.13,24.08 2.35,24.87 2.81,25.68 3.27,26.49 3.92,27.38 4.57,28.26 5.38,29.20 6.19,30.14 7.12,31.11 8.06,32.08 9.05,33.01 10.04,33.94 11.22,34.88 12.39,35.81 13.71,36.72 15.03,37.62 16.27,38.42 17.51,39.22 18.61,39.89 19.71,40.55 20.73,41.13 21.74,41.72 22.70,42.30 23.66,42.88 24.56,43.46 25.46,44.05 26.30,44.62 27.15,45.20 27.93,45.78 28.70,46.35 29.40,46.94 30.09,47.53 30.70,48.17 31.31,48.80 31.82,49.46 32.32,50.13 32.72,50.81 33.12,51.49 33.44,52.24 33.76,53.00 34.00,53.90 34.23,54.80 34.37,55.82 34.51,56.83 34.58,57.85 34.66,58.87 34.58,59.88 34.50,60.89 34.06,62.00 33.62,63.11 32.81,64.36 32.00,65.60 30.99,66.88 29.99,68.16 28.81,69.54 27.63,70.92 25.97,72.70 24.31,74.48 23.12,75.77 21.93,77.07 20.75,78.35 19.57,79.63 18.61,80.72 17.64,81.81 16.84,82.77 16.04,83.74 15.29,84.73 14.54,85.73 13.91,86.72 13.27,87.71 12.74,88.66 12.21,89.60 11.81,90.46 11.42,91.33 11.16,92.19 10.91,93.05 10.76,93.89 10.62,94.73 10.55,95.57 10.47,96.41 10.48,97.25 10.49,98.09 10.70,98.85 10.92,99.60 11.43,100.28 11.94,100.96 12.78,101.65 13.62,102.34 14.76,103.04 15.90,103.75 17.23,104.45 18.55,105.14 20.03,105.86 21.50,106.59 23.08,107.32 24.66,108.05 26.12,108.69 27.57,109.34 28.82,109.89 30.06,110.43 31.23,110.98 32.40,111.53 33.50,112.11 34.60,112.69 35.56,113.24 36.51,113.78 37.27,114.31 38.03,114.84 38.60,115.45 39.17,116.05 39.58,116.73 39.98,117.41 40.23,118.14 40.47,118.88 40.61,119.70 40.74,120.53 40.63,121.46 40.51,122.38 39.95,123.49 39.38,124.60 38.32,125.91 37.25,127.23 35.21,129.19 33.18,131.16 31.62,132.58 30.07,133.99 27.85,135.84 25.63,137.68 23.95,139.05 22.28,140.42 20.71,141.67 19.15,142.92 17.58,144.18 16.00,145.44 14.35,146.81 12.70,148.18 11.43,149.33 10.16,150.48 8.96,151.62 7.76,152.76 6.61,153.93 5.46,155.10 4.65,156.13 3.84,157.16 3.21,158.16 2.59,159.17 2.11,160.13 1.63,161.10 1.29,162.04 0.94,162.98 0.73,163.86 0.52,164.74 0.40,165.52 0.28,166.29 0.22,167.04 0.16,167.79 0.18,168.56 0.20,169.34 0.43,170.06 0.65,170.79 1.15,171.45 1.65,172.12 2.43,172.80 3.22,173.48 4.24,174.23 5.26,174.99 6.45,175.78 7.65,176.58 8.99,177.42 10.34,178.26 11.82,179.20 13.30,180.14 14.81,181.21 16.33,182.27 17.77,183.43 19.22,184.59 20.62,185.95 22.03,187.31 23.31,188.83 24.59,190.34 25.61,191.87 26.64,193.40 27.42,194.95 28.20,196.50 28.77,198.09 29.33,199.69 29.80,201.94 30.27,204.19 30.53,205.83 30.79,207.48 30.94,209.27 31.08,211.05 31.03,212.92 30.97,214.78 30.63,216.61 30.28,218.45 29.68,220.30 29.07,222.14 28.33,223.92 27.58,225.70 26.90,227.16 26.22,228.62 25.49,229.93 24.77,231.24 24.01,232.54 23.25,233.84 22.63,234.93 22.00,236.02 21.52,236.89 21.03,237.77 20.69,238.48 20.35,239.18 20.14,239.78 19.93,240.37 19.82,240.87 19.71,241.36 19.76,241.81 19.81,242.26 20.25,242.73 20.70,243.21 21.58,243.73 22.47,244.24 23.74,244.80 25.02,245.36 26.65,245.95 28.29,246.55 29.98,247.12 31.68,247.70 33.24,248.23 34.80,248.75 36.27,249.28 37.74,249.81 39.14,250.35 40.54,250.89 41.81,251.45 43.08,252.01 44.10,252.57 45.13,253.13 45.91,253.62 46.69,254.11 47.25,254.48 47.81,254.85 48.15,255.08 48.50,255.31 48.69,255.47 48.89,255.63 48.97,255.84 49.06,256.06 48.99,256.53 48.93,257.01 48.64,257.82 48.35,258.63 47.86,259.72 47.36,260.81 46.65,262.09 45.95,263.37 45.07,264.79 44.19,266.21 43.18,267.79 42.17,269.37 40.96,271.13 39.75,272.89 38.41,274.73 37.08,276.57 35.76,278.32 34.45,280.06 33.18,281.66 31.90,283.27 30.69,284.78 29.48,286.29 28.62,287.36 27.75,288.43 26.78,289.63 25.80,290.83 25.16,291.66 24.52,292.50 24.03,293.26 23.54,294.02 23.20,294.69 22.87,295.37 22.65,295.99 22.43,296.62 22.31,297.22 22.19,297.82 22.13,298.41 22.06,299.00 22.19,299.55 22.33,300.10 22.75,300.68 23.16,301.25 23.72,301.88 24.29,302.50 24.99,303.14 25.69,303.79 26.43,304.42 27.17,305.05 27.82,305.68 28.48,306.31 29.08,306.97 29.68,307.62 30.20,308.32 30.73,309.01 31.17,309.81 31.61,310.61 31.93,311.54 32.24,312.48 32.43,313.57 32.62,314.66 32.53,316.08 32.44,317.50 31.79,319.34 31.15,321.19 29.88,323.41 28.62,325.62 26.83,328.12 25.04,330.63 23.08,333.11 21.12,335.59 19.18,337.93 17.23,340.26 15.44,342.40 13.65,344.54 12.09,346.43 10.53,348.31 9.16,349.96 7.79,351.60 6.67,352.97 5.55,354.35 4.70,355.50 3.86,356.65 3.32,357.68 2.78,358.71 2.47,359.65 2.17,360.59 2.19,361.44 2.22,362.30 2.73,363.02 3.24,363.74 4.30,364.51 5.36,365.28 6.69,365.96 8.03,366.65 9.72,367.35 11.40,368.06 13.28,368.84 15.16,369.61 16.94,370.34 18.73,371.07 20.33,371.77 21.93,372.46 23.43,373.13 24.93,373.80 26.34,374.51 27.74,375.22 28.98,376.02 30.21,376.83 31.10,377.66 31.99,378.50 32.52,379.41 33.06,380.32 33.33,381.39 33.61,382.47 33.60,383.77 33.60,385.07 33.19,386.62 32.78,388.16 32.07,389.76 31.36,391.36 30.58,392.83 29.81,394.30 29.01,395.72 28.21,397.13 27.41,398.54 26.61,399.95 25.91,401.27 25.22,402.59 24.66,403.87 24.10,405.15 23.68,406.43 23.27,407.71 23.01,408.90 22.76,410.09 22.67,411.17 22.59,412.25 22.77,413.24 22.96,414.23 23.48,415.18 24.00,416.13 24.77,417.03 25.54,417.93 26.40,418.70 27.26,419.48 28.09,420.13 28.93,420.78 29.70,421.34 30.48,421.91 31.23,422.48 31.99,423.05 32.66,423.76 33.33,424.48 33.74,425.05 34.14,425.62 34.40,426.28 34.66,426.94 34.80,427.75 34.94,428.56 34.85,429.62 34.77,430.69 34.34,431.91 33.91,433.13 33.35,434.32 32.79,435.51 32.20,436.69 31.60,437.86 30.92,439.13 30.23,440.40 29.54,441.67 28.86,442.94 28.31,444.07 27.75,445.20 27.33,446.19 26.91,447.19 26.64,448.19 26.36,449.19 26.21,450.25 26.05,451.32 25.97,452.39 25.88,453.47 25.84,454.55 25.79,455.63 25.76,456.72 25.74,457.80 25.75,458.87 25.75,459.94 25.82,461.03 25.89,462.11 26.00,463.16 26.12,464.21 26.25,465.13 26.38,466.05 26.52,466.80 26.65,467.56 26.77,468.15 26.88,468.74 27.04,469.63 27.21,470.53 27.21,470.53" fill="none" stroke="#717d8a" stroke-width="4" stroke-dasharray="0.1 8" stroke-dashoffset="0" stroke-linejoin="round" stroke-linecap="round" pointer-events="none"/></g></g><g id="e27f21b1-3dc2-4ffb-1f5c-b1ee87a37aad_svg" class="tl-centered-g" transform="translate(111.13, 156.77) rotate(0.00, 182.85, 159.67)"><path d="M 275.96,319.03 Q 275.96,319.03 269.64,319.00 263.32,318.98 255.39,318.95 247.47,318.92 239.13,318.89 230.79,318.87 222.34,318.84 213.90,318.81 205.43,318.79 196.96,318.76 188.48,318.76 180.00,318.77 171.52,318.80 163.04,318.84 154.57,318.87 146.09,318.91 137.61,318.94 129.13,318.98 120.65,319.01 112.17,319.05 103.69,319.08 95.21,319.12 86.73,319.15 78.25,319.18 69.77,319.22 61.29,319.25 52.81,319.29 44.33,319.32 35.85,319.36 27.37,319.39 18.86,319.42 10.36,319.45 6.17,317.58 1.97,315.71 0.84,308.60 -0.27,301.49 -0.46,293.28 -0.64,285.07 -0.64,276.59 -0.63,268.11 -0.59,259.55 -0.54,250.99 -0.48,242.41 -0.42,233.83 -0.36,225.25 -0.29,216.66 -0.23,208.08 -0.17,199.49 -0.10,190.91 -0.04,182.32 0.01,173.74 0.08,165.15 0.07,156.56 0.06,147.98 0.05,139.39 0.04,130.81 0.03,122.22 0.02,113.64 0.02,105.05 0.01,96.46 0.00,87.88 -0.00,79.29 -0.01,70.71 -0.02,62.12 -0.03,53.54 -0.04,44.95 -0.04,36.37 -0.05,27.78 -0.06,19.17 -0.06,10.56 1.81,6.35 3.68,2.13 10.68,0.97 17.69,-0.17 25.76,-0.38 33.84,-0.59 42.18,-0.62 50.53,-0.64 58.94,-0.62 67.36,-0.60 75.80,-0.56 84.23,-0.53 92.67,-0.49 101.11,-0.45 109.55,-0.42 117.99,-0.38 126.43,-0.34 134.88,-0.30 143.32,-0.27 151.76,-0.23 160.20,-0.19 168.64,-0.15 177.08,-0.15 185.53,-0.14 193.97,-0.16 202.41,-0.19 210.85,-0.21 219.29,-0.24 227.73,-0.26 236.17,-0.28 244.62,-0.31 253.06,-0.33 261.50,-0.36 269.94,-0.38 278.38,-0.40 286.82,-0.43 295.27,-0.45 303.71,-0.48 312.15,-0.50 320.59,-0.53 329.03,-0.55 337.47,-0.57 345.94,-0.59 354.40,-0.61 358.59,1.25 362.77,3.12 363.93,10.22 365.09,17.32 365.31,25.52 365.54,33.71 365.58,42.19 365.62,50.66 365.62,59.21 365.61,67.75 365.60,76.32 365.58,84.89 365.56,93.46 365.55,102.03 365.53,110.60 365.51,119.18 365.49,127.75 365.47,136.32 365.45,144.89 365.43,153.47 365.49,162.04 365.54,170.61 365.59,179.19 365.65,187.76 365.70,196.33 365.75,204.91 365.81,213.48 365.86,222.05 365.91,230.62 365.97,239.20 366.02,247.77 366.07,256.34 366.13,264.92 366.18,273.49 366.23,282.06 366.29,290.64 366.34,299.23 366.39,307.83 364.52,312.05 362.65,316.26 355.63,317.43 348.60,318.59 340.49,318.81 332.38,319.03 324.00,319.06 315.61,319.10 307.16,319.09 298.71,319.07 290.23,319.05 281.76,319.03 273.28,319.00 264.80,318.98 256.32,318.95 247.84,318.92 239.36,318.89 230.88,318.87 222.40,318.84 213.92,318.81 205.44,318.79 196.96,318.76 188.48,318.76 180.00,318.77 171.52,318.80 163.05,318.84 151.66,318.87 140.28,318.91 140.10,318.88 139.91,318.85 139.75,318.76 139.58,318.67 139.45,318.54 139.32,318.40 139.25,318.23 139.17,318.06 139.15,317.88 139.13,317.69 139.17,317.51 139.21,317.33 139.30,317.17 139.40,317.01 139.54,316.89 139.68,316.77 139.86,316.70 140.03,316.63 140.22,316.62 140.40,316.61 140.58,316.66 140.76,316.71 140.92,316.81 141.07,316.92 141.19,317.06 141.30,317.21 141.36,317.39 141.42,317.57 141.42,317.75 141.42,317.94 141.36,318.12 141.30,318.29 141.19,318.44 141.07,318.59 140.92,318.70 140.77,318.80 140.59,318.85 140.41,318.90 140.22,318.89 140.03,318.88 139.86,318.81 139.68,318.74 139.54,318.62 139.40,318.50 139.30,318.34 139.21,318.18 139.17,318.00 139.13,317.82 139.15,317.63 139.17,317.45 139.25,317.28 139.32,317.11 139.45,316.97 139.58,316.84 139.75,316.75 139.91,316.66 140.10,316.63 140.28,316.60 140.28,316.60 140.28,316.60 151.66,316.63 163.04,316.65 171.52,316.68 180.00,316.71 188.48,316.70 196.96,316.70 205.44,316.66 213.92,316.63 222.40,316.59 230.88,316.56 239.36,316.52 247.84,316.49 256.32,316.45 264.80,316.42 273.28,316.38 281.76,316.35 290.23,316.31 298.70,316.27 307.15,316.22 315.59,316.17 323.94,316.07 332.28,315.98 340.22,315.71 348.16,315.45 354.53,314.73 360.89,314.01 362.00,310.88 363.10,307.74 363.12,299.19 363.13,290.64 363.15,282.07 363.17,273.50 363.19,264.92 363.21,256.35 363.23,247.78 363.25,239.20 363.26,230.63 363.28,222.06 363.30,213.48 363.32,204.91 363.34,196.34 363.36,187.76 363.38,179.19 363.40,170.62 363.42,162.04 363.43,153.47 363.38,144.90 363.33,136.33 363.27,127.75 363.22,119.18 363.17,110.61 363.11,102.03 363.06,93.46 363.00,84.89 362.95,76.33 362.89,67.76 362.82,59.23 362.75,50.69 362.64,42.25 362.53,33.81 362.24,25.78 361.96,17.75 361.24,11.32 360.51,4.88 357.41,3.77 354.31,2.66 345.89,2.63 337.47,2.59 329.03,2.55 320.59,2.52 312.15,2.48 303.71,2.44 295.26,2.40 286.82,2.37 278.38,2.33 269.94,2.29 261.50,2.25 253.06,2.21 244.61,2.18 236.17,2.14 227.73,2.10 219.29,2.06 210.85,2.03 202.41,1.99 193.97,1.95 185.52,1.91 177.08,1.91 168.64,1.90 160.20,1.92 151.76,1.95 143.32,1.97 134.87,2.00 126.43,2.02 117.99,2.04 109.55,2.07 101.11,2.09 92.67,2.12 84.23,2.14 75.80,2.17 67.36,2.20 58.96,2.24 50.55,2.28 42.24,2.36 33.93,2.45 26.03,2.70 18.12,2.96 11.78,3.67 5.44,4.38 4.33,7.52 3.21,10.66 3.15,19.23 3.09,27.79 3.03,36.37 2.97,44.96 2.90,53.55 2.84,62.13 2.77,70.72 2.71,79.30 2.65,87.89 2.58,96.47 2.52,105.06 2.46,113.64 2.39,122.23 2.33,130.81 2.27,139.40 2.20,147.99 2.14,156.57 2.08,165.16 2.08,173.74 2.09,182.33 2.10,190.91 2.11,199.50 2.12,208.08 2.13,216.67 2.14,225.25 2.15,233.84 2.16,242.41 2.17,250.99 2.20,259.54 2.22,268.09 2.29,276.55 2.36,285.00 2.60,293.04 2.84,301.07 3.54,307.52 4.23,313.96 7.34,315.07 10.45,316.17 18.91,316.20 27.37,316.22 35.85,316.24 44.33,316.27 52.81,316.30 61.29,316.33 69.77,316.35 78.25,316.38 86.73,316.41 95.21,316.43 103.68,316.46 112.16,316.49 120.64,316.52 129.12,316.54 137.60,316.57 146.08,316.60 154.56,316.62 163.04,316.65 171.52,316.68 180.00,316.71 188.48,316.70 196.96,316.70 205.43,316.66 213.90,316.63 222.34,316.59 230.79,316.56 239.13,316.52 247.47,316.49 255.39,316.45 263.32,316.42 269.64,316.39 275.96,316.35 276.12,316.37 276.28,316.39 276.43,316.45 276.58,316.51 276.71,316.60 276.85,316.69 276.95,316.81 277.06,316.93 277.14,317.07 277.21,317.22 277.25,317.37 277.29,317.53 277.29,317.69 277.29,317.85 277.25,318.01 277.21,318.17 277.14,318.31 277.06,318.45 276.95,318.57 276.85,318.70 276.71,318.79 276.58,318.88 276.43,318.94 276.28,318.99 276.12,319.01 Z" fill="#cecece" stroke="#cecece" stroke-width="2" pointer-events="none"/></g><g id="670bc38e-d93e-4a8a-075a-3d93899b72e8_svg" class="tl-centered-g" transform="translate(118.51, 165.35) rotate(0.00, 174.19, 20.79)"><path d="M 259.12,41.53 Q 259.12,41.53 252.81,41.53 246.50,41.52 238.58,41.52 230.66,41.51 222.33,41.51 214.00,41.51 205.56,41.51 197.12,41.51 188.66,41.51 180.20,41.51 171.73,41.58 163.26,41.64 154.79,41.71 146.32,41.77 137.85,41.84 129.38,41.91 120.91,41.97 112.43,42.04 103.96,42.10 95.49,42.17 87.02,42.23 78.55,42.30 70.08,42.36 61.61,42.43 53.14,42.49 44.66,42.56 36.19,42.62 27.72,42.69 19.23,42.75 10.73,42.81 6.66,41.15 2.60,39.49 1.44,37.02 0.29,34.55 0.11,32.07 -0.06,29.58 -0.01,27.22 0.03,24.86 0.03,22.54 0.04,20.21 -0.03,17.88 -0.10,15.56 -0.18,13.24 -0.25,10.91 -0.30,8.51 -0.34,6.10 1.49,3.51 3.33,0.91 10.41,0.22 17.49,-0.47 25.55,-0.55 33.62,-0.63 41.98,-0.61 50.34,-0.59 58.78,-0.54 67.22,-0.49 75.68,-0.43 84.14,-0.38 92.60,-0.32 101.07,-0.26 109.53,-0.20 118.00,-0.14 126.47,-0.09 134.93,-0.03 143.40,0.02 151.87,0.08 160.33,0.14 168.80,0.20 177.27,0.19 185.73,0.18 194.20,0.18 202.67,0.17 211.13,0.16 219.60,0.16 228.07,0.15 236.53,0.14 245.00,0.14 253.47,0.13 261.94,0.12 270.40,0.12 278.87,0.11 287.34,0.10 295.80,0.10 304.27,0.09 312.74,0.09 321.20,0.08 329.69,0.08 338.18,0.07 342.24,1.74 346.29,3.40 347.45,5.74 348.62,8.09 348.81,10.42 349.01,12.76 348.98,14.96 348.94,17.16 348.95,19.32 348.96,21.48 349.05,23.64 349.14,25.79 349.23,27.95 349.31,30.10 349.37,32.35 349.43,34.60 347.60,37.14 345.77,39.69 338.68,40.42 331.60,41.15 323.53,41.29 315.47,41.42 307.10,41.45 298.73,41.49 290.29,41.50 281.85,41.50 273.38,41.51 264.92,41.51 256.45,41.51 247.98,41.51 239.51,41.51 231.03,41.51 222.56,41.51 214.09,41.51 205.62,41.51 197.15,41.51 188.68,41.51 180.21,41.51 171.73,41.58 163.26,41.64 151.89,41.72 140.52,41.80 140.34,41.77 140.16,41.74 140.00,41.65 139.84,41.57 139.71,41.44 139.58,41.30 139.51,41.14 139.43,40.97 139.41,40.79 139.39,40.61 139.43,40.43 139.47,40.25 139.56,40.10 139.65,39.94 139.79,39.82 139.93,39.70 140.10,39.63 140.27,39.56 140.45,39.55 140.63,39.54 140.81,39.59 140.99,39.64 141.14,39.74 141.29,39.84 141.40,39.99 141.51,40.13 141.57,40.31 141.63,40.48 141.63,40.66 141.63,40.85 141.57,41.02 141.52,41.19 141.41,41.34 141.30,41.48 141.15,41.59 140.99,41.69 140.82,41.74 140.64,41.79 140.46,41.78 140.28,41.77 140.11,41.70 139.94,41.64 139.80,41.52 139.66,41.40 139.56,41.25 139.47,41.09 139.43,40.91 139.39,40.73 139.41,40.55 139.43,40.37 139.50,40.20 139.58,40.04 139.70,39.90 139.83,39.77 139.99,39.68 140.15,39.60 140.33,39.57 140.51,39.54 140.51,39.54 140.51,39.54 151.88,39.53 163.25,39.51 171.73,39.51 180.20,39.51 188.67,39.45 197.14,39.38 205.61,39.32 214.08,39.25 222.55,39.19 231.03,39.12 239.50,39.06 247.97,38.99 256.44,38.93 264.91,38.86 273.37,38.79 281.83,38.72 290.27,38.65 298.71,38.58 307.06,38.48 315.40,38.38 323.37,38.19 331.34,37.99 337.64,37.64 343.94,37.28 345.09,35.75 346.25,34.22 346.32,32.16 346.39,30.10 346.48,27.94 346.58,25.79 346.68,23.64 346.77,21.49 346.77,19.35 346.76,17.21 346.61,15.13 346.47,13.04 346.21,11.16 345.95,9.27 345.26,7.64 344.57,6.02 341.33,4.69 338.08,3.36 329.64,3.30 321.19,3.25 312.73,3.19 304.26,3.13 295.79,3.07 287.33,3.01 278.86,2.96 270.39,2.90 261.93,2.84 253.46,2.78 244.99,2.72 236.53,2.66 228.06,2.61 219.59,2.55 211.13,2.49 202.66,2.43 194.19,2.37 185.73,2.31 177.26,2.26 168.79,2.20 160.33,2.20 151.86,2.21 143.39,2.22 134.93,2.22 126.46,2.23 117.99,2.24 109.53,2.24 101.06,2.25 92.59,2.26 84.13,2.26 75.67,2.27 67.21,2.28 58.78,2.30 50.34,2.31 42.00,2.35 33.66,2.40 25.69,2.54 17.73,2.68 11.44,3.00 5.14,3.33 3.99,4.90 2.84,6.47 2.75,8.71 2.67,10.94 2.55,13.26 2.44,15.58 2.33,17.89 2.22,20.21 2.22,22.52 2.21,24.82 2.35,27.08 2.48,29.34 2.73,31.38 2.99,33.43 3.67,35.18 4.35,36.93 7.58,38.23 10.81,39.53 19.26,39.52 27.71,39.52 36.18,39.52 44.65,39.52 53.12,39.52 61.60,39.52 70.07,39.52 78.54,39.52 87.01,39.52 95.48,39.52 103.95,39.52 112.43,39.52 120.90,39.52 129.37,39.52 137.84,39.52 146.31,39.51 154.78,39.51 163.25,39.51 171.72,39.51 180.19,39.51 188.65,39.45 197.12,39.38 205.55,39.32 213.99,39.25 222.32,39.19 230.65,39.12 238.57,39.06 246.49,39.00 252.80,38.94 259.11,38.88 259.27,38.90 259.43,38.92 259.58,38.98 259.73,39.03 259.86,39.12 259.99,39.21 260.10,39.33 260.20,39.45 260.28,39.59 260.35,39.73 260.39,39.89 260.43,40.04 260.43,40.20 260.43,40.36 260.40,40.52 260.36,40.67 260.28,40.82 260.21,40.96 260.11,41.08 260.00,41.20 259.87,41.29 259.74,41.38 259.59,41.44 259.44,41.49 259.28,41.51 Z" fill="#cecece" stroke="#cecece" stroke-width="2" pointer-events="none"/></g><g text-align="left" text-anchor="start" fill="#cecece" transform="translate(125.49, 167.17) rotate(0.00, 92.50, 19.00)"><text y="14" letter-spacing="-0.84" font-size="28px" font-family="Caveat Brush" text-align="left" alignment-baseline="central" transform="scale(0.9835139714385606)">site.com/products</text></g><g id="ce847d82-2e2a-4d78-209d-76edc2124be0_svg" class="tl-centered-g" transform="translate(124.80, 218.70) rotate(0.00, 167.42, 1.01)"><defs><mask id="ce847d82-2e2a-4d78-209d-76edc2124be0_clip"><rect x="-100" y="-100" width="534.83" height="202.03" fill="white"/><rect x="167.42" y="1.01" width="0" height="0" rx="4" ry="4" fill="black" opacity="1"/></mask></defs><g pointer-events="none" opacity="1" mask=""><path d="M -0.00,1.00 Q -0.00,1.00 41.84,0.78 83.70,0.56 125.55,0.32 167.41,0.09 209.26,-0.14 251.12,-0.37 292.97,-0.61 334.83,-0.86 334.97,-0.83 335.10,-0.81 335.23,-0.75 335.35,-0.68 335.45,-0.58 335.54,-0.48 335.60,-0.36 335.66,-0.23 335.68,-0.09 335.70,0.04 335.67,0.17 335.64,0.31 335.57,0.43 335.49,0.55 335.39,0.64 335.28,0.73 335.15,0.78 335.03,0.83 334.89,0.84 334.75,0.85 334.61,0.82 334.48,0.78 334.36,0.70 334.25,0.62 334.16,0.51 334.08,0.40 334.03,0.27 333.99,0.14 333.99,0.00 333.98,-0.13 334.03,-0.26 334.07,-0.39 334.16,-0.51 334.24,-0.62 334.35,-0.70 334.47,-0.77 334.60,-0.81 334.74,-0.85 334.88,-0.84 335.02,-0.84 335.14,-0.79 335.27,-0.74 335.38,-0.65 335.49,-0.56 335.56,-0.44 335.63,-0.32 335.66,-0.18 335.69,-0.05 335.68,0.08 335.67,0.22 335.61,0.35 335.55,0.47 335.46,0.58 335.36,0.68 335.24,0.74 335.11,0.81 334.98,0.83 334.84,0.86 334.84,0.86 334.84,0.86 292.99,1.12 251.13,1.39 209.28,1.66 167.42,1.93 125.57,2.20 83.71,2.48 41.86,2.76 0.00,3.05 -0.11,3.03 -0.23,3.02 -0.35,2.98 -0.46,2.93 -0.57,2.86 -0.67,2.79 -0.75,2.70 -0.83,2.61 -0.89,2.50 -0.95,2.39 -0.98,2.27 -1.01,2.15 -1.01,2.03 -1.01,1.91 -0.98,1.79 -0.95,1.67 -0.90,1.56 -0.84,1.45 -0.76,1.36 -0.68,1.26 -0.58,1.19 -0.48,1.12 -0.36,1.08 -0.25,1.03 -0.12,1.02 Z" fill="#cecece" stroke="#cecece" stroke-width="2.11" stroke-dasharray="none" stroke-dashoffset="none" stroke-linecap="round" stroke-linejoin="round" pointer-events="stroke"/></g></g><g text-align="left" text-anchor="start" fill="#cecece" transform="translate(237.53, 89.59) rotate(0.00, 55.00, 32.50)"><text y="14" letter-spacing="-0.84" font-size="28px" font-family="Caveat Brush" text-align="left" alignment-baseline="central" transform="scale(1.956587563795696)">client</text></g><g id="a0eff5f8-9a99-4494-087c-fbf934032e17_svg" class="tl-centered-g" transform="translate(132.53, 234.74) rotate(0.00, 161.28, 110.75)"><path d="M 232.67,221.38 Q 232.67,221.38 226.71,221.37 220.76,221.36 213.29,221.36 205.82,221.36 197.96,221.36 190.10,221.36 182.15,221.37 174.19,221.37 166.21,221.44 158.23,221.50 150.24,221.63 142.26,221.75 134.27,221.88 126.28,222.00 118.29,222.13 110.30,222.25 102.31,222.37 94.32,222.50 86.33,222.62 78.35,222.75 70.36,222.87 62.37,223.00 54.38,223.12 46.39,223.25 38.40,223.37 30.41,223.50 22.33,223.60 14.25,223.70 8.71,220.57 3.18,217.44 1.63,209.79 0.08,202.15 -0.14,193.86 -0.38,185.57 -0.37,177.13 -0.36,168.70 -0.29,160.22 -0.22,151.74 -0.14,143.25 -0.06,134.75 0.01,126.26 0.10,117.76 0.00,109.27 -0.10,100.77 -0.20,92.28 -0.30,83.78 -0.40,75.28 -0.51,66.79 -0.61,58.29 -0.71,49.80 -0.82,41.30 -0.92,32.80 -1.00,24.22 -1.08,15.64 2.04,9.99 5.18,4.34 12.48,2.72 19.77,1.10 27.65,0.83 35.53,0.56 43.52,0.53 51.51,0.51 59.53,0.55 67.56,0.59 75.59,0.64 83.63,0.70 91.67,0.76 99.70,0.81 107.74,0.87 115.78,0.93 123.82,0.99 131.86,1.05 139.89,1.11 147.93,1.17 155.97,1.17 164.01,1.17 172.05,1.11 180.08,1.05 188.12,0.98 196.16,0.92 204.20,0.86 212.24,0.80 220.28,0.74 228.31,0.68 236.35,0.62 244.39,0.56 252.43,0.50 260.47,0.44 268.50,0.38 276.54,0.32 284.58,0.26 292.62,0.20 300.75,0.16 308.87,0.12 314.42,3.28 319.96,6.43 321.45,14.01 322.94,21.58 323.11,29.78 323.27,37.98 323.18,46.31 323.10,54.65 322.95,63.03 322.81,71.40 322.65,79.79 322.49,88.18 322.33,96.58 322.17,104.97 322.19,113.37 322.22,121.76 322.25,130.16 322.27,138.55 322.30,146.95 322.32,155.34 322.35,163.74 322.37,172.14 322.40,180.53 322.43,188.93 322.43,197.41 322.43,205.89 319.29,211.50 316.15,217.11 308.88,218.77 301.61,220.43 293.78,220.76 285.94,221.09 278.00,221.18 270.06,221.26 262.08,221.29 254.11,221.31 246.12,221.32 238.13,221.33 230.14,221.34 222.15,221.34 214.17,221.35 206.18,221.35 198.19,221.36 190.20,221.36 182.21,221.37 174.22,221.37 166.23,221.44 158.24,221.50 150.25,221.63 142.26,221.75 131.53,221.90 120.81,222.05 120.48,221.99 120.16,221.94 119.86,221.79 119.57,221.64 119.34,221.40 119.11,221.16 118.97,220.86 118.82,220.56 118.79,220.23 118.75,219.90 118.82,219.58 118.88,219.25 119.05,218.97 119.22,218.68 119.47,218.47 119.72,218.25 120.03,218.12 120.34,218.00 120.67,217.98 121.00,217.96 121.32,218.04 121.64,218.13 121.92,218.31 122.19,218.50 122.39,218.76 122.60,219.02 122.71,219.34 122.81,219.65 122.82,219.98 122.82,220.31 122.72,220.63 122.61,220.94 122.41,221.21 122.22,221.47 121.94,221.66 121.67,221.85 121.35,221.94 121.03,222.03 120.70,222.02 120.37,222.00 120.06,221.88 119.75,221.76 119.50,221.55 119.24,221.34 119.07,221.05 118.90,220.77 118.82,220.45 118.75,220.12 118.78,219.79 118.82,219.46 118.95,219.16 119.09,218.86 119.31,218.62 119.54,218.37 119.83,218.22 120.12,218.06 120.45,218.00 120.78,217.95 120.78,217.95 120.78,217.95 131.50,217.92 142.23,217.89 150.22,217.89 158.21,217.88 166.20,217.82 174.19,217.75 182.17,217.63 190.16,217.50 198.15,217.38 206.14,217.26 214.13,217.13 222.12,217.01 230.11,216.88 238.09,216.75 246.07,216.62 254.06,216.49 262.01,216.35 269.97,216.21 277.83,216.00 285.69,215.80 293.14,215.40 300.58,214.99 306.56,214.13 312.53,213.28 314.64,209.39 316.75,205.51 316.89,197.19 317.03,188.88 317.19,180.49 317.36,172.09 317.52,163.70 317.69,155.31 317.85,146.91 318.01,138.52 318.18,130.12 318.34,121.73 318.50,113.34 318.67,104.94 318.64,96.55 318.61,88.15 318.58,79.77 318.55,71.38 318.50,63.02 318.46,54.65 318.36,46.39 318.25,38.13 317.94,30.29 317.62,22.45 316.84,16.19 316.06,9.92 312.29,7.86 308.52,5.80 300.57,5.77 292.62,5.73 284.58,5.67 276.54,5.61 268.50,5.55 260.47,5.49 252.43,5.44 244.39,5.38 236.35,5.32 228.31,5.26 220.28,5.20 212.24,5.14 204.20,5.08 196.16,5.02 188.12,4.96 180.08,4.90 172.05,4.85 164.01,4.79 155.97,4.79 147.93,4.79 139.89,4.85 131.86,4.91 123.82,4.97 115.78,5.03 107.74,5.09 99.70,5.15 91.67,5.21 83.63,5.28 75.60,5.34 67.57,5.41 59.57,5.49 51.56,5.57 43.65,5.71 35.75,5.85 28.26,6.20 20.76,6.55 14.76,7.36 8.75,8.18 6.67,12.08 4.60,15.97 4.53,24.39 4.47,32.80 4.38,41.29 4.29,49.79 4.21,58.29 4.12,66.78 4.03,75.28 3.95,83.78 3.86,92.27 3.77,100.77 3.69,109.26 3.60,117.76 3.70,126.25 3.81,134.75 3.92,143.24 4.02,151.72 4.15,160.19 4.27,168.65 4.45,177.01 4.63,185.37 5.01,193.31 5.40,201.25 6.23,207.58 7.06,213.91 10.82,215.97 14.57,218.02 22.47,217.99 30.37,217.96 38.36,217.96 46.35,217.95 54.34,217.95 62.33,217.94 70.32,217.94 78.31,217.93 86.30,217.93 94.29,217.92 102.28,217.92 110.27,217.91 118.26,217.91 126.25,217.90 134.24,217.90 142.23,217.89 150.21,217.89 158.20,217.88 166.18,217.82 174.16,217.75 182.12,217.63 190.07,217.51 197.93,217.38 205.79,217.26 213.26,217.14 220.73,217.02 226.68,216.91 232.63,216.80 232.90,216.83 233.18,216.86 233.44,216.96 233.69,217.05 233.92,217.21 234.15,217.36 234.34,217.57 234.52,217.77 234.65,218.02 234.78,218.26 234.85,218.53 234.92,218.80 234.92,219.07 234.92,219.35 234.86,219.62 234.79,219.88 234.67,220.13 234.54,220.37 234.36,220.58 234.18,220.79 233.95,220.95 233.73,221.11 233.47,221.21 233.21,221.31 232.94,221.34 Z" fill="#36a64c" stroke="#36a64c" stroke-width="3.5" pointer-events="none"/></g><g id="3106e9d8-30b4-4973-1740-a2c1d61206d0_svg" class="tl-centered-g" transform="translate(163.55, 265.80) rotate(0.00, 135.32, 83.62)"><path d="M 94.04,0.31 Q 94.04,0.31 100.33,0.38 106.63,0.45 114.53,0.52 122.43,0.59 130.75,0.59 139.06,0.58 147.47,0.50 155.89,0.42 164.33,0.34 172.77,0.26 181.22,0.17 189.67,0.09 198.12,0.01 206.57,-0.06 215.03,-0.14 223.48,-0.22 231.93,-0.31 240.38,-0.39 248.92,-0.45 257.45,-0.51 263.10,2.63 268.75,5.78 270.25,13.33 271.75,20.88 271.89,29.05 272.03,37.21 271.93,45.51 271.82,53.81 271.65,62.15 271.48,70.49 271.43,78.84 271.37,87.19 271.44,95.55 271.50,103.91 271.57,112.27 271.63,120.62 271.70,128.98 271.76,137.34 271.81,145.78 271.85,154.23 268.68,159.84 265.52,165.46 257.91,167.01 250.31,168.57 242.07,168.78 233.84,168.99 225.46,168.95 217.09,168.91 208.68,168.81 200.26,168.71 191.83,168.60 183.41,168.49 174.98,168.37 166.55,168.25 158.12,168.13 149.69,168.01 141.25,167.97 132.82,167.93 124.39,167.96 115.96,167.99 107.53,168.03 99.10,168.06 90.66,168.09 82.23,168.13 73.80,168.16 65.37,168.19 56.94,168.22 48.51,168.26 40.07,168.29 31.64,168.32 23.13,168.33 14.61,168.35 8.98,165.19 3.34,162.03 1.82,154.54 0.30,147.05 0.12,138.96 -0.04,130.87 0.02,122.65 0.09,114.43 0.23,106.17 0.36,97.91 0.38,89.64 0.41,81.37 0.31,73.09 0.21,64.82 0.11,56.54 0.01,48.26 -0.08,39.99 -0.18,31.71 -0.25,23.35 -0.33,14.98 2.81,9.39 5.96,3.79 13.58,2.21 21.19,0.62 29.45,0.36 37.70,0.11 46.10,0.10 54.49,0.09 62.92,0.14 71.36,0.19 79.81,0.25 88.25,0.32 96.70,0.39 105.16,0.46 113.61,0.53 122.06,0.60 130.51,0.59 138.96,0.58 147.41,0.50 155.86,0.42 167.21,0.34 178.55,0.25 178.89,0.31 179.23,0.36 179.54,0.52 179.84,0.69 180.08,0.94 180.32,1.19 180.46,1.50 180.61,1.81 180.64,2.15 180.68,2.50 180.61,2.83 180.53,3.17 180.36,3.46 180.18,3.76 179.92,3.98 179.65,4.20 179.33,4.33 179.01,4.46 178.67,4.48 178.33,4.50 177.99,4.41 177.66,4.31 177.38,4.12 177.09,3.93 176.88,3.65 176.67,3.38 176.56,3.05 176.45,2.73 176.45,2.38 176.45,2.04 176.56,1.71 176.67,1.38 176.88,1.11 177.09,0.84 177.37,0.64 177.66,0.45 177.99,0.36 178.32,0.26 178.67,0.28 179.01,0.30 179.33,0.43 179.65,0.56 179.91,0.78 180.18,1.00 180.35,1.30 180.53,1.59 180.61,1.93 180.68,2.26 180.64,2.61 180.61,2.95 180.46,3.26 180.32,3.58 180.08,3.83 179.84,4.08 179.54,4.24 179.24,4.40 178.90,4.45 178.56,4.51 178.56,4.51 178.56,4.51 167.21,4.44 155.87,4.37 147.42,4.30 138.96,4.23 130.51,4.24 122.06,4.25 113.61,4.33 105.16,4.41 96.71,4.49 88.26,4.58 79.82,4.66 71.37,4.75 62.96,4.85 54.54,4.95 46.22,5.11 37.90,5.27 30.01,5.64 22.12,6.01 15.81,6.84 9.50,7.67 7.42,11.51 5.35,15.35 5.21,23.54 5.08,31.73 4.93,40.00 4.77,48.28 4.62,56.55 4.47,64.83 4.31,73.10 4.16,81.38 4.14,89.65 4.11,97.91 4.23,106.16 4.35,114.40 4.53,122.55 4.71,130.70 5.10,138.42 5.49,146.15 6.35,152.32 7.21,158.50 11.09,160.58 14.97,162.66 23.32,162.75 31.67,162.85 40.10,162.97 48.53,163.09 56.96,163.21 65.39,163.33 73.82,163.45 82.26,163.56 90.69,163.68 99.12,163.80 107.55,163.92 115.98,164.04 124.41,164.16 132.84,164.28 141.27,164.32 149.70,164.36 158.14,164.33 166.57,164.30 175.00,164.26 183.43,164.23 191.85,164.19 200.27,164.15 208.67,164.10 217.07,164.04 225.37,163.93 233.67,163.82 241.54,163.50 249.41,163.17 255.70,162.37 262.00,161.57 264.08,157.71 266.16,153.85 266.33,145.58 266.49,137.30 266.68,128.95 266.87,120.59 267.06,112.23 267.24,103.88 267.43,95.52 267.62,87.17 267.67,78.82 267.73,70.47 267.65,62.14 267.56,53.82 267.42,45.59 267.27,37.36 266.91,29.56 266.55,21.76 265.71,15.52 264.87,9.29 260.99,7.23 257.12,5.17 248.75,5.12 240.38,5.07 231.93,5.00 223.48,4.93 215.03,4.86 206.58,4.79 198.13,4.72 189.68,4.65 181.23,4.58 172.78,4.51 164.33,4.44 155.89,4.37 147.48,4.30 139.06,4.23 130.75,4.24 122.44,4.25 114.53,4.33 106.63,4.41 100.34,4.49 94.04,4.57 93.79,4.54 93.53,4.51 93.29,4.42 93.05,4.33 92.84,4.18 92.63,4.04 92.46,3.84 92.29,3.65 92.17,3.42 92.05,3.20 91.99,2.95 91.92,2.70 91.92,2.44 91.92,2.19 91.99,1.94 92.05,1.69 92.17,1.46 92.29,1.23 92.46,1.04 92.63,0.85 92.84,0.70 93.05,0.56 93.29,0.46 93.53,0.37 93.78,0.34 Z" fill="#36a64c" stroke="#36a64c" stroke-width="3.5" pointer-events="none"/></g><g text-align="left" text-anchor="start" fill="#ebbb38" transform="translate(196.62, 166.99) rotate(0.00, 47.50, 19.00)"><text y="14" letter-spacing="-0.84" font-size="28px" font-family="Caveat Brush" text-align="left" alignment-baseline="central" transform="scale(0.9835139714385606)">/products</text></g><g id="2b5ae72d-ba16-4501-23e7-019b56f50b50_svg" class="tl-centered-g" transform="translate(205.36, 300.68) rotate(0.23, 101.79, 52.54)"><path d="M 204.39,70.76 Q 204.39,70.76 204.66,75.45 204.92,80.13 205.18,86.15 205.43,92.17 202.32,97.17 199.21,102.18 191.57,103.55 183.92,104.92 175.67,105.10 167.42,105.27 159.02,105.23 150.61,105.19 142.15,105.10 133.69,105.01 125.22,104.90 116.75,104.80 108.27,104.79 99.80,104.79 91.32,104.89 82.85,104.99 74.37,105.08 65.89,105.18 57.42,105.28 48.94,105.38 40.47,105.48 31.99,105.58 23.43,105.65 14.87,105.73 9.26,102.66 3.65,99.58 2.08,93.68 0.51,87.78 0.29,81.64 0.07,75.51 0.11,69.38 0.16,63.26 0.09,57.13 0.03,50.99 -0.17,44.86 -0.38,38.73 -0.59,32.59 -0.79,26.46 -0.96,20.20 -1.13,13.94 1.98,8.89 5.09,3.84 12.70,2.37 20.30,0.90 28.50,0.63 36.69,0.35 45.05,0.29 53.40,0.23 61.80,0.22 70.20,0.21 78.61,0.21 87.02,0.21 95.43,0.11 103.85,0.02 112.26,-0.18 120.67,-0.38 129.09,-0.58 137.50,-0.78 145.92,-0.98 154.33,-1.18 162.74,-1.38 171.16,-1.58 179.66,-1.75 188.16,-1.93 193.77,1.09 199.37,4.13 201.01,10.15 202.64,16.16 202.95,22.44 203.26,28.72 203.32,35.00 203.37,41.28 203.53,47.57 203.69,53.86 203.99,60.16 204.30,66.45 204.65,74.90 204.99,83.35 204.94,83.76 204.88,84.17 204.69,84.54 204.51,84.91 204.21,85.20 203.92,85.49 203.55,85.67 203.17,85.86 202.76,85.91 202.35,85.96 201.94,85.88 201.54,85.80 201.18,85.60 200.82,85.39 200.54,85.08 200.27,84.77 200.10,84.39 199.94,84.01 199.91,83.59 199.88,83.18 199.98,82.78 200.08,82.38 200.31,82.03 200.53,81.68 200.86,81.42 201.18,81.17 201.57,81.02 201.96,80.88 202.38,80.87 202.79,80.86 203.19,80.99 203.58,81.11 203.92,81.36 204.25,81.60 204.49,81.94 204.73,82.28 204.85,82.67 204.97,83.07 204.96,83.48 204.95,83.90 204.80,84.29 204.66,84.67 204.40,85.00 204.13,85.32 203.78,85.54 203.43,85.76 203.03,85.86 202.63,85.96 202.21,85.92 201.80,85.89 201.42,85.72 201.04,85.55 200.73,85.28 200.43,85.00 200.23,84.64 200.02,84.27 199.95,83.87 199.87,83.46 199.87,83.46 199.87,83.46 199.85,75.00 199.82,66.55 199.84,60.26 199.86,53.96 199.70,47.69 199.55,41.42 199.17,35.23 198.80,29.04 198.23,23.21 197.66,17.37 196.67,12.69 195.68,8.00 191.78,5.87 187.87,3.74 179.55,3.76 171.22,3.77 162.80,3.77 154.39,3.76 145.97,3.75 137.55,3.75 129.14,3.74 120.72,3.73 112.31,3.73 103.89,3.72 95.48,3.82 87.06,3.92 78.66,4.12 70.25,4.33 61.87,4.54 53.49,4.76 45.20,5.03 36.92,5.29 29.04,5.74 21.16,6.19 14.90,6.99 8.64,7.80 6.57,11.09 4.50,14.38 4.41,20.40 4.32,26.42 4.20,32.56 4.09,38.69 3.97,44.82 3.86,50.96 3.92,57.07 3.98,63.18 4.26,69.21 4.54,75.24 5.02,80.92 5.50,86.60 6.43,91.18 7.36,95.75 11.28,97.89 15.21,100.04 23.60,100.13 31.99,100.21 40.47,100.32 48.95,100.43 57.42,100.54 65.90,100.65 74.37,100.76 82.85,100.87 91.32,100.97 99.80,101.08 108.27,101.09 116.75,101.09 125.22,100.99 133.68,100.89 142.13,100.77 150.57,100.65 158.92,100.49 167.26,100.32 175.20,99.97 183.13,99.62 189.43,98.90 195.73,98.19 197.77,94.98 199.81,91.77 199.80,86.01 199.80,80.25 199.86,75.55 199.92,70.86 199.95,70.59 199.97,70.32 200.06,70.07 200.15,69.81 200.30,69.59 200.45,69.36 200.65,69.18 200.85,68.99 201.08,68.86 201.32,68.73 201.58,68.66 201.84,68.59 202.11,68.59 202.38,68.58 202.64,68.64 202.90,68.70 203.15,68.82 203.39,68.94 203.59,69.11 203.80,69.29 203.96,69.51 204.12,69.72 204.22,69.97 204.32,70.22 204.36,70.49 Z" fill="#ebbb38" stroke="#ebbb38" stroke-width="3.5" pointer-events="none"/></g><g text-align="left" text-anchor="start" fill="#cecece" transform="translate(908.11, 420.34) rotate(0.00, 95.00, 29.00)"><text y="24" letter-spacing="-1.44" font-size="48px" font-family="Caveat Brush" text-align="left" alignment-baseline="central" transform="translate(0, 0)">/products/5</text></g><g text-align="left" text-anchor="start" fill="#cecece" transform="translate(907.15, 329.83) rotate(0.00, 79.00, 29.00)"><text y="24" letter-spacing="-1.44" font-size="48px" font-family="Caveat Brush" text-align="left" alignment-baseline="central" transform="translate(0, 0)">/products</text></g><g text-align="left" text-anchor="start" fill="#cecece" transform="translate(915.39, 244.06) rotate(0.00, 11.00, 29.00)"><text y="24" letter-spacing="-1.44" font-size="48px" font-family="Caveat Brush" text-align="left" alignment-baseline="central" transform="translate(0, 0)">/</text></g><g id="36918bf5-3536-42d0-309f-74b27e4bb282_svg" class="tl-centered-g" transform="translate(1148.49, 253.25) rotate(0.00, 26.34, 16.56)"><path d="M 51.76,21.12 Q 51.76,21.12 51.77,22.29 51.77,23.46 51.77,24.93 51.77,26.40 50.28,28.26 48.79,30.13 46.12,30.65 43.45,31.18 40.47,31.36 37.50,31.54 34.45,31.64 31.40,31.73 28.33,31.81 25.25,31.88 22.18,31.95 19.10,32.02 16.02,32.08 12.95,32.15 9.87,32.21 6.79,32.28 4.52,30.81 2.24,29.33 1.70,27.70 1.17,26.06 1.07,24.39 0.98,22.71 1.00,21.02 1.02,19.34 1.06,17.65 1.11,15.96 1.17,14.27 1.22,12.57 1.28,10.88 1.34,9.19 1.39,7.50 1.45,5.81 2.96,3.89 4.46,1.97 7.09,1.52 9.72,1.07 12.64,1.00 15.56,0.93 18.55,0.95 21.55,0.97 24.56,1.02 27.57,1.06 30.58,1.12 33.60,1.17 36.62,1.22 39.63,1.28 42.65,1.33 45.67,1.39 47.93,2.89 50.19,4.40 50.77,5.95 51.34,7.50 51.49,9.07 51.64,10.63 51.68,12.20 51.72,13.77 51.74,15.34 51.75,16.91 51.75,18.48 51.76,20.05 51.76,22.16" fill="#345246" pointer-events="none"/><path d="M 53.04,21.12 Q 53.04,21.12 53.14,22.29 53.23,23.46 53.29,25.04 53.34,26.62 51.60,28.96 49.85,31.30 46.79,31.96 43.73,32.61 40.65,32.72 37.58,32.82 34.50,32.82 31.43,32.83 28.36,32.90 25.28,32.97 22.21,33.13 19.13,33.29 16.05,33.45 12.98,33.61 9.82,33.75 6.67,33.88 3.93,32.20 1.20,30.53 0.49,28.52 -0.22,26.51 -0.25,24.64 -0.29,22.78 -0.18,21.05 -0.07,19.32 -0.02,17.62 0.02,15.93 -0.01,14.23 -0.05,12.53 -0.08,10.84 -0.12,9.14 -0.12,7.36 -0.12,5.57 1.65,3.18 3.43,0.79 6.45,0.21 9.48,-0.36 12.51,-0.35 15.53,-0.34 18.54,-0.23 21.56,-0.11 24.57,-0.07 27.59,-0.02 30.60,-0.06 33.62,-0.10 36.64,-0.14 39.66,-0.18 42.75,-0.19 45.84,-0.21 48.53,1.48 51.22,3.17 51.97,5.09 52.72,7.00 52.82,8.76 52.92,10.51 52.87,12.13 52.82,13.74 52.83,15.32 52.84,16.90 52.94,18.47 53.04,20.05 53.14,22.15 53.23,24.26 53.20,24.50 53.16,24.73 53.05,24.94 52.94,25.15 52.77,25.31 52.59,25.47 52.38,25.57 52.16,25.67 51.93,25.70 51.69,25.73 51.46,25.68 51.23,25.63 51.03,25.50 50.82,25.38 50.67,25.20 50.52,25.02 50.43,24.80 50.34,24.58 50.33,24.35 50.31,24.11 50.38,23.88 50.44,23.65 50.57,23.46 50.70,23.26 50.89,23.12 51.08,22.97 51.31,22.90 51.53,22.82 51.77,22.82 52.00,22.82 52.23,22.89 52.45,22.97 52.64,23.11 52.83,23.26 52.96,23.45 53.10,23.65 53.16,23.88 53.22,24.10 53.21,24.34 53.20,24.58 53.11,24.80 53.03,25.02 52.87,25.20 52.72,25.38 52.52,25.50 52.31,25.62 52.08,25.68 51.85,25.73 51.62,25.70 51.38,25.68 51.17,25.58 50.95,25.48 50.78,25.32 50.61,25.15 50.49,24.94 50.38,24.73 50.34,24.50 50.31,24.27 50.31,24.27 50.31,24.27 50.39,22.16 50.48,20.05 50.57,18.49 50.66,16.92 50.64,15.36 50.63,13.80 50.50,12.28 50.37,10.75 50.17,9.38 49.97,8.00 49.56,6.81 49.15,5.62 47.33,4.31 45.50,2.99 42.55,2.87 39.61,2.74 36.59,2.59 33.58,2.45 30.56,2.30 27.55,2.16 24.55,2.11 21.54,2.06 18.57,2.13 15.59,2.20 12.78,2.36 9.97,2.52 7.73,2.83 5.49,3.15 4.26,4.60 3.03,6.05 2.92,7.65 2.80,9.24 2.65,10.93 2.50,12.62 2.35,14.30 2.21,15.99 2.16,17.67 2.11,19.35 2.18,20.99 2.26,22.64 2.41,24.13 2.56,25.62 2.92,26.88 3.29,28.14 5.10,29.41 6.92,30.68 9.92,30.68 12.92,30.68 15.99,30.71 19.07,30.74 22.15,30.76 25.23,30.79 28.30,30.71 31.36,30.64 34.39,30.45 37.42,30.27 40.30,30.00 43.17,29.74 45.45,29.35 47.74,28.96 48.97,27.57 50.20,26.18 50.25,24.82 50.30,23.47 50.39,22.30 50.49,21.13 50.50,20.97 50.52,20.82 50.58,20.68 50.63,20.53 50.72,20.41 50.81,20.28 50.92,20.18 51.04,20.07 51.17,20.00 51.31,19.93 51.46,19.89 51.61,19.86 51.76,19.86 51.92,19.86 52.07,19.89 52.22,19.93 52.35,20.00 52.49,20.07 52.60,20.17 52.72,20.28 52.81,20.40 52.89,20.53 52.95,20.67 53.00,20.82 53.02,20.97 Z" fill="#36a64c" stroke="#36a64c" stroke-width="2" pointer-events="none"/></g><g id="1773ff72-ffb4-4e9b-1904-c15abe825886_svg" class="tl-centered-g" transform="translate(1213.78, 253.16) rotate(0.00, 26.34, 16.56)"><path d="M 1.07,11.12 Q 1.07,11.12 1.09,9.88 1.11,8.64 1.13,7.08 1.16,5.52 2.65,3.63 4.15,1.75 6.76,1.32 9.38,0.90 12.28,0.84 15.18,0.79 18.15,0.84 21.12,0.88 24.11,0.95 27.10,1.01 30.09,1.09 33.09,1.16 36.09,1.23 39.08,1.31 42.08,1.38 45.07,1.46 47.33,2.97 49.58,4.48 50.19,6.10 50.81,7.73 51.00,9.38 51.19,11.03 51.28,12.70 51.36,14.36 51.42,16.02 51.48,17.68 51.53,19.35 51.59,21.01 51.64,22.68 51.69,24.34 51.74,26.00 51.79,27.67 50.31,29.58 48.83,31.50 46.17,31.93 43.50,32.36 40.53,32.42 37.56,32.47 34.52,32.43 31.47,32.39 28.41,32.33 25.34,32.26 22.27,32.19 19.20,32.12 16.13,32.04 13.06,31.97 9.99,31.89 6.91,31.82 4.64,30.31 2.37,28.80 1.81,27.18 1.25,25.55 1.12,23.90 1.00,22.24 0.99,20.58 0.97,18.92 0.99,17.25 1.01,15.59 1.03,13.92 1.05,12.26 1.09,10.02" fill="#345246" pointer-events="none"/><path d="M -0.20,11.10 Q -0.20,11.10 -0.27,9.85 -0.35,8.61 -0.38,6.95 -0.41,5.29 1.35,2.93 3.12,0.56 6.13,0.01 9.14,-0.54 12.15,-0.51 15.15,-0.48 18.14,-0.34 21.13,-0.20 24.13,-0.14 27.12,-0.07 30.12,-0.09 33.12,-0.11 36.12,-0.13 39.12,-0.15 42.19,-0.14 45.25,-0.14 47.93,1.55 50.62,3.25 51.40,5.24 52.18,7.22 52.32,9.05 52.46,10.89 52.46,12.59 52.46,14.30 52.51,15.97 52.57,17.65 52.72,19.31 52.86,20.97 53.01,22.63 53.15,24.30 53.25,26.08 53.36,27.86 51.61,30.27 49.86,32.67 46.79,33.24 43.73,33.81 40.66,33.78 37.59,33.75 34.52,33.62 31.46,33.48 28.39,33.42 25.32,33.35 22.24,33.37 19.17,33.39 16.10,33.41 13.02,33.43 9.88,33.43 6.74,33.43 4.03,31.72 1.32,30.01 0.59,28.01 -0.13,26.02 -0.20,24.18 -0.27,22.34 -0.19,20.63 -0.11,18.92 -0.09,17.25 -0.08,15.58 -0.15,13.91 -0.21,12.24 -0.27,10.00 -0.33,7.76 -0.29,7.53 -0.25,7.30 -0.13,7.09 -0.02,6.88 0.14,6.72 0.32,6.56 0.53,6.47 0.75,6.37 0.99,6.35 1.22,6.33 1.45,6.38 1.68,6.43 1.89,6.56 2.09,6.68 2.24,6.87 2.39,7.05 2.47,7.27 2.56,7.49 2.57,7.73 2.57,7.97 2.51,8.19 2.44,8.42 2.30,8.61 2.17,8.81 1.98,8.95 1.79,9.09 1.56,9.16 1.34,9.23 1.10,9.23 0.86,9.23 0.64,9.15 0.42,9.07 0.23,8.92 0.04,8.78 -0.08,8.58 -0.21,8.38 -0.27,8.15 -0.33,7.92 -0.31,7.69 -0.29,7.45 -0.20,7.23 -0.11,7.01 0.03,6.83 0.19,6.66 0.40,6.54 0.60,6.42 0.83,6.37 1.06,6.32 1.30,6.35 1.53,6.38 1.75,6.48 1.96,6.59 2.13,6.75 2.30,6.92 2.41,7.13 2.52,7.34 2.55,7.57 2.59,7.81 2.59,7.81 2.59,7.81 2.46,10.04 2.33,12.27 2.22,13.94 2.10,15.60 2.08,17.25 2.07,18.91 2.17,20.53 2.27,22.15 2.45,23.62 2.63,25.09 3.02,26.34 3.41,27.60 5.25,28.91 7.09,30.21 10.09,30.36 13.09,30.50 16.16,30.67 19.23,30.84 22.30,31.00 25.36,31.17 28.43,31.23 31.49,31.30 34.51,31.25 37.54,31.19 40.40,31.06 43.27,30.92 45.54,30.62 47.81,30.32 49.01,28.90 50.21,27.48 50.22,25.93 50.22,24.38 50.27,22.72 50.31,21.05 50.35,19.39 50.39,17.72 50.33,16.07 50.27,14.41 50.10,12.80 49.92,11.18 49.68,9.71 49.43,8.23 48.99,6.97 48.55,5.70 46.72,4.38 44.90,3.06 41.97,2.92 39.04,2.77 36.05,2.60 33.06,2.44 30.07,2.27 27.07,2.10 24.09,2.04 21.10,1.97 18.15,2.02 15.20,2.07 12.40,2.21 9.61,2.34 7.39,2.64 5.17,2.93 3.95,4.34 2.73,5.75 2.65,7.21 2.57,8.66 2.46,9.90 2.35,11.14 2.33,11.29 2.31,11.44 2.25,11.58 2.19,11.73 2.10,11.85 2.01,11.98 1.90,12.08 1.78,12.18 1.64,12.25 1.50,12.32 1.35,12.35 1.20,12.39 1.05,12.39 0.90,12.38 0.75,12.34 0.60,12.30 0.46,12.23 0.33,12.16 0.21,12.05 0.10,11.95 0.01,11.82 -0.06,11.69 -0.11,11.55 -0.17,11.40 -0.18,11.25 Z" fill="#36a64c" stroke="#36a64c" stroke-width="2" pointer-events="none"/></g><g id="9bc36c89-d22a-4d54-0961-fa0b6bbb0961_svg" class="tl-centered-g" transform="translate(1280.90, 253.25) rotate(0.00, 26.34, 16.56)"><path d="M 0.49,11.78 Q 0.49,11.78 0.50,10.57 0.51,9.37 0.52,7.86 0.53,6.34 2.02,4.47 3.52,2.59 6.17,2.09 8.83,1.59 11.78,1.45 14.74,1.30 17.76,1.24 20.79,1.18 23.84,1.14 26.89,1.11 29.94,1.08 33.00,1.05 36.05,1.02 39.11,0.99 42.16,0.96 45.22,0.93 47.49,2.41 49.75,3.90 50.32,5.52 50.89,7.13 51.02,8.79 51.15,10.44 51.17,12.10 51.19,13.76 51.19,15.43 51.18,17.09 51.17,18.76 51.15,20.42 51.14,22.09 51.12,23.75 51.10,25.42 51.09,27.08 49.59,29.00 48.10,30.91 45.45,31.38 42.79,31.86 39.84,31.97 36.90,32.07 33.87,32.09 30.85,32.10 27.80,32.09 24.76,32.08 21.71,32.06 18.66,32.04 15.61,32.03 12.56,32.01 9.51,31.99 6.46,31.97 4.20,30.47 1.93,28.98 1.36,27.39 0.79,25.81 0.65,24.20 0.52,22.59 0.49,20.97 0.46,19.36 0.47,17.74 0.47,16.12 0.48,14.50 0.49,12.89 0.50,10.72" fill="#345246" pointer-events="none"/><path d="M -0.78,11.77 Q -0.78,11.77 -0.86,10.56 -0.95,9.36 -0.99,7.74 -1.03,6.12 0.71,3.77 2.46,1.42 5.51,0.79 8.56,0.15 11.62,0.09 14.67,0.02 17.72,0.05 20.77,0.09 23.83,0.05 26.88,0.01 29.93,-0.10 32.98,-0.22 36.04,-0.34 39.09,-0.47 42.22,-0.56 45.36,-0.66 48.07,1.01 50.79,2.69 51.53,4.68 52.27,6.66 52.35,8.50 52.43,10.34 52.36,12.04 52.29,13.75 52.28,15.42 52.27,17.10 52.35,18.76 52.43,20.43 52.51,22.10 52.59,23.77 52.63,25.53 52.67,27.30 50.90,29.69 49.14,32.08 46.10,32.69 43.05,33.30 40.00,33.33 36.94,33.35 33.90,33.27 30.85,33.19 27.80,33.18 24.76,33.17 21.71,33.25 18.66,33.32 15.61,33.40 12.56,33.47 9.43,33.52 6.31,33.58 3.60,31.88 0.89,30.19 0.15,28.24 -0.58,26.29 -0.66,24.49 -0.75,22.70 -0.68,21.03 -0.62,19.37 -0.62,17.75 -0.62,16.12 -0.70,14.50 -0.78,12.88 -0.86,10.71 -0.94,8.53 -0.90,8.30 -0.86,8.07 -0.75,7.86 -0.64,7.65 -0.46,7.49 -0.29,7.33 -0.07,7.23 0.13,7.13 0.37,7.11 0.60,7.08 0.83,7.13 1.07,7.19 1.27,7.31 1.47,7.43 1.62,7.62 1.77,7.80 1.86,8.02 1.95,8.24 1.96,8.48 1.97,8.71 1.90,8.94 1.84,9.17 1.70,9.36 1.57,9.56 1.38,9.70 1.19,9.84 0.97,9.92 0.74,9.99 0.50,9.99 0.27,9.99 0.04,9.91 -0.17,9.83 -0.36,9.69 -0.55,9.54 -0.68,9.35 -0.81,9.15 -0.87,8.92 -0.93,8.69 -0.92,8.46 -0.90,8.22 -0.81,8.00 -0.73,7.78 -0.57,7.60 -0.42,7.42 -0.21,7.30 -0.01,7.18 0.21,7.13 0.45,7.08 0.68,7.11 0.92,7.14 1.13,7.24 1.34,7.34 1.52,7.50 1.69,7.67 1.80,7.88 1.91,8.09 1.94,8.32 1.98,8.55 1.98,8.55 1.98,8.55 1.87,10.72 1.76,12.89 1.66,14.51 1.56,16.12 1.56,17.73 1.56,19.34 1.67,20.91 1.79,22.48 1.98,23.90 2.17,25.32 2.57,26.55 2.97,27.77 4.79,29.06 6.62,30.36 9.60,30.45 12.57,30.54 15.62,30.65 18.67,30.77 21.72,30.87 24.76,30.98 27.80,31.00 30.84,31.01 33.85,30.90 36.85,30.79 39.69,30.61 42.54,30.42 44.80,30.08 47.06,29.74 48.28,28.30 49.51,26.86 49.58,25.30 49.66,23.74 49.77,22.07 49.87,20.41 49.98,18.75 50.09,17.09 50.09,15.43 50.10,13.78 49.99,12.16 49.88,10.54 49.69,9.07 49.50,7.61 49.11,6.36 48.72,5.11 46.90,3.82 45.08,2.54 42.10,2.49 39.12,2.45 36.07,2.39 33.01,2.32 29.96,2.26 26.90,2.20 23.86,2.24 20.81,2.27 17.81,2.42 14.80,2.57 11.95,2.80 9.10,3.03 6.83,3.40 4.57,3.76 3.33,5.17 2.10,6.57 2.04,7.98 1.97,9.38 1.87,10.58 1.77,11.79 1.75,11.94 1.73,12.09 1.67,12.24 1.62,12.38 1.53,12.51 1.44,12.63 1.33,12.74 1.21,12.84 1.07,12.91 0.94,12.98 0.79,13.01 0.64,13.05 0.48,13.05 0.33,13.05 0.18,13.01 0.03,12.97 -0.10,12.90 -0.23,12.83 -0.35,12.72 -0.46,12.62 -0.55,12.49 -0.64,12.37 -0.69,12.22 -0.74,12.08 -0.76,11.92 Z" fill="#36a64c" stroke="#36a64c" stroke-width="2" pointer-events="none"/></g><g id="9f0de711-e5e7-485c-1460-18926d791888_svg" class="tl-centered-g" transform="translate(1148.53, 339.52) rotate(0.00, 26.34, 16.56)"><path d="M 35.64,0.91 Q 35.64,0.91 37.92,0.88 40.19,0.84 43.05,0.80 45.91,0.75 48.13,2.23 50.35,3.71 50.93,5.32 51.51,6.92 51.67,8.56 51.84,10.20 51.89,11.85 51.95,13.50 51.98,15.15 52.01,16.80 52.03,18.45 52.06,20.10 52.08,21.75 52.10,23.40 52.12,25.05 52.14,26.70 50.65,28.61 49.17,30.52 46.53,31.00 43.89,31.47 40.96,31.58 38.03,31.69 35.02,31.71 32.01,31.72 28.98,31.72 25.96,31.71 22.93,31.70 19.89,31.68 16.86,31.67 13.83,31.65 10.79,31.64 7.76,31.62 5.50,30.13 3.23,28.64 2.62,27.07 2.01,25.51 1.83,23.93 1.64,22.35 1.56,20.76 1.48,19.17 1.42,17.59 1.37,16.00 1.32,14.41 1.28,12.83 1.23,11.24 1.19,9.65 1.15,8.06 1.10,6.48 2.58,4.58 4.06,2.69 6.71,2.17 9.37,1.65 12.32,1.48 15.28,1.31 18.31,1.24 21.34,1.16 24.39,1.10 27.44,1.05 30.49,1.00 33.55,0.95 37.65,0.88" fill="#345246" pointer-events="none"/><path d="M 35.62,-0.36 Q 35.62,-0.36 37.90,-0.48 40.17,-0.61 43.11,-0.73 46.05,-0.84 48.72,0.82 51.39,2.49 52.14,4.46 52.89,6.43 53.00,8.25 53.11,10.07 53.08,11.77 53.04,13.46 53.07,15.12 53.10,16.78 53.22,18.43 53.33,20.08 53.45,21.73 53.56,23.38 53.64,25.14 53.71,26.90 51.96,29.30 50.21,31.69 47.18,32.30 44.15,32.91 41.11,32.94 38.07,32.97 35.05,32.89 32.02,32.82 28.99,32.81 25.95,32.80 22.92,32.88 19.89,32.96 16.85,33.04 13.82,33.12 10.71,33.17 7.61,33.23 4.91,31.55 2.21,29.87 1.43,27.95 0.65,26.03 0.51,24.26 0.37,22.50 0.38,20.86 0.39,19.23 0.33,17.63 0.28,16.04 0.14,14.45 0.00,12.86 -0.13,11.28 -0.26,9.69 -0.36,7.99 -0.46,6.28 1.27,3.90 3.00,1.52 6.05,0.87 9.09,0.21 12.15,0.12 15.20,0.04 18.26,0.05 21.31,0.06 24.36,0.01 27.42,-0.04 30.47,-0.18 33.53,-0.32 37.63,-0.48 41.73,-0.64 41.96,-0.60 42.20,-0.57 42.41,-0.46 42.62,-0.35 42.79,-0.18 42.95,-0.01 43.05,0.19 43.16,0.40 43.19,0.64 43.22,0.87 43.17,1.11 43.12,1.34 43.00,1.54 42.88,1.75 42.71,1.90 42.53,2.06 42.31,2.15 42.09,2.24 41.85,2.26 41.62,2.27 41.39,2.21 41.16,2.16 40.96,2.03 40.76,1.90 40.62,1.71 40.47,1.52 40.39,1.30 40.31,1.08 40.31,0.84 40.30,0.60 40.38,0.38 40.45,0.15 40.59,-0.03 40.73,-0.22 40.92,-0.36 41.12,-0.49 41.34,-0.56 41.57,-0.63 41.81,-0.62 42.05,-0.61 42.27,-0.52 42.49,-0.44 42.67,-0.29 42.85,-0.14 42.98,0.05 43.10,0.25 43.16,0.48 43.21,0.71 43.19,0.95 43.17,1.19 43.07,1.40 42.98,1.62 42.82,1.79 42.66,1.97 42.45,2.08 42.24,2.20 42.01,2.24 41.78,2.28 41.78,2.28 41.78,2.28 37.67,2.25 33.57,2.22 30.51,2.18 27.46,2.14 24.41,2.19 21.37,2.25 18.36,2.42 15.35,2.59 12.50,2.84 9.65,3.09 7.38,3.47 5.12,3.85 3.90,5.26 2.67,6.67 2.66,8.14 2.65,9.61 2.61,11.20 2.56,12.79 2.51,14.38 2.46,15.96 2.52,17.54 2.57,19.12 2.74,20.66 2.91,22.20 3.14,23.59 3.38,24.99 3.82,26.19 4.26,27.40 6.09,28.71 7.91,30.02 10.87,30.10 13.83,30.19 16.87,30.30 19.90,30.40 22.93,30.51 25.96,30.62 28.98,30.62 32.01,30.63 34.99,30.52 37.98,30.41 40.81,30.22 43.63,30.03 45.88,29.69 48.13,29.35 49.35,27.92 50.57,26.49 50.60,24.95 50.63,23.42 50.71,21.76 50.78,20.11 50.85,18.46 50.92,16.82 50.89,15.17 50.86,13.53 50.71,11.93 50.56,10.33 50.35,8.87 50.13,7.41 49.72,6.17 49.31,4.92 47.54,3.64 45.77,2.35 42.99,2.33 40.22,2.31 37.94,2.25 35.66,2.19 35.51,2.17 35.35,2.16 35.21,2.11 35.06,2.05 34.94,1.97 34.81,1.88 34.70,1.77 34.60,1.65 34.53,1.52 34.45,1.38 34.41,1.24 34.37,1.09 34.37,0.93 34.37,0.78 34.40,0.63 34.44,0.48 34.51,0.34 34.58,0.20 34.68,0.09 34.78,-0.02 34.90,-0.11 35.03,-0.20 35.17,-0.26 35.31,-0.31 35.47,-0.34 Z" fill="#36a64c" stroke="#36a64c" stroke-width="2" pointer-events="none"/></g><g id="d566a2bf-f975-41f2-1b10-f33514e1fff1_svg" class="tl-centered-g" transform="translate(1213.82, 339.43) rotate(0.00, 26.34, 16.56)"><path d="M 51.75,21.33 Q 51.75,21.33 51.80,22.60 51.84,23.87 51.90,25.46 51.95,27.05 50.48,28.94 49.00,30.84 46.30,31.30 43.60,31.77 40.59,31.86 37.58,31.96 34.49,31.96 31.39,31.97 28.28,31.95 25.17,31.93 22.05,31.90 18.94,31.88 15.82,31.85 12.70,31.82 9.58,31.79 6.46,31.76 4.18,30.27 1.89,28.77 1.35,27.17 0.80,25.56 0.70,23.93 0.60,22.30 0.62,20.66 0.63,19.02 0.67,17.38 0.71,15.74 0.76,14.10 0.81,12.46 0.86,10.82 0.92,9.18 0.97,7.54 1.02,5.90 2.52,3.99 4.03,2.08 6.65,1.57 9.27,1.06 12.18,0.90 15.09,0.75 18.08,0.68 21.06,0.62 24.06,0.58 27.06,0.54 30.07,0.50 33.07,0.47 36.08,0.43 39.09,0.40 42.10,0.37 45.10,0.33 47.36,1.82 49.62,3.30 50.24,4.94 50.86,6.59 51.06,8.28 51.26,9.96 51.36,11.66 51.45,13.36 51.52,15.06 51.59,16.76 51.65,18.46 51.71,20.17 51.79,22.45" fill="#345246" pointer-events="none"/><path d="M 53.03,21.29 Q 53.03,21.29 53.17,22.55 53.31,23.82 53.41,25.53 53.52,27.24 51.78,29.63 50.04,32.01 46.94,32.61 43.85,33.21 40.73,33.22 37.62,33.24 34.51,33.15 31.40,33.06 28.28,33.04 25.16,33.02 22.04,33.09 18.93,33.15 15.81,33.22 12.69,33.28 9.50,33.33 6.31,33.37 3.58,31.67 0.85,29.97 0.13,27.99 -0.58,26.02 -0.62,24.20 -0.66,22.38 -0.56,20.70 -0.45,19.01 -0.41,17.36 -0.37,15.71 -0.41,14.07 -0.45,12.42 -0.50,10.78 -0.54,9.13 -0.54,7.39 -0.55,5.66 1.20,3.29 2.97,0.91 5.98,0.27 9.00,-0.37 12.01,-0.44 15.03,-0.52 18.03,-0.49 21.04,-0.46 24.04,-0.50 27.05,-0.54 30.05,-0.67 33.06,-0.80 36.07,-0.93 39.07,-1.05 42.16,-1.16 45.24,-1.26 47.94,0.40 50.65,2.07 51.44,4.08 52.23,6.08 52.38,7.95 52.53,9.81 52.54,11.56 52.54,13.30 52.61,15.01 52.68,16.72 52.84,18.42 52.99,20.12 53.16,22.40 53.34,24.68 53.31,24.92 53.28,25.15 53.17,25.37 53.07,25.58 52.90,25.75 52.74,25.92 52.52,26.02 52.31,26.13 52.08,26.16 51.84,26.20 51.61,26.16 51.38,26.11 51.17,26.00 50.96,25.88 50.80,25.71 50.65,25.53 50.55,25.32 50.45,25.10 50.43,24.86 50.41,24.63 50.47,24.40 50.52,24.17 50.65,23.97 50.77,23.77 50.96,23.62 51.14,23.47 51.36,23.38 51.59,23.30 51.82,23.29 52.06,23.28 52.29,23.35 52.51,23.42 52.71,23.55 52.90,23.69 53.04,23.88 53.18,24.07 53.25,24.30 53.32,24.53 53.32,24.76 53.31,25.00 53.23,25.22 53.15,25.45 53.01,25.63 52.86,25.82 52.66,25.95 52.46,26.08 52.23,26.13 52.00,26.19 51.77,26.18 51.53,26.16 51.31,26.07 51.09,25.97 50.92,25.82 50.74,25.66 50.62,25.46 50.50,25.25 50.46,25.02 50.41,24.79 50.41,24.79 50.41,24.79 50.42,22.50 50.43,20.21 50.47,18.51 50.50,16.81 50.43,15.11 50.36,13.42 50.18,11.77 49.99,10.12 49.74,8.61 49.48,7.09 49.04,5.81 48.59,4.52 46.78,3.23 44.97,1.94 42.04,1.90 39.11,1.86 36.10,1.81 33.09,1.75 30.08,1.69 27.08,1.63 24.08,1.67 21.08,1.71 18.12,1.87 15.16,2.03 12.36,2.26 9.55,2.50 7.32,2.87 5.08,3.25 3.84,4.69 2.60,6.14 2.49,7.68 2.38,9.22 2.24,10.86 2.09,12.50 1.95,14.13 1.81,15.77 1.77,17.40 1.72,19.03 1.80,20.63 1.88,22.22 2.04,23.66 2.19,25.10 2.56,26.34 2.94,27.57 4.78,28.86 6.62,30.16 9.67,30.26 12.71,30.36 15.83,30.48 18.95,30.60 22.06,30.72 25.18,30.83 28.29,30.85 31.39,30.87 34.46,30.78 37.54,30.68 40.45,30.50 43.36,30.32 45.66,29.99 47.97,29.67 49.18,28.26 50.38,26.86 50.38,25.39 50.38,23.92 50.43,22.65 50.48,21.38 50.49,21.22 50.50,21.07 50.55,20.92 50.60,20.78 50.69,20.65 50.77,20.52 50.88,20.41 50.99,20.30 51.13,20.23 51.26,20.15 51.41,20.11 51.56,20.07 51.71,20.06 51.86,20.06 52.02,20.09 52.17,20.12 52.30,20.19 52.44,20.25 52.56,20.35 52.68,20.45 52.77,20.57 52.87,20.70 52.92,20.84 52.98,20.98 53.01,21.13 Z" fill="#36a64c" stroke="#36a64c" stroke-width="2" pointer-events="none"/></g><g id="94a2e2d6-7a8b-4c8b-095f-8f8b937f0222_svg" class="tl-centered-g" transform="translate(1280.94, 339.52) rotate(0.00, 26.34, 16.56)"><path d="M 17.47,31.72 Q 17.47,31.72 15.19,31.65 12.90,31.59 10.03,31.51 7.16,31.43 4.94,29.91 2.72,28.40 2.15,26.79 1.59,25.18 1.44,23.54 1.30,21.90 1.26,20.25 1.22,18.61 1.21,16.96 1.20,15.31 1.20,13.66 1.20,12.02 1.20,10.37 1.19,8.72 1.19,7.07 1.19,5.42 2.68,3.51 4.17,1.60 6.82,1.14 9.47,0.67 12.42,0.57 15.36,0.47 18.38,0.47 21.40,0.47 24.44,0.49 27.48,0.51 30.53,0.53 33.57,0.56 36.62,0.59 39.67,0.61 42.71,0.64 45.76,0.67 48.03,2.17 50.29,3.66 50.89,5.32 51.48,6.97 51.65,8.66 51.82,10.36 51.88,12.06 51.93,13.77 51.97,15.47 52.00,17.18 52.02,18.89 52.05,20.60 52.07,22.30 52.09,24.01 52.11,25.72 52.13,27.43 50.65,29.35 49.17,31.28 46.50,31.70 43.84,32.13 40.87,32.17 37.91,32.22 34.87,32.16 31.83,32.11 28.76,32.03 25.70,31.95 22.64,31.86 19.57,31.78 15.45,31.66" fill="#345246" pointer-events="none"/><path d="M 17.44,33.00 Q 17.44,33.00 15.15,33.03 12.86,33.05 9.92,33.04 6.98,33.03 4.32,31.32 1.67,29.61 0.94,27.63 0.20,25.65 0.11,23.83 0.02,22.01 0.08,20.32 0.13,18.63 0.12,16.98 0.11,15.32 0.01,13.67 -0.07,12.02 -0.17,10.37 -0.26,8.72 -0.32,6.97 -0.37,5.21 1.38,2.82 3.13,0.43 6.18,-0.16 9.22,-0.76 12.27,-0.78 15.32,-0.79 18.36,-0.70 21.40,-0.62 24.45,-0.60 27.49,-0.58 30.54,-0.64 33.58,-0.71 36.63,-0.78 39.68,-0.84 42.80,-0.88 45.92,-0.93 48.62,0.76 51.33,2.45 52.10,4.47 52.86,6.49 52.97,8.36 53.09,10.23 53.06,11.98 53.03,13.73 53.06,15.45 53.09,17.16 53.21,18.87 53.32,20.58 53.44,22.29 53.56,23.99 53.63,25.81 53.71,27.63 51.95,30.04 50.19,32.45 47.13,33.01 44.07,33.58 41.00,33.53 37.93,33.49 34.87,33.35 31.81,33.20 28.74,33.12 25.67,33.04 22.60,33.05 19.54,33.06 15.41,33.03 11.29,33.01 11.06,32.96 10.83,32.92 10.62,32.80 10.42,32.68 10.26,32.51 10.10,32.33 10.01,32.11 9.91,31.90 9.90,31.66 9.88,31.42 9.93,31.19 9.99,30.96 10.12,30.76 10.25,30.57 10.43,30.42 10.62,30.27 10.84,30.19 11.06,30.11 11.30,30.10 11.54,30.09 11.76,30.16 11.99,30.23 12.18,30.37 12.37,30.51 12.51,30.70 12.65,30.90 12.72,31.12 12.79,31.35 12.78,31.59 12.77,31.82 12.69,32.04 12.61,32.27 12.46,32.45 12.31,32.64 12.11,32.76 11.91,32.89 11.68,32.95 11.45,33.00 11.22,32.98 10.98,32.96 10.76,32.87 10.55,32.78 10.37,32.62 10.19,32.46 10.08,32.25 9.96,32.05 9.92,31.81 9.87,31.58 9.90,31.35 9.94,31.11 10.04,30.90 10.15,30.69 10.32,30.52 10.48,30.35 10.70,30.25 10.91,30.14 11.14,30.11 11.38,30.08 11.38,30.08 11.38,30.08 15.49,30.29 19.61,30.50 22.67,30.68 25.73,30.86 28.79,30.94 31.84,31.01 34.87,30.98 37.89,30.94 40.75,30.81 43.61,30.68 45.88,30.39 48.14,30.10 49.35,28.66 50.56,27.23 50.59,25.63 50.63,24.03 50.70,22.32 50.77,20.61 50.84,18.91 50.90,17.20 50.87,15.50 50.84,13.81 50.69,12.15 50.54,10.48 50.32,8.97 50.10,7.46 49.68,6.17 49.25,4.88 47.43,3.58 45.60,2.27 42.63,2.18 39.65,2.08 36.61,1.96 33.56,1.84 30.52,1.72 27.48,1.60 24.44,1.58 21.41,1.56 18.41,1.66 15.40,1.75 12.56,1.93 9.72,2.11 7.47,2.44 5.21,2.78 3.99,4.21 2.77,5.64 2.71,7.18 2.66,8.72 2.57,10.37 2.48,12.01 2.39,13.66 2.30,15.31 2.31,16.94 2.32,18.58 2.44,20.18 2.57,21.79 2.77,23.24 2.97,24.70 3.37,25.95 3.77,27.20 5.56,28.51 7.35,29.82 10.15,29.97 12.94,30.13 15.23,30.28 17.51,30.44 17.66,30.46 17.81,30.49 17.96,30.55 18.10,30.60 18.22,30.70 18.35,30.79 18.45,30.91 18.54,31.02 18.61,31.16 18.68,31.30 18.71,31.45 18.74,31.60 18.74,31.76 18.74,31.91 18.70,32.06 18.65,32.21 18.58,32.34 18.50,32.48 18.40,32.59 18.29,32.70 18.16,32.78 18.03,32.87 17.89,32.92 17.74,32.97 17.59,32.98 Z" fill="#36a64c" stroke="#36a64c" stroke-width="2" pointer-events="none"/></g><g id="3372b79b-eddf-48b9-2485-00ed9ccea2b7_svg" class="tl-centered-g" transform="translate(1154.35, 430.42) rotate(0.00, 26.34, 16.56)"><path d="M 35.50,1.08 Q 35.50,1.08 37.74,1.03 39.98,0.99 42.80,0.94 45.61,0.89 47.82,2.37 50.03,3.84 50.56,5.48 51.10,7.12 51.21,8.80 51.32,10.48 51.33,12.18 51.33,13.87 51.30,15.56 51.28,17.25 51.25,18.95 51.21,20.64 51.18,22.34 51.15,24.03 51.11,25.73 51.08,27.42 49.58,29.35 48.08,31.27 45.45,31.74 42.82,32.22 39.91,32.33 37.00,32.44 34.01,32.45 31.02,32.47 28.01,32.46 25.01,32.45 22.00,32.43 18.98,32.42 15.97,32.40 12.96,32.38 9.95,32.37 6.93,32.35 4.68,30.85 2.42,29.36 1.87,27.77 1.32,26.18 1.21,24.57 1.10,22.95 1.10,21.33 1.10,19.71 1.12,18.09 1.15,16.47 1.19,14.85 1.22,13.22 1.26,11.60 1.29,9.98 1.33,8.36 1.37,6.74 2.87,4.83 4.37,2.93 6.99,2.40 9.62,1.88 12.53,1.70 15.44,1.53 18.43,1.44 21.41,1.35 24.42,1.29 27.42,1.23 30.43,1.17 33.44,1.11 37.48,1.04" fill="#345246" pointer-events="none"/><path d="M 35.47,-0.19 Q 35.47,-0.19 37.71,-0.33 39.96,-0.46 42.85,-0.58 45.75,-0.70 48.42,0.97 51.08,2.66 51.79,4.67 52.49,6.68 52.55,8.54 52.60,10.40 52.51,12.13 52.42,13.87 52.40,15.57 52.37,17.27 52.43,18.97 52.49,20.67 52.55,22.37 52.61,24.06 52.63,25.86 52.66,27.65 50.89,30.04 49.12,32.44 46.10,33.05 43.08,33.66 40.06,33.69 37.04,33.72 34.03,33.64 31.03,33.56 28.01,33.55 25.00,33.54 21.99,33.62 18.98,33.70 15.96,33.77 12.95,33.85 9.86,33.90 6.78,33.95 4.07,32.26 1.37,30.56 0.65,28.60 -0.06,26.64 -0.11,24.84 -0.17,23.04 -0.08,21.38 0.00,19.71 0.03,18.08 0.06,16.45 0.00,14.82 -0.05,13.20 -0.10,11.57 -0.16,9.95 -0.18,8.22 -0.20,6.50 1.55,4.13 3.30,1.77 6.32,1.10 9.33,0.44 12.35,0.34 15.37,0.25 18.37,0.26 21.38,0.26 24.39,0.20 27.40,0.14 30.41,-0.00 33.41,-0.15 37.45,-0.32 41.49,-0.49 41.73,-0.45 41.96,-0.42 42.17,-0.31 42.38,-0.21 42.55,-0.04 42.71,0.12 42.82,0.34 42.92,0.55 42.95,0.78 42.98,1.02 42.93,1.25 42.89,1.48 42.77,1.69 42.65,1.89 42.47,2.05 42.30,2.21 42.08,2.30 41.86,2.39 41.62,2.41 41.39,2.42 41.16,2.37 40.93,2.31 40.73,2.18 40.53,2.05 40.38,1.86 40.24,1.68 40.16,1.45 40.08,1.23 40.07,0.99 40.07,0.76 40.14,0.53 40.21,0.30 40.35,0.11 40.49,-0.07 40.69,-0.21 40.88,-0.34 41.11,-0.41 41.33,-0.48 41.57,-0.47 41.81,-0.46 42.03,-0.38 42.25,-0.29 42.43,-0.14 42.62,0.00 42.74,0.20 42.87,0.40 42.92,0.63 42.98,0.86 42.96,1.10 42.94,1.33 42.84,1.55 42.74,1.77 42.58,1.94 42.42,2.12 42.22,2.23 42.01,2.34 41.78,2.39 41.54,2.43 41.54,2.43 41.54,2.43 37.50,2.41 33.46,2.39 30.45,2.36 27.44,2.32 24.44,2.38 21.44,2.45 18.48,2.62 15.52,2.80 12.71,3.06 9.90,3.31 7.67,3.70 5.43,4.09 4.19,5.53 2.95,6.97 2.85,8.49 2.76,10.01 2.63,11.63 2.50,13.25 2.37,14.87 2.24,16.49 2.22,18.10 2.19,19.71 2.28,21.29 2.37,22.86 2.54,24.29 2.71,25.72 3.08,26.94 3.46,28.16 5.28,29.45 7.09,30.74 10.03,30.83 12.97,30.92 15.98,31.03 18.99,31.14 22.00,31.25 25.01,31.36 28.01,31.36 31.01,31.37 33.98,31.27 36.95,31.16 39.76,30.97 42.57,30.78 44.80,30.44 47.03,30.10 48.26,28.65 49.50,27.19 49.59,25.60 49.68,24.00 49.81,22.31 49.93,20.62 50.06,18.93 50.19,17.24 50.21,15.55 50.24,13.87 50.14,12.22 50.05,10.57 49.88,9.07 49.71,7.57 49.34,6.30 48.97,5.03 47.22,3.76 45.47,2.49 42.74,2.47 40.01,2.46 37.76,2.41 35.52,2.35 35.37,2.34 35.21,2.32 35.07,2.27 34.92,2.22 34.80,2.13 34.67,2.05 34.56,1.93 34.46,1.82 34.38,1.69 34.31,1.55 34.27,1.40 34.23,1.25 34.23,1.10 34.23,0.94 34.26,0.79 34.29,0.64 34.36,0.51 34.43,0.37 34.53,0.25 34.63,0.13 34.76,0.04 34.88,-0.04 35.03,-0.09 35.17,-0.15 35.32,-0.17 Z" fill="#36a64c" stroke="#36a64c" stroke-width="2" pointer-events="none"/></g><g id="91bdd7c5-d02a-4257-3f57-3d16f7917e46_svg" class="tl-centered-g" transform="translate(1219.64, 430.33) rotate(0.00, 26.34, 16.56)"><path d="M 35.83,1.03 Q 35.83,1.03 38.18,1.05 40.52,1.08 43.46,1.11 46.40,1.14 48.64,2.64 50.88,4.14 51.40,5.72 51.93,7.31 52.01,8.91 52.10,10.52 52.07,12.13 52.04,13.74 51.99,15.35 51.93,16.96 51.87,18.58 51.81,20.19 51.74,21.80 51.68,23.41 51.61,25.03 51.55,26.64 50.04,28.54 48.53,30.44 45.88,30.92 43.22,31.39 40.26,31.50 37.31,31.61 34.28,31.63 31.25,31.64 28.21,31.63 25.16,31.63 22.11,31.61 19.06,31.60 16.00,31.59 12.95,31.57 9.90,31.56 6.84,31.54 4.57,30.05 2.30,28.56 1.71,26.96 1.11,25.36 0.94,23.74 0.76,22.11 0.70,20.48 0.64,18.85 0.60,17.22 0.57,15.59 0.54,13.96 0.51,12.33 0.48,10.69 0.45,9.06 0.43,7.43 0.40,5.80 1.88,3.89 3.37,1.98 6.09,1.52 8.81,1.06 11.85,0.97 14.88,0.88 18.00,0.88 21.12,0.89 24.26,0.91 27.40,0.94 30.54,0.97 33.68,1.00 37.90,1.05" fill="#345246" pointer-events="none"/><path d="M 35.85,-0.24 Q 35.85,-0.24 38.19,-0.31 40.54,-0.38 43.55,-0.41 46.57,-0.45 49.25,1.24 51.94,2.95 52.63,4.91 53.32,6.86 53.35,8.66 53.37,10.45 53.25,12.10 53.13,13.76 53.08,15.38 53.02,17.00 53.05,18.62 53.08,20.24 53.11,21.86 53.14,23.47 53.13,25.18 53.13,26.89 51.35,29.25 49.58,31.62 46.52,32.22 43.47,32.83 40.41,32.86 37.36,32.89 34.31,32.81 31.26,32.73 28.21,32.73 25.16,32.72 22.10,32.80 19.05,32.88 16.00,32.96 12.94,33.04 9.81,33.09 6.69,33.15 3.98,31.46 1.27,29.78 0.50,27.82 -0.26,25.86 -0.38,24.06 -0.50,22.25 -0.47,20.57 -0.45,18.90 -0.48,17.26 -0.52,15.61 -0.64,13.98 -0.76,12.35 -0.88,10.72 -1.00,9.08 -1.08,7.34 -1.16,5.59 0.58,3.20 2.34,0.81 5.45,0.21 8.57,-0.37 11.71,-0.38 14.85,-0.39 17.98,-0.29 21.12,-0.20 24.26,-0.17 27.40,-0.14 30.55,-0.20 33.70,-0.26 37.92,-0.31 42.14,-0.36 42.37,-0.32 42.61,-0.28 42.81,-0.16 43.02,-0.05 43.18,0.11 43.34,0.29 43.44,0.50 43.54,0.72 43.56,0.96 43.58,1.19 43.53,1.42 43.48,1.65 43.35,1.86 43.23,2.06 43.05,2.21 42.86,2.36 42.64,2.44 42.42,2.53 42.19,2.54 41.95,2.55 41.72,2.48 41.49,2.42 41.30,2.28 41.10,2.15 40.96,1.96 40.82,1.77 40.75,1.54 40.68,1.32 40.68,1.08 40.68,0.84 40.76,0.62 40.84,0.40 40.98,0.21 41.13,0.02 41.33,-0.10 41.52,-0.23 41.75,-0.29 41.98,-0.35 42.22,-0.34 42.45,-0.32 42.67,-0.23 42.89,-0.14 43.07,0.01 43.25,0.16 43.37,0.37 43.49,0.57 43.54,0.80 43.59,1.03 43.56,1.27 43.53,1.50 43.43,1.72 43.33,1.93 43.16,2.10 43.00,2.27 42.79,2.38 42.58,2.49 42.34,2.53 42.11,2.56 42.11,2.56 42.11,2.56 37.89,2.42 33.67,2.28 30.53,2.16 27.39,2.03 24.25,2.00 21.12,1.98 18.02,2.07 14.92,2.16 11.99,2.33 9.05,2.51 6.73,2.83 4.40,3.16 3.19,4.58 1.97,6.00 1.95,7.52 1.92,9.04 1.85,10.67 1.79,12.30 1.72,13.93 1.66,15.57 1.69,17.19 1.73,18.81 1.88,20.40 2.04,21.98 2.26,23.42 2.48,24.86 2.91,26.10 3.33,27.33 5.16,28.63 7.00,29.94 9.98,30.02 12.96,30.11 16.01,30.22 19.06,30.32 22.11,30.43 25.16,30.54 28.20,30.54 31.25,30.55 34.25,30.44 37.26,30.33 40.11,30.14 42.96,29.95 45.23,29.61 47.49,29.27 48.73,27.83 49.97,26.39 50.09,24.87 50.21,23.36 50.37,21.75 50.53,20.14 50.68,18.53 50.84,16.93 50.89,15.32 50.95,13.72 50.88,12.15 50.82,10.59 50.68,9.17 50.53,7.75 50.18,6.54 49.83,5.33 48.03,4.04 46.24,2.75 43.37,2.65 40.50,2.54 38.16,2.42 35.82,2.31 35.67,2.29 35.51,2.26 35.37,2.21 35.23,2.15 35.10,2.06 34.97,1.97 34.87,1.86 34.77,1.74 34.70,1.60 34.63,1.47 34.60,1.32 34.56,1.17 34.56,1.01 34.57,0.86 34.60,0.71 34.64,0.56 34.72,0.42 34.79,0.29 34.89,0.17 35.00,0.06 35.12,-0.02 35.25,-0.10 35.40,-0.15 35.54,-0.21 35.69,-0.22 Z" fill="#36a64c" stroke="#36a64c" stroke-width="2" pointer-events="none"/></g><g id="dd035c38-b491-4412-3177-cc1af4fb82f8_svg" class="tl-centered-g" transform="translate(1286.76, 430.42) rotate(0.00, 26.34, 16.56)"><path d="M 0.91,12.01 Q 0.91,12.01 0.87,10.78 0.82,9.55 0.76,8.00 0.71,6.45 2.18,4.57 3.66,2.68 6.32,2.21 8.99,1.73 11.96,1.61 14.93,1.49 17.98,1.47 21.03,1.44 24.09,1.43 27.16,1.43 30.23,1.43 33.31,1.44 36.38,1.44 39.45,1.44 42.53,1.45 45.60,1.45 47.88,2.94 50.15,4.43 50.74,6.05 51.33,7.66 51.48,9.31 51.64,10.95 51.69,12.60 51.74,14.26 51.76,15.91 51.78,17.57 51.79,19.22 51.80,20.88 51.81,22.54 51.82,24.19 51.83,25.85 51.84,27.50 50.36,29.42 48.87,31.33 46.24,31.81 43.61,32.29 40.68,32.41 37.76,32.53 34.76,32.56 31.77,32.59 28.75,32.59 25.73,32.59 22.71,32.59 19.69,32.58 16.67,32.58 13.65,32.57 10.63,32.57 7.60,32.56 5.34,31.07 3.08,29.58 2.46,27.97 1.84,26.35 1.63,24.71 1.43,23.07 1.33,21.41 1.23,19.76 1.16,18.11 1.09,16.45 1.02,14.80 0.96,13.15 0.87,10.92" fill="#345246" pointer-events="none"/><path d="M -0.35,12.06 Q -0.35,12.06 -0.49,10.83 -0.63,9.60 -0.74,7.93 -0.85,6.26 0.88,3.89 2.61,1.51 5.67,0.90 8.73,0.29 11.81,0.25 14.88,0.22 17.95,0.28 21.02,0.35 24.09,0.34 27.16,0.34 30.23,0.25 33.31,0.16 36.38,0.07 39.46,-0.01 42.60,-0.08 45.75,-0.14 48.47,1.53 51.18,3.22 51.94,5.19 52.70,7.17 52.81,9.00 52.91,10.83 52.87,12.53 52.83,14.23 52.85,15.89 52.87,17.56 52.97,19.21 53.08,20.87 53.18,22.53 53.29,24.18 53.35,25.95 53.42,27.71 51.67,30.10 49.92,32.50 46.89,33.12 43.87,33.74 40.84,33.77 37.81,33.81 34.79,33.74 31.78,33.68 28.76,33.68 25.74,33.68 22.71,33.77 19.69,33.86 16.67,33.95 13.65,34.04 10.55,34.10 7.45,34.17 4.76,32.49 2.06,30.81 1.26,28.84 0.47,26.87 0.31,25.05 0.16,23.22 0.15,21.53 0.14,19.83 0.07,18.16 0.00,16.50 -0.15,14.85 -0.31,13.20 -0.49,10.98 -0.66,8.76 -0.63,8.52 -0.60,8.29 -0.50,8.08 -0.40,7.86 -0.23,7.69 -0.07,7.52 0.13,7.42 0.35,7.31 0.58,7.27 0.81,7.24 1.05,7.28 1.28,7.32 1.49,7.44 1.70,7.55 1.86,7.73 2.02,7.90 2.11,8.12 2.21,8.34 2.23,8.57 2.25,8.81 2.20,9.04 2.14,9.27 2.02,9.47 1.89,9.67 1.71,9.82 1.52,9.97 1.30,10.05 1.08,10.14 0.84,10.15 0.61,10.16 0.38,10.09 0.15,10.02 -0.03,9.89 -0.22,9.75 -0.36,9.56 -0.50,9.37 -0.58,9.14 -0.65,8.92 -0.64,8.68 -0.64,8.44 -0.56,8.22 -0.48,8.00 -0.34,7.81 -0.19,7.62 0.00,7.49 0.20,7.37 0.43,7.31 0.66,7.25 0.89,7.26 1.13,7.28 1.35,7.37 1.57,7.46 1.74,7.62 1.92,7.77 2.04,7.98 2.16,8.18 2.21,8.42 2.25,8.65 2.25,8.65 2.25,8.65 2.24,10.87 2.24,13.10 2.21,14.75 2.18,16.41 2.25,18.05 2.32,19.70 2.51,21.30 2.70,22.91 2.95,24.37 3.21,25.84 3.66,27.09 4.11,28.35 5.93,29.65 7.76,30.96 10.70,31.03 13.65,31.11 16.67,31.21 19.69,31.30 22.71,31.40 25.73,31.50 28.75,31.50 31.76,31.49 34.73,31.37 37.71,31.26 40.53,31.06 43.34,30.85 45.58,30.51 47.82,30.16 49.04,28.73 50.27,27.29 50.31,25.75 50.36,24.20 50.44,22.55 50.52,20.89 50.60,19.24 50.68,17.58 50.66,15.94 50.64,14.29 50.51,12.68 50.37,11.07 50.16,9.61 49.95,8.15 49.53,6.90 49.12,5.65 47.29,4.35 45.45,3.06 42.45,2.98 39.45,2.91 36.38,2.81 33.31,2.71 30.23,2.62 27.16,2.52 24.10,2.53 21.04,2.53 18.01,2.65 14.98,2.77 12.11,2.97 9.25,3.17 6.97,3.51 4.70,3.86 3.49,5.25 2.27,6.65 2.28,8.07 2.29,9.49 2.24,10.73 2.19,11.97 2.18,12.12 2.17,12.27 2.12,12.42 2.07,12.56 1.99,12.69 1.90,12.82 1.79,12.93 1.68,13.04 1.55,13.11 1.41,13.19 1.26,13.23 1.12,13.28 0.96,13.28 0.81,13.29 0.66,13.26 0.51,13.22 0.37,13.16 0.23,13.09 0.11,12.99 -0.00,12.90 -0.09,12.77 -0.18,12.65 -0.24,12.51 -0.30,12.37 -0.33,12.21 Z" fill="#36a64c" stroke="#36a64c" stroke-width="2" pointer-events="none"/></g><g id="f42d5f6b-4327-44ab-1640-11c9cc745c14_svg" class="tl-centered-g" transform="translate(888.91, 236.02) rotate(0.00, 235.06, 38.34)"><g pointer-events="none" stroke="#ebbb38" stroke-width="4.23" stroke-linecap="round"><line x1="2.11" y1="2.11" x2="468.01" y2="2.11" stroke-dasharray="0.03 6.52" stroke-dashoffset="0"/><line x1="468.01" y1="2.11" x2="468.01" y2="74.56" stroke-dasharray="0.03 6.55" stroke-dashoffset="0"/><line x1="468.01" y1="74.56" x2="2.11" y2="74.56" stroke-dasharray="0.03 6.52" stroke-dashoffset="0"/><line x1="2.11" y1="74.56" x2="2.11" y2="2.11" stroke-dasharray="0.03 6.55" stroke-dashoffset="0"/></g></g><g id="8f43d12e-e3c6-406e-3d3a-b36b7b3a725a_svg" class="tl-centered-g" transform="translate(889.63, 322.68) rotate(0.00, 235.06, 38.34)"><g pointer-events="none" stroke="#ebbb38" stroke-width="4.23" stroke-linecap="round"><line x1="2.11" y1="2.11" x2="468.01" y2="2.11" stroke-dasharray="0.03 6.52" stroke-dashoffset="0"/><line x1="468.01" y1="2.11" x2="468.01" y2="74.56" stroke-dasharray="0.03 6.55" stroke-dashoffset="0"/><line x1="468.01" y1="74.56" x2="2.11" y2="74.56" stroke-dasharray="0.03 6.52" stroke-dashoffset="0"/><line x1="2.11" y1="74.56" x2="2.11" y2="2.11" stroke-dasharray="0.03 6.55" stroke-dashoffset="0"/></g></g><g id="3e4372d5-6878-449d-3819-9a7fc19226b1_svg" class="tl-centered-g" transform="translate(890.09, 410.72) rotate(0.00, 235.06, 38.34)"><g pointer-events="none" stroke="#ebbb38" stroke-width="4.23" stroke-linecap="round"><line x1="2.11" y1="2.11" x2="468.01" y2="2.11" stroke-dasharray="0.03 6.52" stroke-dashoffset="0"/><line x1="468.01" y1="2.11" x2="468.01" y2="74.56" stroke-dasharray="0.03 6.55" stroke-dashoffset="0"/><line x1="468.01" y1="74.56" x2="2.11" y2="74.56" stroke-dasharray="0.03 6.52" stroke-dashoffset="0"/><line x1="2.11" y1="74.56" x2="2.11" y2="2.11" stroke-dasharray="0.03 6.55" stroke-dashoffset="0"/></g></g><g text-align="left" text-anchor="start" fill="#ebbb38" transform="translate(106.63, 45.35) rotate(353.41, 71.00, 26.50)"><text y="14" letter-spacing="-0.84" font-size="28px" font-family="Caveat Brush" text-align="left" alignment-baseline="central" transform="scale(1.5274562792238877)">New Page</text></g><g id="fbf70151-ea84-4b31-36b4-22eed8781415_svg" class="tl-centered-g" transform="translate(186.10, 95.03) rotate(0.00, 8.04, 18.58)"><defs><mask id="fbf70151-ea84-4b31-36b4-22eed8781415_clip"><rect x="-100" y="-100" width="216.07" height="237.16" fill="white"/><rect x="8.03" y="18.58" width="0" height="0" rx="2" ry="2" fill="black" opacity="1"/></mask></defs><g pointer-events="none" opacity="1" mask=""><path d="M 0.95,-0.41 Q 0.95,-0.41 2.84,4.01 4.72,8.43 6.61,12.86 8.50,17.28 10.40,21.70 12.29,26.12 14.19,30.54 16.09,34.96 16.13,35.10 16.16,35.24 16.15,35.39 16.14,35.53 16.08,35.67 16.03,35.80 15.93,35.91 15.83,36.02 15.71,36.09 15.58,36.16 15.44,36.19 15.30,36.21 15.15,36.19 15.01,36.17 14.88,36.11 14.75,36.05 14.65,35.94 14.55,35.84 14.48,35.71 14.42,35.58 14.40,35.44 14.38,35.30 14.40,35.15 14.43,35.01 14.50,34.89 14.57,34.76 14.68,34.66 14.79,34.57 14.92,34.51 15.05,34.45 15.20,34.44 15.34,34.43 15.48,34.46 15.62,34.50 15.75,34.57 15.87,34.65 15.96,34.77 16.05,34.88 16.10,35.01 16.15,35.15 16.15,35.29 16.16,35.44 16.12,35.58 16.07,35.72 15.99,35.83 15.90,35.95 15.79,36.04 15.67,36.12 15.53,36.16 15.39,36.21 15.25,36.20 15.10,36.20 14.97,36.15 14.83,36.10 14.72,36.01 14.61,35.92 14.53,35.80 14.45,35.67 14.45,35.67 14.45,35.67 12.53,31.26 10.61,26.85 8.69,22.44 6.76,18.03 4.83,13.63 2.91,9.22 0.97,4.81 -0.95,0.41 -0.99,0.29 -1.03,0.17 -1.03,0.04 -1.04,-0.07 -1.01,-0.20 -0.99,-0.32 -0.94,-0.44 -0.88,-0.55 -0.80,-0.65 -0.72,-0.75 -0.62,-0.82 -0.52,-0.90 -0.41,-0.95 -0.29,-1.00 -0.17,-1.02 -0.04,-1.04 0.07,-1.03 0.20,-1.02 0.32,-0.98 0.44,-0.94 0.55,-0.88 0.65,-0.81 0.74,-0.72 0.83,-0.63 0.89,-0.52 Z" fill="#ebbb38" stroke="#ebbb38" stroke-width="2.11" stroke-dasharray="none" stroke-dashoffset="none" stroke-linecap="round" stroke-linejoin="round" pointer-events="stroke"/><g><path d="M 17.62,23.75449866512342 L 16.07,37.16 5.23,29.111165331790083" fill="none" stroke="#ebbb38" stroke-width="4.23" stroke-linecap="round" stroke-linejoin="round" pointer-events="none"/></g></g></g><g id="b598b2f7-1941-41fe-1b94-809aa513ef87_svg" class="tl-centered-g" transform="translate(864.73, 208.74) rotate(0.00, 263.49, 151.96)"><path d="M 527.29,90.95 Q 527.29,90.95 527.27,97.40 527.24,103.85 527.22,111.95 527.20,120.04 527.18,128.56 527.16,137.07 527.18,145.70 527.19,154.32 527.25,162.97 527.31,171.62 527.36,180.27 527.42,188.93 527.48,197.59 527.53,206.25 527.59,214.91 527.64,223.56 527.70,232.22 527.76,240.88 527.81,249.54 527.87,258.20 527.93,266.86 527.98,275.52 528.04,284.20 528.09,292.88 526.22,297.12 524.36,301.36 517.44,302.54 510.52,303.72 502.54,303.95 494.56,304.18 486.32,304.22 478.08,304.27 469.76,304.27 461.45,304.27 453.12,304.25 444.79,304.24 436.45,304.22 428.12,304.21 419.78,304.19 411.44,304.17 403.10,304.16 394.77,304.14 386.43,304.12 378.09,304.10 369.75,304.09 361.42,304.07 353.08,304.05 344.74,304.04 336.40,304.02 328.07,304.00 319.73,303.98 311.39,303.97 303.05,303.95 294.72,303.93 286.38,303.92 278.04,303.90 269.70,303.90 261.37,303.91 253.03,303.93 244.69,303.96 236.35,303.98 228.02,304.01 219.68,304.03 211.34,304.06 203.00,304.08 194.67,304.11 186.33,304.13 177.99,304.16 169.65,304.18 161.32,304.21 152.98,304.23 144.64,304.25 136.30,304.28 127.97,304.30 119.63,304.33 111.29,304.35 102.95,304.38 94.62,304.40 86.28,304.43 77.94,304.45 69.60,304.48 61.27,304.50 52.93,304.53 44.59,304.55 36.25,304.58 27.92,304.60 19.55,304.62 11.19,304.64 7.04,302.77 2.88,300.90 1.74,293.76 0.61,286.62 0.41,278.37 0.21,270.13 0.19,261.60 0.17,253.08 0.19,244.48 0.22,235.87 0.25,227.25 0.29,218.63 0.33,210.01 0.37,201.38 0.41,192.76 0.45,184.13 0.49,175.50 0.53,166.88 0.54,158.25 0.54,149.62 0.50,140.99 0.47,132.37 0.43,123.74 0.40,115.11 0.36,106.49 0.33,97.86 0.29,89.23 0.25,80.60 0.22,71.98 0.18,63.35 0.15,54.72 0.11,46.10 0.08,37.47 0.04,28.84 0.01,20.19 -0.01,11.54 1.85,7.31 3.71,3.09 10.62,1.89 17.54,0.70 25.51,0.46 33.48,0.21 41.71,0.15 49.94,0.09 58.24,0.07 66.54,0.05 74.86,0.05 83.18,0.05 91.51,0.04 99.83,0.04 108.16,0.04 116.48,0.04 124.81,0.04 133.14,0.04 141.46,0.04 149.79,0.04 158.11,0.04 166.44,0.04 174.77,0.04 183.09,0.04 191.42,0.04 199.75,0.04 208.07,0.04 216.40,0.04 224.72,0.04 233.05,0.04 241.38,0.04 249.70,0.04 258.03,0.02 266.35,-0.00 274.68,-0.04 283.01,-0.08 291.33,-0.12 299.66,-0.16 307.99,-0.21 316.31,-0.25 324.64,-0.29 332.96,-0.33 341.29,-0.38 349.62,-0.42 357.94,-0.46 366.27,-0.50 374.59,-0.54 382.92,-0.59 391.25,-0.63 399.57,-0.67 407.90,-0.71 416.22,-0.76 424.55,-0.80 432.88,-0.84 441.20,-0.88 449.53,-0.92 457.85,-0.97 466.18,-1.01 474.51,-1.05 482.83,-1.09 491.16,-1.14 499.48,-1.18 507.83,-1.21 516.18,-1.25 520.34,0.60 524.50,2.47 525.65,9.63 526.80,16.79 527.02,25.07 527.24,33.34 527.28,41.90 527.32,50.46 527.31,59.09 527.31,67.72 527.29,76.37 527.27,85.03 527.26,93.68 527.24,102.34 527.22,111.00 527.20,119.66 527.18,128.32 527.16,136.98 527.18,145.63 527.19,154.29 527.25,162.95 527.31,171.61 527.37,183.23 527.43,194.86 527.40,195.05 527.37,195.24 527.28,195.41 527.19,195.58 527.05,195.71 526.91,195.84 526.74,195.92 526.56,196.01 526.37,196.03 526.18,196.05 525.99,196.01 525.80,195.97 525.64,195.87 525.47,195.77 525.35,195.62 525.22,195.47 525.15,195.30 525.08,195.12 525.07,194.92 525.06,194.73 525.11,194.55 525.16,194.36 525.27,194.20 525.37,194.04 525.53,193.92 525.68,193.81 525.86,193.75 526.05,193.68 526.24,193.68 526.43,193.68 526.61,193.74 526.80,193.81 526.95,193.92 527.10,194.04 527.21,194.20 527.32,194.36 527.37,194.54 527.42,194.73 527.41,194.92 527.40,195.11 527.33,195.29 527.26,195.47 527.14,195.62 527.01,195.77 526.85,195.86 526.68,195.96 526.50,196.01 526.31,196.05 526.12,196.03 525.92,196.01 525.75,195.93 525.57,195.85 525.43,195.71 525.29,195.58 525.20,195.41 525.11,195.24 525.08,195.05 525.05,194.86 525.05,194.86 525.05,194.86 525.06,183.24 525.08,171.62 525.10,162.96 525.12,154.30 525.10,145.64 525.08,136.98 525.02,128.32 524.97,119.66 524.91,111.00 524.85,102.35 524.80,93.69 524.74,85.03 524.68,76.38 524.62,67.73 524.55,59.11 524.48,50.48 524.36,41.96 524.24,33.44 523.96,25.33 523.68,17.22 522.96,10.72 522.24,4.22 519.17,3.12 516.10,2.02 507.79,2.02 499.49,2.03 491.17,2.03 482.84,2.03 474.51,2.03 466.19,2.03 457.86,2.03 449.54,2.03 441.21,2.03 432.88,2.03 424.56,2.03 416.23,2.03 407.90,2.03 399.58,2.03 391.25,2.03 382.93,2.03 374.60,2.03 366.27,2.03 357.95,2.03 349.62,2.03 341.30,2.03 332.97,2.03 324.64,2.03 316.32,2.03 307.99,2.04 299.66,2.04 291.34,2.04 283.01,2.04 274.69,2.04 266.36,2.04 258.03,2.06 249.71,2.08 241.38,2.12 233.06,2.16 224.73,2.21 216.40,2.25 208.08,2.29 199.75,2.33 191.43,2.37 183.10,2.42 174.77,2.46 166.45,2.50 158.12,2.54 149.80,2.59 141.47,2.63 133.14,2.67 124.82,2.71 116.49,2.75 108.17,2.80 99.84,2.84 91.52,2.88 83.19,2.93 74.87,2.97 66.56,3.02 58.26,3.08 49.97,3.13 41.78,3.24 33.58,3.34 25.79,3.61 18.00,3.89 11.74,4.61 5.49,5.33 4.38,8.48 3.26,11.63 3.22,20.24 3.19,28.84 3.15,37.47 3.11,46.10 3.07,54.72 3.02,63.35 2.98,71.98 2.94,80.60 2.90,89.23 2.86,97.86 2.82,106.49 2.78,115.11 2.74,123.74 2.70,132.37 2.66,140.99 2.62,149.62 2.61,158.25 2.61,166.88 2.65,175.50 2.68,184.13 2.72,192.76 2.75,201.38 2.79,210.01 2.83,218.63 2.87,227.25 2.91,235.87 2.96,244.46 3.01,253.06 3.10,261.55 3.20,270.04 3.46,278.12 3.73,286.20 4.43,292.67 5.14,299.15 8.21,300.26 11.29,301.36 19.60,301.37 27.91,301.39 36.25,301.40 44.59,301.42 52.93,301.44 61.26,301.45 69.60,301.47 77.94,301.49 86.28,301.51 94.61,301.52 102.95,301.54 111.29,301.56 119.63,301.57 127.96,301.59 136.30,301.61 144.64,301.63 152.98,301.64 161.31,301.66 169.65,301.68 177.99,301.69 186.33,301.71 194.66,301.73 203.00,301.75 211.34,301.76 219.68,301.78 228.01,301.80 236.35,301.81 244.69,301.83 253.03,301.85 261.37,301.87 269.70,301.86 278.04,301.86 286.38,301.83 294.72,301.81 303.05,301.78 311.39,301.76 319.73,301.73 328.07,301.71 336.40,301.68 344.74,301.66 353.08,301.63 361.42,301.61 369.75,301.58 378.09,301.56 386.43,301.53 394.77,301.51 403.10,301.48 411.44,301.46 419.78,301.43 428.11,301.41 436.45,301.38 444.78,301.36 453.11,301.33 461.44,301.30 469.75,301.26 478.05,301.22 486.26,301.13 494.46,301.05 502.27,300.79 510.07,300.53 516.33,299.82 522.59,299.11 523.70,295.95 524.80,292.80 524.82,284.16 524.84,275.52 524.86,266.86 524.88,258.21 524.90,249.55 524.92,240.89 524.94,232.23 524.96,223.57 524.98,214.91 525.00,206.25 525.02,197.59 525.04,188.94 525.06,180.28 525.08,171.62 525.10,162.97 525.12,154.32 525.10,145.70 525.08,137.08 525.02,128.56 524.97,120.05 524.91,111.95 524.86,103.86 524.81,97.41 524.75,90.95 524.77,90.80 524.79,90.65 524.84,90.51 524.90,90.37 524.99,90.24 525.07,90.11 525.19,90.01 525.30,89.91 525.44,89.84 525.57,89.77 525.72,89.73 525.87,89.69 526.02,89.69 526.17,89.69 526.32,89.73 526.47,89.77 526.60,89.84 526.74,89.91 526.85,90.01 526.97,90.11 527.06,90.24 527.14,90.36 527.20,90.50 527.25,90.65 527.27,90.80 Z" fill="#ebbb38" stroke="#ebbb38" stroke-width="2" pointer-events="none"/></g><g text-align="left" text-anchor="start" fill="#cecece" transform="translate(630.67, 126.08) rotate(0.00, 29.50, 17.50)"><text y="14" letter-spacing="-0.84" font-size="28px" font-family="Caveat Brush" text-align="left" alignment-baseline="central" transform="scale(0.8818427620532716)">server</text></g><g text-align="left" text-anchor="start" fill="#ebbb38" transform="translate(628.36, 90.63) rotate(0.00, 122.00, 25.50)"><text y="14" letter-spacing="-0.84" font-size="28px" font-family="Caveat Brush" text-align="left" alignment-baseline="central" transform="scale(1.4639668915507422)">Remix Framework</text></g></svg>