<svg xmlns="http://www.w3.org/2000/svg" viewBox="0 0 1504 688" width="1472" height="656" style="background-color: transparent;"><defs><style>@import url('https://fonts.googleapis.com/css2?family=Caveat+Brush&amp;family=Source+Code+Pro&amp;family=Source+Sans+Pro&amp;family=Crimson+Pro&amp;display=block');</style></defs><g id="c286159d-3cd8-4d6d-2ca8-8004c36d8abf_svg" class="tl-centered-g" transform="translate(16.00, 16.00) rotate(0.00, 736.00, 328.00)"><g pointer-events="none" stroke="transparent" stroke-width="4.23" stroke-linecap="round"><line x1="2.11" y1="2.11" x2="1469.88" y2="2.11" stroke-dasharray="0.03 6.46" stroke-dashoffset="0"/><line x1="1469.88" y1="2.11" x2="1469.88" y2="653.88" stroke-dasharray="0.03 6.48" stroke-dashoffset="0"/><line x1="1469.88" y1="653.88" x2="2.11" y2="653.88" stroke-dasharray="0.03 6.46" stroke-dashoffset="0"/><line x1="2.11" y1="653.88" x2="2.11" y2="2.11" stroke-dasharray="0.03 6.48" stroke-dashoffset="0"/></g></g><g id="f52a5e6c-4c6b-42ab-27ac-01a9ccb145db_svg" class="tl-centered-g" transform="translate(234.47, 107.42) rotate(0.00, 24.68, 235.26)"><g opacity="1"><path d="M 22.26,0.21 Q 22.26,0.21 21.15,0.48 20.04,0.75 18.93,1.31 17.81,1.88 16.66,2.70 15.50,3.51 14.24,4.50 12.97,5.50 11.78,6.54 10.58,7.59 9.58,8.56 8.58,9.53 7.67,10.50 6.76,11.48 5.95,12.44 5.13,13.40 4.49,14.26 3.85,15.13 3.40,15.93 2.95,16.73 2.66,17.57 2.37,18.41 2.21,19.37 2.04,20.32 1.95,21.02 1.86,21.72 1.88,22.51 1.91,23.29 2.13,24.08 2.35,24.87 2.81,25.68 3.27,26.49 3.92,27.38 4.57,28.26 5.38,29.20 6.19,30.14 7.12,31.11 8.06,32.08 9.05,33.01 10.04,33.94 11.22,34.88 12.39,35.81 13.71,36.72 15.03,37.62 16.27,38.42 17.51,39.22 18.61,39.89 19.71,40.55 20.73,41.13 21.74,41.72 22.70,42.30 23.66,42.88 24.56,43.46 25.46,44.05 26.30,44.62 27.15,45.20 27.93,45.78 28.70,46.35 29.40,46.94 30.09,47.53 30.70,48.17 31.31,48.80 31.82,49.46 32.32,50.13 32.72,50.81 33.12,51.49 33.44,52.24 33.76,53.00 34.00,53.90 34.23,54.80 34.37,55.82 34.51,56.83 34.58,57.85 34.66,58.87 34.58,59.88 34.50,60.89 34.06,62.00 33.62,63.11 32.81,64.36 32.00,65.60 30.99,66.88 29.99,68.16 28.81,69.54 27.63,70.92 25.97,72.70 24.31,74.48 23.12,75.77 21.93,77.07 20.75,78.35 19.57,79.63 18.61,80.72 17.64,81.81 16.84,82.77 16.04,83.74 15.29,84.73 14.54,85.73 13.91,86.72 13.27,87.71 12.74,88.66 12.21,89.60 11.81,90.46 11.42,91.33 11.16,92.19 10.91,93.05 10.76,93.89 10.62,94.73 10.55,95.57 10.47,96.41 10.48,97.25 10.49,98.09 10.70,98.85 10.92,99.60 11.43,100.28 11.94,100.96 12.78,101.65 13.62,102.34 14.76,103.04 15.90,103.75 17.23,104.45 18.55,105.14 20.03,105.86 21.50,106.59 23.08,107.32 24.66,108.05 26.12,108.69 27.57,109.34 28.82,109.89 30.06,110.43 31.23,110.98 32.40,111.53 33.50,112.11 34.60,112.69 35.56,113.24 36.51,113.78 37.27,114.31 38.03,114.84 38.60,115.45 39.17,116.05 39.58,116.73 39.98,117.41 40.23,118.14 40.47,118.88 40.61,119.70 40.74,120.53 40.63,121.46 40.51,122.38 39.95,123.49 39.38,124.60 38.32,125.91 37.25,127.23 35.21,129.19 33.18,131.16 31.62,132.58 30.07,133.99 27.85,135.84 25.63,137.68 23.95,139.05 22.28,140.42 20.71,141.67 19.15,142.92 17.58,144.18 16.00,145.44 14.35,146.81 12.70,148.18 11.43,149.33 10.16,150.48 8.96,151.62 7.76,152.76 6.61,153.93 5.46,155.10 4.65,156.13 3.84,157.16 3.21,158.16 2.59,159.17 2.11,160.13 1.63,161.10 1.29,162.04 0.94,162.98 0.73,163.86 0.52,164.74 0.40,165.52 0.28,166.29 0.22,167.04 0.16,167.79 0.18,168.56 0.20,169.34 0.43,170.06 0.65,170.79 1.15,171.45 1.65,172.12 2.43,172.80 3.22,173.48 4.24,174.23 5.26,174.99 6.45,175.78 7.65,176.58 8.99,177.42 10.34,178.26 11.82,179.20 13.30,180.14 14.81,181.21 16.33,182.27 17.77,183.43 19.22,184.59 20.62,185.95 22.03,187.31 23.31,188.83 24.59,190.34 25.61,191.87 26.64,193.40 27.42,194.95 28.20,196.50 28.77,198.09 29.33,199.69 29.80,201.94 30.27,204.19 30.53,205.83 30.79,207.48 30.94,209.27 31.08,211.05 31.03,212.92 30.97,214.78 30.63,216.61 30.28,218.45 29.68,220.30 29.07,222.14 28.33,223.92 27.58,225.70 26.90,227.16 26.22,228.62 25.49,229.93 24.77,231.24 24.01,232.54 23.25,233.84 22.63,234.93 22.00,236.02 21.52,236.89 21.03,237.77 20.69,238.48 20.35,239.18 20.14,239.78 19.93,240.37 19.82,240.87 19.71,241.36 19.76,241.81 19.81,242.26 20.25,242.73 20.70,243.21 21.58,243.73 22.47,244.24 23.74,244.80 25.02,245.36 26.65,245.95 28.29,246.55 29.98,247.12 31.68,247.70 33.24,248.23 34.80,248.75 36.27,249.28 37.74,249.81 39.14,250.35 40.54,250.89 41.81,251.45 43.08,252.01 44.10,252.57 45.13,253.13 45.91,253.62 46.69,254.11 47.25,254.48 47.81,254.85 48.15,255.08 48.50,255.31 48.69,255.47 48.89,255.63 48.97,255.84 49.06,256.06 48.99,256.53 48.93,257.01 48.64,257.82 48.35,258.63 47.86,259.72 47.36,260.81 46.65,262.09 45.95,263.37 45.07,264.79 44.19,266.21 43.18,267.79 42.17,269.37 40.96,271.13 39.75,272.89 38.41,274.73 37.08,276.57 35.76,278.32 34.45,280.06 33.18,281.66 31.90,283.27 30.69,284.78 29.48,286.29 28.62,287.36 27.75,288.43 26.78,289.63 25.80,290.83 25.16,291.66 24.52,292.50 24.03,293.26 23.54,294.02 23.20,294.69 22.87,295.37 22.65,295.99 22.43,296.62 22.31,297.22 22.19,297.82 22.13,298.41 22.06,299.00 22.19,299.55 22.33,300.10 22.75,300.68 23.16,301.25 23.72,301.88 24.29,302.50 24.99,303.14 25.69,303.79 26.43,304.42 27.17,305.05 27.82,305.68 28.48,306.31 29.08,306.97 29.68,307.62 30.20,308.32 30.73,309.01 31.17,309.81 31.61,310.61 31.93,311.54 32.24,312.48 32.43,313.57 32.62,314.66 32.53,316.08 32.44,317.50 31.79,319.34 31.15,321.19 29.88,323.41 28.62,325.62 26.83,328.12 25.04,330.63 23.08,333.11 21.12,335.59 19.18,337.93 17.23,340.26 15.44,342.40 13.65,344.54 12.09,346.43 10.53,348.31 9.16,349.96 7.79,351.60 6.67,352.97 5.55,354.35 4.70,355.50 3.86,356.65 3.32,357.68 2.78,358.71 2.47,359.65 2.17,360.59 2.19,361.44 2.22,362.30 2.73,363.02 3.24,363.74 4.30,364.51 5.36,365.28 6.69,365.96 8.03,366.65 9.72,367.35 11.40,368.06 13.28,368.84 15.16,369.61 16.94,370.34 18.73,371.07 20.33,371.77 21.93,372.46 23.43,373.13 24.93,373.80 26.34,374.51 27.74,375.22 28.98,376.02 30.21,376.83 31.10,377.66 31.99,378.50 32.52,379.41 33.06,380.32 33.33,381.39 33.61,382.47 33.60,383.77 33.60,385.07 33.19,386.62 32.78,388.16 32.07,389.76 31.36,391.36 30.58,392.83 29.81,394.30 29.01,395.72 28.21,397.13 27.41,398.54 26.61,399.95 25.91,401.27 25.22,402.59 24.66,403.87 24.10,405.15 23.68,406.43 23.27,407.71 23.01,408.90 22.76,410.09 22.67,411.17 22.59,412.25 22.77,413.24 22.96,414.23 23.48,415.18 24.00,416.13 24.77,417.03 25.54,417.93 26.40,418.70 27.26,419.48 28.09,420.13 28.93,420.78 29.70,421.34 30.48,421.91 31.23,422.48 31.99,423.05 32.66,423.76 33.33,424.48 33.74,425.05 34.14,425.62 34.40,426.28 34.66,426.94 34.80,427.75 34.94,428.56 34.85,429.62 34.77,430.69 34.34,431.91 33.91,433.13 33.35,434.32 32.79,435.51 32.20,436.69 31.60,437.86 30.92,439.13 30.23,440.40 29.54,441.67 28.86,442.94 28.31,444.07 27.75,445.20 27.33,446.19 26.91,447.19 26.64,448.19 26.36,449.19 26.21,450.25 26.05,451.32 25.97,452.39 25.88,453.47 25.84,454.55 25.79,455.63 25.76,456.72 25.74,457.80 25.75,458.87 25.75,459.94 25.82,461.03 25.89,462.11 26.00,463.16 26.12,464.21 26.25,465.13 26.38,466.05 26.52,466.80 26.65,467.56 26.77,468.15 26.88,468.74 27.04,469.63 27.21,470.53 27.21,470.53" fill="none" stroke="none" stroke-width="4" stroke-linejoin="round" stroke-linecap="round" pointer-events="none"/><path d="M 22.26,0.21 Q 22.26,0.21 21.15,0.48 20.04,0.75 18.93,1.31 17.81,1.88 16.66,2.70 15.50,3.51 14.24,4.50 12.97,5.50 11.78,6.54 10.58,7.59 9.58,8.56 8.58,9.53 7.67,10.50 6.76,11.48 5.95,12.44 5.13,13.40 4.49,14.26 3.85,15.13 3.40,15.93 2.95,16.73 2.66,17.57 2.37,18.41 2.21,19.37 2.04,20.32 1.95,21.02 1.86,21.72 1.88,22.51 1.91,23.29 2.13,24.08 2.35,24.87 2.81,25.68 3.27,26.49 3.92,27.38 4.57,28.26 5.38,29.20 6.19,30.14 7.12,31.11 8.06,32.08 9.05,33.01 10.04,33.94 11.22,34.88 12.39,35.81 13.71,36.72 15.03,37.62 16.27,38.42 17.51,39.22 18.61,39.89 19.71,40.55 20.73,41.13 21.74,41.72 22.70,42.30 23.66,42.88 24.56,43.46 25.46,44.05 26.30,44.62 27.15,45.20 27.93,45.78 28.70,46.35 29.40,46.94 30.09,47.53 30.70,48.17 31.31,48.80 31.82,49.46 32.32,50.13 32.72,50.81 33.12,51.49 33.44,52.24 33.76,53.00 34.00,53.90 34.23,54.80 34.37,55.82 34.51,56.83 34.58,57.85 34.66,58.87 34.58,59.88 34.50,60.89 34.06,62.00 33.62,63.11 32.81,64.36 32.00,65.60 30.99,66.88 29.99,68.16 28.81,69.54 27.63,70.92 25.97,72.70 24.31,74.48 23.12,75.77 21.93,77.07 20.75,78.35 19.57,79.63 18.61,80.72 17.64,81.81 16.84,82.77 16.04,83.74 15.29,84.73 14.54,85.73 13.91,86.72 13.27,87.71 12.74,88.66 12.21,89.60 11.81,90.46 11.42,91.33 11.16,92.19 10.91,93.05 10.76,93.89 10.62,94.73 10.55,95.57 10.47,96.41 10.48,97.25 10.49,98.09 10.70,98.85 10.92,99.60 11.43,100.28 11.94,100.96 12.78,101.65 13.62,102.34 14.76,103.04 15.90,103.75 17.23,104.45 18.55,105.14 20.03,105.86 21.50,106.59 23.08,107.32 24.66,108.05 26.12,108.69 27.57,109.34 28.82,109.89 30.06,110.43 31.23,110.98 32.40,111.53 33.50,112.11 34.60,112.69 35.56,113.24 36.51,113.78 37.27,114.31 38.03,114.84 38.60,115.45 39.17,116.05 39.58,116.73 39.98,117.41 40.23,118.14 40.47,118.88 40.61,119.70 40.74,120.53 40.63,121.46 40.51,122.38 39.95,123.49 39.38,124.60 38.32,125.91 37.25,127.23 35.21,129.19 33.18,131.16 31.62,132.58 30.07,133.99 27.85,135.84 25.63,137.68 23.95,139.05 22.28,140.42 20.71,141.67 19.15,142.92 17.58,144.18 16.00,145.44 14.35,146.81 12.70,148.18 11.43,149.33 10.16,150.48 8.96,151.62 7.76,152.76 6.61,153.93 5.46,155.10 4.65,156.13 3.84,157.16 3.21,158.16 2.59,159.17 2.11,160.13 1.63,161.10 1.29,162.04 0.94,162.98 0.73,163.86 0.52,164.74 0.40,165.52 0.28,166.29 0.22,167.04 0.16,167.79 0.18,168.56 0.20,169.34 0.43,170.06 0.65,170.79 1.15,171.45 1.65,172.12 2.43,172.80 3.22,173.48 4.24,174.23 5.26,174.99 6.45,175.78 7.65,176.58 8.99,177.42 10.34,178.26 11.82,179.20 13.30,180.14 14.81,181.21 16.33,182.27 17.77,183.43 19.22,184.59 20.62,185.95 22.03,187.31 23.31,188.83 24.59,190.34 25.61,191.87 26.64,193.40 27.42,194.95 28.20,196.50 28.77,198.09 29.33,199.69 29.80,201.94 30.27,204.19 30.53,205.83 30.79,207.48 30.94,209.27 31.08,211.05 31.03,212.92 30.97,214.78 30.63,216.61 30.28,218.45 29.68,220.30 29.07,222.14 28.33,223.92 27.58,225.70 26.90,227.16 26.22,228.62 25.49,229.93 24.77,231.24 24.01,232.54 23.25,233.84 22.63,234.93 22.00,236.02 21.52,236.89 21.03,237.77 20.69,238.48 20.35,239.18 20.14,239.78 19.93,240.37 19.82,240.87 19.71,241.36 19.76,241.81 19.81,242.26 20.25,242.73 20.70,243.21 21.58,243.73 22.47,244.24 23.74,244.80 25.02,245.36 26.65,245.95 28.29,246.55 29.98,247.12 31.68,247.70 33.24,248.23 34.80,248.75 36.27,249.28 37.74,249.81 39.14,250.35 40.54,250.89 41.81,251.45 43.08,252.01 44.10,252.57 45.13,253.13 45.91,253.62 46.69,254.11 47.25,254.48 47.81,254.85 48.15,255.08 48.50,255.31 48.69,255.47 48.89,255.63 48.97,255.84 49.06,256.06 48.99,256.53 48.93,257.01 48.64,257.82 48.35,258.63 47.86,259.72 47.36,260.81 46.65,262.09 45.95,263.37 45.07,264.79 44.19,266.21 43.18,267.79 42.17,269.37 40.96,271.13 39.75,272.89 38.41,274.73 37.08,276.57 35.76,278.32 34.45,280.06 33.18,281.66 31.90,283.27 30.69,284.78 29.48,286.29 28.62,287.36 27.75,288.43 26.78,289.63 25.80,290.83 25.16,291.66 24.52,292.50 24.03,293.26 23.54,294.02 23.20,294.69 22.87,295.37 22.65,295.99 22.43,296.62 22.31,297.22 22.19,297.82 22.13,298.41 22.06,299.00 22.19,299.55 22.33,300.10 22.75,300.68 23.16,301.25 23.72,301.88 24.29,302.50 24.99,303.14 25.69,303.79 26.43,304.42 27.17,305.05 27.82,305.68 28.48,306.31 29.08,306.97 29.68,307.62 30.20,308.32 30.73,309.01 31.17,309.81 31.61,310.61 31.93,311.54 32.24,312.48 32.43,313.57 32.62,314.66 32.53,316.08 32.44,317.50 31.79,319.34 31.15,321.19 29.88,323.41 28.62,325.62 26.83,328.12 25.04,330.63 23.08,333.11 21.12,335.59 19.18,337.93 17.23,340.26 15.44,342.40 13.65,344.54 12.09,346.43 10.53,348.31 9.16,349.96 7.79,351.60 6.67,352.97 5.55,354.35 4.70,355.50 3.86,356.65 3.32,357.68 2.78,358.71 2.47,359.65 2.17,360.59 2.19,361.44 2.22,362.30 2.73,363.02 3.24,363.74 4.30,364.51 5.36,365.28 6.69,365.96 8.03,366.65 9.72,367.35 11.40,368.06 13.28,368.84 15.16,369.61 16.94,370.34 18.73,371.07 20.33,371.77 21.93,372.46 23.43,373.13 24.93,373.80 26.34,374.51 27.74,375.22 28.98,376.02 30.21,376.83 31.10,377.66 31.99,378.50 32.52,379.41 33.06,380.32 33.33,381.39 33.61,382.47 33.60,383.77 33.60,385.07 33.19,386.62 32.78,388.16 32.07,389.76 31.36,391.36 30.58,392.83 29.81,394.30 29.01,395.72 28.21,397.13 27.41,398.54 26.61,399.95 25.91,401.27 25.22,402.59 24.66,403.87 24.10,405.15 23.68,406.43 23.27,407.71 23.01,408.90 22.76,410.09 22.67,411.17 22.59,412.25 22.77,413.24 22.96,414.23 23.48,415.18 24.00,416.13 24.77,417.03 25.54,417.93 26.40,418.70 27.26,419.48 28.09,420.13 28.93,420.78 29.70,421.34 30.48,421.91 31.23,422.48 31.99,423.05 32.66,423.76 33.33,424.48 33.74,425.05 34.14,425.62 34.40,426.28 34.66,426.94 34.80,427.75 34.94,428.56 34.85,429.62 34.77,430.69 34.34,431.91 33.91,433.13 33.35,434.32 32.79,435.51 32.20,436.69 31.60,437.86 30.92,439.13 30.23,440.40 29.54,441.67 28.86,442.94 28.31,444.07 27.75,445.20 27.33,446.19 26.91,447.19 26.64,448.19 26.36,449.19 26.21,450.25 26.05,451.32 25.97,452.39 25.88,453.47 25.84,454.55 25.79,455.63 25.76,456.72 25.74,457.80 25.75,458.87 25.75,459.94 25.82,461.03 25.89,462.11 26.00,463.16 26.12,464.21 26.25,465.13 26.38,466.05 26.52,466.80 26.65,467.56 26.77,468.15 26.88,468.74 27.04,469.63 27.21,470.53 27.21,470.53" fill="none" stroke="#717d8a" stroke-width="4" stroke-dasharray="0.1 8" stroke-dashoffset="0" stroke-linejoin="round" stroke-linecap="round" pointer-events="none"/></g></g><g id="4965379c-57c6-43a1-0d47-eaf633ec6793_svg" class="tl-centered-g" transform="translate(59.89, 372.54) rotate(0.00, 147.88, 0.50)"><defs><mask id="4965379c-57c6-43a1-0d47-eaf633ec6793_clip"><rect x="-100" y="-100" width="495.75" height="201" fill="white"/><rect x="147.87" y="0.5" width="0" height="0" rx="4" ry="4" fill="black" opacity="1"/></mask></defs><g pointer-events="none" opacity="1" mask=""><path d="M -0.00,-1.51 Q -0.00,-1.51 36.33,-1.56 72.67,-1.60 109.02,-1.67 145.36,-1.74 181.71,-1.82 218.05,-1.90 254.39,-1.99 290.74,-2.08 291.07,-2.03 291.41,-1.97 291.71,-1.81 292.01,-1.66 292.25,-1.41 292.48,-1.16 292.63,-0.86 292.77,-0.55 292.81,-0.21 292.85,0.12 292.77,0.45 292.70,0.78 292.53,1.08 292.35,1.37 292.09,1.59 291.84,1.81 291.52,1.94 291.20,2.06 290.86,2.08 290.52,2.10 290.20,2.01 289.87,1.92 289.59,1.73 289.30,1.54 289.10,1.27 288.89,1.00 288.78,0.68 288.67,0.36 288.67,0.02 288.67,-0.31 288.78,-0.63 288.88,-0.96 289.09,-1.23 289.29,-1.50 289.57,-1.69 289.86,-1.88 290.18,-1.98 290.51,-2.07 290.85,-2.05 291.19,-2.03 291.51,-1.91 291.82,-1.78 292.08,-1.56 292.34,-1.34 292.52,-1.05 292.70,-0.76 292.77,-0.43 292.84,-0.10 292.81,0.23 292.77,0.57 292.63,0.88 292.49,1.19 292.26,1.43 292.02,1.68 291.72,1.84 291.42,2.00 291.09,2.06 290.75,2.11 290.75,2.11 290.75,2.11 254.41,2.27 218.06,2.42 181.72,2.59 145.38,2.75 109.03,2.93 72.69,3.11 36.35,3.31 0.00,3.51 -0.29,3.48 -0.59,3.44 -0.87,3.34 -1.16,3.23 -1.41,3.06 -1.66,2.89 -1.86,2.66 -2.06,2.43 -2.20,2.16 -2.35,1.90 -2.42,1.60 -2.49,1.31 -2.49,1.00 -2.50,0.70 -2.42,0.40 -2.35,0.11 -2.21,-0.15 -2.07,-0.42 -1.87,-0.65 -1.67,-0.87 -1.42,-1.05 -1.17,-1.22 -0.89,-1.33 -0.61,-1.44 -0.30,-1.48 Z" fill="#36a64c" stroke="#36a64c" stroke-width="4.54" stroke-dasharray="none" stroke-dashoffset="none" stroke-linecap="round" stroke-linejoin="round" pointer-events="stroke"/><g><path d="M 261.04,-19.88275695626808 L 295.75,0 261.17,20.117014390804908" fill="none" stroke="#36a64c" stroke-width="9.09" stroke-linecap="round" stroke-linejoin="round" pointer-events="none"/></g></g></g><g text-align="left" text-anchor="start" fill="#ebbb38" transform="translate(378.41, 339.42) rotate(0.00, 95.00, 29.00)"><text y="24" letter-spacing="-1.44" font-size="48px" font-family="Caveat Brush" text-align="left" alignment-baseline="central" transform="translate(0, 0)">/products/5</text></g><g text-align="left" text-anchor="start" fill="#cecece" transform="translate(312.17, 83.24) rotate(0.00, 29.50, 17.50)"><text y="14" letter-spacing="-0.84" font-size="28px" font-family="Caveat Brush" text-align="left" alignment-baseline="central" transform="scale(0.8818427620532716)">server</text></g><g text-align="left" text-anchor="start" fill="#ebbb38" transform="translate(309.86, 47.79) rotate(0.00, 122.00, 25.50)"><text y="14" letter-spacing="-0.84" font-size="28px" font-family="Caveat Brush" text-align="left" alignment-baseline="central" transform="scale(1.4639668915507422)">Remix Framework</text></g><g id="391911c6-e06c-4f8a-28d3-22f31c42c26a_svg" class="tl-centered-g" transform="translate(831.07, 54.74) rotate(0.00, 104.61, 51.63)"><path d="M 1.17,31.29 Q 1.17,31.29 1.19,26.35 1.21,21.40 1.24,15.19 1.26,8.97 2.76,5.90 4.26,2.83 10.79,2.07 17.33,1.32 25.15,1.15 32.97,0.99 41.12,0.97 49.27,0.96 57.51,0.99 65.74,1.01 74.00,1.05 82.25,1.08 90.51,1.12 98.77,1.15 107.03,1.19 115.29,1.23 123.55,1.27 131.82,1.31 140.08,1.34 148.34,1.38 156.60,1.42 164.86,1.46 173.13,1.50 181.39,1.53 189.65,1.57 197.91,1.61 201.51,3.11 205.10,4.61 206.03,9.89 206.95,15.18 207.20,21.42 207.44,27.67 207.51,34.17 207.58,40.66 207.60,47.22 207.62,53.78 207.64,60.35 207.65,66.92 207.66,73.50 207.67,80.08 207.68,86.66 207.69,93.23 206.20,96.40 204.72,99.57 198.17,100.38 191.61,101.18 183.77,101.39 175.93,101.59 167.76,101.65 159.59,101.70 151.33,101.71 143.08,101.72 134.80,101.73 126.53,101.73 118.25,101.73 109.96,101.73 101.68,101.73 93.40,101.73 85.11,101.73 76.83,101.73 68.55,101.73 60.26,101.73 51.98,101.73 43.70,101.73 35.41,101.73 27.13,101.73 18.85,101.73 10.56,101.72 6.96,100.23 3.36,98.74 2.46,93.42 1.56,88.09 1.35,81.78 1.15,75.47 1.11,68.91 1.08,62.36 1.09,55.73 1.11,49.11 1.13,42.48 1.15,35.84 1.19,26.92" fill="#345246" pointer-events="none"/><path d="M -0.10,31.29 Q -0.10,31.29 -0.17,26.34 -0.24,21.39 -0.30,15.14 -0.36,8.90 1.50,5.29 3.37,1.68 10.26,0.73 17.15,-0.21 25.05,-0.32 32.94,-0.44 41.11,-0.39 49.27,-0.35 57.51,-0.28 65.74,-0.20 74.00,-0.11 82.25,-0.02 90.51,0.06 98.77,0.15 107.04,0.14 115.30,0.12 123.56,0.11 131.82,0.09 140.08,0.07 148.35,0.06 156.61,0.04 164.87,0.02 173.13,0.01 181.39,-0.00 189.68,-0.01 197.97,-0.02 202.08,1.81 206.20,3.66 207.30,9.29 208.40,14.93 208.56,21.27 208.72,27.62 208.69,34.14 208.67,40.65 208.69,47.21 208.72,53.77 208.82,60.35 208.93,66.92 209.03,73.50 209.14,80.07 209.23,86.69 209.33,93.30 207.47,97.00 205.61,100.71 198.70,101.71 191.80,102.71 183.89,102.87 175.97,103.03 167.78,103.03 159.60,103.02 151.34,102.98 143.08,102.94 134.80,102.89 126.53,102.84 118.25,102.78 109.96,102.73 101.68,102.78 93.40,102.84 85.11,102.89 76.83,102.95 68.55,103.00 60.26,103.05 51.98,103.11 43.70,103.16 35.41,103.21 27.13,103.27 18.82,103.32 10.51,103.37 6.39,101.52 2.26,99.68 1.19,94.00 0.12,88.33 -0.00,81.92 -0.12,75.51 -0.06,68.94 -0.00,62.36 0.00,55.74 0.01,49.11 -0.05,42.47 -0.11,35.83 -0.17,26.92 -0.23,18.00 -0.19,17.77 -0.15,17.54 -0.04,17.33 0.06,17.12 0.24,16.96 0.41,16.79 0.62,16.70 0.84,16.60 1.08,16.57 1.31,16.55 1.54,16.60 1.77,16.65 1.98,16.77 2.18,16.90 2.33,17.08 2.48,17.26 2.57,17.48 2.66,17.70 2.67,17.94 2.68,18.17 2.62,18.40 2.55,18.63 2.42,18.82 2.29,19.02 2.10,19.16 1.91,19.31 1.68,19.38 1.46,19.46 1.22,19.45 0.98,19.45 0.76,19.38 0.53,19.30 0.35,19.16 0.16,19.01 0.03,18.81 -0.10,18.62 -0.16,18.39 -0.22,18.16 -0.21,17.92 -0.19,17.69 -0.10,17.47 -0.02,17.25 0.13,17.07 0.28,16.89 0.49,16.77 0.69,16.65 0.92,16.60 1.15,16.55 1.39,16.57 1.62,16.60 1.84,16.70 2.05,16.80 2.22,16.96 2.40,17.13 2.51,17.34 2.62,17.55 2.65,17.78 2.69,18.02 2.69,18.02 2.69,18.01 2.56,26.93 2.43,35.84 2.32,42.48 2.20,49.12 2.19,55.73 2.17,62.35 2.30,68.89 2.42,75.43 2.71,81.64 3.01,87.84 3.73,92.83 4.46,97.81 7.53,98.95 10.61,100.08 18.87,100.13 27.13,100.18 35.41,100.24 43.70,100.29 51.98,100.35 60.26,100.40 68.55,100.46 76.83,100.51 85.11,100.57 93.40,100.62 101.68,100.68 109.96,100.73 118.25,100.68 126.53,100.62 134.80,100.56 143.08,100.51 151.33,100.44 159.58,100.37 167.74,100.27 175.89,100.16 183.66,99.91 191.43,99.65 197.63,99.04 203.83,98.43 204.94,95.80 206.06,93.17 206.13,86.62 206.21,80.08 206.29,73.50 206.37,66.93 206.45,60.35 206.53,53.78 206.51,47.23 206.48,40.67 206.32,34.20 206.16,27.72 205.84,21.57 205.51,15.43 204.76,10.49 204.01,5.56 200.93,4.41 197.86,3.25 189.62,3.16 181.38,3.08 173.12,2.98 164.86,2.89 156.60,2.80 148.33,2.71 140.07,2.61 131.81,2.52 123.55,2.43 115.29,2.34 107.03,2.25 98.77,2.15 90.51,2.17 82.25,2.19 73.99,2.21 65.74,2.23 57.51,2.26 49.28,2.29 41.14,2.35 33.00,2.42 25.26,2.63 17.51,2.85 11.33,3.41 5.14,3.97 4.02,6.51 2.90,9.05 2.79,15.23 2.68,21.40 2.56,26.35 2.45,31.30 2.43,31.45 2.41,31.61 2.36,31.75 2.30,31.89 2.21,32.02 2.12,32.15 2.01,32.25 1.89,32.35 1.76,32.42 1.62,32.49 1.47,32.53 1.32,32.56 1.17,32.56 1.01,32.56 0.86,32.53 0.71,32.49 0.58,32.42 0.44,32.34 0.32,32.24 0.21,32.14 0.12,32.01 0.04,31.88 -0.01,31.74 -0.06,31.60 -0.08,31.44 Z" fill="#36a64c" stroke="#36a64c" stroke-width="2" pointer-events="none"/></g><g id="50cec0c2-c51b-41c8-16f1-fd4cb406a3d4_svg" class="tl-centered-g" transform="translate(975.66, 334.57) rotate(0.00, 104.61, 51.63)"><path d="M 88.50,1.53 Q 88.50,1.53 94.67,1.54 100.84,1.55 108.59,1.56 116.33,1.57 124.47,1.58 132.62,1.59 140.86,1.60 149.11,1.61 157.38,1.62 165.65,1.64 173.93,1.65 182.21,1.66 190.49,1.67 198.77,1.68 202.38,3.17 205.98,4.67 206.89,9.97 207.81,15.27 208.04,21.55 208.27,27.82 208.32,34.35 208.38,40.87 208.39,47.46 208.40,54.04 208.40,60.65 208.40,67.25 208.40,73.86 208.39,80.46 208.39,87.07 208.38,93.68 206.89,96.85 205.40,100.03 198.83,100.84 192.26,101.66 184.40,101.87 176.53,102.08 168.34,102.14 160.14,102.20 151.86,102.22 143.58,102.24 135.28,102.25 126.98,102.26 118.68,102.27 110.37,102.28 102.06,102.28 93.75,102.29 85.45,102.30 77.14,102.31 68.83,102.31 60.52,102.32 52.21,102.33 43.90,102.33 35.60,102.34 27.29,102.35 18.98,102.35 10.67,102.36 7.06,100.87 3.45,99.38 2.57,94.06 1.69,88.73 1.50,82.43 1.31,76.12 1.30,69.57 1.29,63.02 1.33,56.40 1.36,49.78 1.41,43.15 1.46,36.51 1.51,29.88 1.56,23.24 1.61,16.60 1.66,9.96 3.16,6.78 4.66,3.60 11.21,2.79 17.77,1.99 25.61,1.79 33.45,1.60 41.62,1.55 49.79,1.51 58.04,1.51 66.29,1.51 74.57,1.52 82.84,1.52 91.12,1.53 99.40,1.55 107.68,1.56 115.96,1.57 127.08,1.58" fill="#345246" pointer-events="none"/><path d="M 88.51,0.42 Q 88.51,0.42 94.67,0.48 100.84,0.55 108.59,0.50 116.33,0.46 124.47,0.42 132.62,0.37 140.86,0.33 149.11,0.29 157.38,0.24 165.66,0.20 173.94,0.16 182.21,0.12 190.52,0.08 198.82,0.04 202.95,1.88 207.07,3.72 208.16,9.37 209.25,15.03 209.40,21.40 209.55,27.78 209.51,34.32 209.47,40.86 209.48,47.45 209.49,54.04 209.59,60.65 209.68,67.25 209.77,73.86 209.86,80.46 209.94,87.10 210.02,93.75 208.16,97.46 206.29,101.17 199.37,102.18 192.45,103.19 184.51,103.35 176.57,103.52 168.36,103.52 160.15,103.53 151.87,103.49 143.59,103.46 135.28,103.41 126.98,103.37 118.68,103.32 110.37,103.28 102.06,103.34 93.75,103.40 85.45,103.46 77.14,103.52 68.83,103.58 60.52,103.64 52.21,103.70 43.91,103.77 35.60,103.83 27.29,103.89 18.96,103.94 10.62,104.00 6.49,102.16 2.35,100.31 1.30,94.64 0.24,88.97 0.14,82.57 0.04,76.16 0.12,69.59 0.20,63.02 0.24,56.40 0.27,49.78 0.22,43.14 0.18,36.51 0.13,29.87 0.09,23.23 0.06,16.56 0.02,9.88 1.90,6.17 3.77,2.46 10.68,1.46 17.58,0.46 25.50,0.31 33.41,0.16 41.60,0.18 49.78,0.19 58.04,0.24 66.29,0.29 74.57,0.35 82.84,0.42 91.12,0.48 99.40,0.55 107.68,0.50 115.96,0.46 127.08,0.42 138.19,0.38 138.39,0.41 138.58,0.45 138.76,0.54 138.93,0.63 139.06,0.77 139.20,0.92 139.28,1.10 139.36,1.27 139.39,1.47 139.41,1.67 139.36,1.86 139.32,2.05 139.22,2.22 139.12,2.39 138.97,2.51 138.82,2.64 138.63,2.71 138.45,2.79 138.26,2.80 138.06,2.81 137.87,2.75 137.68,2.70 137.52,2.59 137.35,2.48 137.23,2.32 137.12,2.17 137.05,1.98 136.99,1.79 136.99,1.60 136.99,1.40 137.05,1.21 137.12,1.03 137.24,0.87 137.36,0.71 137.52,0.60 137.68,0.49 137.87,0.44 138.06,0.39 138.26,0.40 138.46,0.41 138.64,0.48 138.82,0.56 138.97,0.68 139.12,0.81 139.22,0.98 139.32,1.15 139.36,1.34 139.41,1.53 139.39,1.73 139.36,1.93 139.28,2.10 139.20,2.28 139.06,2.42 138.93,2.57 138.75,2.66 138.58,2.75 138.38,2.78 138.19,2.81 138.19,2.81 138.19,2.81 127.07,2.75 115.96,2.68 107.68,2.61 99.40,2.55 91.12,2.59 82.84,2.63 74.57,2.68 66.29,2.73 58.04,2.78 49.79,2.84 41.64,2.93 33.48,3.03 25.72,3.27 17.95,3.52 11.75,4.13 5.55,4.74 4.42,7.39 3.29,10.04 3.16,16.64 3.02,23.25 2.88,29.89 2.73,36.52 2.60,43.16 2.46,49.79 2.42,56.40 2.39,63.01 2.49,69.55 2.59,76.09 2.86,82.29 3.13,88.49 3.84,93.47 4.55,98.45 7.64,99.59 10.72,100.72 19.00,100.76 27.29,100.80 35.59,100.85 43.90,100.90 52.21,100.95 60.52,100.99 68.83,101.04 77.14,101.09 85.44,101.14 93.75,101.18 102.06,101.23 110.37,101.28 118.67,101.22 126.98,101.15 135.28,101.09 143.58,101.03 151.86,100.95 160.13,100.88 168.31,100.76 176.49,100.65 184.28,100.39 192.07,100.13 198.29,99.51 204.51,98.89 205.63,96.25 206.75,93.61 206.84,87.04 206.93,80.46 207.02,73.86 207.12,67.25 207.21,60.65 207.31,54.05 207.30,47.46 207.29,40.88 207.14,34.38 206.99,27.87 206.68,21.70 206.36,15.52 205.62,10.57 204.88,5.61 201.80,4.47 198.72,3.32 190.47,3.26 182.21,3.20 173.93,3.13 165.65,3.07 157.38,3.00 149.11,2.94 140.86,2.87 132.62,2.81 124.47,2.74 116.33,2.68 108.58,2.61 100.84,2.55 94.67,2.59 88.50,2.64 88.37,2.62 88.24,2.61 88.11,2.56 87.99,2.51 87.88,2.43 87.77,2.36 87.68,2.26 87.59,2.16 87.53,2.04 87.47,1.92 87.44,1.79 87.40,1.66 87.40,1.53 87.40,1.39 87.44,1.26 87.47,1.14 87.53,1.02 87.59,0.90 87.68,0.80 87.77,0.70 87.88,0.62 87.99,0.55 88.12,0.50 88.24,0.45 88.37,0.44 Z" fill="#36a64c" stroke="#36a64c" stroke-width="2" pointer-events="none"/></g><g text-align="left" text-anchor="start" fill="#cecece" transform="translate(848.28, 81.59) rotate(0.00, 86.50, 23.50)"><text y="24" letter-spacing="-1.44" font-size="48px" font-family="Caveat Brush" text-align="left" alignment-baseline="central" transform="scale(0.7747093953293803)">MainLayout()</text></g><g text-align="left" text-anchor="start" fill="#cecece" transform="translate(993.14, 370.46) rotate(0.00, 89.00, 21.00)"><text y="24" letter-spacing="-1.44" font-size="48px" font-family="Caveat Brush" text-align="left" alignment-baseline="central" transform="scale(0.6642116716633116)">ProductProfile()</text></g><g id="674cfd0d-9430-4c83-0b6c-b53c1a6ab19b_svg" class="tl-centered-g" transform="translate(716.12, 334.53) rotate(0.00, 104.61, 51.63)"><path d="M 87.84,1.20 Q 87.84,1.20 94.05,1.20 100.25,1.20 108.04,1.21 115.84,1.22 124.03,1.22 132.23,1.23 140.52,1.23 148.82,1.24 157.14,1.25 165.47,1.25 173.80,1.26 182.13,1.26 190.46,1.27 198.79,1.28 202.41,2.77 206.02,4.26 206.90,9.62 207.77,14.98 207.95,21.33 208.12,27.68 208.12,34.27 208.12,40.87 208.07,47.54 208.02,54.20 207.96,60.88 207.90,67.56 207.84,74.24 207.78,80.92 207.71,87.61 207.65,94.29 206.14,97.49 204.64,100.68 198.07,101.46 191.50,102.24 183.64,102.40 175.78,102.56 167.59,102.56 159.40,102.57 151.13,102.53 142.85,102.50 134.56,102.45 126.26,102.41 117.96,102.36 109.66,102.31 101.36,102.26 93.06,102.21 84.76,102.16 76.46,102.11 68.16,102.06 59.85,102.01 51.55,101.97 43.25,101.92 34.95,101.87 26.65,101.82 18.35,101.77 10.04,101.72 6.44,100.22 2.83,98.71 1.92,93.41 1.01,88.10 0.78,81.82 0.56,75.54 0.51,69.01 0.46,62.49 0.45,55.90 0.45,49.31 0.45,42.70 0.46,36.10 0.47,29.49 0.48,22.88 0.49,16.27 0.50,9.66 1.99,6.48 3.49,3.31 10.08,2.50 16.66,1.70 24.55,1.50 32.44,1.30 40.66,1.25 48.88,1.20 57.18,1.20 65.49,1.19 73.81,1.19 82.14,1.19 90.47,1.20 98.80,1.20 107.13,1.21 115.47,1.22 126.65,1.22" fill="#404a53" pointer-events="none"/><path d="M 87.84,0.09 Q 87.84,0.09 94.05,0.15 100.25,0.20 108.05,0.16 115.84,0.11 124.03,0.06 132.23,0.01 140.52,-0.03 148.82,-0.07 157.15,-0.12 165.47,-0.17 173.80,-0.22 182.13,-0.27 190.49,-0.31 198.84,-0.35 202.98,1.48 207.13,3.33 208.17,9.04 209.22,14.75 209.31,21.19 209.40,27.64 209.31,34.26 209.21,40.87 209.16,47.54 209.11,54.21 209.15,60.89 209.18,67.57 209.21,74.25 209.24,80.94 209.26,87.65 209.28,94.37 207.40,98.10 205.52,101.82 198.60,102.80 191.68,103.77 183.74,103.88 175.81,103.99 167.60,103.94 159.40,103.89 151.12,103.80 142.85,103.71 134.55,103.61 126.26,103.51 117.96,103.41 109.66,103.31 101.36,103.31 93.05,103.32 84.75,103.32 76.45,103.33 68.15,103.33 59.85,103.34 51.54,103.34 43.24,103.35 34.94,103.35 26.64,103.36 18.31,103.36 9.99,103.36 5.86,101.51 1.73,99.66 0.65,94.00 -0.43,88.34 -0.57,81.97 -0.71,75.59 -0.67,69.04 -0.63,62.50 -0.63,55.90 -0.63,49.31 -0.72,42.70 -0.81,36.10 -0.89,29.49 -0.97,22.88 -1.05,16.23 -1.12,9.59 0.73,5.88 2.60,2.17 9.54,1.17 16.48,0.17 24.44,0.02 32.40,-0.13 40.64,-0.12 48.87,-0.11 57.18,-0.07 65.49,-0.02 73.81,0.03 82.14,0.09 90.47,0.14 98.80,0.20 107.13,0.16 115.47,0.11 126.65,0.06 137.84,0.02 138.03,0.05 138.22,0.08 138.40,0.17 138.57,0.26 138.71,0.41 138.84,0.55 138.93,0.73 139.01,0.91 139.03,1.10 139.05,1.30 139.01,1.49 138.96,1.68 138.86,1.85 138.76,2.02 138.61,2.15 138.46,2.28 138.28,2.35 138.10,2.42 137.90,2.43 137.70,2.44 137.51,2.39 137.32,2.34 137.16,2.23 137.00,2.11 136.88,1.96 136.76,1.80 136.70,1.61 136.63,1.43 136.63,1.23 136.63,1.03 136.70,0.85 136.76,0.66 136.88,0.50 137.00,0.35 137.16,0.24 137.33,0.13 137.51,0.08 137.70,0.02 137.90,0.03 138.10,0.04 138.28,0.12 138.46,0.19 138.61,0.32 138.76,0.45 138.86,0.61 138.97,0.78 139.01,0.98 139.05,1.17 139.03,1.36 139.01,1.56 138.92,1.74 138.84,1.92 138.71,2.06 138.57,2.20 138.40,2.29 138.22,2.39 138.03,2.42 137.83,2.45 137.83,2.45 137.83,2.45 126.65,2.39 115.46,2.32 107.13,2.26 98.80,2.20 90.47,2.25 82.14,2.30 73.81,2.35 65.49,2.40 57.19,2.47 48.89,2.53 40.68,2.63 32.48,2.73 24.66,2.98 16.85,3.23 10.61,3.84 4.38,4.45 3.26,7.09 2.14,9.73 2.04,16.31 1.95,22.88 1.84,29.49 1.74,36.10 1.64,42.70 1.54,49.31 1.55,55.89 1.55,62.48 1.69,68.99 1.83,75.50 2.14,81.67 2.45,87.85 3.19,92.81 3.92,97.77 7.01,98.92 10.10,100.08 18.38,100.18 26.66,100.28 34.96,100.38 43.26,100.48 51.56,100.59 59.86,100.69 68.16,100.79 76.47,100.90 84.77,101.00 93.07,101.10 101.37,101.21 109.67,101.31 117.97,101.30 126.27,101.30 134.56,101.29 142.86,101.28 151.13,101.26 159.40,101.24 167.57,101.19 175.75,101.13 183.53,100.92 191.32,100.71 197.54,100.12 203.75,99.54 204.88,96.87 206.01,94.21 206.16,87.56 206.31,80.91 206.47,74.23 206.62,67.54 206.77,60.87 206.93,54.19 206.98,47.53 207.02,40.87 206.93,34.29 206.84,27.71 206.59,21.46 206.33,15.22 205.62,10.20 204.92,5.19 201.83,4.05 198.75,2.92 190.44,2.86 182.13,2.81 173.80,2.75 165.47,2.69 157.14,2.63 148.82,2.57 140.52,2.51 132.22,2.44 124.03,2.38 115.83,2.32 108.04,2.26 100.25,2.20 94.04,2.25 87.84,2.30 87.70,2.29 87.57,2.27 87.45,2.22 87.32,2.18 87.21,2.10 87.10,2.02 87.01,1.92 86.92,1.82 86.86,1.71 86.80,1.59 86.77,1.46 86.74,1.33 86.74,1.19 86.74,1.06 86.77,0.93 86.80,0.80 86.86,0.68 86.93,0.57 87.01,0.47 87.10,0.37 87.21,0.29 87.32,0.21 87.45,0.17 87.57,0.12 87.71,0.10 Z" fill="#717d8a" stroke="#717d8a" stroke-width="2" pointer-events="none"/></g><g text-align="left" text-anchor="start" fill="#717d8a" transform="translate(724.82, 365.48) rotate(0.00, 96.00, 21.00)"><text y="24" letter-spacing="-1.44" font-size="48px" font-family="Caveat Brush" text-align="left" alignment-baseline="central" transform="scale(0.6668748179236411)">BrowseProducts()</text></g><g id="e5eb498d-868d-4e03-2643-0ceb11554d00_svg" class="tl-centered-g" transform="translate(774.41, 487.79) rotate(0.00, 54.72, 30.13)"><path d="M 1.33,19.15 Q 1.33,19.15 1.35,16.51 1.37,13.86 1.39,10.54 1.42,7.22 2.91,4.88 4.41,2.55 10.02,1.95 15.63,1.35 22.29,1.19 28.96,1.03 35.89,0.99 42.82,0.94 49.81,0.93 56.81,0.91 63.83,0.90 70.84,0.89 77.86,0.89 84.88,0.88 91.90,0.87 98.92,0.87 102.21,2.36 105.49,3.85 106.34,6.90 107.19,9.95 107.43,13.39 107.67,16.84 107.74,20.39 107.82,23.94 107.86,27.52 107.90,31.09 107.92,34.67 107.95,38.25 107.98,41.84 108.00,45.42 108.02,49.00 108.05,52.59 106.56,54.99 105.08,57.40 99.44,57.99 93.79,58.58 87.08,58.72 80.38,58.85 73.40,58.86 66.42,58.88 59.38,58.86 52.33,58.84 45.27,58.82 38.21,58.80 31.14,58.77 24.07,58.75 17.00,58.72 9.93,58.69 6.64,57.20 3.35,55.70 2.53,52.67 1.70,49.64 1.51,46.23 1.32,42.81 1.29,39.29 1.26,35.77 1.27,32.23 1.28,28.68 1.30,25.13 1.32,21.58 1.35,16.82" fill="#404a53" pointer-events="none"/><path d="M 0.06,19.15 Q 0.06,19.15 -0.01,16.50 -0.08,13.85 -0.13,10.46 -0.18,7.07 1.64,4.22 3.47,1.37 9.47,0.63 15.48,-0.10 22.20,-0.17 28.93,-0.24 35.87,-0.19 42.81,-0.14 49.81,-0.16 56.81,-0.17 63.83,-0.27 70.84,-0.37 77.86,-0.47 84.88,-0.57 91.93,-0.67 98.98,-0.76 102.74,0.98 106.49,2.72 107.55,6.14 108.61,9.56 108.77,13.16 108.94,16.75 108.93,20.33 108.91,23.92 108.95,27.50 108.99,31.08 109.11,34.66 109.23,38.24 109.35,41.83 109.46,45.41 109.56,49.06 109.66,52.71 107.83,55.64 106.01,58.56 99.97,59.30 93.94,60.04 87.17,60.08 80.40,60.13 73.42,60.05 66.43,59.97 59.38,59.95 52.33,59.94 45.27,60.01 38.20,60.08 31.13,60.14 24.07,60.21 16.97,60.27 9.87,60.33 6.10,58.57 2.34,56.82 1.31,53.42 0.29,50.02 0.17,46.45 0.04,42.88 0.11,39.33 0.17,35.78 0.18,32.23 0.19,28.68 0.11,25.13 0.04,21.58 -0.01,16.81 -0.07,12.04 -0.03,11.81 0.00,11.57 0.11,11.37 0.22,11.16 0.40,10.99 0.57,10.83 0.78,10.73 1.00,10.64 1.24,10.61 1.47,10.59 1.70,10.64 1.93,10.69 2.14,10.82 2.34,10.94 2.49,11.12 2.64,11.30 2.73,11.52 2.82,11.74 2.83,11.98 2.84,12.22 2.77,12.45 2.71,12.67 2.57,12.87 2.44,13.06 2.25,13.21 2.06,13.35 1.84,13.42 1.61,13.50 1.37,13.50 1.14,13.49 0.91,13.42 0.69,13.34 0.50,13.19 0.31,13.05 0.18,12.85 0.05,12.66 -0.00,12.43 -0.06,12.20 -0.05,11.96 -0.03,11.73 0.04,11.51 0.13,11.29 0.29,11.11 0.44,10.93 0.65,10.81 0.85,10.69 1.08,10.64 1.31,10.59 1.55,10.61 1.78,10.64 2.00,10.74 2.21,10.84 2.38,11.01 2.55,11.17 2.66,11.38 2.77,11.59 2.81,11.83 2.85,12.06 2.85,12.06 2.85,12.06 2.72,16.83 2.60,21.59 2.49,25.14 2.37,28.69 2.36,32.22 2.35,35.76 2.48,39.25 2.60,42.74 2.86,46.00 3.12,49.27 3.74,51.93 4.36,54.59 7.18,55.82 10.00,57.06 17.04,57.17 24.08,57.28 31.14,57.40 38.21,57.52 45.27,57.63 52.34,57.75 59.38,57.77 66.42,57.78 73.39,57.68 80.35,57.57 87.00,57.35 93.64,57.13 98.90,56.68 104.16,56.23 105.30,54.35 106.44,52.47 106.49,48.95 106.54,45.43 106.60,41.85 106.67,38.26 106.74,34.68 106.80,31.10 106.77,27.53 106.73,23.96 106.56,20.45 106.39,16.93 106.09,13.63 105.78,10.33 105.13,7.65 104.48,4.97 101.67,3.74 98.87,2.51 91.87,2.43 84.88,2.35 77.86,2.26 70.84,2.17 63.83,2.09 56.81,2.00 49.82,2.02 42.82,2.03 35.90,2.17 28.99,2.31 22.39,2.55 15.79,2.80 10.56,3.26 5.34,3.72 4.18,5.54 3.03,7.37 2.93,10.62 2.83,13.87 2.72,16.52 2.61,19.16 2.59,19.32 2.57,19.47 2.52,19.61 2.46,19.76 2.37,19.88 2.29,20.01 2.17,20.11 2.05,20.21 1.92,20.28 1.78,20.35 1.63,20.39 1.48,20.42 1.33,20.42 1.17,20.42 1.02,20.38 0.87,20.35 0.74,20.27 0.60,20.20 0.49,20.10 0.37,20.00 0.29,19.87 0.20,19.74 0.14,19.60 0.09,19.45 0.07,19.30 Z" fill="#717d8a" stroke="#717d8a" stroke-width="2" pointer-events="none"/></g><g id="9781ddb1-a902-49fa-293c-b36a397be5a9_svg" class="tl-centered-g" transform="translate(661.64, 556.21) rotate(0.00, 38.33, 23.14)"><path d="M 75.48,30.29 Q 75.48,30.29 75.42,32.23 75.37,34.17 75.30,36.61 75.23,39.04 73.72,41.16 72.22,43.27 68.32,43.86 64.43,44.45 59.93,44.65 55.43,44.86 50.77,44.96 46.11,45.07 41.42,45.15 36.72,45.23 32.01,45.30 27.31,45.37 22.60,45.44 17.89,45.52 13.18,45.59 8.47,45.66 5.78,44.19 3.09,42.72 2.37,40.36 1.65,38.00 1.43,35.42 1.21,32.84 1.12,30.20 1.03,27.56 0.98,24.90 0.92,22.25 0.87,19.59 0.83,16.93 0.78,14.27 0.73,11.61 0.69,8.95 0.64,6.29 2.12,4.12 3.60,1.95 7.58,1.39 11.55,0.83 16.16,0.67 20.77,0.51 25.54,0.46 30.32,0.41 35.13,0.39 39.95,0.36 44.77,0.34 49.60,0.33 54.43,0.31 59.25,0.29 64.08,0.28 68.91,0.26 71.63,1.75 74.35,3.23 74.99,5.55 75.63,7.87 75.74,10.40 75.85,12.94 75.82,15.52 75.79,18.11 75.73,20.71 75.67,23.31 75.60,25.91 75.53,28.51 75.43,32.01" fill="#404a53" pointer-events="none"/><path d="M 76.76,30.33 Q 76.76,30.33 76.79,32.27 76.83,34.22 76.83,36.73 76.83,39.25 75.03,41.84 73.23,44.43 68.94,45.16 64.65,45.90 60.07,46.02 55.48,46.13 50.81,46.15 46.14,46.16 41.44,46.24 36.74,46.32 32.03,46.48 27.33,46.65 22.62,46.82 17.91,46.98 13.15,47.13 8.39,47.28 5.23,45.59 2.07,43.89 1.16,41.16 0.25,38.42 0.09,35.68 -0.05,32.94 -0.05,30.27 -0.05,27.59 -0.10,24.93 -0.16,22.27 -0.30,19.61 -0.44,16.95 -0.58,14.29 -0.72,11.64 -0.83,8.89 -0.94,6.14 0.83,3.47 2.61,0.80 6.98,0.09 11.34,-0.61 16.04,-0.68 20.73,-0.75 25.52,-0.71 30.31,-0.67 35.12,-0.70 39.94,-0.72 44.77,-0.83 49.59,-0.94 54.42,-1.05 59.25,-1.16 64.13,-1.26 69.00,-1.35 72.20,0.36 75.39,2.09 76.22,4.79 77.04,7.49 77.08,10.19 77.12,12.88 77.00,15.50 76.89,18.12 76.82,20.72 76.76,23.33 76.78,25.94 76.81,28.55 76.80,32.05 76.80,35.54 76.75,35.78 76.71,36.01 76.59,36.21 76.47,36.42 76.30,36.58 76.12,36.74 75.90,36.83 75.68,36.92 75.45,36.94 75.21,36.96 74.98,36.90 74.75,36.85 74.55,36.72 74.35,36.59 74.20,36.41 74.06,36.22 73.97,36.00 73.89,35.78 73.89,35.54 73.88,35.30 73.95,35.08 74.02,34.85 74.16,34.66 74.30,34.47 74.49,34.33 74.68,34.19 74.91,34.12 75.14,34.05 75.37,34.06 75.61,34.06 75.83,34.15 76.05,34.23 76.24,34.38 76.42,34.53 76.55,34.73 76.68,34.93 76.73,35.16 76.79,35.39 76.77,35.62 76.75,35.86 76.66,36.08 76.56,36.29 76.41,36.47 76.25,36.64 76.04,36.76 75.84,36.88 75.60,36.92 75.37,36.97 75.13,36.93 74.90,36.90 74.69,36.80 74.48,36.69 74.31,36.52 74.14,36.36 74.04,36.14 73.93,35.93 73.90,35.70 73.87,35.46 73.87,35.46 73.87,35.46 74.06,31.97 74.25,28.48 74.41,25.88 74.58,23.28 74.64,20.69 74.70,18.10 74.63,15.54 74.57,12.99 74.39,10.62 74.22,8.25 73.77,6.31 73.32,4.37 71.07,3.13 68.82,1.89 64.04,1.82 59.26,1.76 54.43,1.68 49.60,1.60 44.78,1.53 39.95,1.45 35.14,1.48 30.33,1.50 25.57,1.65 20.81,1.79 16.28,2.03 11.75,2.28 8.18,2.69 4.60,3.11 3.42,4.78 2.24,6.44 2.22,9.01 2.20,11.59 2.15,14.25 2.10,16.91 2.06,19.56 2.01,22.22 2.07,24.87 2.13,27.52 2.31,30.12 2.49,32.73 2.77,35.16 3.05,37.58 3.58,39.56 4.10,41.54 6.33,42.79 8.55,44.04 13.21,44.04 17.87,44.05 22.58,44.07 27.29,44.09 31.99,44.11 36.70,44.13 41.39,44.05 46.09,43.97 50.73,43.78 55.37,43.58 59.79,43.29 64.21,43.00 67.71,42.55 71.21,42.10 72.42,40.47 73.63,38.84 73.77,36.49 73.91,34.13 74.05,32.20 74.20,30.26 74.22,30.11 74.25,29.95 74.31,29.81 74.36,29.67 74.46,29.54 74.55,29.42 74.66,29.32 74.78,29.22 74.92,29.15 75.06,29.09 75.21,29.05 75.36,29.02 75.51,29.03 75.67,29.03 75.82,29.07 75.97,29.11 76.10,29.19 76.23,29.26 76.35,29.37 76.46,29.47 76.54,29.60 76.63,29.73 76.68,29.88 76.73,30.02 76.74,30.18 Z" fill="#717d8a" stroke="#717d8a" stroke-width="2" pointer-events="none"/></g><g id="7b04324d-a0e9-4759-32e3-7122b8eaaea0_svg" class="tl-centered-g" transform="translate(935.39, 568.15) rotate(0.00, 27.25, 16.91)"><path d="M 17.13,32.30 Q 17.13,32.30 14.75,32.31 12.37,32.32 9.39,32.33 6.40,32.34 4.15,30.85 1.90,29.36 1.40,27.74 0.89,26.13 0.84,24.47 0.78,22.82 0.84,21.16 0.90,19.50 0.98,17.84 1.07,16.18 1.16,14.52 1.26,12.85 1.35,11.19 1.45,9.53 1.54,7.87 1.64,6.20 3.15,4.29 4.67,2.38 7.41,1.89 10.15,1.41 13.20,1.29 16.25,1.17 19.38,1.14 22.52,1.12 25.67,1.12 28.82,1.11 31.98,1.12 35.14,1.12 38.30,1.13 41.46,1.13 44.61,1.14 47.77,1.14 50.07,2.64 52.37,4.13 52.90,5.73 53.44,7.34 53.53,8.98 53.63,10.61 53.60,12.26 53.58,13.90 53.53,15.55 53.47,17.19 53.42,18.84 53.36,20.48 53.29,22.13 53.23,23.78 53.17,25.42 53.11,27.07 51.60,28.98 50.10,30.89 47.33,31.38 44.57,31.88 41.49,32.01 38.40,32.15 35.24,32.19 32.07,32.23 28.89,32.25 25.70,32.27 22.51,32.28 19.32,32.29 15.03,32.31" fill="#404a53" pointer-events="none"/><path d="M 17.14,33.58 Q 17.14,33.58 14.76,33.68 12.38,33.78 9.32,33.86 6.25,33.94 3.55,32.24 0.84,30.54 0.17,28.54 -0.50,26.55 -0.49,24.71 -0.49,22.87 -0.34,21.17 -0.19,19.47 -0.10,17.79 -0.01,16.12 -0.01,14.45 -0.01,12.78 -0.01,11.11 -0.01,9.45 0.02,7.69 0.06,5.94 1.84,3.57 3.63,1.20 6.76,0.58 9.90,-0.02 13.05,-0.06 16.20,-0.10 19.36,-0.03 22.51,0.03 25.66,0.02 28.82,0.02 31.98,-0.06 35.14,-0.15 38.30,-0.23 41.46,-0.32 44.69,-0.39 47.92,-0.45 50.66,1.23 53.41,2.93 54.12,4.91 54.83,6.89 54.87,8.71 54.90,10.54 54.79,12.23 54.67,13.92 54.62,15.57 54.57,17.23 54.60,18.88 54.63,20.53 54.66,22.18 54.70,23.83 54.69,25.57 54.69,27.31 52.91,29.69 51.14,32.06 47.98,32.69 44.83,33.32 41.64,33.37 38.46,33.42 35.27,33.37 32.09,33.32 28.90,33.34 25.71,33.36 22.51,33.47 19.32,33.57 15.04,33.68 10.75,33.79 10.52,33.75 10.28,33.71 10.07,33.60 9.86,33.49 9.70,33.32 9.54,33.15 9.44,32.93 9.34,32.72 9.31,32.48 9.28,32.25 9.33,32.02 9.38,31.79 9.50,31.58 9.63,31.38 9.81,31.22 9.99,31.07 10.21,30.98 10.43,30.89 10.66,30.88 10.90,30.87 11.13,30.93 11.36,30.99 11.55,31.12 11.75,31.26 11.89,31.44 12.04,31.63 12.11,31.86 12.19,32.08 12.19,32.32 12.19,32.55 12.12,32.78 12.04,33.00 11.90,33.19 11.76,33.38 11.56,33.52 11.36,33.65 11.14,33.71 10.91,33.78 10.67,33.77 10.43,33.75 10.21,33.67 9.99,33.58 9.81,33.43 9.63,33.27 9.51,33.07 9.39,32.87 9.33,32.64 9.28,32.41 9.31,32.17 9.33,31.94 9.43,31.72 9.53,31.50 9.69,31.33 9.85,31.16 10.06,31.05 10.27,30.94 10.51,30.90 10.74,30.86 10.74,30.86 10.74,30.86 15.03,30.94 19.31,31.01 22.50,31.09 25.69,31.17 28.88,31.16 32.06,31.14 35.20,31.00 38.35,30.87 41.33,30.65 44.31,30.44 46.68,30.07 49.05,29.71 50.29,28.27 51.53,26.82 51.65,25.27 51.77,23.72 51.92,22.08 52.08,20.44 52.23,18.80 52.38,17.16 52.43,15.52 52.49,13.88 52.42,12.28 52.35,10.68 52.20,9.24 52.05,7.79 51.69,6.56 51.32,5.32 49.47,4.04 47.63,2.75 44.54,2.67 41.45,2.60 38.29,2.50 35.14,2.40 31.98,2.30 28.82,2.21 25.67,2.21 22.53,2.21 19.41,2.33 16.30,2.45 13.35,2.65 10.40,2.85 8.05,3.20 5.71,3.55 4.46,5.01 3.22,6.47 3.07,8.04 2.91,9.61 2.72,11.27 2.53,12.93 2.35,14.58 2.16,16.24 2.07,17.89 1.99,19.54 2.02,21.16 2.06,22.78 2.18,24.24 2.29,25.71 2.63,26.95 2.96,28.19 4.75,29.46 6.55,30.73 9.46,30.79 12.37,30.85 14.75,30.94 17.13,31.02 17.28,31.04 17.43,31.06 17.58,31.11 17.72,31.17 17.85,31.25 17.98,31.34 18.08,31.46 18.18,31.57 18.25,31.71 18.33,31.84 18.36,31.99 18.40,32.14 18.40,32.30 18.40,32.45 18.37,32.60 18.33,32.75 18.26,32.89 18.19,33.02 18.08,33.14 17.98,33.26 17.86,33.34 17.73,33.43 17.59,33.49 17.44,33.54 17.29,33.56 Z" fill="#717d8a" stroke="#717d8a" stroke-width="2" pointer-events="none"/></g><g id="57e92c32-db2e-4638-00f7-091bfa104803_svg" class="tl-centered-g" transform="translate(1057.65, 472.46) rotate(0.00, 62.09, 34.80)"><path d="M 86.63,1.03 Q 86.63,1.03 92.70,1.05 98.77,1.06 106.39,1.08 114.01,1.09 117.44,2.59 120.87,4.08 121.73,7.60 122.59,11.12 122.79,15.15 123.00,19.19 123.03,23.35 123.07,27.52 123.06,31.72 123.05,35.92 123.03,40.13 123.02,44.34 123.00,48.55 122.98,52.76 122.95,56.97 122.93,61.18 121.44,63.74 119.94,66.31 113.50,67.01 107.05,67.71 99.35,67.93 91.64,68.16 83.62,68.26 75.59,68.37 67.48,68.44 59.37,68.51 51.24,68.58 43.11,68.64 34.97,68.71 26.84,68.77 18.70,68.83 10.56,68.89 7.00,67.42 3.43,65.95 2.53,62.37 1.63,58.80 1.41,54.69 1.19,50.58 1.14,46.34 1.09,42.09 1.08,37.81 1.08,33.53 1.09,29.24 1.09,24.95 1.10,20.66 1.11,16.37 1.12,12.08 1.13,7.79 2.62,5.20 4.11,2.62 10.57,1.97 17.02,1.33 24.73,1.18 32.45,1.02 40.49,1.00 48.53,0.98 56.65,0.98 64.77,0.99 72.91,1.01 81.05,1.02 91.99,1.05" fill="#345246" pointer-events="none"/><path d="M 86.63,-0.24 Q 86.63,-0.24 92.70,-0.32 98.77,-0.39 106.42,-0.46 114.06,-0.53 117.98,1.23 121.90,3.01 122.96,6.90 124.01,10.78 124.14,14.95 124.27,19.12 124.22,23.32 124.16,27.51 124.15,31.72 124.15,35.92 124.22,40.13 124.30,44.34 124.37,48.55 124.44,52.76 124.50,57.03 124.55,61.30 122.71,64.38 120.86,67.47 114.04,68.31 107.21,69.16 99.45,69.30 91.68,69.44 83.64,69.45 75.60,69.46 67.49,69.53 59.38,69.60 51.25,69.76 43.12,69.92 34.98,70.08 26.85,70.23 18.69,70.38 10.53,70.53 6.47,68.78 2.41,67.02 1.31,63.09 0.21,59.15 0.06,54.90 -0.08,50.65 -0.04,46.38 0.00,42.10 -0.00,37.82 -0.00,33.53 -0.09,29.24 -0.18,24.95 -0.26,20.66 -0.34,16.37 -0.41,12.02 -0.48,7.67 1.36,4.56 3.21,1.45 10.04,0.66 16.87,-0.12 24.65,-0.18 32.42,-0.24 40.47,-0.18 48.52,-0.11 56.65,-0.10 64.77,-0.09 72.91,-0.17 81.05,-0.25 91.99,-0.32 102.93,-0.39 103.16,-0.35 103.39,-0.31 103.60,-0.20 103.81,-0.08 103.97,0.08 104.14,0.25 104.24,0.47 104.34,0.68 104.36,0.92 104.39,1.15 104.33,1.38 104.28,1.61 104.16,1.82 104.04,2.02 103.86,2.17 103.68,2.33 103.46,2.41 103.23,2.50 103.00,2.51 102.76,2.52 102.53,2.46 102.31,2.40 102.11,2.26 101.91,2.13 101.77,1.94 101.63,1.75 101.55,1.53 101.48,1.30 101.48,1.07 101.48,0.83 101.56,0.60 101.63,0.38 101.78,0.19 101.92,0.00 102.12,-0.12 102.31,-0.25 102.54,-0.31 102.77,-0.38 103.00,-0.36 103.24,-0.35 103.46,-0.26 103.68,-0.17 103.86,-0.02 104.04,0.12 104.16,0.33 104.28,0.53 104.34,0.76 104.39,0.99 104.36,1.23 104.33,1.46 104.23,1.68 104.13,1.89 103.97,2.07 103.81,2.24 103.60,2.35 103.39,2.46 103.15,2.50 102.92,2.53 102.92,2.53 102.92,2.53 91.98,2.42 81.05,2.30 72.91,2.19 64.77,2.08 56.65,2.08 48.53,2.07 40.50,2.19 32.47,2.30 24.82,2.54 17.16,2.78 11.09,3.28 5.02,3.78 3.88,5.84 2.75,7.90 2.66,12.14 2.57,16.37 2.47,20.66 2.37,24.95 2.27,29.24 2.17,33.53 2.18,37.80 2.18,42.08 2.32,46.30 2.46,50.51 2.76,54.48 3.05,58.45 3.75,61.66 4.46,64.87 7.53,66.06 10.60,67.25 18.71,67.28 26.83,67.30 34.96,67.33 43.10,67.36 51.23,67.39 59.36,67.42 67.47,67.35 75.57,67.27 83.59,67.08 91.61,66.88 99.25,66.57 106.90,66.25 112.96,65.70 119.02,65.15 120.17,63.10 121.31,61.06 121.41,56.91 121.51,52.75 121.62,48.54 121.74,44.33 121.85,40.12 121.96,35.92 121.97,31.72 121.97,27.53 121.85,23.39 121.72,19.25 121.44,15.36 121.17,11.46 120.50,8.31 119.84,5.15 116.89,3.94 113.95,2.73 106.36,2.63 98.76,2.52 92.69,2.42 86.62,2.31 86.47,2.29 86.32,2.27 86.17,2.22 86.03,2.16 85.90,2.08 85.78,1.99 85.67,1.87 85.57,1.76 85.50,1.62 85.43,1.48 85.39,1.33 85.36,1.18 85.36,1.03 85.36,0.88 85.39,0.73 85.43,0.58 85.50,0.44 85.57,0.30 85.68,0.19 85.78,0.07 85.91,-0.00 86.03,-0.09 86.18,-0.15 86.32,-0.20 86.48,-0.22 Z" fill="#36a64c" stroke="#36a64c" stroke-width="2" pointer-events="none"/></g><g id="9b73172f-2a5a-4c31-0357-0b5a49c6bfdd_svg" class="tl-centered-g" transform="translate(1183.53, 576.27) rotate(0.00, 26.34, 16.56)"><path d="M 51.61,21.08 Q 51.61,21.08 51.60,22.29 51.58,23.49 51.56,25.01 51.53,26.53 50.04,28.41 48.54,30.28 45.94,30.81 43.33,31.34 40.44,31.53 37.54,31.71 34.58,31.81 31.62,31.91 28.63,31.98 25.65,32.06 22.66,32.13 19.68,32.20 16.69,32.27 13.70,32.33 10.71,32.40 7.72,32.47 5.47,31.00 3.22,29.52 2.59,27.91 1.96,26.31 1.75,24.66 1.54,23.02 1.43,21.37 1.32,19.71 1.24,18.06 1.16,16.40 1.09,14.75 1.02,13.09 0.95,11.44 0.87,9.78 0.80,8.13 0.73,6.47 2.20,4.56 3.68,2.65 6.35,2.13 9.02,1.62 12.00,1.46 14.98,1.30 18.03,1.24 21.09,1.17 24.17,1.13 27.24,1.08 30.33,1.05 33.41,1.01 36.49,0.97 39.57,0.94 42.66,0.90 45.74,0.86 48.02,2.35 50.29,3.83 50.86,5.41 51.42,7.00 51.55,8.62 51.67,10.23 51.69,11.85 51.70,13.47 51.69,15.09 51.67,16.72 51.65,18.34 51.63,19.96 51.60,22.14" fill="#345246" pointer-events="none"/><path d="M 52.89,21.09 Q 52.89,21.09 52.97,22.31 53.04,23.52 53.08,25.14 53.11,26.76 51.36,29.11 49.61,31.45 46.61,32.11 43.62,32.78 40.62,32.88 37.63,32.99 34.64,32.99 31.65,33.00 28.66,33.08 25.68,33.15 22.69,33.31 19.71,33.48 16.72,33.64 13.73,33.80 10.66,33.93 7.59,34.07 4.89,32.41 2.20,30.76 1.40,28.79 0.60,26.83 0.43,25.00 0.27,23.18 0.25,21.48 0.23,19.78 0.15,18.12 0.07,16.46 -0.08,14.80 -0.25,13.15 -0.42,11.50 -0.58,9.85 -0.70,8.07 -0.83,6.29 0.89,3.89 2.62,1.49 5.68,0.83 8.75,0.18 11.83,0.11 14.91,0.03 17.99,0.05 21.07,0.08 24.15,0.04 27.23,-0.00 30.31,-0.13 33.39,-0.26 36.48,-0.39 39.56,-0.52 42.72,-0.62 45.88,-0.73 48.60,0.94 51.33,2.61 52.07,4.57 52.80,6.52 52.87,8.33 52.95,10.13 52.87,11.80 52.79,13.46 52.78,15.09 52.76,16.73 52.84,18.35 52.91,19.98 52.97,22.16 53.03,24.34 52.99,24.58 52.95,24.81 52.83,25.02 52.72,25.23 52.55,25.39 52.37,25.55 52.15,25.64 51.94,25.74 51.70,25.76 51.47,25.78 51.24,25.73 51.01,25.68 50.80,25.55 50.60,25.43 50.45,25.24 50.30,25.06 50.22,24.84 50.13,24.62 50.12,24.38 50.11,24.14 50.18,23.92 50.25,23.69 50.38,23.49 50.52,23.30 50.71,23.16 50.90,23.02 51.13,22.95 51.35,22.87 51.59,22.88 51.82,22.88 52.05,22.96 52.27,23.04 52.46,23.19 52.64,23.33 52.77,23.53 52.90,23.73 52.96,23.96 53.02,24.19 53.01,24.42 52.99,24.66 52.90,24.88 52.81,25.10 52.65,25.27 52.50,25.45 52.29,25.57 52.09,25.69 51.86,25.74 51.62,25.79 51.39,25.76 51.15,25.73 50.94,25.63 50.73,25.52 50.56,25.36 50.39,25.19 50.28,24.98 50.17,24.77 50.14,24.54 50.10,24.30 50.10,24.30 50.10,24.30 50.23,22.12 50.35,19.95 50.46,18.33 50.58,16.71 50.59,15.09 50.61,13.48 50.50,11.90 50.40,10.33 50.22,8.90 50.04,7.48 49.65,6.26 49.26,5.04 47.43,3.75 45.61,2.47 42.60,2.44 39.59,2.40 36.51,2.34 33.42,2.29 30.34,2.23 27.26,2.18 24.19,2.22 21.12,2.26 18.08,2.42 15.05,2.58 12.17,2.82 9.30,3.06 7.01,3.43 4.73,3.81 3.52,5.23 2.30,6.65 2.32,8.19 2.34,9.72 2.32,11.38 2.29,13.04 2.27,14.69 2.25,16.35 2.33,18.00 2.41,19.64 2.61,21.25 2.81,22.85 3.07,24.32 3.33,25.78 3.78,27.04 4.24,28.29 6.04,29.58 7.85,30.87 10.76,30.87 13.67,30.87 16.66,30.89 19.65,30.92 22.63,30.94 25.62,30.97 28.60,30.89 31.58,30.82 34.52,30.63 37.46,30.44 40.25,30.17 43.04,29.91 45.26,29.51 47.48,29.12 48.72,27.71 49.96,26.30 50.04,24.88 50.11,23.47 50.23,22.27 50.34,21.06 50.36,20.90 50.38,20.75 50.43,20.61 50.49,20.46 50.58,20.34 50.67,20.21 50.79,20.11 50.90,20.01 51.04,19.94 51.18,19.87 51.33,19.84 51.48,19.80 51.63,19.81 51.79,19.81 51.94,19.85 52.09,19.89 52.22,19.96 52.36,20.03 52.47,20.14 52.58,20.24 52.67,20.37 52.76,20.50 52.81,20.64 52.86,20.79 52.88,20.94 Z" fill="#36a64c" stroke="#36a64c" stroke-width="2" pointer-events="none"/></g><g id="12857027-d70c-4b2b-1d92-97adce08bc91_svg" class="tl-centered-g" transform="translate(765.14, 195.48) rotate(0.00, 104.61, 51.63)"><path d="M 207.98,71.06 Q 207.98,71.06 207.91,75.98 207.84,80.91 207.76,87.09 207.67,93.27 206.16,96.34 204.64,99.41 198.09,100.20 191.53,101.00 183.69,101.21 175.84,101.43 167.67,101.50 159.50,101.57 151.24,101.60 142.99,101.63 134.71,101.65 126.44,101.67 118.16,101.69 109.87,101.71 101.59,101.73 93.31,101.75 85.02,101.77 76.74,101.79 68.46,101.81 60.17,101.82 51.89,101.84 43.60,101.86 35.32,101.88 27.04,101.90 18.75,101.92 10.47,101.93 6.87,100.45 3.27,98.96 2.36,93.63 1.45,88.31 1.24,82.00 1.02,75.69 0.98,69.13 0.93,62.57 0.94,55.94 0.94,49.32 0.95,42.68 0.97,36.04 0.98,29.40 1.00,22.75 1.02,16.11 1.03,9.46 2.53,6.28 4.02,3.09 10.61,2.28 17.19,1.47 25.08,1.27 32.96,1.06 41.18,1.01 49.39,0.96 57.69,0.94 65.99,0.93 74.31,0.93 82.63,0.93 90.96,0.93 99.28,0.93 107.61,0.93 115.94,0.93 124.27,0.93 132.60,0.93 140.92,0.93 149.25,0.94 157.58,0.94 165.91,0.94 174.24,0.94 182.56,0.94 190.89,0.94 199.22,0.94 202.83,2.43 206.45,3.92 207.30,9.23 208.15,14.54 208.30,20.81 208.45,27.09 208.41,33.62 208.38,40.15 208.30,46.74 208.22,53.33 208.13,59.93 208.04,66.54 207.92,75.41" fill="#345246" pointer-events="none"/><path d="M 209.26,71.08 Q 209.26,71.08 209.28,76.00 209.31,80.93 209.30,87.15 209.30,93.37 207.42,96.96 205.54,100.55 198.63,101.54 191.71,102.53 183.80,102.70 175.88,102.86 167.70,102.88 159.51,102.89 151.25,102.87 142.99,102.85 134.72,102.82 126.44,102.78 118.16,102.75 109.88,102.71 101.59,102.79 93.31,102.86 85.03,102.93 76.74,103.00 68.46,103.08 60.18,103.15 51.89,103.22 43.61,103.29 35.32,103.37 27.04,103.44 18.73,103.51 10.43,103.58 6.30,101.74 2.17,99.90 1.09,94.23 0.01,88.55 -0.11,82.14 -0.25,75.73 -0.20,69.15 -0.15,62.57 -0.15,55.95 -0.14,49.32 -0.22,42.68 -0.30,36.04 -0.38,29.39 -0.45,22.75 -0.52,16.07 -0.59,9.39 1.27,5.67 3.13,1.96 10.07,0.95 17.01,-0.05 24.97,-0.21 32.92,-0.36 41.15,-0.36 49.38,-0.36 57.69,-0.32 65.99,-0.27 74.31,-0.22 82.63,-0.17 90.96,-0.12 99.28,-0.06 107.61,-0.11 115.94,-0.17 124.27,-0.22 132.60,-0.27 140.92,-0.33 149.25,-0.38 157.58,-0.43 165.91,-0.48 174.24,-0.54 182.56,-0.59 190.92,-0.64 199.27,-0.69 203.41,1.15 207.55,3.00 208.58,8.65 209.60,14.31 209.66,20.68 209.72,27.06 209.60,33.61 209.47,40.15 209.40,46.74 209.32,53.34 209.32,59.95 209.32,66.55 209.29,75.43 209.26,84.30 209.22,84.54 209.18,84.77 209.06,84.98 208.95,85.18 208.77,85.35 208.60,85.51 208.38,85.60 208.17,85.70 207.93,85.72 207.70,85.74 207.47,85.69 207.23,85.63 207.03,85.51 206.83,85.38 206.68,85.20 206.53,85.02 206.45,84.80 206.36,84.58 206.35,84.34 206.34,84.10 206.41,83.88 206.48,83.65 206.61,83.45 206.75,83.26 206.94,83.12 207.13,82.98 207.35,82.91 207.58,82.83 207.82,82.84 208.05,82.84 208.28,82.92 208.50,83.00 208.69,83.14 208.87,83.29 209.00,83.49 209.13,83.69 209.19,83.92 209.25,84.14 209.24,84.38 209.22,84.62 209.13,84.84 209.04,85.06 208.88,85.23 208.73,85.41 208.52,85.53 208.32,85.65 208.09,85.70 207.85,85.75 207.62,85.72 207.38,85.69 207.17,85.59 206.96,85.48 206.79,85.32 206.62,85.15 206.51,84.94 206.40,84.73 206.37,84.50 206.33,84.26 206.33,84.26 206.33,84.26 206.55,75.39 206.77,66.52 206.95,59.92 207.13,53.31 207.21,46.73 207.29,40.14 207.23,33.63 207.17,27.12 206.94,20.94 206.71,14.77 206.02,9.81 205.34,4.85 202.26,3.72 199.17,2.58 190.87,2.53 182.56,2.48 174.24,2.43 165.91,2.37 157.58,2.32 149.25,2.26 140.92,2.21 132.60,2.15 124.27,2.09 115.94,2.04 107.61,1.98 99.28,1.93 90.96,1.98 82.63,2.04 74.31,2.09 65.99,2.15 57.70,2.22 49.40,2.28 41.20,2.39 33.00,2.49 25.19,2.75 17.38,3.00 11.15,3.62 4.91,4.23 3.79,6.88 2.67,9.53 2.57,16.14 2.46,22.76 2.35,29.40 2.25,36.04 2.14,42.68 2.03,49.32 2.03,55.94 2.03,62.56 2.16,69.10 2.30,75.64 2.60,81.85 2.90,88.06 3.63,93.04 4.36,98.03 7.44,99.16 10.51,100.29 18.77,100.33 27.03,100.36 35.32,100.39 43.60,100.43 51.89,100.46 60.17,100.50 68.45,100.54 76.74,100.57 85.02,100.61 93.30,100.64 101.59,100.68 109.87,100.71 118.15,100.64 126.43,100.57 134.71,100.49 142.99,100.41 151.24,100.33 159.49,100.24 167.65,100.12 175.80,100.00 183.57,99.73 191.34,99.47 197.54,98.87 203.74,98.27 204.89,95.72 206.03,93.18 206.21,87.04 206.38,80.89 206.54,75.97 206.70,71.04 206.73,70.89 206.75,70.74 206.80,70.59 206.86,70.45 206.95,70.32 207.04,70.20 207.16,70.10 207.27,70.00 207.41,69.93 207.55,69.86 207.70,69.82 207.85,69.79 208.00,69.79 208.16,69.79 208.30,69.83 208.45,69.87 208.59,69.94 208.72,70.02 208.84,70.12 208.95,70.23 209.04,70.35 209.12,70.48 209.18,70.63 209.23,70.77 209.25,70.92 Z" fill="#36a64c" stroke="#36a64c" stroke-width="2" pointer-events="none"/></g><g text-align="left" text-anchor="start" fill="#cecece" transform="translate(777.84, 229.68) rotate(0.00, 88.00, 20.50)"><text y="24" letter-spacing="-1.44" font-size="48px" font-family="Caveat Brush" text-align="left" alignment-baseline="central" transform="scale(0.6554932117095793)">ProductLayout()</text></g><g id="4c0617e4-98a4-4bd0-21ce-0c5f80a72353_svg" class="tl-centered-g" transform="translate(1000.05, 204.52) rotate(0.00, 62.09, 34.80)"><path d="M 123.44,47.61 Q 123.44,47.61 123.46,50.79 123.47,53.97 123.49,57.97 123.51,61.96 122.03,64.46 120.54,66.97 114.04,67.64 107.54,68.30 99.75,68.50 91.97,68.69 83.86,68.77 75.76,68.84 67.56,68.88 59.37,68.93 51.16,68.96 42.95,69.00 34.73,69.04 26.51,69.07 18.29,69.10 10.07,69.14 6.49,67.66 2.90,66.17 1.99,62.58 1.07,58.99 0.84,54.86 0.61,50.73 0.55,46.46 0.49,42.19 0.47,37.89 0.46,33.58 0.46,29.27 0.45,24.96 0.45,20.64 0.45,16.33 0.45,12.01 0.45,7.70 1.94,5.11 3.43,2.52 9.92,1.87 16.41,1.21 24.17,1.06 31.93,0.90 40.02,0.87 48.11,0.84 56.28,0.84 64.45,0.84 72.64,0.85 80.83,0.86 89.03,0.88 97.23,0.89 105.43,0.90 113.62,0.91 117.21,2.41 120.79,3.90 121.71,7.46 122.64,11.02 122.89,15.11 123.15,19.20 123.23,23.42 123.31,27.65 123.34,31.90 123.38,36.16 123.40,40.43 123.43,44.69 123.45,50.42" fill="#404a53" pointer-events="none"/><path d="M 124.72,47.61 Q 124.72,47.61 124.83,50.79 124.94,53.97 125.03,58.02 125.13,62.07 123.29,65.10 121.45,68.14 114.57,68.95 107.69,69.76 99.84,69.86 92.00,69.97 83.89,69.95 75.77,69.93 67.57,69.98 59.38,70.02 51.17,70.15 42.95,70.28 34.74,70.41 26.52,70.53 18.27,70.66 10.03,70.78 5.96,69.01 1.88,67.25 0.77,63.30 -0.34,59.34 -0.50,55.07 -0.66,50.80 -0.63,46.50 -0.59,42.20 -0.61,37.90 -0.62,33.59 -0.72,29.27 -0.82,24.96 -0.91,20.64 -1.00,16.33 -1.08,11.96 -1.16,7.59 0.68,4.47 2.53,1.35 9.40,0.55 16.26,-0.23 24.09,-0.30 31.91,-0.37 40.01,-0.30 48.11,-0.24 56.28,-0.24 64.45,-0.24 72.64,-0.32 80.84,-0.40 89.03,-0.48 97.23,-0.57 105.45,-0.64 113.68,-0.72 117.74,1.04 121.80,2.81 122.93,6.74 124.06,10.66 124.24,14.89 124.42,19.12 124.41,23.37 124.40,27.63 124.43,31.89 124.47,36.15 124.59,40.42 124.70,44.69 124.83,50.41 124.95,56.14 124.91,56.38 124.87,56.61 124.76,56.82 124.65,57.03 124.48,57.20 124.31,57.36 124.10,57.46 123.88,57.56 123.65,57.59 123.41,57.61 123.18,57.56 122.95,57.51 122.75,57.39 122.54,57.27 122.39,57.09 122.23,56.91 122.14,56.69 122.06,56.47 122.04,56.24 122.03,56.00 122.09,55.77 122.15,55.54 122.28,55.35 122.42,55.15 122.60,55.00 122.79,54.86 123.02,54.78 123.24,54.71 123.48,54.71 123.71,54.70 123.94,54.78 124.16,54.85 124.35,55.00 124.54,55.14 124.68,55.33 124.81,55.53 124.87,55.76 124.94,55.99 124.93,56.22 124.92,56.46 124.83,56.68 124.74,56.90 124.59,57.08 124.44,57.26 124.23,57.39 124.03,57.51 123.80,57.56 123.57,57.61 123.33,57.59 123.10,57.56 122.88,57.47 122.67,57.37 122.50,57.20 122.32,57.04 122.21,56.83 122.10,56.63 122.06,56.39 122.02,56.16 122.02,56.16 122.02,56.16 122.08,50.43 122.15,44.70 122.22,40.43 122.28,36.17 122.25,31.92 122.21,27.67 122.04,23.47 121.87,19.28 121.55,15.33 121.22,11.39 120.50,8.19 119.77,4.99 116.67,3.77 113.57,2.55 105.40,2.45 97.23,2.35 89.03,2.25 80.83,2.14 72.64,2.04 64.45,1.94 56.28,1.94 48.11,1.93 40.04,2.06 31.96,2.18 24.26,2.43 16.56,2.67 10.45,3.18 4.34,3.68 3.20,5.74 2.07,7.81 2.00,12.07 1.92,16.33 1.82,20.64 1.73,24.96 1.64,29.27 1.55,33.58 1.57,37.88 1.58,42.17 1.73,46.41 1.88,50.65 2.19,54.64 2.49,58.63 3.21,61.87 3.92,65.10 7.02,66.30 10.11,67.50 18.31,67.55 26.51,67.61 34.72,67.66 42.94,67.72 51.15,67.78 59.37,67.84 67.56,67.79 75.75,67.75 83.84,67.58 91.94,67.41 99.66,67.13 107.39,66.84 113.51,66.33 119.63,65.81 120.76,63.83 121.89,61.84 121.95,57.91 122.01,53.98 122.09,50.80 122.16,47.62 122.18,47.47 122.20,47.31 122.25,47.17 122.31,47.02 122.39,46.90 122.48,46.77 122.60,46.67 122.71,46.56 122.85,46.49 122.98,46.42 123.13,46.38 123.28,46.34 123.44,46.34 123.59,46.34 123.74,46.38 123.89,46.42 124.03,46.49 124.16,46.56 124.28,46.66 124.40,46.76 124.48,46.89 124.57,47.01 124.63,47.16 124.68,47.30 124.70,47.45 Z" fill="#717d8a" stroke="#717d8a" stroke-width="2" pointer-events="none"/></g><g id="3e8dd32a-2c28-4a74-26d6-c7906c9a7200_svg" class="tl-centered-g" transform="translate(982.73, 162.71) rotate(0.00, 14.39, 13.88)"><defs><mask id="3e8dd32a-2c28-4a74-26d6-c7906c9a7200_clip"><rect x="-100" y="-100" width="228.79" height="227.77" fill="white"/><rect x="14.39" y="13.88" width="0" height="0" rx="2" ry="2" fill="black" opacity="1"/></mask></defs><g pointer-events="none" opacity="1" mask=""><path d="M 0.65,-0.68 Q 0.65,-0.68 4.05,2.64 7.44,5.96 10.84,9.28 14.24,12.59 17.65,15.90 21.05,19.21 24.46,22.52 27.87,25.83 27.95,25.93 28.02,26.03 28.06,26.14 28.10,26.26 28.09,26.38 28.09,26.51 28.05,26.62 28.01,26.74 27.94,26.83 27.86,26.93 27.76,27.00 27.66,27.07 27.54,27.10 27.42,27.13 27.30,27.12 27.18,27.12 27.06,27.07 26.95,27.02 26.86,26.94 26.76,26.86 26.70,26.76 26.64,26.65 26.61,26.53 26.59,26.41 26.60,26.29 26.62,26.17 26.67,26.06 26.72,25.95 26.81,25.86 26.89,25.77 27.00,25.71 27.11,25.66 27.23,25.64 27.35,25.62 27.47,25.64 27.59,25.66 27.70,25.72 27.81,25.78 27.89,25.87 27.98,25.96 28.03,26.07 28.08,26.18 28.09,26.30 28.10,26.42 28.07,26.54 28.05,26.66 27.98,26.77 27.92,26.87 27.82,26.95 27.73,27.03 27.62,27.07 27.50,27.12 27.38,27.12 27.26,27.13 27.14,27.10 27.02,27.06 26.92,26.99 26.82,26.92 26.82,26.92 26.82,26.92 23.39,23.63 19.96,20.35 16.53,17.06 13.10,13.78 9.66,10.50 6.22,7.22 2.78,3.95 -0.65,0.68 -0.72,0.59 -0.80,0.50 -0.85,0.40 -0.89,0.29 -0.92,0.18 -0.94,0.07 -0.93,-0.03 -0.93,-0.15 -0.90,-0.26 -0.87,-0.37 -0.81,-0.47 -0.75,-0.57 -0.67,-0.65 -0.59,-0.73 -0.50,-0.79 -0.40,-0.85 -0.29,-0.89 -0.18,-0.92 -0.07,-0.93 0.04,-0.94 0.15,-0.92 0.26,-0.90 0.37,-0.86 0.47,-0.81 0.56,-0.75 Z" fill="#717d8a" stroke="#717d8a" stroke-width="2.11" stroke-dasharray="none" stroke-dashoffset="none" stroke-linecap="round" stroke-linejoin="round" pointer-events="stroke"/><g><path d="M 25.10,14.955158178968716 L 28.79,27.77 15.85,24.55182484563538" fill="none" stroke="#717d8a" stroke-width="4.23" stroke-linecap="round" stroke-linejoin="round" pointer-events="none"/></g></g></g><g id="09071fce-2502-4a02-1f26-b39318f631fc_svg" class="tl-centered-g" transform="translate(893.68, 160.83) rotate(0.00, 8.61, 18.05)"><defs><mask id="09071fce-2502-4a02-1f26-b39318f631fc_clip"><rect x="-100" y="-100" width="217.22" height="236.1" fill="white"/><rect x="8.61" y="18.05" width="0" height="0" rx="2" ry="2" fill="black" opacity="1"/></mask></defs><g pointer-events="none" opacity="1" mask=""><path d="M 18.09,0.41 Q 18.09,0.41 16.02,4.69 13.95,8.96 11.88,13.24 9.81,17.51 7.75,21.79 5.69,26.07 3.63,30.35 1.57,34.63 1.50,34.74 1.43,34.84 1.32,34.92 1.22,35.00 1.10,35.04 0.98,35.08 0.85,35.08 0.72,35.07 0.60,35.03 0.47,34.99 0.37,34.91 0.27,34.83 0.20,34.72 0.13,34.62 0.10,34.49 0.06,34.37 0.07,34.24 0.08,34.11 0.13,33.99 0.18,33.87 0.26,33.77 0.35,33.68 0.46,33.61 0.57,33.55 0.70,33.52 0.82,33.49 0.95,33.51 1.08,33.53 1.19,33.58 1.31,33.64 1.40,33.73 1.50,33.82 1.55,33.93 1.61,34.04 1.63,34.17 1.65,34.30 1.63,34.43 1.61,34.55 1.55,34.67 1.48,34.78 1.39,34.87 1.29,34.95 1.18,35.01 1.06,35.06 0.93,35.07 0.80,35.08 0.68,35.06 0.55,35.03 0.44,34.96 0.33,34.89 0.25,34.79 0.17,34.69 0.12,34.57 0.08,34.45 0.07,34.32 0.07,34.19 0.10,34.07 0.14,33.95 0.14,33.95 0.14,33.95 2.17,29.65 4.20,25.36 6.23,21.07 8.26,16.77 10.28,12.48 12.31,8.18 14.32,3.88 16.34,-0.41 16.40,-0.51 16.46,-0.61 16.55,-0.69 16.63,-0.78 16.73,-0.83 16.83,-0.89 16.95,-0.92 17.06,-0.96 17.18,-0.96 17.30,-0.97 17.41,-0.94 17.53,-0.92 17.63,-0.87 17.74,-0.82 17.83,-0.74 17.92,-0.67 17.99,-0.57 18.06,-0.48 18.11,-0.37 18.15,-0.26 18.17,-0.15 18.19,-0.03 18.18,0.07 18.17,0.19 18.13,0.30 Z" fill="#36a64c" stroke="#36a64c" stroke-width="2.11" stroke-dasharray="none" stroke-dashoffset="none" stroke-linecap="round" stroke-linejoin="round" pointer-events="stroke"/><g><path d="M 10.98,28.54882764112725 L 0,36.1 -1.0456808489439888,22.80882764112725" fill="none" stroke="#36a64c" stroke-width="4.23" stroke-linecap="round" stroke-linejoin="round" pointer-events="none"/></g></g></g><g id="3cc9d4a2-2d7b-45dd-3e4a-f772be8329d2_svg" class="tl-centered-g" transform="translate(842.11, 300.05) rotate(0.00, 7.95, 18.36)"><defs><mask id="3cc9d4a2-2d7b-45dd-3e4a-f772be8329d2_clip"><rect x="-100" y="-100" width="215.89" height="236.71" fill="white"/><rect x="7.94" y="18.35" width="0" height="0" rx="2" ry="2" fill="black" opacity="1"/></mask></defs><g pointer-events="none" opacity="1" mask=""><path d="M 16.73,0.36 Q 16.73,0.36 14.81,4.71 12.89,9.05 10.98,13.40 9.07,17.75 7.16,22.10 5.26,26.45 3.36,30.80 1.46,35.16 1.39,35.26 1.33,35.36 1.24,35.43 1.15,35.50 1.04,35.54 0.92,35.58 0.81,35.59 0.69,35.59 0.58,35.55 0.46,35.52 0.37,35.45 0.27,35.38 0.21,35.29 0.14,35.19 0.10,35.08 0.07,34.97 0.07,34.85 0.08,34.73 0.12,34.62 0.16,34.51 0.23,34.42 0.31,34.33 0.40,34.26 0.50,34.20 0.62,34.17 0.73,34.14 0.85,34.15 0.97,34.16 1.07,34.21 1.18,34.26 1.27,34.34 1.36,34.42 1.41,34.52 1.47,34.62 1.49,34.74 1.52,34.85 1.50,34.97 1.48,35.08 1.43,35.19 1.38,35.30 1.30,35.38 1.21,35.46 1.11,35.51 1.00,35.57 0.88,35.58 0.77,35.60 0.65,35.57 0.54,35.55 0.43,35.49 0.33,35.43 0.25,35.35 0.18,35.26 0.13,35.15 0.08,35.04 0.07,34.93 0.07,34.81 0.09,34.69 0.12,34.58 0.12,34.58 0.12,34.58 2.00,30.22 3.87,25.85 5.74,21.48 7.61,17.12 9.47,12.75 11.33,8.38 13.18,4.00 15.04,-0.36 15.09,-0.46 15.15,-0.55 15.23,-0.63 15.30,-0.71 15.40,-0.77 15.49,-0.83 15.60,-0.87 15.71,-0.90 15.82,-0.91 15.93,-0.92 16.04,-0.90 16.15,-0.88 16.25,-0.84 16.35,-0.79 16.44,-0.73 16.53,-0.66 16.60,-0.57 16.67,-0.48 16.72,-0.38 16.76,-0.28 16.79,-0.17 16.81,-0.06 16.80,0.04 16.80,0.15 16.77,0.26 Z" fill="#717d8a" stroke="#717d8a" stroke-width="2.11" stroke-dasharray="none" stroke-dashoffset="none" stroke-linecap="round" stroke-linejoin="round" pointer-events="stroke"/><g><path d="M 10.70,28.761069142357755 L 0,36.71 -1.531285444621755,23.464402475691088" fill="none" stroke="#717d8a" stroke-width="4.23" stroke-linecap="round" stroke-linejoin="round" pointer-events="none"/></g></g></g><g id="cdf4fb94-ac40-4811-0b63-179a30f0937d_svg" class="tl-centered-g" transform="translate(968.61, 299.11) rotate(0.00, 15.77, 12.30)"><defs><mask id="cdf4fb94-ac40-4811-0b63-179a30f0937d_clip"><rect x="-100" y="-100" width="231.54" height="224.6" fill="white"/><rect x="15.77" y="12.3" width="0" height="0" rx="2" ry="2" fill="black" opacity="1"/></mask></defs><g pointer-events="none" opacity="1" mask=""><path d="M 0.55,-0.70 Q 0.55,-0.70 4.27,2.24 7.99,5.19 11.72,8.14 15.45,11.08 19.18,14.02 22.91,16.96 26.65,19.89 30.38,22.82 30.46,22.90 30.53,22.99 30.58,23.09 30.62,23.19 30.63,23.30 30.64,23.41 30.62,23.52 30.59,23.63 30.54,23.72 30.48,23.82 30.39,23.89 30.31,23.96 30.20,24.00 30.10,24.04 29.99,24.04 29.88,24.05 29.77,24.02 29.66,23.99 29.57,23.92 29.48,23.86 29.41,23.77 29.35,23.68 29.31,23.57 29.28,23.47 29.28,23.36 29.28,23.25 29.32,23.14 29.35,23.04 29.42,22.95 29.49,22.86 29.58,22.80 29.68,22.74 29.78,22.71 29.89,22.68 30.00,22.69 30.11,22.70 30.22,22.74 30.32,22.78 30.40,22.85 30.49,22.93 30.54,23.02 30.60,23.12 30.62,23.23 30.65,23.34 30.63,23.45 30.62,23.56 30.57,23.66 30.52,23.76 30.44,23.84 30.37,23.92 30.27,23.97 30.17,24.02 30.06,24.04 29.95,24.05 29.84,24.03 29.73,24.01 29.63,23.96 29.53,23.91 29.53,23.91 29.53,23.91 25.78,21.00 22.02,18.09 18.27,15.19 14.51,12.28 10.74,9.38 6.98,6.48 3.21,3.59 -0.55,0.70 -0.62,0.63 -0.70,0.55 -0.76,0.46 -0.81,0.36 -0.84,0.26 -0.88,0.16 -0.88,0.05 -0.89,-0.05 -0.87,-0.15 -0.85,-0.26 -0.81,-0.36 -0.76,-0.46 -0.70,-0.54 -0.63,-0.63 -0.55,-0.69 -0.46,-0.76 -0.36,-0.81 -0.26,-0.85 -0.16,-0.87 -0.05,-0.89 0.05,-0.88 0.15,-0.88 0.26,-0.85 0.36,-0.81 0.45,-0.76 Z" fill="#36a64c" stroke="#36a64c" stroke-width="2.11" stroke-dasharray="none" stroke-dashoffset="none" stroke-linecap="round" stroke-linejoin="round" pointer-events="stroke"/><g><path d="M 26.53,12.241925022300935 L 31.54,24.6 18.33,22.75525835563427" fill="none" stroke="#36a64c" stroke-width="4.23" stroke-linecap="round" stroke-linejoin="round" pointer-events="none"/></g></g></g><g id="da98a068-3e51-4c5f-1ddf-15032b78c90a_svg" class="tl-centered-g" transform="translate(1027.31, 439.37) rotate(0.00, 16.12, 11.84)"><defs><mask id="da98a068-3e51-4c5f-1ddf-15032b78c90a_clip"><rect x="-100" y="-100" width="232.24" height="223.68" fill="white"/><rect x="16.12" y="11.84" width="0" height="0" rx="2" ry="2" fill="black" opacity="1"/></mask></defs><g pointer-events="none" opacity="1" mask=""><path d="M 0.51,-0.69 Q 0.51,-0.69 4.31,2.14 8.12,4.99 11.93,7.82 15.74,10.66 19.55,13.49 23.37,16.32 27.19,19.15 31.00,21.97 31.08,22.05 31.15,22.12 31.20,22.21 31.24,22.31 31.25,22.41 31.27,22.52 31.25,22.62 31.23,22.72 31.17,22.81 31.12,22.90 31.04,22.97 30.96,23.04 30.87,23.08 30.77,23.12 30.67,23.13 30.56,23.13 30.46,23.11 30.36,23.08 30.27,23.02 30.19,22.97 30.12,22.88 30.06,22.80 30.02,22.70 29.99,22.61 29.99,22.50 29.99,22.40 30.02,22.30 30.05,22.20 30.11,22.11 30.17,22.03 30.26,21.97 30.34,21.91 30.44,21.88 30.54,21.85 30.65,21.86 30.75,21.86 30.85,21.90 30.95,21.93 31.03,22.00 31.11,22.07 31.16,22.15 31.22,22.24 31.24,22.34 31.27,22.45 31.26,22.55 31.25,22.65 31.20,22.75 31.16,22.84 31.09,22.92 31.02,23.00 30.93,23.05 30.84,23.10 30.74,23.12 30.63,23.14 30.53,23.12 30.43,23.11 30.33,23.06 30.24,23.01 30.24,23.01 30.24,23.01 26.40,20.21 22.56,17.41 18.72,14.62 14.88,11.83 11.03,9.04 7.19,6.25 3.34,3.47 -0.51,0.69 -0.58,0.62 -0.66,0.55 -0.72,0.46 -0.77,0.37 -0.81,0.28 -0.84,0.18 -0.85,0.07 -0.86,-0.02 -0.84,-0.12 -0.83,-0.23 -0.79,-0.32 -0.75,-0.42 -0.69,-0.50 -0.63,-0.59 -0.55,-0.65 -0.47,-0.72 -0.37,-0.77 -0.28,-0.81 -0.18,-0.83 -0.07,-0.86 0.02,-0.85 0.12,-0.85 0.23,-0.82 0.33,-0.79 0.42,-0.74 Z" fill="#36a64c" stroke="#36a64c" stroke-width="2.11" stroke-dasharray="none" stroke-dashoffset="none" stroke-linecap="round" stroke-linejoin="round" pointer-events="stroke"/><g><path d="M 26.87,11.4708394794615 L 32.24,23.68 18.98,22.217506146128162" fill="none" stroke="#36a64c" stroke-width="4.23" stroke-linecap="round" stroke-linejoin="round" pointer-events="none"/></g></g></g><g id="faab5757-b889-4506-12e5-b175a0dfe842_svg" class="tl-centered-g" transform="translate(1149.19, 545.25) rotate(0.00, 15.74, 12.34)"><defs><mask id="faab5757-b889-4506-12e5-b175a0dfe842_clip"><rect x="-100" y="-100" width="231.48" height="224.68" fill="white"/><rect x="15.74" y="12.34" width="0" height="0" rx="2" ry="2" fill="black" opacity="1"/></mask></defs><g pointer-events="none" opacity="1" mask=""><path d="M 0.53,-0.68 Q 0.53,-0.68 4.24,2.27 7.96,5.24 11.68,8.19 15.40,11.15 19.12,14.09 22.84,17.04 26.57,19.99 30.30,22.93 30.37,23.01 30.44,23.09 30.49,23.18 30.53,23.28 30.54,23.38 30.55,23.49 30.52,23.59 30.50,23.69 30.44,23.78 30.39,23.87 30.31,23.93 30.23,24.00 30.13,24.04 30.03,24.08 29.93,24.08 29.82,24.08 29.72,24.05 29.62,24.03 29.53,23.97 29.45,23.90 29.39,23.82 29.32,23.74 29.29,23.64 29.26,23.54 29.26,23.43 29.26,23.33 29.30,23.23 29.33,23.13 29.40,23.05 29.46,22.96 29.55,22.91 29.64,22.85 29.74,22.82 29.84,22.80 29.95,22.80 30.05,22.81 30.15,22.85 30.24,22.89 30.32,22.96 30.40,23.03 30.45,23.12 30.51,23.21 30.53,23.31 30.55,23.42 30.54,23.52 30.52,23.62 30.48,23.72 30.43,23.81 30.36,23.89 30.29,23.96 30.19,24.01 30.10,24.06 29.99,24.07 29.89,24.09 29.79,24.07 29.68,24.05 29.59,24.00 29.50,23.95 29.50,23.95 29.50,23.95 25.75,21.03 22.00,18.12 18.25,15.20 14.50,12.29 10.74,9.38 6.99,6.48 3.22,3.58 -0.53,0.68 -0.60,0.60 -0.68,0.53 -0.73,0.44 -0.79,0.35 -0.82,0.25 -0.85,0.15 -0.86,0.05 -0.86,-0.05 -0.84,-0.15 -0.82,-0.25 -0.78,-0.35 -0.74,-0.44 -0.67,-0.53 -0.61,-0.61 -0.53,-0.67 -0.44,-0.74 -0.35,-0.78 -0.25,-0.82 -0.15,-0.84 -0.05,-0.86 0.05,-0.86 0.15,-0.85 0.25,-0.82 0.35,-0.79 0.44,-0.73 Z" fill="#36a64c" stroke="#36a64c" stroke-width="2.11" stroke-dasharray="none" stroke-dashoffset="none" stroke-linecap="round" stroke-linejoin="round" pointer-events="stroke"/><g><path d="M 26.50,12.308831011533352 L 31.48,24.68 18.27,22.802164344866682" fill="none" stroke="#36a64c" stroke-width="4.23" stroke-linecap="round" stroke-linejoin="round" pointer-events="none"/></g></g></g><g id="274e577c-7991-48ab-0926-dadabe32b036_svg" class="tl-centered-g" transform="translate(827.56, 438.80) rotate(0.00, 0.50, 20.00)"><defs><mask id="274e577c-7991-48ab-0926-dadabe32b036_clip"><rect x="-100" y="-100" width="201" height="239.99" fill="white"/><rect x="0.4" y="19.99" width="0" height="0" rx="2" ry="2" fill="black" opacity="1"/></mask></defs><g pointer-events="none" opacity="1" mask=""><path d="M 0.84,-0.01 Q 0.84,-0.01 0.89,4.73 0.95,9.48 1.01,14.23 1.07,18.98 1.15,23.73 1.22,28.47 1.30,33.22 1.37,37.97 1.36,38.07 1.34,38.17 1.30,38.26 1.25,38.35 1.18,38.42 1.11,38.49 1.02,38.53 0.93,38.58 0.83,38.59 0.73,38.60 0.64,38.58 0.54,38.56 0.45,38.51 0.36,38.46 0.30,38.39 0.23,38.31 0.19,38.22 0.15,38.13 0.15,38.03 0.14,37.93 0.16,37.83 0.19,37.74 0.24,37.65 0.30,37.57 0.38,37.51 0.45,37.44 0.55,37.41 0.64,37.38 0.74,37.38 0.84,37.37 0.94,37.40 1.03,37.43 1.11,37.49 1.20,37.55 1.25,37.63 1.31,37.71 1.34,37.81 1.37,37.91 1.36,38.01 1.36,38.11 1.33,38.20 1.29,38.29 1.23,38.37 1.16,38.45 1.08,38.50 1.00,38.56 0.90,38.58 0.80,38.60 0.70,38.59 0.60,38.58 0.51,38.54 0.42,38.50 0.34,38.44 0.27,38.37 0.22,38.28 0.17,38.19 0.15,38.10 0.14,38.00 0.14,38.00 0.14,38.00 0.02,33.25 -0.08,28.50 -0.20,23.75 -0.31,19.00 -0.44,14.26 -0.57,9.51 -0.70,4.76 -0.84,0.01 -0.83,-0.08 -0.82,-0.18 -0.79,-0.28 -0.75,-0.37 -0.70,-0.46 -0.64,-0.54 -0.56,-0.61 -0.49,-0.68 -0.40,-0.73 -0.31,-0.78 -0.21,-0.81 -0.11,-0.83 -0.01,-0.84 0.08,-0.84 0.18,-0.82 0.28,-0.79 0.37,-0.75 0.46,-0.70 0.54,-0.64 0.62,-0.57 0.68,-0.49 0.74,-0.40 0.77,-0.31 0.81,-0.21 0.83,-0.11 Z" fill="#717d8a" stroke="#717d8a" stroke-width="2.11" stroke-dasharray="none" stroke-dashoffset="none" stroke-linecap="round" stroke-linejoin="round" pointer-events="stroke"/><g><path d="M 7.23,28.3125480342201 L 0.8,39.99 -6.095940107675848,28.579214700886766" fill="none" stroke="#717d8a" stroke-width="4.23" stroke-linecap="round" stroke-linejoin="round" pointer-events="none"/></g></g></g><g id="36edaeb7-dea4-49a2-2cc9-1e2a9b913b22_svg" class="tl-centered-g" transform="translate(883.85, 545.43) rotate(0.00, 17.77, 8.94)"><defs><mask id="36edaeb7-dea4-49a2-2cc9-1e2a9b913b22_clip"><rect x="-100" y="-100" width="235.54" height="217.88" fill="white"/><rect x="17.77" y="8.94" width="0" height="0" rx="2" ry="2" fill="black" opacity="1"/></mask></defs><g pointer-events="none" opacity="1" mask=""><path d="M 0.38,-0.77 Q 0.38,-0.77 4.59,1.38 8.79,3.54 12.99,5.69 17.20,7.84 21.41,9.98 25.62,12.12 29.83,14.26 34.04,16.40 34.12,16.46 34.21,16.52 34.27,16.61 34.33,16.69 34.36,16.79 34.39,16.89 34.39,17.00 34.38,17.10 34.35,17.20 34.31,17.30 34.24,17.38 34.18,17.46 34.09,17.52 34.00,17.57 33.90,17.60 33.80,17.62 33.69,17.61 33.59,17.60 33.49,17.56 33.40,17.52 33.32,17.45 33.24,17.38 33.19,17.29 33.14,17.20 33.12,17.09 33.10,16.99 33.12,16.89 33.13,16.78 33.18,16.69 33.23,16.60 33.30,16.52 33.37,16.45 33.47,16.40 33.56,16.36 33.67,16.34 33.77,16.33 33.87,16.35 33.97,16.37 34.07,16.42 34.16,16.47 34.23,16.55 34.29,16.63 34.34,16.73 34.38,16.82 34.38,16.93 34.39,17.03 34.37,17.13 34.34,17.24 34.28,17.32 34.23,17.41 34.14,17.48 34.06,17.54 33.96,17.58 33.87,17.61 33.76,17.61 33.66,17.62 33.56,17.58 33.46,17.55 33.46,17.55 33.46,17.55 29.23,15.45 25.00,13.34 20.78,11.24 16.55,9.13 12.31,7.04 8.08,4.94 3.84,2.86 -0.38,0.77 -0.47,0.71 -0.56,0.65 -0.63,0.58 -0.70,0.50 -0.75,0.41 -0.80,0.32 -0.83,0.22 -0.85,0.11 -0.86,0.01 -0.86,-0.08 -0.83,-0.19 -0.81,-0.29 -0.76,-0.38 -0.72,-0.48 -0.65,-0.55 -0.58,-0.63 -0.50,-0.69 -0.41,-0.76 -0.31,-0.79 -0.22,-0.83 -0.11,-0.85 -0.01,-0.86 0.08,-0.85 0.19,-0.84 0.29,-0.80 Z" fill="#717d8a" stroke="#717d8a" stroke-width="2.11" stroke-dasharray="none" stroke-dashoffset="none" stroke-linecap="round" stroke-linejoin="round" pointer-events="stroke"/><g><path d="M 28.26,6.795155260111397 L 35.54,17.88 22.30,18.64182192677808" fill="none" stroke="#717d8a" stroke-width="4.23" stroke-linecap="round" stroke-linejoin="round" pointer-events="none"/></g></g></g><g id="7aa6e544-0acd-4690-11ca-bbb74e81da94_svg" class="tl-centered-g" transform="translate(741.41, 548.05) rotate(0.00, 17.39, 9.89)"><defs><mask id="7aa6e544-0acd-4690-11ca-bbb74e81da94_clip"><rect x="-100" y="-100" width="234.77" height="219.78" fill="white"/><rect x="17.38" y="9.89" width="0" height="0" rx="2" ry="2" fill="black" opacity="1"/></mask></defs><g pointer-events="none" opacity="1" mask=""><path d="M 35.26,0.86 Q 35.26,0.86 31.11,3.18 26.97,5.50 22.83,7.83 18.69,10.16 14.55,12.49 10.41,14.82 6.27,17.16 2.14,19.50 2.01,19.55 1.89,19.59 1.76,19.60 1.62,19.60 1.50,19.56 1.37,19.52 1.26,19.45 1.15,19.37 1.08,19.26 1.00,19.15 0.96,19.03 0.92,18.90 0.92,18.77 0.93,18.63 0.97,18.51 1.02,18.38 1.10,18.28 1.18,18.18 1.30,18.10 1.41,18.03 1.54,18.00 1.66,17.97 1.80,17.98 1.93,17.99 2.05,18.04 2.17,18.09 2.27,18.18 2.37,18.27 2.44,18.39 2.50,18.50 2.53,18.63 2.55,18.76 2.54,18.89 2.52,19.03 2.46,19.14 2.40,19.26 2.31,19.36 2.21,19.45 2.10,19.51 1.98,19.57 1.84,19.59 1.71,19.61 1.58,19.58 1.45,19.56 1.34,19.49 1.22,19.43 1.13,19.33 1.04,19.23 0.99,19.11 0.94,18.99 0.93,18.85 0.91,18.72 0.95,18.59 0.98,18.46 1.05,18.35 1.12,18.24 1.22,18.16 1.33,18.07 1.33,18.07 1.33,18.07 5.45,15.71 9.57,13.35 13.69,10.99 17.81,8.62 21.93,6.25 26.05,3.89 30.16,1.51 34.27,-0.86 34.38,-0.90 34.49,-0.95 34.61,-0.97 34.73,-0.99 34.85,-0.98 34.97,-0.97 35.08,-0.93 35.20,-0.89 35.30,-0.82 35.40,-0.76 35.48,-0.67 35.56,-0.59 35.62,-0.48 35.68,-0.38 35.71,-0.26 35.75,-0.15 35.75,-0.03 35.75,0.08 35.73,0.20 35.70,0.32 35.65,0.42 35.60,0.53 35.52,0.62 35.45,0.72 35.35,0.79 Z" fill="#717d8a" stroke="#717d8a" stroke-width="2.11" stroke-dasharray="none" stroke-dashoffset="none" stroke-linecap="round" stroke-linejoin="round" pointer-events="stroke"/><g><path d="M 13.33,19.8650058377146 L 0,19.78 6.74,8.275005837714602" fill="none" stroke="#717d8a" stroke-width="4.23" stroke-linecap="round" stroke-linejoin="round" pointer-events="none"/></g></g></g><g id="454bd674-e0fb-48c3-1ba4-14c54cf135ad_svg" class="tl-centered-g" transform="translate(496.72, 203.69) rotate(0.00, 112.88, 42.81)"><defs><mask id="454bd674-e0fb-48c3-1ba4-14c54cf135ad_clip"><rect x="-100" y="-100" width="425.75" height="285.61" fill="white"/><rect x="99.93" y="9.09" width="0" height="0" rx="4" ry="4" fill="black" opacity="1"/></mask></defs><g pointer-events="none" opacity="1" mask=""><path d="M -8.84,96.98 Q -8.84,96.98 -7.63,94.36 -6.42,91.74 -4.56,88.69 -2.69,85.64 0.04,81.58 2.79,77.51 6.51,72.64 10.24,67.77 15.02,62.34 19.81,56.92 25.71,51.23 31.60,45.53 38.61,39.91 45.61,34.28 53.64,29.03 61.67,23.77 70.56,19.18 79.45,14.59 88.97,10.90 98.49,7.21 108.36,4.55 118.22,1.89 128.11,0.33 138.00,-1.22 147.58,-1.73 157.17,-2.24 166.15,-1.85 175.14,-1.45 183.27,-0.35 191.40,0.74 198.48,2.29 205.56,3.84 211.45,5.57 217.35,7.31 221.98,8.97 226.62,10.63 229.94,11.98 233.26,13.34 235.92,14.55 238.59,15.75 238.89,15.95 239.19,16.16 239.41,16.45 239.63,16.74 239.75,17.08 239.86,17.43 239.86,17.79 239.86,18.16 239.75,18.50 239.63,18.85 239.41,19.14 239.19,19.42 238.89,19.63 238.59,19.83 238.24,19.93 237.88,20.03 237.52,20.01 237.16,19.99 236.82,19.85 236.48,19.72 236.20,19.48 235.93,19.25 235.74,18.93 235.55,18.62 235.47,18.27 235.40,17.91 235.44,17.55 235.47,17.19 235.63,16.86 235.78,16.53 236.03,16.26 236.28,16.00 236.60,15.83 236.93,15.66 237.28,15.60 237.64,15.54 238.00,15.60 238.36,15.66 238.68,15.83 239.01,16.00 239.26,16.26 239.51,16.53 239.66,16.86 239.81,17.19 239.85,17.55 239.89,17.91 239.81,18.27 239.73,18.62 239.54,18.94 239.36,19.25 239.08,19.48 238.80,19.72 238.46,19.85 238.12,19.99 237.76,20.01 237.40,20.03 237.05,19.93 236.70,19.83 236.70,19.83 236.70,19.83 234.12,18.67 231.55,17.51 228.32,16.19 225.09,14.86 220.59,13.24 216.08,11.62 210.34,9.93 204.59,8.23 197.69,6.71 190.79,5.19 182.86,4.11 174.93,3.03 166.17,2.64 157.40,2.24 148.05,2.73 138.69,3.22 129.04,4.73 119.39,6.24 109.75,8.82 100.12,11.40 90.81,15.00 81.50,18.60 72.81,23.07 64.12,27.54 56.27,32.66 48.42,37.79 41.57,43.28 34.73,48.78 28.95,54.33 23.18,59.89 18.50,65.20 13.81,70.50 10.17,75.27 6.52,80.04 3.83,84.01 1.13,87.99 -0.68,90.98 -2.51,93.97 -4.14,96.35 -5.77,98.73 -5.89,98.90 -6.02,99.07 -6.18,99.21 -6.35,99.34 -6.54,99.44 -6.73,99.53 -6.94,99.57 -7.15,99.62 -7.36,99.61 -7.58,99.60 -7.78,99.55 -7.99,99.49 -8.17,99.38 -8.36,99.28 -8.51,99.13 -8.67,98.98 -8.78,98.80 -8.90,98.63 -8.97,98.42 -9.04,98.22 -9.06,98.01 -9.07,97.80 -9.04,97.59 -9.01,97.37 -8.93,97.18 Z" fill="#ebbb38" stroke="#ebbb38" stroke-width="0" stroke-dasharray="none" stroke-dashoffset="none" stroke-linecap="round" stroke-linejoin="round" pointer-events="none"/><g><path d="M 229.44,5.412386062230882 L 238.84,18.36 222.92,20.026799273212234" fill="none" stroke="#ebbb38" stroke-width="4.23" stroke-linecap="round" stroke-linejoin="round" pointer-events="none"/></g></g></g><g id="59f78ee0-d959-48ad-3c0d-8ad309ecd08f_svg" class="tl-centered-g" transform="translate(578.41, 259.55) rotate(0.00, 195.18, 49.19)"><defs><mask id="59f78ee0-d959-48ad-3c0d-8ad309ecd08f_clip"><rect x="-100" y="-100" width="590.36" height="298.37" fill="white"/><rect x="205.50" y="5.19" width="0" height="0" rx="4" ry="4" fill="black" opacity="1"/></mask></defs><g pointer-events="none" opacity="1" mask=""><path d="M -21.82,38.90 Q -21.82,38.90 -20.16,37.77 -18.50,36.64 -16.78,35.77 -15.06,34.91 -12.50,33.67 -9.93,32.42 -6.30,30.75 -2.68,29.07 2.18,26.98 7.06,24.88 13.41,22.39 19.76,19.91 27.81,17.15 35.86,14.39 45.85,11.54 55.85,8.69 68.03,6.04 80.22,3.40 94.81,1.37 109.40,-0.64 126.56,-1.49 143.72,-2.34 163.50,-1.28 183.29,-0.21 204.88,3.49 226.47,7.20 245.49,12.80 264.51,18.40 280.42,24.93 296.33,31.45 309.42,38.24 322.50,45.03 333.12,51.60 343.73,58.16 352.21,64.19 360.70,70.22 367.38,75.52 374.05,80.82 379.21,85.29 384.37,89.75 388.27,93.37 392.17,96.98 395.03,99.78 397.89,102.57 399.90,104.60 401.92,106.64 403.24,108.03 404.57,109.41 405.97,110.90 407.38,112.40 407.57,112.71 407.76,113.01 407.85,113.37 407.93,113.72 407.90,114.08 407.86,114.45 407.72,114.78 407.57,115.11 407.32,115.38 407.08,115.65 406.76,115.83 406.44,116.00 406.08,116.07 405.73,116.13 405.37,116.08 405.00,116.03 404.68,115.86 404.36,115.70 404.10,115.44 403.85,115.18 403.69,114.85 403.53,114.52 403.48,114.16 403.44,113.80 403.51,113.44 403.58,113.09 403.77,112.77 403.95,112.46 404.22,112.21 404.49,111.97 404.83,111.83 405.17,111.69 405.53,111.67 405.89,111.64 406.24,111.73 406.60,111.82 406.90,112.02 407.21,112.22 407.43,112.51 407.66,112.79 407.78,113.14 407.90,113.48 407.91,113.84 407.91,114.21 407.80,114.56 407.69,114.90 407.48,115.20 407.26,115.49 406.96,115.70 406.67,115.91 406.32,116.01 405.97,116.11 405.60,116.10 405.24,116.09 404.90,115.96 404.56,115.83 404.28,115.60 404.00,115.37 404.00,115.37 404.00,115.37 402.66,113.95 401.32,112.52 400.02,111.16 398.71,109.81 396.73,107.80 394.74,105.78 391.93,103.03 389.12,100.29 385.27,96.72 381.42,93.16 376.34,88.75 371.26,84.35 364.67,79.12 358.09,73.89 349.73,67.94 341.36,61.99 330.89,55.50 320.43,49.02 307.52,42.32 294.62,35.62 278.93,29.16 263.24,22.71 244.47,17.17 225.70,11.63 204.37,7.95 183.04,4.27 163.49,3.21 143.93,2.14 126.97,2.97 110.01,3.80 95.59,5.80 81.17,7.79 69.13,10.41 57.08,13.02 47.20,15.83 37.31,18.64 29.35,21.37 21.39,24.10 15.11,26.56 8.83,29.01 4.02,31.08 -0.79,33.16 -4.38,34.81 -7.96,36.47 -10.50,37.70 -13.05,38.94 -14.74,39.79 -16.43,40.63 -18.32,41.33 -20.21,42.03 -20.41,42.10 -20.61,42.17 -20.82,42.20 -21.03,42.22 -21.24,42.19 -21.45,42.17 -21.65,42.09 -21.84,42.01 -22.02,41.89 -22.19,41.77 -22.33,41.61 -22.47,41.45 -22.56,41.26 -22.66,41.08 -22.71,40.87 -22.76,40.66 -22.76,40.45 -22.76,40.24 -22.70,40.04 -22.65,39.83 -22.55,39.64 -22.45,39.46 -22.31,39.30 -22.17,39.14 -21.99,39.02 Z" fill="#ebbb38" stroke="#ebbb38" stroke-width="0" stroke-dasharray="none" stroke-dashoffset="none" stroke-linecap="round" stroke-linejoin="round" pointer-events="none"/><g><path d="M 403.01,99.44801915680111 L 406.73,115.01 391.39,110.44903507161214" fill="none" stroke="#ebbb38" stroke-width="4.23" stroke-linecap="round" stroke-linejoin="round" pointer-events="none"/></g></g></g><g text-align="left" text-anchor="start" fill="#cecece" transform="translate(539.59, 166.30) rotate(343.59, 56.00, 21.50)"><text y="14" letter-spacing="-0.84" font-size="28px" font-family="Caveat Brush" text-align="left" alignment-baseline="central" transform="scale(1.1747786043222312)">/products</text></g><g text-align="left" text-anchor="start" fill="#cecece" transform="translate(604.14, 226.55) rotate(343.59, 16.00, 21.50)"><text y="14" letter-spacing="-0.84" font-size="28px" font-family="Caveat Brush" text-align="left" alignment-baseline="central" transform="scale(1.1747786043222312)">/5</text></g></svg>