<svg xmlns="http://www.w3.org/2000/svg" viewBox="0 0 1504 688" width="1472" height="656" style="background-color: transparent;"><defs><style>@import url('https://fonts.googleapis.com/css2?family=Caveat+Brush&amp;family=Source+Code+Pro&amp;family=Source+Sans+Pro&amp;family=Crimson+Pro&amp;display=block');</style></defs><g id="c286159d-3cd8-4d6d-2ca8-8004c36d8abf_svg" class="tl-centered-g" transform="translate(16.00, 16.00) rotate(0.00, 736.00, 328.00)"><g pointer-events="none" stroke="transparent" stroke-width="4.23" stroke-linecap="round"><line x1="2.11" y1="2.11" x2="1469.88" y2="2.11" stroke-dasharray="0.03 6.46" stroke-dashoffset="0"/><line x1="1469.88" y1="2.11" x2="1469.88" y2="653.88" stroke-dasharray="0.03 6.48" stroke-dashoffset="0"/><line x1="1469.88" y1="653.88" x2="2.11" y2="653.88" stroke-dasharray="0.03 6.46" stroke-dashoffset="0"/><line x1="2.11" y1="653.88" x2="2.11" y2="2.11" stroke-dasharray="0.03 6.48" stroke-dashoffset="0"/></g></g><g id="f52a5e6c-4c6b-42ab-27ac-01a9ccb145db_svg" class="tl-centered-g" transform="translate(234.47, 107.42) rotate(0.00, 24.68, 235.26)"><g opacity="1"><path d="M 22.26,0.21 Q 22.26,0.21 21.15,0.48 20.04,0.75 18.93,1.31 17.81,1.88 16.66,2.70 15.50,3.51 14.24,4.50 12.97,5.50 11.78,6.54 10.58,7.59 9.58,8.56 8.58,9.53 7.67,10.50 6.76,11.48 5.95,12.44 5.13,13.40 4.49,14.26 3.85,15.13 3.40,15.93 2.95,16.73 2.66,17.57 2.37,18.41 2.21,19.37 2.04,20.32 1.95,21.02 1.86,21.72 1.88,22.51 1.91,23.29 2.13,24.08 2.35,24.87 2.81,25.68 3.27,26.49 3.92,27.38 4.57,28.26 5.38,29.20 6.19,30.14 7.12,31.11 8.06,32.08 9.05,33.01 10.04,33.94 11.22,34.88 12.39,35.81 13.71,36.72 15.03,37.62 16.27,38.42 17.51,39.22 18.61,39.89 19.71,40.55 20.73,41.13 21.74,41.72 22.70,42.30 23.66,42.88 24.56,43.46 25.46,44.05 26.30,44.62 27.15,45.20 27.93,45.78 28.70,46.35 29.40,46.94 30.09,47.53 30.70,48.17 31.31,48.80 31.82,49.46 32.32,50.13 32.72,50.81 33.12,51.49 33.44,52.24 33.76,53.00 34.00,53.90 34.23,54.80 34.37,55.82 34.51,56.83 34.58,57.85 34.66,58.87 34.58,59.88 34.50,60.89 34.06,62.00 33.62,63.11 32.81,64.36 32.00,65.60 30.99,66.88 29.99,68.16 28.81,69.54 27.63,70.92 25.97,72.70 24.31,74.48 23.12,75.77 21.93,77.07 20.75,78.35 19.57,79.63 18.61,80.72 17.64,81.81 16.84,82.77 16.04,83.74 15.29,84.73 14.54,85.73 13.91,86.72 13.27,87.71 12.74,88.66 12.21,89.60 11.81,90.46 11.42,91.33 11.16,92.19 10.91,93.05 10.76,93.89 10.62,94.73 10.55,95.57 10.47,96.41 10.48,97.25 10.49,98.09 10.70,98.85 10.92,99.60 11.43,100.28 11.94,100.96 12.78,101.65 13.62,102.34 14.76,103.04 15.90,103.75 17.23,104.45 18.55,105.14 20.03,105.86 21.50,106.59 23.08,107.32 24.66,108.05 26.12,108.69 27.57,109.34 28.82,109.89 30.06,110.43 31.23,110.98 32.40,111.53 33.50,112.11 34.60,112.69 35.56,113.24 36.51,113.78 37.27,114.31 38.03,114.84 38.60,115.45 39.17,116.05 39.58,116.73 39.98,117.41 40.23,118.14 40.47,118.88 40.61,119.70 40.74,120.53 40.63,121.46 40.51,122.38 39.95,123.49 39.38,124.60 38.32,125.91 37.25,127.23 35.21,129.19 33.18,131.16 31.62,132.58 30.07,133.99 27.85,135.84 25.63,137.68 23.95,139.05 22.28,140.42 20.71,141.67 19.15,142.92 17.58,144.18 16.00,145.44 14.35,146.81 12.70,148.18 11.43,149.33 10.16,150.48 8.96,151.62 7.76,152.76 6.61,153.93 5.46,155.10 4.65,156.13 3.84,157.16 3.21,158.16 2.59,159.17 2.11,160.13 1.63,161.10 1.29,162.04 0.94,162.98 0.73,163.86 0.52,164.74 0.40,165.52 0.28,166.29 0.22,167.04 0.16,167.79 0.18,168.56 0.20,169.34 0.43,170.06 0.65,170.79 1.15,171.45 1.65,172.12 2.43,172.80 3.22,173.48 4.24,174.23 5.26,174.99 6.45,175.78 7.65,176.58 8.99,177.42 10.34,178.26 11.82,179.20 13.30,180.14 14.81,181.21 16.33,182.27 17.77,183.43 19.22,184.59 20.62,185.95 22.03,187.31 23.31,188.83 24.59,190.34 25.61,191.87 26.64,193.40 27.42,194.95 28.20,196.50 28.77,198.09 29.33,199.69 29.80,201.94 30.27,204.19 30.53,205.83 30.79,207.48 30.94,209.27 31.08,211.05 31.03,212.92 30.97,214.78 30.63,216.61 30.28,218.45 29.68,220.30 29.07,222.14 28.33,223.92 27.58,225.70 26.90,227.16 26.22,228.62 25.49,229.93 24.77,231.24 24.01,232.54 23.25,233.84 22.63,234.93 22.00,236.02 21.52,236.89 21.03,237.77 20.69,238.48 20.35,239.18 20.14,239.78 19.93,240.37 19.82,240.87 19.71,241.36 19.76,241.81 19.81,242.26 20.25,242.73 20.70,243.21 21.58,243.73 22.47,244.24 23.74,244.80 25.02,245.36 26.65,245.95 28.29,246.55 29.98,247.12 31.68,247.70 33.24,248.23 34.80,248.75 36.27,249.28 37.74,249.81 39.14,250.35 40.54,250.89 41.81,251.45 43.08,252.01 44.10,252.57 45.13,253.13 45.91,253.62 46.69,254.11 47.25,254.48 47.81,254.85 48.15,255.08 48.50,255.31 48.69,255.47 48.89,255.63 48.97,255.84 49.06,256.06 48.99,256.53 48.93,257.01 48.64,257.82 48.35,258.63 47.86,259.72 47.36,260.81 46.65,262.09 45.95,263.37 45.07,264.79 44.19,266.21 43.18,267.79 42.17,269.37 40.96,271.13 39.75,272.89 38.41,274.73 37.08,276.57 35.76,278.32 34.45,280.06 33.18,281.66 31.90,283.27 30.69,284.78 29.48,286.29 28.62,287.36 27.75,288.43 26.78,289.63 25.80,290.83 25.16,291.66 24.52,292.50 24.03,293.26 23.54,294.02 23.20,294.69 22.87,295.37 22.65,295.99 22.43,296.62 22.31,297.22 22.19,297.82 22.13,298.41 22.06,299.00 22.19,299.55 22.33,300.10 22.75,300.68 23.16,301.25 23.72,301.88 24.29,302.50 24.99,303.14 25.69,303.79 26.43,304.42 27.17,305.05 27.82,305.68 28.48,306.31 29.08,306.97 29.68,307.62 30.20,308.32 30.73,309.01 31.17,309.81 31.61,310.61 31.93,311.54 32.24,312.48 32.43,313.57 32.62,314.66 32.53,316.08 32.44,317.50 31.79,319.34 31.15,321.19 29.88,323.41 28.62,325.62 26.83,328.12 25.04,330.63 23.08,333.11 21.12,335.59 19.18,337.93 17.23,340.26 15.44,342.40 13.65,344.54 12.09,346.43 10.53,348.31 9.16,349.96 7.79,351.60 6.67,352.97 5.55,354.35 4.70,355.50 3.86,356.65 3.32,357.68 2.78,358.71 2.47,359.65 2.17,360.59 2.19,361.44 2.22,362.30 2.73,363.02 3.24,363.74 4.30,364.51 5.36,365.28 6.69,365.96 8.03,366.65 9.72,367.35 11.40,368.06 13.28,368.84 15.16,369.61 16.94,370.34 18.73,371.07 20.33,371.77 21.93,372.46 23.43,373.13 24.93,373.80 26.34,374.51 27.74,375.22 28.98,376.02 30.21,376.83 31.10,377.66 31.99,378.50 32.52,379.41 33.06,380.32 33.33,381.39 33.61,382.47 33.60,383.77 33.60,385.07 33.19,386.62 32.78,388.16 32.07,389.76 31.36,391.36 30.58,392.83 29.81,394.30 29.01,395.72 28.21,397.13 27.41,398.54 26.61,399.95 25.91,401.27 25.22,402.59 24.66,403.87 24.10,405.15 23.68,406.43 23.27,407.71 23.01,408.90 22.76,410.09 22.67,411.17 22.59,412.25 22.77,413.24 22.96,414.23 23.48,415.18 24.00,416.13 24.77,417.03 25.54,417.93 26.40,418.70 27.26,419.48 28.09,420.13 28.93,420.78 29.70,421.34 30.48,421.91 31.23,422.48 31.99,423.05 32.66,423.76 33.33,424.48 33.74,425.05 34.14,425.62 34.40,426.28 34.66,426.94 34.80,427.75 34.94,428.56 34.85,429.62 34.77,430.69 34.34,431.91 33.91,433.13 33.35,434.32 32.79,435.51 32.20,436.69 31.60,437.86 30.92,439.13 30.23,440.40 29.54,441.67 28.86,442.94 28.31,444.07 27.75,445.20 27.33,446.19 26.91,447.19 26.64,448.19 26.36,449.19 26.21,450.25 26.05,451.32 25.97,452.39 25.88,453.47 25.84,454.55 25.79,455.63 25.76,456.72 25.74,457.80 25.75,458.87 25.75,459.94 25.82,461.03 25.89,462.11 26.00,463.16 26.12,464.21 26.25,465.13 26.38,466.05 26.52,466.80 26.65,467.56 26.77,468.15 26.88,468.74 27.04,469.63 27.21,470.53 27.21,470.53" fill="none" stroke="none" stroke-width="4" stroke-linejoin="round" stroke-linecap="round" pointer-events="none"/><path d="M 22.26,0.21 Q 22.26,0.21 21.15,0.48 20.04,0.75 18.93,1.31 17.81,1.88 16.66,2.70 15.50,3.51 14.24,4.50 12.97,5.50 11.78,6.54 10.58,7.59 9.58,8.56 8.58,9.53 7.67,10.50 6.76,11.48 5.95,12.44 5.13,13.40 4.49,14.26 3.85,15.13 3.40,15.93 2.95,16.73 2.66,17.57 2.37,18.41 2.21,19.37 2.04,20.32 1.95,21.02 1.86,21.72 1.88,22.51 1.91,23.29 2.13,24.08 2.35,24.87 2.81,25.68 3.27,26.49 3.92,27.38 4.57,28.26 5.38,29.20 6.19,30.14 7.12,31.11 8.06,32.08 9.05,33.01 10.04,33.94 11.22,34.88 12.39,35.81 13.71,36.72 15.03,37.62 16.27,38.42 17.51,39.22 18.61,39.89 19.71,40.55 20.73,41.13 21.74,41.72 22.70,42.30 23.66,42.88 24.56,43.46 25.46,44.05 26.30,44.62 27.15,45.20 27.93,45.78 28.70,46.35 29.40,46.94 30.09,47.53 30.70,48.17 31.31,48.80 31.82,49.46 32.32,50.13 32.72,50.81 33.12,51.49 33.44,52.24 33.76,53.00 34.00,53.90 34.23,54.80 34.37,55.82 34.51,56.83 34.58,57.85 34.66,58.87 34.58,59.88 34.50,60.89 34.06,62.00 33.62,63.11 32.81,64.36 32.00,65.60 30.99,66.88 29.99,68.16 28.81,69.54 27.63,70.92 25.97,72.70 24.31,74.48 23.12,75.77 21.93,77.07 20.75,78.35 19.57,79.63 18.61,80.72 17.64,81.81 16.84,82.77 16.04,83.74 15.29,84.73 14.54,85.73 13.91,86.72 13.27,87.71 12.74,88.66 12.21,89.60 11.81,90.46 11.42,91.33 11.16,92.19 10.91,93.05 10.76,93.89 10.62,94.73 10.55,95.57 10.47,96.41 10.48,97.25 10.49,98.09 10.70,98.85 10.92,99.60 11.43,100.28 11.94,100.96 12.78,101.65 13.62,102.34 14.76,103.04 15.90,103.75 17.23,104.45 18.55,105.14 20.03,105.86 21.50,106.59 23.08,107.32 24.66,108.05 26.12,108.69 27.57,109.34 28.82,109.89 30.06,110.43 31.23,110.98 32.40,111.53 33.50,112.11 34.60,112.69 35.56,113.24 36.51,113.78 37.27,114.31 38.03,114.84 38.60,115.45 39.17,116.05 39.58,116.73 39.98,117.41 40.23,118.14 40.47,118.88 40.61,119.70 40.74,120.53 40.63,121.46 40.51,122.38 39.95,123.49 39.38,124.60 38.32,125.91 37.25,127.23 35.21,129.19 33.18,131.16 31.62,132.58 30.07,133.99 27.85,135.84 25.63,137.68 23.95,139.05 22.28,140.42 20.71,141.67 19.15,142.92 17.58,144.18 16.00,145.44 14.35,146.81 12.70,148.18 11.43,149.33 10.16,150.48 8.96,151.62 7.76,152.76 6.61,153.93 5.46,155.10 4.65,156.13 3.84,157.16 3.21,158.16 2.59,159.17 2.11,160.13 1.63,161.10 1.29,162.04 0.94,162.98 0.73,163.86 0.52,164.74 0.40,165.52 0.28,166.29 0.22,167.04 0.16,167.79 0.18,168.56 0.20,169.34 0.43,170.06 0.65,170.79 1.15,171.45 1.65,172.12 2.43,172.80 3.22,173.48 4.24,174.23 5.26,174.99 6.45,175.78 7.65,176.58 8.99,177.42 10.34,178.26 11.82,179.20 13.30,180.14 14.81,181.21 16.33,182.27 17.77,183.43 19.22,184.59 20.62,185.95 22.03,187.31 23.31,188.83 24.59,190.34 25.61,191.87 26.64,193.40 27.42,194.95 28.20,196.50 28.77,198.09 29.33,199.69 29.80,201.94 30.27,204.19 30.53,205.83 30.79,207.48 30.94,209.27 31.08,211.05 31.03,212.92 30.97,214.78 30.63,216.61 30.28,218.45 29.68,220.30 29.07,222.14 28.33,223.92 27.58,225.70 26.90,227.16 26.22,228.62 25.49,229.93 24.77,231.24 24.01,232.54 23.25,233.84 22.63,234.93 22.00,236.02 21.52,236.89 21.03,237.77 20.69,238.48 20.35,239.18 20.14,239.78 19.93,240.37 19.82,240.87 19.71,241.36 19.76,241.81 19.81,242.26 20.25,242.73 20.70,243.21 21.58,243.73 22.47,244.24 23.74,244.80 25.02,245.36 26.65,245.95 28.29,246.55 29.98,247.12 31.68,247.70 33.24,248.23 34.80,248.75 36.27,249.28 37.74,249.81 39.14,250.35 40.54,250.89 41.81,251.45 43.08,252.01 44.10,252.57 45.13,253.13 45.91,253.62 46.69,254.11 47.25,254.48 47.81,254.85 48.15,255.08 48.50,255.31 48.69,255.47 48.89,255.63 48.97,255.84 49.06,256.06 48.99,256.53 48.93,257.01 48.64,257.82 48.35,258.63 47.86,259.72 47.36,260.81 46.65,262.09 45.95,263.37 45.07,264.79 44.19,266.21 43.18,267.79 42.17,269.37 40.96,271.13 39.75,272.89 38.41,274.73 37.08,276.57 35.76,278.32 34.45,280.06 33.18,281.66 31.90,283.27 30.69,284.78 29.48,286.29 28.62,287.36 27.75,288.43 26.78,289.63 25.80,290.83 25.16,291.66 24.52,292.50 24.03,293.26 23.54,294.02 23.20,294.69 22.87,295.37 22.65,295.99 22.43,296.62 22.31,297.22 22.19,297.82 22.13,298.41 22.06,299.00 22.19,299.55 22.33,300.10 22.75,300.68 23.16,301.25 23.72,301.88 24.29,302.50 24.99,303.14 25.69,303.79 26.43,304.42 27.17,305.05 27.82,305.68 28.48,306.31 29.08,306.97 29.68,307.62 30.20,308.32 30.73,309.01 31.17,309.81 31.61,310.61 31.93,311.54 32.24,312.48 32.43,313.57 32.62,314.66 32.53,316.08 32.44,317.50 31.79,319.34 31.15,321.19 29.88,323.41 28.62,325.62 26.83,328.12 25.04,330.63 23.08,333.11 21.12,335.59 19.18,337.93 17.23,340.26 15.44,342.40 13.65,344.54 12.09,346.43 10.53,348.31 9.16,349.96 7.79,351.60 6.67,352.97 5.55,354.35 4.70,355.50 3.86,356.65 3.32,357.68 2.78,358.71 2.47,359.65 2.17,360.59 2.19,361.44 2.22,362.30 2.73,363.02 3.24,363.74 4.30,364.51 5.36,365.28 6.69,365.96 8.03,366.65 9.72,367.35 11.40,368.06 13.28,368.84 15.16,369.61 16.94,370.34 18.73,371.07 20.33,371.77 21.93,372.46 23.43,373.13 24.93,373.80 26.34,374.51 27.74,375.22 28.98,376.02 30.21,376.83 31.10,377.66 31.99,378.50 32.52,379.41 33.06,380.32 33.33,381.39 33.61,382.47 33.60,383.77 33.60,385.07 33.19,386.62 32.78,388.16 32.07,389.76 31.36,391.36 30.58,392.83 29.81,394.30 29.01,395.72 28.21,397.13 27.41,398.54 26.61,399.95 25.91,401.27 25.22,402.59 24.66,403.87 24.10,405.15 23.68,406.43 23.27,407.71 23.01,408.90 22.76,410.09 22.67,411.17 22.59,412.25 22.77,413.24 22.96,414.23 23.48,415.18 24.00,416.13 24.77,417.03 25.54,417.93 26.40,418.70 27.26,419.48 28.09,420.13 28.93,420.78 29.70,421.34 30.48,421.91 31.23,422.48 31.99,423.05 32.66,423.76 33.33,424.48 33.74,425.05 34.14,425.62 34.40,426.28 34.66,426.94 34.80,427.75 34.94,428.56 34.85,429.62 34.77,430.69 34.34,431.91 33.91,433.13 33.35,434.32 32.79,435.51 32.20,436.69 31.60,437.86 30.92,439.13 30.23,440.40 29.54,441.67 28.86,442.94 28.31,444.07 27.75,445.20 27.33,446.19 26.91,447.19 26.64,448.19 26.36,449.19 26.21,450.25 26.05,451.32 25.97,452.39 25.88,453.47 25.84,454.55 25.79,455.63 25.76,456.72 25.74,457.80 25.75,458.87 25.75,459.94 25.82,461.03 25.89,462.11 26.00,463.16 26.12,464.21 26.25,465.13 26.38,466.05 26.52,466.80 26.65,467.56 26.77,468.15 26.88,468.74 27.04,469.63 27.21,470.53 27.21,470.53" fill="none" stroke="#717d8a" stroke-width="4" stroke-dasharray="0.1 8" stroke-dashoffset="0" stroke-linejoin="round" stroke-linecap="round" pointer-events="none"/></g></g><g id="dd9f4d6b-9698-45bf-331c-ddd04f052df8_svg" class="tl-centered-g" transform="translate(348.43, 245.22) rotate(0.00, 159.80, 129.78)"><path d="M -0.29,170.83 Q -0.29,170.83 -0.23,164.63 -0.17,158.44 -0.11,150.66 -0.04,142.89 -0.02,134.71 -0.00,126.54 -0.02,118.26 -0.04,109.98 -0.06,101.67 -0.08,93.37 -0.10,85.06 -0.12,76.74 -0.14,68.43 -0.16,60.12 -0.19,51.80 -0.21,43.49 -0.23,35.17 -0.25,26.86 -0.26,18.52 -0.28,10.18 1.59,6.04 3.46,1.89 10.58,0.75 17.69,-0.37 25.90,-0.57 34.11,-0.78 42.60,-0.80 51.09,-0.82 59.65,-0.79 68.21,-0.77 76.79,-0.73 85.37,-0.70 93.96,-0.66 102.55,-0.62 111.13,-0.58 119.72,-0.54 128.31,-0.50 136.90,-0.46 145.48,-0.42 154.07,-0.38 162.66,-0.41 171.25,-0.44 179.84,-0.48 188.42,-0.51 197.01,-0.54 205.60,-0.57 214.19,-0.61 222.78,-0.64 231.36,-0.67 239.95,-0.70 248.54,-0.74 257.13,-0.77 265.72,-0.80 274.31,-0.83 282.89,-0.86 291.48,-0.90 300.09,-0.92 308.70,-0.95 312.92,0.91 317.14,2.78 318.28,9.71 319.42,16.64 319.60,24.62 319.79,32.61 319.79,40.85 319.79,49.10 319.74,57.42 319.70,65.74 319.64,74.08 319.58,82.41 319.52,90.75 319.46,99.10 319.40,107.44 319.34,115.78 319.32,124.13 319.30,132.47 319.33,140.81 319.35,149.16 319.38,157.50 319.40,165.84 319.43,174.19 319.46,182.53 319.48,190.88 319.51,199.22 319.53,207.56 319.56,215.91 319.58,224.25 319.61,232.59 319.63,240.96 319.65,249.33 317.77,253.49 315.89,257.65 308.78,258.76 301.66,259.88 293.45,260.06 285.23,260.24 276.74,260.23 268.25,260.23 259.69,260.18 251.12,260.13 242.54,260.07 233.95,260.01 225.36,259.95 216.77,259.88 208.18,259.82 199.59,259.76 191.00,259.69 182.41,259.63 173.81,259.56 165.22,259.50 156.63,259.51 148.04,259.51 139.45,259.52 130.85,259.53 122.26,259.54 113.67,259.55 105.08,259.55 96.49,259.56 87.90,259.57 79.30,259.58 70.71,259.59 62.12,259.59 53.53,259.60 44.94,259.61 36.34,259.62 27.75,259.62 19.14,259.63 10.52,259.63 6.30,257.75 2.09,255.88 0.95,248.97 -0.17,242.06 -0.35,234.10 -0.53,226.14 -0.53,217.92 -0.53,209.71 -0.48,201.42 -0.43,193.13 -0.36,184.82 -0.30,176.51 -0.24,168.20 -0.17,159.89 -0.11,151.57 -0.04,143.26 -0.02,134.95 -0.00,126.63 -0.02,118.32 -0.04,110.00 -0.05,98.84 -0.07,87.68 -0.03,87.49 -0.00,87.30 0.08,87.12 0.17,86.95 0.32,86.81 0.46,86.68 0.64,86.60 0.82,86.51 1.01,86.49 1.21,86.47 1.40,86.51 1.59,86.56 1.76,86.66 1.93,86.76 2.06,86.91 2.19,87.06 2.26,87.25 2.33,87.43 2.34,87.63 2.35,87.82 2.30,88.01 2.24,88.20 2.13,88.36 2.02,88.53 1.87,88.64 1.71,88.76 1.52,88.83 1.33,88.89 1.14,88.89 0.94,88.89 0.75,88.82 0.57,88.76 0.41,88.64 0.26,88.52 0.15,88.36 0.04,88.19 -0.01,88.00 -0.06,87.81 -0.05,87.62 -0.04,87.42 0.03,87.24 0.10,87.06 0.23,86.91 0.36,86.76 0.53,86.66 0.69,86.56 0.89,86.51 1.08,86.47 1.27,86.49 1.47,86.52 1.65,86.60 1.83,86.68 1.97,86.82 2.11,86.95 2.20,87.13 2.30,87.30 2.33,87.50 2.36,87.69 2.36,87.69 2.36,87.69 2.28,98.85 2.21,110.01 2.15,118.32 2.08,126.64 2.06,134.95 2.03,143.27 2.06,151.58 2.08,159.89 2.10,168.21 2.12,176.52 2.15,184.82 2.17,193.13 2.21,201.41 2.24,209.69 2.33,217.88 2.41,226.06 2.66,233.84 2.92,241.63 3.63,247.87 4.34,254.11 7.48,255.23 10.62,256.35 19.19,256.41 27.76,256.47 36.35,256.53 44.95,256.60 53.54,256.66 62.13,256.73 70.72,256.79 79.31,256.86 87.90,256.92 96.50,256.98 105.09,257.05 113.68,257.11 122.27,257.18 130.86,257.24 139.45,257.31 148.05,257.37 156.64,257.43 165.23,257.50 173.82,257.49 182.41,257.48 191.00,257.48 199.60,257.47 208.19,257.46 216.78,257.45 225.37,257.44 233.96,257.43 242.54,257.42 251.12,257.41 259.68,257.39 268.24,257.36 276.70,257.30 285.16,257.23 293.20,256.99 301.25,256.75 307.70,256.07 314.15,255.38 315.26,252.30 316.37,249.23 316.42,240.91 316.48,232.59 316.54,224.24 316.60,215.90 316.66,207.56 316.73,199.21 316.79,190.87 316.85,182.53 316.91,174.18 316.97,165.84 317.03,157.50 317.09,149.15 317.16,140.81 317.22,132.46 317.23,124.12 317.25,115.78 317.23,107.43 317.20,99.09 317.18,90.75 317.15,82.41 317.12,74.07 317.09,65.74 317.05,57.43 317.01,49.12 316.92,40.90 316.84,32.69 316.58,24.88 316.32,17.07 315.60,10.80 314.89,4.54 311.75,3.43 308.61,2.32 300.05,2.28 291.48,2.25 282.89,2.21 274.30,2.17 265.72,2.13 257.13,2.09 248.54,2.05 239.95,2.01 231.36,1.97 222.78,1.93 214.19,1.89 205.60,1.85 197.01,1.81 188.42,1.77 179.84,1.73 171.25,1.69 162.66,1.65 154.07,1.61 145.48,1.64 136.90,1.68 128.31,1.71 119.72,1.74 111.13,1.77 102.54,1.81 93.96,1.84 85.37,1.87 76.79,1.91 68.21,1.94 59.66,1.99 51.11,2.04 42.65,2.13 34.20,2.22 26.15,2.48 18.11,2.74 11.67,3.45 5.22,4.15 4.11,7.22 2.99,10.29 2.93,18.58 2.87,26.87 2.80,35.18 2.74,43.50 2.67,51.81 2.61,60.12 2.54,68.44 2.47,76.75 2.41,85.06 2.34,93.38 2.28,101.68 2.21,109.99 2.15,118.26 2.08,126.54 2.06,134.72 2.04,142.90 2.06,150.67 2.08,158.44 2.11,164.64 2.13,170.83 2.12,170.98 2.10,171.12 2.04,171.26 1.99,171.40 1.91,171.52 1.83,171.64 1.72,171.74 1.61,171.83 1.48,171.90 1.35,171.97 1.20,172.00 1.06,172.04 0.91,172.04 0.77,172.04 0.62,172.00 0.48,171.97 0.35,171.90 0.22,171.83 0.11,171.73 0.00,171.63 -0.07,171.51 -0.15,171.39 -0.20,171.25 -0.26,171.12 -0.27,170.97 Z" fill="#36a64c" stroke="#36a64c" stroke-width="2" pointer-events="none"/></g><g id="1bbef53b-92c5-4743-1acc-1ed40c0cab0e_svg" class="tl-centered-g" transform="translate(389.67, 296.49) rotate(0.00, 131.94, 98.00)"><path d="M 263.50,89.43 Q 263.50,89.43 263.52,95.77 263.53,102.10 263.60,110.06 263.68,118.01 263.75,126.38 263.83,134.75 263.91,143.22 263.98,151.69 264.06,160.19 264.14,168.69 264.21,177.22 264.28,185.74 262.41,189.94 260.55,194.15 253.56,195.29 246.56,196.43 238.50,196.63 230.43,196.83 222.10,196.84 213.77,196.86 205.36,196.83 196.96,196.80 188.53,196.76 180.11,196.71 171.68,196.67 163.25,196.63 154.82,196.58 146.39,196.53 137.96,196.53 129.53,196.53 121.09,196.57 112.66,196.61 104.23,196.65 95.80,196.69 87.37,196.73 78.94,196.77 70.51,196.82 62.08,196.86 53.65,196.90 45.21,196.94 36.78,196.98 28.35,197.02 19.90,197.06 11.44,197.09 7.26,195.22 3.08,193.35 1.95,186.31 0.83,179.27 0.63,171.15 0.44,163.03 0.43,154.64 0.42,146.24 0.46,137.78 0.49,129.31 0.54,120.83 0.59,112.34 0.58,103.85 0.57,95.36 0.50,86.87 0.44,78.38 0.37,69.89 0.30,61.40 0.23,52.91 0.17,44.42 0.10,35.92 0.03,27.43 -0.02,18.92 -0.08,10.40 1.78,6.21 3.64,2.01 10.63,0.86 17.62,-0.28 25.68,-0.49 33.74,-0.70 42.06,-0.73 50.39,-0.75 58.79,-0.74 67.19,-0.72 75.60,-0.69 84.02,-0.66 92.45,-0.62 100.87,-0.59 109.29,-0.56 117.72,-0.52 126.14,-0.53 134.56,-0.54 142.99,-0.60 151.41,-0.65 159.84,-0.70 168.26,-0.75 176.68,-0.81 185.11,-0.86 193.53,-0.91 201.96,-0.96 210.38,-1.02 218.80,-1.07 227.23,-1.12 235.65,-1.18 244.10,-1.22 252.55,-1.27 256.73,0.58 260.91,2.45 262.04,9.50 263.18,16.56 263.38,24.69 263.58,32.83 263.60,41.24 263.62,49.64 263.59,58.12 263.56,66.61 263.53,75.11 263.49,83.61 263.51,92.11 263.52,100.62 263.60,109.13 263.68,117.64 263.76,129.05 263.84,140.47 263.81,140.68 263.78,140.89 263.68,141.07 263.58,141.26 263.43,141.40 263.28,141.55 263.09,141.64 262.90,141.72 262.69,141.75 262.48,141.77 262.27,141.73 262.07,141.68 261.89,141.57 261.71,141.47 261.57,141.31 261.44,141.15 261.36,140.95 261.28,140.76 261.27,140.55 261.26,140.34 261.31,140.14 261.37,139.94 261.49,139.76 261.60,139.59 261.77,139.46 261.94,139.33 262.14,139.27 262.33,139.20 262.54,139.20 262.75,139.20 262.95,139.26 263.15,139.33 263.32,139.46 263.49,139.58 263.60,139.76 263.72,139.93 263.78,140.13 263.83,140.33 263.82,140.54 263.81,140.75 263.74,140.95 263.66,141.14 263.52,141.30 263.39,141.46 263.21,141.57 263.03,141.68 262.82,141.73 262.62,141.77 262.41,141.75 262.20,141.73 262.01,141.64 261.82,141.55 261.67,141.41 261.52,141.26 261.42,141.08 261.32,140.89 261.29,140.69 261.25,140.48 261.25,140.48 261.25,140.48 261.29,129.06 261.32,117.64 261.36,109.13 261.41,100.63 261.39,92.12 261.37,83.61 261.29,75.11 261.21,66.62 261.12,58.14 261.03,49.67 260.89,41.29 260.75,32.92 260.45,24.95 260.14,16.98 259.40,10.60 258.65,4.22 255.56,3.11 252.46,2.00 244.06,1.97 235.66,1.94 227.23,1.91 218.81,1.87 210.38,1.84 201.96,1.81 193.54,1.77 185.11,1.74 176.69,1.70 168.26,1.67 159.84,1.64 151.41,1.60 142.99,1.57 134.57,1.53 126.14,1.54 117.72,1.55 109.29,1.61 100.87,1.66 92.45,1.71 84.03,1.77 75.61,1.82 67.19,1.88 58.80,1.95 50.41,2.02 42.12,2.13 33.83,2.24 25.94,2.52 18.05,2.81 11.73,3.53 5.41,4.26 4.30,7.38 3.19,10.49 3.14,18.96 3.10,27.43 3.05,35.92 3.00,44.41 2.94,52.90 2.89,61.40 2.84,69.89 2.79,78.38 2.74,86.87 2.69,95.36 2.70,103.85 2.71,112.34 2.78,120.82 2.85,129.31 2.93,137.77 3.01,146.22 3.14,154.58 3.27,162.94 3.56,170.89 3.86,178.85 4.60,185.22 5.34,191.59 8.44,192.70 11.54,193.81 19.95,193.85 28.35,193.89 36.78,193.94 45.22,193.98 53.65,194.03 62.08,194.08 70.51,194.12 78.94,194.17 87.37,194.21 95.80,194.26 104.23,194.31 112.66,194.35 121.09,194.40 129.53,194.44 137.96,194.45 146.39,194.45 154.82,194.41 163.25,194.37 171.68,194.32 180.11,194.28 188.53,194.24 196.95,194.19 205.35,194.14 213.75,194.08 222.05,193.98 230.35,193.88 238.24,193.60 246.13,193.33 252.46,192.61 258.79,191.89 259.89,188.78 261.00,185.66 261.04,177.18 261.07,168.69 261.11,160.19 261.16,151.70 261.20,143.22 261.24,134.75 261.28,126.39 261.32,118.02 261.37,110.06 261.41,102.11 261.40,95.77 261.38,89.43 261.40,89.31 261.41,89.18 261.46,89.06 261.50,88.94 261.58,88.83 261.65,88.73 261.74,88.64 261.84,88.56 261.95,88.50 262.07,88.44 262.19,88.41 262.31,88.38 262.44,88.38 262.57,88.38 262.69,88.41 262.82,88.44 262.93,88.50 263.04,88.56 263.14,88.64 263.23,88.73 263.31,88.83 263.38,88.94 263.43,89.06 263.47,89.17 263.49,89.30 Z" fill="#36a64c" stroke="#36a64c" stroke-width="2" pointer-events="none"/></g><g id="42be58c9-bf99-4c0e-0b26-daac4821f9fe_svg" class="tl-centered-g" transform="translate(445.38, 348.11) rotate(0.00, 97.95, 65.44)"><path d="M 195.98,90.67 Q 195.98,90.67 196.04,97.10 196.10,103.54 196.15,111.64 196.19,119.74 194.32,123.82 192.44,127.91 185.45,129.02 178.45,130.13 170.40,130.32 162.36,130.51 154.04,130.52 145.72,130.53 137.33,130.50 128.94,130.47 120.53,130.43 112.12,130.38 103.70,130.40 95.29,130.41 86.87,130.48 78.46,130.55 70.04,130.63 61.62,130.70 53.21,130.77 44.79,130.84 36.38,130.91 27.96,130.98 19.52,131.05 11.08,131.12 6.90,129.25 2.72,127.38 1.62,120.22 0.51,113.05 0.34,104.79 0.16,96.52 0.17,87.97 0.18,79.43 0.14,70.80 0.09,62.18 -0.02,53.53 -0.14,44.89 -0.26,36.24 -0.38,27.59 -0.49,18.91 -0.61,10.24 1.25,6.00 3.11,1.76 10.13,0.62 17.14,-0.51 25.24,-0.70 33.33,-0.89 41.69,-0.90 50.05,-0.90 58.49,-0.86 66.92,-0.82 75.38,-0.77 83.83,-0.71 92.29,-0.72 100.75,-0.72 109.21,-0.78 117.68,-0.84 126.14,-0.91 134.60,-0.97 143.06,-1.03 151.52,-1.09 159.98,-1.15 168.44,-1.21 176.93,-1.27 185.41,-1.33 189.60,0.54 193.80,2.42 194.85,9.57 195.91,16.72 196.01,24.97 196.12,33.22 196.05,41.75 195.97,50.29 195.94,58.89 195.91,67.50 195.96,76.13 196.01,84.76 196.05,96.35 196.08,107.94 196.04,108.18 196.00,108.41 195.89,108.62 195.78,108.83 195.60,108.99 195.43,109.15 195.21,109.25 195.00,109.35 194.76,109.37 194.53,109.40 194.30,109.35 194.07,109.29 193.86,109.17 193.66,109.05 193.51,108.87 193.36,108.68 193.27,108.46 193.18,108.24 193.17,108.01 193.16,107.77 193.22,107.54 193.29,107.31 193.42,107.12 193.56,106.92 193.75,106.78 193.94,106.64 194.16,106.56 194.39,106.49 194.62,106.49 194.86,106.49 195.08,106.57 195.31,106.65 195.50,106.79 195.68,106.93 195.81,107.13 195.95,107.33 196.01,107.56 196.07,107.79 196.06,108.02 196.04,108.26 195.95,108.48 195.87,108.70 195.71,108.88 195.56,109.06 195.35,109.18 195.15,109.30 194.92,109.35 194.69,109.40 194.45,109.37 194.22,109.34 194.00,109.24 193.79,109.14 193.62,108.98 193.44,108.82 193.33,108.61 193.22,108.40 193.19,108.16 193.15,107.93 193.15,107.93 193.15,107.93 193.30,96.34 193.46,84.75 193.59,76.12 193.72,67.50 193.75,58.89 193.78,50.29 193.67,41.79 193.57,33.28 193.28,25.19 193.00,17.10 192.27,10.62 191.53,4.15 188.42,3.05 185.32,1.94 176.88,1.89 168.44,1.84 159.98,1.78 151.52,1.73 143.06,1.67 134.60,1.61 126.14,1.56 117.68,1.50 109.22,1.44 100.75,1.39 92.29,1.39 83.84,1.39 75.38,1.46 66.93,1.53 58.50,1.60 50.07,1.68 41.74,1.80 33.41,1.92 25.49,2.22 17.57,2.51 11.22,3.26 4.87,4.01 3.77,7.16 2.67,10.32 2.60,18.95 2.54,27.58 2.47,36.23 2.41,44.88 2.34,53.52 2.28,62.17 2.32,70.78 2.36,79.40 2.54,87.92 2.72,96.44 3.06,104.55 3.41,112.65 4.19,119.14 4.98,125.62 8.07,126.73 11.17,127.84 19.56,127.88 27.95,127.92 36.37,127.97 44.79,128.01 53.20,128.06 61.62,128.11 70.04,128.15 78.45,128.20 86.87,128.25 95.29,128.29 103.70,128.28 112.11,128.26 120.52,128.19 128.93,128.11 137.31,128.03 145.70,127.94 153.98,127.81 162.27,127.68 170.15,127.38 178.04,127.09 184.35,126.37 190.66,125.65 191.79,122.64 192.91,119.62 193.04,111.57 193.17,103.52 193.30,97.09 193.43,90.66 193.45,90.50 193.47,90.35 193.52,90.21 193.58,90.06 193.66,89.94 193.75,89.81 193.87,89.71 193.98,89.61 194.12,89.54 194.26,89.47 194.41,89.43 194.56,89.39 194.71,89.39 194.87,89.40 195.02,89.43 195.17,89.47 195.30,89.54 195.44,89.62 195.55,89.72 195.67,89.82 195.75,89.95 195.84,90.08 195.89,90.22 195.95,90.36 195.97,90.52 Z" fill="#36a64c" stroke="#36a64c" stroke-width="2" pointer-events="none"/></g><g id="bd862731-86a8-4ce3-3b72-ab6913120205_svg" class="tl-centered-g" transform="translate(135.30, 380.38) rotate(0.00, 105.45, 0.67)"><defs><mask id="bd862731-86a8-4ce3-3b72-ab6913120205_clip"><rect x="-100" y="-100" width="410.9" height="201.33" fill="white"/><rect x="105.45" y="0.66" width="0" height="0" rx="4" ry="4" fill="black" opacity="1"/></mask></defs><g pointer-events="none" opacity="1" mask=""><path d="M 210.91,2.45 Q 210.91,2.45 185.17,2.53 159.43,2.61 133.70,2.71 107.96,2.82 82.22,2.93 56.48,3.05 30.75,3.18 5.01,3.31 4.69,3.26 4.36,3.21 4.07,3.06 3.79,2.91 3.56,2.67 3.33,2.44 3.19,2.14 3.06,1.84 3.02,1.52 2.98,1.20 3.05,0.88 3.12,0.56 3.28,0.28 3.45,0.00 3.70,-0.20 3.94,-0.42 4.25,-0.54 4.55,-0.66 4.87,-0.68 5.20,-0.70 5.52,-0.62 5.83,-0.53 6.10,-0.35 6.37,-0.17 6.57,0.08 6.77,0.34 6.88,0.65 6.98,0.96 6.98,1.28 6.99,1.61 6.88,1.92 6.78,2.23 6.59,2.49 6.39,2.75 6.12,2.93 5.85,3.12 5.54,3.21 5.23,3.30 4.90,3.28 4.57,3.26 4.27,3.15 3.97,3.03 3.72,2.82 3.47,2.61 3.30,2.33 3.13,2.05 3.05,1.73 2.98,1.41 3.02,1.09 3.05,0.77 3.18,0.47 3.32,0.17 3.54,-0.06 3.77,-0.29 4.05,-0.45 4.34,-0.60 4.66,-0.66 4.98,-0.71 4.98,-0.71 4.98,-0.71 30.72,-0.91 56.46,-1.10 82.19,-1.31 107.93,-1.52 133.67,-1.74 159.41,-1.96 185.14,-2.21 210.88,-2.45 211.17,-2.42 211.47,-2.38 211.74,-2.28 212.02,-2.18 212.27,-2.01 212.51,-1.84 212.71,-1.62 212.91,-1.40 213.05,-1.14 213.18,-0.88 213.26,-0.59 213.33,-0.31 213.33,-0.01 213.33,0.28 213.26,0.56 213.20,0.85 213.06,1.11 212.92,1.38 212.73,1.60 212.53,1.82 212.29,1.99 212.05,2.16 211.77,2.27 211.50,2.37 211.20,2.41 Z" fill="#36a64c" stroke="#36a64c" stroke-width="4.54" stroke-dasharray="none" stroke-dashoffset="none" stroke-linecap="round" stroke-linejoin="round" pointer-events="stroke"/><g><path d="M 34.76,21.11114980208749 L 0,1.33 34.51,-18.88805483165133" fill="none" stroke="#36a64c" stroke-width="9.09" stroke-linecap="round" stroke-linejoin="round" pointer-events="none"/></g></g></g><g text-align="left" text-anchor="start" fill="#ebbb38" transform="translate(137.20, 294.95) rotate(2.97, 95.50, 35.50)"><text y="14" letter-spacing="-0.84" font-size="28px" font-family="Caveat Brush" text-align="left" alignment-baseline="central" transform="scale(2.194644038034906)">Response</text></g><g text-align="left" text-anchor="start" fill="#cecece" transform="translate(346.57, 206.53) rotate(0.00, 76.00, 23.50)"><text y="24" letter-spacing="-1.44" font-size="48px" font-family="Caveat Brush" text-align="left" alignment-baseline="central" transform="scale(0.7656448076539768)">MainLayout</text></g><g text-align="left" text-anchor="start" fill="#cecece" transform="translate(400.68, 259.28) rotate(0.00, 92.50, 23.50)"><text y="24" letter-spacing="-1.44" font-size="48px" font-family="Caveat Brush" text-align="left" alignment-baseline="central" transform="scale(0.7656448076539768)">ProductLayout</text></g><g text-align="left" text-anchor="start" fill="#cecece" transform="translate(441.38, 308.48) rotate(0.00, 92.00, 23.50)"><text y="24" letter-spacing="-1.44" font-size="48px" font-family="Caveat Brush" text-align="left" alignment-baseline="central" transform="scale(0.7656448076539768)">ProductProfile</text></g><g text-align="left" text-anchor="start" fill="#cecece" transform="translate(312.17, 83.24) rotate(0.00, 29.50, 17.50)"><text y="14" letter-spacing="-0.84" font-size="28px" font-family="Caveat Brush" text-align="left" alignment-baseline="central" transform="scale(0.8818427620532716)">server</text></g><g text-align="left" text-anchor="start" fill="#ebbb38" transform="translate(309.86, 47.79) rotate(0.00, 122.00, 25.50)"><text y="14" letter-spacing="-0.84" font-size="28px" font-family="Caveat Brush" text-align="left" alignment-baseline="central" transform="scale(1.4639668915507422)">Remix Framework</text></g><g id="ab98bf68-d43d-4339-23db-2cbc4fc1e1d9_svg" class="tl-centered-g" transform="translate(831.07, 54.74) rotate(0.00, 104.61, 51.63)"><path d="M 121.68,102.19 Q 121.68,102.19 115.48,102.17 109.28,102.15 101.50,102.12 93.72,102.09 85.53,102.06 77.35,102.04 69.06,102.01 60.77,101.98 52.46,101.95 44.14,101.92 35.82,101.89 27.50,101.86 19.18,101.83 10.86,101.80 7.24,100.30 3.63,98.81 2.70,93.51 1.78,88.22 1.53,81.95 1.29,75.69 1.22,69.18 1.15,62.67 1.13,56.09 1.10,49.52 1.09,42.93 1.08,36.34 1.07,29.74 1.06,23.15 1.05,16.56 1.04,9.96 2.53,6.79 4.01,3.62 10.58,2.77 17.14,1.93 25.00,1.68 32.86,1.43 41.05,1.33 49.24,1.23 57.52,1.18 65.79,1.12 74.09,1.07 82.38,1.02 90.68,0.97 98.98,0.92 107.29,0.88 115.59,0.83 123.89,0.78 132.19,0.74 140.50,0.69 148.80,0.64 157.10,0.60 165.40,0.55 173.71,0.50 182.01,0.46 190.31,0.41 198.62,0.37 202.22,1.84 205.83,3.32 206.78,8.71 207.74,14.10 208.01,20.48 208.29,26.86 208.39,33.50 208.49,40.14 208.55,46.84 208.61,53.54 208.66,60.26 208.71,66.98 208.75,73.71 208.80,80.43 208.84,87.15 208.89,93.88 207.41,97.08 205.93,100.29 199.35,101.08 192.77,101.88 184.89,102.06 177.02,102.24 168.81,102.27 160.60,102.29 152.30,102.28 144.01,102.26 135.69,102.23 127.38,102.21 119.06,102.18 110.73,102.15 102.41,102.12 94.09,102.09 82.92,102.05" fill="#345246" pointer-events="none"/><path d="M 121.68,103.30 Q 121.68,103.30 115.48,103.22 109.28,103.15 101.50,103.17 93.71,103.20 85.53,103.23 77.34,103.25 69.06,103.28 60.77,103.30 52.45,103.33 44.14,103.35 35.82,103.38 27.50,103.40 19.15,103.42 10.80,103.44 6.67,101.60 2.54,99.76 1.44,94.11 0.33,88.47 0.17,82.10 0.01,75.74 0.04,69.21 0.06,62.68 0.04,56.10 0.01,49.52 -0.09,42.93 -0.19,36.34 -0.29,29.75 -0.40,23.15 -0.49,16.52 -0.59,9.90 1.26,6.19 3.12,2.48 10.03,1.44 16.95,0.40 24.88,0.20 32.82,0.00 41.02,-0.04 49.23,-0.08 57.50,-0.09 65.78,-0.09 74.08,-0.09 82.37,-0.08 90.68,-0.08 98.98,-0.07 107.28,-0.17 115.58,-0.27 123.88,-0.37 132.19,-0.47 140.49,-0.57 148.79,-0.67 157.09,-0.77 165.40,-0.87 173.70,-0.97 182.00,-1.07 190.33,-1.17 198.65,-1.27 202.79,0.55 206.92,2.37 208.05,8.11 209.18,13.84 209.37,20.33 209.56,26.81 209.57,33.47 209.59,40.12 209.64,46.83 209.70,53.54 209.84,60.25 209.99,66.97 210.12,73.70 210.26,80.42 210.39,87.18 210.52,93.94 208.67,97.68 206.81,101.43 199.88,102.42 192.96,103.41 185.00,103.54 177.05,103.68 168.83,103.65 160.60,103.62 152.30,103.55 144.01,103.48 135.69,103.40 127.37,103.32 119.05,103.23 110.73,103.15 102.41,103.18 94.09,103.20 82.91,103.22 71.74,103.23 71.55,103.20 71.35,103.17 71.18,103.07 71.01,102.98 70.87,102.84 70.74,102.70 70.65,102.52 70.57,102.34 70.55,102.14 70.53,101.95 70.57,101.75 70.62,101.56 70.72,101.39 70.82,101.22 70.97,101.10 71.12,100.97 71.30,100.90 71.49,100.83 71.68,100.82 71.88,100.81 72.07,100.86 72.26,100.91 72.42,101.02 72.58,101.14 72.70,101.29 72.82,101.45 72.88,101.64 72.95,101.82 72.95,102.02 72.95,102.22 72.88,102.40 72.82,102.59 72.70,102.75 72.58,102.90 72.42,103.01 72.25,103.12 72.06,103.17 71.87,103.23 71.68,103.21 71.48,103.20 71.30,103.13 71.11,103.06 70.96,102.93 70.81,102.80 70.71,102.63 70.61,102.46 70.57,102.27 70.53,102.08 70.55,101.88 70.57,101.69 70.66,101.51 70.74,101.33 70.88,101.19 71.01,101.04 71.19,100.95 71.36,100.86 71.56,100.83 71.75,100.80 71.75,100.80 71.75,100.80 82.92,100.89 94.09,100.99 102.42,101.07 110.74,101.15 119.06,101.13 127.38,101.10 135.70,101.07 144.01,101.04 152.30,101.00 160.59,100.97 168.79,100.89 176.98,100.81 184.79,100.58 192.59,100.35 198.82,99.75 205.05,99.15 206.15,96.49 207.25,93.82 207.29,87.13 207.33,80.44 207.38,73.72 207.43,66.99 207.47,60.27 207.52,53.55 207.46,46.86 207.40,40.16 207.20,33.54 207.01,26.92 206.65,20.63 206.29,14.35 205.52,9.31 204.74,4.27 201.66,3.14 198.58,2.01 190.30,2.00 182.02,2.00 173.72,1.99 165.41,1.98 157.11,1.98 148.81,1.97 140.50,1.96 132.20,1.95 123.90,1.94 115.59,1.94 107.29,1.93 98.99,1.92 90.69,2.02 82.39,2.12 74.09,2.23 65.80,2.33 57.53,2.45 49.26,2.56 41.08,2.71 32.91,2.86 25.12,3.16 17.34,3.46 11.13,4.11 4.91,4.75 3.79,7.39 2.67,10.02 2.60,16.59 2.52,23.15 2.44,29.74 2.36,36.34 2.28,42.93 2.20,49.51 2.22,56.08 2.24,62.65 2.41,69.15 2.57,75.64 2.89,81.80 3.22,87.97 3.97,92.91 4.72,97.86 7.82,99.01 10.91,100.16 19.21,100.24 27.51,100.32 35.83,100.40 44.15,100.49 52.46,100.57 60.78,100.65 69.06,100.74 77.35,100.82 85.54,100.90 93.72,100.98 101.50,101.07 109.29,101.15 115.49,101.12 121.69,101.08 121.82,101.10 121.95,101.12 122.08,101.16 122.20,101.21 122.31,101.29 122.42,101.36 122.51,101.46 122.60,101.56 122.66,101.68 122.72,101.80 122.75,101.93 122.78,102.06 122.78,102.19 122.78,102.33 122.75,102.46 122.72,102.59 122.66,102.71 122.59,102.82 122.51,102.92 122.42,103.02 122.31,103.10 122.20,103.17 122.07,103.22 121.95,103.27 121.81,103.28 Z" fill="#36a64c" stroke="#36a64c" stroke-width="2" pointer-events="none"/></g><g id="416764a8-b0bd-498d-2f12-17867017f9d2_svg" class="tl-centered-g" transform="translate(975.66, 334.57) rotate(0.00, 104.61, 51.63)"><path d="M 120.77,102.49 Q 120.77,102.49 114.60,102.47 108.43,102.46 100.69,102.44 92.95,102.42 84.81,102.40 76.67,102.38 68.43,102.36 60.19,102.34 51.92,102.32 43.65,102.30 35.37,102.28 27.10,102.26 18.82,102.24 10.54,102.22 6.94,100.72 3.34,99.23 2.42,93.88 1.50,88.52 1.27,82.19 1.03,75.85 0.97,69.26 0.91,62.68 0.89,56.03 0.88,49.37 0.87,42.71 0.87,36.04 0.86,29.37 0.86,22.70 0.86,16.02 0.86,9.35 2.35,6.16 3.84,2.97 10.41,2.16 16.99,1.36 24.86,1.16 32.73,0.97 40.93,0.93 49.13,0.89 57.42,0.89 65.70,0.89 74.01,0.90 82.32,0.91 90.63,0.92 98.94,0.93 107.26,0.94 115.57,0.96 123.89,0.97 132.20,0.98 140.52,1.00 148.83,1.01 157.15,1.02 165.46,1.03 173.78,1.05 182.09,1.06 190.41,1.07 198.72,1.09 202.33,2.58 205.94,4.07 206.82,9.43 207.69,14.80 207.87,21.14 208.04,27.49 208.04,34.09 208.04,40.69 207.99,47.35 207.95,54.01 207.89,60.69 207.83,67.37 207.77,74.06 207.71,80.74 207.65,87.43 207.59,94.11 206.08,97.30 204.58,100.50 198.02,101.30 191.47,102.10 183.64,102.29 175.80,102.48 167.63,102.51 159.47,102.54 151.22,102.54 142.97,102.53 134.70,102.51 126.43,102.50 118.15,102.48 109.88,102.46 101.60,102.44 93.32,102.42 82.21,102.39" fill="#345246" pointer-events="none"/><path d="M 120.76,103.59 Q 120.76,103.59 114.60,103.53 108.43,103.46 100.69,103.49 92.95,103.53 84.81,103.56 76.67,103.60 68.43,103.63 60.18,103.66 51.92,103.70 43.65,103.73 35.37,103.77 27.09,103.80 18.79,103.83 10.49,103.86 6.37,102.02 2.25,100.17 1.15,94.47 0.06,88.77 -0.08,82.33 -0.23,75.90 -0.20,69.29 -0.17,62.69 -0.19,56.03 -0.21,49.38 -0.30,42.71 -0.40,36.04 -0.50,29.37 -0.59,22.70 -0.68,15.99 -0.77,9.29 1.09,5.56 2.95,1.83 9.88,0.83 16.80,-0.16 24.75,-0.31 32.69,-0.45 40.91,-0.44 49.13,-0.43 57.41,-0.37 65.70,-0.32 74.01,-0.26 82.32,-0.19 90.63,-0.13 98.95,-0.06 107.26,-0.10 115.57,-0.14 123.89,-0.18 132.20,-0.22 140.52,-0.27 148.83,-0.31 157.15,-0.35 165.46,-0.39 173.78,-0.43 182.09,-0.47 190.43,-0.51 198.77,-0.54 202.91,1.30 207.04,3.15 208.09,8.85 209.14,14.56 209.23,21.01 209.32,27.46 209.23,34.07 209.13,40.69 209.09,47.36 209.04,54.02 209.08,60.70 209.11,67.38 209.14,74.07 209.17,80.75 209.20,87.47 209.22,94.19 207.34,97.91 205.46,101.64 198.56,102.63 191.66,103.63 183.75,103.77 175.83,103.91 167.65,103.89 159.47,103.87 151.22,103.81 142.97,103.75 134.70,103.68 126.43,103.61 118.15,103.53 109.87,103.46 101.60,103.49 93.32,103.53 82.21,103.56 71.10,103.58 70.90,103.55 70.71,103.52 70.54,103.43 70.36,103.33 70.23,103.19 70.09,103.05 70.01,102.87 69.93,102.69 69.91,102.49 69.89,102.30 69.93,102.11 69.97,101.91 70.07,101.74 70.18,101.58 70.33,101.45 70.48,101.32 70.66,101.25 70.84,101.18 71.04,101.17 71.23,101.16 71.42,101.21 71.61,101.26 71.78,101.37 71.94,101.49 72.06,101.64 72.18,101.80 72.24,101.99 72.30,102.17 72.30,102.37 72.30,102.57 72.24,102.75 72.17,102.94 72.05,103.10 71.93,103.25 71.77,103.36 71.61,103.47 71.42,103.52 71.23,103.58 71.03,103.56 70.84,103.55 70.65,103.48 70.47,103.41 70.32,103.28 70.17,103.15 70.07,102.98 69.97,102.81 69.93,102.62 69.89,102.43 69.91,102.23 69.93,102.04 70.01,101.86 70.10,101.68 70.23,101.54 70.37,101.40 70.54,101.30 70.71,101.21 70.91,101.18 71.10,101.15 71.10,101.15 71.10,101.15 82.21,101.23 93.32,101.31 101.60,101.39 109.88,101.46 118.16,101.42 126.43,101.39 134.70,101.35 142.97,101.31 151.22,101.27 159.46,101.22 167.61,101.13 175.76,101.04 183.53,100.81 191.29,100.57 197.49,99.96 203.69,99.36 204.82,96.70 205.95,94.03 206.10,87.38 206.25,80.73 206.40,74.05 206.55,67.36 206.70,60.68 206.86,54.01 206.90,47.35 206.95,40.69 206.86,34.11 206.77,27.53 206.50,21.28 206.24,15.03 205.54,10.02 204.84,5.00 201.75,3.86 198.67,2.73 190.38,2.67 182.09,2.60 173.77,2.54 165.46,2.47 157.14,2.40 148.83,2.33 140.51,2.27 132.20,2.20 123.89,2.13 115.57,2.07 107.26,2.00 98.94,1.93 90.63,1.97 82.32,2.02 74.01,2.06 65.70,2.10 57.42,2.16 49.14,2.21 40.95,2.31 32.76,2.40 24.97,2.65 17.17,2.89 10.95,3.50 4.72,4.11 3.61,6.76 2.49,9.42 2.41,16.06 2.33,22.70 2.24,29.37 2.15,36.04 2.06,42.71 1.97,49.37 1.99,56.02 2.00,62.67 2.16,69.24 2.31,75.80 2.63,82.04 2.95,88.28 3.69,93.28 4.44,98.29 7.52,99.43 10.60,100.58 18.85,100.65 27.10,100.72 35.38,100.79 43.65,100.87 51.92,100.94 60.19,101.01 68.43,101.09 76.68,101.16 84.82,101.24 92.96,101.31 100.70,101.38 108.44,101.46 114.60,101.42 120.77,101.38 120.90,101.39 121.03,101.41 121.16,101.46 121.28,101.51 121.39,101.58 121.50,101.66 121.59,101.76 121.68,101.86 121.74,101.98 121.80,102.10 121.84,102.23 121.87,102.36 121.87,102.49 121.87,102.62 121.83,102.75 121.80,102.88 121.74,103.00 121.68,103.12 121.59,103.22 121.50,103.32 121.39,103.39 121.28,103.47 121.15,103.52 121.03,103.56 120.90,103.58 Z" fill="#36a64c" stroke="#36a64c" stroke-width="2" pointer-events="none"/></g><g text-align="left" text-anchor="start" fill="#cecece" transform="translate(848.28, 81.59) rotate(0.00, 86.50, 23.50)"><text y="24" letter-spacing="-1.44" font-size="48px" font-family="Caveat Brush" text-align="left" alignment-baseline="central" transform="scale(0.7747093953293803)">MainLayout()</text></g><g id="c787a93a-3d6d-452a-2bbb-d64a62bcf053_svg" class="tl-centered-g" transform="translate(1057.65, 472.46) rotate(0.00, 62.09, 34.80)"><path d="M 122.67,47.44 Q 122.67,47.44 122.68,50.63 122.69,53.82 122.69,57.81 122.70,61.81 121.22,64.32 119.73,66.83 113.31,67.49 106.89,68.14 99.22,68.33 91.54,68.51 83.55,68.58 75.56,68.64 67.48,68.67 59.40,68.71 51.30,68.73 43.21,68.76 35.10,68.78 27.00,68.80 18.90,68.82 10.79,68.85 7.24,67.36 3.68,65.88 2.76,62.28 1.84,58.69 1.58,54.55 1.33,50.42 1.25,46.15 1.17,41.88 1.14,37.57 1.10,33.26 1.08,28.95 1.05,24.63 1.03,20.32 1.01,16.00 0.99,11.68 0.97,7.36 2.45,4.77 3.94,2.18 10.36,1.53 16.79,0.89 24.47,0.74 32.16,0.59 40.16,0.56 48.17,0.54 56.26,0.55 64.35,0.55 72.45,0.57 80.56,0.59 88.68,0.61 96.79,0.62 104.91,0.64 113.02,0.66 116.58,2.16 120.14,3.65 121.06,7.22 121.97,10.79 122.21,14.88 122.45,18.98 122.52,23.21 122.59,27.44 122.61,31.70 122.64,35.97 122.65,40.24 122.66,44.52 122.68,50.26" fill="#345246" pointer-events="none"/><path d="M 123.95,47.44 Q 123.95,47.44 124.05,50.63 124.15,53.81 124.24,57.87 124.32,61.93 122.48,64.96 120.64,68.00 113.84,68.80 107.04,69.60 99.31,69.70 91.58,69.79 83.57,69.76 75.56,69.73 67.49,69.77 59.41,69.80 51.31,69.92 43.21,70.03 35.11,70.15 27.01,70.27 18.88,70.38 10.75,70.49 6.71,68.72 2.66,66.96 1.54,63.00 0.42,59.05 0.24,54.77 0.06,50.50 0.07,46.20 0.08,41.90 0.05,37.58 0.01,33.27 -0.10,28.96 -0.22,24.64 -0.33,20.32 -0.45,16.01 -0.54,11.63 -0.64,7.26 1.19,4.14 3.03,1.02 9.84,0.22 16.64,-0.56 24.39,-0.62 32.13,-0.68 40.15,-0.61 48.17,-0.54 56.26,-0.54 64.35,-0.53 72.46,-0.60 80.57,-0.68 88.68,-0.76 96.80,-0.83 104.94,-0.90 113.08,-0.97 117.12,0.80 121.16,2.57 122.28,6.50 123.39,10.43 123.56,14.67 123.73,18.90 123.71,23.16 123.68,27.42 123.71,31.69 123.73,35.96 123.84,40.24 123.94,44.51 124.05,50.25 124.16,55.99 124.12,56.23 124.08,56.46 123.97,56.67 123.86,56.88 123.69,57.04 123.52,57.21 123.30,57.31 123.09,57.41 122.85,57.43 122.61,57.46 122.38,57.41 122.15,57.36 121.95,57.24 121.75,57.11 121.59,56.93 121.44,56.75 121.35,56.53 121.26,56.31 121.25,56.08 121.23,55.84 121.30,55.61 121.36,55.38 121.49,55.19 121.63,54.99 121.81,54.85 122.00,54.70 122.23,54.63 122.45,54.55 122.69,54.55 122.92,54.55 123.15,54.63 123.37,54.70 123.56,54.84 123.75,54.99 123.89,55.18 124.02,55.38 124.08,55.61 124.15,55.83 124.13,56.07 124.12,56.31 124.03,56.53 123.95,56.75 123.79,56.93 123.64,57.11 123.44,57.23 123.24,57.36 123.00,57.41 122.77,57.46 122.54,57.43 122.30,57.41 122.09,57.31 121.87,57.21 121.70,57.05 121.53,56.88 121.42,56.68 121.30,56.47 121.27,56.23 121.23,56.00 121.23,56.00 121.23,56.00 121.31,50.26 121.38,44.52 121.46,40.25 121.54,35.98 121.52,31.72 121.50,27.46 121.34,23.25 121.18,19.05 120.86,15.10 120.55,11.14 119.84,7.94 119.12,4.73 116.05,3.52 112.97,2.30 104.88,2.20 96.79,2.09 88.68,1.98 80.56,1.87 72.45,1.76 64.34,1.65 56.26,1.64 48.17,1.63 40.18,1.75 32.18,1.87 24.56,2.11 16.93,2.35 10.88,2.85 4.84,3.35 3.71,5.41 2.59,7.47 2.53,11.73 2.47,15.99 2.40,20.31 2.33,24.63 2.26,28.94 2.20,33.25 2.23,37.56 2.27,41.86 2.44,46.10 2.61,50.34 2.93,54.33 3.26,58.33 3.98,61.56 4.70,64.80 7.77,66.00 10.84,67.21 18.92,67.27 27.00,67.34 35.10,67.41 43.20,67.48 51.30,67.54 59.40,67.61 67.47,67.58 75.55,67.55 83.53,67.39 91.51,67.23 99.13,66.96 106.74,66.69 112.78,66.18 118.82,65.67 119.95,63.68 121.09,61.70 121.15,57.76 121.22,53.82 121.31,50.63 121.39,47.45 121.41,47.29 121.43,47.14 121.48,47.00 121.54,46.85 121.63,46.72 121.71,46.60 121.83,46.49 121.94,46.39 122.08,46.32 122.22,46.25 122.37,46.21 122.52,46.17 122.67,46.17 122.82,46.17 122.97,46.21 123.12,46.25 123.26,46.32 123.40,46.39 123.51,46.49 123.63,46.59 123.72,46.72 123.80,46.85 123.86,46.99 123.91,47.13 123.93,47.29 Z" fill="#36a64c" stroke="#36a64c" stroke-width="2" pointer-events="none"/></g><g id="0e0b46fa-bc2e-4167-2d4d-97ed70d9f7a0_svg" class="tl-centered-g" transform="translate(1183.53, 576.27) rotate(0.00, 26.34, 16.56)"><path d="M 35.09,0.49 Q 35.09,0.49 37.31,0.45 39.53,0.41 42.32,0.36 45.11,0.31 47.31,1.79 49.51,3.26 50.14,4.91 50.77,6.56 51.00,8.25 51.23,9.94 51.35,11.64 51.48,13.34 51.58,15.04 51.68,16.75 51.77,18.45 51.87,20.16 51.96,21.86 52.05,23.57 52.14,25.27 52.24,26.98 50.77,28.90 49.30,30.83 46.60,31.34 43.90,31.85 40.88,32.00 37.86,32.15 34.76,32.21 31.66,32.27 28.54,32.31 25.41,32.35 22.29,32.38 19.16,32.41 16.04,32.44 12.91,32.47 9.78,32.50 6.65,32.53 4.37,31.04 2.08,29.56 1.54,27.93 0.99,26.30 0.90,24.64 0.80,22.97 0.81,21.30 0.83,19.62 0.87,17.94 0.92,16.26 0.97,14.59 1.02,12.91 1.07,11.23 1.13,9.55 1.18,7.87 1.24,6.19 2.74,4.27 4.24,2.36 6.85,1.83 9.45,1.30 12.34,1.12 15.22,0.94 18.18,0.86 21.14,0.77 24.11,0.71 27.09,0.65 30.07,0.59 33.05,0.53 37.05,0.46" fill="#345246" pointer-events="none"/><path d="M 35.07,-0.77 Q 35.07,-0.77 37.29,-0.91 39.51,-1.04 42.38,-1.16 45.25,-1.28 47.90,0.37 50.54,2.04 51.34,4.04 52.14,6.04 52.32,7.90 52.49,9.77 52.53,11.51 52.57,13.26 52.67,14.97 52.77,16.68 52.96,18.38 53.15,20.09 53.33,21.79 53.51,23.49 53.66,25.32 53.80,27.15 52.08,29.57 50.36,31.98 47.26,32.64 44.17,33.29 41.04,33.36 37.92,33.43 34.80,33.40 31.68,33.37 28.55,33.40 25.43,33.44 22.30,33.56 19.18,33.69 16.05,33.81 12.92,33.93 9.72,34.03 6.52,34.13 3.78,32.44 1.04,30.76 0.32,28.76 -0.39,26.75 -0.43,24.90 -0.47,23.05 -0.36,21.33 -0.25,19.61 -0.21,17.92 -0.17,16.24 -0.21,14.55 -0.25,12.87 -0.29,11.18 -0.33,9.50 -0.33,7.73 -0.34,5.95 1.42,3.57 3.18,1.19 6.17,0.53 9.16,-0.13 12.16,-0.23 15.15,-0.32 18.13,-0.32 21.11,-0.31 24.09,-0.37 27.07,-0.44 30.05,-0.59 33.03,-0.74 37.03,-0.90 41.03,-1.07 41.26,-1.04 41.50,-1.00 41.71,-0.90 41.92,-0.79 42.08,-0.62 42.25,-0.45 42.35,-0.24 42.46,-0.02 42.49,0.20 42.52,0.44 42.47,0.67 42.42,0.90 42.31,1.11 42.19,1.31 42.01,1.47 41.83,1.62 41.61,1.72 41.39,1.81 41.16,1.82 40.92,1.84 40.69,1.78 40.46,1.72 40.26,1.59 40.07,1.47 39.92,1.28 39.77,1.09 39.69,0.87 39.61,0.65 39.61,0.41 39.60,0.17 39.68,-0.04 39.75,-0.27 39.89,-0.46 40.03,-0.65 40.22,-0.79 40.41,-0.92 40.64,-0.99 40.87,-1.06 41.11,-1.05 41.34,-1.04 41.56,-0.96 41.79,-0.87 41.97,-0.72 42.15,-0.57 42.28,-0.37 42.40,-0.17 42.46,0.05 42.51,0.28 42.49,0.51 42.47,0.75 42.38,0.97 42.28,1.18 42.12,1.36 41.96,1.53 41.75,1.65 41.55,1.76 41.31,1.81 41.08,1.85 41.08,1.85 41.08,1.85 37.08,1.83 33.07,1.81 30.09,1.77 27.11,1.74 24.14,1.80 21.17,1.86 18.24,2.04 15.30,2.22 12.52,2.47 9.74,2.73 7.53,3.12 5.31,3.52 4.06,4.97 2.82,6.43 2.70,8.01 2.59,9.60 2.45,11.27 2.30,12.95 2.15,14.62 2.01,16.29 1.97,17.96 1.92,19.63 2.00,21.26 2.07,22.90 2.23,24.37 2.39,25.85 2.75,27.11 3.12,28.37 4.96,29.64 6.79,30.92 9.84,30.96 12.90,31.00 16.02,31.07 19.15,31.13 22.28,31.19 25.40,31.26 28.52,31.22 31.63,31.18 34.71,31.03 37.79,30.88 40.71,30.64 43.62,30.41 45.94,30.04 48.25,29.67 49.46,28.24 50.67,26.80 50.63,25.22 50.59,23.64 50.59,21.94 50.59,20.23 50.59,18.52 50.59,16.81 50.49,15.12 50.39,13.42 50.17,11.76 49.96,10.11 49.68,8.59 49.40,7.07 48.94,5.78 48.48,4.49 46.72,3.20 44.97,1.91 42.26,1.89 39.56,1.88 37.34,1.82 35.11,1.77 34.96,1.76 34.81,1.74 34.66,1.69 34.52,1.64 34.39,1.55 34.26,1.47 34.16,1.35 34.05,1.24 33.98,1.10 33.90,0.97 33.86,0.82 33.82,0.67 33.82,0.52 33.82,0.36 33.85,0.21 33.89,0.06 33.96,-0.07 34.02,-0.20 34.12,-0.32 34.22,-0.44 34.35,-0.53 34.48,-0.62 34.62,-0.67 34.76,-0.73 34.91,-0.75 Z" fill="#36a64c" stroke="#36a64c" stroke-width="2" pointer-events="none"/></g><g id="c89d03ab-4326-49c8-2a55-38136cc6aee5_svg" class="tl-centered-g" transform="translate(765.14, 195.48) rotate(0.00, 104.61, 51.63)"><path d="M 1.31,31.22 Q 1.31,31.22 1.38,26.24 1.46,21.26 1.55,15.00 1.64,8.75 3.15,5.67 4.67,2.58 11.23,1.82 17.79,1.06 25.64,0.89 33.49,0.73 41.67,0.71 49.85,0.69 58.11,0.71 66.37,0.74 74.65,0.77 82.94,0.80 91.23,0.83 99.51,0.87 107.80,0.90 116.09,0.93 124.38,0.97 132.67,1.00 140.96,1.04 149.25,1.07 157.54,1.11 165.83,1.14 174.12,1.18 182.41,1.21 190.71,1.25 199.00,1.28 202.60,2.78 206.20,4.28 207.11,9.58 208.02,14.88 208.24,21.15 208.46,27.42 208.50,33.94 208.54,40.46 208.54,47.04 208.54,53.62 208.53,60.22 208.52,66.82 208.50,73.42 208.48,80.02 208.47,86.62 208.45,93.23 206.96,96.40 205.46,99.57 198.87,100.39 192.28,101.21 184.38,101.43 176.49,101.65 168.27,101.72 160.04,101.79 151.73,101.81 143.42,101.84 135.09,101.86 126.76,101.87 118.42,101.89 110.09,101.90 101.75,101.92 93.41,101.93 85.07,101.95 76.73,101.96 68.39,101.97 60.06,101.99 51.72,102.00 43.38,102.02 35.04,102.03 26.70,102.04 18.36,102.06 10.02,102.07 6.41,100.59 2.79,99.10 1.94,93.74 1.10,88.38 0.95,82.03 0.81,75.68 0.85,69.08 0.89,62.48 0.97,55.82 1.05,49.15 1.15,42.47 1.24,35.79 1.37,26.82" fill="#345246" pointer-events="none"/><path d="M 0.03,31.20 Q 0.03,31.20 0.01,26.22 -0.00,21.23 0.00,14.95 0.01,8.66 1.89,5.05 3.78,1.44 10.70,0.49 17.62,-0.46 25.54,-0.58 33.46,-0.70 41.65,-0.66 49.84,-0.62 58.11,-0.55 66.37,-0.47 74.66,-0.39 82.94,-0.30 91.23,-0.21 99.52,-0.12 107.81,-0.14 116.10,-0.16 124.39,-0.18 132.68,-0.20 140.97,-0.22 149.26,-0.24 157.55,-0.26 165.84,-0.28 174.13,-0.30 182.42,-0.32 190.74,-0.34 199.05,-0.35 203.17,1.49 207.30,3.33 208.38,8.98 209.46,14.64 209.60,21.01 209.73,27.38 209.68,33.92 209.64,40.45 209.63,47.04 209.63,53.62 209.71,60.22 209.79,66.82 209.87,73.42 209.95,80.03 210.02,86.66 210.09,93.30 208.22,97.00 206.36,100.71 199.41,101.73 192.47,102.74 184.50,102.91 176.53,103.09 168.29,103.10 160.05,103.11 151.74,103.08 143.43,103.06 135.09,103.02 126.76,102.98 118.42,102.94 110.09,102.90 101.75,102.97 93.41,103.04 85.07,103.11 76.73,103.18 68.40,103.25 60.06,103.31 51.72,103.38 43.38,103.45 35.04,103.52 26.70,103.59 18.34,103.65 9.98,103.71 5.83,101.86 1.68,100.02 0.67,94.31 -0.34,88.61 -0.40,82.16 -0.46,75.71 -0.33,69.09 -0.20,62.48 -0.11,55.81 -0.03,49.14 -0.03,42.46 -0.03,35.77 0.00,26.80 0.04,17.82 0.08,17.59 0.13,17.36 0.24,17.15 0.35,16.94 0.53,16.78 0.70,16.62 0.92,16.53 1.14,16.43 1.37,16.41 1.61,16.38 1.84,16.44 2.07,16.49 2.27,16.62 2.47,16.74 2.62,16.93 2.77,17.11 2.86,17.33 2.94,17.55 2.95,17.79 2.96,18.03 2.89,18.25 2.83,18.48 2.69,18.67 2.55,18.87 2.36,19.01 2.17,19.15 1.95,19.22 1.72,19.29 1.48,19.29 1.25,19.29 1.02,19.21 0.80,19.13 0.61,18.98 0.43,18.84 0.30,18.64 0.17,18.44 0.11,18.21 0.05,17.98 0.06,17.75 0.08,17.51 0.17,17.29 0.26,17.07 0.42,16.89 0.57,16.72 0.78,16.60 0.98,16.48 1.22,16.43 1.45,16.38 1.68,16.41 1.92,16.44 2.13,16.54 2.35,16.65 2.52,16.81 2.68,16.98 2.79,17.19 2.90,17.40 2.94,17.63 2.97,17.87 2.97,17.87 2.97,17.87 2.75,26.84 2.52,35.81 2.33,42.49 2.15,49.17 2.06,55.83 1.98,62.49 2.03,69.07 2.09,75.65 2.32,81.90 2.54,88.15 3.22,93.17 3.90,98.18 6.98,99.31 10.07,100.43 18.38,100.47 26.70,100.50 35.04,100.54 43.38,100.58 51.71,100.62 60.05,100.66 68.39,100.70 76.73,100.74 85.07,100.78 93.41,100.82 101.75,100.86 110.08,100.90 118.42,100.84 126.76,100.77 135.09,100.69 143.42,100.62 151.72,100.54 160.03,100.46 168.24,100.34 176.45,100.22 184.27,99.95 192.09,99.68 198.33,99.06 204.57,98.44 205.69,95.80 206.82,93.16 206.92,86.59 207.02,80.02 207.13,73.42 207.24,66.82 207.34,60.22 207.45,53.62 207.45,47.05 207.45,40.47 207.31,33.97 207.18,27.47 206.88,21.30 206.57,15.13 205.84,10.17 205.11,5.22 202.02,4.07 198.94,2.92 190.67,2.84 182.41,2.75 174.12,2.66 165.83,2.57 157.54,2.49 149.25,2.40 140.96,2.31 132.67,2.22 124.38,2.13 116.09,2.04 107.80,1.95 99.51,1.87 91.22,1.89 82.93,1.91 74.65,1.93 66.37,1.95 58.11,1.98 49.85,2.02 41.69,2.09 33.52,2.16 25.75,2.38 17.97,2.59 11.76,3.16 5.56,3.73 4.42,6.29 3.27,8.84 3.10,15.06 2.92,21.28 2.75,26.26 2.59,31.24 2.57,31.39 2.54,31.54 2.49,31.69 2.43,31.83 2.34,31.95 2.25,32.08 2.14,32.18 2.02,32.28 1.88,32.35 1.74,32.42 1.59,32.45 1.44,32.49 1.29,32.49 1.13,32.48 0.99,32.45 0.84,32.41 0.70,32.33 0.57,32.26 0.45,32.16 0.34,32.05 0.25,31.92 0.17,31.80 0.11,31.65 0.06,31.51 0.05,31.35 Z" fill="#36a64c" stroke="#36a64c" stroke-width="2" pointer-events="none"/></g><g id="4cc33a56-279b-46d5-1952-039a850b84ab_svg" class="tl-centered-g" transform="translate(893.68, 160.83) rotate(0.00, 8.61, 18.05)"><defs><mask id="4cc33a56-279b-46d5-1952-039a850b84ab_clip"><rect x="-100" y="-100" width="217.22" height="236.1" fill="white"/><rect x="8.61" y="18.05" width="0" height="0" rx="2" ry="2" fill="black" opacity="1"/></mask></defs><g pointer-events="none" opacity="1" mask=""><path d="M 18.01,0.37 Q 18.01,0.37 15.92,4.64 13.84,8.91 11.77,13.19 9.70,17.46 7.63,21.74 5.57,26.01 3.51,30.29 1.45,34.57 1.39,34.66 1.33,34.75 1.24,34.81 1.16,34.88 1.06,34.91 0.95,34.94 0.85,34.94 0.74,34.94 0.64,34.90 0.54,34.87 0.46,34.80 0.37,34.74 0.31,34.65 0.26,34.56 0.23,34.46 0.20,34.35 0.21,34.25 0.21,34.14 0.26,34.04 0.30,33.94 0.37,33.86 0.44,33.78 0.53,33.73 0.62,33.68 0.72,33.65 0.83,33.63 0.93,33.64 1.04,33.66 1.14,33.70 1.23,33.75 1.31,33.82 1.39,33.90 1.43,33.99 1.48,34.09 1.50,34.19 1.51,34.30 1.50,34.40 1.48,34.51 1.43,34.60 1.38,34.69 1.30,34.77 1.22,34.84 1.12,34.88 1.02,34.93 0.92,34.94 0.81,34.95 0.71,34.92 0.60,34.90 0.51,34.84 0.42,34.79 0.36,34.70 0.29,34.62 0.25,34.52 0.21,34.42 0.21,34.32 0.20,34.21 0.23,34.11 0.26,34.01 0.26,34.01 0.26,34.01 2.29,29.71 4.32,25.42 6.35,21.12 8.37,16.83 10.39,12.53 12.41,8.23 14.42,3.92 16.42,-0.37 16.48,-0.46 16.54,-0.55 16.61,-0.62 16.69,-0.70 16.78,-0.75 16.87,-0.80 16.97,-0.83 17.08,-0.86 17.18,-0.86 17.29,-0.87 17.39,-0.85 17.49,-0.83 17.59,-0.78 17.68,-0.73 17.77,-0.67 17.85,-0.60 17.91,-0.52 17.97,-0.43 18.02,-0.33 18.06,-0.24 18.07,-0.13 18.09,-0.03 18.08,0.07 18.07,0.17 18.04,0.27 Z" fill="#36a64c" stroke="#36a64c" stroke-width="2.11" stroke-dasharray="none" stroke-dashoffset="none" stroke-linecap="round" stroke-linejoin="round" pointer-events="stroke"/><g><path d="M 10.98,28.54882764112725 L 0,36.1 -1.0456808489439888,22.80882764112725" fill="none" stroke="#36a64c" stroke-width="4.23" stroke-linecap="round" stroke-linejoin="round" pointer-events="none"/></g></g></g><g id="f3261aee-00fc-4243-2d32-33f73440c0d6_svg" class="tl-centered-g" transform="translate(968.61, 299.11) rotate(0.00, 15.77, 12.30)"><defs><mask id="f3261aee-00fc-4243-2d32-33f73440c0d6_clip"><rect x="-100" y="-100" width="231.54" height="224.6" fill="white"/><rect x="15.77" y="12.3" width="0" height="0" rx="2" ry="2" fill="black" opacity="1"/></mask></defs><g pointer-events="none" opacity="1" mask=""><path d="M 0.62,-0.79 Q 0.62,-0.79 4.34,2.14 8.07,5.09 11.80,8.03 15.53,10.97 19.27,13.90 23.00,16.84 26.74,19.77 30.48,22.70 30.57,22.80 30.66,22.90 30.72,23.02 30.77,23.15 30.79,23.29 30.80,23.42 30.77,23.55 30.74,23.69 30.67,23.80 30.59,23.92 30.49,24.01 30.38,24.09 30.26,24.14 30.13,24.19 29.99,24.20 29.86,24.20 29.73,24.17 29.59,24.13 29.48,24.05 29.37,23.97 29.29,23.86 29.21,23.75 29.16,23.62 29.12,23.49 29.12,23.35 29.13,23.22 29.17,23.09 29.22,22.96 29.30,22.85 29.38,22.74 29.50,22.67 29.61,22.59 29.75,22.56 29.88,22.52 30.01,22.53 30.15,22.54 30.28,22.59 30.40,22.65 30.51,22.74 30.61,22.83 30.68,22.94 30.75,23.06 30.77,23.20 30.80,23.33 30.79,23.47 30.77,23.60 30.71,23.72 30.65,23.85 30.56,23.95 30.46,24.04 30.34,24.11 30.22,24.17 30.08,24.19 29.95,24.21 29.81,24.19 29.68,24.16 29.56,24.10 29.44,24.03 29.44,24.03 29.44,24.03 25.69,21.12 21.93,18.21 18.18,15.30 14.42,12.39 10.66,9.49 6.90,6.59 3.14,3.69 -0.62,0.79 -0.70,0.71 -0.79,0.62 -0.85,0.52 -0.91,0.41 -0.95,0.30 -0.99,0.18 -1.00,0.06 -1.00,-0.05 -0.98,-0.17 -0.96,-0.29 -0.91,-0.40 -0.86,-0.52 -0.79,-0.61 -0.71,-0.71 -0.61,-0.78 -0.52,-0.86 -0.41,-0.91 -0.30,-0.96 -0.18,-0.98 -0.06,-1.00 0.05,-1.00 0.17,-0.99 0.29,-0.95 0.41,-0.92 0.51,-0.85 Z" fill="#36a64c" stroke="#36a64c" stroke-width="2.11" stroke-dasharray="none" stroke-dashoffset="none" stroke-linecap="round" stroke-linejoin="round" pointer-events="stroke"/><g><path d="M 26.53,12.241925022300935 L 31.54,24.6 18.33,22.75525835563427" fill="none" stroke="#36a64c" stroke-width="4.23" stroke-linecap="round" stroke-linejoin="round" pointer-events="none"/></g></g></g><g id="682e9d37-ab34-4509-337e-244a045b27fa_svg" class="tl-centered-g" transform="translate(1027.31, 439.37) rotate(0.00, 16.12, 11.84)"><defs><mask id="682e9d37-ab34-4509-337e-244a045b27fa_clip"><rect x="-100" y="-100" width="232.24" height="223.68" fill="white"/><rect x="16.12" y="11.84" width="0" height="0" rx="2" ry="2" fill="black" opacity="1"/></mask></defs><g pointer-events="none" opacity="1" mask=""><path d="M 0.61,-0.83 Q 0.61,-0.83 4.42,2.00 8.23,4.83 12.04,7.66 15.86,10.49 19.68,13.32 23.50,16.14 27.32,18.96 31.14,21.79 31.24,21.89 31.34,21.99 31.40,22.12 31.46,22.24 31.48,22.38 31.50,22.52 31.47,22.66 31.44,22.80 31.37,22.92 31.30,23.05 31.19,23.14 31.09,23.23 30.96,23.29 30.83,23.34 30.68,23.35 30.54,23.36 30.41,23.33 30.27,23.29 30.15,23.21 30.03,23.14 29.94,23.02 29.86,22.91 29.81,22.78 29.76,22.65 29.76,22.51 29.76,22.36 29.80,22.23 29.84,22.09 29.93,21.98 30.01,21.87 30.13,21.78 30.24,21.70 30.38,21.66 30.51,21.62 30.66,21.63 30.80,21.63 30.93,21.68 31.06,21.73 31.17,21.82 31.28,21.91 31.36,22.03 31.43,22.15 31.46,22.29 31.50,22.43 31.48,22.57 31.47,22.71 31.41,22.84 31.35,22.97 31.26,23.07 31.16,23.18 31.04,23.25 30.92,23.32 30.78,23.34 30.64,23.37 30.50,23.34 30.36,23.32 30.23,23.26 30.11,23.20 30.11,23.20 30.11,23.20 26.27,20.39 22.43,17.59 18.60,14.79 14.76,11.99 10.92,9.20 7.08,6.40 3.23,3.61 -0.61,0.83 -0.70,0.74 -0.79,0.66 -0.85,0.55 -0.92,0.45 -0.96,0.33 -1.00,0.21 -1.01,0.09 -1.03,-0.03 -1.01,-0.15 -0.99,-0.27 -0.94,-0.39 -0.89,-0.50 -0.82,-0.60 -0.75,-0.70 -0.65,-0.78 -0.56,-0.86 -0.44,-0.92 -0.33,-0.97 -0.21,-1.00 -0.09,-1.02 0.03,-1.02 0.15,-1.01 0.27,-0.98 0.39,-0.95 0.50,-0.89 Z" fill="#36a64c" stroke="#36a64c" stroke-width="2.11" stroke-dasharray="none" stroke-dashoffset="none" stroke-linecap="round" stroke-linejoin="round" pointer-events="stroke"/><g><path d="M 26.87,11.4708394794615 L 32.24,23.68 18.98,22.217506146128162" fill="none" stroke="#36a64c" stroke-width="4.23" stroke-linecap="round" stroke-linejoin="round" pointer-events="none"/></g></g></g><g id="1d88320f-27f3-44f3-352d-aae3f8d2dab1_svg" class="tl-centered-g" transform="translate(1149.19, 545.25) rotate(0.00, 15.74, 12.34)"><defs><mask id="1d88320f-27f3-44f3-352d-aae3f8d2dab1_clip"><rect x="-100" y="-100" width="231.48" height="224.68" fill="white"/><rect x="15.74" y="12.34" width="0" height="0" rx="2" ry="2" fill="black" opacity="1"/></mask></defs><g pointer-events="none" opacity="1" mask=""><path d="M 0.61,-0.78 Q 0.61,-0.78 4.33,2.16 8.05,5.12 11.77,8.07 15.50,11.02 19.23,13.96 22.95,16.90 26.68,19.84 30.41,22.79 30.51,22.88 30.60,22.98 30.65,23.11 30.71,23.23 30.72,23.36 30.73,23.50 30.70,23.63 30.67,23.76 30.60,23.88 30.53,23.99 30.42,24.08 30.32,24.16 30.19,24.21 30.07,24.26 29.93,24.26 29.80,24.27 29.67,24.23 29.54,24.19 29.43,24.11 29.32,24.04 29.24,23.93 29.16,23.82 29.12,23.69 29.08,23.56 29.08,23.43 29.08,23.29 29.13,23.17 29.17,23.04 29.25,22.93 29.34,22.83 29.45,22.75 29.56,22.68 29.69,22.65 29.82,22.61 29.96,22.62 30.09,22.63 30.22,22.68 30.34,22.73 30.44,22.82 30.54,22.91 30.61,23.03 30.68,23.14 30.71,23.28 30.73,23.41 30.72,23.54 30.70,23.68 30.64,23.80 30.58,23.92 30.49,24.02 30.39,24.11 30.27,24.17 30.15,24.23 30.02,24.25 29.89,24.27 29.76,24.25 29.62,24.23 29.51,24.16 29.39,24.10 29.39,24.10 29.39,24.10 25.64,21.18 21.90,18.25 18.15,15.34 14.40,12.42 10.64,9.51 6.89,6.60 3.13,3.69 -0.61,0.78 -0.70,0.70 -0.78,0.61 -0.85,0.51 -0.91,0.41 -0.94,0.29 -0.98,0.18 -0.99,0.05 -0.99,-0.06 -0.97,-0.17 -0.95,-0.29 -0.90,-0.40 -0.85,-0.51 -0.78,-0.61 -0.70,-0.70 -0.61,-0.78 -0.51,-0.85 -0.40,-0.90 -0.29,-0.95 -0.17,-0.97 -0.06,-0.99 0.06,-0.99 0.18,-0.98 0.29,-0.94 0.41,-0.91 0.51,-0.85 Z" fill="#36a64c" stroke="#36a64c" stroke-width="2.11" stroke-dasharray="none" stroke-dashoffset="none" stroke-linecap="round" stroke-linejoin="round" pointer-events="stroke"/><g><path d="M 26.50,12.308831011533352 L 31.48,24.68 18.27,22.802164344866682" fill="none" stroke="#36a64c" stroke-width="4.23" stroke-linecap="round" stroke-linejoin="round" pointer-events="none"/></g></g></g><g text-align="left" text-anchor="start" fill="#cecece" transform="translate(861.67, 198.45) rotate(0.00, 52.00, 23.50)"><text y="24" letter-spacing="-1.44" font-size="48px" font-family="Caveat Brush" text-align="left" alignment-baseline="central" transform="scale(0.7656448076539768)">loader()</text></g><g text-align="left" text-anchor="start" fill="#cecece" transform="translate(1048.57, 334.07) rotate(0.00, 52.00, 23.50)"><text y="24" letter-spacing="-1.44" font-size="48px" font-family="Caveat Brush" text-align="left" alignment-baseline="central" transform="scale(0.7656448076539768)">loader()</text></g><g text-align="left" text-anchor="start" fill="#cecece" transform="translate(784.19, 247.64) rotate(0.00, 84.50, 19.00)"><text y="24" letter-spacing="-1.44" font-size="48px" font-family="Caveat Brush" text-align="left" alignment-baseline="central" transform="scale(0.5905638027048287)">ProductsLayout()</text></g><g text-align="left" text-anchor="start" fill="#cecece" transform="translate(999.42, 383.82) rotate(0.00, 79.50, 19.00)"><text y="24" letter-spacing="-1.44" font-size="48px" font-family="Caveat Brush" text-align="left" alignment-baseline="central" transform="scale(0.5905638027048287)">ProductProfile()</text></g><g id="ee3314f7-02bf-49dc-3f4b-3a6993003f57_svg" class="tl-centered-g" transform="translate(713.87, 354.07) rotate(0.00, 50.44, 38.71)"><defs><mask id="ee3314f7-02bf-49dc-3f4b-3a6993003f57_clip"><rect x="-100" y="-100" width="300.88" height="277.42" fill="white"/><rect x="66.65" y="59.60" width="0" height="0" rx="4" ry="4" fill="black" opacity="1"/></mask></defs><g pointer-events="none" opacity="1" mask=""><path d="M 103.23,-7.71 Q 103.23,-7.71 103.33,-5.20 103.42,-2.70 102.98,0.75 102.55,4.21 101.25,9.81 99.94,15.40 96.71,23.34 93.47,31.28 86.57,41.04 79.67,50.80 67.93,59.86 56.20,68.92 44.95,73.16 33.71,77.39 25.14,78.51 16.58,79.64 10.77,79.46 4.97,79.28 1.47,78.81 -2.02,78.34 -4.59,77.82 -7.16,77.30 -7.49,77.15 -7.83,77.00 -8.09,76.76 -8.36,76.51 -8.54,76.19 -8.71,75.87 -8.78,75.51 -8.84,75.16 -8.79,74.79 -8.74,74.43 -8.57,74.11 -8.41,73.79 -8.15,73.53 -7.89,73.28 -7.56,73.12 -7.23,72.96 -6.87,72.92 -6.51,72.87 -6.15,72.94 -5.80,73.01 -5.48,73.20 -5.17,73.38 -4.93,73.65 -4.69,73.93 -4.55,74.26 -4.41,74.60 -4.38,74.96 -4.35,75.33 -4.45,75.68 -4.54,76.03 -4.74,76.33 -4.94,76.64 -5.22,76.86 -5.51,77.09 -5.85,77.21 -6.19,77.33 -6.56,77.34 -6.92,77.34 -7.27,77.23 -7.62,77.12 -7.91,76.91 -8.20,76.69 -8.41,76.39 -8.62,76.10 -8.72,75.75 -8.83,75.40 -8.81,75.03 -8.80,74.67 -8.67,74.33 -8.54,73.99 -8.31,73.71 -8.08,73.43 -7.77,73.23 -7.46,73.04 -7.11,72.96 -6.75,72.87 -6.39,72.91 -6.03,72.94 -6.03,72.94 -6.03,72.94 -3.72,73.41 -1.41,73.89 1.85,74.34 5.12,74.79 10.57,74.98 16.01,75.17 24.09,74.17 32.16,73.16 42.84,69.24 53.51,65.33 64.78,56.74 76.04,48.15 82.68,38.85 89.32,29.55 92.44,21.96 95.57,14.37 96.82,9.00 98.08,3.64 98.51,0.33 98.93,-2.97 99.32,-5.45 99.72,-7.92 99.76,-8.13 99.80,-8.34 99.88,-8.53 99.97,-8.72 100.10,-8.89 100.23,-9.06 100.40,-9.19 100.56,-9.32 100.76,-9.41 100.95,-9.49 101.16,-9.53 101.37,-9.57 101.58,-9.56 101.79,-9.55 101.99,-9.48 102.20,-9.42 102.38,-9.31 102.56,-9.20 102.71,-9.05 102.86,-8.90 102.97,-8.72 103.08,-8.54 103.14,-8.33 103.21,-8.13 103.22,-7.92 Z" fill="#36a64c" stroke="#36a64c" stroke-width="0" stroke-dasharray="none" stroke-dashoffset="none" stroke-linecap="round" stroke-linejoin="round" pointer-events="none"/><g><path d="M 4.43,85.29773073015213 L -7.69,74.86 7.41,69.57694492624069" fill="none" stroke="#36a64c" stroke-width="4.23" stroke-linecap="round" stroke-linejoin="round" pointer-events="none"/></g></g></g><g id="0d053f98-347f-4ae1-1d31-7b9606ef2074_svg" class="tl-centered-g" transform="translate(727.99, 407.23) rotate(0.00, 42.48, 13.02)"><defs><mask id="0d053f98-347f-4ae1-1d31-7b9606ef2074_clip"><rect x="-100" y="-100" width="284.95" height="226.04" fill="white"/><rect x="45.09" y="21.44" width="0" height="0" rx="3.16" ry="3.16" fill="black" opacity="1"/></mask></defs><g pointer-events="none" opacity="1" mask=""><path d="M -4.77,22.84 Q -4.77,22.84 -1.86,22.98 1.04,23.12 4.43,23.39 7.82,23.67 12.31,23.71 16.80,23.76 22.08,23.33 27.36,22.90 33.08,21.85 38.79,20.80 44.52,19.09 50.25,17.38 55.60,15.13 60.94,12.88 65.59,10.35 70.23,7.81 73.94,5.33 77.66,2.85 80.33,0.77 83.00,-1.30 85.12,-3.15 87.24,-5.00 87.55,-5.20 87.85,-5.40 88.21,-5.49 88.56,-5.58 88.92,-5.55 89.28,-5.52 89.62,-5.38 89.96,-5.24 90.23,-5.00 90.50,-4.76 90.68,-4.44 90.86,-4.12 90.93,-3.77 91.00,-3.41 90.96,-3.05 90.91,-2.69 90.75,-2.36 90.59,-2.03 90.33,-1.77 90.08,-1.52 89.75,-1.35 89.43,-1.19 89.07,-1.14 88.71,-1.09 88.35,-1.15 87.99,-1.22 87.67,-1.40 87.36,-1.57 87.11,-1.84 86.87,-2.11 86.72,-2.45 86.57,-2.78 86.54,-3.14 86.51,-3.50 86.60,-3.86 86.68,-4.21 86.88,-4.52 87.07,-4.83 87.35,-5.06 87.64,-5.29 87.98,-5.41 88.32,-5.54 88.68,-5.55 89.05,-5.57 89.39,-5.46 89.74,-5.36 90.04,-5.15 90.34,-4.94 90.55,-4.64 90.76,-4.35 90.87,-4.00 90.98,-3.65 90.97,-3.29 90.97,-2.92 90.84,-2.58 90.72,-2.24 90.49,-1.95 90.27,-1.67 90.27,-1.67 90.27,-1.67 88.02,0.28 85.77,2.24 82.96,4.42 80.15,6.60 76.27,9.18 72.38,11.76 67.53,14.39 62.69,17.03 57.11,19.36 51.54,21.69 45.57,23.46 39.60,25.23 33.66,26.31 27.73,27.39 22.24,27.82 16.75,28.25 12.10,28.21 7.45,28.16 3.93,27.87 0.41,27.57 -2.41,26.90 -5.24,26.23 -5.44,26.18 -5.64,26.13 -5.83,26.03 -6.01,25.93 -6.16,25.79 -6.31,25.65 -6.43,25.48 -6.54,25.30 -6.61,25.11 -6.68,24.91 -6.70,24.71 -6.72,24.50 -6.69,24.30 -6.66,24.09 -6.59,23.90 -6.51,23.71 -6.39,23.54 -6.27,23.37 -6.11,23.24 -5.95,23.10 -5.77,23.01 -5.58,22.92 -5.38,22.87 -5.18,22.83 -4.97,22.83 Z" fill="#36a64c" stroke="#36a64c" stroke-width="0" stroke-dasharray="none" stroke-dashoffset="none" stroke-linecap="round" stroke-linejoin="round" pointer-events="none"/></g></g><g id="8c1b03f9-2c2d-4792-125d-044bdb0e0756_svg" class="tl-centered-g" transform="translate(747.37, 428.75) rotate(0.00, 39.13, 2.36)"><defs><mask id="8c1b03f9-2c2d-4792-125d-044bdb0e0756_clip"><rect x="-100" y="-100" width="278.26" height="204.72" fill="white"/><rect x="39.13" y="2.36" width="0" height="0" rx="2.45" ry="2.45" fill="black" opacity="1"/></mask></defs><g pointer-events="none" opacity="1" mask=""><path d="M -0.06,3.67 Q -0.06,3.67 9.72,3.11 19.50,2.55 29.28,1.98 39.07,1.41 48.85,0.83 58.63,0.26 68.42,-0.31 78.20,-0.89 78.35,-0.87 78.49,-0.86 78.62,-0.80 78.75,-0.74 78.86,-0.64 78.96,-0.54 79.03,-0.41 79.10,-0.29 79.13,-0.14 79.15,-0.00 79.13,0.13 79.10,0.28 79.04,0.40 78.97,0.53 78.87,0.63 78.76,0.73 78.63,0.79 78.50,0.86 78.36,0.87 78.21,0.89 78.07,0.86 77.93,0.83 77.80,0.75 77.68,0.68 77.59,0.57 77.49,0.46 77.44,0.33 77.38,0.19 77.37,0.05 77.36,-0.09 77.40,-0.23 77.44,-0.37 77.52,-0.49 77.60,-0.61 77.72,-0.69 77.83,-0.78 77.97,-0.83 78.11,-0.88 78.25,-0.88 78.39,-0.88 78.53,-0.83 78.67,-0.79 78.79,-0.70 78.90,-0.61 78.98,-0.49 79.07,-0.38 79.10,-0.24 79.14,-0.10 79.14,0.04 79.13,0.18 79.08,0.32 79.02,0.45 78.93,0.56 78.84,0.67 78.71,0.75 78.59,0.82 78.45,0.86 78.31,0.89 78.31,0.89 78.31,0.89 68.53,1.49 58.75,2.09 48.96,2.70 39.18,3.30 29.40,3.91 19.62,4.52 9.84,5.14 0.06,5.76 -0.06,5.75 -0.18,5.74 -0.30,5.71 -0.42,5.67 -0.53,5.60 -0.64,5.54 -0.73,5.45 -0.82,5.36 -0.88,5.25 -0.95,5.14 -0.99,5.02 -1.02,4.90 -1.03,4.78 -1.04,4.65 -1.02,4.53 -0.99,4.40 -0.94,4.29 -0.89,4.17 -0.81,4.07 -0.73,3.97 -0.64,3.90 -0.54,3.82 -0.42,3.77 -0.31,3.72 -0.18,3.69 Z" fill="#36a64c" stroke="#36a64c" stroke-width="2.11" stroke-dasharray="none" stroke-dashoffset="none" stroke-linecap="round" stroke-linejoin="round" pointer-events="stroke"/></g></g><g text-align="left" text-anchor="start" fill="#ebbb38" transform="translate(688.74, 448.26) rotate(2.97, 121.50, 35.50)"><text y="14" letter-spacing="-0.84" font-size="28px" font-family="Caveat Brush" text-align="left" alignment-baseline="central" transform="scale(2.194644038034906)">React Emits</text></g><g text-align="left" text-anchor="start" fill="#ebbb38" transform="translate(688.93, 506.02) rotate(2.97, 63.50, 35.50)"><text y="14" letter-spacing="-0.84" font-size="28px" font-family="Caveat Brush" text-align="left" alignment-baseline="central" transform="scale(2.194644038034906)">HTML</text></g></svg>