<svg xmlns="http://www.w3.org/2000/svg" viewBox="0 0 1504 688" width="1504" height="688" style="background-color: transparent;"><defs><style>@import url('https://fonts.googleapis.com/css2?family=Caveat+Brush&amp;family=Source+Code+Pro&amp;family=Source+Sans+Pro&amp;family=Crimson+Pro&amp;display=block');</style></defs><g id="c286159d-3cd8-4d6d-2ca8-8004c36d8abf_svg" class="tl-centered-g" transform="translate(16.00, 16.00) rotate(0.00, 736.00, 328.00)"><g pointer-events="none" stroke="transparent" stroke-width="4.23" stroke-linecap="round"><line x1="2.11" y1="2.11" x2="1469.88" y2="2.11" stroke-dasharray="0.03 6.46" stroke-dashoffset="0"/><line x1="1469.88" y1="2.11" x2="1469.88" y2="653.88" stroke-dasharray="0.03 6.48" stroke-dashoffset="0"/><line x1="1469.88" y1="653.88" x2="2.11" y2="653.88" stroke-dasharray="0.03 6.46" stroke-dashoffset="0"/><line x1="2.11" y1="653.88" x2="2.11" y2="2.11" stroke-dasharray="0.03 6.48" stroke-dashoffset="0"/></g></g><g id="f52a5e6c-4c6b-42ab-27ac-01a9ccb145db_svg" class="tl-centered-g" transform="translate(543.18, 122.95) rotate(0.00, 24.68, 235.26)"><g opacity="1"><path d="M22.260,0.210Q22.260,0.210 21.15,0.481 20.04,0.751 18.93,1.319 17.81,1.887 16.66,2.700 15.50,3.513 14.24,4.508 12.97,5.503 11.78,6.547 10.58,7.592 9.58,8.562 8.58,9.533 7.67,10.508 6.76,11.483 5.95,12.442 5.13,13.401 4.49,14.267 3.85,15.133 3.40,15.933 2.95,16.733 2.66,17.574 2.37,18.415 2.21,19.371 2.04,20.328 1.95,21.029 1.86,21.729 1.88,22.510 1.91,23.291 2.13,24.083 2.35,24.875 2.81,25.686 3.27,26.497 3.92,27.382 4.57,28.266 5.38,29.204 6.19,30.143 7.12,31.113 8.06,32.084 9.05,33.016 10.05,33.948 11.22,34.882 12.39,35.815 13.71,36.720 15.03,37.625 16.27,38.427 17.51,39.229 18.61,39.892 19.71,40.554 20.73,41.137 21.75,41.720 22.70,42.302 23.66,42.884 24.56,43.467 25.46,44.050 26.30,44.630 27.15,45.209 27.93,45.784 28.70,46.360 29.40,46.948 30.09,47.537 30.70,48.171 31.31,48.805 31.82,49.468 32.32,50.132 32.72,50.811 33.12,51.491 33.44,52.247 33.76,53.003 34.00,53.906 34.23,54.810 34.37,55.821 34.51,56.833 34.58,57.855 34.66,58.876 34.58,59.886 34.50,60.896 34.06,62.007 33.62,63.118 32.81,64.362 32.00,65.607 30.99,66.887 29.99,68.168 28.81,69.547 27.63,70.925 25.97,72.703 24.31,74.481 23.12,75.776 21.93,77.071 20.75,78.353 19.57,79.635 18.61,80.723 17.64,81.812 16.84,82.778 16.04,83.744 15.29,84.739 14.55,85.734 13.91,86.726 13.27,87.719 12.74,88.661 12.21,89.603 11.81,90.469 11.42,91.334 11.16,92.192 10.91,93.050 10.76,93.894 10.62,94.737 10.55,95.577 10.47,96.417 10.48,97.256 10.49,98.096 10.71,98.851 10.92,99.606 11.43,100.287 11.94,100.968 12.78,101.656 13.62,102.343 14.76,103.049 15.90,103.756 17.23,104.452 18.55,105.149 20.03,105.870 21.50,106.591 23.08,107.322 24.66,108.054 26.12,108.699 27.57,109.345 28.82,109.890 30.06,110.435 31.23,110.986 32.40,111.538 33.50,112.116 34.60,112.693 35.56,113.241 36.51,113.788 37.27,114.319 38.03,114.850 38.60,115.454 39.17,116.058 39.58,116.736 39.99,117.415 40.23,118.148 40.47,118.880 40.61,119.708 40.74,120.536 40.63,121.461 40.51,122.386 39.95,123.494 39.38,124.603 38.32,125.918 37.25,127.233 35.22,129.199 33.18,131.165 31.62,132.583 30.07,134.000 27.85,135.841 25.63,137.683 23.95,139.052 22.28,140.420 20.71,141.673 19.15,142.926 17.58,144.187 16.00,145.447 14.35,146.817 12.70,148.187 11.43,149.336 10.16,150.484 8.96,151.627 7.76,152.769 6.61,153.935 5.46,155.101 4.65,156.132 3.84,157.163 3.21,158.170 2.59,159.176 2.11,160.139 1.63,161.102 1.29,162.041 0.95,162.981 0.73,163.862 0.52,164.743 0.40,165.521 0.29,166.299 0.22,167.047 0.16,167.794 0.18,168.570 0.20,169.345 0.43,170.069 0.65,170.793 1.15,171.457 1.65,172.121 2.43,172.803 3.22,173.485 4.24,174.238 5.26,174.991 6.46,175.790 7.65,176.588 8.99,177.425 10.34,178.263 11.82,179.206 13.30,180.150 14.81,181.210 16.33,182.271 17.77,183.432 19.22,184.593 20.62,185.955 22.03,187.317 23.31,188.832 24.59,190.348 25.61,191.879 26.64,193.410 27.42,194.956 28.20,196.502 28.77,198.097 29.33,199.692 29.80,201.942 30.27,204.193 30.53,205.839 30.79,207.485 30.94,209.272 31.08,211.058 31.03,212.920 30.97,214.782 30.63,216.619 30.28,218.455 29.68,220.300 29.07,222.145 28.33,223.927 27.59,225.709 26.90,227.168 26.22,228.627 25.49,229.937 24.77,231.246 24.01,232.547 23.25,233.848 22.63,234.936 22.00,236.024 21.52,236.900 21.03,237.776 20.69,238.482 20.35,239.188 20.14,239.781 19.93,240.375 19.82,240.870 19.71,241.366 19.76,241.814 19.81,242.263 20.25,242.739 20.70,243.215 21.58,243.731 22.47,244.246 23.74,244.804 25.02,245.362 26.65,245.959 28.29,246.556 29.98,247.130 31.68,247.703 33.24,248.231 34.80,248.758 36.27,249.286 37.74,249.815 39.14,250.353 40.54,250.891 41.81,251.453 43.08,252.014 44.10,252.575 45.13,253.135 45.91,253.624 46.69,254.113 47.25,254.482 47.81,254.850 48.15,255.085 48.50,255.320 48.69,255.477 48.89,255.633 48.97,255.850 49.06,256.066 48.99,256.539 48.93,257.012 48.64,257.821 48.35,258.631 47.86,259.725 47.36,260.819 46.65,262.094 45.95,263.370 45.07,264.791 44.19,266.212 43.18,267.795 42.17,269.379 40.96,271.138 39.75,272.897 38.41,274.737 37.08,276.577 35.76,278.320 34.45,280.064 33.18,281.670 31.90,283.275 30.69,284.784 29.48,286.294 28.62,287.362 27.75,288.431 26.78,289.632 25.80,290.834 25.16,291.667 24.52,292.501 24.03,293.262 23.54,294.022 23.20,294.697 22.87,295.373 22.65,295.999 22.43,296.624 22.31,297.225 22.19,297.826 22.13,298.413 22.06,299.000 22.20,299.553 22.33,300.106 22.75,300.682 23.16,301.258 23.72,301.880 24.29,302.503 24.99,303.147 25.70,303.790 26.43,304.421 27.17,305.052 27.82,305.685 28.48,306.318 29.08,306.974 29.68,307.630 30.20,308.321 30.73,309.013 31.17,309.813 31.61,310.614 31.93,311.548 32.24,312.483 32.43,313.574 32.62,314.665 32.53,316.083 32.44,317.500 31.79,319.348 31.15,321.196 29.88,323.410 28.62,325.624 26.83,328.129 25.04,330.634 23.08,333.117 21.12,335.600 19.18,337.933 17.23,340.267 15.44,342.407 13.65,344.547 12.09,346.431 10.53,348.316 9.16,349.961 7.79,351.607 6.67,352.979 5.55,354.351 4.70,355.501 3.86,356.651 3.32,357.682 2.78,358.714 2.47,359.652 2.17,360.591 2.19,361.446 2.22,362.300 2.73,363.023 3.24,363.746 4.30,364.514 5.36,365.282 6.69,365.967 8.03,366.651 9.72,367.360 11.40,368.069 13.28,368.841 15.16,369.613 16.95,370.346 18.73,371.080 20.33,371.771 21.93,372.463 23.43,373.133 24.93,373.804 26.34,374.512 27.74,375.221 28.98,376.026 30.21,376.831 31.10,377.668 31.99,378.504 32.52,379.414 33.06,380.324 33.33,381.397 33.61,382.470 33.61,383.775 33.60,385.079 33.19,386.623 32.78,388.167 32.07,389.765 31.36,391.364 30.58,392.835 29.81,394.307 29.01,395.721 28.21,397.136 27.41,398.545 26.61,399.953 25.91,401.272 25.22,402.592 24.66,403.873 24.10,405.155 23.69,406.436 23.27,407.717 23.01,408.908 22.76,410.099 22.67,411.176 22.59,412.252 22.77,413.243 22.96,414.234 23.48,415.184 24.00,416.134 24.77,417.032 25.54,417.931 26.40,418.709 27.26,419.488 28.09,420.135 28.93,420.782 29.70,421.350 30.48,421.918 31.23,422.484 31.99,423.051 32.66,423.769 33.33,424.487 33.74,425.056 34.15,425.625 34.40,426.284 34.66,426.943 34.80,427.754 34.94,428.566 34.86,429.630 34.77,430.693 34.34,431.914 33.91,433.135 33.35,434.327 32.79,435.518 32.20,436.693 31.61,437.868 30.92,439.135 30.23,440.402 29.54,441.672 28.86,442.943 28.31,444.072 27.75,445.201 27.33,446.197 26.91,447.192 26.64,448.192 26.36,449.192 26.21,450.256 26.05,451.321 25.97,452.397 25.88,453.473 25.84,454.555 25.79,455.638 25.77,456.723 25.74,457.809 25.75,458.879 25.76,459.949 25.82,461.032 25.89,462.115 26.00,463.163 26.12,464.212 26.25,465.131 26.38,466.050 26.52,466.809 26.66,467.567 26.77,468.154 26.88,468.741 27.04,469.635 27.21,470.530 27.21,470.530 " fill="none" stroke="none" stroke-width="4" stroke-linejoin="round" stroke-linecap="round" pointer-events="none"/><path d="M22.260,0.210Q22.260,0.210 21.15,0.481 20.04,0.751 18.93,1.319 17.81,1.887 16.66,2.700 15.50,3.513 14.24,4.508 12.97,5.503 11.78,6.547 10.58,7.592 9.58,8.562 8.58,9.533 7.67,10.508 6.76,11.483 5.95,12.442 5.13,13.401 4.49,14.267 3.85,15.133 3.40,15.933 2.95,16.733 2.66,17.574 2.37,18.415 2.21,19.371 2.04,20.328 1.95,21.029 1.86,21.729 1.88,22.510 1.91,23.291 2.13,24.083 2.35,24.875 2.81,25.686 3.27,26.497 3.92,27.382 4.57,28.266 5.38,29.204 6.19,30.143 7.12,31.113 8.06,32.084 9.05,33.016 10.05,33.948 11.22,34.882 12.39,35.815 13.71,36.720 15.03,37.625 16.27,38.427 17.51,39.229 18.61,39.892 19.71,40.554 20.73,41.137 21.75,41.720 22.70,42.302 23.66,42.884 24.56,43.467 25.46,44.050 26.30,44.630 27.15,45.209 27.93,45.784 28.70,46.360 29.40,46.948 30.09,47.537 30.70,48.171 31.31,48.805 31.82,49.468 32.32,50.132 32.72,50.811 33.12,51.491 33.44,52.247 33.76,53.003 34.00,53.906 34.23,54.810 34.37,55.821 34.51,56.833 34.58,57.855 34.66,58.876 34.58,59.886 34.50,60.896 34.06,62.007 33.62,63.118 32.81,64.362 32.00,65.607 30.99,66.887 29.99,68.168 28.81,69.547 27.63,70.925 25.97,72.703 24.31,74.481 23.12,75.776 21.93,77.071 20.75,78.353 19.57,79.635 18.61,80.723 17.64,81.812 16.84,82.778 16.04,83.744 15.29,84.739 14.55,85.734 13.91,86.726 13.27,87.719 12.74,88.661 12.21,89.603 11.81,90.469 11.42,91.334 11.16,92.192 10.91,93.050 10.76,93.894 10.62,94.737 10.55,95.577 10.47,96.417 10.48,97.256 10.49,98.096 10.71,98.851 10.92,99.606 11.43,100.287 11.94,100.968 12.78,101.656 13.62,102.343 14.76,103.049 15.90,103.756 17.23,104.452 18.55,105.149 20.03,105.870 21.50,106.591 23.08,107.322 24.66,108.054 26.12,108.699 27.57,109.345 28.82,109.890 30.06,110.435 31.23,110.986 32.40,111.538 33.50,112.116 34.60,112.693 35.56,113.241 36.51,113.788 37.27,114.319 38.03,114.850 38.60,115.454 39.17,116.058 39.58,116.736 39.99,117.415 40.23,118.148 40.47,118.880 40.61,119.708 40.74,120.536 40.63,121.461 40.51,122.386 39.95,123.494 39.38,124.603 38.32,125.918 37.25,127.233 35.22,129.199 33.18,131.165 31.62,132.583 30.07,134.000 27.85,135.841 25.63,137.683 23.95,139.052 22.28,140.420 20.71,141.673 19.15,142.926 17.58,144.187 16.00,145.447 14.35,146.817 12.70,148.187 11.43,149.336 10.16,150.484 8.96,151.627 7.76,152.769 6.61,153.935 5.46,155.101 4.65,156.132 3.84,157.163 3.21,158.170 2.59,159.176 2.11,160.139 1.63,161.102 1.29,162.041 0.95,162.981 0.73,163.862 0.52,164.743 0.40,165.521 0.29,166.299 0.22,167.047 0.16,167.794 0.18,168.570 0.20,169.345 0.43,170.069 0.65,170.793 1.15,171.457 1.65,172.121 2.43,172.803 3.22,173.485 4.24,174.238 5.26,174.991 6.46,175.790 7.65,176.588 8.99,177.425 10.34,178.263 11.82,179.206 13.30,180.150 14.81,181.210 16.33,182.271 17.77,183.432 19.22,184.593 20.62,185.955 22.03,187.317 23.31,188.832 24.59,190.348 25.61,191.879 26.64,193.410 27.42,194.956 28.20,196.502 28.77,198.097 29.33,199.692 29.80,201.942 30.27,204.193 30.53,205.839 30.79,207.485 30.94,209.272 31.08,211.058 31.03,212.920 30.97,214.782 30.63,216.619 30.28,218.455 29.68,220.300 29.07,222.145 28.33,223.927 27.59,225.709 26.90,227.168 26.22,228.627 25.49,229.937 24.77,231.246 24.01,232.547 23.25,233.848 22.63,234.936 22.00,236.024 21.52,236.900 21.03,237.776 20.69,238.482 20.35,239.188 20.14,239.781 19.93,240.375 19.82,240.870 19.71,241.366 19.76,241.814 19.81,242.263 20.25,242.739 20.70,243.215 21.58,243.731 22.47,244.246 23.74,244.804 25.02,245.362 26.65,245.959 28.29,246.556 29.98,247.130 31.68,247.703 33.24,248.231 34.80,248.758 36.27,249.286 37.74,249.815 39.14,250.353 40.54,250.891 41.81,251.453 43.08,252.014 44.10,252.575 45.13,253.135 45.91,253.624 46.69,254.113 47.25,254.482 47.81,254.850 48.15,255.085 48.50,255.320 48.69,255.477 48.89,255.633 48.97,255.850 49.06,256.066 48.99,256.539 48.93,257.012 48.64,257.821 48.35,258.631 47.86,259.725 47.36,260.819 46.65,262.094 45.95,263.370 45.07,264.791 44.19,266.212 43.18,267.795 42.17,269.379 40.96,271.138 39.75,272.897 38.41,274.737 37.08,276.577 35.76,278.320 34.45,280.064 33.18,281.670 31.90,283.275 30.69,284.784 29.48,286.294 28.62,287.362 27.75,288.431 26.78,289.632 25.80,290.834 25.16,291.667 24.52,292.501 24.03,293.262 23.54,294.022 23.20,294.697 22.87,295.373 22.65,295.999 22.43,296.624 22.31,297.225 22.19,297.826 22.13,298.413 22.06,299.000 22.20,299.553 22.33,300.106 22.75,300.682 23.16,301.258 23.72,301.880 24.29,302.503 24.99,303.147 25.70,303.790 26.43,304.421 27.17,305.052 27.82,305.685 28.48,306.318 29.08,306.974 29.68,307.630 30.20,308.321 30.73,309.013 31.17,309.813 31.61,310.614 31.93,311.548 32.24,312.483 32.43,313.574 32.62,314.665 32.53,316.083 32.44,317.500 31.79,319.348 31.15,321.196 29.88,323.410 28.62,325.624 26.83,328.129 25.04,330.634 23.08,333.117 21.12,335.600 19.18,337.933 17.23,340.267 15.44,342.407 13.65,344.547 12.09,346.431 10.53,348.316 9.16,349.961 7.79,351.607 6.67,352.979 5.55,354.351 4.70,355.501 3.86,356.651 3.32,357.682 2.78,358.714 2.47,359.652 2.17,360.591 2.19,361.446 2.22,362.300 2.73,363.023 3.24,363.746 4.30,364.514 5.36,365.282 6.69,365.967 8.03,366.651 9.72,367.360 11.40,368.069 13.28,368.841 15.16,369.613 16.95,370.346 18.73,371.080 20.33,371.771 21.93,372.463 23.43,373.133 24.93,373.804 26.34,374.512 27.74,375.221 28.98,376.026 30.21,376.831 31.10,377.668 31.99,378.504 32.52,379.414 33.06,380.324 33.33,381.397 33.61,382.470 33.61,383.775 33.60,385.079 33.19,386.623 32.78,388.167 32.07,389.765 31.36,391.364 30.58,392.835 29.81,394.307 29.01,395.721 28.21,397.136 27.41,398.545 26.61,399.953 25.91,401.272 25.22,402.592 24.66,403.873 24.10,405.155 23.69,406.436 23.27,407.717 23.01,408.908 22.76,410.099 22.67,411.176 22.59,412.252 22.77,413.243 22.96,414.234 23.48,415.184 24.00,416.134 24.77,417.032 25.54,417.931 26.40,418.709 27.26,419.488 28.09,420.135 28.93,420.782 29.70,421.350 30.48,421.918 31.23,422.484 31.99,423.051 32.66,423.769 33.33,424.487 33.74,425.056 34.15,425.625 34.40,426.284 34.66,426.943 34.80,427.754 34.94,428.566 34.86,429.630 34.77,430.693 34.34,431.914 33.91,433.135 33.35,434.327 32.79,435.518 32.20,436.693 31.61,437.868 30.92,439.135 30.23,440.402 29.54,441.672 28.86,442.943 28.31,444.072 27.75,445.201 27.33,446.197 26.91,447.192 26.64,448.192 26.36,449.192 26.21,450.256 26.05,451.321 25.97,452.397 25.88,453.473 25.84,454.555 25.79,455.638 25.77,456.723 25.74,457.809 25.75,458.879 25.76,459.949 25.82,461.032 25.89,462.115 26.00,463.163 26.12,464.212 26.25,465.131 26.38,466.050 26.52,466.809 26.66,467.567 26.77,468.154 26.88,468.741 27.04,469.635 27.21,470.530 27.21,470.530 " fill="none" stroke="#717d8a" stroke-width="4" stroke-dasharray="0.1 8" stroke-dashoffset="0" stroke-linejoin="round" stroke-linecap="round" pointer-events="none"/></g></g><g id="e27f21b1-3dc2-4ffb-1f5c-b1ee87a37aad_svg" class="tl-centered-g" transform="translate(111.13, 156.77) rotate(0.00, 182.85, 159.67)"><path d="M275.963,319.038Q275.963,319.038 269.64,319.010 263.32,318.982 255.40,318.954 247.47,318.927 239.13,318.900 230.79,318.873 222.34,318.846 213.90,318.819 205.43,318.791 196.96,318.764 188.48,318.768 180.00,318.772 171.52,318.807 163.05,318.842 154.57,318.877 146.09,318.911 137.61,318.946 129.13,318.981 120.65,319.016 112.17,319.051 103.69,319.085 95.21,319.120 86.73,319.155 78.25,319.190 69.77,319.225 61.29,319.260 52.81,319.294 44.33,319.329 35.85,319.364 27.37,319.399 18.86,319.429 10.36,319.459 6.17,317.585 1.97,315.711 0.84,308.604 -0.278,301.498 -0.461,293.289 -0.643,285.080 -0.641,276.595 -0.639,268.110 -0.591,259.551 -0.543,250.992 -0.484,242.413 -0.424,233.834 -0.362,225.250 -0.299,216.667 -0.236,208.082 -0.173,199.497 -0.109,190.911 -0.046,182.326 0.01,173.741 0.08,165.155 0.07,156.570 0.06,147.984 0.05,139.398 0.04,130.813 0.03,122.227 0.02,113.641 0.02,105.055 0.01,96.470 0.00,87.884 -0.006,79.298 -0.015,70.713 -0.024,62.127 -0.032,53.541 -0.041,44.956 -0.050,36.370 -0.058,27.784 -0.063,19.176 -0.067,10.568 1.81,6.351 3.68,2.133 10.68,0.977 17.69,-0.179 25.76,-0.389 33.84,-0.598 42.18,-0.621 50.53,-0.645 58.94,-0.623 67.36,-0.601 75.80,-0.567 84.23,-0.533 92.67,-0.496 101.11,-0.460 109.55,-0.422 117.99,-0.385 126.43,-0.347 134.88,-0.309 143.32,-0.271 151.76,-0.234 160.20,-0.196 168.64,-0.158 177.08,-0.151 185.53,-0.144 193.97,-0.168 202.41,-0.193 210.85,-0.217 219.29,-0.241 227.73,-0.265 236.18,-0.289 244.62,-0.313 253.06,-0.337 261.50,-0.361 269.94,-0.386 278.38,-0.410 286.83,-0.434 295.27,-0.458 303.71,-0.482 312.15,-0.506 320.59,-0.530 329.03,-0.554 337.47,-0.579 345.94,-0.598 354.40,-0.618 358.59,1.254 362.77,3.126 363.93,10.225 365.09,17.325 365.31,25.522 365.54,33.720 365.58,42.192 365.62,50.665 365.62,59.212 365.61,67.759 365.60,76.325 365.58,84.892 365.56,93.463 365.55,102.035 365.53,110.608 365.51,119.180 365.49,127.753 365.47,136.326 365.45,144.899 365.43,153.473 365.49,162.046 365.54,170.619 365.59,179.192 365.65,187.765 365.70,196.338 365.75,204.911 365.81,213.484 365.86,222.057 365.91,230.630 365.97,239.203 366.02,247.776 366.07,256.349 366.13,264.922 366.18,273.495 366.24,282.068 366.29,290.641 366.34,299.237 366.39,307.832 364.52,312.050 362.65,316.268 355.63,317.432 348.60,318.596 340.49,318.815 332.38,319.034 324.00,319.068 315.61,319.102 307.16,319.090 298.71,319.079 290.23,319.056 281.76,319.033 273.28,319.006 264.80,318.980 256.32,318.954 247.84,318.927 239.36,318.900 230.88,318.873 222.40,318.846 213.92,318.819 205.44,318.791 196.97,318.764 188.49,318.768 180.01,318.772 171.53,318.807 163.05,318.842 151.66,318.878 140.28,318.914 140.10,318.884 139.91,318.854 139.75,318.766 139.58,318.679 139.45,318.543 139.32,318.408 139.25,318.238 139.17,318.069 139.15,317.883 139.13,317.697 139.17,317.515 139.21,317.332 139.30,317.172 139.40,317.012 139.54,316.891 139.68,316.770 139.86,316.701 140.03,316.632 140.22,316.621 140.40,316.611 140.58,316.661 140.76,316.711 140.92,316.816 141.07,316.921 141.19,317.069 141.30,317.218 141.36,317.395 141.42,317.572 141.42,317.759 141.42,317.946 141.36,318.123 141.30,318.300 141.19,318.449 141.07,318.597 140.92,318.702 140.77,318.807 140.59,318.857 140.41,318.907 140.22,318.897 140.03,318.887 139.86,318.818 139.69,318.749 139.54,318.628 139.40,318.507 139.30,318.347 139.21,318.187 139.17,318.004 139.13,317.822 139.15,317.636 139.17,317.451 139.25,317.281 139.32,317.111 139.45,316.976 139.58,316.840 139.75,316.753 139.91,316.665 140.10,316.635 140.28,316.605 140.28,316.605 140.28,316.605 151.66,316.630 163.04,316.656 171.52,316.683 180.00,316.710 188.48,316.706 196.96,316.702 205.44,316.668 213.92,316.633 222.40,316.598 230.88,316.563 239.36,316.528 247.84,316.493 256.32,316.458 264.80,316.423 273.28,316.387 281.76,316.352 290.23,316.313 298.70,316.274 307.15,316.224 315.59,316.173 323.94,316.078 332.29,315.983 340.22,315.716 348.16,315.450 354.53,314.733 360.89,314.016 362.00,310.882 363.10,307.748 363.12,299.197 363.13,290.647 363.15,282.074 363.17,273.501 363.19,264.928 363.21,256.354 363.23,247.781 363.25,239.208 363.26,230.635 363.28,222.062 363.30,213.489 363.32,204.915 363.34,196.342 363.36,187.769 363.38,179.196 363.40,170.623 363.42,162.050 363.43,153.477 363.38,144.904 363.33,136.331 363.27,127.758 363.22,119.185 363.17,110.612 363.11,102.040 363.06,93.469 363.00,84.898 362.95,76.334 362.89,67.769 362.82,59.230 362.75,50.691 362.64,42.252 362.53,33.814 362.24,25.786 361.96,17.758 361.24,11.323 360.52,4.888 357.41,3.776 354.31,2.664 345.89,2.631 337.47,2.598 329.03,2.560 320.59,2.522 312.15,2.484 303.71,2.447 295.26,2.409 286.82,2.371 278.38,2.333 269.94,2.295 261.50,2.258 253.06,2.220 244.61,2.182 236.17,2.144 227.73,2.106 219.29,2.069 210.85,2.031 202.41,1.993 193.97,1.955 185.52,1.918 177.08,1.911 168.64,1.904 160.20,1.928 151.76,1.952 143.32,1.976 134.87,2.000 126.43,2.025 117.99,2.049 109.55,2.073 101.11,2.098 92.67,2.123 84.23,2.148 75.80,2.176 67.36,2.204 58.96,2.244 50.55,2.283 42.24,2.368 33.93,2.453 26.03,2.710 18.12,2.966 11.78,3.676 5.44,4.386 4.33,7.527 3.21,10.668 3.15,19.231 3.09,27.794 3.03,36.380 2.97,44.965 2.90,53.551 2.84,62.136 2.78,70.722 2.71,79.307 2.65,87.893 2.58,96.478 2.52,105.063 2.46,113.649 2.39,122.234 2.33,130.820 2.27,139.405 2.20,147.991 2.14,156.576 2.08,165.162 2.09,173.747 2.09,182.333 2.10,190.918 2.11,199.504 2.12,208.089 2.13,216.674 2.14,225.258 2.15,233.841 2.16,242.418 2.17,250.995 2.20,259.547 2.22,268.099 2.29,276.550 2.36,285.001 2.60,293.040 2.84,301.079 3.54,307.525 4.23,313.970 7.34,315.074 10.45,316.178 18.91,316.200 27.37,316.223 35.85,316.250 44.33,316.277 52.81,316.304 61.29,316.331 69.77,316.358 78.25,316.385 86.73,316.412 95.21,316.439 103.69,316.466 112.17,316.494 120.65,316.521 129.13,316.548 137.60,316.575 146.08,316.602 154.56,316.629 163.04,316.656 171.52,316.683 180.00,316.710 188.48,316.706 196.96,316.702 205.43,316.668 213.90,316.633 222.34,316.598 230.79,316.563 239.13,316.529 247.47,316.494 255.39,316.459 263.32,316.425 269.64,316.391 275.96,316.357 276.12,316.376 276.28,316.396 276.43,316.453 276.58,316.510 276.71,316.602 276.85,316.694 276.95,316.815 277.06,316.935 277.14,317.079 277.21,317.222 277.25,317.378 277.29,317.535 277.29,317.697 277.29,317.858 277.25,318.015 277.21,318.172 277.14,318.315 277.06,318.458 276.95,318.579 276.85,318.700 276.71,318.792 276.58,318.884 276.43,318.941 276.28,318.999 276.12,319.018 Z" fill="#cecece" stroke="#cecece" stroke-width="2" pointer-events="none"/></g><g id="670bc38e-d93e-4a8a-075a-3d93899b72e8_svg" class="tl-centered-g" transform="translate(118.51, 165.35) rotate(0.00, 174.19, 20.79)"><path d="M259.127,41.538Q259.127,41.538 252.81,41.530 246.50,41.522 238.58,41.520 230.66,41.518 222.33,41.518 214.00,41.518 205.56,41.518 197.12,41.518 188.66,41.518 180.20,41.519 171.73,41.584 163.26,41.649 154.79,41.714 146.32,41.780 137.85,41.845 129.38,41.910 120.91,41.976 112.44,42.041 103.96,42.106 95.49,42.171 87.02,42.237 78.55,42.302 70.08,42.367 61.61,42.433 53.14,42.498 44.66,42.563 36.19,42.628 27.72,42.694 19.23,42.754 10.73,42.815 6.66,41.153 2.60,39.491 1.44,37.025 0.29,34.559 0.11,32.072 -0.064,29.586 -0.015,27.227 0.03,24.868 0.03,22.540 0.04,20.212 -0.033,17.888 -0.110,15.565 -0.183,13.242 -0.257,10.920 -0.302,8.511 -0.346,6.102 1.49,3.511 3.33,0.920 10.41,0.221 17.49,-0.478 25.55,-0.559 33.62,-0.640 41.98,-0.616 50.34,-0.593 58.78,-0.543 67.22,-0.494 75.68,-0.437 84.14,-0.381 92.60,-0.323 101.07,-0.266 109.53,-0.207 118.00,-0.149 126.47,-0.091 134.93,-0.032 143.40,0.026 151.87,0.085 160.33,0.143 168.80,0.202 177.27,0.195 185.73,0.188 194.20,0.182 202.67,0.175 211.13,0.169 219.60,0.162 228.07,0.156 236.54,0.149 245.00,0.143 253.47,0.136 261.94,0.129 270.40,0.123 278.87,0.116 287.34,0.110 295.80,0.103 304.27,0.097 312.74,0.090 321.20,0.084 329.69,0.082 338.18,0.080 342.24,1.743 346.29,3.407 347.45,5.749 348.62,8.091 348.82,10.430 349.01,12.768 348.98,14.966 348.94,17.164 348.95,19.326 348.96,21.489 349.05,23.644 349.14,25.800 349.23,27.954 349.31,30.109 349.37,32.355 349.43,34.602 347.60,37.149 345.77,39.696 338.68,40.427 331.60,41.158 323.53,41.291 315.47,41.424 307.10,41.458 298.74,41.492 290.29,41.501 281.85,41.509 273.38,41.512 264.92,41.514 256.45,41.515 247.98,41.516 239.51,41.516 231.04,41.517 222.56,41.517 214.09,41.517 205.62,41.518 197.15,41.518 188.68,41.518 180.21,41.519 171.73,41.584 163.26,41.649 151.89,41.726 140.52,41.802 140.34,41.773 140.16,41.744 140.00,41.659 139.84,41.574 139.71,41.442 139.58,41.310 139.51,41.144 139.43,40.979 139.41,40.797 139.39,40.615 139.43,40.437 139.47,40.258 139.56,40.101 139.65,39.944 139.79,39.825 139.93,39.706 140.10,39.638 140.27,39.569 140.45,39.559 140.64,39.548 140.81,39.597 140.99,39.645 141.14,39.747 141.29,39.849 141.40,39.994 141.51,40.139 141.57,40.312 141.63,40.485 141.63,40.668 141.63,40.851 141.58,41.024 141.52,41.198 141.41,41.344 141.30,41.490 141.15,41.593 141.00,41.696 140.82,41.746 140.64,41.795 140.46,41.786 140.28,41.777 140.11,41.710 139.94,41.643 139.80,41.525 139.66,41.407 139.56,41.251 139.47,41.094 139.43,40.916 139.39,40.737 139.41,40.556 139.43,40.374 139.50,40.208 139.58,40.041 139.70,39.908 139.83,39.775 139.99,39.689 140.15,39.603 140.33,39.572 140.51,39.542 140.51,39.542 140.51,39.542 151.88,39.531 163.26,39.519 171.73,39.519 180.20,39.519 188.67,39.453 197.14,39.388 205.61,39.323 214.08,39.257 222.55,39.192 231.03,39.127 239.50,39.061 247.97,38.996 256.44,38.930 264.91,38.864 273.37,38.797 281.83,38.729 290.27,38.656 298.71,38.582 307.06,38.483 315.40,38.385 323.37,38.192 331.34,37.998 337.64,37.641 343.94,37.283 345.09,35.752 346.25,34.221 346.32,32.161 346.39,30.101 346.48,27.949 346.58,25.796 346.68,23.647 346.78,21.497 346.77,19.358 346.76,17.219 346.62,15.132 346.47,13.045 346.21,11.163 345.95,9.280 345.26,7.650 344.57,6.020 341.33,4.691 338.08,3.361 329.64,3.307 321.19,3.254 312.73,3.195 304.26,3.137 295.79,3.078 287.33,3.020 278.86,2.961 270.39,2.903 261.93,2.844 253.46,2.786 244.99,2.728 236.53,2.669 228.06,2.611 219.59,2.552 211.13,2.494 202.66,2.435 194.19,2.377 185.73,2.318 177.26,2.260 168.79,2.202 160.33,2.208 151.86,2.215 143.39,2.221 134.93,2.228 126.46,2.234 117.99,2.241 109.53,2.248 101.06,2.254 92.59,2.262 84.13,2.269 75.67,2.278 67.21,2.286 58.78,2.302 50.34,2.317 42.00,2.359 33.66,2.400 25.70,2.542 17.73,2.683 11.44,3.007 5.14,3.331 3.99,4.904 2.84,6.477 2.75,8.710 2.67,10.944 2.55,13.263 2.44,15.582 2.33,17.899 2.22,20.216 2.22,22.523 2.22,24.830 2.35,27.086 2.48,29.341 2.73,31.388 2.99,33.435 3.67,35.183 4.35,36.931 7.58,38.232 10.81,39.533 19.26,39.529 27.71,39.524 36.18,39.523 44.65,39.523 53.12,39.523 61.60,39.523 70.07,39.522 78.54,39.522 87.01,39.522 95.48,39.521 103.95,39.521 112.43,39.521 120.90,39.521 129.37,39.520 137.84,39.520 146.31,39.520 154.78,39.519 163.25,39.519 171.72,39.519 180.19,39.519 188.65,39.453 197.12,39.388 205.55,39.323 213.99,39.258 222.32,39.193 230.65,39.128 238.57,39.065 246.49,39.002 252.80,38.945 259.11,38.888 259.27,38.907 259.43,38.925 259.58,38.982 259.73,39.038 259.86,39.128 259.99,39.218 260.10,39.337 260.21,39.456 260.28,39.597 260.35,39.739 260.39,39.894 260.43,40.048 260.43,40.208 260.43,40.368 260.40,40.523 260.36,40.678 260.28,40.820 260.21,40.962 260.11,41.082 260.00,41.202 259.87,41.293 259.74,41.384 259.59,41.441 259.44,41.498 259.28,41.518 Z" fill="#cecece" stroke="#cecece" stroke-width="2" pointer-events="none"/></g><text font-size="27.538391200279698px" font-family="Caveat Brush" font-weight="normal" line-height="27.538391200279698px" letter-spacing="-0.03em" text-align="left" dominant-baseline="mathematical" alignment-baseline="mathematical" text-anchor="start" fill="#cecece" transform="translate(125.49, 167.17) rotate(0.00, 83.00, 19.00)"><tspan y="13.769195600139849px" x="4">site.com/products
</tspan></text><g id="ce847d82-2e2a-4d78-209d-76edc2124be0_svg" class="tl-centered-g" transform="translate(124.80, 218.70) rotate(0.00, 167.42, 1.01)"><defs><mask id="ce847d82-2e2a-4d78-209d-76edc2124be0_clip"><rect x="-100" y="-100" width="534.83" height="202.03" fill="white"/><rect x="167.42" y="1.01" width="0" height="0" rx="4" ry="4" fill="black" opacity="1"/></mask></defs><g pointer-events="none" opacity="1" mask=""><path d="M-0.006,1.008Q-0.006,1.008 41.84,0.784 83.70,0.560 125.55,0.329 167.41,0.097 209.27,-0.140 251.12,-0.378 292.98,-0.619 334.83,-0.861 334.97,-0.839 335.11,-0.818 335.23,-0.753 335.35,-0.689 335.45,-0.588 335.55,-0.487 335.60,-0.361 335.66,-0.235 335.68,-0.097 335.70,0.041 335.67,0.178 335.64,0.314 335.57,0.434 335.50,0.553 335.39,0.644 335.28,0.735 335.15,0.787 335.03,0.840 334.89,0.848 334.75,0.857 334.61,0.820 334.48,0.784 334.36,0.706 334.25,0.629 334.16,0.518 334.08,0.408 334.03,0.276 333.99,0.144 333.99,0.005 333.98,-0.134 334.03,-0.267 334.07,-0.399 334.16,-0.510 334.24,-0.622 334.35,-0.700 334.47,-0.779 334.60,-0.817 334.74,-0.855 334.88,-0.849 335.02,-0.842 335.15,-0.791 335.28,-0.740 335.38,-0.651 335.49,-0.561 335.56,-0.442 335.63,-0.323 335.66,-0.187 335.69,-0.052 335.68,0.087 335.67,0.226 335.61,0.352 335.55,0.479 335.46,0.581 335.36,0.682 335.24,0.748 335.12,0.814 334.98,0.838 334.84,0.861 334.84,0.861 334.84,0.861 292.99,1.127 251.13,1.393 209.28,1.663 167.42,1.933 125.57,2.209 83.71,2.485 41.86,2.768 0.00,3.052 -0.116,3.037 -0.238,3.023 -0.354,2.980 -0.469,2.937 -0.571,2.868 -0.673,2.799 -0.755,2.707 -0.837,2.615 -0.895,2.507 -0.953,2.398 -0.983,2.279 -1.013,2.159 -1.014,2.036 -1.015,1.913 -0.986,1.793 -0.957,1.673 -0.901,1.564 -0.844,1.455 -0.763,1.362 -0.682,1.269 -0.581,1.199 -0.480,1.128 -0.365,1.084 -0.250,1.040 -0.128,1.024 Z" fill="#cecece" stroke="#cecece" stroke-width="2.11" stroke-dasharray="none" stroke-dashoffset="none" stroke-linecap="round" stroke-linejoin="round" pointer-events="stroke"/></g></g><text font-size="54.78445178627949px" font-family="Caveat Brush" font-weight="normal" line-height="54.78445178627949px" letter-spacing="-0.03em" text-align="left" dominant-baseline="mathematical" alignment-baseline="mathematical" text-anchor="start" fill="#cecece" transform="translate(237.53, 89.59) rotate(0.00, 55.00, 32.50)"><tspan y="27.392225893139745px" x="4">client
</tspan></text><g id="a0eff5f8-9a99-4494-087c-fbf934032e17_svg" class="tl-centered-g" transform="translate(132.53, 234.74) rotate(0.00, 161.28, 110.75)"><path d="M232.671,221.384Q232.671,221.384 226.71,221.372 220.76,221.360 213.29,221.361 205.82,221.362 197.96,221.366 190.11,221.369 182.15,221.374 174.19,221.378 166.21,221.443 158.23,221.508 150.24,221.632 142.26,221.757 134.27,221.882 126.28,222.006 118.29,222.131 110.30,222.255 102.31,222.380 94.32,222.504 86.34,222.629 78.35,222.754 70.36,222.878 62.37,223.003 54.38,223.127 46.39,223.252 38.40,223.377 30.41,223.501 22.33,223.602 14.25,223.703 8.71,220.573 3.18,217.443 1.63,209.796 0.08,202.150 -0.149,193.861 -0.381,185.571 -0.372,177.137 -0.363,168.702 -0.296,160.223 -0.229,151.743 -0.147,143.251 -0.066,134.759 0.02,126.264 0.10,117.769 0.00,109.273 -0.101,100.777 -0.204,92.281 -0.307,83.785 -0.410,75.289 -0.513,66.793 -0.615,58.296 -0.718,49.800 -0.821,41.304 -0.924,32.808 -1.005,24.227 -1.086,15.645 2.04,9.993 5.18,4.341 12.48,2.723 19.78,1.106 27.65,0.833 35.53,0.560 43.52,0.539 51.51,0.518 59.54,0.557 67.56,0.596 75.59,0.650 83.63,0.704 91.67,0.762 99.70,0.819 107.74,0.878 115.78,0.937 123.82,0.996 131.86,1.055 139.89,1.114 147.93,1.173 155.97,1.172 164.01,1.171 172.05,1.111 180.08,1.050 188.12,0.989 196.16,0.929 204.20,0.868 212.24,0.807 220.28,0.747 228.31,0.686 236.35,0.625 244.39,0.565 252.43,0.504 260.47,0.443 268.50,0.383 276.54,0.322 284.58,0.261 292.62,0.201 300.75,0.164 308.88,0.126 314.42,3.280 319.96,6.435 321.45,14.010 322.95,21.586 323.11,29.784 323.27,37.983 323.18,46.318 323.10,54.653 322.95,63.031 322.81,71.409 322.65,79.799 322.49,88.189 322.33,96.582 322.17,104.975 322.19,113.371 322.22,121.766 322.25,130.162 322.27,138.558 322.30,146.954 322.32,155.349 322.35,163.745 322.37,172.141 322.40,180.537 322.43,188.933 322.43,197.412 322.43,205.891 319.29,211.502 316.15,217.114 308.88,218.775 301.61,220.435 293.78,220.767 285.94,221.099 278.00,221.183 270.06,221.266 262.08,221.291 254.11,221.316 246.12,221.326 238.13,221.336 230.14,221.342 222.16,221.348 214.17,221.353 206.18,221.359 198.19,221.364 190.20,221.368 182.21,221.373 174.22,221.378 166.23,221.443 158.24,221.508 150.25,221.632 142.26,221.757 131.53,221.904 120.81,222.050 120.48,221.999 120.16,221.948 119.86,221.795 119.57,221.643 119.34,221.404 119.11,221.165 118.97,220.865 118.82,220.565 118.79,220.236 118.75,219.907 118.82,219.582 118.88,219.258 119.05,218.972 119.22,218.687 119.47,218.470 119.72,218.254 120.03,218.128 120.34,218.003 120.67,217.983 121.00,217.962 121.32,218.048 121.64,218.134 121.92,218.318 122.19,218.502 122.39,218.764 122.60,219.027 122.71,219.340 122.81,219.654 122.82,219.985 122.82,220.317 122.72,220.632 122.61,220.947 122.41,221.212 122.22,221.478 121.94,221.666 121.67,221.854 121.35,221.945 121.03,222.037 120.70,222.021 120.37,222.006 120.06,221.886 119.75,221.765 119.50,221.553 119.24,221.340 119.07,221.057 118.90,220.775 118.82,220.451 118.75,220.128 118.78,219.798 118.82,219.468 118.95,219.166 119.09,218.864 119.32,218.622 119.54,218.379 119.83,218.222 120.12,218.064 120.45,218.008 120.78,217.952 120.78,217.952 120.78,217.952 131.50,217.925 142.23,217.898 150.22,217.893 158.21,217.888 166.20,217.823 174.19,217.759 182.18,217.634 190.16,217.509 198.15,217.385 206.14,217.260 214.13,217.135 222.12,217.010 230.11,216.884 238.09,216.758 246.07,216.629 254.06,216.499 262.01,216.355 269.97,216.211 277.83,216.010 285.69,215.809 293.14,215.402 300.58,214.996 306.56,214.138 312.53,213.280 314.64,209.396 316.75,205.511 316.89,197.200 317.03,188.888 317.19,180.494 317.36,172.100 317.52,163.706 317.69,155.311 317.85,146.917 318.01,138.523 318.18,130.129 318.34,121.735 318.50,113.341 318.67,104.947 318.64,96.553 318.61,88.160 318.58,79.772 318.55,71.384 318.51,63.021 318.46,54.658 318.36,46.395 318.25,38.132 317.94,30.293 317.62,22.454 316.84,16.191 316.06,9.929 312.29,7.868 308.52,5.808 300.57,5.772 292.62,5.736 284.58,5.677 276.54,5.618 268.51,5.559 260.47,5.500 252.43,5.441 244.39,5.382 236.35,5.323 228.31,5.264 220.28,5.205 212.24,5.146 204.20,5.086 196.16,5.027 188.12,4.968 180.09,4.909 172.05,4.850 164.01,4.791 155.97,4.792 147.93,4.793 139.89,4.853 131.86,4.914 123.82,4.975 115.78,5.036 107.74,5.097 99.70,5.157 91.67,5.219 83.63,5.281 75.60,5.347 67.57,5.413 59.57,5.494 51.56,5.575 43.65,5.713 35.75,5.852 28.26,6.202 20.76,6.552 14.76,7.370 8.75,8.188 6.67,12.084 4.60,15.980 4.53,24.391 4.47,32.803 4.38,41.299 4.29,49.795 4.21,58.292 4.12,66.788 4.03,75.285 3.95,83.781 3.86,92.277 3.77,100.773 3.69,109.269 3.60,117.765 3.70,126.259 3.81,134.753 3.92,143.241 4.02,151.729 4.15,160.192 4.27,168.655 4.45,177.018 4.63,185.380 5.01,193.315 5.40,201.250 6.23,207.585 7.06,213.919 10.82,215.971 14.57,218.023 22.47,217.995 30.37,217.966 38.36,217.961 46.35,217.956 54.34,217.951 62.33,217.946 70.32,217.942 78.31,217.937 86.30,217.932 94.29,217.927 102.28,217.922 110.27,217.917 118.26,217.912 126.25,217.908 134.24,217.903 142.23,217.898 150.21,217.893 158.20,217.888 166.18,217.823 174.16,217.759 182.12,217.635 190.07,217.510 197.93,217.387 205.79,217.263 213.26,217.143 220.73,217.022 226.68,216.914 232.63,216.806 232.90,216.837 233.18,216.868 233.44,216.964 233.70,217.060 233.92,217.215 234.15,217.370 234.34,217.575 234.52,217.780 234.65,218.023 234.78,218.266 234.85,218.533 234.92,218.801 234.92,219.077 234.92,219.353 234.86,219.621 234.79,219.889 234.67,220.135 234.54,220.380 234.36,220.588 234.18,220.796 233.95,220.954 233.73,221.113 233.47,221.213 233.21,221.313 232.94,221.348 Z" fill="#36a64c" stroke="#36a64c" stroke-width="3.5" pointer-events="none"/></g><g id="3106e9d8-30b4-4973-1740-a2c1d61206d0_svg" class="tl-centered-g" transform="translate(163.55, 265.80) rotate(0.00, 135.32, 83.62)"><path d="M94.042,0.316Q94.042,0.316 100.33,0.388 106.63,0.459 114.53,0.530 122.43,0.600 130.75,0.594 139.06,0.588 147.47,0.506 155.89,0.425 164.33,0.343 172.77,0.261 181.22,0.179 189.67,0.097 198.12,0.016 206.57,-0.066 215.03,-0.148 223.48,-0.230 231.93,-0.311 240.38,-0.393 248.92,-0.453 257.45,-0.513 263.10,2.638 268.75,5.789 270.25,13.338 271.75,20.887 271.89,29.052 272.03,37.217 271.93,45.514 271.82,53.812 271.65,62.152 271.48,70.492 271.43,78.845 271.37,87.199 271.44,95.556 271.50,103.913 271.57,112.272 271.63,120.630 271.70,128.988 271.76,137.347 271.81,145.789 271.85,154.232 268.68,159.848 265.52,165.464 257.91,167.017 250.31,168.571 242.08,168.781 233.84,168.992 225.46,168.953 217.09,168.914 208.68,168.816 200.26,168.717 191.83,168.604 183.41,168.490 174.98,168.373 166.55,168.255 158.12,168.137 149.69,168.019 141.26,167.976 132.82,167.933 124.39,167.966 115.96,167.999 107.53,168.032 99.10,168.065 90.66,168.098 82.23,168.131 73.80,168.164 65.37,168.197 56.94,168.230 48.51,168.263 40.07,168.295 31.64,168.328 23.13,168.340 14.61,168.351 8.98,165.195 3.34,162.038 1.82,154.545 0.30,147.053 0.12,138.962 -0.049,130.872 0.02,122.653 0.09,114.435 0.23,106.175 0.36,97.915 0.39,89.643 0.41,81.371 0.31,73.096 0.21,64.820 0.11,56.544 0.01,48.268 -0.084,39.991 -0.182,31.714 -0.258,23.352 -0.334,14.989 2.81,9.393 5.97,3.796 13.58,2.210 21.20,0.624 29.45,0.368 37.70,0.113 46.10,0.104 54.49,0.095 62.92,0.145 71.36,0.194 79.81,0.259 88.25,0.324 96.71,0.393 105.16,0.461 113.61,0.531 122.06,0.600 130.51,0.594 138.96,0.588 147.41,0.506 155.86,0.425 167.21,0.341 178.55,0.257 178.89,0.312 179.23,0.368 179.54,0.529 179.84,0.690 180.08,0.940 180.32,1.190 180.46,1.503 180.61,1.815 180.64,2.158 180.68,2.500 180.61,2.836 180.53,3.173 180.36,3.468 180.18,3.764 179.92,3.987 179.65,4.210 179.33,4.338 179.01,4.465 178.67,4.484 178.33,4.503 177.99,4.411 177.66,4.319 177.38,4.126 177.09,3.933 176.88,3.659 176.67,3.385 176.56,3.058 176.45,2.732 176.45,2.387 176.45,2.043 176.56,1.716 176.67,1.390 176.88,1.115 177.09,0.841 177.38,0.648 177.66,0.454 177.99,0.362 178.32,0.270 178.67,0.288 179.01,0.307 179.33,0.434 179.65,0.561 179.91,0.784 180.18,1.007 180.35,1.302 180.53,1.597 180.61,1.934 180.68,2.270 180.64,2.612 180.61,2.955 180.46,3.268 180.32,3.580 180.08,3.830 179.84,4.081 179.54,4.242 179.24,4.404 178.90,4.459 178.56,4.515 178.56,4.515 178.56,4.515 167.21,4.447 155.87,4.380 147.42,4.310 138.96,4.240 130.51,4.246 122.06,4.252 113.61,4.334 105.16,4.416 96.71,4.499 88.26,4.582 79.82,4.669 71.37,4.756 62.96,4.858 54.54,4.959 46.22,5.118 37.90,5.277 30.01,5.647 22.12,6.016 15.81,6.845 9.50,7.674 7.42,11.513 5.35,15.352 5.21,23.542 5.08,31.732 4.93,40.008 4.77,48.283 4.62,56.559 4.47,64.834 4.31,73.108 4.16,81.382 4.14,89.650 4.12,97.919 4.23,106.163 4.35,114.408 4.53,122.555 4.71,130.701 5.10,138.427 5.49,146.153 6.35,152.328 7.21,158.502 11.09,160.582 14.98,162.663 23.32,162.760 31.67,162.857 40.10,162.976 48.53,163.094 56.96,163.213 65.39,163.332 73.83,163.450 82.26,163.569 90.69,163.688 99.12,163.807 107.55,163.925 115.98,164.044 124.41,164.163 132.84,164.281 141.27,164.324 149.70,164.367 158.14,164.334 166.57,164.300 175.00,164.266 183.43,164.232 191.85,164.194 200.27,164.156 208.67,164.103 217.07,164.049 225.37,163.938 233.67,163.826 241.54,163.501 249.41,163.175 255.70,162.376 262.00,161.576 264.08,157.715 266.16,153.854 266.33,145.581 266.49,137.308 266.68,128.952 266.87,120.595 267.06,112.239 267.25,103.883 267.43,95.528 267.62,87.173 267.67,78.824 267.73,70.474 267.65,62.147 267.56,53.821 267.42,45.594 267.27,37.367 266.91,29.564 266.55,21.762 265.71,15.529 264.87,9.297 260.99,7.236 257.12,5.175 248.75,5.126 240.38,5.078 231.93,5.009 223.48,4.939 215.03,4.869 206.58,4.799 198.13,4.729 189.68,4.659 181.23,4.589 172.78,4.519 164.33,4.449 155.89,4.380 147.48,4.310 139.06,4.240 130.75,4.246 122.44,4.251 114.54,4.333 106.63,4.414 100.34,4.495 94.04,4.575 93.79,4.544 93.53,4.513 93.29,4.422 93.05,4.332 92.84,4.186 92.63,4.040 92.46,3.848 92.29,3.656 92.17,3.429 92.05,3.202 91.99,2.953 91.93,2.704 91.93,2.447 91.93,2.190 91.99,1.941 92.05,1.692 92.17,1.465 92.29,1.237 92.46,1.045 92.63,0.853 92.84,0.707 93.05,0.561 93.29,0.470 93.53,0.379 93.78,0.348 Z" fill="#36a64c" stroke="#36a64c" stroke-width="3.5" pointer-events="none"/></g><text font-size="27.538391200279698px" font-family="Caveat Brush" font-weight="normal" line-height="27.538391200279698px" letter-spacing="-0.03em" text-align="left" dominant-baseline="mathematical" alignment-baseline="mathematical" text-anchor="start" fill="#ebbb38" transform="translate(196.62, 166.99) rotate(0.00, 47.50, 19.00)"><tspan y="13.769195600139849px" x="4">/products
</tspan></text><g id="2b5ae72d-ba16-4501-23e7-019b56f50b50_svg" class="tl-centered-g" transform="translate(205.36, 300.68) rotate(0.23, 101.79, 52.54)"><path d="M204.399,70.763Q204.399,70.763 204.66,75.451 204.92,80.139 205.18,86.155 205.44,92.170 202.32,97.177 199.21,102.184 191.57,103.556 183.92,104.928 175.67,105.101 167.43,105.274 159.02,105.234 150.61,105.194 142.15,105.103 133.69,105.011 125.22,104.907 116.75,104.803 108.27,104.799 99.80,104.795 91.32,104.893 82.85,104.991 74.37,105.090 65.90,105.188 57.42,105.286 48.94,105.384 40.47,105.482 31.99,105.580 23.43,105.657 14.87,105.733 9.26,102.661 3.65,99.590 2.08,93.687 0.51,87.784 0.29,81.649 0.08,75.514 0.12,69.388 0.16,63.263 0.09,57.131 0.03,51.000 -0.175,44.866 -0.385,38.731 -0.591,32.596 -0.797,26.460 -0.968,20.205 -1.139,13.950 1.98,8.898 5.09,3.846 12.70,2.376 20.30,0.906 28.50,0.632 36.69,0.357 45.05,0.295 53.40,0.233 61.80,0.222 70.20,0.212 78.61,0.214 87.02,0.216 95.43,0.118 103.85,0.020 112.26,-0.180 120.67,-0.381 129.09,-0.581 137.50,-0.781 145.92,-0.981 154.33,-1.181 162.74,-1.382 171.16,-1.582 179.66,-1.760 188.16,-1.938 193.77,1.100 199.37,4.137 201.01,10.152 202.64,16.166 202.95,22.444 203.26,28.721 203.32,35.005 203.37,41.289 203.53,47.579 203.69,53.870 203.99,60.162 204.30,66.453 204.65,74.902 205.00,83.351 204.94,83.761 204.88,84.172 204.69,84.542 204.51,84.912 204.21,85.204 203.92,85.496 203.55,85.678 203.17,85.860 202.76,85.914 202.35,85.968 201.94,85.888 201.54,85.808 201.18,85.602 200.82,85.396 200.54,85.086 200.27,84.776 200.11,84.395 199.94,84.013 199.91,83.600 199.88,83.186 199.98,82.784 200.08,82.383 200.31,82.034 200.53,81.686 200.86,81.428 201.18,81.170 201.57,81.029 201.96,80.888 202.38,80.879 202.79,80.870 203.19,80.994 203.58,81.117 203.92,81.361 204.25,81.605 204.49,81.942 204.73,82.280 204.85,82.677 204.97,83.074 204.96,83.489 204.95,83.903 204.80,84.291 204.66,84.680 204.40,85.002 204.13,85.323 203.78,85.545 203.43,85.766 203.03,85.864 202.63,85.962 202.21,85.926 201.80,85.891 201.42,85.725 201.04,85.559 200.73,85.280 200.43,85.002 200.23,84.640 200.02,84.278 199.95,83.871 199.87,83.463 199.87,83.463 199.87,83.464 199.85,75.009 199.82,66.555 199.84,60.260 199.86,53.965 199.71,47.693 199.55,41.420 199.17,35.232 198.80,29.044 198.23,23.210 197.67,17.377 196.67,12.691 195.68,8.004 191.78,5.876 187.87,3.748 179.55,3.764 171.22,3.779 162.80,3.773 154.39,3.766 145.97,3.759 137.55,3.753 129.14,3.746 120.72,3.740 112.31,3.733 103.89,3.727 95.48,3.825 87.06,3.923 78.66,4.127 70.25,4.332 61.87,4.549 53.49,4.766 45.20,5.033 36.92,5.300 29.04,5.749 21.16,6.197 14.90,6.999 8.64,7.801 6.57,11.095 4.50,14.388 4.41,20.406 4.32,26.424 4.20,32.560 4.09,38.697 3.97,44.829 3.86,50.961 3.92,57.074 3.98,63.187 4.26,69.218 4.54,75.249 5.02,80.929 5.50,86.610 6.43,91.181 7.36,95.753 11.29,97.899 15.21,100.045 23.60,100.132 31.99,100.219 40.47,100.328 48.95,100.436 57.42,100.545 65.90,100.654 74.37,100.762 82.85,100.871 91.32,100.979 99.80,101.088 108.27,101.092 116.75,101.096 125.22,100.993 133.68,100.891 142.13,100.775 150.57,100.660 158.92,100.494 167.26,100.329 175.20,99.977 183.13,99.625 189.43,98.910 195.73,98.194 197.77,94.983 199.81,91.772 199.80,86.012 199.80,80.252 199.86,75.556 199.92,70.861 199.95,70.593 199.97,70.325 200.06,70.070 200.15,69.816 200.30,69.591 200.45,69.366 200.65,69.182 200.85,68.999 201.08,68.869 201.32,68.738 201.58,68.668 201.84,68.598 202.11,68.592 202.38,68.586 202.64,68.645 202.91,68.704 203.15,68.824 203.39,68.944 203.59,69.118 203.80,69.293 203.96,69.511 204.12,69.730 204.22,69.980 204.32,70.230 204.36,70.497 Z" fill="#ebbb38" stroke="#ebbb38" stroke-width="3.5" pointer-events="none"/></g><text font-size="48px" font-family="Caveat Brush" font-weight="normal" line-height="48px" letter-spacing="-0.03em" text-align="left" dominant-baseline="mathematical" alignment-baseline="mathematical" text-anchor="start" fill="#717d8a" transform="translate(908.11, 420.34) rotate(0.00, 95.00, 29.00)"><tspan y="24px" x="4">/products/5
</tspan></text><text font-size="48px" font-family="Caveat Brush" font-weight="normal" line-height="48px" letter-spacing="-0.03em" text-align="left" dominant-baseline="mathematical" alignment-baseline="mathematical" text-anchor="start" fill="#cecece" transform="translate(907.15, 329.83) rotate(0.00, 79.00, 29.00)"><tspan y="24px" x="4">/products
</tspan></text><text font-size="48px" font-family="Caveat Brush" font-weight="normal" line-height="48px" letter-spacing="-0.03em" text-align="left" dominant-baseline="mathematical" alignment-baseline="mathematical" text-anchor="start" fill="#717d8a" transform="translate(915.39, 244.06) rotate(0.00, 11.00, 29.00)"><tspan y="24px" x="4">/
</tspan></text><g id="36918bf5-3536-42d0-309f-74b27e4bb282_svg" class="tl-centered-g" transform="translate(1148.49, 253.25) rotate(0.00, 26.34, 16.56)"><path d="M51.769,21.130Q51.769,21.130 51.77,22.299 51.77,23.469 51.77,24.937 51.77,26.405 50.28,28.269 48.80,30.133 46.12,30.658 43.45,31.182 40.48,31.365 37.50,31.547 34.45,31.643 31.40,31.739 28.33,31.812 25.26,31.885 22.18,31.953 19.10,32.021 16.03,32.087 12.95,32.153 9.87,32.219 6.79,32.285 4.52,30.812 2.24,29.339 1.71,27.703 1.17,26.068 1.07,24.391 0.98,22.715 1.00,21.028 1.02,19.341 1.07,17.651 1.11,15.961 1.17,14.270 1.22,12.580 1.28,10.889 1.34,9.199 1.39,7.508 1.45,5.817 2.96,3.896 4.46,1.975 7.09,1.526 9.72,1.077 12.64,1.004 15.56,0.930 18.56,0.952 21.55,0.975 24.56,1.021 27.57,1.068 30.59,1.121 33.60,1.174 36.62,1.228 39.63,1.283 42.65,1.338 45.67,1.393 47.93,2.897 50.19,4.401 50.77,5.954 51.34,7.507 51.49,9.073 51.64,10.638 51.68,12.207 51.72,13.776 51.74,15.346 51.75,16.915 51.76,18.485 51.76,20.055 51.77,22.162 " fill="#404a53" pointer-events="none"/><path d="M53.047,21.127Q53.047,21.127 53.14,22.297 53.23,23.466 53.29,25.047 53.34,26.629 51.60,28.966 49.85,31.303 46.79,31.961 43.73,32.619 40.65,32.721 37.58,32.824 34.51,32.827 31.43,32.831 28.36,32.904 25.28,32.978 22.21,33.138 19.13,33.299 16.05,33.458 12.98,33.617 9.82,33.753 6.67,33.889 3.93,32.210 1.20,30.531 0.49,28.522 -0.221,26.512 -0.257,24.649 -0.292,22.786 -0.181,21.057 -0.071,19.328 -0.023,17.629 0.02,15.930 -0.012,14.234 -0.050,12.538 -0.086,10.844 -0.122,9.149 -0.123,7.363 -0.125,5.576 1.65,3.188 3.43,0.799 6.45,0.216 9.48,-0.367 12.51,-0.357 15.53,-0.348 18.54,-0.233 21.56,-0.118 24.57,-0.071 27.59,-0.025 30.60,-0.065 33.62,-0.104 36.64,-0.143 39.66,-0.181 42.75,-0.197 45.84,-0.213 48.53,1.483 51.22,3.179 51.97,5.094 52.72,7.009 52.82,8.763 52.92,10.517 52.87,12.132 52.82,13.748 52.83,15.327 52.84,16.907 52.94,18.479 53.04,20.051 53.14,22.158 53.23,24.266 53.20,24.500 53.16,24.734 53.05,24.944 52.94,25.153 52.77,25.316 52.59,25.480 52.38,25.580 52.16,25.680 51.93,25.706 51.69,25.732 51.46,25.681 51.23,25.631 51.03,25.509 50.82,25.388 50.67,25.207 50.52,25.027 50.43,24.807 50.34,24.587 50.33,24.351 50.31,24.114 50.38,23.886 50.44,23.658 50.57,23.461 50.70,23.265 50.89,23.121 51.08,22.977 51.31,22.901 51.53,22.825 51.77,22.825 52.00,22.824 52.23,22.899 52.45,22.974 52.64,23.117 52.83,23.260 52.96,23.456 53.10,23.652 53.16,23.880 53.23,24.108 53.21,24.345 53.20,24.581 53.11,24.802 53.03,25.022 52.87,25.203 52.72,25.384 52.52,25.506 52.31,25.629 52.08,25.680 51.85,25.732 51.62,25.706 51.38,25.681 51.17,25.582 50.95,25.483 50.78,25.321 50.61,25.158 50.49,24.949 50.38,24.740 50.34,24.506 50.31,24.272 50.31,24.273 50.31,24.273 50.39,22.166 50.48,20.059 50.57,18.492 50.66,16.924 50.64,15.364 50.63,13.804 50.50,12.282 50.37,10.760 50.17,9.383 49.97,8.005 49.56,6.814 49.15,5.623 47.33,4.311 45.50,2.999 42.55,2.873 39.61,2.747 36.59,2.600 33.58,2.452 30.57,2.307 27.55,2.161 24.55,2.114 21.54,2.068 18.57,2.138 15.59,2.208 12.78,2.365 9.97,2.521 7.73,2.836 5.49,3.150 4.26,4.604 3.03,6.058 2.92,7.653 2.80,9.248 2.65,10.935 2.50,12.622 2.35,14.307 2.21,15.992 2.16,17.672 2.11,19.353 2.18,20.998 2.26,22.643 2.41,24.134 2.56,25.624 2.92,26.885 3.29,28.146 5.10,29.414 6.92,30.681 9.92,30.685 12.92,30.689 16.00,30.716 19.07,30.742 22.15,30.768 25.23,30.793 28.30,30.720 31.36,30.646 34.39,30.459 37.42,30.271 40.30,30.008 43.17,29.745 45.45,29.354 47.74,28.964 48.97,27.572 50.20,26.181 50.25,24.826 50.30,23.472 50.40,22.302 50.49,21.132 50.50,20.979 50.52,20.826 50.58,20.682 50.63,20.538 50.72,20.411 50.81,20.284 50.92,20.181 51.04,20.079 51.17,20.007 51.31,19.935 51.46,19.898 51.61,19.861 51.76,19.860 51.92,19.860 52.07,19.897 52.22,19.933 52.35,20.005 52.49,20.076 52.60,20.178 52.72,20.280 52.81,20.407 52.90,20.534 52.95,20.678 53.01,20.822 53.02,20.974 Z" fill="#717d8a" stroke="#717d8a" stroke-width="2" pointer-events="none"/></g><g id="1773ff72-ffb4-4e9b-1904-c15abe825886_svg" class="tl-centered-g" transform="translate(1213.78, 253.16) rotate(0.00, 26.34, 16.56)"><path d="M1.075,11.121Q1.075,11.121 1.09,9.881 1.11,8.640 1.13,7.083 1.16,5.526 2.65,3.639 4.15,1.752 6.76,1.327 9.38,0.902 12.28,0.850 15.18,0.797 18.15,0.840 21.12,0.883 24.11,0.950 27.10,1.017 30.09,1.090 33.09,1.164 36.09,1.238 39.08,1.313 42.08,1.388 45.08,1.464 47.33,2.973 49.58,4.482 50.19,6.107 50.81,7.731 51.00,9.385 51.19,11.039 51.28,12.701 51.36,14.362 51.42,16.026 51.48,17.689 51.53,19.353 51.59,21.017 51.64,22.681 51.69,24.345 51.74,26.009 51.79,27.673 50.31,29.588 48.83,31.502 46.17,31.935 43.50,32.368 40.53,32.423 37.56,32.478 34.52,32.437 31.47,32.396 28.41,32.330 25.34,32.265 22.27,32.193 19.20,32.121 16.13,32.047 13.06,31.974 9.99,31.900 6.91,31.826 4.64,30.317 2.37,28.808 1.81,27.183 1.25,25.557 1.12,23.902 1.00,22.247 0.99,20.584 0.98,18.921 0.99,17.256 1.01,15.592 1.03,13.927 1.05,12.261 1.09,10.026 " fill="#404a53" pointer-events="none"/><path d="M-0.204,11.102Q-0.204,11.102 -0.277,9.859 -0.351,8.617 -0.383,6.955 -0.414,5.294 1.35,2.931 3.12,0.569 6.13,0.013 9.14,-0.544 12.15,-0.512 15.15,-0.481 18.14,-0.345 21.13,-0.210 24.13,-0.143 27.12,-0.075 30.12,-0.095 33.12,-0.115 36.12,-0.133 39.12,-0.151 42.19,-0.147 45.25,-0.143 47.94,1.558 50.62,3.258 51.40,5.242 52.18,7.226 52.32,9.058 52.46,10.891 52.46,12.599 52.46,14.306 52.52,15.978 52.57,17.651 52.72,19.314 52.86,20.977 53.01,22.639 53.15,24.301 53.25,26.082 53.36,27.864 51.61,30.271 49.86,32.678 46.79,33.245 43.73,33.813 40.66,33.785 37.59,33.757 34.52,33.623 31.46,33.489 28.39,33.423 25.32,33.357 22.25,33.378 19.17,33.399 16.10,33.418 13.02,33.437 9.88,33.435 6.74,33.433 4.03,31.722 1.32,30.011 0.59,28.016 -0.136,26.022 -0.203,24.182 -0.271,22.342 -0.192,20.635 -0.113,18.929 -0.097,17.255 -0.081,15.581 -0.150,13.912 -0.220,12.243 -0.279,10.006 -0.338,7.769 -0.296,7.535 -0.254,7.302 -0.140,7.095 -0.026,6.887 0.14,6.727 0.32,6.566 0.54,6.470 0.75,6.374 0.99,6.352 1.22,6.330 1.45,6.384 1.68,6.439 1.89,6.564 2.09,6.689 2.24,6.872 2.39,7.055 2.47,7.276 2.56,7.498 2.57,7.735 2.58,7.971 2.51,8.199 2.44,8.426 2.31,8.620 2.17,8.814 1.98,8.954 1.79,9.095 1.56,9.167 1.34,9.239 1.10,9.236 0.86,9.232 0.64,9.153 0.42,9.074 0.23,8.928 0.04,8.781 -0.082,8.583 -0.212,8.385 -0.272,8.156 -0.332,7.927 -0.315,7.690 -0.299,7.454 -0.208,7.235 -0.116,7.017 0.04,6.838 0.19,6.660 0.40,6.541 0.60,6.422 0.83,6.375 1.07,6.328 1.30,6.357 1.54,6.386 1.75,6.489 1.96,6.592 2.13,6.757 2.30,6.923 2.41,7.134 2.52,7.345 2.55,7.579 2.59,7.813 2.59,7.813 2.59,7.813 2.46,10.046 2.33,12.279 2.22,13.941 2.10,15.602 2.08,17.258 2.07,18.913 2.17,20.532 2.27,22.152 2.45,23.622 2.63,25.092 3.02,26.349 3.41,27.605 5.25,28.912 7.09,30.218 10.09,30.364 13.09,30.510 16.16,30.676 19.23,30.842 22.30,31.007 25.37,31.172 28.43,31.238 31.49,31.303 34.51,31.252 37.54,31.200 40.40,31.061 43.27,30.922 45.54,30.624 47.81,30.326 49.01,28.904 50.21,27.483 50.22,25.936 50.22,24.389 50.27,22.723 50.31,21.057 50.35,19.392 50.39,17.728 50.33,16.073 50.27,14.419 50.10,12.803 49.92,11.187 49.68,9.712 49.43,8.237 48.99,6.971 48.55,5.706 46.72,4.388 44.90,3.070 41.97,2.924 39.05,2.777 36.05,2.609 33.06,2.442 30.07,2.276 27.08,2.110 24.09,2.043 21.10,1.976 18.15,2.026 15.20,2.076 12.40,2.211 9.61,2.347 7.39,2.641 5.17,2.934 3.95,4.346 2.73,5.758 2.65,7.211 2.57,8.663 2.46,9.902 2.35,11.141 2.33,11.294 2.31,11.447 2.25,11.590 2.19,11.733 2.10,11.859 2.01,11.984 1.90,12.085 1.78,12.185 1.64,12.254 1.50,12.324 1.35,12.358 1.20,12.393 1.05,12.391 0.90,12.388 0.75,12.349 0.60,12.310 0.46,12.236 0.33,12.162 0.21,12.058 0.10,11.954 0.01,11.826 -0.067,11.698 -0.119,11.553 -0.171,11.408 -0.188,11.255 Z" fill="#717d8a" stroke="#717d8a" stroke-width="2" pointer-events="none"/></g><g id="9bc36c89-d22a-4d54-0961-fa0b6bbb0961_svg" class="tl-centered-g" transform="translate(1280.90, 253.25) rotate(0.00, 26.34, 16.56)"><path d="M0.496,11.784Q0.496,11.784 0.50,10.579 0.51,9.374 0.52,7.861 0.53,6.349 2.02,4.473 3.52,2.597 6.17,2.098 8.83,1.599 11.78,1.450 14.74,1.302 17.77,1.243 20.79,1.184 23.84,1.148 26.89,1.112 29.94,1.082 33.00,1.051 36.05,1.023 39.11,0.994 42.16,0.965 45.22,0.937 47.49,2.420 49.75,3.903 50.32,5.521 50.89,7.139 51.02,8.792 51.15,10.445 51.17,12.107 51.19,13.769 51.19,15.433 51.18,17.097 51.17,18.762 51.15,20.427 51.14,22.092 51.12,23.756 51.11,25.421 51.09,27.086 49.59,29.001 48.10,30.915 45.45,31.389 42.79,31.863 39.85,31.970 36.90,32.077 33.87,32.090 30.85,32.104 27.80,32.093 24.76,32.082 21.71,32.065 18.66,32.049 15.61,32.030 12.57,32.012 9.52,31.993 6.47,31.975 4.20,30.480 1.93,28.985 1.36,27.399 0.79,25.812 0.65,24.202 0.52,22.593 0.49,20.977 0.46,19.361 0.47,17.744 0.47,16.127 0.48,14.509 0.49,12.892 0.50,10.720 " fill="#404a53" pointer-events="none"/><path d="M-0.782,11.775Q-0.782,11.775 -0.867,10.569 -0.951,9.363 -0.995,7.742 -1.039,6.121 0.71,3.773 2.46,1.425 5.51,0.792 8.56,0.159 11.62,0.092 14.67,0.025 17.72,0.058 20.77,0.091 23.83,0.055 26.88,0.019 29.93,-0.104 32.99,-0.227 36.04,-0.349 39.09,-0.470 42.22,-0.569 45.36,-0.668 48.07,1.013 50.79,2.695 51.53,4.681 52.27,6.668 52.35,8.506 52.43,10.344 52.36,12.049 52.29,13.755 52.28,15.428 52.27,17.102 52.35,18.770 52.43,20.437 52.51,22.104 52.59,23.770 52.63,25.539 52.67,27.308 50.91,29.697 49.14,32.086 46.10,32.696 43.05,33.305 40.00,33.330 36.94,33.355 33.90,33.276 30.85,33.196 27.80,33.186 24.76,33.175 21.71,33.251 18.66,33.327 15.61,33.402 12.56,33.476 9.43,33.528 6.31,33.581 3.60,31.890 0.89,30.199 0.15,28.247 -0.586,26.295 -0.669,24.498 -0.753,22.701 -0.688,21.040 -0.624,19.379 -0.622,17.752 -0.621,16.126 -0.705,14.505 -0.788,12.885 -0.867,10.712 -0.945,8.539 -0.905,8.305 -0.865,8.072 -0.753,7.863 -0.641,7.655 -0.467,7.493 -0.294,7.331 -0.079,7.233 0.13,7.135 0.37,7.111 0.60,7.087 0.83,7.140 1.07,7.192 1.27,7.316 1.47,7.439 1.62,7.621 1.77,7.802 1.86,8.023 1.95,8.244 1.96,8.480 1.97,8.717 1.90,8.945 1.84,9.173 1.71,9.368 1.57,9.563 1.38,9.705 1.19,9.847 0.97,9.921 0.74,9.995 0.50,9.994 0.27,9.992 0.04,9.915 -0.175,9.838 -0.363,9.693 -0.551,9.548 -0.682,9.351 -0.814,9.154 -0.876,8.926 -0.938,8.697 -0.923,8.461 -0.909,8.224 -0.819,8.005 -0.730,7.785 -0.576,7.606 -0.421,7.426 -0.217,7.306 -0.013,7.185 0.21,7.135 0.45,7.086 0.68,7.113 0.92,7.141 1.13,7.242 1.34,7.343 1.52,7.507 1.69,7.671 1.80,7.881 1.91,8.091 1.94,8.325 1.98,8.559 1.98,8.559 1.98,8.559 1.87,10.729 1.76,12.899 1.66,14.513 1.56,16.128 1.56,17.736 1.56,19.344 1.67,20.914 1.79,22.485 1.98,23.907 2.17,25.330 2.57,26.551 2.97,27.771 4.79,29.070 6.62,30.369 9.60,30.458 12.57,30.548 15.62,30.659 18.67,30.770 21.72,30.880 24.76,30.989 27.80,31.000 30.84,31.011 33.85,30.905 36.85,30.799 39.69,30.611 42.54,30.422 44.80,30.083 47.06,29.744 48.28,28.304 49.51,26.864 49.58,25.303 49.66,23.742 49.77,22.079 49.87,20.416 49.98,18.754 50.09,17.093 50.10,15.438 50.10,13.783 49.99,12.165 49.88,10.547 49.69,9.079 49.50,7.611 49.11,6.361 48.72,5.111 46.90,3.826 45.08,2.542 42.10,2.500 39.12,2.458 36.07,2.394 33.01,2.330 29.96,2.267 26.90,2.205 23.86,2.241 20.82,2.277 17.81,2.428 14.80,2.579 11.95,2.808 9.10,3.038 6.83,3.404 4.57,3.769 3.34,5.173 2.10,6.577 2.04,7.981 1.97,9.384 1.87,10.589 1.77,11.793 1.75,11.946 1.73,12.099 1.68,12.243 1.62,12.386 1.53,12.513 1.44,12.639 1.33,12.740 1.21,12.842 1.07,12.912 0.94,12.983 0.79,13.019 0.64,13.055 0.48,13.053 0.33,13.052 0.18,13.014 0.03,12.976 -0.102,12.904 -0.237,12.831 -0.352,12.728 -0.467,12.625 -0.553,12.498 -0.640,12.370 -0.694,12.226 -0.747,12.081 -0.765,11.928 Z" fill="#717d8a" stroke="#717d8a" stroke-width="2" pointer-events="none"/></g><g id="9f0de711-e5e7-485c-1460-18926d791888_svg" class="tl-centered-g" transform="translate(1148.53, 339.52) rotate(0.00, 26.34, 16.56)"><path d="M35.645,0.917Q35.645,0.917 37.92,0.882 40.19,0.846 43.05,0.801 45.91,0.757 48.13,2.235 50.35,3.714 50.93,5.321 51.51,6.927 51.67,8.566 51.84,10.206 51.89,11.853 51.95,13.501 51.98,15.151 52.01,16.801 52.03,18.451 52.06,20.101 52.08,21.752 52.10,23.402 52.12,25.052 52.14,26.703 50.66,28.614 49.17,30.525 46.53,31.000 43.89,31.476 40.96,31.586 38.03,31.696 35.02,31.713 32.01,31.729 28.98,31.722 25.96,31.715 22.93,31.702 19.89,31.688 16.86,31.674 13.83,31.659 10.79,31.644 7.76,31.629 5.50,30.135 3.23,28.641 2.62,27.077 2.01,25.514 1.83,23.932 1.64,22.351 1.56,20.765 1.48,19.179 1.42,17.592 1.37,16.005 1.33,14.418 1.28,12.831 1.23,11.243 1.19,9.656 1.15,8.069 1.10,6.481 2.58,4.587 4.06,2.692 6.71,2.173 9.37,1.654 12.32,1.486 15.28,1.319 18.31,1.240 21.34,1.162 24.39,1.106 27.44,1.051 30.49,1.001 33.55,0.951 37.65,0.886 " fill="#345246" pointer-events="none"/><path d="M35.625,-0.361Q35.625,-0.361 37.90,-0.490 40.17,-0.618 43.11,-0.731 46.05,-0.844 48.72,0.828 51.39,2.500 52.14,4.470 52.89,6.440 53.00,8.260 53.11,10.079 53.08,11.771 53.04,13.463 53.07,15.122 53.10,16.781 53.22,18.432 53.33,20.083 53.45,21.733 53.56,23.383 53.64,25.145 53.71,26.907 51.96,29.301 50.21,31.694 47.18,32.306 44.15,32.918 41.11,32.946 38.08,32.974 35.05,32.898 32.02,32.822 28.99,32.815 25.96,32.808 22.92,32.887 19.89,32.967 16.85,33.045 13.82,33.123 10.71,33.179 7.61,33.234 4.91,31.555 2.21,29.875 1.43,27.955 0.65,26.034 0.51,24.268 0.37,22.502 0.38,20.868 0.39,19.235 0.33,17.638 0.28,16.042 0.14,14.455 0.00,12.868 -0.132,11.282 -0.269,9.697 -0.365,7.990 -0.462,6.284 1.27,3.906 3.00,1.529 6.05,0.873 9.09,0.217 12.15,0.130 15.20,0.042 18.26,0.056 21.31,0.069 24.36,0.014 27.42,-0.042 30.47,-0.185 33.53,-0.327 37.63,-0.485 41.73,-0.642 41.96,-0.608 42.20,-0.573 42.41,-0.466 42.62,-0.358 42.79,-0.189 42.95,-0.019 43.06,0.194 43.16,0.408 43.19,0.643 43.22,0.878 43.17,1.110 43.12,1.342 43.00,1.547 42.88,1.752 42.71,1.908 42.53,2.064 42.31,2.155 42.09,2.247 41.85,2.263 41.62,2.280 41.39,2.220 41.16,2.160 40.96,2.030 40.76,1.900 40.62,1.714 40.47,1.528 40.39,1.304 40.31,1.081 40.31,0.844 40.31,0.607 40.38,0.382 40.45,0.156 40.59,-0.035 40.73,-0.226 40.92,-0.362 41.12,-0.498 41.35,-0.565 41.57,-0.631 41.81,-0.622 42.05,-0.613 42.27,-0.529 42.49,-0.445 42.67,-0.294 42.85,-0.144 42.98,0.057 43.11,0.259 43.16,0.489 43.21,0.720 43.19,0.956 43.17,1.191 43.07,1.408 42.98,1.624 42.82,1.799 42.66,1.973 42.45,2.088 42.24,2.202 42.01,2.244 41.78,2.286 41.78,2.286 41.78,2.286 37.67,2.258 33.57,2.230 30.51,2.186 27.46,2.143 24.41,2.199 21.37,2.254 18.36,2.425 15.35,2.595 12.50,2.843 9.65,3.092 7.38,3.473 5.12,3.855 3.90,5.267 2.67,6.679 2.66,8.147 2.65,9.615 2.61,11.205 2.56,12.794 2.51,14.381 2.46,15.969 2.52,17.546 2.57,19.124 2.74,20.662 2.91,22.200 3.14,23.597 3.38,24.993 3.82,26.200 4.26,27.406 6.09,28.715 7.92,30.023 10.88,30.109 13.83,30.195 16.87,30.302 19.90,30.410 22.93,30.516 25.96,30.622 28.98,30.629 32.01,30.637 34.99,30.527 37.98,30.418 40.81,30.227 43.64,30.035 45.88,29.695 48.13,29.356 49.35,27.927 50.57,26.498 50.60,24.959 50.63,23.421 50.71,21.770 50.78,20.119 50.85,18.470 50.92,16.820 50.89,15.180 50.86,13.539 50.71,11.936 50.56,10.332 50.35,8.873 50.13,7.414 49.72,6.171 49.31,4.928 47.54,3.643 45.77,2.358 42.99,2.334 40.22,2.310 37.94,2.253 35.66,2.196 35.51,2.179 35.35,2.163 35.21,2.111 35.06,2.058 34.94,1.973 34.81,1.887 34.70,1.774 34.60,1.660 34.53,1.524 34.45,1.389 34.41,1.240 34.37,1.091 34.37,0.937 34.37,0.783 34.40,0.633 34.44,0.482 34.51,0.345 34.58,0.207 34.68,0.090 34.78,-0.027 34.90,-0.116 35.03,-0.206 35.17,-0.263 35.31,-0.319 35.47,-0.340 Z" fill="#36a64c" stroke="#36a64c" stroke-width="2" pointer-events="none"/></g><g id="d566a2bf-f975-41f2-1b10-f33514e1fff1_svg" class="tl-centered-g" transform="translate(1213.82, 339.43) rotate(0.00, 26.34, 16.56)"><path d="M51.759,21.336Q51.759,21.336 51.80,22.604 51.84,23.872 51.90,25.463 51.95,27.054 50.48,28.950 49.00,30.846 46.30,31.308 43.60,31.771 40.59,31.868 37.58,31.965 34.49,31.969 31.40,31.972 28.28,31.952 25.17,31.932 22.05,31.906 18.94,31.880 15.82,31.853 12.70,31.825 9.58,31.797 6.46,31.769 4.18,30.272 1.89,28.775 1.35,27.171 0.80,25.567 0.70,23.935 0.60,22.304 0.62,20.666 0.63,19.027 0.67,17.387 0.72,15.747 0.76,14.106 0.81,12.466 0.87,10.825 0.92,9.184 0.97,7.543 1.02,5.903 2.52,3.994 4.03,2.086 6.65,1.575 9.27,1.063 12.18,0.908 15.09,0.753 18.08,0.689 21.06,0.625 24.06,0.584 27.06,0.543 30.07,0.508 33.07,0.473 36.08,0.439 39.09,0.406 42.10,0.372 45.10,0.339 47.36,1.821 49.62,3.302 50.24,4.948 50.86,6.594 51.06,8.281 51.26,9.969 51.36,11.667 51.45,13.365 51.52,15.066 51.59,16.767 51.65,18.469 51.71,20.171 51.79,22.455 " fill="#345246" pointer-events="none"/><path d="M53.037,21.291Q53.037,21.291 53.17,22.556 53.31,23.821 53.41,25.533 53.52,27.246 51.78,29.633 50.04,32.019 46.94,32.617 43.85,33.214 40.73,33.228 37.62,33.243 34.51,33.154 31.40,33.065 28.28,33.045 25.16,33.025 22.05,33.092 18.93,33.159 15.81,33.224 12.69,33.289 9.50,33.333 6.31,33.376 3.58,31.676 0.85,29.975 0.13,27.999 -0.580,26.024 -0.624,24.203 -0.667,22.382 -0.562,20.700 -0.457,19.018 -0.415,17.369 -0.373,15.719 -0.416,14.073 -0.460,12.427 -0.501,10.783 -0.543,9.138 -0.549,7.400 -0.556,5.661 1.20,3.291 2.97,0.920 5.98,0.273 9.00,-0.374 12.01,-0.449 15.03,-0.523 18.03,-0.496 21.04,-0.468 24.04,-0.509 27.05,-0.550 30.05,-0.678 33.06,-0.806 36.07,-0.932 39.07,-1.059 42.16,-1.162 45.24,-1.265 47.95,0.406 50.65,2.076 51.44,4.082 52.23,6.088 52.38,7.952 52.53,9.817 52.54,11.561 52.54,13.304 52.61,15.014 52.68,16.724 52.84,18.424 52.99,20.125 53.16,22.407 53.34,24.688 53.31,24.923 53.28,25.158 53.17,25.371 53.07,25.584 52.90,25.753 52.74,25.922 52.53,26.029 52.31,26.136 52.08,26.170 51.85,26.204 51.61,26.161 51.38,26.118 51.17,26.003 50.96,25.888 50.81,25.713 50.65,25.538 50.55,25.321 50.45,25.104 50.43,24.868 50.41,24.632 50.47,24.402 50.52,24.172 50.65,23.971 50.78,23.770 50.96,23.621 51.14,23.471 51.36,23.387 51.59,23.304 51.82,23.296 52.06,23.287 52.29,23.355 52.51,23.423 52.71,23.559 52.90,23.696 53.04,23.888 53.18,24.079 53.25,24.305 53.32,24.531 53.32,24.768 53.31,25.004 53.23,25.227 53.15,25.450 53.01,25.636 52.86,25.822 52.66,25.951 52.46,26.080 52.23,26.139 52.00,26.198 51.77,26.181 51.53,26.163 51.31,26.071 51.09,25.979 50.92,25.823 50.74,25.666 50.62,25.461 50.50,25.255 50.46,25.023 50.41,24.791 50.41,24.791 50.41,24.791 50.42,22.504 50.43,20.217 50.47,18.514 50.50,16.811 50.43,15.119 50.36,13.427 50.18,11.774 49.99,10.121 49.74,8.610 49.48,7.100 49.04,5.814 48.59,4.529 46.78,3.236 44.97,1.943 42.04,1.906 39.11,1.870 36.10,1.811 33.09,1.751 30.08,1.694 27.08,1.636 24.08,1.677 21.08,1.718 18.12,1.874 15.16,2.030 12.36,2.265 9.55,2.501 7.32,2.876 5.08,3.252 3.84,4.698 2.60,6.144 2.49,7.687 2.38,9.230 2.24,10.867 2.09,12.504 1.95,14.139 1.81,15.775 1.77,17.405 1.72,19.036 1.80,20.631 1.88,22.226 2.04,23.668 2.19,25.110 2.57,26.343 2.94,27.575 4.78,28.869 6.62,30.162 9.67,30.262 12.71,30.361 15.83,30.481 18.95,30.602 22.06,30.721 25.18,30.840 28.29,30.860 31.39,30.879 34.47,30.783 37.54,30.687 40.45,30.507 43.36,30.327 45.66,30.000 47.97,29.672 49.18,28.267 50.39,26.862 50.38,25.392 50.38,23.923 50.43,22.651 50.48,21.380 50.49,21.227 50.50,21.073 50.55,20.927 50.60,20.781 50.69,20.651 50.77,20.522 50.88,20.416 50.99,20.309 51.13,20.233 51.26,20.157 51.41,20.115 51.56,20.073 51.71,20.067 51.86,20.062 52.02,20.094 52.17,20.125 52.31,20.192 52.44,20.259 52.56,20.357 52.68,20.455 52.77,20.579 52.87,20.703 52.93,20.845 52.98,20.987 53.01,21.139 Z" fill="#36a64c" stroke="#36a64c" stroke-width="2" pointer-events="none"/></g><g id="94a2e2d6-7a8b-4c8b-095f-8f8b937f0222_svg" class="tl-centered-g" transform="translate(1280.94, 339.52) rotate(0.00, 26.34, 16.56)"><path d="M17.477,31.725Q17.477,31.725 15.19,31.659 12.90,31.594 10.03,31.512 7.16,31.430 4.94,29.919 2.72,28.408 2.15,26.795 1.59,25.182 1.44,23.543 1.30,21.904 1.26,20.258 1.22,18.612 1.21,16.965 1.20,15.317 1.20,13.669 1.20,12.021 1.20,10.373 1.20,8.725 1.19,7.077 1.19,5.429 2.68,3.519 4.17,1.609 6.82,1.142 9.47,0.676 12.42,0.578 15.36,0.480 18.38,0.476 21.40,0.472 24.44,0.491 27.48,0.511 30.53,0.537 33.57,0.563 36.62,0.590 39.67,0.618 42.71,0.646 45.76,0.674 48.03,2.171 50.29,3.668 50.89,5.322 51.48,6.976 51.65,8.670 51.82,10.364 51.88,12.068 51.94,13.772 51.97,15.479 52.00,17.186 52.02,18.894 52.05,20.601 52.07,22.309 52.09,24.016 52.11,25.724 52.14,27.432 50.65,29.357 49.17,31.283 46.50,31.708 43.84,32.134 40.87,32.177 37.91,32.221 34.87,32.167 31.83,32.112 28.76,32.033 25.70,31.954 22.64,31.869 19.57,31.783 15.45,31.666 " fill="#345246" pointer-events="none"/><path d="M17.440,33.003Q17.440,33.003 15.15,33.030 12.86,33.058 9.92,33.046 6.98,33.035 4.32,31.324 1.67,29.613 0.94,27.635 0.20,25.657 0.11,23.837 0.02,22.016 0.08,20.327 0.13,18.637 0.12,16.980 0.11,15.324 0.01,13.674 -0.077,12.024 -0.171,10.375 -0.265,8.726 -0.321,6.971 -0.378,5.215 1.38,2.826 3.13,0.437 6.18,-0.165 9.22,-0.766 12.27,-0.782 15.32,-0.798 18.36,-0.710 21.40,-0.621 24.45,-0.601 27.49,-0.582 30.54,-0.649 33.58,-0.715 36.63,-0.781 39.68,-0.846 42.80,-0.889 45.92,-0.932 48.62,0.761 51.33,2.454 52.10,4.473 52.86,6.491 52.98,8.365 53.09,10.238 53.06,11.986 53.03,13.735 53.06,15.450 53.09,17.166 53.21,18.874 53.32,20.583 53.44,22.290 53.56,23.997 53.63,25.815 53.71,27.633 51.95,30.046 50.19,32.459 47.13,33.020 44.07,33.580 41.00,33.540 37.93,33.499 34.87,33.352 31.81,33.205 28.74,33.126 25.68,33.047 22.61,33.054 19.54,33.061 15.42,33.037 11.30,33.013 11.06,32.968 10.83,32.923 10.62,32.806 10.42,32.689 10.26,32.513 10.10,32.336 10.01,32.119 9.92,31.901 9.90,31.665 9.88,31.429 9.93,31.199 9.99,30.969 10.12,30.769 10.25,30.570 10.43,30.422 10.62,30.274 10.84,30.192 11.06,30.111 11.30,30.105 11.54,30.099 11.76,30.169 11.99,30.238 12.18,30.377 12.37,30.515 12.51,30.708 12.65,30.901 12.72,31.127 12.79,31.354 12.78,31.591 12.77,31.827 12.69,32.050 12.61,32.272 12.46,32.456 12.31,32.641 12.11,32.768 11.91,32.895 11.68,32.952 11.45,33.009 11.22,32.989 10.98,32.970 10.76,32.876 10.55,32.782 10.37,32.623 10.19,32.465 10.08,32.259 9.96,32.052 9.92,31.819 9.87,31.587 9.91,31.352 9.94,31.117 10.04,30.905 10.15,30.693 10.32,30.526 10.48,30.359 10.70,30.254 10.91,30.149 11.14,30.117 11.38,30.086 11.38,30.086 11.38,30.086 15.49,30.295 19.61,30.505 22.67,30.683 25.73,30.862 28.79,30.941 31.85,31.020 34.87,30.981 37.89,30.942 40.75,30.815 43.61,30.688 45.88,30.397 48.14,30.106 49.35,28.669 50.56,27.231 50.59,25.633 50.63,24.036 50.70,22.327 50.77,20.619 50.84,18.913 50.91,17.206 50.87,15.508 50.84,13.810 50.69,12.150 50.54,10.490 50.32,8.975 50.10,7.460 49.68,6.171 49.25,4.882 47.43,3.581 45.60,2.280 42.63,2.181 39.65,2.082 36.61,1.962 33.56,1.842 30.52,1.723 27.48,1.604 24.44,1.584 21.41,1.565 18.41,1.661 15.41,1.758 12.56,1.938 9.72,2.118 7.47,2.450 5.21,2.781 3.99,4.212 2.77,5.643 2.71,7.184 2.66,8.724 2.57,10.372 2.48,12.019 2.39,13.665 2.30,15.311 2.31,16.949 2.32,18.587 2.44,20.189 2.57,21.791 2.77,23.250 2.97,24.708 3.37,25.956 3.77,27.204 5.56,28.515 7.35,29.826 10.15,29.978 12.94,30.130 15.23,30.288 17.51,30.447 17.66,30.470 17.81,30.492 17.96,30.551 18.10,30.610 18.22,30.701 18.35,30.792 18.45,30.910 18.54,31.029 18.61,31.167 18.68,31.306 18.71,31.456 18.75,31.607 18.74,31.761 18.74,31.915 18.70,32.064 18.65,32.212 18.58,32.346 18.50,32.481 18.40,32.593 18.29,32.706 18.16,32.789 18.03,32.873 17.89,32.924 17.74,32.974 17.59,32.988 Z" fill="#36a64c" stroke="#36a64c" stroke-width="2" pointer-events="none"/></g><g id="3372b79b-eddf-48b9-2485-00ed9ccea2b7_svg" class="tl-centered-g" transform="translate(1154.35, 430.42) rotate(0.00, 26.34, 16.56)"><path d="M35.502,1.081Q35.502,1.081 37.74,1.040 39.98,0.999 42.80,0.948 45.61,0.896 47.82,2.373 50.03,3.850 50.56,5.489 51.10,7.128 51.21,8.809 51.32,10.490 51.33,12.181 51.33,13.872 51.30,15.566 51.28,17.260 51.25,18.954 51.21,20.649 51.18,22.344 51.15,24.038 51.11,25.733 51.08,27.428 49.58,29.350 48.08,31.272 45.45,31.749 42.83,32.226 39.91,32.335 37.00,32.443 34.01,32.458 31.02,32.472 28.01,32.463 25.01,32.453 22.00,32.438 18.98,32.422 15.97,32.405 12.96,32.388 9.95,32.370 6.93,32.353 4.68,30.858 2.42,29.364 1.87,27.774 1.32,26.184 1.21,24.571 1.10,22.957 1.10,21.337 1.10,19.717 1.12,18.095 1.15,16.473 1.19,14.851 1.22,13.229 1.26,11.607 1.29,9.985 1.33,8.363 1.37,6.741 2.87,4.837 4.37,2.934 6.99,2.407 9.62,1.881 12.53,1.706 15.44,1.530 18.43,1.445 21.41,1.359 24.42,1.296 27.42,1.234 30.43,1.177 33.44,1.120 37.48,1.045 " fill="#404a53" pointer-events="none"/><path d="M35.479,-0.198Q35.479,-0.198 37.72,-0.331 39.96,-0.465 42.85,-0.584 45.75,-0.704 48.42,0.979 51.08,2.661 51.79,4.672 52.50,6.684 52.55,8.545 52.60,10.405 52.51,12.138 52.42,13.870 52.40,15.573 52.37,17.276 52.43,18.975 52.49,20.673 52.55,22.371 52.61,24.068 52.63,25.862 52.66,27.657 50.89,30.049 49.12,32.442 46.10,33.054 43.08,33.667 40.06,33.694 37.04,33.721 34.03,33.643 31.03,33.565 28.01,33.555 25.00,33.546 21.99,33.623 18.98,33.701 15.96,33.776 12.95,33.852 9.86,33.905 6.78,33.958 4.08,32.262 1.37,30.567 0.65,28.608 -0.061,26.649 -0.117,24.847 -0.174,23.045 -0.083,21.381 0.00,19.717 0.03,18.086 0.06,16.455 0.00,14.828 -0.052,13.202 -0.108,11.577 -0.165,9.952 -0.185,8.229 -0.205,6.506 1.55,4.138 3.30,1.770 6.32,1.107 9.33,0.445 12.35,0.350 15.37,0.254 18.37,0.261 21.38,0.267 24.39,0.204 27.40,0.141 30.41,-0.009 33.41,-0.159 37.45,-0.326 41.49,-0.493 41.73,-0.459 41.96,-0.425 42.17,-0.318 42.38,-0.211 42.55,-0.042 42.71,0.127 42.82,0.340 42.92,0.553 42.95,0.788 42.98,1.023 42.93,1.256 42.89,1.488 42.77,1.693 42.65,1.898 42.47,2.055 42.30,2.211 42.08,2.303 41.86,2.395 41.62,2.412 41.39,2.429 41.16,2.370 40.93,2.311 40.73,2.182 40.53,2.052 40.38,1.866 40.24,1.680 40.16,1.457 40.08,1.234 40.07,0.997 40.07,0.760 40.14,0.535 40.21,0.309 40.35,0.118 40.49,-0.074 40.69,-0.210 40.88,-0.347 41.11,-0.414 41.33,-0.482 41.57,-0.473 41.81,-0.465 42.03,-0.381 42.25,-0.297 42.43,-0.147 42.62,0.003 42.74,0.203 42.87,0.404 42.92,0.635 42.98,0.865 42.96,1.101 42.94,1.337 42.84,1.554 42.74,1.770 42.59,1.945 42.43,2.120 42.22,2.235 42.01,2.350 41.78,2.392 41.54,2.435 41.54,2.435 41.55,2.435 37.50,2.417 33.46,2.398 30.45,2.362 27.44,2.326 24.44,2.389 21.44,2.452 18.48,2.629 15.52,2.807 12.71,3.062 9.90,3.317 7.67,3.707 5.43,4.097 4.19,5.536 2.95,6.976 2.85,8.497 2.76,10.018 2.63,11.638 2.50,13.257 2.37,14.874 2.24,16.492 2.22,18.104 2.19,19.716 2.28,21.292 2.37,22.868 2.54,24.294 2.71,25.720 3.09,26.940 3.46,28.161 5.28,29.454 7.09,30.747 10.03,30.835 12.97,30.923 15.98,31.033 18.99,31.143 22.00,31.252 25.01,31.360 28.01,31.370 31.02,31.379 33.98,31.272 36.95,31.165 39.76,30.975 42.57,30.785 44.80,30.444 47.03,30.103 48.26,28.651 49.50,27.199 49.59,25.604 49.68,24.009 49.81,22.317 49.94,20.625 50.06,18.934 50.19,17.243 50.21,15.559 50.24,13.874 50.14,12.224 50.05,10.574 49.88,9.073 49.71,7.573 49.34,6.306 48.97,5.039 47.22,3.767 45.47,2.496 42.74,2.479 40.01,2.463 37.77,2.411 35.52,2.359 35.37,2.343 35.21,2.328 35.07,2.276 34.92,2.224 34.80,2.138 34.67,2.053 34.56,1.940 34.46,1.826 34.38,1.691 34.31,1.556 34.27,1.407 34.23,1.258 34.23,1.104 34.23,0.950 34.26,0.800 34.29,0.649 34.36,0.511 34.43,0.374 34.53,0.257 34.63,0.139 34.76,0.049 34.88,-0.040 35.03,-0.098 35.17,-0.155 35.32,-0.176 Z" fill="#717d8a" stroke="#717d8a" stroke-width="2" pointer-events="none"/></g><g id="91bdd7c5-d02a-4257-3f57-3d16f7917e46_svg" class="tl-centered-g" transform="translate(1219.64, 430.33) rotate(0.00, 26.34, 16.56)"><path d="M35.838,1.032Q35.838,1.032 38.18,1.058 40.52,1.084 43.46,1.117 46.40,1.149 48.64,2.648 50.88,4.146 51.40,5.729 51.93,7.313 52.01,8.918 52.10,10.523 52.07,12.134 52.04,13.745 51.99,15.357 51.93,16.969 51.87,18.582 51.81,20.194 51.74,21.807 51.68,23.419 51.61,25.032 51.55,26.644 50.04,28.546 48.53,30.447 45.88,30.921 43.22,31.394 40.26,31.504 37.31,31.613 34.28,31.630 31.25,31.647 28.21,31.640 25.16,31.633 22.11,31.620 19.06,31.607 16.00,31.592 12.95,31.578 9.90,31.563 6.84,31.548 4.57,30.054 2.30,28.561 1.71,26.963 1.11,25.366 0.94,23.743 0.76,22.119 0.70,20.489 0.64,18.859 0.60,17.227 0.57,15.595 0.54,13.963 0.51,12.330 0.48,10.698 0.45,9.065 0.43,7.433 0.40,5.800 1.88,3.894 3.37,1.988 6.09,1.528 8.81,1.068 11.85,0.976 14.88,0.885 18.00,0.888 21.12,0.890 24.26,0.917 27.40,0.944 30.54,0.977 33.68,1.010 37.90,1.056 " fill="#404a53" pointer-events="none"/><path d="M35.853,-0.247Q35.853,-0.247 38.19,-0.313 40.54,-0.380 43.55,-0.418 46.57,-0.455 49.25,1.250 51.94,2.955 52.63,4.911 53.32,6.867 53.35,8.662 53.37,10.456 53.25,12.109 53.13,13.763 53.08,15.385 53.02,17.006 53.05,18.625 53.08,20.244 53.11,21.861 53.14,23.478 53.13,25.186 53.13,26.895 51.35,29.258 49.58,31.622 46.52,32.229 43.47,32.836 40.41,32.863 37.36,32.891 34.31,32.815 31.26,32.740 28.21,32.733 25.16,32.726 22.10,32.806 19.05,32.886 16.00,32.964 12.94,33.042 9.82,33.098 6.69,33.154 3.98,31.470 1.27,29.785 0.50,27.827 -0.261,25.868 -0.382,24.061 -0.503,22.254 -0.476,20.578 -0.450,18.901 -0.486,17.260 -0.522,15.619 -0.644,13.986 -0.766,12.353 -0.885,10.721 -1.005,9.089 -1.086,7.343 -1.167,5.597 0.58,3.205 2.34,0.813 5.45,0.218 8.57,-0.376 11.71,-0.385 14.85,-0.393 17.98,-0.298 21.12,-0.202 24.26,-0.176 27.40,-0.149 30.55,-0.209 33.70,-0.269 37.92,-0.316 42.14,-0.362 42.37,-0.322 42.61,-0.281 42.81,-0.167 43.02,-0.054 43.18,0.120 43.34,0.293 43.44,0.509 43.54,0.726 43.56,0.961 43.59,1.197 43.53,1.428 43.48,1.659 43.35,1.860 43.23,2.062 43.05,2.213 42.87,2.365 42.64,2.450 42.42,2.535 42.19,2.545 41.95,2.556 41.72,2.490 41.49,2.424 41.30,2.289 41.11,2.154 40.96,1.963 40.82,1.773 40.75,1.548 40.68,1.323 40.68,1.086 40.68,0.849 40.76,0.625 40.84,0.402 40.98,0.215 41.13,0.028 41.33,-0.103 41.52,-0.234 41.75,-0.295 41.98,-0.356 42.22,-0.340 42.45,-0.325 42.67,-0.235 42.89,-0.144 43.07,0.011 43.25,0.166 43.37,0.371 43.49,0.575 43.54,0.807 43.59,1.039 43.56,1.274 43.53,1.509 43.43,1.723 43.33,1.937 43.16,2.107 43.00,2.277 42.79,2.386 42.58,2.495 42.34,2.530 42.11,2.566 42.11,2.566 42.11,2.566 37.89,2.427 33.67,2.288 30.53,2.162 27.39,2.037 24.25,2.010 21.12,1.983 18.02,2.073 14.92,2.163 11.99,2.337 9.05,2.512 6.73,2.837 4.40,3.162 3.19,4.583 1.97,6.003 1.95,7.522 1.92,9.041 1.85,10.675 1.79,12.308 1.72,13.939 1.66,15.571 1.69,17.194 1.73,18.816 1.88,20.401 2.04,21.985 2.26,23.424 2.48,24.864 2.91,26.100 3.33,27.336 5.17,28.639 7.00,29.942 9.98,30.028 12.96,30.114 16.01,30.221 19.06,30.328 22.11,30.434 25.16,30.540 28.21,30.547 31.25,30.554 34.26,30.445 37.26,30.336 40.11,30.144 42.96,29.952 45.23,29.612 47.49,29.272 48.73,27.833 49.97,26.394 50.09,24.877 50.21,23.361 50.37,21.753 50.53,20.144 50.68,18.538 50.84,16.932 50.89,15.329 50.95,13.727 50.88,12.159 50.82,10.591 50.68,9.175 50.53,7.758 50.18,6.548 49.83,5.337 48.03,4.045 46.24,2.754 43.37,2.651 40.50,2.548 38.16,2.429 35.82,2.310 35.67,2.290 35.51,2.270 35.37,2.214 35.23,2.157 35.10,2.068 34.98,1.980 34.87,1.863 34.77,1.747 34.70,1.609 34.63,1.472 34.60,1.322 34.56,1.172 34.56,1.018 34.57,0.864 34.61,0.714 34.64,0.565 34.72,0.430 34.79,0.294 34.89,0.180 35.00,0.066 35.12,-0.021 35.25,-0.107 35.40,-0.160 35.54,-0.213 35.70,-0.230 Z" fill="#717d8a" stroke="#717d8a" stroke-width="2" pointer-events="none"/></g><g id="dd035c38-b491-4412-3177-cc1af4fb82f8_svg" class="tl-centered-g" transform="translate(1286.76, 430.42) rotate(0.00, 26.34, 16.56)"><path d="M0.919,12.018Q0.919,12.018 0.87,10.785 0.82,9.553 0.76,8.006 0.71,6.459 2.18,4.574 3.66,2.690 6.32,2.213 8.99,1.735 11.96,1.617 14.93,1.498 17.98,1.471 21.03,1.444 24.09,1.440 27.16,1.436 30.23,1.438 33.31,1.440 36.38,1.444 39.46,1.448 42.53,1.452 45.60,1.456 47.88,2.947 50.15,4.438 50.74,6.052 51.33,7.666 51.48,9.311 51.64,10.956 51.69,12.609 51.74,14.263 51.76,15.918 51.78,17.573 51.79,19.229 51.80,20.885 51.81,22.541 51.82,24.197 51.83,25.852 51.84,27.508 50.36,29.421 48.87,31.333 46.24,31.816 43.61,32.300 40.68,32.419 37.76,32.538 34.76,32.564 31.77,32.590 28.75,32.593 25.74,32.596 22.71,32.592 19.69,32.588 16.67,32.583 13.65,32.578 10.63,32.573 7.61,32.567 5.34,31.076 3.08,29.585 2.46,27.972 1.84,26.359 1.63,24.715 1.43,23.071 1.33,21.419 1.23,19.767 1.16,18.113 1.09,16.459 1.02,14.805 0.96,13.151 0.87,10.930 " fill="#404a53" pointer-events="none"/><path d="M-0.358,12.066Q-0.358,12.066 -0.497,10.837 -0.636,9.608 -0.746,7.937 -0.856,6.266 0.88,3.892 2.61,1.518 5.67,0.906 8.73,0.294 11.81,0.257 14.88,0.220 17.95,0.286 21.02,0.351 24.09,0.347 27.16,0.343 30.23,0.253 33.31,0.162 36.38,0.073 39.46,-0.016 42.61,-0.083 45.75,-0.150 48.47,1.535 51.18,3.220 51.95,5.198 52.71,7.177 52.81,9.006 52.91,10.835 52.87,12.533 52.83,14.231 52.85,15.896 52.87,17.560 52.97,19.218 53.08,20.875 53.18,22.531 53.29,24.187 53.35,25.952 53.42,27.718 51.67,30.109 49.92,32.501 46.89,33.120 43.87,33.740 40.84,33.778 37.81,33.816 34.80,33.749 31.78,33.683 28.76,33.686 25.74,33.688 22.71,33.778 19.69,33.867 16.67,33.955 13.65,34.043 10.55,34.108 7.45,34.173 4.76,32.495 2.06,30.817 1.26,28.846 0.47,26.876 0.31,25.052 0.16,23.229 0.15,21.531 0.14,19.832 0.07,18.169 0.00,16.507 -0.157,14.853 -0.314,13.200 -0.491,10.982 -0.668,8.764 -0.639,8.529 -0.609,8.294 -0.506,8.081 -0.403,7.868 -0.238,7.698 -0.072,7.529 0.13,7.421 0.35,7.314 0.58,7.279 0.81,7.245 1.05,7.287 1.28,7.329 1.49,7.444 1.70,7.558 1.86,7.733 2.02,7.907 2.11,8.124 2.21,8.340 2.23,8.576 2.25,8.812 2.20,9.043 2.14,9.273 2.02,9.474 1.89,9.675 1.71,9.826 1.52,9.976 1.30,10.060 1.08,10.144 0.85,10.153 0.61,10.162 0.38,10.095 0.15,10.028 -0.035,9.892 -0.229,9.755 -0.370,9.564 -0.510,9.374 -0.582,9.148 -0.654,8.922 -0.650,8.685 -0.646,8.448 -0.566,8.225 -0.487,8.002 -0.341,7.816 -0.194,7.629 0.00,7.500 0.20,7.370 0.43,7.310 0.66,7.251 0.89,7.268 1.13,7.284 1.35,7.376 1.57,7.467 1.74,7.623 1.92,7.780 2.04,7.985 2.16,8.190 2.21,8.422 2.25,8.654 2.25,8.654 2.25,8.654 2.25,10.877 2.24,13.101 2.21,14.757 2.18,16.412 2.25,18.057 2.32,19.702 2.51,21.307 2.70,22.913 2.95,24.377 3.21,25.842 3.66,27.097 4.11,28.353 5.93,29.657 7.76,30.962 10.70,31.038 13.65,31.114 16.67,31.212 19.70,31.310 22.71,31.406 25.73,31.503 28.75,31.500 31.76,31.498 34.73,31.379 37.71,31.261 40.53,31.060 43.34,30.859 45.58,30.512 47.82,30.165 49.04,28.732 50.27,27.299 50.31,25.753 50.36,24.206 50.44,22.550 50.52,20.894 50.60,19.240 50.68,17.586 50.66,15.940 50.64,14.294 50.51,12.686 50.37,11.078 50.16,9.616 49.95,8.155 49.53,6.905 49.12,5.656 47.29,4.359 45.45,3.062 42.45,2.987 39.45,2.912 36.38,2.816 33.31,2.719 30.23,2.624 27.16,2.529 24.10,2.533 21.04,2.536 18.01,2.656 14.98,2.775 12.11,2.976 9.25,3.177 6.97,3.519 4.70,3.862 3.49,5.257 2.27,6.652 2.28,8.075 2.29,9.498 2.24,10.734 2.19,11.970 2.18,12.124 2.17,12.277 2.12,12.423 2.07,12.569 1.99,12.699 1.90,12.829 1.79,12.936 1.68,13.042 1.55,13.119 1.41,13.196 1.26,13.238 1.12,13.281 0.96,13.286 0.81,13.292 0.66,13.261 0.51,13.230 0.37,13.163 0.23,13.097 0.11,12.999 -0.005,12.901 -0.098,12.778 -0.190,12.654 -0.250,12.512 -0.310,12.370 -0.334,12.218 Z" fill="#717d8a" stroke="#717d8a" stroke-width="2" pointer-events="none"/></g><g id="f42d5f6b-4327-44ab-1640-11c9cc745c14_svg" class="tl-centered-g" transform="translate(888.91, 236.02) rotate(0.00, 235.06, 38.34)"><g pointer-events="none" stroke="#717d8a" stroke-width="4.23" stroke-linecap="round"><line x1="2.11" y1="2.11" x2="468.01" y2="2.11" stroke-dasharray="0.03 6.52" stroke-dashoffset="0"/><line x1="468.01" y1="2.11" x2="468.01" y2="74.56" stroke-dasharray="0.03 6.55" stroke-dashoffset="0"/><line x1="468.01" y1="74.56" x2="2.11" y2="74.56" stroke-dasharray="0.03 6.52" stroke-dashoffset="0"/><line x1="2.11" y1="74.56" x2="2.11" y2="2.11" stroke-dasharray="0.03 6.55" stroke-dashoffset="0"/></g></g><g id="8f43d12e-e3c6-406e-3d3a-b36b7b3a725a_svg" class="tl-centered-g" transform="translate(889.63, 322.68) rotate(0.00, 235.06, 38.34)"><g pointer-events="none" stroke="#ebbb38" stroke-width="4.23" stroke-linecap="round"><line x1="2.11" y1="2.11" x2="468.01" y2="2.11" stroke-dasharray="0.03 6.52" stroke-dashoffset="0"/><line x1="468.01" y1="2.11" x2="468.01" y2="74.56" stroke-dasharray="0.03 6.55" stroke-dashoffset="0"/><line x1="468.01" y1="74.56" x2="2.11" y2="74.56" stroke-dasharray="0.03 6.52" stroke-dashoffset="0"/><line x1="2.11" y1="74.56" x2="2.11" y2="2.11" stroke-dasharray="0.03 6.55" stroke-dashoffset="0"/></g></g><g id="3e4372d5-6878-449d-3819-9a7fc19226b1_svg" class="tl-centered-g" transform="translate(890.09, 410.72) rotate(0.00, 235.06, 38.34)"><g pointer-events="none" stroke="#717d8a" stroke-width="4.23" stroke-linecap="round"><line x1="2.11" y1="2.11" x2="468.01" y2="2.11" stroke-dasharray="0.03 6.52" stroke-dashoffset="0"/><line x1="468.01" y1="2.11" x2="468.01" y2="74.56" stroke-dasharray="0.03 6.55" stroke-dashoffset="0"/><line x1="468.01" y1="74.56" x2="2.11" y2="74.56" stroke-dasharray="0.03 6.52" stroke-dashoffset="0"/><line x1="2.11" y1="74.56" x2="2.11" y2="2.11" stroke-dasharray="0.03 6.55" stroke-dashoffset="0"/></g></g><text font-size="42.76877581826886px" font-family="Caveat Brush" font-weight="normal" line-height="42.76877581826886px" letter-spacing="-0.03em" text-align="left" dominant-baseline="mathematical" alignment-baseline="mathematical" text-anchor="start" fill="#ebbb38" transform="translate(106.63, 45.35) rotate(353.41, 71.00, 26.50)"><tspan y="21.38438790913443px" x="4">New Page
</tspan></text><g id="fbf70151-ea84-4b31-36b4-22eed8781415_svg" class="tl-centered-g" transform="translate(186.10, 95.03) rotate(0.00, 8.04, 18.58)"><defs><mask id="fbf70151-ea84-4b31-36b4-22eed8781415_clip"><rect x="-100" y="-100" width="216.07" height="237.16" fill="white"/><rect x="8.03" y="18.58" width="0" height="0" rx="2" ry="2" fill="black" opacity="1"/></mask></defs><g pointer-events="none" opacity="1" mask=""><path d="M0.960,-0.415Q0.960,-0.415 2.84,4.012 4.72,8.438 6.61,12.862 8.50,17.286 10.40,21.708 12.29,26.129 14.19,30.549 16.09,34.969 16.13,35.110 16.16,35.250 16.15,35.394 16.14,35.539 16.08,35.672 16.03,35.805 15.93,35.912 15.83,36.020 15.71,36.092 15.58,36.163 15.44,36.191 15.30,36.218 15.15,36.199 15.01,36.180 14.88,36.116 14.75,36.052 14.65,35.950 14.55,35.847 14.48,35.718 14.42,35.588 14.40,35.445 14.38,35.302 14.40,35.160 14.43,35.017 14.50,34.891 14.57,34.765 14.68,34.668 14.79,34.572 14.92,34.514 15.05,34.457 15.20,34.445 15.34,34.433 15.48,34.467 15.62,34.502 15.75,34.580 15.87,34.657 15.96,34.770 16.05,34.883 16.10,35.018 16.15,35.154 16.15,35.299 16.16,35.444 16.12,35.582 16.07,35.720 15.99,35.838 15.91,35.956 15.79,36.040 15.67,36.125 15.53,36.168 15.39,36.210 15.25,36.207 15.10,36.203 14.97,36.153 14.83,36.104 14.72,36.013 14.61,35.923 14.53,35.801 14.45,35.679 14.45,35.679 14.45,35.679 12.53,31.268 10.61,26.857 8.69,22.448 6.76,18.038 4.83,13.631 2.91,9.224 0.97,4.820 -0.960,0.415 -0.996,0.294 -1.031,0.173 -1.037,0.047 -1.043,-0.079 -1.018,-0.202 -0.994,-0.326 -0.940,-0.440 -0.887,-0.554 -0.808,-0.652 -0.729,-0.750 -0.628,-0.827 -0.528,-0.903 -0.412,-0.953 -0.296,-1.003 -0.172,-1.024 -0.048,-1.045 0.07,-1.035 0.20,-1.026 0.32,-0.987 0.44,-0.947 0.55,-0.880 0.65,-0.814 0.74,-0.723 0.83,-0.633 0.89,-0.524 Z" fill="#ebbb38" stroke="#ebbb38" stroke-width="2.11" stroke-dasharray="none" stroke-dashoffset="none" stroke-linecap="round" stroke-linejoin="round" pointer-events="stroke"/><g><path d="M 17.62,23.75449866512342 L 16.07,37.16 5.23,29.111165331790083" fill="none" stroke="#ebbb38" stroke-width="4.23" stroke-linecap="round" stroke-linejoin="round" pointer-events="none"/></g></g></g><g id="b598b2f7-1941-41fe-1b94-809aa513ef87_svg" class="tl-centered-g" transform="translate(864.73, 208.74) rotate(0.00, 263.49, 151.96)"><path d="M527.295,90.955Q527.295,90.955 527.27,97.406 527.24,103.857 527.22,111.952 527.20,120.048 527.18,128.564 527.16,137.079 527.18,145.701 527.19,154.324 527.25,162.973 527.31,171.623 527.36,180.279 527.42,188.935 527.48,197.594 527.53,206.252 527.59,214.910 527.65,223.569 527.70,232.228 527.76,240.887 527.81,249.545 527.87,258.204 527.93,266.863 527.98,275.522 528.04,284.203 528.09,292.884 526.22,297.123 524.36,301.362 517.44,302.542 510.52,303.722 502.54,303.953 494.56,304.184 486.32,304.229 478.08,304.273 469.76,304.272 461.45,304.270 453.12,304.257 444.79,304.244 436.45,304.228 428.12,304.212 419.78,304.195 411.44,304.178 403.10,304.161 394.77,304.144 386.43,304.127 378.09,304.110 369.75,304.093 361.42,304.075 353.08,304.058 344.74,304.041 336.40,304.024 328.07,304.007 319.73,303.990 311.39,303.973 303.05,303.956 294.72,303.939 286.38,303.921 278.04,303.904 269.70,303.908 261.37,303.912 253.03,303.937 244.69,303.962 236.35,303.987 228.02,304.011 219.68,304.036 211.34,304.061 203.00,304.086 194.67,304.111 186.33,304.136 177.99,304.160 169.65,304.185 161.32,304.210 152.98,304.235 144.64,304.260 136.30,304.284 127.97,304.309 119.63,304.334 111.29,304.359 102.95,304.384 94.62,304.409 86.28,304.433 77.94,304.458 69.60,304.483 61.27,304.508 52.93,304.533 44.59,304.558 36.25,304.582 27.92,304.607 19.55,304.627 11.19,304.647 7.04,302.776 2.88,300.904 1.74,293.764 0.61,286.625 0.41,278.378 0.21,270.132 0.19,261.606 0.17,253.081 0.19,244.480 0.22,235.879 0.26,227.259 0.29,218.639 0.33,210.013 0.37,201.388 0.41,192.761 0.45,184.134 0.49,175.507 0.53,166.880 0.54,158.253 0.54,149.626 0.50,140.999 0.47,132.372 0.43,123.745 0.40,115.118 0.36,106.490 0.33,97.863 0.29,89.236 0.26,80.609 0.22,71.982 0.18,63.354 0.15,54.727 0.11,46.100 0.08,37.473 0.04,28.846 0.01,20.196 -0.016,11.547 1.85,7.319 3.71,3.091 10.63,1.899 17.54,0.707 25.51,0.460 33.48,0.214 41.71,0.152 49.94,0.091 58.24,0.075 66.54,0.059 74.86,0.055 83.18,0.051 91.51,0.049 99.83,0.048 108.16,0.047 116.48,0.047 124.81,0.047 133.14,0.046 141.46,0.046 149.79,0.046 158.12,0.045 166.44,0.045 174.77,0.045 183.09,0.044 191.42,0.044 199.75,0.044 208.07,0.044 216.40,0.043 224.72,0.043 233.05,0.043 241.38,0.042 249.70,0.042 258.03,0.021 266.36,-0.000 274.68,-0.043 283.01,-0.085 291.33,-0.127 299.66,-0.169 307.99,-0.211 316.31,-0.254 324.64,-0.296 332.96,-0.338 341.29,-0.380 349.62,-0.423 357.94,-0.465 366.27,-0.507 374.59,-0.549 382.92,-0.591 391.25,-0.634 399.57,-0.676 407.90,-0.718 416.22,-0.760 424.55,-0.802 432.88,-0.845 441.20,-0.887 449.53,-0.929 457.85,-0.971 466.18,-1.014 474.51,-1.056 482.83,-1.098 491.16,-1.140 499.48,-1.182 507.83,-1.220 516.19,-1.257 520.34,0.609 524.50,2.475 525.65,9.637 526.80,16.799 527.02,25.074 527.24,33.350 527.28,41.906 527.32,50.463 527.31,59.095 527.31,67.728 527.29,76.380 527.28,85.032 527.26,93.689 527.24,102.346 527.22,111.005 527.20,119.663 527.18,128.322 527.16,136.981 527.18,145.640 527.19,154.299 527.25,162.957 527.31,171.616 527.37,183.239 527.43,194.861 527.40,195.052 527.37,195.242 527.28,195.412 527.19,195.583 527.05,195.716 526.91,195.848 526.74,195.930 526.56,196.011 526.37,196.032 526.18,196.053 525.99,196.012 525.80,195.971 525.64,195.872 525.47,195.773 525.35,195.627 525.22,195.480 525.15,195.301 525.08,195.122 525.07,194.930 525.06,194.737 525.11,194.552 525.16,194.366 525.27,194.206 525.37,194.046 525.53,193.929 525.68,193.812 525.86,193.751 526.05,193.689 526.24,193.688 526.43,193.688 526.61,193.749 526.80,193.810 526.95,193.927 527.10,194.043 527.21,194.202 527.32,194.362 527.37,194.547 527.42,194.733 527.41,194.925 527.40,195.118 527.33,195.297 527.26,195.476 527.14,195.623 527.01,195.770 526.85,195.870 526.68,195.970 526.50,196.011 526.31,196.053 526.12,196.033 525.92,196.012 525.75,195.932 525.57,195.851 525.43,195.719 525.29,195.586 525.20,195.416 525.11,195.246 525.08,195.056 525.05,194.866 525.05,194.866 525.05,194.866 525.06,183.244 525.08,171.621 525.10,162.962 525.12,154.303 525.10,145.644 525.08,136.985 525.02,128.327 524.97,119.668 524.91,111.010 524.85,102.351 524.80,93.695 524.74,85.038 524.68,76.388 524.62,67.738 524.55,59.113 524.48,50.489 524.36,41.965 524.24,33.442 523.96,25.333 523.68,17.224 522.96,10.727 522.24,4.230 519.17,3.127 516.10,2.024 507.80,2.029 499.49,2.034 491.17,2.034 482.84,2.034 474.51,2.035 466.19,2.035 457.86,2.035 449.54,2.035 441.21,2.036 432.88,2.036 424.56,2.036 416.23,2.037 407.91,2.037 399.58,2.037 391.25,2.037 382.93,2.038 374.60,2.038 366.27,2.038 357.95,2.038 349.62,2.039 341.30,2.039 332.97,2.039 324.64,2.040 316.32,2.040 307.99,2.040 299.67,2.040 291.34,2.041 283.01,2.041 274.69,2.041 266.36,2.042 258.03,2.063 249.71,2.084 241.38,2.126 233.06,2.169 224.73,2.211 216.40,2.253 208.08,2.295 199.75,2.337 191.43,2.380 183.10,2.422 174.77,2.464 166.45,2.506 158.12,2.549 149.80,2.591 141.47,2.633 133.14,2.675 124.82,2.718 116.49,2.760 108.17,2.802 99.84,2.845 91.52,2.888 83.19,2.931 74.88,2.977 66.56,3.024 58.26,3.081 49.97,3.139 41.78,3.242 33.58,3.344 25.79,3.617 18.00,3.890 11.74,4.612 5.49,5.333 4.38,8.485 3.26,11.637 3.23,20.242 3.19,28.847 3.15,37.474 3.11,46.101 3.07,54.728 3.03,63.355 2.98,71.983 2.94,80.610 2.90,89.237 2.86,97.864 2.82,106.491 2.78,115.118 2.74,123.745 2.70,132.373 2.66,141.000 2.62,149.627 2.61,158.254 2.61,166.881 2.65,175.508 2.68,184.135 2.72,192.762 2.75,201.388 2.79,210.013 2.83,218.638 2.87,227.257 2.91,235.875 2.96,244.469 3.01,253.062 3.10,261.554 3.20,270.046 3.46,278.126 3.73,286.205 4.43,292.680 5.14,299.154 8.21,300.260 11.29,301.366 19.60,301.379 27.91,301.391 36.25,301.408 44.59,301.425 52.93,301.442 61.26,301.460 69.60,301.477 77.94,301.494 86.28,301.511 94.61,301.528 102.95,301.545 111.29,301.562 119.63,301.579 127.97,301.596 136.30,301.614 144.64,301.631 152.98,301.648 161.32,301.665 169.65,301.682 177.99,301.699 186.33,301.716 194.67,301.733 203.00,301.750 211.34,301.768 219.68,301.785 228.02,301.802 236.35,301.819 244.69,301.836 253.03,301.853 261.37,301.870 269.70,301.866 278.04,301.862 286.38,301.838 294.72,301.813 303.05,301.788 311.39,301.763 319.73,301.738 328.07,301.713 336.40,301.689 344.74,301.664 353.08,301.639 361.42,301.614 369.75,301.589 378.09,301.565 386.43,301.540 394.77,301.515 403.10,301.490 411.44,301.465 419.78,301.440 428.11,301.415 436.45,301.389 444.79,301.363 453.11,301.334 461.44,301.306 469.75,301.265 478.05,301.225 486.26,301.139 494.46,301.053 502.27,300.796 510.07,300.539 516.33,299.827 522.59,299.115 523.70,295.958 524.81,292.801 524.82,284.165 524.84,275.528 524.86,266.869 524.88,258.210 524.90,249.551 524.92,240.893 524.94,232.234 524.96,223.575 524.98,214.916 525.00,206.257 525.02,197.599 525.04,188.940 525.06,180.284 525.08,171.627 525.10,162.978 525.12,154.328 525.10,145.706 525.08,137.083 525.03,128.568 524.97,120.053 524.91,111.957 524.86,103.862 524.81,97.411 524.76,90.960 524.77,90.808 524.79,90.657 524.85,90.514 524.90,90.371 524.99,90.245 525.07,90.119 525.19,90.017 525.30,89.916 525.44,89.844 525.57,89.773 525.72,89.736 525.87,89.699 526.02,89.699 526.17,89.699 526.32,89.735 526.47,89.771 526.61,89.842 526.74,89.913 526.86,90.014 526.97,90.115 527.06,90.240 527.14,90.366 527.20,90.509 527.25,90.651 527.27,90.803 Z" fill="#ebbb38" stroke="#ebbb38" stroke-width="2" pointer-events="none"/></g><text font-size="24.691597337491604px" font-family="Caveat Brush" font-weight="normal" line-height="24.691597337491604px" letter-spacing="-0.03em" text-align="left" dominant-baseline="mathematical" alignment-baseline="mathematical" text-anchor="start" fill="#cecece" transform="translate(630.67, 126.08) rotate(0.00, 29.50, 17.50)"><tspan y="12.345798668745802px" x="4">server
</tspan></text><text font-size="40.991072963420784px" font-family="Caveat Brush" font-weight="normal" line-height="40.991072963420784px" letter-spacing="-0.03em" text-align="left" dominant-baseline="mathematical" alignment-baseline="mathematical" text-anchor="start" fill="#ebbb38" transform="translate(628.36, 90.63) rotate(0.00, 122.00, 25.50)"><tspan y="20.495536481710392px" x="4">Remix Framework
</tspan></text><g id="085a3087-b8e6-4b09-1c32-5660b98f54f4_svg" class="tl-centered-g" transform="translate(612.54, 360.93) rotate(0.00, 111.48, 0.50)"><defs><mask id="085a3087-b8e6-4b09-1c32-5660b98f54f4_clip"><rect x="-100" y="-100" width="422.96" height="201" fill="white"/><rect x="111.48" y="0.02" width="0" height="0" rx="4" ry="4" fill="black" opacity="1"/></mask></defs><g pointer-events="none" opacity="1" mask=""><path d="M0.000,-0.992Q0.000,-0.992 27.62,-0.955 55.24,-0.918 82.86,-0.889 110.48,-0.861 138.10,-0.838 165.72,-0.816 193.34,-0.798 220.96,-0.780 221.09,-0.759 221.22,-0.737 221.33,-0.675 221.45,-0.613 221.54,-0.517 221.63,-0.420 221.69,-0.300 221.75,-0.180 221.76,-0.048 221.77,0.084 221.75,0.214 221.72,0.343 221.65,0.457 221.58,0.571 221.48,0.656 221.38,0.742 221.25,0.791 221.13,0.840 221.00,0.848 220.87,0.855 220.74,0.819 220.61,0.784 220.50,0.709 220.39,0.635 220.31,0.529 220.23,0.423 220.19,0.298 220.15,0.172 220.15,0.039 220.15,-0.093 220.19,-0.219 220.23,-0.345 220.31,-0.450 220.39,-0.556 220.50,-0.630 220.61,-0.705 220.74,-0.740 220.87,-0.775 221.00,-0.768 221.13,-0.761 221.26,-0.712 221.38,-0.663 221.48,-0.577 221.58,-0.491 221.65,-0.377 221.72,-0.264 221.75,-0.134 221.77,-0.004 221.76,0.127 221.75,0.259 221.69,0.380 221.63,0.500 221.54,0.596 221.45,0.693 221.33,0.755 221.22,0.817 221.09,0.838 220.96,0.859 220.96,0.859 220.96,0.859 193.34,0.867 165.72,0.875 138.10,0.888 110.48,0.900 82.86,0.919 55.24,0.938 27.62,0.965 -0.000,0.992 -0.119,0.977 -0.238,0.963 -0.349,0.920 -0.461,0.878 -0.559,0.810 -0.658,0.742 -0.737,0.653 -0.816,0.563 -0.872,0.457 -0.927,0.351 -0.956,0.235 -0.985,0.119 -0.985,-0.000 -0.984,-0.120 -0.956,-0.236 -0.927,-0.352 -0.872,-0.458 -0.816,-0.564 -0.737,-0.653 -0.657,-0.743 -0.559,-0.810 -0.461,-0.878 -0.349,-0.921 -0.237,-0.963 -0.118,-0.977 Z" fill="#ebbb38" stroke="#ebbb38" stroke-width="2.11" stroke-dasharray="none" stroke-dashoffset="none" stroke-linecap="round" stroke-linejoin="round" pointer-events="stroke"/><g><path d="M 209.10,-7.962485771191255 L 222.96,0.04 209.10,8.037513971321301" fill="none" stroke="#ebbb38" stroke-width="4.23" stroke-linecap="round" stroke-linejoin="round" pointer-events="none"/></g></g></g><text font-size="28px" font-family="Caveat Brush" font-weight="normal" line-height="28px" letter-spacing="-0.03em" text-align="center" dominant-baseline="mathematical" alignment-baseline="mathematical" text-anchor="middle" fill="#ebbb38" transform="translate(594.38, 278.56) rotate(0.00, 126.50, 33.00)"><tspan y="14px" x="130.5">the manifest file
</tspan><tspan y="42px" x="130.5">
tells us all about that path
</tspan></text></svg>