<svg xmlns="http://www.w3.org/2000/svg" viewBox="0 0 1504 688" width="1472" height="656" style="background-color: transparent;"><defs><style>@import url('https://fonts.googleapis.com/css2?family=Caveat+Brush&amp;family=Source+Code+Pro&amp;family=Source+Sans+Pro&amp;family=Crimson+Pro&amp;display=block');</style></defs><g id="c286159d-3cd8-4d6d-2ca8-8004c36d8abf_svg" class="tl-centered-g" transform="translate(16.00, 16.00) rotate(0.00, 736.00, 328.00)"><g pointer-events="none" stroke="transparent" stroke-width="4.23" stroke-linecap="round"><line x1="2.11" y1="2.11" x2="1469.88" y2="2.11" stroke-dasharray="0.03 6.46" stroke-dashoffset="0"/><line x1="1469.88" y1="2.11" x2="1469.88" y2="653.88" stroke-dasharray="0.03 6.48" stroke-dashoffset="0"/><line x1="1469.88" y1="653.88" x2="2.11" y2="653.88" stroke-dasharray="0.03 6.46" stroke-dashoffset="0"/><line x1="2.11" y1="653.88" x2="2.11" y2="2.11" stroke-dasharray="0.03 6.48" stroke-dashoffset="0"/></g></g><g id="f52a5e6c-4c6b-42ab-27ac-01a9ccb145db_svg" class="tl-centered-g" transform="translate(234.47, 107.42) rotate(0.00, 24.68, 235.26)"><g opacity="1"><path d="M 22.26,0.21 Q 22.26,0.21 21.15,0.48 20.04,0.75 18.93,1.31 17.81,1.88 16.66,2.70 15.50,3.51 14.24,4.50 12.97,5.50 11.78,6.54 10.58,7.59 9.58,8.56 8.58,9.53 7.67,10.50 6.76,11.48 5.95,12.44 5.13,13.40 4.49,14.26 3.85,15.13 3.40,15.93 2.95,16.73 2.66,17.57 2.37,18.41 2.21,19.37 2.04,20.32 1.95,21.02 1.86,21.72 1.88,22.51 1.91,23.29 2.13,24.08 2.35,24.87 2.81,25.68 3.27,26.49 3.92,27.38 4.57,28.26 5.38,29.20 6.19,30.14 7.12,31.11 8.06,32.08 9.05,33.01 10.04,33.94 11.22,34.88 12.39,35.81 13.71,36.72 15.03,37.62 16.27,38.42 17.51,39.22 18.61,39.89 19.71,40.55 20.73,41.13 21.74,41.72 22.70,42.30 23.66,42.88 24.56,43.46 25.46,44.05 26.30,44.62 27.15,45.20 27.93,45.78 28.70,46.35 29.40,46.94 30.09,47.53 30.70,48.17 31.31,48.80 31.82,49.46 32.32,50.13 32.72,50.81 33.12,51.49 33.44,52.24 33.76,53.00 34.00,53.90 34.23,54.80 34.37,55.82 34.51,56.83 34.58,57.85 34.66,58.87 34.58,59.88 34.50,60.89 34.06,62.00 33.62,63.11 32.81,64.36 32.00,65.60 30.99,66.88 29.99,68.16 28.81,69.54 27.63,70.92 25.97,72.70 24.31,74.48 23.12,75.77 21.93,77.07 20.75,78.35 19.57,79.63 18.61,80.72 17.64,81.81 16.84,82.77 16.04,83.74 15.29,84.73 14.54,85.73 13.91,86.72 13.27,87.71 12.74,88.66 12.21,89.60 11.81,90.46 11.42,91.33 11.16,92.19 10.91,93.05 10.76,93.89 10.62,94.73 10.55,95.57 10.47,96.41 10.48,97.25 10.49,98.09 10.70,98.85 10.92,99.60 11.43,100.28 11.94,100.96 12.78,101.65 13.62,102.34 14.76,103.04 15.90,103.75 17.23,104.45 18.55,105.14 20.03,105.86 21.50,106.59 23.08,107.32 24.66,108.05 26.12,108.69 27.57,109.34 28.82,109.89 30.06,110.43 31.23,110.98 32.40,111.53 33.50,112.11 34.60,112.69 35.56,113.24 36.51,113.78 37.27,114.31 38.03,114.84 38.60,115.45 39.17,116.05 39.58,116.73 39.98,117.41 40.23,118.14 40.47,118.88 40.61,119.70 40.74,120.53 40.63,121.46 40.51,122.38 39.95,123.49 39.38,124.60 38.32,125.91 37.25,127.23 35.21,129.19 33.18,131.16 31.62,132.58 30.07,133.99 27.85,135.84 25.63,137.68 23.95,139.05 22.28,140.42 20.71,141.67 19.15,142.92 17.58,144.18 16.00,145.44 14.35,146.81 12.70,148.18 11.43,149.33 10.16,150.48 8.96,151.62 7.76,152.76 6.61,153.93 5.46,155.10 4.65,156.13 3.84,157.16 3.21,158.16 2.59,159.17 2.11,160.13 1.63,161.10 1.29,162.04 0.94,162.98 0.73,163.86 0.52,164.74 0.40,165.52 0.28,166.29 0.22,167.04 0.16,167.79 0.18,168.56 0.20,169.34 0.43,170.06 0.65,170.79 1.15,171.45 1.65,172.12 2.43,172.80 3.22,173.48 4.24,174.23 5.26,174.99 6.45,175.78 7.65,176.58 8.99,177.42 10.34,178.26 11.82,179.20 13.30,180.14 14.81,181.21 16.33,182.27 17.77,183.43 19.22,184.59 20.62,185.95 22.03,187.31 23.31,188.83 24.59,190.34 25.61,191.87 26.64,193.40 27.42,194.95 28.20,196.50 28.77,198.09 29.33,199.69 29.80,201.94 30.27,204.19 30.53,205.83 30.79,207.48 30.94,209.27 31.08,211.05 31.03,212.92 30.97,214.78 30.63,216.61 30.28,218.45 29.68,220.30 29.07,222.14 28.33,223.92 27.58,225.70 26.90,227.16 26.22,228.62 25.49,229.93 24.77,231.24 24.01,232.54 23.25,233.84 22.63,234.93 22.00,236.02 21.52,236.89 21.03,237.77 20.69,238.48 20.35,239.18 20.14,239.78 19.93,240.37 19.82,240.87 19.71,241.36 19.76,241.81 19.81,242.26 20.25,242.73 20.70,243.21 21.58,243.73 22.47,244.24 23.74,244.80 25.02,245.36 26.65,245.95 28.29,246.55 29.98,247.12 31.68,247.70 33.24,248.23 34.80,248.75 36.27,249.28 37.74,249.81 39.14,250.35 40.54,250.89 41.81,251.45 43.08,252.01 44.10,252.57 45.13,253.13 45.91,253.62 46.69,254.11 47.25,254.48 47.81,254.85 48.15,255.08 48.50,255.31 48.69,255.47 48.89,255.63 48.97,255.84 49.06,256.06 48.99,256.53 48.93,257.01 48.64,257.82 48.35,258.63 47.86,259.72 47.36,260.81 46.65,262.09 45.95,263.37 45.07,264.79 44.19,266.21 43.18,267.79 42.17,269.37 40.96,271.13 39.75,272.89 38.41,274.73 37.08,276.57 35.76,278.32 34.45,280.06 33.18,281.66 31.90,283.27 30.69,284.78 29.48,286.29 28.62,287.36 27.75,288.43 26.78,289.63 25.80,290.83 25.16,291.66 24.52,292.50 24.03,293.26 23.54,294.02 23.20,294.69 22.87,295.37 22.65,295.99 22.43,296.62 22.31,297.22 22.19,297.82 22.13,298.41 22.06,299.00 22.19,299.55 22.33,300.10 22.75,300.68 23.16,301.25 23.72,301.88 24.29,302.50 24.99,303.14 25.69,303.79 26.43,304.42 27.17,305.05 27.82,305.68 28.48,306.31 29.08,306.97 29.68,307.62 30.20,308.32 30.73,309.01 31.17,309.81 31.61,310.61 31.93,311.54 32.24,312.48 32.43,313.57 32.62,314.66 32.53,316.08 32.44,317.50 31.79,319.34 31.15,321.19 29.88,323.41 28.62,325.62 26.83,328.12 25.04,330.63 23.08,333.11 21.12,335.59 19.18,337.93 17.23,340.26 15.44,342.40 13.65,344.54 12.09,346.43 10.53,348.31 9.16,349.96 7.79,351.60 6.67,352.97 5.55,354.35 4.70,355.50 3.86,356.65 3.32,357.68 2.78,358.71 2.47,359.65 2.17,360.59 2.19,361.44 2.22,362.30 2.73,363.02 3.24,363.74 4.30,364.51 5.36,365.28 6.69,365.96 8.03,366.65 9.72,367.35 11.40,368.06 13.28,368.84 15.16,369.61 16.94,370.34 18.73,371.07 20.33,371.77 21.93,372.46 23.43,373.13 24.93,373.80 26.34,374.51 27.74,375.22 28.98,376.02 30.21,376.83 31.10,377.66 31.99,378.50 32.52,379.41 33.06,380.32 33.33,381.39 33.61,382.47 33.60,383.77 33.60,385.07 33.19,386.62 32.78,388.16 32.07,389.76 31.36,391.36 30.58,392.83 29.81,394.30 29.01,395.72 28.21,397.13 27.41,398.54 26.61,399.95 25.91,401.27 25.22,402.59 24.66,403.87 24.10,405.15 23.68,406.43 23.27,407.71 23.01,408.90 22.76,410.09 22.67,411.17 22.59,412.25 22.77,413.24 22.96,414.23 23.48,415.18 24.00,416.13 24.77,417.03 25.54,417.93 26.40,418.70 27.26,419.48 28.09,420.13 28.93,420.78 29.70,421.34 30.48,421.91 31.23,422.48 31.99,423.05 32.66,423.76 33.33,424.48 33.74,425.05 34.14,425.62 34.40,426.28 34.66,426.94 34.80,427.75 34.94,428.56 34.85,429.62 34.77,430.69 34.34,431.91 33.91,433.13 33.35,434.32 32.79,435.51 32.20,436.69 31.60,437.86 30.92,439.13 30.23,440.40 29.54,441.67 28.86,442.94 28.31,444.07 27.75,445.20 27.33,446.19 26.91,447.19 26.64,448.19 26.36,449.19 26.21,450.25 26.05,451.32 25.97,452.39 25.88,453.47 25.84,454.55 25.79,455.63 25.76,456.72 25.74,457.80 25.75,458.87 25.75,459.94 25.82,461.03 25.89,462.11 26.00,463.16 26.12,464.21 26.25,465.13 26.38,466.05 26.52,466.80 26.65,467.56 26.77,468.15 26.88,468.74 27.04,469.63 27.21,470.53 27.21,470.53" fill="none" stroke="none" stroke-width="4" stroke-linejoin="round" stroke-linecap="round" pointer-events="none"/><path d="M 22.26,0.21 Q 22.26,0.21 21.15,0.48 20.04,0.75 18.93,1.31 17.81,1.88 16.66,2.70 15.50,3.51 14.24,4.50 12.97,5.50 11.78,6.54 10.58,7.59 9.58,8.56 8.58,9.53 7.67,10.50 6.76,11.48 5.95,12.44 5.13,13.40 4.49,14.26 3.85,15.13 3.40,15.93 2.95,16.73 2.66,17.57 2.37,18.41 2.21,19.37 2.04,20.32 1.95,21.02 1.86,21.72 1.88,22.51 1.91,23.29 2.13,24.08 2.35,24.87 2.81,25.68 3.27,26.49 3.92,27.38 4.57,28.26 5.38,29.20 6.19,30.14 7.12,31.11 8.06,32.08 9.05,33.01 10.04,33.94 11.22,34.88 12.39,35.81 13.71,36.72 15.03,37.62 16.27,38.42 17.51,39.22 18.61,39.89 19.71,40.55 20.73,41.13 21.74,41.72 22.70,42.30 23.66,42.88 24.56,43.46 25.46,44.05 26.30,44.62 27.15,45.20 27.93,45.78 28.70,46.35 29.40,46.94 30.09,47.53 30.70,48.17 31.31,48.80 31.82,49.46 32.32,50.13 32.72,50.81 33.12,51.49 33.44,52.24 33.76,53.00 34.00,53.90 34.23,54.80 34.37,55.82 34.51,56.83 34.58,57.85 34.66,58.87 34.58,59.88 34.50,60.89 34.06,62.00 33.62,63.11 32.81,64.36 32.00,65.60 30.99,66.88 29.99,68.16 28.81,69.54 27.63,70.92 25.97,72.70 24.31,74.48 23.12,75.77 21.93,77.07 20.75,78.35 19.57,79.63 18.61,80.72 17.64,81.81 16.84,82.77 16.04,83.74 15.29,84.73 14.54,85.73 13.91,86.72 13.27,87.71 12.74,88.66 12.21,89.60 11.81,90.46 11.42,91.33 11.16,92.19 10.91,93.05 10.76,93.89 10.62,94.73 10.55,95.57 10.47,96.41 10.48,97.25 10.49,98.09 10.70,98.85 10.92,99.60 11.43,100.28 11.94,100.96 12.78,101.65 13.62,102.34 14.76,103.04 15.90,103.75 17.23,104.45 18.55,105.14 20.03,105.86 21.50,106.59 23.08,107.32 24.66,108.05 26.12,108.69 27.57,109.34 28.82,109.89 30.06,110.43 31.23,110.98 32.40,111.53 33.50,112.11 34.60,112.69 35.56,113.24 36.51,113.78 37.27,114.31 38.03,114.84 38.60,115.45 39.17,116.05 39.58,116.73 39.98,117.41 40.23,118.14 40.47,118.88 40.61,119.70 40.74,120.53 40.63,121.46 40.51,122.38 39.95,123.49 39.38,124.60 38.32,125.91 37.25,127.23 35.21,129.19 33.18,131.16 31.62,132.58 30.07,133.99 27.85,135.84 25.63,137.68 23.95,139.05 22.28,140.42 20.71,141.67 19.15,142.92 17.58,144.18 16.00,145.44 14.35,146.81 12.70,148.18 11.43,149.33 10.16,150.48 8.96,151.62 7.76,152.76 6.61,153.93 5.46,155.10 4.65,156.13 3.84,157.16 3.21,158.16 2.59,159.17 2.11,160.13 1.63,161.10 1.29,162.04 0.94,162.98 0.73,163.86 0.52,164.74 0.40,165.52 0.28,166.29 0.22,167.04 0.16,167.79 0.18,168.56 0.20,169.34 0.43,170.06 0.65,170.79 1.15,171.45 1.65,172.12 2.43,172.80 3.22,173.48 4.24,174.23 5.26,174.99 6.45,175.78 7.65,176.58 8.99,177.42 10.34,178.26 11.82,179.20 13.30,180.14 14.81,181.21 16.33,182.27 17.77,183.43 19.22,184.59 20.62,185.95 22.03,187.31 23.31,188.83 24.59,190.34 25.61,191.87 26.64,193.40 27.42,194.95 28.20,196.50 28.77,198.09 29.33,199.69 29.80,201.94 30.27,204.19 30.53,205.83 30.79,207.48 30.94,209.27 31.08,211.05 31.03,212.92 30.97,214.78 30.63,216.61 30.28,218.45 29.68,220.30 29.07,222.14 28.33,223.92 27.58,225.70 26.90,227.16 26.22,228.62 25.49,229.93 24.77,231.24 24.01,232.54 23.25,233.84 22.63,234.93 22.00,236.02 21.52,236.89 21.03,237.77 20.69,238.48 20.35,239.18 20.14,239.78 19.93,240.37 19.82,240.87 19.71,241.36 19.76,241.81 19.81,242.26 20.25,242.73 20.70,243.21 21.58,243.73 22.47,244.24 23.74,244.80 25.02,245.36 26.65,245.95 28.29,246.55 29.98,247.12 31.68,247.70 33.24,248.23 34.80,248.75 36.27,249.28 37.74,249.81 39.14,250.35 40.54,250.89 41.81,251.45 43.08,252.01 44.10,252.57 45.13,253.13 45.91,253.62 46.69,254.11 47.25,254.48 47.81,254.85 48.15,255.08 48.50,255.31 48.69,255.47 48.89,255.63 48.97,255.84 49.06,256.06 48.99,256.53 48.93,257.01 48.64,257.82 48.35,258.63 47.86,259.72 47.36,260.81 46.65,262.09 45.95,263.37 45.07,264.79 44.19,266.21 43.18,267.79 42.17,269.37 40.96,271.13 39.75,272.89 38.41,274.73 37.08,276.57 35.76,278.32 34.45,280.06 33.18,281.66 31.90,283.27 30.69,284.78 29.48,286.29 28.62,287.36 27.75,288.43 26.78,289.63 25.80,290.83 25.16,291.66 24.52,292.50 24.03,293.26 23.54,294.02 23.20,294.69 22.87,295.37 22.65,295.99 22.43,296.62 22.31,297.22 22.19,297.82 22.13,298.41 22.06,299.00 22.19,299.55 22.33,300.10 22.75,300.68 23.16,301.25 23.72,301.88 24.29,302.50 24.99,303.14 25.69,303.79 26.43,304.42 27.17,305.05 27.82,305.68 28.48,306.31 29.08,306.97 29.68,307.62 30.20,308.32 30.73,309.01 31.17,309.81 31.61,310.61 31.93,311.54 32.24,312.48 32.43,313.57 32.62,314.66 32.53,316.08 32.44,317.50 31.79,319.34 31.15,321.19 29.88,323.41 28.62,325.62 26.83,328.12 25.04,330.63 23.08,333.11 21.12,335.59 19.18,337.93 17.23,340.26 15.44,342.40 13.65,344.54 12.09,346.43 10.53,348.31 9.16,349.96 7.79,351.60 6.67,352.97 5.55,354.35 4.70,355.50 3.86,356.65 3.32,357.68 2.78,358.71 2.47,359.65 2.17,360.59 2.19,361.44 2.22,362.30 2.73,363.02 3.24,363.74 4.30,364.51 5.36,365.28 6.69,365.96 8.03,366.65 9.72,367.35 11.40,368.06 13.28,368.84 15.16,369.61 16.94,370.34 18.73,371.07 20.33,371.77 21.93,372.46 23.43,373.13 24.93,373.80 26.34,374.51 27.74,375.22 28.98,376.02 30.21,376.83 31.10,377.66 31.99,378.50 32.52,379.41 33.06,380.32 33.33,381.39 33.61,382.47 33.60,383.77 33.60,385.07 33.19,386.62 32.78,388.16 32.07,389.76 31.36,391.36 30.58,392.83 29.81,394.30 29.01,395.72 28.21,397.13 27.41,398.54 26.61,399.95 25.91,401.27 25.22,402.59 24.66,403.87 24.10,405.15 23.68,406.43 23.27,407.71 23.01,408.90 22.76,410.09 22.67,411.17 22.59,412.25 22.77,413.24 22.96,414.23 23.48,415.18 24.00,416.13 24.77,417.03 25.54,417.93 26.40,418.70 27.26,419.48 28.09,420.13 28.93,420.78 29.70,421.34 30.48,421.91 31.23,422.48 31.99,423.05 32.66,423.76 33.33,424.48 33.74,425.05 34.14,425.62 34.40,426.28 34.66,426.94 34.80,427.75 34.94,428.56 34.85,429.62 34.77,430.69 34.34,431.91 33.91,433.13 33.35,434.32 32.79,435.51 32.20,436.69 31.60,437.86 30.92,439.13 30.23,440.40 29.54,441.67 28.86,442.94 28.31,444.07 27.75,445.20 27.33,446.19 26.91,447.19 26.64,448.19 26.36,449.19 26.21,450.25 26.05,451.32 25.97,452.39 25.88,453.47 25.84,454.55 25.79,455.63 25.76,456.72 25.74,457.80 25.75,458.87 25.75,459.94 25.82,461.03 25.89,462.11 26.00,463.16 26.12,464.21 26.25,465.13 26.38,466.05 26.52,466.80 26.65,467.56 26.77,468.15 26.88,468.74 27.04,469.63 27.21,470.53 27.21,470.53" fill="none" stroke="#717d8a" stroke-width="4" stroke-dasharray="0.1 8" stroke-dashoffset="0" stroke-linejoin="round" stroke-linecap="round" pointer-events="none"/></g></g><g text-align="left" text-anchor="start" fill="#cecece" transform="translate(312.17, 83.24) rotate(0.00, 29.50, 17.50)"><text y="14" letter-spacing="-0.84" font-size="28px" font-family="Caveat Brush" text-align="left" alignment-baseline="central" transform="scale(0.8818427620532716)">server</text></g><g text-align="left" text-anchor="start" fill="#ebbb38" transform="translate(309.86, 47.79) rotate(0.00, 122.00, 25.50)"><text y="14" letter-spacing="-0.84" font-size="28px" font-family="Caveat Brush" text-align="left" alignment-baseline="central" transform="scale(1.4639668915507422)">Remix Framework</text></g><g id="ab98bf68-d43d-4339-23db-2cbc4fc1e1d9_svg" class="tl-centered-g" transform="translate(831.07, 54.74) rotate(0.00, 104.61, 51.63)"><path d="M 121.68,102.19 Q 121.68,102.19 115.48,102.17 109.28,102.15 101.50,102.12 93.72,102.09 85.53,102.06 77.35,102.04 69.06,102.01 60.77,101.98 52.46,101.95 44.14,101.92 35.82,101.89 27.50,101.86 19.18,101.83 10.86,101.80 7.24,100.30 3.63,98.81 2.70,93.51 1.78,88.22 1.53,81.95 1.29,75.69 1.22,69.18 1.15,62.67 1.13,56.09 1.10,49.52 1.09,42.93 1.08,36.34 1.07,29.74 1.06,23.15 1.05,16.56 1.04,9.96 2.53,6.79 4.01,3.62 10.58,2.77 17.14,1.93 25.00,1.68 32.86,1.43 41.05,1.33 49.24,1.23 57.52,1.18 65.79,1.12 74.09,1.07 82.38,1.02 90.68,0.97 98.98,0.92 107.29,0.88 115.59,0.83 123.89,0.78 132.19,0.74 140.50,0.69 148.80,0.64 157.10,0.60 165.40,0.55 173.71,0.50 182.01,0.46 190.31,0.41 198.62,0.37 202.22,1.84 205.83,3.32 206.78,8.71 207.74,14.10 208.01,20.48 208.29,26.86 208.39,33.50 208.49,40.14 208.55,46.84 208.61,53.54 208.66,60.26 208.71,66.98 208.75,73.71 208.80,80.43 208.84,87.15 208.89,93.88 207.41,97.08 205.93,100.29 199.35,101.08 192.77,101.88 184.89,102.06 177.02,102.24 168.81,102.27 160.60,102.29 152.30,102.28 144.01,102.26 135.69,102.23 127.38,102.21 119.06,102.18 110.73,102.15 102.41,102.12 94.09,102.09 82.92,102.05" fill="#345246" pointer-events="none"/><path d="M 121.68,103.30 Q 121.68,103.30 115.48,103.22 109.28,103.15 101.50,103.17 93.71,103.20 85.53,103.23 77.34,103.25 69.06,103.28 60.77,103.30 52.45,103.33 44.14,103.35 35.82,103.38 27.50,103.40 19.15,103.42 10.80,103.44 6.67,101.60 2.54,99.76 1.44,94.11 0.33,88.47 0.17,82.10 0.01,75.74 0.04,69.21 0.06,62.68 0.04,56.10 0.01,49.52 -0.09,42.93 -0.19,36.34 -0.29,29.75 -0.40,23.15 -0.49,16.52 -0.59,9.90 1.26,6.19 3.12,2.48 10.03,1.44 16.95,0.40 24.88,0.20 32.82,0.00 41.02,-0.04 49.23,-0.08 57.50,-0.09 65.78,-0.09 74.08,-0.09 82.37,-0.08 90.68,-0.08 98.98,-0.07 107.28,-0.17 115.58,-0.27 123.88,-0.37 132.19,-0.47 140.49,-0.57 148.79,-0.67 157.09,-0.77 165.40,-0.87 173.70,-0.97 182.00,-1.07 190.33,-1.17 198.65,-1.27 202.79,0.55 206.92,2.37 208.05,8.11 209.18,13.84 209.37,20.33 209.56,26.81 209.57,33.47 209.59,40.12 209.64,46.83 209.70,53.54 209.84,60.25 209.99,66.97 210.12,73.70 210.26,80.42 210.39,87.18 210.52,93.94 208.67,97.68 206.81,101.43 199.88,102.42 192.96,103.41 185.00,103.54 177.05,103.68 168.83,103.65 160.60,103.62 152.30,103.55 144.01,103.48 135.69,103.40 127.37,103.32 119.05,103.23 110.73,103.15 102.41,103.18 94.09,103.20 82.91,103.22 71.74,103.23 71.55,103.20 71.35,103.17 71.18,103.07 71.01,102.98 70.87,102.84 70.74,102.70 70.65,102.52 70.57,102.34 70.55,102.14 70.53,101.95 70.57,101.75 70.62,101.56 70.72,101.39 70.82,101.22 70.97,101.10 71.12,100.97 71.30,100.90 71.49,100.83 71.68,100.82 71.88,100.81 72.07,100.86 72.26,100.91 72.42,101.02 72.58,101.14 72.70,101.29 72.82,101.45 72.88,101.64 72.95,101.82 72.95,102.02 72.95,102.22 72.88,102.40 72.82,102.59 72.70,102.75 72.58,102.90 72.42,103.01 72.25,103.12 72.06,103.17 71.87,103.23 71.68,103.21 71.48,103.20 71.30,103.13 71.11,103.06 70.96,102.93 70.81,102.80 70.71,102.63 70.61,102.46 70.57,102.27 70.53,102.08 70.55,101.88 70.57,101.69 70.66,101.51 70.74,101.33 70.88,101.19 71.01,101.04 71.19,100.95 71.36,100.86 71.56,100.83 71.75,100.80 71.75,100.80 71.75,100.80 82.92,100.89 94.09,100.99 102.42,101.07 110.74,101.15 119.06,101.13 127.38,101.10 135.70,101.07 144.01,101.04 152.30,101.00 160.59,100.97 168.79,100.89 176.98,100.81 184.79,100.58 192.59,100.35 198.82,99.75 205.05,99.15 206.15,96.49 207.25,93.82 207.29,87.13 207.33,80.44 207.38,73.72 207.43,66.99 207.47,60.27 207.52,53.55 207.46,46.86 207.40,40.16 207.20,33.54 207.01,26.92 206.65,20.63 206.29,14.35 205.52,9.31 204.74,4.27 201.66,3.14 198.58,2.01 190.30,2.00 182.02,2.00 173.72,1.99 165.41,1.98 157.11,1.98 148.81,1.97 140.50,1.96 132.20,1.95 123.90,1.94 115.59,1.94 107.29,1.93 98.99,1.92 90.69,2.02 82.39,2.12 74.09,2.23 65.80,2.33 57.53,2.45 49.26,2.56 41.08,2.71 32.91,2.86 25.12,3.16 17.34,3.46 11.13,4.11 4.91,4.75 3.79,7.39 2.67,10.02 2.60,16.59 2.52,23.15 2.44,29.74 2.36,36.34 2.28,42.93 2.20,49.51 2.22,56.08 2.24,62.65 2.41,69.15 2.57,75.64 2.89,81.80 3.22,87.97 3.97,92.91 4.72,97.86 7.82,99.01 10.91,100.16 19.21,100.24 27.51,100.32 35.83,100.40 44.15,100.49 52.46,100.57 60.78,100.65 69.06,100.74 77.35,100.82 85.54,100.90 93.72,100.98 101.50,101.07 109.29,101.15 115.49,101.12 121.69,101.08 121.82,101.10 121.95,101.12 122.08,101.16 122.20,101.21 122.31,101.29 122.42,101.36 122.51,101.46 122.60,101.56 122.66,101.68 122.72,101.80 122.75,101.93 122.78,102.06 122.78,102.19 122.78,102.33 122.75,102.46 122.72,102.59 122.66,102.71 122.59,102.82 122.51,102.92 122.42,103.02 122.31,103.10 122.20,103.17 122.07,103.22 121.95,103.27 121.81,103.28 Z" fill="#36a64c" stroke="#36a64c" stroke-width="2" pointer-events="none"/></g><g id="416764a8-b0bd-498d-2f12-17867017f9d2_svg" class="tl-centered-g" transform="translate(975.66, 334.57) rotate(0.00, 104.61, 51.63)"><path d="M 120.77,102.49 Q 120.77,102.49 114.60,102.47 108.43,102.46 100.69,102.44 92.95,102.42 84.81,102.40 76.67,102.38 68.43,102.36 60.19,102.34 51.92,102.32 43.65,102.30 35.37,102.28 27.10,102.26 18.82,102.24 10.54,102.22 6.94,100.72 3.34,99.23 2.42,93.88 1.50,88.52 1.27,82.19 1.03,75.85 0.97,69.26 0.91,62.68 0.89,56.03 0.88,49.37 0.87,42.71 0.87,36.04 0.86,29.37 0.86,22.70 0.86,16.02 0.86,9.35 2.35,6.16 3.84,2.97 10.41,2.16 16.99,1.36 24.86,1.16 32.73,0.97 40.93,0.93 49.13,0.89 57.42,0.89 65.70,0.89 74.01,0.90 82.32,0.91 90.63,0.92 98.94,0.93 107.26,0.94 115.57,0.96 123.89,0.97 132.20,0.98 140.52,1.00 148.83,1.01 157.15,1.02 165.46,1.03 173.78,1.05 182.09,1.06 190.41,1.07 198.72,1.09 202.33,2.58 205.94,4.07 206.82,9.43 207.69,14.80 207.87,21.14 208.04,27.49 208.04,34.09 208.04,40.69 207.99,47.35 207.95,54.01 207.89,60.69 207.83,67.37 207.77,74.06 207.71,80.74 207.65,87.43 207.59,94.11 206.08,97.30 204.58,100.50 198.02,101.30 191.47,102.10 183.64,102.29 175.80,102.48 167.63,102.51 159.47,102.54 151.22,102.54 142.97,102.53 134.70,102.51 126.43,102.50 118.15,102.48 109.88,102.46 101.60,102.44 93.32,102.42 82.21,102.39" fill="#345246" pointer-events="none"/><path d="M 120.76,103.59 Q 120.76,103.59 114.60,103.53 108.43,103.46 100.69,103.49 92.95,103.53 84.81,103.56 76.67,103.60 68.43,103.63 60.18,103.66 51.92,103.70 43.65,103.73 35.37,103.77 27.09,103.80 18.79,103.83 10.49,103.86 6.37,102.02 2.25,100.17 1.15,94.47 0.06,88.77 -0.08,82.33 -0.23,75.90 -0.20,69.29 -0.17,62.69 -0.19,56.03 -0.21,49.38 -0.30,42.71 -0.40,36.04 -0.50,29.37 -0.59,22.70 -0.68,15.99 -0.77,9.29 1.09,5.56 2.95,1.83 9.88,0.83 16.80,-0.16 24.75,-0.31 32.69,-0.45 40.91,-0.44 49.13,-0.43 57.41,-0.37 65.70,-0.32 74.01,-0.26 82.32,-0.19 90.63,-0.13 98.95,-0.06 107.26,-0.10 115.57,-0.14 123.89,-0.18 132.20,-0.22 140.52,-0.27 148.83,-0.31 157.15,-0.35 165.46,-0.39 173.78,-0.43 182.09,-0.47 190.43,-0.51 198.77,-0.54 202.91,1.30 207.04,3.15 208.09,8.85 209.14,14.56 209.23,21.01 209.32,27.46 209.23,34.07 209.13,40.69 209.09,47.36 209.04,54.02 209.08,60.70 209.11,67.38 209.14,74.07 209.17,80.75 209.20,87.47 209.22,94.19 207.34,97.91 205.46,101.64 198.56,102.63 191.66,103.63 183.75,103.77 175.83,103.91 167.65,103.89 159.47,103.87 151.22,103.81 142.97,103.75 134.70,103.68 126.43,103.61 118.15,103.53 109.87,103.46 101.60,103.49 93.32,103.53 82.21,103.56 71.10,103.58 70.90,103.55 70.71,103.52 70.54,103.43 70.36,103.33 70.23,103.19 70.09,103.05 70.01,102.87 69.93,102.69 69.91,102.49 69.89,102.30 69.93,102.11 69.97,101.91 70.07,101.74 70.18,101.58 70.33,101.45 70.48,101.32 70.66,101.25 70.84,101.18 71.04,101.17 71.23,101.16 71.42,101.21 71.61,101.26 71.78,101.37 71.94,101.49 72.06,101.64 72.18,101.80 72.24,101.99 72.30,102.17 72.30,102.37 72.30,102.57 72.24,102.75 72.17,102.94 72.05,103.10 71.93,103.25 71.77,103.36 71.61,103.47 71.42,103.52 71.23,103.58 71.03,103.56 70.84,103.55 70.65,103.48 70.47,103.41 70.32,103.28 70.17,103.15 70.07,102.98 69.97,102.81 69.93,102.62 69.89,102.43 69.91,102.23 69.93,102.04 70.01,101.86 70.10,101.68 70.23,101.54 70.37,101.40 70.54,101.30 70.71,101.21 70.91,101.18 71.10,101.15 71.10,101.15 71.10,101.15 82.21,101.23 93.32,101.31 101.60,101.39 109.88,101.46 118.16,101.42 126.43,101.39 134.70,101.35 142.97,101.31 151.22,101.27 159.46,101.22 167.61,101.13 175.76,101.04 183.53,100.81 191.29,100.57 197.49,99.96 203.69,99.36 204.82,96.70 205.95,94.03 206.10,87.38 206.25,80.73 206.40,74.05 206.55,67.36 206.70,60.68 206.86,54.01 206.90,47.35 206.95,40.69 206.86,34.11 206.77,27.53 206.50,21.28 206.24,15.03 205.54,10.02 204.84,5.00 201.75,3.86 198.67,2.73 190.38,2.67 182.09,2.60 173.77,2.54 165.46,2.47 157.14,2.40 148.83,2.33 140.51,2.27 132.20,2.20 123.89,2.13 115.57,2.07 107.26,2.00 98.94,1.93 90.63,1.97 82.32,2.02 74.01,2.06 65.70,2.10 57.42,2.16 49.14,2.21 40.95,2.31 32.76,2.40 24.97,2.65 17.17,2.89 10.95,3.50 4.72,4.11 3.61,6.76 2.49,9.42 2.41,16.06 2.33,22.70 2.24,29.37 2.15,36.04 2.06,42.71 1.97,49.37 1.99,56.02 2.00,62.67 2.16,69.24 2.31,75.80 2.63,82.04 2.95,88.28 3.69,93.28 4.44,98.29 7.52,99.43 10.60,100.58 18.85,100.65 27.10,100.72 35.38,100.79 43.65,100.87 51.92,100.94 60.19,101.01 68.43,101.09 76.68,101.16 84.82,101.24 92.96,101.31 100.70,101.38 108.44,101.46 114.60,101.42 120.77,101.38 120.90,101.39 121.03,101.41 121.16,101.46 121.28,101.51 121.39,101.58 121.50,101.66 121.59,101.76 121.68,101.86 121.74,101.98 121.80,102.10 121.84,102.23 121.87,102.36 121.87,102.49 121.87,102.62 121.83,102.75 121.80,102.88 121.74,103.00 121.68,103.12 121.59,103.22 121.50,103.32 121.39,103.39 121.28,103.47 121.15,103.52 121.03,103.56 120.90,103.58 Z" fill="#36a64c" stroke="#36a64c" stroke-width="2" pointer-events="none"/></g><g text-align="left" text-anchor="start" fill="#cecece" transform="translate(848.28, 81.59) rotate(0.00, 86.50, 23.50)"><text y="24" letter-spacing="-1.44" font-size="48px" font-family="Caveat Brush" text-align="left" alignment-baseline="central" transform="scale(0.7747093953293803)">MainLayout()</text></g><g id="3f8d38c3-0f4f-48f2-0d87-66faaa538530_svg" class="tl-centered-g" transform="translate(716.12, 334.53) rotate(0.00, 104.61, 51.63)"><path d="M 120.90,102.87 Q 120.90,102.87 114.70,102.86 108.49,102.85 100.70,102.84 92.92,102.83 84.72,102.82 76.53,102.81 68.24,102.80 59.94,102.79 51.62,102.78 43.30,102.77 34.97,102.76 26.64,102.75 18.31,102.74 9.98,102.73 6.37,101.24 2.75,99.75 1.89,94.37 1.03,89.00 0.88,82.64 0.72,76.28 0.74,69.66 0.76,63.05 0.83,56.37 0.90,49.69 0.97,43.00 1.05,36.30 1.13,29.60 1.22,22.90 1.30,16.20 1.38,9.50 2.89,6.30 4.40,3.11 10.94,2.28 17.47,1.45 25.29,1.22 33.11,0.99 41.25,0.92 49.39,0.85 57.62,0.82 65.84,0.79 74.09,0.76 82.34,0.74 90.59,0.72 98.84,0.70 107.10,0.68 115.35,0.66 123.61,0.65 131.86,0.63 140.12,0.61 148.37,0.59 156.63,0.57 164.88,0.55 173.14,0.53 181.39,0.51 189.65,0.50 197.90,0.48 201.49,1.96 205.09,3.45 206.04,8.85 206.99,14.26 207.27,20.67 207.55,27.08 207.65,33.74 207.76,40.41 207.82,47.13 207.88,53.86 207.94,60.61 207.99,67.35 208.03,74.10 208.08,80.85 208.13,87.60 208.18,94.35 206.70,97.56 205.22,100.77 198.64,101.58 192.05,102.40 184.17,102.59 176.29,102.79 168.07,102.84 159.85,102.88 151.55,102.88 143.25,102.89 134.93,102.88 126.60,102.87 118.27,102.86 109.95,102.85 101.62,102.84 93.29,102.83 82.10,102.82" fill="#404a53" pointer-events="none"/><path d="M 120.90,103.98 Q 120.90,103.98 114.70,103.92 108.49,103.85 100.70,103.90 92.91,103.94 84.72,103.99 76.53,104.03 68.23,104.07 59.94,104.12 51.62,104.16 43.30,104.21 34.97,104.25 26.64,104.29 18.29,104.33 9.93,104.37 5.79,102.52 1.65,100.67 0.62,94.95 -0.40,89.23 -0.48,82.77 -0.55,76.31 -0.44,69.68 -0.32,63.05 -0.25,56.36 -0.19,49.68 -0.20,42.98 -0.22,36.29 -0.23,29.59 -0.24,22.88 -0.24,16.15 -0.24,9.42 1.63,5.69 3.50,1.97 10.39,0.94 17.28,-0.07 25.17,-0.25 33.06,-0.43 41.22,-0.45 49.38,-0.46 57.61,-0.44 65.84,-0.42 74.09,-0.39 82.34,-0.36 90.59,-0.32 98.84,-0.29 107.10,-0.36 115.35,-0.43 123.60,-0.51 131.86,-0.58 140.11,-0.65 148.37,-0.73 156.62,-0.80 164.88,-0.87 173.13,-0.94 181.39,-1.02 189.67,-1.09 197.94,-1.15 202.06,0.67 206.18,2.50 207.31,8.25 208.44,14.01 208.63,20.52 208.83,27.02 208.84,33.71 208.85,40.39 208.92,47.12 208.98,53.85 209.12,60.60 209.26,67.34 209.41,74.09 209.55,80.84 209.68,87.62 209.81,94.41 207.96,98.16 206.11,101.91 199.17,102.92 192.24,103.93 184.28,104.08 176.32,104.23 168.09,104.22 159.86,104.21 151.55,104.15 143.25,104.10 134.93,104.04 126.60,103.98 118.27,103.92 109.94,103.85 101.61,103.90 93.28,103.94 82.10,103.98 70.92,104.02 70.73,103.99 70.53,103.96 70.36,103.87 70.18,103.77 70.05,103.63 69.91,103.49 69.83,103.31 69.75,103.13 69.73,102.94 69.71,102.74 69.75,102.55 69.79,102.36 69.89,102.19 70.00,102.02 70.15,101.89 70.30,101.76 70.48,101.69 70.66,101.62 70.86,101.61 71.06,101.60 71.25,101.65 71.43,101.70 71.60,101.81 71.76,101.92 71.88,102.08 72.00,102.24 72.06,102.42 72.12,102.61 72.12,102.81 72.12,103.01 72.06,103.19 72.00,103.38 71.88,103.53 71.76,103.69 71.59,103.80 71.43,103.91 71.24,103.96 71.05,104.02 70.86,104.01 70.66,103.99 70.48,103.92 70.29,103.85 70.14,103.72 69.99,103.59 69.89,103.42 69.79,103.26 69.75,103.06 69.71,102.87 69.73,102.68 69.75,102.48 69.83,102.30 69.92,102.12 70.05,101.98 70.19,101.84 70.36,101.75 70.54,101.65 70.73,101.62 70.92,101.59 70.92,101.59 70.92,101.59 82.11,101.66 93.29,101.73 101.62,101.79 109.95,101.85 118.28,101.81 126.60,101.76 134.93,101.72 143.25,101.67 151.55,101.61 159.84,101.56 168.05,101.46 176.25,101.36 184.06,101.11 191.87,100.87 198.10,100.25 204.34,99.63 205.44,96.96 206.54,94.30 206.58,87.58 206.62,80.86 206.66,74.11 206.71,67.36 206.75,60.62 206.79,53.87 206.73,47.15 206.67,40.42 206.47,33.78 206.27,27.13 205.91,20.82 205.55,14.51 204.77,9.46 204.00,4.40 200.93,3.26 197.86,2.12 189.62,2.09 181.39,2.06 173.14,2.02 164.88,1.99 156.63,1.95 148.37,1.91 140.12,1.88 131.86,1.84 123.61,1.81 115.36,1.77 107.10,1.74 98.85,1.70 90.59,1.78 82.34,1.85 74.10,1.93 65.85,2.00 57.63,2.09 49.40,2.18 41.28,2.30 33.15,2.43 25.41,2.70 17.67,2.98 11.48,3.61 5.30,4.24 4.16,6.91 3.02,9.58 2.85,16.25 2.68,22.92 2.51,29.62 2.33,36.32 2.16,43.01 1.99,49.70 1.92,56.38 1.85,63.05 1.92,69.65 2.00,76.25 2.24,82.51 2.48,88.77 3.17,93.80 3.86,98.82 6.95,99.96 10.03,101.09 18.34,101.15 26.64,101.21 34.97,101.27 43.30,101.34 51.62,101.40 59.94,101.47 68.24,101.53 76.53,101.60 84.72,101.66 92.92,101.73 100.71,101.79 108.49,101.85 114.70,101.81 120.91,101.76 121.04,101.78 121.17,101.79 121.30,101.84 121.42,101.89 121.53,101.96 121.64,102.04 121.73,102.14 121.82,102.24 121.88,102.36 121.94,102.48 121.97,102.61 122.01,102.74 122.01,102.87 122.01,103.00 121.97,103.13 121.94,103.26 121.88,103.38 121.82,103.50 121.73,103.60 121.64,103.70 121.53,103.77 121.42,103.85 121.29,103.90 121.17,103.94 121.04,103.96 Z" fill="#717d8a" stroke="#717d8a" stroke-width="2" pointer-events="none"/></g><g text-align="left" text-anchor="start" fill="#717d8a" transform="translate(724.82, 365.48) rotate(0.00, 96.00, 21.00)"><text y="24" letter-spacing="-1.44" font-size="48px" font-family="Caveat Brush" text-align="left" alignment-baseline="central" transform="scale(0.6668748179236411)">BrowseProducts()</text></g><g id="a8bdcf4e-f436-4d46-341d-e05e7221903e_svg" class="tl-centered-g" transform="translate(774.41, 487.79) rotate(0.00, 54.72, 30.13)"><path d="M 108.79,40.58 Q 108.79,40.58 108.79,43.28 108.79,45.98 108.80,49.37 108.80,52.76 107.32,55.11 105.83,57.47 100.17,58.10 94.50,58.73 87.78,58.91 81.05,59.10 74.06,59.18 67.06,59.26 59.99,59.30 52.93,59.35 45.84,59.39 38.76,59.43 31.67,59.47 24.58,59.51 17.49,59.55 10.40,59.59 7.11,58.11 3.81,56.63 2.94,53.55 2.08,50.47 1.84,46.98 1.59,43.49 1.51,39.90 1.42,36.31 1.38,32.69 1.34,29.07 1.30,25.44 1.27,21.82 1.24,18.19 1.21,14.56 1.18,10.93 1.14,7.31 2.63,4.89 4.11,2.47 9.79,1.83 15.47,1.19 22.21,1.00 28.96,0.81 35.98,0.74 43.01,0.66 50.10,0.62 57.19,0.57 64.30,0.53 71.41,0.49 78.52,0.46 85.63,0.42 92.75,0.39 99.86,0.35 103.17,1.83 106.47,3.31 107.32,6.39 108.16,9.47 108.38,12.96 108.60,16.44 108.66,20.03 108.72,23.62 108.74,27.24 108.76,30.85 108.77,34.48 108.78,38.10 108.79,42.96" fill="#404a53" pointer-events="none"/><path d="M 110.06,40.58 Q 110.06,40.58 110.16,43.28 110.26,45.98 110.34,49.44 110.41,52.89 108.59,55.76 106.77,58.63 100.72,59.41 94.67,60.18 87.88,60.28 81.09,60.38 74.08,60.37 67.07,60.35 60.00,60.40 52.93,60.45 45.85,60.58 38.77,60.71 31.68,60.84 24.59,60.98 17.47,61.10 10.35,61.23 6.58,59.49 2.80,57.75 1.74,54.30 0.67,50.86 0.49,47.22 0.32,43.58 0.33,39.96 0.33,36.33 0.29,32.71 0.24,29.08 0.12,25.45 -0.00,21.83 -0.12,18.20 -0.25,14.57 -0.35,10.88 -0.46,7.19 1.35,4.25 3.17,1.31 9.24,0.52 15.30,-0.25 22.11,-0.36 28.93,-0.46 35.96,-0.44 42.99,-0.42 50.09,-0.47 57.18,-0.51 64.29,-0.64 71.40,-0.77 78.51,-0.90 85.63,-1.03 92.77,-1.15 99.91,-1.28 103.70,0.45 107.48,2.20 108.53,5.64 109.58,9.09 109.73,12.72 109.88,16.36 109.85,19.98 109.82,23.60 109.84,27.22 109.85,30.85 109.96,34.47 110.06,38.10 110.16,42.96 110.26,47.83 110.22,48.06 110.19,48.29 110.07,48.50 109.96,48.71 109.79,48.88 109.62,49.04 109.41,49.14 109.19,49.24 108.96,49.26 108.72,49.29 108.49,49.24 108.26,49.19 108.05,49.07 107.85,48.95 107.70,48.77 107.54,48.59 107.46,48.37 107.37,48.15 107.35,47.91 107.34,47.67 107.40,47.44 107.47,47.22 107.60,47.02 107.73,46.82 107.92,46.68 108.11,46.54 108.33,46.46 108.56,46.38 108.79,46.38 109.03,46.38 109.26,46.46 109.48,46.53 109.67,46.68 109.86,46.82 109.99,47.02 110.13,47.21 110.19,47.44 110.25,47.67 110.24,47.90 110.23,48.14 110.14,48.36 110.05,48.58 109.90,48.76 109.75,48.94 109.54,49.07 109.34,49.19 109.11,49.24 108.88,49.29 108.64,49.27 108.41,49.24 108.19,49.14 107.98,49.04 107.80,48.88 107.63,48.72 107.52,48.51 107.41,48.30 107.37,48.06 107.33,47.83 107.33,47.83 107.33,47.83 107.42,42.97 107.50,38.10 107.59,34.48 107.67,30.86 107.65,27.25 107.63,23.64 107.48,20.08 107.33,16.52 107.04,13.19 106.75,9.85 106.11,7.14 105.46,4.43 102.64,3.21 99.81,1.99 92.72,1.94 85.64,1.89 78.53,1.83 71.41,1.77 64.30,1.72 57.20,1.66 50.11,1.71 43.02,1.75 36.01,1.92 29.00,2.09 22.31,2.37 15.63,2.65 10.34,3.14 5.05,3.64 3.90,5.53 2.76,7.42 2.71,10.99 2.67,14.55 2.61,18.18 2.55,21.80 2.49,25.43 2.43,29.05 2.47,32.67 2.52,36.28 2.69,39.84 2.87,43.40 3.18,46.74 3.49,50.08 4.15,52.79 4.81,55.50 7.63,56.73 10.46,57.95 17.51,58.00 24.57,58.05 31.66,58.10 38.75,58.16 45.83,58.21 52.92,58.26 59.98,58.21 67.05,58.16 74.03,57.99 81.02,57.82 87.68,57.55 94.34,57.27 99.62,56.79 104.89,56.30 106.04,54.46 107.19,52.62 107.26,49.30 107.33,45.98 107.42,43.28 107.51,40.58 107.53,40.43 107.54,40.27 107.60,40.13 107.65,39.99 107.74,39.86 107.83,39.73 107.94,39.63 108.06,39.53 108.19,39.46 108.33,39.38 108.48,39.35 108.63,39.31 108.78,39.31 108.94,39.31 109.09,39.35 109.24,39.38 109.37,39.45 109.51,39.53 109.63,39.63 109.74,39.73 109.83,39.86 109.92,39.98 109.97,40.13 110.03,40.27 110.05,40.42 Z" fill="#717d8a" stroke="#717d8a" stroke-width="2" pointer-events="none"/></g><g id="62ec64a1-8d0d-41e6-24bf-4737e871140c_svg" class="tl-centered-g" transform="translate(661.64, 556.21) rotate(0.00, 38.33, 23.14)"><path d="M 1.55,15.52 Q 1.55,15.52 1.54,13.66 1.53,11.80 1.52,9.46 1.51,7.12 2.99,5.03 4.48,2.94 8.36,2.41 12.24,1.88 16.73,1.75 21.22,1.62 25.86,1.58 30.50,1.55 35.19,1.54 39.87,1.54 44.57,1.54 49.26,1.54 53.96,1.54 58.65,1.54 63.35,1.54 68.05,1.55 70.73,3.04 73.42,4.53 74.15,6.84 74.87,9.16 75.10,11.69 75.32,14.22 75.42,16.80 75.51,19.38 75.58,21.98 75.64,24.57 75.70,27.17 75.75,29.77 75.81,32.37 75.86,34.97 75.91,37.57 75.96,40.17 74.49,42.33 73.01,44.48 69.11,44.95 65.20,45.43 60.67,45.47 56.15,45.52 51.46,45.45 46.78,45.39 42.05,45.30 37.33,45.21 32.60,45.11 27.86,45.01 23.12,44.91 18.39,44.81 13.65,44.71 8.91,44.61 6.21,43.09 3.51,41.58 2.82,39.33 2.12,37.08 1.93,34.64 1.75,32.20 1.69,29.72 1.63,27.23 1.61,24.73 1.59,22.24 1.57,19.74 1.56,17.23 1.54,13.88" fill="#404a53" pointer-events="none"/><path d="M 0.27,15.53 Q 0.27,15.53 0.17,13.67 0.06,11.80 -0.00,9.37 -0.08,6.94 1.70,4.36 3.49,1.77 7.77,1.10 12.04,0.43 16.61,0.39 21.18,0.34 25.84,0.40 30.50,0.46 35.18,0.45 39.87,0.45 44.56,0.35 49.26,0.26 53.96,0.17 58.65,0.08 63.40,0.00 68.15,-0.07 71.29,1.63 74.44,3.35 75.35,6.04 76.27,8.73 76.43,11.42 76.59,14.11 76.60,16.72 76.60,19.34 76.67,21.94 76.73,24.55 76.88,27.15 77.03,29.74 77.18,32.34 77.32,34.94 77.44,37.63 77.56,40.32 75.77,42.99 73.98,45.65 69.68,46.27 65.37,46.88 60.77,46.84 56.16,46.80 51.46,46.64 46.76,46.48 42.04,46.39 37.31,46.30 32.57,46.30 27.83,46.29 23.09,46.28 18.36,46.27 13.57,46.25 8.78,46.23 5.64,44.49 2.50,42.76 1.61,40.13 0.72,37.50 0.60,34.90 0.47,32.30 0.51,29.78 0.54,27.26 0.52,24.75 0.49,22.25 0.39,19.74 0.28,17.24 0.17,13.88 0.06,10.53 0.10,10.29 0.13,10.06 0.24,9.85 0.35,9.64 0.52,9.48 0.70,9.31 0.91,9.21 1.12,9.11 1.36,9.08 1.59,9.06 1.83,9.11 2.06,9.16 2.26,9.28 2.47,9.40 2.62,9.58 2.77,9.76 2.86,9.98 2.95,10.20 2.97,10.43 2.98,10.67 2.92,10.90 2.86,11.13 2.72,11.32 2.59,11.52 2.40,11.67 2.22,11.81 1.99,11.89 1.77,11.96 1.53,11.96 1.29,11.97 1.07,11.89 0.84,11.82 0.65,11.67 0.46,11.53 0.33,11.34 0.20,11.14 0.13,10.91 0.07,10.68 0.08,10.45 0.09,10.21 0.18,9.99 0.26,9.77 0.42,9.59 0.57,9.41 0.77,9.28 0.97,9.16 1.21,9.11 1.44,9.06 1.67,9.08 1.91,9.11 2.12,9.20 2.34,9.30 2.51,9.47 2.68,9.63 2.80,9.84 2.91,10.04 2.95,10.28 2.99,10.51 2.99,10.51 2.99,10.51 2.91,13.87 2.84,17.23 2.76,19.73 2.68,22.23 2.70,24.72 2.73,27.21 2.87,29.65 3.02,32.10 3.27,34.38 3.52,36.65 4.03,38.53 4.53,40.40 6.78,41.69 9.04,42.98 13.73,43.17 18.42,43.35 23.15,43.54 27.89,43.73 32.62,43.92 37.35,44.12 42.07,44.21 46.79,44.30 51.46,44.27 56.13,44.24 60.58,44.11 65.02,43.97 68.53,43.64 72.05,43.31 73.21,41.67 74.37,40.03 74.38,37.51 74.39,35.00 74.43,32.40 74.47,29.80 74.51,27.20 74.55,24.60 74.48,22.01 74.42,19.42 74.23,16.88 74.05,14.33 73.76,11.96 73.47,9.59 72.94,7.65 72.41,5.71 70.18,4.44 67.95,3.17 63.30,3.09 58.65,3.01 53.96,2.91 49.26,2.82 44.57,2.72 39.87,2.63 35.19,2.64 30.51,2.64 25.88,2.77 21.25,2.89 16.84,3.11 12.44,3.33 8.95,3.72 5.47,4.11 4.29,5.70 3.10,7.29 3.05,9.54 2.99,11.79 2.91,13.65 2.83,15.52 2.81,15.67 2.79,15.82 2.74,15.97 2.68,16.11 2.60,16.24 2.51,16.37 2.39,16.47 2.28,16.57 2.14,16.64 2.01,16.72 1.86,16.75 1.71,16.79 1.55,16.79 1.40,16.79 1.25,16.76 1.10,16.72 0.96,16.65 0.83,16.58 0.71,16.48 0.59,16.37 0.51,16.25 0.42,16.12 0.36,15.98 0.31,15.83 0.29,15.68 Z" fill="#717d8a" stroke="#717d8a" stroke-width="2" pointer-events="none"/></g><g id="715d4339-4a29-4147-2103-46a908c62810_svg" class="tl-centered-g" transform="translate(935.39, 568.15) rotate(0.00, 27.25, 16.91)"><path d="M 1.16,11.35 Q 1.16,11.35 1.15,10.08 1.14,8.80 1.12,7.19 1.11,5.59 2.60,3.69 4.08,1.79 6.83,1.30 9.58,0.81 12.64,0.68 15.71,0.55 18.86,0.51 22.01,0.47 25.18,0.46 28.35,0.44 31.53,0.43 34.71,0.42 37.88,0.41 41.06,0.41 44.24,0.40 47.42,0.39 49.72,1.88 52.02,3.37 52.64,5.02 53.26,6.67 53.45,8.36 53.64,10.05 53.72,11.75 53.81,13.46 53.86,15.16 53.91,16.87 53.96,18.57 54.01,20.28 54.05,21.98 54.10,23.69 54.14,25.40 54.19,27.10 52.71,29.03 51.23,30.95 48.46,31.45 45.70,31.96 42.60,32.10 39.51,32.24 36.33,32.29 33.15,32.34 29.95,32.36 26.75,32.38 23.54,32.40 20.34,32.42 17.13,32.44 13.92,32.45 10.72,32.47 7.51,32.49 5.20,31.00 2.89,29.52 2.29,27.86 1.69,26.20 1.53,24.50 1.36,22.80 1.31,21.09 1.26,19.38 1.23,17.67 1.21,15.96 1.19,14.24 1.17,12.53 1.15,10.23" fill="#404a53" pointer-events="none"/><path d="M -0.11,11.36 Q -0.11,11.36 -0.21,10.09 -0.32,8.81 -0.39,7.10 -0.45,5.38 1.29,3.00 3.04,0.62 6.18,0.00 9.32,-0.62 12.49,-0.67 15.66,-0.71 18.83,-0.66 22.00,-0.61 25.17,-0.62 28.35,-0.64 31.53,-0.74 34.70,-0.85 37.88,-0.95 41.06,-1.05 44.31,-1.13 47.56,-1.21 50.30,0.46 53.04,2.14 53.84,4.15 54.63,6.16 54.77,8.04 54.91,9.91 54.90,11.66 54.90,13.40 54.95,15.12 55.01,16.83 55.15,18.54 55.29,20.24 55.42,21.95 55.56,23.65 55.66,25.47 55.76,27.29 54.02,29.70 52.28,32.12 49.12,32.76 45.96,33.40 42.76,33.46 39.57,33.52 36.37,33.47 33.17,33.43 29.96,33.45 26.76,33.48 23.55,33.59 20.35,33.70 17.14,33.81 13.93,33.92 10.65,34.01 7.37,34.10 4.62,32.42 1.87,30.73 1.09,28.71 0.31,26.69 0.20,24.81 0.09,22.93 0.13,21.17 0.17,19.42 0.14,17.69 0.12,15.97 0.00,14.26 -0.10,12.54 -0.21,10.24 -0.32,7.94 -0.29,7.70 -0.25,7.47 -0.14,7.26 -0.03,7.05 0.13,6.88 0.30,6.72 0.51,6.62 0.72,6.52 0.96,6.49 1.20,6.46 1.43,6.51 1.66,6.56 1.86,6.68 2.07,6.80 2.22,6.98 2.38,7.16 2.47,7.38 2.56,7.60 2.57,7.83 2.59,8.07 2.53,8.30 2.46,8.53 2.33,8.72 2.20,8.92 2.01,9.07 1.83,9.21 1.60,9.29 1.38,9.37 1.14,9.37 0.91,9.37 0.68,9.30 0.46,9.22 0.27,9.08 0.08,8.94 -0.05,8.75 -0.18,8.55 -0.25,8.32 -0.31,8.10 -0.30,7.86 -0.29,7.62 -0.21,7.40 -0.12,7.18 0.02,7.00 0.17,6.82 0.37,6.69 0.58,6.57 0.81,6.52 1.04,6.46 1.27,6.49 1.51,6.51 1.72,6.61 1.94,6.70 2.11,6.87 2.29,7.03 2.40,7.24 2.51,7.44 2.55,7.68 2.59,7.91 2.59,7.91 2.59,7.91 2.52,10.21 2.45,12.51 2.38,14.23 2.30,15.94 2.33,17.64 2.35,19.35 2.49,21.01 2.64,22.68 2.86,24.20 3.07,25.72 3.50,27.01 3.92,28.30 5.78,29.59 7.65,30.88 10.78,30.94 13.92,30.99 17.12,31.07 20.33,31.14 23.54,31.22 26.74,31.29 29.94,31.27 33.13,31.24 36.29,31.10 39.45,30.96 42.44,30.74 45.44,30.52 47.81,30.15 50.18,29.79 51.40,28.35 52.61,26.91 52.62,25.32 52.63,23.73 52.68,22.02 52.73,20.31 52.78,18.61 52.82,16.90 52.77,15.20 52.71,13.51 52.54,11.85 52.37,10.19 52.13,8.68 51.88,7.17 51.44,5.88 51.00,4.59 49.14,3.30 47.28,2.00 44.17,1.93 41.07,1.87 37.89,1.79 34.71,1.70 31.53,1.62 28.36,1.54 25.19,1.55 22.03,1.57 18.90,1.70 15.77,1.83 12.80,2.04 9.83,2.26 7.48,2.61 5.12,2.97 3.90,4.38 2.68,5.80 2.64,7.29 2.60,8.79 2.52,10.06 2.44,11.34 2.42,11.49 2.40,11.65 2.35,11.79 2.30,11.94 2.21,12.06 2.12,12.19 2.01,12.30 1.90,12.40 1.76,12.47 1.62,12.54 1.47,12.58 1.33,12.62 1.17,12.62 1.02,12.62 0.87,12.59 0.72,12.55 0.58,12.48 0.44,12.41 0.33,12.31 0.21,12.21 0.12,12.08 0.03,11.96 -0.01,11.81 -0.07,11.67 -0.09,11.52 Z" fill="#717d8a" stroke="#717d8a" stroke-width="2" pointer-events="none"/></g><g id="c787a93a-3d6d-452a-2bbb-d64a62bcf053_svg" class="tl-centered-g" transform="translate(1057.65, 472.46) rotate(0.00, 62.09, 34.80)"><path d="M 122.67,47.44 Q 122.67,47.44 122.68,50.63 122.69,53.82 122.69,57.81 122.70,61.81 121.22,64.32 119.73,66.83 113.31,67.49 106.89,68.14 99.22,68.33 91.54,68.51 83.55,68.58 75.56,68.64 67.48,68.67 59.40,68.71 51.30,68.73 43.21,68.76 35.10,68.78 27.00,68.80 18.90,68.82 10.79,68.85 7.24,67.36 3.68,65.88 2.76,62.28 1.84,58.69 1.58,54.55 1.33,50.42 1.25,46.15 1.17,41.88 1.14,37.57 1.10,33.26 1.08,28.95 1.05,24.63 1.03,20.32 1.01,16.00 0.99,11.68 0.97,7.36 2.45,4.77 3.94,2.18 10.36,1.53 16.79,0.89 24.47,0.74 32.16,0.59 40.16,0.56 48.17,0.54 56.26,0.55 64.35,0.55 72.45,0.57 80.56,0.59 88.68,0.61 96.79,0.62 104.91,0.64 113.02,0.66 116.58,2.16 120.14,3.65 121.06,7.22 121.97,10.79 122.21,14.88 122.45,18.98 122.52,23.21 122.59,27.44 122.61,31.70 122.64,35.97 122.65,40.24 122.66,44.52 122.68,50.26" fill="#345246" pointer-events="none"/><path d="M 123.95,47.44 Q 123.95,47.44 124.05,50.63 124.15,53.81 124.24,57.87 124.32,61.93 122.48,64.96 120.64,68.00 113.84,68.80 107.04,69.60 99.31,69.70 91.58,69.79 83.57,69.76 75.56,69.73 67.49,69.77 59.41,69.80 51.31,69.92 43.21,70.03 35.11,70.15 27.01,70.27 18.88,70.38 10.75,70.49 6.71,68.72 2.66,66.96 1.54,63.00 0.42,59.05 0.24,54.77 0.06,50.50 0.07,46.20 0.08,41.90 0.05,37.58 0.01,33.27 -0.10,28.96 -0.22,24.64 -0.33,20.32 -0.45,16.01 -0.54,11.63 -0.64,7.26 1.19,4.14 3.03,1.02 9.84,0.22 16.64,-0.56 24.39,-0.62 32.13,-0.68 40.15,-0.61 48.17,-0.54 56.26,-0.54 64.35,-0.53 72.46,-0.60 80.57,-0.68 88.68,-0.76 96.80,-0.83 104.94,-0.90 113.08,-0.97 117.12,0.80 121.16,2.57 122.28,6.50 123.39,10.43 123.56,14.67 123.73,18.90 123.71,23.16 123.68,27.42 123.71,31.69 123.73,35.96 123.84,40.24 123.94,44.51 124.05,50.25 124.16,55.99 124.12,56.23 124.08,56.46 123.97,56.67 123.86,56.88 123.69,57.04 123.52,57.21 123.30,57.31 123.09,57.41 122.85,57.43 122.61,57.46 122.38,57.41 122.15,57.36 121.95,57.24 121.75,57.11 121.59,56.93 121.44,56.75 121.35,56.53 121.26,56.31 121.25,56.08 121.23,55.84 121.30,55.61 121.36,55.38 121.49,55.19 121.63,54.99 121.81,54.85 122.00,54.70 122.23,54.63 122.45,54.55 122.69,54.55 122.92,54.55 123.15,54.63 123.37,54.70 123.56,54.84 123.75,54.99 123.89,55.18 124.02,55.38 124.08,55.61 124.15,55.83 124.13,56.07 124.12,56.31 124.03,56.53 123.95,56.75 123.79,56.93 123.64,57.11 123.44,57.23 123.24,57.36 123.00,57.41 122.77,57.46 122.54,57.43 122.30,57.41 122.09,57.31 121.87,57.21 121.70,57.05 121.53,56.88 121.42,56.68 121.30,56.47 121.27,56.23 121.23,56.00 121.23,56.00 121.23,56.00 121.31,50.26 121.38,44.52 121.46,40.25 121.54,35.98 121.52,31.72 121.50,27.46 121.34,23.25 121.18,19.05 120.86,15.10 120.55,11.14 119.84,7.94 119.12,4.73 116.05,3.52 112.97,2.30 104.88,2.20 96.79,2.09 88.68,1.98 80.56,1.87 72.45,1.76 64.34,1.65 56.26,1.64 48.17,1.63 40.18,1.75 32.18,1.87 24.56,2.11 16.93,2.35 10.88,2.85 4.84,3.35 3.71,5.41 2.59,7.47 2.53,11.73 2.47,15.99 2.40,20.31 2.33,24.63 2.26,28.94 2.20,33.25 2.23,37.56 2.27,41.86 2.44,46.10 2.61,50.34 2.93,54.33 3.26,58.33 3.98,61.56 4.70,64.80 7.77,66.00 10.84,67.21 18.92,67.27 27.00,67.34 35.10,67.41 43.20,67.48 51.30,67.54 59.40,67.61 67.47,67.58 75.55,67.55 83.53,67.39 91.51,67.23 99.13,66.96 106.74,66.69 112.78,66.18 118.82,65.67 119.95,63.68 121.09,61.70 121.15,57.76 121.22,53.82 121.31,50.63 121.39,47.45 121.41,47.29 121.43,47.14 121.48,47.00 121.54,46.85 121.63,46.72 121.71,46.60 121.83,46.49 121.94,46.39 122.08,46.32 122.22,46.25 122.37,46.21 122.52,46.17 122.67,46.17 122.82,46.17 122.97,46.21 123.12,46.25 123.26,46.32 123.40,46.39 123.51,46.49 123.63,46.59 123.72,46.72 123.80,46.85 123.86,46.99 123.91,47.13 123.93,47.29 Z" fill="#36a64c" stroke="#36a64c" stroke-width="2" pointer-events="none"/></g><g id="0e0b46fa-bc2e-4167-2d4d-97ed70d9f7a0_svg" class="tl-centered-g" transform="translate(1183.53, 576.27) rotate(0.00, 26.34, 16.56)"><path d="M 35.09,0.49 Q 35.09,0.49 37.31,0.45 39.53,0.41 42.32,0.36 45.11,0.31 47.31,1.79 49.51,3.26 50.14,4.91 50.77,6.56 51.00,8.25 51.23,9.94 51.35,11.64 51.48,13.34 51.58,15.04 51.68,16.75 51.77,18.45 51.87,20.16 51.96,21.86 52.05,23.57 52.14,25.27 52.24,26.98 50.77,28.90 49.30,30.83 46.60,31.34 43.90,31.85 40.88,32.00 37.86,32.15 34.76,32.21 31.66,32.27 28.54,32.31 25.41,32.35 22.29,32.38 19.16,32.41 16.04,32.44 12.91,32.47 9.78,32.50 6.65,32.53 4.37,31.04 2.08,29.56 1.54,27.93 0.99,26.30 0.90,24.64 0.80,22.97 0.81,21.30 0.83,19.62 0.87,17.94 0.92,16.26 0.97,14.59 1.02,12.91 1.07,11.23 1.13,9.55 1.18,7.87 1.24,6.19 2.74,4.27 4.24,2.36 6.85,1.83 9.45,1.30 12.34,1.12 15.22,0.94 18.18,0.86 21.14,0.77 24.11,0.71 27.09,0.65 30.07,0.59 33.05,0.53 37.05,0.46" fill="#345246" pointer-events="none"/><path d="M 35.07,-0.77 Q 35.07,-0.77 37.29,-0.91 39.51,-1.04 42.38,-1.16 45.25,-1.28 47.90,0.37 50.54,2.04 51.34,4.04 52.14,6.04 52.32,7.90 52.49,9.77 52.53,11.51 52.57,13.26 52.67,14.97 52.77,16.68 52.96,18.38 53.15,20.09 53.33,21.79 53.51,23.49 53.66,25.32 53.80,27.15 52.08,29.57 50.36,31.98 47.26,32.64 44.17,33.29 41.04,33.36 37.92,33.43 34.80,33.40 31.68,33.37 28.55,33.40 25.43,33.44 22.30,33.56 19.18,33.69 16.05,33.81 12.92,33.93 9.72,34.03 6.52,34.13 3.78,32.44 1.04,30.76 0.32,28.76 -0.39,26.75 -0.43,24.90 -0.47,23.05 -0.36,21.33 -0.25,19.61 -0.21,17.92 -0.17,16.24 -0.21,14.55 -0.25,12.87 -0.29,11.18 -0.33,9.50 -0.33,7.73 -0.34,5.95 1.42,3.57 3.18,1.19 6.17,0.53 9.16,-0.13 12.16,-0.23 15.15,-0.32 18.13,-0.32 21.11,-0.31 24.09,-0.37 27.07,-0.44 30.05,-0.59 33.03,-0.74 37.03,-0.90 41.03,-1.07 41.26,-1.04 41.50,-1.00 41.71,-0.90 41.92,-0.79 42.08,-0.62 42.25,-0.45 42.35,-0.24 42.46,-0.02 42.49,0.20 42.52,0.44 42.47,0.67 42.42,0.90 42.31,1.11 42.19,1.31 42.01,1.47 41.83,1.62 41.61,1.72 41.39,1.81 41.16,1.82 40.92,1.84 40.69,1.78 40.46,1.72 40.26,1.59 40.07,1.47 39.92,1.28 39.77,1.09 39.69,0.87 39.61,0.65 39.61,0.41 39.60,0.17 39.68,-0.04 39.75,-0.27 39.89,-0.46 40.03,-0.65 40.22,-0.79 40.41,-0.92 40.64,-0.99 40.87,-1.06 41.11,-1.05 41.34,-1.04 41.56,-0.96 41.79,-0.87 41.97,-0.72 42.15,-0.57 42.28,-0.37 42.40,-0.17 42.46,0.05 42.51,0.28 42.49,0.51 42.47,0.75 42.38,0.97 42.28,1.18 42.12,1.36 41.96,1.53 41.75,1.65 41.55,1.76 41.31,1.81 41.08,1.85 41.08,1.85 41.08,1.85 37.08,1.83 33.07,1.81 30.09,1.77 27.11,1.74 24.14,1.80 21.17,1.86 18.24,2.04 15.30,2.22 12.52,2.47 9.74,2.73 7.53,3.12 5.31,3.52 4.06,4.97 2.82,6.43 2.70,8.01 2.59,9.60 2.45,11.27 2.30,12.95 2.15,14.62 2.01,16.29 1.97,17.96 1.92,19.63 2.00,21.26 2.07,22.90 2.23,24.37 2.39,25.85 2.75,27.11 3.12,28.37 4.96,29.64 6.79,30.92 9.84,30.96 12.90,31.00 16.02,31.07 19.15,31.13 22.28,31.19 25.40,31.26 28.52,31.22 31.63,31.18 34.71,31.03 37.79,30.88 40.71,30.64 43.62,30.41 45.94,30.04 48.25,29.67 49.46,28.24 50.67,26.80 50.63,25.22 50.59,23.64 50.59,21.94 50.59,20.23 50.59,18.52 50.59,16.81 50.49,15.12 50.39,13.42 50.17,11.76 49.96,10.11 49.68,8.59 49.40,7.07 48.94,5.78 48.48,4.49 46.72,3.20 44.97,1.91 42.26,1.89 39.56,1.88 37.34,1.82 35.11,1.77 34.96,1.76 34.81,1.74 34.66,1.69 34.52,1.64 34.39,1.55 34.26,1.47 34.16,1.35 34.05,1.24 33.98,1.10 33.90,0.97 33.86,0.82 33.82,0.67 33.82,0.52 33.82,0.36 33.85,0.21 33.89,0.06 33.96,-0.07 34.02,-0.20 34.12,-0.32 34.22,-0.44 34.35,-0.53 34.48,-0.62 34.62,-0.67 34.76,-0.73 34.91,-0.75 Z" fill="#36a64c" stroke="#36a64c" stroke-width="2" pointer-events="none"/></g><g id="c89d03ab-4326-49c8-2a55-38136cc6aee5_svg" class="tl-centered-g" transform="translate(765.14, 195.48) rotate(0.00, 104.61, 51.63)"><path d="M 1.31,31.22 Q 1.31,31.22 1.38,26.24 1.46,21.26 1.55,15.00 1.64,8.75 3.15,5.67 4.67,2.58 11.23,1.82 17.79,1.06 25.64,0.89 33.49,0.73 41.67,0.71 49.85,0.69 58.11,0.71 66.37,0.74 74.65,0.77 82.94,0.80 91.23,0.83 99.51,0.87 107.80,0.90 116.09,0.93 124.38,0.97 132.67,1.00 140.96,1.04 149.25,1.07 157.54,1.11 165.83,1.14 174.12,1.18 182.41,1.21 190.71,1.25 199.00,1.28 202.60,2.78 206.20,4.28 207.11,9.58 208.02,14.88 208.24,21.15 208.46,27.42 208.50,33.94 208.54,40.46 208.54,47.04 208.54,53.62 208.53,60.22 208.52,66.82 208.50,73.42 208.48,80.02 208.47,86.62 208.45,93.23 206.96,96.40 205.46,99.57 198.87,100.39 192.28,101.21 184.38,101.43 176.49,101.65 168.27,101.72 160.04,101.79 151.73,101.81 143.42,101.84 135.09,101.86 126.76,101.87 118.42,101.89 110.09,101.90 101.75,101.92 93.41,101.93 85.07,101.95 76.73,101.96 68.39,101.97 60.06,101.99 51.72,102.00 43.38,102.02 35.04,102.03 26.70,102.04 18.36,102.06 10.02,102.07 6.41,100.59 2.79,99.10 1.94,93.74 1.10,88.38 0.95,82.03 0.81,75.68 0.85,69.08 0.89,62.48 0.97,55.82 1.05,49.15 1.15,42.47 1.24,35.79 1.37,26.82" fill="#345246" pointer-events="none"/><path d="M 0.03,31.20 Q 0.03,31.20 0.01,26.22 -0.00,21.23 0.00,14.95 0.01,8.66 1.89,5.05 3.78,1.44 10.70,0.49 17.62,-0.46 25.54,-0.58 33.46,-0.70 41.65,-0.66 49.84,-0.62 58.11,-0.55 66.37,-0.47 74.66,-0.39 82.94,-0.30 91.23,-0.21 99.52,-0.12 107.81,-0.14 116.10,-0.16 124.39,-0.18 132.68,-0.20 140.97,-0.22 149.26,-0.24 157.55,-0.26 165.84,-0.28 174.13,-0.30 182.42,-0.32 190.74,-0.34 199.05,-0.35 203.17,1.49 207.30,3.33 208.38,8.98 209.46,14.64 209.60,21.01 209.73,27.38 209.68,33.92 209.64,40.45 209.63,47.04 209.63,53.62 209.71,60.22 209.79,66.82 209.87,73.42 209.95,80.03 210.02,86.66 210.09,93.30 208.22,97.00 206.36,100.71 199.41,101.73 192.47,102.74 184.50,102.91 176.53,103.09 168.29,103.10 160.05,103.11 151.74,103.08 143.43,103.06 135.09,103.02 126.76,102.98 118.42,102.94 110.09,102.90 101.75,102.97 93.41,103.04 85.07,103.11 76.73,103.18 68.40,103.25 60.06,103.31 51.72,103.38 43.38,103.45 35.04,103.52 26.70,103.59 18.34,103.65 9.98,103.71 5.83,101.86 1.68,100.02 0.67,94.31 -0.34,88.61 -0.40,82.16 -0.46,75.71 -0.33,69.09 -0.20,62.48 -0.11,55.81 -0.03,49.14 -0.03,42.46 -0.03,35.77 0.00,26.80 0.04,17.82 0.08,17.59 0.13,17.36 0.24,17.15 0.35,16.94 0.53,16.78 0.70,16.62 0.92,16.53 1.14,16.43 1.37,16.41 1.61,16.38 1.84,16.44 2.07,16.49 2.27,16.62 2.47,16.74 2.62,16.93 2.77,17.11 2.86,17.33 2.94,17.55 2.95,17.79 2.96,18.03 2.89,18.25 2.83,18.48 2.69,18.67 2.55,18.87 2.36,19.01 2.17,19.15 1.95,19.22 1.72,19.29 1.48,19.29 1.25,19.29 1.02,19.21 0.80,19.13 0.61,18.98 0.43,18.84 0.30,18.64 0.17,18.44 0.11,18.21 0.05,17.98 0.06,17.75 0.08,17.51 0.17,17.29 0.26,17.07 0.42,16.89 0.57,16.72 0.78,16.60 0.98,16.48 1.22,16.43 1.45,16.38 1.68,16.41 1.92,16.44 2.13,16.54 2.35,16.65 2.52,16.81 2.68,16.98 2.79,17.19 2.90,17.40 2.94,17.63 2.97,17.87 2.97,17.87 2.97,17.87 2.75,26.84 2.52,35.81 2.33,42.49 2.15,49.17 2.06,55.83 1.98,62.49 2.03,69.07 2.09,75.65 2.32,81.90 2.54,88.15 3.22,93.17 3.90,98.18 6.98,99.31 10.07,100.43 18.38,100.47 26.70,100.50 35.04,100.54 43.38,100.58 51.71,100.62 60.05,100.66 68.39,100.70 76.73,100.74 85.07,100.78 93.41,100.82 101.75,100.86 110.08,100.90 118.42,100.84 126.76,100.77 135.09,100.69 143.42,100.62 151.72,100.54 160.03,100.46 168.24,100.34 176.45,100.22 184.27,99.95 192.09,99.68 198.33,99.06 204.57,98.44 205.69,95.80 206.82,93.16 206.92,86.59 207.02,80.02 207.13,73.42 207.24,66.82 207.34,60.22 207.45,53.62 207.45,47.05 207.45,40.47 207.31,33.97 207.18,27.47 206.88,21.30 206.57,15.13 205.84,10.17 205.11,5.22 202.02,4.07 198.94,2.92 190.67,2.84 182.41,2.75 174.12,2.66 165.83,2.57 157.54,2.49 149.25,2.40 140.96,2.31 132.67,2.22 124.38,2.13 116.09,2.04 107.80,1.95 99.51,1.87 91.22,1.89 82.93,1.91 74.65,1.93 66.37,1.95 58.11,1.98 49.85,2.02 41.69,2.09 33.52,2.16 25.75,2.38 17.97,2.59 11.76,3.16 5.56,3.73 4.42,6.29 3.27,8.84 3.10,15.06 2.92,21.28 2.75,26.26 2.59,31.24 2.57,31.39 2.54,31.54 2.49,31.69 2.43,31.83 2.34,31.95 2.25,32.08 2.14,32.18 2.02,32.28 1.88,32.35 1.74,32.42 1.59,32.45 1.44,32.49 1.29,32.49 1.13,32.48 0.99,32.45 0.84,32.41 0.70,32.33 0.57,32.26 0.45,32.16 0.34,32.05 0.25,31.92 0.17,31.80 0.11,31.65 0.06,31.51 0.05,31.35 Z" fill="#36a64c" stroke="#36a64c" stroke-width="2" pointer-events="none"/></g><g id="c4c83e30-a2e6-47d2-069a-36eb6e6321b1_svg" class="tl-centered-g" transform="translate(1000.05, 204.52) rotate(0.00, 62.09, 34.80)"><path d="M 0.80,21.75 Q 0.80,21.75 0.76,18.59 0.71,15.43 0.66,11.47 0.61,7.51 2.09,5.01 3.56,2.51 10.08,1.88 16.59,1.25 24.38,1.09 32.17,0.93 40.29,0.90 48.42,0.86 56.62,0.86 64.83,0.85 73.05,0.86 81.28,0.86 89.51,0.87 97.74,0.87 105.97,0.88 114.21,0.89 117.80,2.38 121.39,3.87 122.25,7.41 123.11,10.95 123.27,15.01 123.44,19.07 123.43,23.26 123.41,27.46 123.36,31.68 123.30,35.91 123.23,40.15 123.16,44.38 123.09,48.62 123.02,52.86 122.95,57.10 122.87,61.34 121.37,63.91 119.86,66.48 113.43,67.13 107.01,67.78 99.33,67.94 91.66,68.10 83.66,68.13 75.67,68.16 67.59,68.16 59.51,68.17 51.41,68.16 43.31,68.15 35.21,68.15 27.11,68.14 19.00,68.13 10.90,68.12 7.34,66.63 3.78,65.14 2.84,61.60 1.89,58.06 1.60,54.00 1.32,49.95 1.21,45.75 1.10,41.56 1.03,37.34 0.96,33.11 0.90,28.88 0.84,24.65 0.76,18.96" fill="#404a53" pointer-events="none"/><path d="M -0.47,21.76 Q -0.47,21.76 -0.61,18.61 -0.74,15.45 -0.87,11.43 -1.00,7.41 0.83,4.38 2.66,1.34 9.55,0.57 16.44,-0.20 24.30,-0.27 32.15,-0.33 40.28,-0.28 48.41,-0.22 56.62,-0.22 64.83,-0.23 73.05,-0.32 81.28,-0.41 89.51,-0.49 97.74,-0.58 106.00,-0.66 114.26,-0.74 118.34,1.03 122.41,2.81 123.47,6.71 124.53,10.61 124.62,14.81 124.72,19.02 124.61,23.24 124.51,27.46 124.45,31.69 124.39,35.93 124.42,40.16 124.44,44.40 124.46,48.64 124.48,52.88 124.49,57.18 124.49,61.47 122.63,64.56 120.77,67.65 113.96,68.44 107.16,69.23 99.42,69.30 91.68,69.37 83.68,69.31 75.67,69.26 67.59,69.26 59.51,69.26 51.41,69.35 43.31,69.43 35.21,69.52 27.11,69.60 18.98,69.68 10.85,69.76 6.81,68.00 2.78,66.23 1.62,62.33 0.47,58.44 0.26,54.23 0.05,50.03 0.02,45.81 0.00,41.59 -0.06,37.36 -0.13,33.13 -0.28,28.90 -0.43,24.66 -0.60,18.98 -0.77,13.29 -0.73,13.06 -0.70,12.82 -0.59,12.61 -0.48,12.40 -0.31,12.24 -0.14,12.07 0.06,11.97 0.28,11.87 0.51,11.84 0.75,11.81 0.98,11.86 1.21,11.91 1.41,12.03 1.62,12.15 1.78,12.32 1.93,12.50 2.02,12.72 2.11,12.94 2.13,13.18 2.14,13.41 2.08,13.64 2.02,13.87 1.89,14.07 1.76,14.27 1.58,14.41 1.39,14.56 1.17,14.64 0.94,14.72 0.71,14.72 0.47,14.72 0.24,14.65 0.02,14.58 -0.16,14.44 -0.35,14.29 -0.49,14.10 -0.62,13.91 -0.69,13.68 -0.76,13.45 -0.75,13.21 -0.74,12.98 -0.65,12.76 -0.57,12.54 -0.42,12.35 -0.27,12.17 -0.06,12.05 0.13,11.92 0.36,11.87 0.59,11.81 0.82,11.84 1.06,11.86 1.28,11.95 1.49,12.05 1.67,12.21 1.84,12.37 1.95,12.58 2.07,12.79 2.11,13.02 2.15,13.26 2.15,13.25 2.15,13.25 2.13,18.94 2.12,24.63 2.08,28.86 2.05,33.09 2.12,37.31 2.19,41.53 2.39,45.69 2.60,49.86 2.95,53.77 3.30,57.69 4.05,60.86 4.79,64.04 7.87,65.26 10.95,66.48 19.03,66.58 27.11,66.67 35.21,66.77 43.32,66.88 51.41,66.97 59.51,67.07 67.59,67.07 75.66,67.07 83.65,66.94 91.63,66.82 99.25,66.57 106.86,66.32 112.91,65.82 118.95,65.31 120.10,63.26 121.25,61.21 121.40,57.02 121.56,52.84 121.72,48.60 121.88,44.36 122.05,40.13 122.21,35.90 122.26,31.67 122.32,27.45 122.24,23.29 122.16,19.12 121.92,15.20 121.68,11.29 121.02,8.11 120.36,4.93 117.26,3.73 114.16,2.53 105.95,2.43 97.74,2.34 89.51,2.24 81.28,2.14 73.05,2.04 64.83,1.95 56.62,1.95 48.42,1.96 40.31,2.08 32.20,2.21 24.46,2.46 16.73,2.70 10.60,3.19 4.47,3.68 3.35,5.65 2.23,7.62 2.20,11.52 2.18,15.42 2.13,18.57 2.08,21.73 2.06,21.88 2.04,22.04 1.99,22.18 1.94,22.33 1.85,22.45 1.76,22.58 1.65,22.69 1.54,22.79 1.40,22.86 1.27,22.94 1.12,22.98 0.97,23.01 0.81,23.02 0.66,23.02 0.51,22.98 0.36,22.95 0.22,22.88 0.08,22.81 -0.02,22.71 -0.14,22.61 -0.23,22.48 -0.32,22.36 -0.37,22.21 -0.43,22.07 -0.45,21.92 Z" fill="#717d8a" stroke="#717d8a" stroke-width="2" pointer-events="none"/></g><g id="6a9b5690-8049-4e9f-0597-51ab4844dcf9_svg" class="tl-centered-g" transform="translate(982.73, 162.71) rotate(0.00, 14.39, 13.88)"><defs><mask id="6a9b5690-8049-4e9f-0597-51ab4844dcf9_clip"><rect x="-100" y="-100" width="228.79" height="227.77" fill="white"/><rect x="14.39" y="13.88" width="0" height="0" rx="2" ry="2" fill="black" opacity="1"/></mask></defs><g pointer-events="none" opacity="1" mask=""><path d="M 0.72,-0.75 Q 0.72,-0.75 4.12,2.56 7.52,5.88 10.92,9.19 14.33,12.50 17.74,15.81 21.14,19.12 24.56,22.43 27.97,25.73 28.05,25.85 28.14,25.96 28.19,26.10 28.23,26.24 28.23,26.38 28.23,26.53 28.18,26.67 28.13,26.80 28.04,26.92 27.96,27.03 27.83,27.11 27.71,27.19 27.57,27.23 27.43,27.27 27.29,27.26 27.15,27.25 27.01,27.19 26.88,27.14 26.77,27.04 26.66,26.95 26.58,26.82 26.51,26.70 26.48,26.56 26.45,26.42 26.47,26.27 26.49,26.13 26.55,26.00 26.61,25.87 26.71,25.76 26.81,25.66 26.94,25.59 27.07,25.53 27.21,25.50 27.35,25.48 27.50,25.51 27.64,25.53 27.77,25.60 27.89,25.67 27.99,25.78 28.09,25.88 28.15,26.01 28.21,26.15 28.22,26.29 28.24,26.43 28.21,26.57 28.17,26.72 28.10,26.84 28.02,26.96 27.91,27.05 27.80,27.15 27.66,27.20 27.53,27.25 27.39,27.26 27.24,27.27 27.10,27.23 26.96,27.19 26.84,27.10 26.72,27.02 26.72,27.02 26.72,27.02 23.30,23.73 19.87,20.44 16.44,17.15 13.01,13.87 9.58,10.59 6.15,7.30 2.71,4.03 -0.72,0.75 -0.80,0.65 -0.88,0.55 -0.93,0.44 -0.99,0.32 -1.01,0.20 -1.04,0.08 -1.03,-0.04 -1.03,-0.17 -0.99,-0.29 -0.96,-0.41 -0.89,-0.52 -0.83,-0.63 -0.74,-0.72 -0.65,-0.81 -0.55,-0.87 -0.44,-0.94 -0.32,-0.98 -0.20,-1.02 -0.08,-1.03 0.04,-1.04 0.16,-1.02 0.29,-1.00 0.40,-0.95 0.52,-0.90 0.62,-0.82 Z" fill="#717d8a" stroke="#717d8a" stroke-width="2.11" stroke-dasharray="none" stroke-dashoffset="none" stroke-linecap="round" stroke-linejoin="round" pointer-events="stroke"/><g><path d="M 25.10,14.955158178968716 L 28.79,27.77 15.85,24.55182484563538" fill="none" stroke="#717d8a" stroke-width="4.23" stroke-linecap="round" stroke-linejoin="round" pointer-events="none"/></g></g></g><g id="4cc33a56-279b-46d5-1952-039a850b84ab_svg" class="tl-centered-g" transform="translate(893.68, 160.83) rotate(0.00, 8.61, 18.05)"><defs><mask id="4cc33a56-279b-46d5-1952-039a850b84ab_clip"><rect x="-100" y="-100" width="217.22" height="236.1" fill="white"/><rect x="8.61" y="18.05" width="0" height="0" rx="2" ry="2" fill="black" opacity="1"/></mask></defs><g pointer-events="none" opacity="1" mask=""><path d="M 18.01,0.37 Q 18.01,0.37 15.92,4.64 13.84,8.91 11.77,13.19 9.70,17.46 7.63,21.74 5.57,26.01 3.51,30.29 1.45,34.57 1.39,34.66 1.33,34.75 1.24,34.81 1.16,34.88 1.06,34.91 0.95,34.94 0.85,34.94 0.74,34.94 0.64,34.90 0.54,34.87 0.46,34.80 0.37,34.74 0.31,34.65 0.26,34.56 0.23,34.46 0.20,34.35 0.21,34.25 0.21,34.14 0.26,34.04 0.30,33.94 0.37,33.86 0.44,33.78 0.53,33.73 0.62,33.68 0.72,33.65 0.83,33.63 0.93,33.64 1.04,33.66 1.14,33.70 1.23,33.75 1.31,33.82 1.39,33.90 1.43,33.99 1.48,34.09 1.50,34.19 1.51,34.30 1.50,34.40 1.48,34.51 1.43,34.60 1.38,34.69 1.30,34.77 1.22,34.84 1.12,34.88 1.02,34.93 0.92,34.94 0.81,34.95 0.71,34.92 0.60,34.90 0.51,34.84 0.42,34.79 0.36,34.70 0.29,34.62 0.25,34.52 0.21,34.42 0.21,34.32 0.20,34.21 0.23,34.11 0.26,34.01 0.26,34.01 0.26,34.01 2.29,29.71 4.32,25.42 6.35,21.12 8.37,16.83 10.39,12.53 12.41,8.23 14.42,3.92 16.42,-0.37 16.48,-0.46 16.54,-0.55 16.61,-0.62 16.69,-0.70 16.78,-0.75 16.87,-0.80 16.97,-0.83 17.08,-0.86 17.18,-0.86 17.29,-0.87 17.39,-0.85 17.49,-0.83 17.59,-0.78 17.68,-0.73 17.77,-0.67 17.85,-0.60 17.91,-0.52 17.97,-0.43 18.02,-0.33 18.06,-0.24 18.07,-0.13 18.09,-0.03 18.08,0.07 18.07,0.17 18.04,0.27 Z" fill="#36a64c" stroke="#36a64c" stroke-width="2.11" stroke-dasharray="none" stroke-dashoffset="none" stroke-linecap="round" stroke-linejoin="round" pointer-events="stroke"/><g><path d="M 10.98,28.54882764112725 L 0,36.1 -1.0456808489439888,22.80882764112725" fill="none" stroke="#36a64c" stroke-width="4.23" stroke-linecap="round" stroke-linejoin="round" pointer-events="none"/></g></g></g><g id="3dff7215-7ba5-41b8-1e14-636fdfea0d77_svg" class="tl-centered-g" transform="translate(842.11, 300.05) rotate(0.00, 7.95, 18.36)"><defs><mask id="3dff7215-7ba5-41b8-1e14-636fdfea0d77_clip"><rect x="-100" y="-100" width="215.89" height="236.71" fill="white"/><rect x="7.94" y="18.35" width="0" height="0" rx="2" ry="2" fill="black" opacity="1"/></mask></defs><g pointer-events="none" opacity="1" mask=""><path d="M 16.74,0.36 Q 16.74,0.36 14.82,4.71 12.90,9.05 10.98,13.40 9.07,17.75 7.17,22.10 5.26,26.45 3.36,30.81 1.46,35.16 1.40,35.26 1.33,35.36 1.24,35.43 1.15,35.51 1.04,35.55 0.93,35.59 0.81,35.59 0.69,35.59 0.58,35.56 0.46,35.52 0.37,35.45 0.27,35.39 0.20,35.29 0.13,35.19 0.10,35.08 0.06,34.97 0.07,34.85 0.07,34.73 0.11,34.62 0.15,34.51 0.23,34.42 0.30,34.32 0.40,34.26 0.50,34.20 0.62,34.17 0.73,34.14 0.85,34.15 0.97,34.16 1.08,34.21 1.18,34.25 1.27,34.33 1.36,34.41 1.42,34.52 1.48,34.62 1.50,34.74 1.52,34.85 1.50,34.97 1.49,35.09 1.44,35.19 1.38,35.30 1.30,35.38 1.21,35.46 1.11,35.52 1.00,35.57 0.89,35.58 0.77,35.60 0.65,35.58 0.54,35.56 0.43,35.50 0.33,35.44 0.25,35.35 0.17,35.26 0.13,35.15 0.08,35.04 0.07,34.93 0.06,34.81 0.09,34.69 0.12,34.58 0.12,34.58 0.12,34.58 1.99,30.21 3.87,25.85 5.73,21.48 7.60,17.11 9.46,12.74 11.33,8.37 13.18,4.00 15.03,-0.36 15.09,-0.46 15.15,-0.56 15.22,-0.64 15.30,-0.72 15.40,-0.78 15.49,-0.84 15.60,-0.87 15.70,-0.91 15.82,-0.91 15.93,-0.92 16.04,-0.90 16.15,-0.88 16.25,-0.84 16.35,-0.80 16.44,-0.73 16.53,-0.66 16.60,-0.57 16.67,-0.49 16.72,-0.38 16.77,-0.28 16.79,-0.17 16.81,-0.06 16.81,0.04 16.80,0.15 16.77,0.26 Z" fill="#717d8a" stroke="#717d8a" stroke-width="2.11" stroke-dasharray="none" stroke-dashoffset="none" stroke-linecap="round" stroke-linejoin="round" pointer-events="stroke"/><g><path d="M 10.70,28.761069142357755 L 0,36.71 -1.531285444621755,23.464402475691088" fill="none" stroke="#717d8a" stroke-width="4.23" stroke-linecap="round" stroke-linejoin="round" pointer-events="none"/></g></g></g><g id="f3261aee-00fc-4243-2d32-33f73440c0d6_svg" class="tl-centered-g" transform="translate(968.61, 299.11) rotate(0.00, 15.77, 12.30)"><defs><mask id="f3261aee-00fc-4243-2d32-33f73440c0d6_clip"><rect x="-100" y="-100" width="231.54" height="224.6" fill="white"/><rect x="15.77" y="12.3" width="0" height="0" rx="2" ry="2" fill="black" opacity="1"/></mask></defs><g pointer-events="none" opacity="1" mask=""><path d="M 0.62,-0.79 Q 0.62,-0.79 4.34,2.14 8.07,5.09 11.80,8.03 15.53,10.97 19.27,13.90 23.00,16.84 26.74,19.77 30.48,22.70 30.57,22.80 30.66,22.90 30.72,23.02 30.77,23.15 30.79,23.29 30.80,23.42 30.77,23.55 30.74,23.69 30.67,23.80 30.59,23.92 30.49,24.01 30.38,24.09 30.26,24.14 30.13,24.19 29.99,24.20 29.86,24.20 29.73,24.17 29.59,24.13 29.48,24.05 29.37,23.97 29.29,23.86 29.21,23.75 29.16,23.62 29.12,23.49 29.12,23.35 29.13,23.22 29.17,23.09 29.22,22.96 29.30,22.85 29.38,22.74 29.50,22.67 29.61,22.59 29.75,22.56 29.88,22.52 30.01,22.53 30.15,22.54 30.28,22.59 30.40,22.65 30.51,22.74 30.61,22.83 30.68,22.94 30.75,23.06 30.77,23.20 30.80,23.33 30.79,23.47 30.77,23.60 30.71,23.72 30.65,23.85 30.56,23.95 30.46,24.04 30.34,24.11 30.22,24.17 30.08,24.19 29.95,24.21 29.81,24.19 29.68,24.16 29.56,24.10 29.44,24.03 29.44,24.03 29.44,24.03 25.69,21.12 21.93,18.21 18.18,15.30 14.42,12.39 10.66,9.49 6.90,6.59 3.14,3.69 -0.62,0.79 -0.70,0.71 -0.79,0.62 -0.85,0.52 -0.91,0.41 -0.95,0.30 -0.99,0.18 -1.00,0.06 -1.00,-0.05 -0.98,-0.17 -0.96,-0.29 -0.91,-0.40 -0.86,-0.52 -0.79,-0.61 -0.71,-0.71 -0.61,-0.78 -0.52,-0.86 -0.41,-0.91 -0.30,-0.96 -0.18,-0.98 -0.06,-1.00 0.05,-1.00 0.17,-0.99 0.29,-0.95 0.41,-0.92 0.51,-0.85 Z" fill="#36a64c" stroke="#36a64c" stroke-width="2.11" stroke-dasharray="none" stroke-dashoffset="none" stroke-linecap="round" stroke-linejoin="round" pointer-events="stroke"/><g><path d="M 26.53,12.241925022300935 L 31.54,24.6 18.33,22.75525835563427" fill="none" stroke="#36a64c" stroke-width="4.23" stroke-linecap="round" stroke-linejoin="round" pointer-events="none"/></g></g></g><g id="682e9d37-ab34-4509-337e-244a045b27fa_svg" class="tl-centered-g" transform="translate(1027.31, 439.37) rotate(0.00, 16.12, 11.84)"><defs><mask id="682e9d37-ab34-4509-337e-244a045b27fa_clip"><rect x="-100" y="-100" width="232.24" height="223.68" fill="white"/><rect x="16.12" y="11.84" width="0" height="0" rx="2" ry="2" fill="black" opacity="1"/></mask></defs><g pointer-events="none" opacity="1" mask=""><path d="M 0.61,-0.83 Q 0.61,-0.83 4.42,2.00 8.23,4.83 12.04,7.66 15.86,10.49 19.68,13.32 23.50,16.14 27.32,18.96 31.14,21.79 31.24,21.89 31.34,21.99 31.40,22.12 31.46,22.24 31.48,22.38 31.50,22.52 31.47,22.66 31.44,22.80 31.37,22.92 31.30,23.05 31.19,23.14 31.09,23.23 30.96,23.29 30.83,23.34 30.68,23.35 30.54,23.36 30.41,23.33 30.27,23.29 30.15,23.21 30.03,23.14 29.94,23.02 29.86,22.91 29.81,22.78 29.76,22.65 29.76,22.51 29.76,22.36 29.80,22.23 29.84,22.09 29.93,21.98 30.01,21.87 30.13,21.78 30.24,21.70 30.38,21.66 30.51,21.62 30.66,21.63 30.80,21.63 30.93,21.68 31.06,21.73 31.17,21.82 31.28,21.91 31.36,22.03 31.43,22.15 31.46,22.29 31.50,22.43 31.48,22.57 31.47,22.71 31.41,22.84 31.35,22.97 31.26,23.07 31.16,23.18 31.04,23.25 30.92,23.32 30.78,23.34 30.64,23.37 30.50,23.34 30.36,23.32 30.23,23.26 30.11,23.20 30.11,23.20 30.11,23.20 26.27,20.39 22.43,17.59 18.60,14.79 14.76,11.99 10.92,9.20 7.08,6.40 3.23,3.61 -0.61,0.83 -0.70,0.74 -0.79,0.66 -0.85,0.55 -0.92,0.45 -0.96,0.33 -1.00,0.21 -1.01,0.09 -1.03,-0.03 -1.01,-0.15 -0.99,-0.27 -0.94,-0.39 -0.89,-0.50 -0.82,-0.60 -0.75,-0.70 -0.65,-0.78 -0.56,-0.86 -0.44,-0.92 -0.33,-0.97 -0.21,-1.00 -0.09,-1.02 0.03,-1.02 0.15,-1.01 0.27,-0.98 0.39,-0.95 0.50,-0.89 Z" fill="#36a64c" stroke="#36a64c" stroke-width="2.11" stroke-dasharray="none" stroke-dashoffset="none" stroke-linecap="round" stroke-linejoin="round" pointer-events="stroke"/><g><path d="M 26.87,11.4708394794615 L 32.24,23.68 18.98,22.217506146128162" fill="none" stroke="#36a64c" stroke-width="4.23" stroke-linecap="round" stroke-linejoin="round" pointer-events="none"/></g></g></g><g id="1d88320f-27f3-44f3-352d-aae3f8d2dab1_svg" class="tl-centered-g" transform="translate(1149.19, 545.25) rotate(0.00, 15.74, 12.34)"><defs><mask id="1d88320f-27f3-44f3-352d-aae3f8d2dab1_clip"><rect x="-100" y="-100" width="231.48" height="224.68" fill="white"/><rect x="15.74" y="12.34" width="0" height="0" rx="2" ry="2" fill="black" opacity="1"/></mask></defs><g pointer-events="none" opacity="1" mask=""><path d="M 0.61,-0.78 Q 0.61,-0.78 4.33,2.16 8.05,5.12 11.77,8.07 15.50,11.02 19.23,13.96 22.95,16.90 26.68,19.84 30.41,22.79 30.51,22.88 30.60,22.98 30.65,23.11 30.71,23.23 30.72,23.36 30.73,23.50 30.70,23.63 30.67,23.76 30.60,23.88 30.53,23.99 30.42,24.08 30.32,24.16 30.19,24.21 30.07,24.26 29.93,24.26 29.80,24.27 29.67,24.23 29.54,24.19 29.43,24.11 29.32,24.04 29.24,23.93 29.16,23.82 29.12,23.69 29.08,23.56 29.08,23.43 29.08,23.29 29.13,23.17 29.17,23.04 29.25,22.93 29.34,22.83 29.45,22.75 29.56,22.68 29.69,22.65 29.82,22.61 29.96,22.62 30.09,22.63 30.22,22.68 30.34,22.73 30.44,22.82 30.54,22.91 30.61,23.03 30.68,23.14 30.71,23.28 30.73,23.41 30.72,23.54 30.70,23.68 30.64,23.80 30.58,23.92 30.49,24.02 30.39,24.11 30.27,24.17 30.15,24.23 30.02,24.25 29.89,24.27 29.76,24.25 29.62,24.23 29.51,24.16 29.39,24.10 29.39,24.10 29.39,24.10 25.64,21.18 21.90,18.25 18.15,15.34 14.40,12.42 10.64,9.51 6.89,6.60 3.13,3.69 -0.61,0.78 -0.70,0.70 -0.78,0.61 -0.85,0.51 -0.91,0.41 -0.94,0.29 -0.98,0.18 -0.99,0.05 -0.99,-0.06 -0.97,-0.17 -0.95,-0.29 -0.90,-0.40 -0.85,-0.51 -0.78,-0.61 -0.70,-0.70 -0.61,-0.78 -0.51,-0.85 -0.40,-0.90 -0.29,-0.95 -0.17,-0.97 -0.06,-0.99 0.06,-0.99 0.18,-0.98 0.29,-0.94 0.41,-0.91 0.51,-0.85 Z" fill="#36a64c" stroke="#36a64c" stroke-width="2.11" stroke-dasharray="none" stroke-dashoffset="none" stroke-linecap="round" stroke-linejoin="round" pointer-events="stroke"/><g><path d="M 26.50,12.308831011533352 L 31.48,24.68 18.27,22.802164344866682" fill="none" stroke="#36a64c" stroke-width="4.23" stroke-linecap="round" stroke-linejoin="round" pointer-events="none"/></g></g></g><g id="4d9312e9-516c-4a60-132b-7bdd80933bd0_svg" class="tl-centered-g" transform="translate(827.56, 438.80) rotate(0.00, 0.50, 20.00)"><defs><mask id="4d9312e9-516c-4a60-132b-7bdd80933bd0_clip"><rect x="-100" y="-100" width="201" height="239.99" fill="white"/><rect x="0.4" y="19.99" width="0" height="0" rx="2" ry="2" fill="black" opacity="1"/></mask></defs><g pointer-events="none" opacity="1" mask=""><path d="M 0.90,-0.01 Q 0.90,-0.01 0.96,4.73 1.02,9.48 1.08,14.23 1.15,18.97 1.22,23.72 1.30,28.47 1.38,33.22 1.46,37.97 1.44,38.08 1.42,38.20 1.37,38.30 1.32,38.40 1.24,38.48 1.16,38.56 1.06,38.61 0.96,38.66 0.84,38.67 0.73,38.69 0.62,38.66 0.51,38.64 0.41,38.59 0.31,38.53 0.24,38.44 0.16,38.36 0.12,38.25 0.07,38.15 0.06,38.04 0.06,37.92 0.08,37.81 0.11,37.70 0.17,37.61 0.24,37.51 0.32,37.44 0.41,37.37 0.52,37.33 0.63,37.30 0.74,37.29 0.85,37.29 0.96,37.32 1.07,37.36 1.16,37.43 1.25,37.49 1.32,37.59 1.39,37.68 1.42,37.79 1.45,37.90 1.45,38.01 1.44,38.12 1.40,38.23 1.36,38.34 1.29,38.42 1.22,38.51 1.12,38.57 1.03,38.63 0.92,38.66 0.81,38.69 0.69,38.68 0.58,38.67 0.48,38.62 0.37,38.57 0.29,38.50 0.20,38.42 0.15,38.32 0.09,38.22 0.07,38.11 0.05,38.00 0.05,38.00 0.05,38.00 -0.05,33.25 -0.16,28.50 -0.27,23.75 -0.39,19.01 -0.51,14.26 -0.64,9.51 -0.77,4.76 -0.90,0.01 -0.89,-0.09 -0.88,-0.19 -0.84,-0.30 -0.81,-0.40 -0.75,-0.49 -0.69,-0.58 -0.61,-0.66 -0.52,-0.73 -0.43,-0.78 -0.33,-0.84 -0.23,-0.86 -0.12,-0.89 -0.01,-0.89 0.09,-0.90 0.19,-0.87 0.30,-0.85 0.40,-0.80 0.50,-0.75 0.58,-0.68 0.66,-0.61 0.73,-0.52 0.79,-0.43 0.83,-0.33 0.87,-0.23 0.89,-0.12 Z" fill="#717d8a" stroke="#717d8a" stroke-width="2.11" stroke-dasharray="none" stroke-dashoffset="none" stroke-linecap="round" stroke-linejoin="round" pointer-events="stroke"/><g><path d="M 7.23,28.3125480342201 L 0.8,39.99 -6.095940107675848,28.579214700886766" fill="none" stroke="#717d8a" stroke-width="4.23" stroke-linecap="round" stroke-linejoin="round" pointer-events="none"/></g></g></g><g id="6358c708-2561-4aaa-00df-a97e0d2c8b06_svg" class="tl-centered-g" transform="translate(883.85, 545.43) rotate(0.00, 17.77, 8.94)"><defs><mask id="6358c708-2561-4aaa-00df-a97e0d2c8b06_clip"><rect x="-100" y="-100" width="235.54" height="217.88" fill="white"/><rect x="17.77" y="8.94" width="0" height="0" rx="2" ry="2" fill="black" opacity="1"/></mask></defs><g pointer-events="none" opacity="1" mask=""><path d="M 0.46,-0.92 Q 0.46,-0.92 4.67,1.22 8.87,3.37 13.08,5.51 17.29,7.65 21.50,9.79 25.71,11.93 29.93,14.06 34.14,16.19 34.26,16.28 34.37,16.36 34.45,16.48 34.54,16.59 34.58,16.73 34.62,16.86 34.61,17.00 34.61,17.15 34.56,17.28 34.51,17.41 34.42,17.52 34.33,17.63 34.21,17.71 34.09,17.78 33.95,17.82 33.81,17.85 33.67,17.84 33.53,17.83 33.40,17.77 33.27,17.71 33.17,17.62 33.06,17.52 32.99,17.40 32.92,17.27 32.90,17.13 32.87,16.99 32.89,16.85 32.91,16.71 32.98,16.59 33.04,16.46 33.14,16.36 33.24,16.26 33.37,16.20 33.50,16.14 33.64,16.12 33.78,16.10 33.92,16.13 34.06,16.16 34.18,16.23 34.30,16.30 34.40,16.40 34.49,16.51 34.55,16.64 34.60,16.77 34.61,16.91 34.62,17.05 34.59,17.19 34.55,17.33 34.47,17.45 34.40,17.57 34.29,17.65 34.18,17.74 34.04,17.79 33.91,17.84 33.77,17.84 33.62,17.84 33.49,17.80 33.35,17.76 33.35,17.76 33.35,17.76 29.13,15.65 24.91,13.53 20.68,11.43 16.45,9.32 12.22,7.21 8.00,5.11 3.76,3.01 -0.46,0.92 -0.56,0.85 -0.67,0.78 -0.75,0.69 -0.83,0.60 -0.89,0.49 -0.95,0.38 -0.99,0.26 -1.02,0.14 -1.02,0.01 -1.02,-0.10 -0.99,-0.22 -0.97,-0.34 -0.91,-0.46 -0.86,-0.57 -0.77,-0.66 -0.69,-0.76 -0.59,-0.83 -0.49,-0.90 -0.37,-0.95 -0.26,-0.99 -0.14,-1.01 -0.01,-1.03 0.10,-1.01 0.23,-1.00 0.34,-0.96 Z" fill="#717d8a" stroke="#717d8a" stroke-width="2.11" stroke-dasharray="none" stroke-dashoffset="none" stroke-linecap="round" stroke-linejoin="round" pointer-events="stroke"/><g><path d="M 28.26,6.795155260111397 L 35.54,17.88 22.30,18.64182192677808" fill="none" stroke="#717d8a" stroke-width="4.23" stroke-linecap="round" stroke-linejoin="round" pointer-events="none"/></g></g></g><g id="475a7f28-3a99-4bb0-0141-e4c236d75927_svg" class="tl-centered-g" transform="translate(741.41, 548.05) rotate(0.00, 17.39, 9.89)"><defs><mask id="475a7f28-3a99-4bb0-0141-e4c236d75927_clip"><rect x="-100" y="-100" width="234.77" height="219.78" fill="white"/><rect x="17.38" y="9.89" width="0" height="0" rx="2" ry="2" fill="black" opacity="1"/></mask></defs><g pointer-events="none" opacity="1" mask=""><path d="M 35.22,0.79 Q 35.22,0.79 31.07,3.11 26.92,5.43 22.78,7.75 18.64,10.08 14.50,12.41 10.36,14.74 6.23,17.08 2.09,19.41 1.98,19.45 1.87,19.49 1.75,19.50 1.64,19.50 1.53,19.47 1.42,19.43 1.32,19.36 1.23,19.30 1.16,19.20 1.09,19.11 1.06,19.00 1.02,18.89 1.02,18.77 1.03,18.65 1.07,18.54 1.11,18.43 1.18,18.34 1.25,18.25 1.35,18.19 1.45,18.13 1.56,18.10 1.67,18.07 1.79,18.08 1.91,18.09 2.01,18.13 2.12,18.18 2.21,18.26 2.29,18.33 2.35,18.44 2.41,18.54 2.43,18.65 2.45,18.76 2.44,18.88 2.42,19.00 2.37,19.10 2.32,19.20 2.24,19.29 2.15,19.37 2.05,19.42 1.95,19.47 1.83,19.49 1.72,19.51 1.60,19.48 1.49,19.46 1.39,19.40 1.28,19.35 1.21,19.26 1.13,19.17 1.08,19.07 1.04,18.96 1.03,18.85 1.02,18.73 1.04,18.62 1.07,18.50 1.13,18.41 1.20,18.31 1.29,18.23 1.38,18.16 1.38,18.16 1.38,18.16 5.50,15.80 9.62,13.44 13.74,11.07 17.86,8.70 21.97,6.33 26.09,3.96 30.20,1.58 34.31,-0.79 34.41,-0.84 34.51,-0.88 34.62,-0.90 34.73,-0.91 34.84,-0.90 34.95,-0.89 35.06,-0.86 35.16,-0.82 35.26,-0.76 35.35,-0.70 35.43,-0.62 35.50,-0.54 35.56,-0.45 35.61,-0.35 35.64,-0.24 35.67,-0.14 35.68,-0.03 35.68,0.07 35.66,0.18 35.63,0.29 35.59,0.39 35.54,0.49 35.47,0.58 35.40,0.66 35.31,0.73 Z" fill="#717d8a" stroke="#717d8a" stroke-width="2.11" stroke-dasharray="none" stroke-dashoffset="none" stroke-linecap="round" stroke-linejoin="round" pointer-events="stroke"/><g><path d="M 13.33,19.8650058377146 L 0,19.78 6.74,8.275005837714602" fill="none" stroke="#717d8a" stroke-width="4.23" stroke-linecap="round" stroke-linejoin="round" pointer-events="none"/></g></g></g><g text-align="left" text-anchor="start" fill="#cecece" transform="translate(861.67, 198.45) rotate(0.00, 52.00, 23.50)"><text y="24" letter-spacing="-1.44" font-size="48px" font-family="Caveat Brush" text-align="left" alignment-baseline="central" transform="scale(0.7656448076539768)">loader()</text></g><g text-align="left" text-anchor="start" fill="#cecece" transform="translate(1048.57, 334.07) rotate(0.00, 52.00, 23.50)"><text y="24" letter-spacing="-1.44" font-size="48px" font-family="Caveat Brush" text-align="left" alignment-baseline="central" transform="scale(0.7656448076539768)">loader()</text></g><g text-align="left" text-anchor="start" fill="#cecece" transform="translate(784.19, 247.64) rotate(0.00, 84.50, 19.00)"><text y="24" letter-spacing="-1.44" font-size="48px" font-family="Caveat Brush" text-align="left" alignment-baseline="central" transform="scale(0.5905638027048287)">ProductsLayout()</text></g><g text-align="left" text-anchor="start" fill="#cecece" transform="translate(999.42, 383.82) rotate(0.00, 79.50, 19.00)"><text y="24" letter-spacing="-1.44" font-size="48px" font-family="Caveat Brush" text-align="left" alignment-baseline="central" transform="scale(0.5905638027048287)">ProductProfile()</text></g></svg>