<svg xmlns="http://www.w3.org/2000/svg" viewBox="0 0 1504 688" width="1504" height="688" style="background-color: transparent;"><defs><style>@import url('https://fonts.googleapis.com/css2?family=Caveat+Brush&amp;family=Source+Code+Pro&amp;family=Source+Sans+Pro&amp;family=Crimson+Pro&amp;display=block');</style></defs><g id="c286159d-3cd8-4d6d-2ca8-8004c36d8abf_svg" class="tl-centered-g" transform="translate(16.00, 16.00) rotate(0.00, 736.00, 328.00)"><g pointer-events="none" stroke="transparent" stroke-width="4.23" stroke-linecap="round"><line x1="2.11" y1="2.11" x2="1469.88" y2="2.11" stroke-dasharray="0.03 6.46" stroke-dashoffset="0"/><line x1="1469.88" y1="2.11" x2="1469.88" y2="653.88" stroke-dasharray="0.03 6.48" stroke-dashoffset="0"/><line x1="1469.88" y1="653.88" x2="2.11" y2="653.88" stroke-dasharray="0.03 6.46" stroke-dashoffset="0"/><line x1="2.11" y1="653.88" x2="2.11" y2="2.11" stroke-dasharray="0.03 6.48" stroke-dashoffset="0"/></g></g><g id="f52a5e6c-4c6b-42ab-27ac-01a9ccb145db_svg" class="tl-centered-g" transform="translate(543.18, 122.95) rotate(0.00, 24.68, 235.26)"><g opacity="1"><path d="M22.260,0.210Q22.260,0.210 21.15,0.481 20.04,0.751 18.93,1.319 17.81,1.887 16.66,2.700 15.50,3.513 14.24,4.508 12.97,5.503 11.78,6.547 10.58,7.592 9.58,8.562 8.58,9.533 7.67,10.508 6.76,11.483 5.95,12.442 5.13,13.401 4.49,14.267 3.85,15.133 3.40,15.933 2.95,16.733 2.66,17.574 2.37,18.415 2.21,19.371 2.04,20.328 1.95,21.029 1.86,21.729 1.88,22.510 1.91,23.291 2.13,24.083 2.35,24.875 2.81,25.686 3.27,26.497 3.92,27.382 4.57,28.266 5.38,29.204 6.19,30.143 7.12,31.113 8.06,32.084 9.05,33.016 10.05,33.948 11.22,34.882 12.39,35.815 13.71,36.720 15.03,37.625 16.27,38.427 17.51,39.229 18.61,39.892 19.71,40.554 20.73,41.137 21.75,41.720 22.70,42.302 23.66,42.884 24.56,43.467 25.46,44.050 26.30,44.630 27.15,45.209 27.93,45.784 28.70,46.360 29.40,46.948 30.09,47.537 30.70,48.171 31.31,48.805 31.82,49.468 32.32,50.132 32.72,50.811 33.12,51.491 33.44,52.247 33.76,53.003 34.00,53.906 34.23,54.810 34.37,55.821 34.51,56.833 34.58,57.855 34.66,58.876 34.58,59.886 34.50,60.896 34.06,62.007 33.62,63.118 32.81,64.362 32.00,65.607 30.99,66.887 29.99,68.168 28.81,69.547 27.63,70.925 25.97,72.703 24.31,74.481 23.12,75.776 21.93,77.071 20.75,78.353 19.57,79.635 18.61,80.723 17.64,81.812 16.84,82.778 16.04,83.744 15.29,84.739 14.55,85.734 13.91,86.726 13.27,87.719 12.74,88.661 12.21,89.603 11.81,90.469 11.42,91.334 11.16,92.192 10.91,93.050 10.76,93.894 10.62,94.737 10.55,95.577 10.47,96.417 10.48,97.256 10.49,98.096 10.71,98.851 10.92,99.606 11.43,100.287 11.94,100.968 12.78,101.656 13.62,102.343 14.76,103.049 15.90,103.756 17.23,104.452 18.55,105.149 20.03,105.870 21.50,106.591 23.08,107.322 24.66,108.054 26.12,108.699 27.57,109.345 28.82,109.890 30.06,110.435 31.23,110.986 32.40,111.538 33.50,112.116 34.60,112.693 35.56,113.241 36.51,113.788 37.27,114.319 38.03,114.850 38.60,115.454 39.17,116.058 39.58,116.736 39.99,117.415 40.23,118.148 40.47,118.880 40.61,119.708 40.74,120.536 40.63,121.461 40.51,122.386 39.95,123.494 39.38,124.603 38.32,125.918 37.25,127.233 35.22,129.199 33.18,131.165 31.62,132.583 30.07,134.000 27.85,135.841 25.63,137.683 23.95,139.052 22.28,140.420 20.71,141.673 19.15,142.926 17.58,144.187 16.00,145.447 14.35,146.817 12.70,148.187 11.43,149.336 10.16,150.484 8.96,151.627 7.76,152.769 6.61,153.935 5.46,155.101 4.65,156.132 3.84,157.163 3.21,158.170 2.59,159.176 2.11,160.139 1.63,161.102 1.29,162.041 0.95,162.981 0.73,163.862 0.52,164.743 0.40,165.521 0.29,166.299 0.22,167.047 0.16,167.794 0.18,168.570 0.20,169.345 0.43,170.069 0.65,170.793 1.15,171.457 1.65,172.121 2.43,172.803 3.22,173.485 4.24,174.238 5.26,174.991 6.46,175.790 7.65,176.588 8.99,177.425 10.34,178.263 11.82,179.206 13.30,180.150 14.81,181.210 16.33,182.271 17.77,183.432 19.22,184.593 20.62,185.955 22.03,187.317 23.31,188.832 24.59,190.348 25.61,191.879 26.64,193.410 27.42,194.956 28.20,196.502 28.77,198.097 29.33,199.692 29.80,201.942 30.27,204.193 30.53,205.839 30.79,207.485 30.94,209.272 31.08,211.058 31.03,212.920 30.97,214.782 30.63,216.619 30.28,218.455 29.68,220.300 29.07,222.145 28.33,223.927 27.59,225.709 26.90,227.168 26.22,228.627 25.49,229.937 24.77,231.246 24.01,232.547 23.25,233.848 22.63,234.936 22.00,236.024 21.52,236.900 21.03,237.776 20.69,238.482 20.35,239.188 20.14,239.781 19.93,240.375 19.82,240.870 19.71,241.366 19.76,241.814 19.81,242.263 20.25,242.739 20.70,243.215 21.58,243.731 22.47,244.246 23.74,244.804 25.02,245.362 26.65,245.959 28.29,246.556 29.98,247.130 31.68,247.703 33.24,248.231 34.80,248.758 36.27,249.286 37.74,249.815 39.14,250.353 40.54,250.891 41.81,251.453 43.08,252.014 44.10,252.575 45.13,253.135 45.91,253.624 46.69,254.113 47.25,254.482 47.81,254.850 48.15,255.085 48.50,255.320 48.69,255.477 48.89,255.633 48.97,255.850 49.06,256.066 48.99,256.539 48.93,257.012 48.64,257.821 48.35,258.631 47.86,259.725 47.36,260.819 46.65,262.094 45.95,263.370 45.07,264.791 44.19,266.212 43.18,267.795 42.17,269.379 40.96,271.138 39.75,272.897 38.41,274.737 37.08,276.577 35.76,278.320 34.45,280.064 33.18,281.670 31.90,283.275 30.69,284.784 29.48,286.294 28.62,287.362 27.75,288.431 26.78,289.632 25.80,290.834 25.16,291.667 24.52,292.501 24.03,293.262 23.54,294.022 23.20,294.697 22.87,295.373 22.65,295.999 22.43,296.624 22.31,297.225 22.19,297.826 22.13,298.413 22.06,299.000 22.20,299.553 22.33,300.106 22.75,300.682 23.16,301.258 23.72,301.880 24.29,302.503 24.99,303.147 25.70,303.790 26.43,304.421 27.17,305.052 27.82,305.685 28.48,306.318 29.08,306.974 29.68,307.630 30.20,308.321 30.73,309.013 31.17,309.813 31.61,310.614 31.93,311.548 32.24,312.483 32.43,313.574 32.62,314.665 32.53,316.083 32.44,317.500 31.79,319.348 31.15,321.196 29.88,323.410 28.62,325.624 26.83,328.129 25.04,330.634 23.08,333.117 21.12,335.600 19.18,337.933 17.23,340.267 15.44,342.407 13.65,344.547 12.09,346.431 10.53,348.316 9.16,349.961 7.79,351.607 6.67,352.979 5.55,354.351 4.70,355.501 3.86,356.651 3.32,357.682 2.78,358.714 2.47,359.652 2.17,360.591 2.19,361.446 2.22,362.300 2.73,363.023 3.24,363.746 4.30,364.514 5.36,365.282 6.69,365.967 8.03,366.651 9.72,367.360 11.40,368.069 13.28,368.841 15.16,369.613 16.95,370.346 18.73,371.080 20.33,371.771 21.93,372.463 23.43,373.133 24.93,373.804 26.34,374.512 27.74,375.221 28.98,376.026 30.21,376.831 31.10,377.668 31.99,378.504 32.52,379.414 33.06,380.324 33.33,381.397 33.61,382.470 33.61,383.775 33.60,385.079 33.19,386.623 32.78,388.167 32.07,389.765 31.36,391.364 30.58,392.835 29.81,394.307 29.01,395.721 28.21,397.136 27.41,398.545 26.61,399.953 25.91,401.272 25.22,402.592 24.66,403.873 24.10,405.155 23.69,406.436 23.27,407.717 23.01,408.908 22.76,410.099 22.67,411.176 22.59,412.252 22.77,413.243 22.96,414.234 23.48,415.184 24.00,416.134 24.77,417.032 25.54,417.931 26.40,418.709 27.26,419.488 28.09,420.135 28.93,420.782 29.70,421.350 30.48,421.918 31.23,422.484 31.99,423.051 32.66,423.769 33.33,424.487 33.74,425.056 34.15,425.625 34.40,426.284 34.66,426.943 34.80,427.754 34.94,428.566 34.86,429.630 34.77,430.693 34.34,431.914 33.91,433.135 33.35,434.327 32.79,435.518 32.20,436.693 31.61,437.868 30.92,439.135 30.23,440.402 29.54,441.672 28.86,442.943 28.31,444.072 27.75,445.201 27.33,446.197 26.91,447.192 26.64,448.192 26.36,449.192 26.21,450.256 26.05,451.321 25.97,452.397 25.88,453.473 25.84,454.555 25.79,455.638 25.77,456.723 25.74,457.809 25.75,458.879 25.76,459.949 25.82,461.032 25.89,462.115 26.00,463.163 26.12,464.212 26.25,465.131 26.38,466.050 26.52,466.809 26.66,467.567 26.77,468.154 26.88,468.741 27.04,469.635 27.21,470.530 27.21,470.530 " fill="none" stroke="none" stroke-width="4" stroke-linejoin="round" stroke-linecap="round" pointer-events="none"/><path d="M22.260,0.210Q22.260,0.210 21.15,0.481 20.04,0.751 18.93,1.319 17.81,1.887 16.66,2.700 15.50,3.513 14.24,4.508 12.97,5.503 11.78,6.547 10.58,7.592 9.58,8.562 8.58,9.533 7.67,10.508 6.76,11.483 5.95,12.442 5.13,13.401 4.49,14.267 3.85,15.133 3.40,15.933 2.95,16.733 2.66,17.574 2.37,18.415 2.21,19.371 2.04,20.328 1.95,21.029 1.86,21.729 1.88,22.510 1.91,23.291 2.13,24.083 2.35,24.875 2.81,25.686 3.27,26.497 3.92,27.382 4.57,28.266 5.38,29.204 6.19,30.143 7.12,31.113 8.06,32.084 9.05,33.016 10.05,33.948 11.22,34.882 12.39,35.815 13.71,36.720 15.03,37.625 16.27,38.427 17.51,39.229 18.61,39.892 19.71,40.554 20.73,41.137 21.75,41.720 22.70,42.302 23.66,42.884 24.56,43.467 25.46,44.050 26.30,44.630 27.15,45.209 27.93,45.784 28.70,46.360 29.40,46.948 30.09,47.537 30.70,48.171 31.31,48.805 31.82,49.468 32.32,50.132 32.72,50.811 33.12,51.491 33.44,52.247 33.76,53.003 34.00,53.906 34.23,54.810 34.37,55.821 34.51,56.833 34.58,57.855 34.66,58.876 34.58,59.886 34.50,60.896 34.06,62.007 33.62,63.118 32.81,64.362 32.00,65.607 30.99,66.887 29.99,68.168 28.81,69.547 27.63,70.925 25.97,72.703 24.31,74.481 23.12,75.776 21.93,77.071 20.75,78.353 19.57,79.635 18.61,80.723 17.64,81.812 16.84,82.778 16.04,83.744 15.29,84.739 14.55,85.734 13.91,86.726 13.27,87.719 12.74,88.661 12.21,89.603 11.81,90.469 11.42,91.334 11.16,92.192 10.91,93.050 10.76,93.894 10.62,94.737 10.55,95.577 10.47,96.417 10.48,97.256 10.49,98.096 10.71,98.851 10.92,99.606 11.43,100.287 11.94,100.968 12.78,101.656 13.62,102.343 14.76,103.049 15.90,103.756 17.23,104.452 18.55,105.149 20.03,105.870 21.50,106.591 23.08,107.322 24.66,108.054 26.12,108.699 27.57,109.345 28.82,109.890 30.06,110.435 31.23,110.986 32.40,111.538 33.50,112.116 34.60,112.693 35.56,113.241 36.51,113.788 37.27,114.319 38.03,114.850 38.60,115.454 39.17,116.058 39.58,116.736 39.99,117.415 40.23,118.148 40.47,118.880 40.61,119.708 40.74,120.536 40.63,121.461 40.51,122.386 39.95,123.494 39.38,124.603 38.32,125.918 37.25,127.233 35.22,129.199 33.18,131.165 31.62,132.583 30.07,134.000 27.85,135.841 25.63,137.683 23.95,139.052 22.28,140.420 20.71,141.673 19.15,142.926 17.58,144.187 16.00,145.447 14.35,146.817 12.70,148.187 11.43,149.336 10.16,150.484 8.96,151.627 7.76,152.769 6.61,153.935 5.46,155.101 4.65,156.132 3.84,157.163 3.21,158.170 2.59,159.176 2.11,160.139 1.63,161.102 1.29,162.041 0.95,162.981 0.73,163.862 0.52,164.743 0.40,165.521 0.29,166.299 0.22,167.047 0.16,167.794 0.18,168.570 0.20,169.345 0.43,170.069 0.65,170.793 1.15,171.457 1.65,172.121 2.43,172.803 3.22,173.485 4.24,174.238 5.26,174.991 6.46,175.790 7.65,176.588 8.99,177.425 10.34,178.263 11.82,179.206 13.30,180.150 14.81,181.210 16.33,182.271 17.77,183.432 19.22,184.593 20.62,185.955 22.03,187.317 23.31,188.832 24.59,190.348 25.61,191.879 26.64,193.410 27.42,194.956 28.20,196.502 28.77,198.097 29.33,199.692 29.80,201.942 30.27,204.193 30.53,205.839 30.79,207.485 30.94,209.272 31.08,211.058 31.03,212.920 30.97,214.782 30.63,216.619 30.28,218.455 29.68,220.300 29.07,222.145 28.33,223.927 27.59,225.709 26.90,227.168 26.22,228.627 25.49,229.937 24.77,231.246 24.01,232.547 23.25,233.848 22.63,234.936 22.00,236.024 21.52,236.900 21.03,237.776 20.69,238.482 20.35,239.188 20.14,239.781 19.93,240.375 19.82,240.870 19.71,241.366 19.76,241.814 19.81,242.263 20.25,242.739 20.70,243.215 21.58,243.731 22.47,244.246 23.74,244.804 25.02,245.362 26.65,245.959 28.29,246.556 29.98,247.130 31.68,247.703 33.24,248.231 34.80,248.758 36.27,249.286 37.74,249.815 39.14,250.353 40.54,250.891 41.81,251.453 43.08,252.014 44.10,252.575 45.13,253.135 45.91,253.624 46.69,254.113 47.25,254.482 47.81,254.850 48.15,255.085 48.50,255.320 48.69,255.477 48.89,255.633 48.97,255.850 49.06,256.066 48.99,256.539 48.93,257.012 48.64,257.821 48.35,258.631 47.86,259.725 47.36,260.819 46.65,262.094 45.95,263.370 45.07,264.791 44.19,266.212 43.18,267.795 42.17,269.379 40.96,271.138 39.75,272.897 38.41,274.737 37.08,276.577 35.76,278.320 34.45,280.064 33.18,281.670 31.90,283.275 30.69,284.784 29.48,286.294 28.62,287.362 27.75,288.431 26.78,289.632 25.80,290.834 25.16,291.667 24.52,292.501 24.03,293.262 23.54,294.022 23.20,294.697 22.87,295.373 22.65,295.999 22.43,296.624 22.31,297.225 22.19,297.826 22.13,298.413 22.06,299.000 22.20,299.553 22.33,300.106 22.75,300.682 23.16,301.258 23.72,301.880 24.29,302.503 24.99,303.147 25.70,303.790 26.43,304.421 27.17,305.052 27.82,305.685 28.48,306.318 29.08,306.974 29.68,307.630 30.20,308.321 30.73,309.013 31.17,309.813 31.61,310.614 31.93,311.548 32.24,312.483 32.43,313.574 32.62,314.665 32.53,316.083 32.44,317.500 31.79,319.348 31.15,321.196 29.88,323.410 28.62,325.624 26.83,328.129 25.04,330.634 23.08,333.117 21.12,335.600 19.18,337.933 17.23,340.267 15.44,342.407 13.65,344.547 12.09,346.431 10.53,348.316 9.16,349.961 7.79,351.607 6.67,352.979 5.55,354.351 4.70,355.501 3.86,356.651 3.32,357.682 2.78,358.714 2.47,359.652 2.17,360.591 2.19,361.446 2.22,362.300 2.73,363.023 3.24,363.746 4.30,364.514 5.36,365.282 6.69,365.967 8.03,366.651 9.72,367.360 11.40,368.069 13.28,368.841 15.16,369.613 16.95,370.346 18.73,371.080 20.33,371.771 21.93,372.463 23.43,373.133 24.93,373.804 26.34,374.512 27.74,375.221 28.98,376.026 30.21,376.831 31.10,377.668 31.99,378.504 32.52,379.414 33.06,380.324 33.33,381.397 33.61,382.470 33.61,383.775 33.60,385.079 33.19,386.623 32.78,388.167 32.07,389.765 31.36,391.364 30.58,392.835 29.81,394.307 29.01,395.721 28.21,397.136 27.41,398.545 26.61,399.953 25.91,401.272 25.22,402.592 24.66,403.873 24.10,405.155 23.69,406.436 23.27,407.717 23.01,408.908 22.76,410.099 22.67,411.176 22.59,412.252 22.77,413.243 22.96,414.234 23.48,415.184 24.00,416.134 24.77,417.032 25.54,417.931 26.40,418.709 27.26,419.488 28.09,420.135 28.93,420.782 29.70,421.350 30.48,421.918 31.23,422.484 31.99,423.051 32.66,423.769 33.33,424.487 33.74,425.056 34.15,425.625 34.40,426.284 34.66,426.943 34.80,427.754 34.94,428.566 34.86,429.630 34.77,430.693 34.34,431.914 33.91,433.135 33.35,434.327 32.79,435.518 32.20,436.693 31.61,437.868 30.92,439.135 30.23,440.402 29.54,441.672 28.86,442.943 28.31,444.072 27.75,445.201 27.33,446.197 26.91,447.192 26.64,448.192 26.36,449.192 26.21,450.256 26.05,451.321 25.97,452.397 25.88,453.473 25.84,454.555 25.79,455.638 25.77,456.723 25.74,457.809 25.75,458.879 25.76,459.949 25.82,461.032 25.89,462.115 26.00,463.163 26.12,464.212 26.25,465.131 26.38,466.050 26.52,466.809 26.66,467.567 26.77,468.154 26.88,468.741 27.04,469.635 27.21,470.530 27.21,470.530 " fill="none" stroke="#717d8a" stroke-width="4" stroke-dasharray="0.1 8" stroke-dashoffset="0" stroke-linejoin="round" stroke-linecap="round" pointer-events="none"/></g></g><text font-size="54.78445178627949px" font-family="Caveat Brush" font-weight="normal" line-height="54.78445178627949px" letter-spacing="-0.03em" text-align="left" dominant-baseline="mathematical" alignment-baseline="mathematical" text-anchor="start" fill="#cecece" transform="translate(237.53, 89.59) rotate(0.00, 55.00, 32.50)"><tspan y="27.392225893139745px" x="4">client
</tspan></text><g id="6f9ba4da-3139-4351-2455-7a5c2246828c_svg" class="tl-centered-g" transform="translate(111.13, 156.77) rotate(0.00, 182.85, 159.67)"><path d="M89.758,0.270Q89.758,0.270 96.05,0.299 102.34,0.328 110.24,0.357 118.13,0.386 126.44,0.415 134.74,0.443 143.15,0.472 151.57,0.501 160.00,0.529 168.44,0.558 176.88,0.556 185.33,0.553 193.77,0.520 202.22,0.487 210.66,0.454 219.11,0.420 227.56,0.387 236.00,0.354 244.45,0.321 252.89,0.287 261.34,0.254 269.79,0.221 278.23,0.188 286.68,0.154 295.13,0.121 303.57,0.088 312.02,0.055 320.46,0.021 328.91,-0.012 337.36,-0.045 345.82,-0.074 354.29,-0.103 358.48,1.769 362.66,3.640 363.81,10.750 364.96,17.860 365.17,26.071 365.38,34.283 365.41,42.771 365.44,51.258 365.42,59.821 365.40,68.383 365.37,76.965 365.34,85.546 365.31,94.133 365.28,102.720 365.24,111.308 365.21,119.896 365.18,128.485 365.14,137.073 365.11,145.661 365.07,154.250 365.11,162.838 365.15,171.427 365.19,180.015 365.23,188.604 365.27,197.192 365.31,205.781 365.35,214.369 365.38,222.958 365.42,231.546 365.46,240.135 365.50,248.723 365.54,257.312 365.58,265.900 365.62,274.489 365.65,283.077 365.69,291.665 365.73,300.277 365.76,308.888 363.89,313.109 362.02,317.330 355.02,318.483 348.02,319.636 339.95,319.841 331.87,320.047 323.53,320.066 315.18,320.085 306.77,320.059 298.35,320.032 289.92,319.994 281.48,319.956 273.04,319.915 264.60,319.874 256.16,319.832 247.72,319.790 239.28,319.748 230.84,319.706 222.40,319.664 213.96,319.622 205.51,319.580 197.07,319.538 188.63,319.527 180.19,319.516 171.75,319.536 163.31,319.555 154.87,319.575 146.42,319.595 137.98,319.615 129.54,319.635 121.10,319.654 112.66,319.674 104.22,319.694 95.78,319.714 87.33,319.734 78.89,319.754 70.45,319.773 62.01,319.793 53.57,319.813 45.13,319.833 36.69,319.853 28.25,319.872 19.78,319.888 11.32,319.903 7.13,318.029 2.95,316.156 1.80,309.056 0.65,301.956 0.43,293.759 0.22,285.562 0.18,277.090 0.15,268.617 0.16,260.071 0.18,251.524 0.20,242.958 0.22,234.392 0.25,225.820 0.28,217.249 0.31,208.677 0.33,200.105 0.36,191.532 0.39,182.959 0.42,174.386 0.44,165.813 0.40,157.241 0.36,148.668 0.31,140.095 0.27,131.522 0.22,122.950 0.18,114.377 0.14,105.804 0.09,97.231 0.05,88.658 0.00,80.086 -0.037,71.513 -0.082,62.940 -0.126,54.367 -0.170,45.795 -0.214,37.222 -0.259,28.649 -0.298,20.054 -0.338,11.458 1.53,7.241 3.39,3.024 10.40,1.862 17.40,0.699 25.48,0.481 33.56,0.264 41.91,0.231 50.26,0.199 58.68,0.212 67.10,0.225 75.54,0.249 83.98,0.274 92.42,0.302 100.87,0.329 109.31,0.358 117.76,0.386 126.20,0.415 134.65,0.443 143.09,0.472 151.54,0.501 159.99,0.529 168.43,0.558 176.88,0.556 185.33,0.553 193.77,0.520 202.22,0.487 213.55,0.453 224.89,0.419 225.08,0.449 225.26,0.479 225.43,0.567 225.59,0.654 225.72,0.790 225.85,0.925 225.93,1.095 226.00,1.264 226.03,1.450 226.05,1.636 226.01,1.818 225.97,2.001 225.87,2.161 225.77,2.321 225.63,2.442 225.49,2.563 225.31,2.632 225.14,2.701 224.95,2.711 224.77,2.722 224.59,2.672 224.41,2.622 224.25,2.517 224.10,2.412 223.99,2.263 223.87,2.115 223.81,1.938 223.75,1.760 223.75,1.574 223.75,1.387 223.81,1.210 223.87,1.033 223.98,0.884 224.10,0.735 224.25,0.630 224.41,0.526 224.59,0.476 224.77,0.426 224.95,0.436 225.14,0.446 225.31,0.515 225.49,0.584 225.63,0.705 225.77,0.826 225.87,0.986 225.96,1.146 226.01,1.329 226.05,1.511 226.03,1.697 226.00,1.882 225.93,2.052 225.85,2.222 225.72,2.357 225.59,2.493 225.43,2.580 225.26,2.668 225.08,2.698 224.89,2.728 224.89,2.728 224.89,2.728 213.56,2.700 202.22,2.673 193.77,2.644 185.33,2.615 176.88,2.618 168.43,2.620 159.99,2.653 151.54,2.686 143.10,2.720 134.65,2.753 126.20,2.786 117.76,2.820 109.31,2.853 100.87,2.887 92.42,2.921 83.98,2.955 75.54,2.992 67.10,3.030 58.69,3.078 50.28,3.127 41.96,3.221 33.65,3.315 25.74,3.580 17.84,3.844 11.50,4.560 5.15,5.276 4.05,8.411 2.94,11.546 2.92,20.096 2.89,28.646 2.86,37.219 2.84,45.792 2.81,54.365 2.78,62.937 2.75,71.510 2.72,80.083 2.70,88.656 2.67,97.229 2.64,105.802 2.61,114.374 2.58,122.947 2.56,131.520 2.53,140.093 2.50,148.666 2.47,157.239 2.44,165.812 2.49,174.384 2.53,182.957 2.58,191.530 2.62,200.102 2.67,208.674 2.71,217.247 2.76,225.817 2.80,234.388 2.85,242.952 2.90,251.516 2.96,260.055 3.02,268.594 3.12,277.033 3.23,285.471 3.50,293.499 3.77,301.527 4.49,307.962 5.21,314.397 8.31,315.509 11.41,316.621 19.83,316.659 28.25,316.696 36.69,316.738 45.13,316.780 53.57,316.822 62.01,316.865 70.46,316.907 78.90,316.949 87.34,316.991 95.78,317.033 104.22,317.075 112.66,317.117 121.10,317.159 129.54,317.201 137.99,317.243 146.43,317.286 154.87,317.328 163.31,317.370 171.75,317.412 180.19,317.454 188.63,317.465 197.08,317.476 205.52,317.456 213.96,317.437 222.40,317.417 230.84,317.397 239.28,317.377 247.72,317.357 256.16,317.337 264.61,317.317 273.04,317.296 281.48,317.275 289.92,317.252 298.35,317.228 306.76,317.192 315.17,317.157 323.47,317.076 331.78,316.995 339.68,316.743 347.59,316.490 353.93,315.783 360.26,315.076 361.37,311.937 362.48,308.798 362.51,300.232 362.54,291.666 362.57,283.078 362.61,274.489 362.64,265.901 362.67,257.312 362.71,248.724 362.74,240.135 362.77,231.547 362.81,222.958 362.84,214.370 362.87,205.781 362.91,197.193 362.94,188.604 362.97,180.016 363.01,171.427 363.04,162.839 363.07,154.250 363.04,145.662 363.00,137.074 362.96,128.485 362.92,119.897 362.88,111.309 362.84,102.721 362.80,94.135 362.76,85.548 362.72,76.969 362.68,68.389 362.62,59.834 362.57,51.280 362.47,42.826 362.37,34.372 362.10,26.329 361.83,18.287 361.12,11.841 360.41,5.394 357.30,4.287 354.20,3.179 345.78,3.155 337.36,3.131 328.91,3.102 320.46,3.074 312.02,3.045 303.57,3.016 295.13,2.988 286.68,2.959 278.23,2.930 269.79,2.902 261.34,2.873 252.90,2.844 244.45,2.816 236.00,2.787 227.56,2.759 219.11,2.730 210.66,2.701 202.22,2.673 193.77,2.644 185.33,2.615 176.88,2.618 168.44,2.620 160.00,2.653 151.57,2.686 143.16,2.720 134.75,2.753 126.44,2.786 118.13,2.819 110.24,2.852 102.34,2.885 96.05,2.918 89.75,2.951 89.59,2.931 89.43,2.912 89.28,2.855 89.13,2.797 89.00,2.706 88.87,2.614 88.76,2.493 88.65,2.372 88.58,2.229 88.50,2.086 88.46,1.929 88.42,1.772 88.42,1.611 88.42,1.449 88.46,1.292 88.50,1.135 88.58,0.992 88.65,0.849 88.76,0.728 88.87,0.607 89.00,0.515 89.13,0.424 89.28,0.366 89.43,0.309 89.59,0.289 Z" fill="#cecece" stroke="#cecece" stroke-width="2" pointer-events="none"/></g><g id="1d6b82d3-91b8-4cbd-131b-fb4add35a06f_svg" class="tl-centered-g" transform="translate(118.51, 165.35) rotate(0.00, 174.19, 20.79)"><path d="M348.897,28.125Q348.897,28.125 348.96,29.816 349.04,31.506 349.07,33.717 349.11,35.928 347.27,38.464 345.44,40.999 338.34,41.704 331.25,42.410 323.17,42.515 315.10,42.620 306.72,42.625 298.35,42.629 289.90,42.609 281.45,42.588 272.97,42.561 264.50,42.535 256.02,42.506 247.54,42.477 239.06,42.449 230.58,42.420 222.10,42.391 213.62,42.362 205.14,42.332 196.66,42.303 188.18,42.274 179.70,42.245 171.22,42.281 162.74,42.317 154.26,42.353 145.78,42.389 137.30,42.425 128.82,42.461 120.34,42.497 111.86,42.533 103.38,42.569 94.90,42.604 86.42,42.640 77.94,42.676 69.46,42.712 60.98,42.748 52.50,42.784 44.02,42.820 35.54,42.856 27.06,42.892 18.56,42.923 10.06,42.955 5.98,41.277 1.91,39.599 0.79,37.108 -0.330,34.616 -0.471,32.102 -0.612,29.588 -0.524,27.203 -0.436,24.818 -0.393,22.461 -0.350,20.104 -0.388,17.750 -0.426,15.397 -0.461,13.044 -0.496,10.692 -0.503,8.259 -0.510,5.826 1.33,3.235 3.18,0.644 10.27,-0.057 17.36,-0.758 25.42,-0.840 33.49,-0.922 41.85,-0.899 50.22,-0.876 58.66,-0.827 67.10,-0.779 75.56,-0.723 84.03,-0.667 92.49,-0.610 100.96,-0.553 109.43,-0.495 117.90,-0.437 126.37,-0.380 134.84,-0.322 143.31,-0.264 151.78,-0.206 160.25,-0.148 168.72,-0.090 177.19,-0.098 185.66,-0.105 194.13,-0.112 202.59,-0.119 211.06,-0.126 219.53,-0.133 228.00,-0.140 236.47,-0.148 244.94,-0.155 253.41,-0.162 261.88,-0.169 270.35,-0.176 278.82,-0.183 287.29,-0.190 295.76,-0.198 304.23,-0.205 312.70,-0.212 321.17,-0.219 329.66,-0.222 338.15,-0.224 342.22,1.451 346.28,3.125 347.42,5.555 348.57,7.986 348.74,10.426 348.92,12.866 348.86,15.173 348.80,17.480 348.79,19.755 348.77,22.030 348.84,24.301 348.91,26.571 348.96,29.617 349.02,32.662 348.98,32.895 348.94,33.129 348.82,33.337 348.71,33.545 348.54,33.705 348.36,33.866 348.15,33.963 347.93,34.060 347.69,34.082 347.46,34.105 347.23,34.051 347.00,33.998 346.80,33.873 346.59,33.748 346.44,33.566 346.29,33.384 346.21,33.162 346.12,32.941 346.11,32.705 346.10,32.468 346.17,32.240 346.23,32.013 346.37,31.818 346.51,31.624 346.70,31.483 346.89,31.342 347.11,31.269 347.34,31.196 347.57,31.199 347.81,31.202 348.03,31.281 348.26,31.359 348.44,31.505 348.63,31.650 348.76,31.848 348.89,32.046 348.95,32.275 349.01,32.504 349.00,32.740 348.98,32.977 348.89,33.196 348.80,33.415 348.65,33.593 348.49,33.772 348.29,33.891 348.08,34.011 347.85,34.059 347.62,34.107 347.38,34.079 347.15,34.050 346.93,33.948 346.72,33.846 346.55,33.681 346.38,33.516 346.27,33.305 346.16,33.094 346.13,32.860 346.09,32.626 346.09,32.626 346.09,32.626 346.22,29.585 346.35,26.543 346.47,24.281 346.59,22.018 346.60,19.764 346.61,17.511 346.49,15.309 346.37,13.107 346.12,11.112 345.87,9.117 345.20,7.406 344.53,5.694 341.29,4.376 338.05,3.058 329.61,3.004 321.16,2.951 312.69,2.893 304.22,2.835 295.75,2.777 287.28,2.720 278.81,2.662 270.34,2.604 261.87,2.546 253.40,2.488 244.94,2.430 236.47,2.372 228.00,2.315 219.53,2.257 211.06,2.199 202.59,2.141 194.12,2.083 185.65,2.025 177.18,1.967 168.71,1.910 160.24,1.917 151.77,1.924 143.30,1.931 134.83,1.938 126.36,1.945 117.89,1.953 109.42,1.960 100.95,1.967 92.49,1.975 84.02,1.983 75.56,1.992 67.10,2.001 58.66,2.018 50.22,2.034 41.88,2.076 33.53,2.118 25.57,2.260 17.60,2.403 11.30,2.729 5.00,3.056 3.84,4.643 2.68,6.230 2.55,8.497 2.43,10.764 2.28,13.110 2.13,15.456 1.98,17.800 1.83,20.144 1.79,22.480 1.75,24.815 1.84,27.101 1.93,29.386 2.16,31.460 2.38,33.534 3.03,35.303 3.69,37.071 6.92,38.372 10.15,39.673 18.60,39.697 27.06,39.722 35.54,39.751 44.02,39.780 52.50,39.809 60.98,39.838 69.46,39.867 77.94,39.896 86.42,39.925 94.90,39.954 103.38,39.984 111.86,40.013 120.34,40.042 128.82,40.071 137.30,40.100 145.78,40.129 154.26,40.158 162.74,40.187 171.22,40.216 179.70,40.245 188.18,40.209 196.66,40.173 205.14,40.137 213.62,40.102 222.10,40.066 230.58,40.030 239.06,39.994 247.54,39.957 256.02,39.921 264.50,39.885 272.97,39.846 281.44,39.808 289.89,39.764 298.34,39.719 306.69,39.650 315.05,39.580 323.02,39.415 331.00,39.249 337.31,38.914 343.61,38.579 344.77,37.053 345.93,35.527 346.02,33.498 346.11,31.469 346.22,29.781 346.34,28.093 346.36,27.940 346.38,27.787 346.43,27.644 346.49,27.501 346.58,27.375 346.67,27.249 346.78,27.148 346.90,27.048 347.04,26.978 347.18,26.908 347.33,26.873 347.48,26.838 347.63,26.840 347.78,26.842 347.93,26.881 348.08,26.920 348.22,26.993 348.35,27.066 348.47,27.170 348.58,27.274 348.67,27.402 348.75,27.529 348.81,27.674 348.86,27.819 348.88,27.972 Z" fill="#cecece" stroke="#cecece" stroke-width="2" pointer-events="none"/></g><text font-size="27.538391200279698px" font-family="Caveat Brush" font-weight="normal" line-height="27.538391200279698px" letter-spacing="-0.03em" text-align="left" dominant-baseline="mathematical" alignment-baseline="mathematical" text-anchor="start" fill="#cecece" transform="translate(125.49, 167.17) rotate(0.00, 92.50, 19.00)"><tspan y="13.769195600139849px" x="4">site.com/products/5
</tspan></text><g id="6c13f8b0-2686-48d0-3727-605e1495df2a_svg" class="tl-centered-g" transform="translate(124.80, 218.70) rotate(0.00, 167.42, 1.01)"><defs><mask id="6c13f8b0-2686-48d0-3727-605e1495df2a_clip"><rect x="-100" y="-100" width="534.83" height="202.03" fill="white"/><rect x="167.42" y="1.01" width="0" height="0" rx="4" ry="4" fill="black" opacity="1"/></mask></defs><g pointer-events="none" opacity="1" mask=""><path d="M-0.005,1.142Q-0.005,1.142 41.85,0.927 83.70,0.713 125.56,0.488 167.41,0.264 209.27,0.032 251.12,-0.200 292.98,-0.438 334.83,-0.676 334.94,-0.659 335.05,-0.642 335.14,-0.591 335.24,-0.541 335.32,-0.462 335.39,-0.383 335.44,-0.284 335.49,-0.185 335.50,-0.076 335.51,0.033 335.49,0.139 335.46,0.246 335.41,0.340 335.35,0.434 335.27,0.506 335.19,0.577 335.09,0.618 334.98,0.659 334.88,0.666 334.77,0.672 334.66,0.644 334.56,0.615 334.46,0.554 334.37,0.493 334.31,0.407 334.24,0.320 334.20,0.217 334.17,0.113 334.17,0.004 334.17,-0.105 334.20,-0.209 334.24,-0.313 334.30,-0.400 334.37,-0.488 334.46,-0.550 334.55,-0.612 334.65,-0.642 334.76,-0.671 334.87,-0.666 334.98,-0.661 335.08,-0.621 335.18,-0.581 335.26,-0.511 335.35,-0.441 335.40,-0.347 335.46,-0.254 335.49,-0.147 335.51,-0.041 335.50,0.068 335.49,0.177 335.44,0.277 335.40,0.376 335.32,0.456 335.25,0.536 335.15,0.587 335.06,0.639 334.95,0.658 334.84,0.676 334.84,0.676 334.84,0.676 292.98,0.946 251.13,1.215 209.27,1.491 167.42,1.766 125.57,2.049 83.71,2.332 41.86,2.625 0.00,2.918 -0.101,2.906 -0.207,2.893 -0.308,2.856 -0.408,2.819 -0.496,2.758 -0.585,2.698 -0.656,2.619 -0.728,2.539 -0.778,2.444 -0.828,2.350 -0.855,2.246 -0.881,2.142 -0.881,2.035 -0.882,1.928 -0.857,1.824 -0.832,1.720 -0.783,1.625 -0.734,1.530 -0.663,1.449 -0.593,1.369 -0.505,1.308 -0.417,1.246 -0.318,1.208 -0.218,1.169 -0.111,1.156 Z" fill="#cecece" stroke="#cecece" stroke-width="2.11" stroke-dasharray="none" stroke-dashoffset="none" stroke-linecap="round" stroke-linejoin="round" pointer-events="stroke"/></g></g><g id="3eb2c0b5-c2b8-4e1c-01f8-a3ac81d4d0ad_svg" class="tl-centered-g" transform="translate(132.53, 234.74) rotate(0.00, 161.28, 110.75)"><path d="M323.205,94.235Q323.205,94.235 323.13,100.589 323.06,106.944 323.18,114.918 323.30,122.892 323.43,131.279 323.55,139.666 323.68,148.158 323.81,156.651 323.93,165.170 324.06,173.689 324.18,182.216 324.31,190.742 324.41,199.355 324.52,207.969 321.38,213.635 318.25,219.302 310.92,220.889 303.60,222.477 295.69,222.710 287.78,222.944 279.76,222.924 271.74,222.905 263.68,222.825 255.62,222.745 247.55,222.650 239.48,222.555 231.41,222.456 223.34,222.357 215.27,222.257 207.20,222.157 199.13,222.056 191.06,221.956 182.98,221.856 174.91,221.755 166.84,221.715 158.77,221.675 150.69,221.694 142.62,221.713 134.55,221.733 126.48,221.752 118.40,221.772 110.33,221.791 102.26,221.810 94.19,221.830 86.11,221.849 78.04,221.869 69.97,221.888 61.90,221.907 53.82,221.927 45.75,221.946 37.68,221.966 29.61,221.985 21.45,221.981 13.29,221.977 7.74,218.814 2.19,215.651 0.69,208.036 -0.814,200.420 -0.991,192.175 -1.168,183.930 -1.099,175.546 -1.030,167.162 -0.903,158.735 -0.775,150.307 -0.633,141.867 -0.491,133.427 -0.345,124.984 -0.198,116.542 -0.241,108.097 -0.283,99.652 -0.326,91.206 -0.368,82.761 -0.410,74.316 -0.452,65.871 -0.494,57.425 -0.537,48.980 -0.579,40.535 -0.621,32.090 -0.641,23.561 -0.662,15.033 2.48,9.402 5.63,3.771 12.92,2.149 20.21,0.526 28.07,0.243 35.93,-0.040 43.90,-0.073 51.87,-0.106 59.88,-0.079 67.89,-0.052 75.90,-0.010 83.92,0.032 91.94,0.078 99.95,0.124 107.97,0.171 115.99,0.218 124.01,0.265 132.03,0.312 140.05,0.359 148.07,0.406 156.09,0.393 164.11,0.381 172.13,0.308 180.15,0.235 188.17,0.163 196.19,0.090 204.21,0.018 212.23,-0.055 220.24,-0.127 228.26,-0.200 236.28,-0.273 244.30,-0.345 252.32,-0.418 260.34,-0.490 268.36,-0.563 276.38,-0.635 284.40,-0.708 292.42,-0.781 300.53,-0.830 308.64,-0.879 314.17,2.262 319.71,5.402 321.28,13.077 322.84,20.751 323.10,29.071 323.35,37.392 323.37,45.859 323.38,54.325 323.34,62.838 323.29,71.350 323.23,79.875 323.18,88.400 323.11,96.928 323.05,105.456 323.18,113.984 323.30,122.512 323.44,133.960 323.58,145.408 323.52,145.748 323.47,146.088 323.31,146.393 323.15,146.698 322.90,146.935 322.65,147.173 322.34,147.319 322.02,147.465 321.68,147.503 321.34,147.542 321.00,147.469 320.67,147.396 320.37,147.219 320.07,147.043 319.85,146.781 319.63,146.519 319.50,146.200 319.37,145.880 319.35,145.536 319.33,145.193 319.42,144.860 319.51,144.528 319.70,144.242 319.90,143.956 320.17,143.747 320.44,143.538 320.77,143.426 321.09,143.315 321.44,143.314 321.78,143.313 322.11,143.422 322.44,143.531 322.71,143.738 322.99,143.946 323.18,144.230 323.38,144.515 323.47,144.846 323.56,145.178 323.54,145.522 323.53,145.866 323.40,146.186 323.27,146.507 323.05,146.770 322.83,147.033 322.54,147.212 322.24,147.391 321.91,147.466 321.57,147.541 321.23,147.505 320.88,147.469 320.57,147.325 320.26,147.182 320.01,146.946 319.76,146.709 319.59,146.406 319.43,146.102 319.37,145.762 319.32,145.422 319.32,145.423 319.32,145.423 319.37,133.975 319.42,122.526 319.49,113.998 319.55,105.469 319.42,96.942 319.30,88.416 319.17,79.896 319.04,71.375 318.89,62.880 318.74,54.385 318.54,45.990 318.34,37.596 317.93,29.629 317.53,21.662 316.68,15.300 315.82,8.938 312.05,6.870 308.28,4.802 300.36,4.778 292.43,4.755 284.41,4.708 276.39,4.661 268.37,4.613 260.35,4.566 252.33,4.519 244.31,4.472 236.29,4.425 228.27,4.378 220.25,4.330 212.23,4.283 204.21,4.236 196.19,4.189 188.17,4.142 180.15,4.095 172.13,4.048 164.12,4.000 156.10,4.013 148.08,4.026 140.06,4.098 132.04,4.171 124.02,4.244 116.00,4.316 107.98,4.389 99.96,4.462 91.94,4.536 83.93,4.610 75.92,4.688 67.90,4.765 59.92,4.858 51.93,4.951 44.04,5.101 36.15,5.251 28.68,5.611 21.20,5.971 15.21,6.795 9.21,7.619 7.12,11.510 5.02,15.401 4.90,23.762 4.77,32.123 4.62,40.567 4.48,49.011 4.33,57.455 4.18,65.900 4.03,74.344 3.89,82.788 3.74,91.232 3.59,99.676 3.44,108.119 3.30,116.563 3.34,125.006 3.38,133.449 3.43,141.886 3.48,150.323 3.54,158.736 3.60,167.148 3.72,175.460 3.84,183.772 4.17,191.659 4.51,199.546 5.30,205.848 6.10,212.150 9.88,214.223 13.67,216.295 21.65,216.372 29.63,216.449 37.71,216.550 45.78,216.650 53.85,216.750 61.92,216.851 69.99,216.951 78.07,217.052 86.14,217.152 94.21,217.252 102.28,217.353 110.35,217.453 118.43,217.553 126.50,217.654 134.57,217.754 142.64,217.854 150.71,217.955 158.79,218.055 166.86,218.095 174.93,218.136 183.00,218.116 191.07,218.097 199.15,218.077 207.22,218.058 215.29,218.038 223.36,218.019 231.43,217.998 239.50,217.977 247.57,217.952 255.63,217.928 263.67,217.888 271.71,217.848 279.65,217.750 287.59,217.651 295.12,217.339 302.64,217.026 308.67,216.235 314.70,215.444 316.76,211.546 318.83,207.648 318.87,199.205 318.91,190.761 318.98,182.235 319.04,173.708 319.10,165.188 319.17,156.668 319.23,148.174 319.30,139.681 319.36,131.293 319.43,122.906 319.49,114.931 319.56,106.956 319.44,100.603 319.32,94.249 319.35,94.017 319.38,93.785 319.46,93.566 319.54,93.347 319.67,93.154 319.80,92.961 319.98,92.805 320.15,92.650 320.36,92.540 320.57,92.431 320.79,92.374 321.02,92.317 321.25,92.316 321.49,92.316 321.71,92.371 321.94,92.426 322.15,92.534 322.36,92.642 322.53,92.796 322.71,92.951 322.84,93.143 322.97,93.334 323.06,93.553 323.14,93.771 323.17,94.003 Z" fill="#36a64c" stroke="#36a64c" stroke-width="3.5" pointer-events="none"/></g><g id="42d28440-acd9-482f-187b-d8a2d26c33aa_svg" class="tl-centered-g" transform="translate(163.55, 265.80) rotate(0.00, 135.32, 83.62)"><path d="M271.662,92.445Q271.662,92.445 271.81,98.598 271.96,104.752 272.11,112.474 272.27,120.197 272.43,128.320 272.58,136.442 272.72,144.756 272.85,153.070 269.71,158.662 266.57,164.254 258.92,165.829 251.26,167.405 242.95,167.650 234.64,167.896 226.19,167.895 217.74,167.895 209.24,167.836 200.75,167.777 192.24,167.703 183.73,167.629 175.22,167.551 166.71,167.473 158.20,167.394 149.68,167.316 141.17,167.312 132.66,167.309 124.15,167.382 115.63,167.454 107.12,167.527 98.61,167.599 90.10,167.672 81.58,167.744 73.07,167.817 64.56,167.889 56.05,167.962 47.53,168.035 39.02,168.107 30.51,168.180 21.91,168.231 13.31,168.282 7.65,165.123 1.98,161.964 0.52,154.441 -0.947,146.918 -1.049,138.785 -1.152,130.652 -1.002,122.390 -0.851,114.127 -0.639,105.823 -0.428,97.518 -0.328,89.200 -0.227,80.883 -0.249,72.560 -0.271,64.237 -0.292,55.914 -0.313,47.590 -0.334,39.266 -0.355,30.942 -0.354,22.536 -0.353,14.130 2.82,8.528 6.00,2.927 13.60,1.375 21.21,-0.178 29.44,-0.390 37.68,-0.602 46.05,-0.565 54.42,-0.529 62.84,-0.433 71.25,-0.336 79.68,-0.225 88.10,-0.114 96.53,0.001 104.96,0.116 113.39,0.232 121.82,0.348 130.25,0.389 138.68,0.429 147.11,0.394 155.54,0.358 163.97,0.323 172.40,0.288 180.83,0.252 189.26,0.217 197.70,0.182 206.13,0.146 214.56,0.111 222.99,0.076 231.42,0.040 239.85,0.005 248.36,-0.008 256.88,-0.022 262.51,3.125 268.14,6.272 269.71,13.753 271.28,21.234 271.51,29.309 271.74,37.385 271.73,45.588 271.71,53.792 271.63,62.037 271.56,70.281 271.60,78.537 271.63,86.793 271.79,95.052 271.95,103.310 272.12,114.397 272.29,125.484 272.23,125.864 272.17,126.245 271.99,126.586 271.81,126.927 271.53,127.193 271.25,127.459 270.90,127.622 270.55,127.786 270.17,127.829 269.79,127.872 269.41,127.790 269.03,127.709 268.70,127.512 268.37,127.314 268.12,127.021 267.87,126.729 267.73,126.371 267.58,126.014 267.56,125.629 267.54,125.244 267.64,124.872 267.74,124.501 267.96,124.181 268.17,123.861 268.48,123.627 268.78,123.393 269.15,123.268 269.51,123.144 269.90,123.142 270.28,123.141 270.65,123.263 271.02,123.384 271.32,123.616 271.63,123.848 271.85,124.167 272.07,124.485 272.17,124.856 272.27,125.227 272.25,125.612 272.24,125.996 272.09,126.355 271.95,126.713 271.70,127.008 271.46,127.303 271.13,127.503 270.80,127.702 270.42,127.787 270.04,127.871 269.66,127.831 269.28,127.790 268.93,127.630 268.58,127.469 268.30,127.205 268.02,126.941 267.83,126.601 267.65,126.261 267.59,125.881 267.53,125.501 267.53,125.502 267.53,125.502 267.61,114.415 267.69,103.327 267.79,95.069 267.88,86.810 267.84,78.557 267.81,70.305 267.63,62.077 267.45,53.849 267.22,45.719 266.98,37.589 266.54,29.878 266.09,22.167 265.19,16.005 264.28,9.843 260.40,7.755 256.51,5.666 248.17,5.571 239.82,5.477 231.39,5.360 222.96,5.244 214.53,5.128 206.10,5.011 197.67,4.895 189.24,4.779 180.81,4.662 172.38,4.546 163.95,4.430 155.52,4.313 147.09,4.197 138.66,4.081 130.23,4.040 121.80,4.000 113.37,4.035 104.94,4.071 96.51,4.108 88.09,4.144 79.66,4.185 71.24,4.225 62.84,4.281 54.45,4.336 46.15,4.450 37.85,4.564 29.98,4.891 22.11,5.218 15.81,6.018 9.51,6.817 7.42,10.675 5.33,14.532 5.12,22.771 4.91,31.009 4.68,39.330 4.45,47.650 4.21,55.970 3.98,64.290 3.75,72.609 3.52,80.928 3.42,89.242 3.32,97.557 3.36,105.848 3.40,114.140 3.50,122.333 3.61,130.525 3.93,138.294 4.25,146.062 5.06,152.269 5.87,158.477 9.76,160.535 13.65,162.593 22.08,162.650 30.51,162.708 39.02,162.787 47.54,162.866 56.05,162.945 64.56,163.024 73.07,163.104 81.59,163.183 90.10,163.262 98.61,163.341 107.12,163.420 115.64,163.499 124.15,163.578 132.66,163.657 141.17,163.661 149.69,163.664 158.20,163.591 166.71,163.518 175.22,163.444 183.73,163.370 192.23,163.293 200.74,163.215 209.22,163.123 217.70,163.030 226.07,162.881 234.45,162.731 242.40,162.371 250.35,162.010 256.70,161.191 263.05,160.372 265.11,156.554 267.17,152.736 267.24,144.599 267.31,136.462 267.41,128.339 267.51,120.215 267.60,112.491 267.70,104.768 267.80,98.613 267.91,92.459 267.93,92.234 267.96,92.010 268.04,91.798 268.12,91.586 268.24,91.400 268.37,91.213 268.54,91.062 268.71,90.912 268.91,90.806 269.11,90.700 269.33,90.645 269.55,90.590 269.77,90.589 270.00,90.588 270.22,90.642 270.44,90.695 270.64,90.799 270.84,90.904 271.01,91.053 271.18,91.202 271.31,91.388 271.44,91.574 271.52,91.785 271.60,91.996 271.63,92.221 Z" fill="#36a64c" stroke="#36a64c" stroke-width="3.5" pointer-events="none"/></g><g id="456428c6-d58c-4217-1d5e-ed877a2a2a03_svg" class="tl-centered-g" transform="translate(205.36, 300.68) rotate(0.23, 101.79, 52.54)"><path d="M204.586,71.780Q204.586,71.780 204.81,76.438 205.03,81.096 205.24,87.070 205.44,93.044 202.31,98.037 199.18,103.030 191.51,104.360 183.83,105.690 175.54,105.816 167.26,105.943 158.81,105.855 150.37,105.768 141.87,105.629 133.38,105.490 124.87,105.338 116.36,105.185 107.85,105.133 99.34,105.081 90.82,105.131 82.31,105.182 73.79,105.232 65.28,105.282 56.77,105.332 48.25,105.383 39.74,105.433 31.22,105.483 22.63,105.512 14.03,105.540 8.40,102.434 2.78,99.327 1.30,93.337 -0.166,87.346 -0.269,81.108 -0.373,74.871 -0.214,68.639 -0.056,62.407 0.00,56.165 0.05,49.923 -0.032,43.674 -0.122,37.426 -0.208,31.176 -0.294,24.926 -0.347,18.567 -0.401,12.208 2.76,7.136 5.93,2.065 13.54,0.702 21.15,-0.661 29.35,-0.799 37.54,-0.937 45.89,-0.856 54.23,-0.775 62.63,-0.640 71.02,-0.506 79.43,-0.358 87.83,-0.211 96.24,-0.163 104.65,-0.115 113.06,-0.170 121.47,-0.225 129.88,-0.280 138.29,-0.334 146.70,-0.389 155.11,-0.443 163.52,-0.498 171.93,-0.553 180.43,-0.585 188.92,-0.618 194.51,2.463 200.10,5.544 201.69,11.538 203.29,17.532 203.54,23.774 203.80,30.016 203.80,36.257 203.81,42.499 203.91,48.748 204.02,54.997 204.27,61.248 204.52,67.499 204.80,75.892 205.08,84.286 205.01,84.696 204.95,85.106 204.76,85.475 204.57,85.844 204.28,86.133 203.98,86.422 203.61,86.601 203.23,86.780 202.82,86.831 202.41,86.881 202.00,86.798 201.60,86.714 201.24,86.505 200.88,86.297 200.61,85.984 200.34,85.672 200.18,85.289 200.02,84.906 199.99,84.492 199.96,84.079 200.07,83.678 200.17,83.277 200.40,82.931 200.63,82.584 200.96,82.329 201.28,82.074 201.67,81.936 202.06,81.798 202.48,81.793 202.89,81.787 203.29,81.914 203.68,82.041 204.02,82.287 204.35,82.534 204.59,82.874 204.82,83.214 204.94,83.612 205.06,84.009 205.04,84.424 205.02,84.838 204.88,85.225 204.73,85.612 204.46,85.932 204.20,86.251 203.85,86.470 203.49,86.688 203.09,86.783 202.69,86.878 202.27,86.838 201.86,86.799 201.48,86.630 201.10,86.461 200.80,86.180 200.49,85.899 200.30,85.536 200.10,85.172 200.02,84.764 199.95,84.356 199.95,84.356 199.95,84.356 200.00,75.960 200.05,67.564 200.12,61.312 200.19,55.061 200.09,48.830 199.98,42.599 199.66,36.452 199.34,30.304 198.82,24.508 198.30,18.712 197.34,14.050 196.39,9.388 192.47,7.229 188.55,5.070 180.23,4.939 171.90,4.809 163.49,4.656 155.08,4.504 146.67,4.352 138.26,4.200 129.86,4.048 121.45,3.895 113.04,3.743 104.63,3.591 96.22,3.544 87.81,3.496 79.41,3.555 71.00,3.614 62.63,3.687 54.25,3.759 45.96,3.884 37.68,4.008 29.81,4.325 21.94,4.642 15.67,5.349 9.41,6.055 7.33,9.385 5.24,12.715 5.03,18.852 4.83,24.989 4.59,31.233 4.35,37.478 4.11,43.718 3.88,49.958 3.82,56.182 3.76,62.405 3.93,68.549 4.09,74.694 4.47,80.481 4.84,86.268 5.69,90.924 6.54,95.580 10.47,97.715 14.40,99.851 22.83,99.986 31.26,100.122 39.77,100.278 48.28,100.435 56.80,100.592 65.31,100.748 73.82,100.905 82.33,101.061 90.85,101.218 99.36,101.374 107.87,101.426 116.38,101.479 124.89,101.424 133.39,101.369 141.88,101.302 150.36,101.234 158.74,101.115 167.13,100.997 175.10,100.690 183.07,100.383 189.40,99.702 195.73,99.021 197.77,95.816 199.81,92.611 199.86,86.888 199.91,81.166 200.01,76.503 200.11,71.841 200.14,71.573 200.16,71.305 200.26,71.051 200.35,70.798 200.50,70.574 200.65,70.350 200.85,70.168 201.05,69.987 201.29,69.858 201.52,69.730 201.78,69.661 202.04,69.593 202.31,69.590 202.58,69.586 202.85,69.647 203.11,69.708 203.35,69.830 203.59,69.952 203.79,70.128 204.00,70.305 204.15,70.524 204.31,70.744 204.41,70.995 204.51,71.246 204.55,71.513 Z" fill="#36a64c" stroke="#36a64c" stroke-width="3.5" pointer-events="none"/></g><g id="70f718ca-1f26-4ed9-277e-c720c7456ddf_svg" class="tl-centered-g" transform="translate(331.15, 382.65) rotate(0.00, 243.42, 87.90)"><defs><mask id="70f718ca-1f26-4ed9-277e-c720c7456ddf_clip"><rect x="-100" y="-100" width="686.83" height="375.80" fill="white"/><rect x="251.86" y="111.30" width="0" height="0" rx="4" ry="4" fill="black" opacity="1"/></mask></defs><g pointer-events="none" opacity="1" mask=""><path d="M512.870,-12.920Q512.870,-12.920 511.24,-11.427 509.62,-9.935 507.33,-8.513 505.03,-7.092 501.84,-5.132 498.64,-3.172 494.55,-0.707 490.47,1.759 485.52,4.696 480.57,7.633 474.77,11.000 468.98,14.368 462.38,18.112 455.78,21.856 448.40,25.925 441.03,29.995 432.92,34.335 424.81,38.676 416.02,43.217 407.24,47.758 397.82,52.449 388.41,57.141 378.43,61.917 368.45,66.694 357.98,71.496 347.50,76.298 336.61,81.070 325.71,85.842 314.47,90.524 303.23,95.205 291.74,99.757 280.25,104.308 268.58,108.684 256.91,113.060 245.17,117.221 233.42,121.381 221.69,125.296 209.96,129.211 198.35,132.861 186.73,136.510 175.32,139.869 163.91,143.228 152.80,146.295 141.69,149.363 130.98,152.130 120.27,154.898 110.04,157.364 99.82,159.831 90.17,162.011 80.52,164.192 71.52,166.087 62.52,167.983 54.26,169.617 45.99,171.251 38.52,172.635 31.05,174.019 24.45,175.172 17.85,176.325 12.17,177.262 6.49,178.200 1.77,178.942 -2.946,179.684 -6.657,180.241 -10.369,180.798 -13.040,181.189 -15.711,181.579 -17.866,181.886 -20.021,182.193 -20.567,182.180 -21.113,182.167 -21.626,181.980 -22.139,181.794 -22.566,181.453 -22.993,181.112 -23.288,180.653 -23.584,180.194 -23.717,179.664 -23.850,179.135 -23.808,178.590 -23.765,178.046 -23.551,177.544 -23.337,177.042 -22.973,176.634 -22.610,176.226 -22.136,175.956 -21.661,175.686 -21.125,175.581 -20.589,175.477 -20.048,175.549 -19.507,175.621 -19.017,175.862 -18.527,176.103 -18.140,176.488 -17.752,176.873 -17.508,177.361 -17.264,177.850 -17.189,178.391 -17.113,178.931 -17.215,179.468 -17.316,180.005 -17.583,180.481 -17.851,180.957 -18.256,181.323 -18.661,181.689 -19.162,181.906 -19.663,182.123 -20.207,182.169 -20.751,182.215 -21.282,182.085 -21.812,181.955 -22.273,181.662 -22.734,181.369 -23.077,180.945 -23.421,180.520 -23.610,180.008 -23.800,179.496 -23.817,178.950 -23.833,178.404 -23.674,177.882 -23.515,177.360 -23.198,176.915 -22.881,176.471 -22.438,176.151 -21.996,175.831 -21.474,175.669 -20.953,175.508 -20.953,175.508 -20.954,175.508 -18.821,175.204 -16.689,174.901 -14.030,174.511 -11.371,174.122 -7.683,173.569 -3.994,173.016 0.69,172.278 5.39,171.540 11.04,170.608 16.68,169.675 23.25,168.528 29.82,167.381 37.25,166.005 44.68,164.629 52.91,163.003 61.13,161.377 70.08,159.493 79.03,157.608 88.63,155.439 98.23,153.269 108.41,150.816 118.58,148.362 129.24,145.610 139.90,142.857 150.95,139.805 162.00,136.752 173.35,133.411 184.70,130.070 196.27,126.439 207.83,122.809 219.50,118.914 231.17,115.019 242.85,110.879 254.54,106.740 266.15,102.386 277.76,98.032 289.20,93.503 300.64,88.975 311.82,84.316 323.00,79.658 333.85,74.910 344.69,70.162 355.11,65.384 365.54,60.606 375.47,55.853 385.40,51.099 394.77,46.431 404.14,41.762 412.88,37.243 421.62,32.724 429.69,28.405 437.77,24.085 445.11,20.035 452.45,15.984 459.02,12.258 465.59,8.532 471.36,5.180 477.12,1.827 482.05,-1.096 486.98,-4.019 491.05,-6.473 495.11,-8.928 498.29,-10.878 501.48,-12.828 503.76,-14.247 506.05,-15.665 508.11,-16.463 510.17,-17.260 510.44,-17.390 510.72,-17.520 511.03,-17.580 511.33,-17.639 511.64,-17.624 511.94,-17.610 512.24,-17.522 512.53,-17.434 512.80,-17.278 513.07,-17.122 513.29,-16.907 513.51,-16.692 513.67,-16.430 513.83,-16.169 513.93,-15.876 514.02,-15.583 514.05,-15.276 514.07,-14.968 514.02,-14.665 513.97,-14.361 513.84,-14.078 513.72,-13.796 513.53,-13.551 513.35,-13.306 513.11,-13.113 Z" fill="#ebbb38" stroke="#ebbb38" stroke-width="0" stroke-dasharray="none" stroke-dashoffset="none" stroke-linecap="round" stroke-linejoin="round" pointer-events="none"/><g><path d="M -2.664955575763461,190.44933528652572 L -28.63,179.97 -6.572107214975768,162.72327956148254" fill="none" stroke="#ebbb38" stroke-width="6.66" stroke-linecap="round" stroke-linejoin="round" pointer-events="none"/></g></g></g><g id="d3b9d845-9944-4622-3d02-f91d3332a1b0_svg" class="tl-centered-g" transform="translate(71.39, 501.49) rotate(0.00, 100.75, 67.34)"><path d="M201.215,93.255Q201.215,93.255 201.35,99.501 201.49,105.747 201.61,113.677 201.72,121.606 198.56,127.096 195.39,132.586 187.88,134.036 180.36,135.486 172.24,135.613 164.12,135.740 155.87,135.623 147.62,135.506 139.33,135.331 131.04,135.156 122.73,134.966 114.43,134.775 106.12,134.685 97.81,134.595 89.50,134.607 81.19,134.619 72.88,134.630 64.57,134.642 56.26,134.654 47.94,134.665 39.63,134.677 31.32,134.689 22.93,134.678 14.53,134.668 8.94,131.507 3.35,128.345 1.83,120.819 0.30,113.293 0.12,105.180 -0.069,97.066 -0.013,88.819 0.04,80.573 -0.005,72.285 -0.052,63.996 -0.247,55.695 -0.442,47.395 -0.633,39.090 -0.825,30.786 -0.993,22.393 -1.161,14.000 1.98,8.388 5.12,2.775 12.66,1.251 20.19,-0.274 28.35,-0.456 36.50,-0.638 44.79,-0.572 53.07,-0.506 61.40,-0.380 69.73,-0.254 78.07,-0.114 86.41,0.027 94.75,0.068 103.10,0.110 111.44,0.048 119.79,-0.013 128.13,-0.074 136.48,-0.135 144.83,-0.196 153.17,-0.257 161.52,-0.318 169.86,-0.378 178.29,-0.417 186.72,-0.456 192.34,2.703 197.95,5.861 199.43,13.441 200.91,21.020 201.05,29.204 201.18,37.388 201.07,45.709 200.96,54.030 200.95,62.396 200.95,70.761 201.09,79.140 201.23,87.519 201.35,98.771 201.48,110.022 201.41,110.431 201.34,110.840 201.15,111.206 200.95,111.571 200.65,111.855 200.35,112.139 199.97,112.312 199.59,112.485 199.18,112.529 198.77,112.572 198.37,112.482 197.96,112.391 197.61,112.176 197.25,111.962 196.98,111.645 196.72,111.328 196.56,110.942 196.41,110.557 196.39,110.143 196.37,109.728 196.48,109.329 196.59,108.930 196.83,108.588 197.06,108.246 197.39,107.996 197.72,107.746 198.12,107.615 198.51,107.484 198.93,107.485 199.34,107.487 199.73,107.620 200.12,107.754 200.45,108.006 200.78,108.258 201.01,108.602 201.25,108.946 201.36,109.346 201.47,109.745 201.44,110.159 201.42,110.573 201.26,110.958 201.11,111.342 200.84,111.658 200.57,111.973 200.21,112.185 199.86,112.398 199.45,112.485 199.05,112.573 198.63,112.527 198.22,112.481 197.85,112.305 197.47,112.130 197.17,111.844 196.87,111.558 196.68,111.191 196.49,110.824 196.42,110.414 196.35,110.005 196.35,110.005 196.35,110.006 196.55,98.756 196.75,87.507 196.94,79.132 197.12,70.757 197.13,62.405 197.14,54.054 196.92,45.799 196.71,37.545 196.28,29.713 195.86,21.881 194.96,15.633 194.07,9.386 190.21,7.308 186.36,5.231 178.10,5.107 169.84,4.983 161.49,4.837 153.15,4.691 144.80,4.545 136.46,4.399 128.11,4.253 119.77,4.108 111.42,3.962 103.08,3.816 94.74,3.775 86.39,3.734 78.06,3.800 69.72,3.866 61.41,3.947 53.09,4.028 44.88,4.167 36.67,4.307 28.88,4.659 21.09,5.012 14.86,5.834 8.64,6.657 6.58,10.495 4.52,14.333 4.41,22.551 4.30,30.768 4.16,39.073 4.03,47.377 3.90,55.676 3.77,63.974 3.82,72.249 3.86,80.524 4.13,88.701 4.40,96.878 4.87,104.638 5.35,112.398 6.28,118.589 7.21,124.780 11.07,126.881 14.93,128.981 23.16,129.155 31.38,129.328 39.69,129.523 48.00,129.718 56.31,129.913 64.62,130.108 72.93,130.303 81.23,130.498 89.54,130.693 97.85,130.888 106.16,130.978 114.47,131.069 122.77,131.052 131.07,131.035 139.35,131.004 147.63,130.972 155.81,130.883 163.99,130.794 171.75,130.493 179.51,130.193 185.71,129.430 191.91,128.668 193.97,124.946 196.04,121.223 196.20,113.476 196.37,105.730 196.55,99.485 196.74,93.240 196.77,92.973 196.80,92.705 196.90,92.453 197.00,92.201 197.15,91.980 197.30,91.758 197.51,91.580 197.71,91.402 197.95,91.277 198.19,91.153 198.45,91.089 198.71,91.026 198.98,91.026 199.25,91.027 199.51,91.093 199.77,91.158 200.01,91.284 200.25,91.411 200.45,91.590 200.65,91.770 200.81,91.992 200.96,92.215 201.05,92.467 201.15,92.720 201.18,92.987 Z" fill="#ebbb38" stroke="#ebbb38" stroke-width="3.5" pointer-events="none"/></g><text font-size="48px" font-family="Caveat Brush" font-weight="normal" line-height="48px" letter-spacing="-0.03em" text-align="left" dominant-baseline="mathematical" alignment-baseline="mathematical" text-anchor="start" fill="#cecece" transform="translate(908.11, 420.34) rotate(0.00, 95.00, 29.00)"><tspan y="24px" x="4">/products/5
</tspan></text><text font-size="48px" font-family="Caveat Brush" font-weight="normal" line-height="48px" letter-spacing="-0.03em" text-align="left" dominant-baseline="mathematical" alignment-baseline="mathematical" text-anchor="start" fill="#cecece" transform="translate(907.15, 329.83) rotate(0.00, 79.00, 29.00)"><tspan y="24px" x="4">/products
</tspan></text><text font-size="48px" font-family="Caveat Brush" font-weight="normal" line-height="48px" letter-spacing="-0.03em" text-align="left" dominant-baseline="mathematical" alignment-baseline="mathematical" text-anchor="start" fill="#cecece" transform="translate(915.39, 244.06) rotate(0.00, 11.00, 29.00)"><tspan y="24px" x="4">/
</tspan></text><g id="3b8d5008-4992-4147-23cc-e29594a7cb86_svg" class="tl-centered-g" transform="translate(1148.49, 253.25) rotate(0.00, 26.34, 16.56)"><path d="M16.900,32.123Q16.900,32.123 14.56,32.102 12.22,32.082 9.29,32.056 6.36,32.030 4.12,30.533 1.88,29.037 1.31,27.458 0.74,25.880 0.59,24.280 0.45,22.681 0.41,21.076 0.37,19.471 0.36,17.865 0.35,16.259 0.34,14.653 0.34,13.046 0.34,11.440 0.34,9.833 0.33,8.226 0.33,6.620 1.82,4.720 3.31,2.821 6.00,2.312 8.68,1.804 11.67,1.650 14.66,1.496 17.73,1.433 20.80,1.370 23.88,1.330 26.97,1.289 30.06,1.255 33.16,1.221 36.25,1.188 39.34,1.155 42.44,1.123 45.53,1.091 47.81,2.572 50.09,4.054 50.70,5.673 51.32,7.293 51.50,8.947 51.69,10.602 51.77,12.265 51.86,13.929 51.91,15.594 51.96,17.260 52.01,18.926 52.05,20.592 52.10,22.259 52.14,23.925 52.19,25.592 52.23,27.258 50.75,29.173 49.27,31.088 46.56,31.556 43.84,32.024 40.82,32.122 37.79,32.221 34.68,32.226 31.57,32.230 28.44,32.211 25.31,32.191 22.18,32.166 19.04,32.140 14.83,32.104 " fill="#345246" pointer-events="none"/><path d="M16.889,33.401Q16.889,33.401 14.55,33.474 12.21,33.546 9.20,33.590 6.20,33.634 3.52,31.943 0.84,30.251 0.10,28.309 -0.636,26.366 -0.730,24.582 -0.823,22.798 -0.771,21.148 -0.719,19.498 -0.730,17.882 -0.741,16.266 -0.838,14.658 -0.934,13.049 -1.029,11.442 -1.124,9.835 -1.181,8.119 -1.238,6.404 0.51,4.028 2.26,1.653 5.34,1.009 8.41,0.365 11.50,0.292 14.60,0.219 17.68,0.248 20.77,0.277 23.87,0.237 26.96,0.197 30.05,0.070 33.14,-0.058 36.23,-0.183 39.33,-0.309 42.50,-0.412 45.67,-0.515 48.39,1.155 51.11,2.825 51.90,4.805 52.69,6.785 52.83,8.621 52.96,10.457 52.96,12.166 52.95,13.876 53.00,15.550 53.05,17.225 53.19,18.891 53.33,20.557 53.47,22.222 53.61,23.886 53.70,25.669 53.80,27.451 52.05,29.855 50.31,32.259 47.20,32.863 44.09,33.467 40.96,33.483 37.83,33.499 34.70,33.411 31.57,33.323 28.44,33.304 25.30,33.284 22.17,33.352 19.03,33.419 14.82,33.475 10.61,33.532 10.38,33.492 10.14,33.451 9.94,33.338 9.73,33.226 9.57,33.052 9.40,32.879 9.31,32.663 9.21,32.447 9.19,32.211 9.16,31.976 9.21,31.745 9.27,31.514 9.39,31.312 9.52,31.110 9.70,30.958 9.88,30.806 10.10,30.721 10.32,30.635 10.56,30.624 10.79,30.613 11.02,30.679 11.25,30.744 11.44,30.879 11.64,31.013 11.78,31.203 11.92,31.393 12.00,31.618 12.07,31.843 12.07,32.080 12.07,32.317 11.99,32.541 11.91,32.765 11.77,32.952 11.62,33.140 11.42,33.271 11.23,33.402 11.00,33.463 10.77,33.525 10.53,33.510 10.30,33.495 10.08,33.405 9.86,33.316 9.68,33.161 9.50,33.006 9.38,32.802 9.26,32.598 9.21,32.366 9.16,32.134 9.19,31.899 9.22,31.663 9.32,31.449 9.42,31.235 9.58,31.065 9.75,30.894 9.96,30.785 10.17,30.676 10.40,30.640 10.64,30.603 10.64,30.603 10.64,30.603 14.84,30.733 19.05,30.862 22.18,30.980 25.32,31.099 28.44,31.118 31.57,31.137 34.66,31.040 37.75,30.943 40.67,30.762 43.60,30.580 45.92,30.249 48.24,29.917 49.45,28.491 50.66,27.065 50.67,25.515 50.68,23.964 50.73,22.296 50.78,20.628 50.82,18.961 50.87,17.295 50.82,15.638 50.76,13.982 50.59,12.364 50.42,10.747 50.18,9.274 49.94,7.801 49.50,6.542 49.06,5.283 47.23,3.990 45.39,2.696 42.38,2.658 39.36,2.620 36.26,2.560 33.17,2.499 30.08,2.441 26.99,2.382 23.90,2.422 20.82,2.462 17.77,2.618 14.73,2.773 11.84,3.008 8.95,3.243 6.66,3.615 4.37,3.988 3.14,5.412 1.91,6.836 1.85,8.334 1.80,9.831 1.71,11.437 1.62,13.043 1.53,14.648 1.44,16.252 1.45,17.849 1.46,19.445 1.59,21.005 1.72,22.564 1.92,23.979 2.12,25.393 2.52,26.608 2.92,27.823 4.72,29.124 6.52,30.426 9.38,30.522 12.24,30.617 14.57,30.731 16.91,30.844 17.06,30.864 17.21,30.884 17.36,30.940 17.50,30.996 17.63,31.085 17.75,31.173 17.85,31.290 17.95,31.406 18.02,31.543 18.10,31.680 18.13,31.830 18.17,31.980 18.16,32.134 18.16,32.288 18.13,32.438 18.09,32.587 18.01,32.723 17.94,32.858 17.84,32.973 17.74,33.087 17.61,33.174 17.48,33.260 17.34,33.314 17.19,33.367 17.04,33.384 Z" fill="#36a64c" stroke="#36a64c" stroke-width="2" pointer-events="none"/></g><g id="1e67c044-d2ec-4596-19f9-06706336f3d7_svg" class="tl-centered-g" transform="translate(1213.78, 253.16) rotate(0.00, 26.34, 16.56)"><path d="M17.825,32.197Q17.825,32.197 15.56,32.236 13.31,32.274 10.47,32.323 7.64,32.371 5.43,30.894 3.22,29.416 2.58,27.767 1.93,26.117 1.69,24.424 1.45,22.731 1.31,21.026 1.18,19.322 1.06,17.615 0.95,15.907 0.85,14.199 0.74,12.491 0.64,10.783 0.53,9.075 0.43,7.367 0.33,5.658 1.79,3.733 3.25,1.807 5.98,1.378 8.70,0.948 11.74,0.900 14.79,0.852 17.91,0.901 21.04,0.950 24.18,1.024 27.33,1.098 30.48,1.178 33.63,1.258 36.79,1.340 39.94,1.422 43.09,1.504 46.24,1.586 48.54,3.097 50.83,4.608 51.40,6.166 51.97,7.724 52.10,9.294 52.23,10.864 52.25,12.437 52.27,14.010 52.26,15.583 52.25,17.157 52.23,18.731 52.21,20.305 52.19,21.879 52.17,23.453 52.15,25.027 52.13,26.601 50.64,28.492 49.14,30.384 46.50,30.905 43.86,31.426 40.93,31.597 38.00,31.769 35.00,31.851 32.00,31.933 28.97,31.993 25.95,32.053 22.92,32.106 19.89,32.160 15.83,32.230 " fill="#345246" pointer-events="none"/><path d="M17.847,33.475Q17.847,33.475 15.59,33.607 13.33,33.738 10.42,33.855 7.50,33.972 4.84,32.310 2.19,30.648 1.38,28.643 0.57,26.639 0.38,24.775 0.19,22.910 0.14,21.160 0.09,19.410 -0.021,17.695 -0.134,15.979 -0.332,14.275 -0.531,12.570 -0.727,10.867 -0.924,9.164 -1.080,7.328 -1.236,5.492 0.50,3.063 2.23,0.633 5.35,0.067 8.47,-0.499 11.62,-0.463 14.77,-0.427 17.91,-0.285 21.05,-0.143 24.20,-0.069 27.35,0.005 30.51,-0.008 33.66,-0.020 36.82,-0.031 39.98,-0.042 43.20,-0.032 46.42,-0.022 49.14,1.684 51.87,3.390 52.61,5.312 53.35,7.235 53.43,8.997 53.51,10.758 53.43,12.378 53.36,13.997 53.35,15.581 53.34,17.165 53.41,18.742 53.49,20.320 53.56,21.896 53.64,23.471 53.67,25.151 53.71,26.830 51.95,29.190 50.20,31.550 47.17,32.206 44.15,32.862 41.11,32.954 38.08,33.045 35.05,33.035 32.03,33.026 29.00,33.085 25.97,33.145 22.94,33.292 19.92,33.439 15.85,33.602 11.79,33.765 11.55,33.731 11.32,33.696 11.11,33.589 10.90,33.482 10.73,33.312 10.56,33.143 10.46,32.930 10.36,32.717 10.33,32.482 10.30,32.247 10.34,32.014 10.39,31.782 10.51,31.577 10.63,31.372 10.81,31.216 10.98,31.059 11.20,30.968 11.42,30.876 11.66,30.859 11.89,30.843 12.12,30.902 12.35,30.961 12.55,31.091 12.75,31.221 12.90,31.407 13.04,31.593 13.12,31.816 13.20,32.039 13.21,32.276 13.21,32.513 13.14,32.739 13.07,32.964 12.93,33.155 12.79,33.346 12.59,33.483 12.40,33.619 12.17,33.686 11.94,33.754 11.71,33.745 11.47,33.736 11.25,33.652 11.03,33.568 10.84,33.418 10.66,33.268 10.54,33.067 10.41,32.866 10.36,32.635 10.30,32.405 10.32,32.169 10.34,31.933 10.44,31.716 10.54,31.500 10.70,31.325 10.86,31.150 11.06,31.036 11.27,30.921 11.50,30.879 11.74,30.837 11.74,30.837 11.74,30.837 15.80,30.859 19.87,30.882 22.90,30.921 25.93,30.960 28.95,30.900 31.97,30.841 34.95,30.666 37.93,30.492 40.76,30.240 43.58,29.989 45.83,29.603 48.08,29.218 49.32,27.795 50.55,26.372 50.63,24.903 50.71,23.435 50.82,21.863 50.93,20.290 51.04,18.720 51.15,17.150 51.16,15.586 51.18,14.022 51.07,12.496 50.96,10.969 50.78,9.591 50.59,8.213 50.20,7.020 49.80,5.827 47.94,4.511 46.07,3.195 42.99,3.040 39.90,2.885 36.75,2.711 33.60,2.536 30.45,2.363 27.30,2.190 24.16,2.116 21.02,2.042 17.91,2.086 14.81,2.130 11.87,2.262 8.92,2.394 6.60,2.688 4.27,2.981 3.08,4.403 1.89,5.824 1.94,7.405 1.99,8.986 2.01,10.699 2.02,12.412 2.03,14.124 2.04,15.836 2.15,17.534 2.27,19.233 2.49,20.892 2.72,22.551 3.01,24.073 3.30,25.595 3.77,26.890 4.25,28.184 6.01,29.478 7.78,30.771 10.53,30.791 13.28,30.810 15.54,30.864 17.80,30.919 17.95,30.935 18.11,30.951 18.25,31.003 18.40,31.055 18.52,31.140 18.65,31.226 18.76,31.339 18.86,31.453 18.93,31.588 19.01,31.723 19.05,31.872 19.09,32.021 19.09,32.175 19.09,32.329 19.06,32.480 19.02,32.630 18.95,32.768 18.88,32.905 18.78,33.022 18.68,33.139 18.56,33.229 18.43,33.319 18.29,33.376 18.15,33.433 17.99,33.454 Z" fill="#36a64c" stroke="#36a64c" stroke-width="2" pointer-events="none"/></g><g id="688de59c-96c6-44ba-3de9-4d06ab0f9024_svg" class="tl-centered-g" transform="translate(1280.90, 253.25) rotate(0.00, 26.34, 16.56)"><path d="M35.616,1.226Q35.616,1.226 37.86,1.227 40.10,1.228 42.91,1.228 45.73,1.229 47.94,2.719 50.15,4.210 50.71,5.797 51.27,7.383 51.41,8.995 51.55,10.607 51.58,12.224 51.62,13.842 51.62,15.462 51.63,17.081 51.63,18.701 51.63,20.321 51.63,21.941 51.62,23.561 51.62,25.181 51.62,26.801 50.13,28.704 48.64,30.607 46.00,31.088 43.36,31.568 40.43,31.686 37.50,31.804 34.50,31.829 31.50,31.855 28.47,31.857 25.45,31.858 22.42,31.854 19.40,31.850 16.37,31.844 13.34,31.839 10.31,31.832 7.28,31.826 5.02,30.335 2.76,28.843 2.20,27.260 1.63,25.677 1.51,24.070 1.38,22.464 1.36,20.851 1.34,19.238 1.35,17.624 1.36,16.010 1.38,14.396 1.40,12.781 1.42,11.167 1.44,9.552 1.46,7.937 1.48,6.323 2.98,4.421 4.47,2.519 7.10,2.035 9.72,1.551 12.63,1.428 15.55,1.305 18.53,1.274 21.52,1.244 24.53,1.237 27.53,1.229 30.54,1.228 33.55,1.227 37.59,1.228 " fill="#345246" pointer-events="none"/><path d="M35.616,-0.052Q35.616,-0.052 37.86,-0.144 40.10,-0.237 42.99,-0.305 45.89,-0.372 48.54,1.315 51.19,3.003 51.92,4.955 52.65,6.907 52.74,8.701 52.82,10.496 52.77,12.158 52.71,13.820 52.72,15.448 52.72,17.077 52.81,18.699 52.91,20.321 53.00,21.942 53.09,23.563 53.14,25.291 53.19,27.018 51.44,29.398 49.68,31.777 46.65,32.393 43.62,33.009 40.59,33.045 37.56,33.082 34.53,33.015 31.51,32.948 28.48,32.949 25.45,32.951 22.42,33.040 19.39,33.129 16.37,33.216 13.34,33.303 10.23,33.367 7.13,33.432 4.42,31.743 1.72,30.054 0.98,28.104 0.25,26.154 0.18,24.359 0.10,22.565 0.18,20.907 0.25,19.250 0.26,17.626 0.27,16.003 0.20,14.385 0.12,12.767 0.05,11.150 -0.019,9.534 -0.055,7.815 -0.091,6.096 1.66,3.723 3.42,1.349 6.44,0.730 9.46,0.111 12.48,0.069 15.49,0.028 18.50,0.089 21.51,0.151 24.52,0.144 27.53,0.137 30.54,0.043 33.55,-0.051 37.59,-0.144 41.63,-0.236 41.87,-0.198 42.10,-0.159 42.31,-0.048 42.52,0.063 42.68,0.235 42.85,0.407 42.95,0.622 43.05,0.837 43.07,1.072 43.10,1.308 43.05,1.539 42.99,1.770 42.87,1.973 42.75,2.176 42.57,2.330 42.39,2.483 42.17,2.571 41.95,2.658 41.71,2.671 41.48,2.684 41.25,2.620 41.02,2.557 40.82,2.424 40.63,2.291 40.48,2.102 40.34,1.914 40.27,1.689 40.19,1.465 40.19,1.228 40.19,0.991 40.27,0.766 40.34,0.542 40.48,0.353 40.63,0.165 40.82,0.032 41.02,-0.101 41.25,-0.164 41.48,-0.228 41.71,-0.215 41.95,-0.202 42.17,-0.114 42.39,-0.026 42.57,0.127 42.75,0.281 42.87,0.484 43.00,0.687 43.05,0.918 43.10,1.149 43.07,1.385 43.05,1.620 42.95,1.835 42.85,2.050 42.68,2.222 42.52,2.394 42.31,2.505 42.10,2.616 41.87,2.654 41.63,2.692 41.63,2.692 41.63,2.692 37.59,2.599 33.55,2.506 30.54,2.414 27.53,2.322 24.53,2.329 21.53,2.337 18.57,2.460 15.60,2.583 12.79,2.787 9.99,2.991 7.75,3.340 5.52,3.690 4.29,5.120 3.06,6.550 2.98,8.060 2.90,9.570 2.79,11.183 2.68,12.796 2.57,14.407 2.46,16.018 2.45,17.622 2.44,19.227 2.54,20.794 2.65,22.362 2.83,23.781 3.02,25.200 3.41,26.416 3.80,27.633 5.61,28.927 7.43,30.221 10.39,30.298 13.34,30.374 16.37,30.473 19.40,30.571 22.42,30.669 25.45,30.766 28.47,30.764 31.49,30.762 34.47,30.644 37.45,30.526 40.28,30.327 43.10,30.127 45.35,29.782 47.59,29.437 48.82,28.010 50.04,26.583 50.10,25.071 50.16,23.559 50.25,21.939 50.35,20.320 50.44,18.703 50.54,17.085 50.53,15.475 50.52,13.865 50.40,12.291 50.28,10.718 50.08,9.289 49.88,7.860 49.49,6.638 49.10,5.417 47.34,4.124 45.57,2.831 42.84,2.761 40.10,2.692 37.85,2.598 35.61,2.505 35.46,2.486 35.31,2.468 35.16,2.413 35.02,2.358 34.89,2.271 34.76,2.183 34.66,2.068 34.56,1.952 34.49,1.816 34.42,1.679 34.38,1.530 34.34,1.380 34.34,1.226 34.34,1.072 34.38,0.922 34.42,0.773 34.49,0.636 34.56,0.500 34.66,0.384 34.76,0.269 34.89,0.181 35.02,0.094 35.16,0.039 35.31,-0.015 35.46,-0.034 Z" fill="#36a64c" stroke="#36a64c" stroke-width="2" pointer-events="none"/></g><g id="e94d0bed-7d20-4fcd-2602-ca4e5983947a_svg" class="tl-centered-g" transform="translate(1148.53, 339.52) rotate(0.00, 26.34, 16.56)"><path d="M0.321,12.012Q0.321,12.012 0.31,10.839 0.30,9.667 0.28,8.195 0.27,6.723 1.76,4.858 3.24,2.993 5.92,2.466 8.60,1.939 11.59,1.753 14.57,1.567 17.63,1.468 20.69,1.369 23.77,1.292 26.85,1.216 29.94,1.145 33.02,1.074 36.11,1.004 39.20,0.934 42.28,0.865 45.37,0.796 47.65,2.268 49.93,3.741 50.55,5.322 51.17,6.903 51.37,8.512 51.57,10.120 51.66,11.736 51.75,13.352 51.81,14.970 51.88,16.587 51.93,18.205 51.99,19.823 52.04,21.442 52.10,23.060 52.15,24.678 52.21,26.296 50.73,28.199 49.26,30.102 46.55,30.605 43.84,31.109 40.82,31.256 37.80,31.403 34.70,31.459 31.60,31.515 28.48,31.548 25.36,31.580 22.23,31.607 19.11,31.634 15.98,31.660 12.85,31.685 9.72,31.710 6.60,31.735 4.31,30.251 2.02,28.768 1.43,27.217 0.83,25.666 0.67,24.098 0.51,22.530 0.46,20.957 0.41,19.385 0.38,17.811 0.36,16.237 0.34,14.663 0.33,13.089 0.31,10.977 " fill="#345246" pointer-events="none"/><path d="M-0.958,12.023Q-0.958,12.023 -1.061,10.851 -1.164,9.680 -1.230,8.092 -1.295,6.505 0.44,4.165 2.18,1.824 5.25,1.163 8.32,0.502 11.41,0.396 14.49,0.291 17.57,0.284 20.66,0.277 23.74,0.200 26.82,0.123 29.91,-0.041 32.99,-0.205 36.08,-0.367 39.16,-0.529 42.33,-0.669 45.50,-0.808 48.22,0.847 50.94,2.502 51.74,4.440 52.53,6.378 52.69,8.171 52.84,9.964 52.84,11.627 52.84,13.290 52.90,14.917 52.97,16.544 53.12,18.161 53.27,19.779 53.42,21.394 53.56,23.010 53.67,24.749 53.78,26.487 52.04,28.877 50.31,31.267 47.21,31.908 44.11,32.549 40.99,32.614 37.86,32.680 34.74,32.644 31.62,32.608 28.50,32.640 25.37,32.673 22.24,32.793 19.12,32.913 15.99,33.031 12.86,33.149 9.66,33.245 6.46,33.341 3.73,31.670 1.00,30.000 0.23,28.088 -0.533,26.176 -0.645,24.418 -0.758,22.660 -0.719,21.040 -0.681,19.420 -0.705,17.837 -0.728,16.254 -0.837,14.678 -0.947,13.103 -1.059,10.990 -1.171,8.877 -1.135,8.643 -1.099,8.409 -0.990,8.199 -0.881,7.989 -0.710,7.824 -0.540,7.660 -0.326,7.558 -0.111,7.457 0.12,7.429 0.35,7.401 0.59,7.450 0.82,7.499 1.02,7.619 1.23,7.739 1.38,7.919 1.54,8.098 1.63,8.317 1.72,8.536 1.73,8.773 1.75,9.009 1.68,9.238 1.62,9.467 1.49,9.664 1.36,9.861 1.17,10.006 0.99,10.152 0.76,10.229 0.54,10.307 0.30,10.309 0.06,10.311 -0.156,10.237 -0.381,10.164 -0.571,10.022 -0.761,9.881 -0.896,9.686 -1.030,9.491 -1.096,9.263 -1.161,9.035 -1.150,8.799 -1.140,8.562 -1.054,8.341 -0.968,8.120 -0.816,7.938 -0.665,7.757 -0.463,7.633 -0.261,7.509 -0.030,7.456 0.20,7.403 0.43,7.426 0.67,7.450 0.88,7.547 1.10,7.645 1.27,7.806 1.45,7.968 1.56,8.176 1.67,8.384 1.71,8.618 1.75,8.851 1.75,8.851 1.75,8.851 1.68,10.963 1.61,13.076 1.53,14.649 1.45,16.221 1.48,17.785 1.50,19.349 1.64,20.874 1.78,22.399 1.99,23.777 2.20,25.155 2.62,26.346 3.04,27.536 4.89,28.832 6.73,30.129 9.79,30.175 12.84,30.221 15.97,30.288 19.10,30.356 22.22,30.422 25.35,30.488 28.46,30.455 31.58,30.422 34.66,30.274 37.74,30.126 40.66,29.897 43.58,29.669 45.89,29.302 48.21,28.936 49.42,27.521 50.64,26.105 50.64,24.607 50.64,23.109 50.67,21.489 50.71,19.868 50.75,18.249 50.78,16.630 50.72,15.022 50.66,13.413 50.48,11.845 50.30,10.277 50.05,8.852 49.80,7.427 49.36,6.203 48.91,4.980 47.08,3.690 45.25,2.400 42.24,2.399 39.23,2.398 36.14,2.375 33.05,2.352 29.97,2.330 26.88,2.308 23.80,2.385 20.73,2.461 17.69,2.652 14.65,2.843 11.77,3.109 8.88,3.376 6.59,3.769 4.30,4.162 3.07,5.552 1.84,6.942 1.80,8.298 1.76,9.654 1.68,10.827 1.59,12.001 1.58,12.154 1.56,12.307 1.51,12.452 1.45,12.596 1.37,12.724 1.28,12.851 1.17,12.955 1.05,13.058 0.92,13.131 0.78,13.204 0.63,13.242 0.48,13.280 0.33,13.281 0.17,13.283 0.02,13.247 -0.122,13.211 -0.259,13.141 -0.396,13.071 -0.513,12.969 -0.629,12.868 -0.717,12.742 -0.806,12.616 -0.862,12.472 -0.918,12.329 -0.938,12.176 Z" fill="#36a64c" stroke="#36a64c" stroke-width="2" pointer-events="none"/></g><g id="2a9dead2-044c-4fcc-2afa-79f420e76bb7_svg" class="tl-centered-g" transform="translate(1213.82, 339.43) rotate(0.00, 26.34, 16.56)"><path d="M51.437,21.074Q51.437,21.074 51.44,22.262 51.46,23.450 51.47,24.942 51.49,26.433 50.00,28.303 48.51,30.173 45.89,30.674 43.27,31.174 40.37,31.326 37.46,31.477 34.47,31.539 31.49,31.602 28.49,31.641 25.49,31.681 22.48,31.714 19.48,31.748 16.47,31.781 13.46,31.813 10.46,31.845 7.45,31.877 5.19,30.395 2.94,28.913 2.33,27.348 1.73,25.783 1.55,24.196 1.37,22.610 1.29,21.018 1.22,19.426 1.17,17.833 1.13,16.240 1.09,14.646 1.05,13.052 1.01,11.459 0.97,9.865 0.94,8.271 0.90,6.678 2.38,4.781 3.86,2.885 6.49,2.377 9.13,1.869 12.06,1.715 14.98,1.560 17.99,1.497 20.99,1.433 24.01,1.392 27.03,1.351 30.06,1.316 33.09,1.281 36.12,1.248 39.14,1.214 42.17,1.181 45.20,1.148 47.46,2.630 49.73,4.111 50.32,5.677 50.90,7.243 51.07,8.831 51.23,10.418 51.28,12.011 51.33,13.604 51.36,15.199 51.38,16.793 51.40,18.388 51.42,19.982 51.44,22.123 " fill="#345246" pointer-events="none"/><path d="M52.716,21.061Q52.716,21.061 52.82,22.249 52.92,23.436 52.99,25.043 53.06,26.649 51.31,28.996 49.57,31.344 46.56,31.978 43.55,32.613 40.54,32.683 37.52,32.754 34.52,32.724 31.52,32.694 28.51,32.734 25.50,32.773 22.50,32.900 19.49,33.027 16.49,33.152 13.48,33.277 10.40,33.379 7.31,33.481 4.61,31.813 1.91,30.145 1.14,28.221 0.36,26.297 0.23,24.526 0.10,22.755 0.11,21.116 0.13,19.477 0.08,17.874 0.03,16.271 -0.093,14.678 -0.225,13.084 -0.355,11.492 -0.486,9.900 -0.576,8.189 -0.667,6.478 1.07,4.099 2.80,1.720 5.83,1.076 8.85,0.431 11.88,0.357 14.92,0.284 17.94,0.312 20.97,0.340 23.99,0.299 27.02,0.258 30.05,0.131 33.07,0.003 36.10,-0.123 39.13,-0.250 42.23,-0.353 45.34,-0.456 48.05,1.215 50.75,2.885 51.52,4.813 52.28,6.740 52.39,8.515 52.50,10.289 52.46,11.928 52.43,13.568 52.45,15.172 52.48,16.776 52.59,18.372 52.70,19.968 52.81,22.108 52.93,24.249 52.89,24.483 52.86,24.717 52.75,24.928 52.64,25.138 52.47,25.303 52.30,25.467 52.08,25.569 51.87,25.671 51.64,25.699 51.40,25.727 51.17,25.678 50.94,25.630 50.73,25.510 50.53,25.389 50.37,25.210 50.22,25.031 50.13,24.812 50.04,24.593 50.02,24.357 50.01,24.120 50.07,23.891 50.13,23.663 50.26,23.465 50.39,23.268 50.58,23.122 50.77,22.977 50.99,22.899 51.21,22.821 51.45,22.819 51.69,22.817 51.91,22.890 52.14,22.963 52.33,23.105 52.52,23.246 52.65,23.441 52.79,23.636 52.85,23.863 52.92,24.091 52.91,24.328 52.90,24.564 52.81,24.785 52.73,25.006 52.58,25.188 52.42,25.370 52.22,25.494 52.02,25.619 51.79,25.672 51.56,25.725 51.32,25.702 51.09,25.679 50.87,25.581 50.65,25.484 50.48,25.323 50.31,25.162 50.19,24.953 50.08,24.745 50.04,24.512 50.00,24.278 50.00,24.279 50.00,24.279 50.07,22.138 50.14,19.997 50.22,18.404 50.29,16.810 50.27,15.225 50.24,13.641 50.10,12.094 49.96,10.548 49.74,9.147 49.53,7.746 49.11,6.542 48.70,5.338 46.88,4.045 45.06,2.752 42.11,2.716 39.16,2.679 36.13,2.619 33.10,2.560 30.08,2.502 27.05,2.444 24.03,2.485 21.01,2.525 18.03,2.681 15.05,2.837 12.23,3.072 9.40,3.307 7.16,3.678 4.92,4.049 3.69,5.464 2.47,6.878 2.45,8.354 2.44,9.831 2.38,11.426 2.33,13.021 2.27,14.614 2.22,16.208 2.27,17.792 2.31,19.375 2.47,20.920 2.64,22.465 2.87,23.866 3.10,25.268 3.53,26.474 3.96,27.681 5.77,28.977 7.59,30.273 10.52,30.311 13.45,30.349 16.46,30.409 19.46,30.470 22.47,30.529 25.48,30.588 28.47,30.548 31.47,30.509 34.43,30.355 37.39,30.200 40.20,29.968 43.00,29.736 45.23,29.369 47.46,29.003 48.69,27.610 49.92,26.216 49.95,24.841 49.99,23.465 50.07,22.276 50.15,21.087 50.17,20.934 50.19,20.780 50.24,20.636 50.29,20.491 50.38,20.363 50.47,20.236 50.58,20.132 50.70,20.029 50.83,19.956 50.97,19.883 51.12,19.845 51.27,19.806 51.42,19.805 51.57,19.803 51.72,19.839 51.87,19.874 52.01,19.945 52.15,20.015 52.27,20.116 52.38,20.217 52.47,20.343 52.56,20.469 52.62,20.612 52.67,20.756 52.69,20.909 Z" fill="#36a64c" stroke="#36a64c" stroke-width="2" pointer-events="none"/></g><g id="f0d5d136-2e49-49f4-23bf-623942a08e05_svg" class="tl-centered-g" transform="translate(1280.94, 339.52) rotate(0.00, 26.34, 16.56)"><path d="M16.955,31.943Q16.955,31.943 14.65,31.908 12.35,31.872 9.47,31.828 6.59,31.783 4.36,30.282 2.13,28.781 1.61,27.205 1.09,25.630 1.00,24.036 0.91,22.442 0.93,20.843 0.95,19.244 1.00,17.644 1.05,16.044 1.11,14.443 1.16,12.843 1.22,11.242 1.28,9.642 1.34,8.041 1.40,6.441 2.90,4.543 4.41,2.644 7.07,2.115 9.72,1.586 12.67,1.406 15.63,1.226 18.65,1.135 21.68,1.044 24.73,0.976 27.77,0.907 30.82,0.845 33.87,0.782 36.92,0.721 39.98,0.660 43.03,0.600 46.08,0.539 48.35,2.013 50.62,3.488 51.17,5.137 51.73,6.786 51.86,8.480 51.98,10.173 51.99,11.878 52.00,13.583 51.99,15.291 51.97,16.998 51.94,18.707 51.92,20.415 51.90,22.124 51.87,23.833 51.84,25.541 51.82,27.250 50.32,29.176 48.82,31.101 46.14,31.557 43.46,32.013 40.48,32.093 37.50,32.174 34.44,32.159 31.38,32.144 28.31,32.105 25.23,32.066 22.14,32.020 19.06,31.975 14.92,31.911 " fill="#345246" pointer-events="none"/><path d="M16.935,33.222Q16.935,33.222 14.63,33.279 12.33,33.337 9.37,33.362 6.41,33.387 3.75,31.680 1.08,29.972 0.39,28.025 -0.300,26.079 -0.332,24.296 -0.364,22.513 -0.251,20.871 -0.138,19.230 -0.088,17.620 -0.038,16.010 -0.074,14.404 -0.111,12.798 -0.145,11.193 -0.179,9.588 -0.178,7.891 -0.178,6.193 1.58,3.836 3.35,1.478 6.39,0.814 9.44,0.150 12.49,0.050 15.55,-0.050 18.60,-0.049 21.65,-0.048 24.70,-0.117 27.75,-0.185 30.80,-0.341 33.85,-0.496 36.90,-0.650 39.95,-0.804 43.08,-0.934 46.21,-1.065 48.93,0.612 51.66,2.288 52.39,4.308 53.12,6.328 53.19,8.204 53.25,10.081 53.17,11.828 53.10,13.575 53.08,15.292 53.06,17.009 53.13,18.721 53.20,20.433 53.27,22.144 53.33,23.855 53.36,25.664 53.40,27.474 51.63,29.875 49.86,32.275 46.78,32.866 43.71,33.456 40.62,33.454 37.53,33.452 34.46,33.345 31.38,33.237 28.30,33.198 25.21,33.158 22.13,33.206 19.04,33.253 14.90,33.283 10.76,33.312 10.52,33.270 10.29,33.228 10.08,33.114 9.88,33.000 9.72,32.826 9.56,32.651 9.46,32.435 9.36,32.218 9.34,31.982 9.32,31.746 9.37,31.516 9.43,31.285 9.55,31.084 9.68,30.883 9.86,30.733 10.04,30.582 10.27,30.498 10.49,30.413 10.72,30.404 10.96,30.395 11.19,30.462 11.42,30.529 11.61,30.665 11.80,30.801 11.94,30.991 12.08,31.182 12.16,31.408 12.23,31.634 12.23,31.870 12.22,32.107 12.14,32.331 12.06,32.554 11.92,32.740 11.77,32.927 11.57,33.057 11.37,33.186 11.15,33.246 10.92,33.306 10.68,33.290 10.44,33.273 10.22,33.182 10.01,33.091 9.83,32.935 9.65,32.779 9.53,32.574 9.41,32.369 9.36,32.137 9.32,31.905 9.35,31.670 9.38,31.435 9.48,31.221 9.58,31.008 9.75,30.838 9.91,30.669 10.12,30.561 10.33,30.453 10.57,30.419 10.80,30.384 10.80,30.384 10.80,30.384 14.94,30.540 19.08,30.696 22.16,30.834 25.24,30.973 28.31,31.012 31.39,31.051 34.43,30.974 37.47,30.896 40.34,30.732 43.22,30.569 45.51,30.248 47.79,29.928 49.01,28.477 50.24,27.026 50.32,25.418 50.41,23.810 50.52,22.104 50.64,20.397 50.76,18.692 50.88,16.988 50.89,15.289 50.91,13.590 50.81,11.928 50.70,10.265 50.52,8.755 50.34,7.244 49.96,5.966 49.57,4.688 47.76,3.415 45.95,2.143 42.98,2.134 40.00,2.124 36.95,2.093 33.90,2.061 30.85,2.030 27.80,2.000 24.75,2.068 21.71,2.136 18.71,2.319 15.70,2.502 12.86,2.762 10.01,3.023 7.74,3.417 5.47,3.811 4.22,5.250 2.98,6.689 2.86,8.192 2.74,9.695 2.59,11.292 2.44,12.888 2.29,14.483 2.14,16.078 2.09,17.668 2.04,19.259 2.11,20.815 2.18,22.370 2.33,23.776 2.48,25.182 2.83,26.385 3.19,27.589 4.97,28.884 6.76,30.179 9.57,30.294 12.38,30.408 14.67,30.537 16.97,30.665 17.12,30.686 17.28,30.707 17.42,30.764 17.56,30.821 17.69,30.910 17.81,31.000 17.91,31.117 18.01,31.233 18.08,31.371 18.15,31.509 18.19,31.659 18.22,31.809 18.22,31.963 18.22,32.117 18.18,32.266 18.14,32.415 18.06,32.551 17.99,32.686 17.89,32.800 17.78,32.913 17.65,32.999 17.53,33.085 17.38,33.137 17.24,33.189 17.08,33.206 Z" fill="#36a64c" stroke="#36a64c" stroke-width="2" pointer-events="none"/></g><g id="6a000cdc-9165-474e-2d03-a33b763aa594_svg" class="tl-centered-g" transform="translate(1154.35, 430.42) rotate(0.00, 26.34, 16.56)"><path d="M35.124,0.604Q35.124,0.604 37.40,0.565 39.68,0.526 42.54,0.477 45.40,0.428 47.62,1.905 49.84,3.383 50.45,4.994 51.07,6.606 51.28,8.252 51.49,9.897 51.59,11.552 51.70,13.206 51.78,14.863 51.85,16.519 51.93,18.177 52.00,19.834 52.07,21.491 52.14,23.149 52.21,24.806 52.28,26.463 50.80,28.376 49.33,30.289 46.67,30.833 44.00,31.377 41.04,31.571 38.07,31.766 35.03,31.872 31.98,31.978 28.92,32.061 25.86,32.145 22.79,32.222 19.72,32.300 16.65,32.376 13.58,32.452 10.51,32.527 7.44,32.603 5.17,31.132 2.89,29.661 2.27,28.034 1.65,26.407 1.45,24.740 1.24,23.073 1.15,21.396 1.06,19.719 0.99,18.040 0.92,16.360 0.86,14.680 0.80,12.999 0.74,11.319 0.68,9.638 0.63,7.958 0.57,6.277 2.04,4.359 3.52,2.440 6.17,1.912 8.83,1.384 11.79,1.210 14.74,1.036 17.77,0.953 20.81,0.870 23.86,0.810 26.91,0.749 29.97,0.695 33.03,0.641 37.13,0.570 " fill="#345246" pointer-events="none"/><path d="M35.102,-0.675Q35.102,-0.675 37.37,-0.807 39.65,-0.939 42.59,-1.056 45.54,-1.173 48.20,0.490 50.87,2.154 51.65,4.123 52.44,6.092 52.60,7.914 52.76,9.736 52.77,11.437 52.79,13.137 52.87,14.803 52.95,16.468 53.11,18.123 53.27,19.779 53.44,21.433 53.60,23.087 53.72,24.866 53.84,26.646 52.12,29.045 50.40,31.444 47.35,32.128 44.30,32.811 41.23,32.927 38.16,33.042 35.09,33.056 32.02,33.070 28.95,33.154 25.89,33.237 22.82,33.407 19.75,33.578 16.68,33.747 13.62,33.915 10.47,34.061 7.32,34.206 4.59,32.550 1.87,30.893 1.08,28.907 0.28,26.920 0.13,25.073 -0.021,23.227 -0.026,21.504 -0.031,19.781 -0.099,18.092 -0.166,16.403 -0.319,14.724 -0.472,13.045 -0.623,11.367 -0.774,9.689 -0.886,7.890 -0.998,6.091 0.73,3.687 2.46,1.283 5.50,0.615 8.55,-0.053 11.61,-0.146 14.67,-0.240 17.72,-0.231 20.78,-0.223 23.83,-0.283 26.89,-0.343 29.95,-0.490 33.00,-0.638 37.11,-0.801 41.21,-0.965 41.45,-0.931 41.68,-0.897 41.89,-0.789 42.10,-0.682 42.27,-0.513 42.43,-0.344 42.54,-0.130 42.64,0.083 42.67,0.318 42.70,0.553 42.65,0.785 42.61,1.017 42.49,1.222 42.37,1.428 42.19,1.584 42.01,1.740 41.79,1.832 41.58,1.923 41.34,1.940 41.10,1.957 40.87,1.898 40.65,1.838 40.45,1.709 40.25,1.579 40.10,1.393 39.96,1.207 39.88,0.984 39.80,0.760 39.79,0.524 39.79,0.287 39.86,0.061 39.93,-0.165 40.07,-0.356 40.21,-0.547 40.41,-0.683 40.60,-0.819 40.83,-0.887 41.05,-0.954 41.29,-0.945 41.53,-0.936 41.75,-0.852 41.97,-0.768 42.15,-0.618 42.34,-0.468 42.46,-0.267 42.59,-0.066 42.64,0.164 42.70,0.395 42.68,0.631 42.65,0.867 42.56,1.083 42.46,1.300 42.30,1.475 42.14,1.649 41.94,1.764 41.73,1.878 41.49,1.921 41.26,1.963 41.26,1.963 41.26,1.963 37.16,1.941 33.05,1.919 29.99,1.881 26.93,1.842 23.89,1.902 20.84,1.962 17.83,2.137 14.82,2.313 11.96,2.566 9.11,2.820 6.85,3.209 4.58,3.597 3.36,5.030 2.14,6.463 2.14,8.025 2.15,9.587 2.11,11.270 2.08,12.953 2.05,14.635 2.01,16.316 2.08,17.987 2.15,19.658 2.33,21.289 2.51,22.920 2.77,24.407 3.02,25.894 3.47,27.162 3.91,28.429 5.74,29.714 7.56,30.999 10.55,30.993 13.54,30.988 16.62,31.005 19.69,31.021 22.76,31.037 25.83,31.052 28.89,30.969 31.95,30.886 34.97,30.688 37.99,30.491 40.85,30.216 43.71,29.942 45.99,29.538 48.26,29.133 49.48,27.707 50.71,26.281 50.69,24.746 50.67,23.210 50.70,21.550 50.72,19.889 50.74,18.230 50.76,16.571 50.68,14.923 50.61,13.275 50.41,11.667 50.22,10.058 49.96,8.589 49.70,7.120 49.25,5.866 48.81,4.612 47.03,3.320 45.26,2.029 42.48,2.009 39.70,1.990 37.42,1.936 35.14,1.882 34.99,1.866 34.83,1.850 34.69,1.798 34.54,1.746 34.42,1.660 34.29,1.575 34.18,1.461 34.08,1.348 34.01,1.212 33.93,1.077 33.89,0.928 33.85,0.779 33.85,0.625 33.85,0.471 33.88,0.321 33.92,0.171 33.99,0.033 34.05,-0.105 34.15,-0.222 34.25,-0.339 34.38,-0.429 34.51,-0.518 34.65,-0.575 34.79,-0.633 34.94,-0.654 Z" fill="#36a64c" stroke="#36a64c" stroke-width="2" pointer-events="none"/></g><g id="bf377b43-4656-4ef3-1648-f273861d87ce_svg" class="tl-centered-g" transform="translate(1219.64, 430.33) rotate(0.00, 26.34, 16.56)"><path d="M0.843,11.250Q0.843,11.250 0.80,10.019 0.76,8.787 0.71,7.241 0.67,5.695 2.14,3.811 3.62,1.927 6.26,1.445 8.90,0.962 11.83,0.837 14.77,0.712 17.77,0.679 20.78,0.645 23.81,0.634 26.84,0.624 29.87,0.619 32.91,0.614 35.94,0.611 38.98,0.608 42.01,0.606 45.05,0.603 47.31,2.092 49.57,3.581 50.17,5.175 50.77,6.769 50.94,8.389 51.11,10.010 51.17,11.637 51.23,13.264 51.27,14.893 51.30,16.522 51.33,18.152 51.36,19.781 51.38,21.411 51.41,23.040 51.43,24.670 51.46,26.299 49.97,28.205 48.49,30.110 45.87,30.616 43.25,31.121 40.34,31.270 37.43,31.418 34.45,31.476 31.46,31.533 28.46,31.567 25.46,31.602 22.45,31.630 19.44,31.658 16.44,31.685 13.43,31.712 10.42,31.738 7.41,31.765 5.15,30.281 2.90,28.798 2.28,27.188 1.67,25.578 1.47,23.936 1.28,22.294 1.19,20.644 1.10,18.993 1.04,17.341 0.98,15.688 0.93,14.035 0.88,12.382 0.81,10.163 " fill="#345246" pointer-events="none"/><path d="M-0.435,11.290Q-0.435,11.290 -0.566,10.061 -0.697,8.832 -0.797,7.165 -0.897,5.498 0.84,3.127 2.58,0.757 5.61,0.139 8.64,-0.478 11.67,-0.522 14.71,-0.565 17.74,-0.507 20.77,-0.448 23.80,-0.459 26.84,-0.469 29.87,-0.567 32.90,-0.664 35.94,-0.760 38.97,-0.856 42.08,-0.929 45.19,-1.002 47.90,0.677 50.60,2.357 51.37,4.312 52.14,6.268 52.26,8.072 52.38,9.876 52.35,11.549 52.32,13.223 52.36,14.861 52.39,16.499 52.51,18.129 52.63,19.759 52.75,21.388 52.87,23.017 52.95,24.760 53.03,26.503 51.29,28.888 49.55,31.274 46.54,31.917 43.53,32.559 40.51,32.627 37.50,32.695 34.49,32.660 31.49,32.626 28.48,32.660 25.47,32.694 22.46,32.816 19.46,32.937 16.45,33.056 13.44,33.176 10.35,33.272 7.27,33.369 4.57,31.698 1.87,30.027 1.08,28.058 0.30,26.089 0.15,24.267 0.01,22.444 0.01,20.748 0.01,19.051 -0.044,17.390 -0.105,15.728 -0.252,14.076 -0.398,12.423 -0.561,10.206 -0.723,7.990 -0.692,7.755 -0.661,7.520 -0.557,7.307 -0.453,7.094 -0.286,6.926 -0.119,6.758 0.09,6.652 0.30,6.546 0.53,6.513 0.77,6.480 1.00,6.523 1.24,6.567 1.44,6.683 1.65,6.799 1.81,6.974 1.97,7.150 2.06,7.367 2.16,7.584 2.18,7.820 2.20,8.056 2.14,8.287 2.08,8.517 1.96,8.717 1.83,8.917 1.65,9.066 1.46,9.215 1.24,9.298 1.02,9.381 0.78,9.388 0.54,9.395 0.32,9.327 0.09,9.258 -0.098,9.121 -0.291,8.983 -0.430,8.791 -0.569,8.600 -0.639,8.373 -0.710,8.147 -0.704,7.910 -0.699,7.674 -0.618,7.451 -0.537,7.228 -0.390,7.043 -0.242,6.858 -0.043,6.729 0.15,6.601 0.38,6.543 0.61,6.485 0.85,6.503 1.08,6.521 1.30,6.614 1.52,6.707 1.70,6.864 1.87,7.022 1.99,7.228 2.11,7.433 2.15,7.666 2.20,7.898 2.20,7.898 2.20,7.898 2.18,10.119 2.15,12.340 2.11,13.994 2.07,15.648 2.13,17.291 2.19,18.935 2.37,20.539 2.55,22.144 2.79,23.605 3.04,25.067 3.48,26.318 3.92,27.569 5.74,28.865 7.55,30.161 10.48,30.204 13.41,30.248 16.42,30.314 19.43,30.380 22.44,30.444 25.45,30.509 28.45,30.475 31.44,30.440 34.40,30.291 37.37,30.141 40.17,29.912 42.98,29.683 45.20,29.315 47.43,28.947 48.66,27.521 49.88,26.096 49.91,24.579 49.94,23.063 50.01,21.433 50.08,19.803 50.14,18.174 50.21,16.545 50.17,14.926 50.14,13.306 49.99,11.725 49.84,10.144 49.61,8.707 49.39,7.271 48.97,6.038 48.54,4.806 46.72,3.507 44.90,2.208 41.94,2.140 38.98,2.073 35.94,1.983 32.91,1.893 29.88,1.805 26.84,1.717 23.82,1.727 20.80,1.738 17.81,1.864 14.82,1.990 11.99,2.196 9.16,2.403 6.91,2.750 4.67,3.097 3.45,4.495 2.23,5.893 2.23,7.317 2.23,8.741 2.17,9.976 2.12,11.211 2.10,11.364 2.09,11.518 2.04,11.663 1.99,11.809 1.90,11.939 1.82,12.068 1.71,12.174 1.60,12.279 1.46,12.355 1.33,12.431 1.18,12.473 1.03,12.514 0.88,12.519 0.72,12.524 0.57,12.491 0.42,12.459 0.28,12.392 0.14,12.324 0.03,12.226 -0.088,12.127 -0.179,12.003 -0.270,11.879 -0.329,11.737 -0.389,11.594 -0.412,11.442 Z" fill="#36a64c" stroke="#36a64c" stroke-width="2" pointer-events="none"/></g><g id="6feae34e-4ff6-4e56-2100-c7d5a107b76c_svg" class="tl-centered-g" transform="translate(1286.76, 430.42) rotate(0.00, 26.34, 16.56)"><path d="M51.120,21.650Q51.120,21.650 51.13,22.934 51.14,24.218 51.16,25.829 51.17,27.440 49.69,29.341 48.20,31.242 45.60,31.679 43.00,32.115 40.11,32.178 37.22,32.241 34.26,32.209 31.29,32.177 28.31,32.121 25.33,32.064 22.35,32.002 19.36,31.939 16.38,31.875 13.39,31.811 10.40,31.746 7.42,31.682 5.17,30.175 2.91,28.669 2.34,27.081 1.76,25.493 1.61,23.885 1.47,22.276 1.43,20.663 1.39,19.049 1.37,17.434 1.36,15.819 1.36,14.203 1.35,12.588 1.35,10.972 1.35,9.357 1.35,7.741 1.34,6.126 2.83,4.224 4.32,2.322 6.92,1.805 9.51,1.288 12.38,1.124 15.26,0.960 18.21,0.886 21.15,0.812 24.12,0.762 27.08,0.711 30.05,0.666 33.02,0.621 35.99,0.577 38.96,0.534 41.93,0.491 44.91,0.448 47.15,1.927 49.40,3.406 49.99,5.067 50.57,6.727 50.74,8.435 50.90,10.142 50.95,11.861 51.01,13.581 51.04,15.303 51.06,17.025 51.08,18.748 51.10,20.471 51.13,22.784 " fill="#345246" pointer-events="none"/><path d="M52.399,21.637Q52.399,21.637 52.50,22.920 52.61,24.203 52.68,25.926 52.75,27.649 50.99,30.034 49.23,32.419 46.23,32.989 43.24,33.560 40.24,33.540 37.25,33.520 34.26,33.395 31.28,33.270 28.30,33.213 25.31,33.157 22.32,33.187 19.34,33.217 16.35,33.246 13.36,33.275 10.30,33.281 7.24,33.288 4.56,31.585 1.87,29.883 1.13,27.932 0.38,25.981 0.29,24.187 0.19,22.394 0.24,20.735 0.29,19.076 0.28,17.451 0.27,15.827 0.17,14.209 0.07,12.592 -0.016,10.975 -0.112,9.359 -0.170,7.635 -0.228,5.910 1.51,3.535 3.26,1.159 6.24,0.505 9.22,-0.149 12.20,-0.233 15.19,-0.317 18.16,-0.298 21.12,-0.280 24.09,-0.331 27.06,-0.382 30.03,-0.520 33.00,-0.658 35.97,-0.794 38.94,-0.930 41.99,-1.043 45.04,-1.155 47.74,0.520 50.44,2.196 51.20,4.223 51.96,6.250 52.06,8.136 52.17,10.021 52.14,11.784 52.10,13.546 52.13,15.277 52.15,17.008 52.27,18.732 52.38,20.456 52.50,22.769 52.62,25.081 52.58,25.316 52.54,25.550 52.43,25.760 52.33,25.971 52.16,26.135 51.99,26.300 51.77,26.402 51.56,26.504 51.32,26.532 51.09,26.560 50.86,26.511 50.62,26.463 50.42,26.343 50.21,26.223 50.06,26.044 49.90,25.865 49.81,25.646 49.72,25.427 49.71,25.190 49.69,24.954 49.75,24.725 49.82,24.496 49.95,24.299 50.08,24.101 50.26,23.956 50.45,23.810 50.68,23.732 50.90,23.655 51.14,23.652 51.37,23.650 51.60,23.723 51.82,23.796 52.01,23.938 52.20,24.079 52.34,24.274 52.47,24.468 52.54,24.696 52.60,24.924 52.59,25.160 52.58,25.397 52.50,25.618 52.41,25.839 52.26,26.021 52.11,26.203 51.91,26.327 51.71,26.452 51.48,26.505 51.25,26.558 51.01,26.535 50.77,26.512 50.56,26.415 50.34,26.317 50.17,26.156 49.99,25.995 49.88,25.787 49.77,25.579 49.73,25.345 49.69,25.112 49.69,25.112 49.69,25.112 49.76,22.799 49.82,20.486 49.90,18.764 49.97,17.042 49.94,15.329 49.92,13.615 49.77,11.939 49.63,10.263 49.41,8.734 49.19,7.205 48.78,5.910 48.36,4.615 46.57,3.333 44.77,2.051 41.88,2.024 38.98,1.998 36.01,1.949 33.04,1.899 30.07,1.851 27.10,1.803 24.14,1.854 21.18,1.905 18.26,2.071 15.33,2.236 12.56,2.480 9.79,2.724 7.59,3.104 5.38,3.484 4.15,4.913 2.92,6.341 2.86,7.848 2.81,9.354 2.72,10.969 2.63,12.584 2.54,14.197 2.46,15.811 2.47,17.416 2.48,19.022 2.61,20.591 2.74,22.159 2.94,23.582 3.14,25.006 3.55,26.230 3.95,27.454 5.77,28.765 7.59,30.076 10.51,30.211 13.42,30.347 16.41,30.504 19.39,30.661 22.37,30.816 25.35,30.972 28.33,31.028 31.31,31.084 34.25,31.024 37.19,30.963 39.97,30.817 42.76,30.671 44.96,30.368 47.17,30.066 48.39,28.649 49.60,27.232 49.64,25.732 49.68,24.233 49.76,22.948 49.84,21.664 49.85,21.510 49.87,21.357 49.92,21.213 49.98,21.068 50.06,20.940 50.15,20.812 50.26,20.709 50.38,20.606 50.51,20.533 50.65,20.460 50.80,20.421 50.95,20.383 51.10,20.381 51.26,20.380 51.41,20.415 51.56,20.450 51.69,20.521 51.83,20.591 51.95,20.692 52.06,20.793 52.15,20.919 52.24,21.045 52.30,21.188 52.35,21.332 52.37,21.485 Z" fill="#36a64c" stroke="#36a64c" stroke-width="2" pointer-events="none"/></g><g id="0ddb23ff-e0fa-4608-0adc-7daac286c20b_svg" class="tl-centered-g" transform="translate(888.91, 236.02) rotate(0.00, 235.06, 38.34)"><g pointer-events="none" stroke="#ebbb38" stroke-width="4.23" stroke-linecap="round"><line x1="2.11" y1="2.11" x2="468.01" y2="2.11" stroke-dasharray="0.03 6.52" stroke-dashoffset="0"/><line x1="468.01" y1="2.11" x2="468.01" y2="74.56" stroke-dasharray="0.03 6.55" stroke-dashoffset="0"/><line x1="468.01" y1="74.56" x2="2.11" y2="74.56" stroke-dasharray="0.03 6.52" stroke-dashoffset="0"/><line x1="2.11" y1="74.56" x2="2.11" y2="2.11" stroke-dasharray="0.03 6.55" stroke-dashoffset="0"/></g></g><g id="e46872a3-de06-401c-1595-265db49dd3f6_svg" class="tl-centered-g" transform="translate(889.63, 322.68) rotate(0.00, 235.06, 38.34)"><g pointer-events="none" stroke="#ebbb38" stroke-width="4.23" stroke-linecap="round"><line x1="2.11" y1="2.11" x2="468.01" y2="2.11" stroke-dasharray="0.03 6.52" stroke-dashoffset="0"/><line x1="468.01" y1="2.11" x2="468.01" y2="74.56" stroke-dasharray="0.03 6.55" stroke-dashoffset="0"/><line x1="468.01" y1="74.56" x2="2.11" y2="74.56" stroke-dasharray="0.03 6.52" stroke-dashoffset="0"/><line x1="2.11" y1="74.56" x2="2.11" y2="2.11" stroke-dasharray="0.03 6.55" stroke-dashoffset="0"/></g></g><g id="fcbc9f4d-c174-4851-025c-68720916d2d0_svg" class="tl-centered-g" transform="translate(890.09, 410.72) rotate(0.00, 235.06, 38.34)"><g pointer-events="none" stroke="#ebbb38" stroke-width="4.23" stroke-linecap="round"><line x1="2.11" y1="2.11" x2="468.01" y2="2.11" stroke-dasharray="0.03 6.52" stroke-dashoffset="0"/><line x1="468.01" y1="2.11" x2="468.01" y2="74.56" stroke-dasharray="0.03 6.55" stroke-dashoffset="0"/><line x1="468.01" y1="74.56" x2="2.11" y2="74.56" stroke-dasharray="0.03 6.52" stroke-dashoffset="0"/><line x1="2.11" y1="74.56" x2="2.11" y2="2.11" stroke-dasharray="0.03 6.55" stroke-dashoffset="0"/></g></g><text font-size="119.3884393063584px" font-family="Caveat Brush" font-weight="normal" line-height="119.3884393063584px" letter-spacing="-0.03em" text-align="left" dominant-baseline="mathematical" alignment-baseline="mathematical" text-anchor="start" fill="#ebbb38" transform="translate(119.62, 499.50) rotate(0.00, 52.00, 64.50)"><tspan y="59.6942196531792px" x="4">JS
</tspan></text><text font-size="46.6024097424469px" font-family="Caveat Brush" font-weight="normal" line-height="46.6024097424469px" letter-spacing="-0.03em" text-align="left" dominant-baseline="mathematical" alignment-baseline="mathematical" text-anchor="start" fill="#ebbb38" transform="translate(598.29, 379.40) rotate(335.74, 105.50, 28.50)"><tspan y="23.30120487122345px" x="4">Manifest File
</tspan></text><g id="3f426f57-6e72-4a5e-3c21-0f5e7369e7f2_svg" class="tl-centered-g" transform="translate(864.73, 208.74) rotate(0.00, 263.49, 151.96)"><path d="M88.543,-0.942Q88.543,-0.942 94.75,-0.904 100.97,-0.867 108.77,-0.825 116.57,-0.783 124.77,-0.740 132.97,-0.698 141.28,-0.655 149.59,-0.611 157.92,-0.568 166.25,-0.525 174.59,-0.482 182.93,-0.439 191.27,-0.396 199.61,-0.353 207.95,-0.309 216.30,-0.266 224.64,-0.223 232.98,-0.180 241.32,-0.137 249.66,-0.094 258.01,-0.071 266.35,-0.049 274.69,-0.048 283.03,-0.047 291.37,-0.046 299.71,-0.044 308.06,-0.043 316.40,-0.042 324.74,-0.041 333.08,-0.039 341.42,-0.038 349.77,-0.037 358.11,-0.036 366.45,-0.035 374.79,-0.033 383.13,-0.032 391.48,-0.031 399.82,-0.030 408.16,-0.028 416.50,-0.027 424.84,-0.026 433.18,-0.025 441.53,-0.024 449.87,-0.022 458.21,-0.021 466.55,-0.020 474.89,-0.019 483.24,-0.017 491.58,-0.016 499.92,-0.015 508.28,-0.009 516.65,-0.003 520.81,1.875 524.96,3.753 526.10,10.894 527.23,18.036 527.43,26.282 527.63,34.529 527.64,43.053 527.66,51.578 527.63,60.178 527.60,68.778 527.56,77.398 527.52,86.018 527.48,94.643 527.43,103.267 527.39,111.893 527.35,120.519 527.30,129.146 527.26,137.772 527.25,146.399 527.25,155.025 527.28,163.652 527.31,172.278 527.34,180.905 527.38,189.531 527.41,198.158 527.44,206.784 527.47,215.411 527.51,224.037 527.54,232.664 527.57,241.291 527.60,249.917 527.63,258.544 527.67,267.170 527.70,275.797 527.73,284.446 527.76,293.095 525.88,297.324 524.01,301.553 517.09,302.721 510.18,303.888 502.20,304.106 494.22,304.324 485.98,304.356 477.74,304.387 469.42,304.372 461.11,304.358 452.78,304.332 444.46,304.305 436.12,304.276 427.79,304.247 419.45,304.217 411.12,304.187 402.78,304.157 394.45,304.127 386.11,304.097 377.78,304.066 369.44,304.036 361.10,304.006 352.77,303.976 344.43,303.945 336.10,303.915 327.76,303.885 319.43,303.855 311.09,303.824 302.76,303.794 294.42,303.764 286.09,303.734 277.75,303.704 269.41,303.694 261.08,303.685 252.74,303.697 244.41,303.708 236.07,303.720 227.74,303.732 219.40,303.744 211.07,303.755 202.73,303.767 194.39,303.779 186.06,303.790 177.72,303.802 169.39,303.814 161.05,303.826 152.72,303.837 144.38,303.849 136.05,303.861 127.71,303.872 119.37,303.884 111.04,303.896 102.70,303.908 94.37,303.919 86.03,303.931 77.70,303.943 69.36,303.954 61.03,303.966 52.69,303.978 44.35,303.989 36.02,304.001 27.68,304.013 19.32,304.020 10.97,304.027 6.81,302.153 2.65,300.278 1.51,293.120 0.37,285.963 0.16,277.694 -0.042,269.426 -0.069,260.879 -0.097,252.331 -0.080,243.707 -0.062,235.083 -0.034,226.440 -0.005,217.797 0.02,209.148 0.05,200.500 0.09,191.850 0.12,183.201 0.15,174.551 0.18,165.901 0.18,157.251 0.17,148.600 0.13,139.950 0.08,131.300 0.04,122.650 0.00,114.000 -0.042,105.350 -0.086,96.700 -0.130,88.050 -0.174,79.400 -0.218,70.750 -0.262,62.100 -0.306,53.450 -0.350,44.800 -0.393,36.150 -0.437,27.500 -0.477,18.827 -0.516,10.155 1.35,5.918 3.22,1.681 10.14,0.521 17.06,-0.638 25.05,-0.844 33.03,-1.050 41.28,-1.068 49.53,-1.087 57.84,-1.060 66.16,-1.032 74.50,-0.993 82.83,-0.954 91.17,-0.912 99.51,-0.870 107.85,-0.827 116.20,-0.784 124.54,-0.741 132.88,-0.698 141.22,-0.655 149.56,-0.612 157.90,-0.568 166.25,-0.525 174.59,-0.482 182.93,-0.439 191.27,-0.396 199.61,-0.353 207.95,-0.309 216.30,-0.266 224.64,-0.223 232.98,-0.180 241.32,-0.137 249.66,-0.094 258.01,-0.071 266.35,-0.049 274.69,-0.048 283.03,-0.047 294.23,-0.038 305.43,-0.029 305.60,0.000 305.78,0.030 305.94,0.114 306.09,0.198 306.22,0.328 306.34,0.458 306.41,0.621 306.49,0.783 306.51,0.961 306.53,1.138 306.49,1.313 306.45,1.487 306.35,1.640 306.26,1.793 306.13,1.909 305.99,2.024 305.82,2.090 305.66,2.155 305.48,2.164 305.30,2.174 305.13,2.125 304.96,2.077 304.81,1.976 304.66,1.876 304.55,1.733 304.44,1.590 304.39,1.421 304.33,1.251 304.33,1.073 304.33,0.894 304.39,0.725 304.45,0.555 304.56,0.413 304.66,0.271 304.81,0.171 304.96,0.072 305.13,0.024 305.31,-0.023 305.48,-0.013 305.66,-0.003 305.83,0.064 305.99,0.131 306.13,0.247 306.27,0.363 306.36,0.516 306.45,0.670 306.49,0.844 306.53,1.019 306.51,1.197 306.49,1.374 306.41,1.536 306.33,1.698 306.21,1.828 306.09,1.957 305.93,2.040 305.77,2.124 305.60,2.152 305.42,2.180 305.42,2.180 305.42,2.180 294.22,2.130 283.03,2.079 274.68,2.036 266.34,1.993 258.00,1.970 249.66,1.948 241.32,1.947 232.97,1.946 224.63,1.945 216.29,1.943 207.95,1.942 199.61,1.941 191.26,1.940 182.92,1.938 174.58,1.937 166.24,1.936 157.90,1.935 149.56,1.934 141.21,1.932 132.87,1.931 124.53,1.930 116.19,1.929 107.85,1.928 99.51,1.927 91.17,1.927 82.83,1.927 74.49,1.929 66.16,1.932 57.85,1.947 49.54,1.961 41.33,2.021 33.12,2.081 25.32,2.314 17.51,2.548 11.24,3.240 4.98,3.933 3.87,7.088 2.76,10.242 2.73,18.870 2.71,27.497 2.67,36.148 2.64,44.798 2.61,53.448 2.57,62.098 2.54,70.748 2.51,79.398 2.48,88.048 2.44,96.698 2.41,105.349 2.38,113.999 2.35,122.649 2.31,131.299 2.28,139.949 2.25,148.599 2.25,157.249 2.26,165.899 2.30,174.549 2.35,183.199 2.39,191.849 2.44,200.498 2.48,209.146 2.53,217.794 2.57,226.435 2.62,235.077 2.68,243.693 2.74,252.309 2.84,260.824 2.95,269.339 3.22,277.440 3.49,285.541 4.20,292.033 4.91,298.525 7.99,299.635 11.06,300.746 19.38,300.771 27.69,300.797 36.02,300.827 44.36,300.857 52.69,300.887 61.03,300.918 69.36,300.948 77.70,300.978 86.04,301.008 94.37,301.039 102.71,301.069 111.04,301.099 119.38,301.129 127.71,301.159 136.05,301.190 144.38,301.220 152.72,301.250 161.06,301.280 169.39,301.311 177.73,301.341 186.06,301.371 194.40,301.401 202.73,301.432 211.07,301.462 219.40,301.492 227.74,301.522 236.07,301.552 244.41,301.583 252.75,301.613 261.08,301.643 269.42,301.652 277.75,301.662 286.09,301.650 294.42,301.638 302.76,301.627 311.09,301.615 319.43,301.603 327.77,301.591 336.10,301.580 344.44,301.568 352.77,301.556 361.11,301.545 369.44,301.533 377.78,301.521 386.11,301.509 394.45,301.498 402.79,301.486 411.12,301.474 419.46,301.462 427.79,301.450 436.12,301.437 444.46,301.425 452.78,301.409 461.11,301.393 469.41,301.366 477.72,301.339 485.92,301.266 494.12,301.193 501.93,300.949 509.73,300.704 515.99,300.004 522.25,299.303 523.36,296.153 524.47,293.003 524.51,284.399 524.55,275.795 524.60,267.168 524.64,258.542 524.68,249.915 524.73,241.289 524.77,232.662 524.82,224.036 524.86,215.409 524.91,206.783 524.95,198.156 524.99,189.530 525.04,180.903 525.08,172.277 525.13,163.650 525.17,155.024 525.18,146.397 525.18,137.771 525.15,129.144 525.12,120.518 525.08,111.892 525.05,103.266 525.02,94.642 524.98,86.017 524.95,77.399 524.91,68.781 524.86,60.189 524.82,51.596 524.72,43.105 524.63,34.613 524.37,26.534 524.11,18.454 523.41,11.979 522.70,5.504 519.63,4.391 516.55,3.278 508.23,3.240 499.91,3.201 491.57,3.158 483.23,3.115 474.89,3.072 466.54,3.028 458.20,2.985 449.86,2.942 441.52,2.899 433.18,2.856 424.84,2.813 416.49,2.769 408.15,2.726 399.81,2.683 391.47,2.640 383.13,2.597 374.78,2.554 366.44,2.511 358.10,2.467 349.76,2.424 341.42,2.381 333.08,2.338 324.73,2.295 316.39,2.252 308.05,2.208 299.71,2.165 291.37,2.122 283.03,2.079 274.68,2.036 266.34,1.993 258.00,1.970 249.66,1.948 241.32,1.947 232.97,1.946 224.63,1.945 216.29,1.943 207.95,1.942 199.61,1.941 191.27,1.940 182.92,1.938 174.59,1.937 166.25,1.936 157.91,1.935 149.58,1.934 141.27,1.933 132.97,1.931 124.76,1.931 116.56,1.930 108.76,1.930 100.96,1.930 94.75,1.935 88.53,1.939 88.36,1.918 88.19,1.896 88.02,1.834 87.86,1.772 87.72,1.673 87.58,1.574 87.46,1.444 87.35,1.314 87.27,1.160 87.19,1.006 87.15,0.837 87.10,0.668 87.11,0.495 87.11,0.321 87.15,0.153 87.19,-0.016 87.27,-0.169 87.35,-0.323 87.47,-0.452 87.58,-0.582 87.73,-0.680 87.87,-0.778 88.03,-0.840 88.19,-0.901 88.37,-0.921 Z" fill="#ebbb38" stroke="#ebbb38" stroke-width="2" pointer-events="none"/></g><text font-size="24.691597337491604px" font-family="Caveat Brush" font-weight="normal" line-height="24.691597337491604px" letter-spacing="-0.03em" text-align="left" dominant-baseline="mathematical" alignment-baseline="mathematical" text-anchor="start" fill="#cecece" transform="translate(630.67, 126.08) rotate(0.00, 29.50, 17.50)"><tspan y="12.345798668745802px" x="4">server
</tspan></text><text font-size="40.991072963420784px" font-family="Caveat Brush" font-weight="normal" line-height="40.991072963420784px" letter-spacing="-0.03em" text-align="left" dominant-baseline="mathematical" alignment-baseline="mathematical" text-anchor="start" fill="#ebbb38" transform="translate(628.36, 90.63) rotate(0.00, 122.00, 25.50)"><tspan y="20.495536481710392px" x="4">Remix Framework
</tspan></text></svg>