<svg xmlns="http://www.w3.org/2000/svg" viewBox="0 0 1504 688" width="1472" height="656" style="background-color: transparent;"><defs><style>@import url('https://fonts.googleapis.com/css2?family=Caveat+Brush&amp;family=Source+Code+Pro&amp;family=Source+Sans+Pro&amp;family=Crimson+Pro&amp;display=block');</style></defs><g id="c286159d-3cd8-4d6d-2ca8-8004c36d8abf_svg" class="tl-centered-g" transform="translate(16.00, 16.00) rotate(0.00, 736.00, 328.00)"><g pointer-events="none" stroke="transparent" stroke-width="4.23" stroke-linecap="round"><line x1="2.11" y1="2.11" x2="1469.88" y2="2.11" stroke-dasharray="0.03 6.46" stroke-dashoffset="0"/><line x1="1469.88" y1="2.11" x2="1469.88" y2="653.88" stroke-dasharray="0.03 6.48" stroke-dashoffset="0"/><line x1="1469.88" y1="653.88" x2="2.11" y2="653.88" stroke-dasharray="0.03 6.46" stroke-dashoffset="0"/><line x1="2.11" y1="653.88" x2="2.11" y2="2.11" stroke-dasharray="0.03 6.48" stroke-dashoffset="0"/></g></g><g id="f52a5e6c-4c6b-42ab-27ac-01a9ccb145db_svg" class="tl-centered-g" transform="translate(543.18, 122.95) rotate(0.00, 24.68, 235.26)"><g opacity="1"><path d="M 22.26,0.21 Q 22.26,0.21 21.15,0.48 20.04,0.75 18.93,1.31 17.81,1.88 16.66,2.70 15.50,3.51 14.24,4.50 12.97,5.50 11.78,6.54 10.58,7.59 9.58,8.56 8.58,9.53 7.67,10.50 6.76,11.48 5.95,12.44 5.13,13.40 4.49,14.26 3.85,15.13 3.40,15.93 2.95,16.73 2.66,17.57 2.37,18.41 2.21,19.37 2.04,20.32 1.95,21.02 1.86,21.72 1.88,22.51 1.91,23.29 2.13,24.08 2.35,24.87 2.81,25.68 3.27,26.49 3.92,27.38 4.57,28.26 5.38,29.20 6.19,30.14 7.12,31.11 8.06,32.08 9.05,33.01 10.04,33.94 11.22,34.88 12.39,35.81 13.71,36.72 15.03,37.62 16.27,38.42 17.51,39.22 18.61,39.89 19.71,40.55 20.73,41.13 21.74,41.72 22.70,42.30 23.66,42.88 24.56,43.46 25.46,44.05 26.30,44.62 27.15,45.20 27.93,45.78 28.70,46.35 29.40,46.94 30.09,47.53 30.70,48.17 31.31,48.80 31.82,49.46 32.32,50.13 32.72,50.81 33.12,51.49 33.44,52.24 33.76,53.00 34.00,53.90 34.23,54.80 34.37,55.82 34.51,56.83 34.58,57.85 34.66,58.87 34.58,59.88 34.50,60.89 34.06,62.00 33.62,63.11 32.81,64.36 32.00,65.60 30.99,66.88 29.99,68.16 28.81,69.54 27.63,70.92 25.97,72.70 24.31,74.48 23.12,75.77 21.93,77.07 20.75,78.35 19.57,79.63 18.61,80.72 17.64,81.81 16.84,82.77 16.04,83.74 15.29,84.73 14.54,85.73 13.91,86.72 13.27,87.71 12.74,88.66 12.21,89.60 11.81,90.46 11.42,91.33 11.16,92.19 10.91,93.05 10.76,93.89 10.62,94.73 10.55,95.57 10.47,96.41 10.48,97.25 10.49,98.09 10.70,98.85 10.92,99.60 11.43,100.28 11.94,100.96 12.78,101.65 13.62,102.34 14.76,103.04 15.90,103.75 17.23,104.45 18.55,105.14 20.03,105.86 21.50,106.59 23.08,107.32 24.66,108.05 26.12,108.69 27.57,109.34 28.82,109.89 30.06,110.43 31.23,110.98 32.40,111.53 33.50,112.11 34.60,112.69 35.56,113.24 36.51,113.78 37.27,114.31 38.03,114.84 38.60,115.45 39.17,116.05 39.58,116.73 39.98,117.41 40.23,118.14 40.47,118.88 40.61,119.70 40.74,120.53 40.63,121.46 40.51,122.38 39.95,123.49 39.38,124.60 38.32,125.91 37.25,127.23 35.21,129.19 33.18,131.16 31.62,132.58 30.07,133.99 27.85,135.84 25.63,137.68 23.95,139.05 22.28,140.42 20.71,141.67 19.15,142.92 17.58,144.18 16.00,145.44 14.35,146.81 12.70,148.18 11.43,149.33 10.16,150.48 8.96,151.62 7.76,152.76 6.61,153.93 5.46,155.10 4.65,156.13 3.84,157.16 3.21,158.16 2.59,159.17 2.11,160.13 1.63,161.10 1.29,162.04 0.94,162.98 0.73,163.86 0.52,164.74 0.40,165.52 0.28,166.29 0.22,167.04 0.16,167.79 0.18,168.56 0.20,169.34 0.43,170.06 0.65,170.79 1.15,171.45 1.65,172.12 2.43,172.80 3.22,173.48 4.24,174.23 5.26,174.99 6.45,175.78 7.65,176.58 8.99,177.42 10.34,178.26 11.82,179.20 13.30,180.14 14.81,181.21 16.33,182.27 17.77,183.43 19.22,184.59 20.62,185.95 22.03,187.31 23.31,188.83 24.59,190.34 25.61,191.87 26.64,193.40 27.42,194.95 28.20,196.50 28.77,198.09 29.33,199.69 29.80,201.94 30.27,204.19 30.53,205.83 30.79,207.48 30.94,209.27 31.08,211.05 31.03,212.92 30.97,214.78 30.63,216.61 30.28,218.45 29.68,220.30 29.07,222.14 28.33,223.92 27.58,225.70 26.90,227.16 26.22,228.62 25.49,229.93 24.77,231.24 24.01,232.54 23.25,233.84 22.63,234.93 22.00,236.02 21.52,236.89 21.03,237.77 20.69,238.48 20.35,239.18 20.14,239.78 19.93,240.37 19.82,240.87 19.71,241.36 19.76,241.81 19.81,242.26 20.25,242.73 20.70,243.21 21.58,243.73 22.47,244.24 23.74,244.80 25.02,245.36 26.65,245.95 28.29,246.55 29.98,247.12 31.68,247.70 33.24,248.23 34.80,248.75 36.27,249.28 37.74,249.81 39.14,250.35 40.54,250.89 41.81,251.45 43.08,252.01 44.10,252.57 45.13,253.13 45.91,253.62 46.69,254.11 47.25,254.48 47.81,254.85 48.15,255.08 48.50,255.31 48.69,255.47 48.89,255.63 48.97,255.84 49.06,256.06 48.99,256.53 48.93,257.01 48.64,257.82 48.35,258.63 47.86,259.72 47.36,260.81 46.65,262.09 45.95,263.37 45.07,264.79 44.19,266.21 43.18,267.79 42.17,269.37 40.96,271.13 39.75,272.89 38.41,274.73 37.08,276.57 35.76,278.32 34.45,280.06 33.18,281.66 31.90,283.27 30.69,284.78 29.48,286.29 28.62,287.36 27.75,288.43 26.78,289.63 25.80,290.83 25.16,291.66 24.52,292.50 24.03,293.26 23.54,294.02 23.20,294.69 22.87,295.37 22.65,295.99 22.43,296.62 22.31,297.22 22.19,297.82 22.13,298.41 22.06,299.00 22.19,299.55 22.33,300.10 22.75,300.68 23.16,301.25 23.72,301.88 24.29,302.50 24.99,303.14 25.69,303.79 26.43,304.42 27.17,305.05 27.82,305.68 28.48,306.31 29.08,306.97 29.68,307.62 30.20,308.32 30.73,309.01 31.17,309.81 31.61,310.61 31.93,311.54 32.24,312.48 32.43,313.57 32.62,314.66 32.53,316.08 32.44,317.50 31.79,319.34 31.15,321.19 29.88,323.41 28.62,325.62 26.83,328.12 25.04,330.63 23.08,333.11 21.12,335.59 19.18,337.93 17.23,340.26 15.44,342.40 13.65,344.54 12.09,346.43 10.53,348.31 9.16,349.96 7.79,351.60 6.67,352.97 5.55,354.35 4.70,355.50 3.86,356.65 3.32,357.68 2.78,358.71 2.47,359.65 2.17,360.59 2.19,361.44 2.22,362.30 2.73,363.02 3.24,363.74 4.30,364.51 5.36,365.28 6.69,365.96 8.03,366.65 9.72,367.35 11.40,368.06 13.28,368.84 15.16,369.61 16.94,370.34 18.73,371.07 20.33,371.77 21.93,372.46 23.43,373.13 24.93,373.80 26.34,374.51 27.74,375.22 28.98,376.02 30.21,376.83 31.10,377.66 31.99,378.50 32.52,379.41 33.06,380.32 33.33,381.39 33.61,382.47 33.60,383.77 33.60,385.07 33.19,386.62 32.78,388.16 32.07,389.76 31.36,391.36 30.58,392.83 29.81,394.30 29.01,395.72 28.21,397.13 27.41,398.54 26.61,399.95 25.91,401.27 25.22,402.59 24.66,403.87 24.10,405.15 23.68,406.43 23.27,407.71 23.01,408.90 22.76,410.09 22.67,411.17 22.59,412.25 22.77,413.24 22.96,414.23 23.48,415.18 24.00,416.13 24.77,417.03 25.54,417.93 26.40,418.70 27.26,419.48 28.09,420.13 28.93,420.78 29.70,421.34 30.48,421.91 31.23,422.48 31.99,423.05 32.66,423.76 33.33,424.48 33.74,425.05 34.14,425.62 34.40,426.28 34.66,426.94 34.80,427.75 34.94,428.56 34.85,429.62 34.77,430.69 34.34,431.91 33.91,433.13 33.35,434.32 32.79,435.51 32.20,436.69 31.60,437.86 30.92,439.13 30.23,440.40 29.54,441.67 28.86,442.94 28.31,444.07 27.75,445.20 27.33,446.19 26.91,447.19 26.64,448.19 26.36,449.19 26.21,450.25 26.05,451.32 25.97,452.39 25.88,453.47 25.84,454.55 25.79,455.63 25.76,456.72 25.74,457.80 25.75,458.87 25.75,459.94 25.82,461.03 25.89,462.11 26.00,463.16 26.12,464.21 26.25,465.13 26.38,466.05 26.52,466.80 26.65,467.56 26.77,468.15 26.88,468.74 27.04,469.63 27.21,470.53 27.21,470.53" fill="none" stroke="none" stroke-width="4" stroke-linejoin="round" stroke-linecap="round" pointer-events="none"/><path d="M 22.26,0.21 Q 22.26,0.21 21.15,0.48 20.04,0.75 18.93,1.31 17.81,1.88 16.66,2.70 15.50,3.51 14.24,4.50 12.97,5.50 11.78,6.54 10.58,7.59 9.58,8.56 8.58,9.53 7.67,10.50 6.76,11.48 5.95,12.44 5.13,13.40 4.49,14.26 3.85,15.13 3.40,15.93 2.95,16.73 2.66,17.57 2.37,18.41 2.21,19.37 2.04,20.32 1.95,21.02 1.86,21.72 1.88,22.51 1.91,23.29 2.13,24.08 2.35,24.87 2.81,25.68 3.27,26.49 3.92,27.38 4.57,28.26 5.38,29.20 6.19,30.14 7.12,31.11 8.06,32.08 9.05,33.01 10.04,33.94 11.22,34.88 12.39,35.81 13.71,36.72 15.03,37.62 16.27,38.42 17.51,39.22 18.61,39.89 19.71,40.55 20.73,41.13 21.74,41.72 22.70,42.30 23.66,42.88 24.56,43.46 25.46,44.05 26.30,44.62 27.15,45.20 27.93,45.78 28.70,46.35 29.40,46.94 30.09,47.53 30.70,48.17 31.31,48.80 31.82,49.46 32.32,50.13 32.72,50.81 33.12,51.49 33.44,52.24 33.76,53.00 34.00,53.90 34.23,54.80 34.37,55.82 34.51,56.83 34.58,57.85 34.66,58.87 34.58,59.88 34.50,60.89 34.06,62.00 33.62,63.11 32.81,64.36 32.00,65.60 30.99,66.88 29.99,68.16 28.81,69.54 27.63,70.92 25.97,72.70 24.31,74.48 23.12,75.77 21.93,77.07 20.75,78.35 19.57,79.63 18.61,80.72 17.64,81.81 16.84,82.77 16.04,83.74 15.29,84.73 14.54,85.73 13.91,86.72 13.27,87.71 12.74,88.66 12.21,89.60 11.81,90.46 11.42,91.33 11.16,92.19 10.91,93.05 10.76,93.89 10.62,94.73 10.55,95.57 10.47,96.41 10.48,97.25 10.49,98.09 10.70,98.85 10.92,99.60 11.43,100.28 11.94,100.96 12.78,101.65 13.62,102.34 14.76,103.04 15.90,103.75 17.23,104.45 18.55,105.14 20.03,105.86 21.50,106.59 23.08,107.32 24.66,108.05 26.12,108.69 27.57,109.34 28.82,109.89 30.06,110.43 31.23,110.98 32.40,111.53 33.50,112.11 34.60,112.69 35.56,113.24 36.51,113.78 37.27,114.31 38.03,114.84 38.60,115.45 39.17,116.05 39.58,116.73 39.98,117.41 40.23,118.14 40.47,118.88 40.61,119.70 40.74,120.53 40.63,121.46 40.51,122.38 39.95,123.49 39.38,124.60 38.32,125.91 37.25,127.23 35.21,129.19 33.18,131.16 31.62,132.58 30.07,133.99 27.85,135.84 25.63,137.68 23.95,139.05 22.28,140.42 20.71,141.67 19.15,142.92 17.58,144.18 16.00,145.44 14.35,146.81 12.70,148.18 11.43,149.33 10.16,150.48 8.96,151.62 7.76,152.76 6.61,153.93 5.46,155.10 4.65,156.13 3.84,157.16 3.21,158.16 2.59,159.17 2.11,160.13 1.63,161.10 1.29,162.04 0.94,162.98 0.73,163.86 0.52,164.74 0.40,165.52 0.28,166.29 0.22,167.04 0.16,167.79 0.18,168.56 0.20,169.34 0.43,170.06 0.65,170.79 1.15,171.45 1.65,172.12 2.43,172.80 3.22,173.48 4.24,174.23 5.26,174.99 6.45,175.78 7.65,176.58 8.99,177.42 10.34,178.26 11.82,179.20 13.30,180.14 14.81,181.21 16.33,182.27 17.77,183.43 19.22,184.59 20.62,185.95 22.03,187.31 23.31,188.83 24.59,190.34 25.61,191.87 26.64,193.40 27.42,194.95 28.20,196.50 28.77,198.09 29.33,199.69 29.80,201.94 30.27,204.19 30.53,205.83 30.79,207.48 30.94,209.27 31.08,211.05 31.03,212.92 30.97,214.78 30.63,216.61 30.28,218.45 29.68,220.30 29.07,222.14 28.33,223.92 27.58,225.70 26.90,227.16 26.22,228.62 25.49,229.93 24.77,231.24 24.01,232.54 23.25,233.84 22.63,234.93 22.00,236.02 21.52,236.89 21.03,237.77 20.69,238.48 20.35,239.18 20.14,239.78 19.93,240.37 19.82,240.87 19.71,241.36 19.76,241.81 19.81,242.26 20.25,242.73 20.70,243.21 21.58,243.73 22.47,244.24 23.74,244.80 25.02,245.36 26.65,245.95 28.29,246.55 29.98,247.12 31.68,247.70 33.24,248.23 34.80,248.75 36.27,249.28 37.74,249.81 39.14,250.35 40.54,250.89 41.81,251.45 43.08,252.01 44.10,252.57 45.13,253.13 45.91,253.62 46.69,254.11 47.25,254.48 47.81,254.85 48.15,255.08 48.50,255.31 48.69,255.47 48.89,255.63 48.97,255.84 49.06,256.06 48.99,256.53 48.93,257.01 48.64,257.82 48.35,258.63 47.86,259.72 47.36,260.81 46.65,262.09 45.95,263.37 45.07,264.79 44.19,266.21 43.18,267.79 42.17,269.37 40.96,271.13 39.75,272.89 38.41,274.73 37.08,276.57 35.76,278.32 34.45,280.06 33.18,281.66 31.90,283.27 30.69,284.78 29.48,286.29 28.62,287.36 27.75,288.43 26.78,289.63 25.80,290.83 25.16,291.66 24.52,292.50 24.03,293.26 23.54,294.02 23.20,294.69 22.87,295.37 22.65,295.99 22.43,296.62 22.31,297.22 22.19,297.82 22.13,298.41 22.06,299.00 22.19,299.55 22.33,300.10 22.75,300.68 23.16,301.25 23.72,301.88 24.29,302.50 24.99,303.14 25.69,303.79 26.43,304.42 27.17,305.05 27.82,305.68 28.48,306.31 29.08,306.97 29.68,307.62 30.20,308.32 30.73,309.01 31.17,309.81 31.61,310.61 31.93,311.54 32.24,312.48 32.43,313.57 32.62,314.66 32.53,316.08 32.44,317.50 31.79,319.34 31.15,321.19 29.88,323.41 28.62,325.62 26.83,328.12 25.04,330.63 23.08,333.11 21.12,335.59 19.18,337.93 17.23,340.26 15.44,342.40 13.65,344.54 12.09,346.43 10.53,348.31 9.16,349.96 7.79,351.60 6.67,352.97 5.55,354.35 4.70,355.50 3.86,356.65 3.32,357.68 2.78,358.71 2.47,359.65 2.17,360.59 2.19,361.44 2.22,362.30 2.73,363.02 3.24,363.74 4.30,364.51 5.36,365.28 6.69,365.96 8.03,366.65 9.72,367.35 11.40,368.06 13.28,368.84 15.16,369.61 16.94,370.34 18.73,371.07 20.33,371.77 21.93,372.46 23.43,373.13 24.93,373.80 26.34,374.51 27.74,375.22 28.98,376.02 30.21,376.83 31.10,377.66 31.99,378.50 32.52,379.41 33.06,380.32 33.33,381.39 33.61,382.47 33.60,383.77 33.60,385.07 33.19,386.62 32.78,388.16 32.07,389.76 31.36,391.36 30.58,392.83 29.81,394.30 29.01,395.72 28.21,397.13 27.41,398.54 26.61,399.95 25.91,401.27 25.22,402.59 24.66,403.87 24.10,405.15 23.68,406.43 23.27,407.71 23.01,408.90 22.76,410.09 22.67,411.17 22.59,412.25 22.77,413.24 22.96,414.23 23.48,415.18 24.00,416.13 24.77,417.03 25.54,417.93 26.40,418.70 27.26,419.48 28.09,420.13 28.93,420.78 29.70,421.34 30.48,421.91 31.23,422.48 31.99,423.05 32.66,423.76 33.33,424.48 33.74,425.05 34.14,425.62 34.40,426.28 34.66,426.94 34.80,427.75 34.94,428.56 34.85,429.62 34.77,430.69 34.34,431.91 33.91,433.13 33.35,434.32 32.79,435.51 32.20,436.69 31.60,437.86 30.92,439.13 30.23,440.40 29.54,441.67 28.86,442.94 28.31,444.07 27.75,445.20 27.33,446.19 26.91,447.19 26.64,448.19 26.36,449.19 26.21,450.25 26.05,451.32 25.97,452.39 25.88,453.47 25.84,454.55 25.79,455.63 25.76,456.72 25.74,457.80 25.75,458.87 25.75,459.94 25.82,461.03 25.89,462.11 26.00,463.16 26.12,464.21 26.25,465.13 26.38,466.05 26.52,466.80 26.65,467.56 26.77,468.15 26.88,468.74 27.04,469.63 27.21,470.53 27.21,470.53" fill="none" stroke="#717d8a" stroke-width="4" stroke-dasharray="0.1 8" stroke-dashoffset="0" stroke-linejoin="round" stroke-linecap="round" pointer-events="none"/></g></g><g text-align="left" text-anchor="start" fill="#cecece" transform="translate(237.53, 89.59) rotate(0.00, 55.00, 32.50)"><text y="14" letter-spacing="-0.84" font-size="28px" font-family="Caveat Brush" text-align="left" alignment-baseline="central" transform="scale(1.956587563795696)">client</text></g><g id="6f9ba4da-3139-4351-2455-7a5c2246828c_svg" class="tl-centered-g" transform="translate(111.13, 156.77) rotate(0.00, 182.85, 159.67)"><path d="M 89.75,0.26 Q 89.75,0.26 96.05,0.29 102.34,0.32 110.23,0.35 118.13,0.38 126.44,0.41 134.74,0.44 143.15,0.47 151.56,0.50 160.00,0.52 168.44,0.55 176.88,0.55 185.33,0.55 193.77,0.52 202.22,0.48 210.66,0.45 219.11,0.42 227.56,0.38 236.00,0.35 244.45,0.32 252.89,0.28 261.34,0.25 269.79,0.22 278.23,0.18 286.68,0.15 295.12,0.12 303.57,0.08 312.02,0.05 320.46,0.02 328.91,-0.01 337.36,-0.04 345.82,-0.07 354.29,-0.10 358.48,1.76 362.66,3.64 363.81,10.74 364.96,17.85 365.17,26.07 365.38,34.28 365.41,42.77 365.44,51.25 365.42,59.82 365.40,68.38 365.37,76.96 365.34,85.54 365.31,94.13 365.27,102.72 365.24,111.30 365.21,119.89 365.17,128.48 365.14,137.07 365.11,145.66 365.07,154.24 365.11,162.83 365.15,171.42 365.19,180.01 365.23,188.60 365.27,197.19 365.31,205.78 365.34,214.36 365.38,222.95 365.42,231.54 365.46,240.13 365.50,248.72 365.54,257.31 365.58,265.90 365.62,274.48 365.65,283.07 365.69,291.66 365.73,300.27 365.76,308.88 363.89,313.10 362.02,317.33 355.02,318.48 348.02,319.63 339.95,319.84 331.87,320.04 323.53,320.06 315.18,320.08 306.77,320.05 298.35,320.03 289.92,319.99 281.48,319.95 273.04,319.91 264.60,319.87 256.16,319.83 247.72,319.79 239.28,319.74 230.84,319.70 222.40,319.66 213.95,319.62 205.51,319.58 197.07,319.53 188.63,319.52 180.19,319.51 171.75,319.53 163.31,319.55 154.87,319.57 146.42,319.59 137.98,319.61 129.54,319.63 121.10,319.65 112.66,319.67 104.22,319.69 95.78,319.71 87.33,319.73 78.89,319.75 70.45,319.77 62.01,319.79 53.57,319.81 45.13,319.83 36.69,319.85 28.24,319.87 19.78,319.88 11.32,319.90 7.13,318.02 2.95,316.15 1.80,309.05 0.65,301.95 0.43,293.75 0.22,285.56 0.18,277.08 0.15,268.61 0.16,260.07 0.18,251.52 0.20,242.95 0.22,234.39 0.25,225.82 0.28,217.24 0.30,208.67 0.33,200.10 0.36,191.53 0.39,182.95 0.42,174.38 0.44,165.81 0.40,157.24 0.36,148.66 0.31,140.09 0.27,131.52 0.22,122.94 0.18,114.37 0.13,105.80 0.09,97.23 0.05,88.65 0.00,80.08 -0.03,71.51 -0.08,62.94 -0.12,54.36 -0.17,45.79 -0.21,37.22 -0.25,28.64 -0.29,20.05 -0.33,11.45 1.52,7.24 3.39,3.02 10.40,1.86 17.40,0.69 25.48,0.48 33.56,0.26 41.91,0.23 50.26,0.19 58.68,0.21 67.10,0.22 75.54,0.24 83.98,0.27 92.42,0.30 100.86,0.32 109.31,0.35 117.76,0.38 126.20,0.41 134.65,0.44 143.09,0.47 151.54,0.50 159.99,0.52 168.43,0.55 176.88,0.55 185.32,0.55 193.77,0.52 202.22,0.48 213.55,0.45 224.89,0.41 225.08,0.44 225.26,0.47 225.43,0.56 225.59,0.65 225.72,0.78 225.85,0.92 225.93,1.09 226.00,1.26 226.02,1.45 226.04,1.63 226.00,1.81 225.96,2.00 225.87,2.16 225.77,2.32 225.63,2.44 225.49,2.56 225.31,2.63 225.14,2.70 224.95,2.71 224.77,2.72 224.59,2.67 224.41,2.62 224.25,2.51 224.10,2.41 223.98,2.26 223.87,2.11 223.81,1.93 223.75,1.76 223.75,1.57 223.75,1.38 223.81,1.20 223.87,1.03 223.98,0.88 224.10,0.73 224.25,0.63 224.41,0.52 224.59,0.47 224.77,0.42 224.95,0.43 225.14,0.44 225.31,0.51 225.49,0.58 225.63,0.70 225.77,0.82 225.87,0.98 225.96,1.14 226.00,1.32 226.04,1.51 226.02,1.69 226.00,1.88 225.93,2.05 225.85,2.22 225.72,2.35 225.59,2.49 225.43,2.58 225.26,2.66 225.08,2.69 224.89,2.72 224.89,2.72 224.89,2.72 213.55,2.70 202.22,2.67 193.77,2.64 185.33,2.61 176.88,2.61 168.43,2.61 159.99,2.65 151.54,2.68 143.09,2.71 134.65,2.75 126.20,2.78 117.76,2.81 109.31,2.85 100.87,2.88 92.42,2.92 83.98,2.95 75.54,2.99 67.10,3.02 58.69,3.07 50.28,3.12 41.96,3.22 33.65,3.31 25.74,3.57 17.84,3.84 11.50,4.55 5.15,5.27 4.05,8.41 2.94,11.54 2.92,20.09 2.89,28.64 2.86,37.21 2.84,45.79 2.81,54.36 2.78,62.93 2.75,71.51 2.72,80.08 2.70,88.65 2.67,97.22 2.64,105.80 2.61,114.37 2.58,122.94 2.56,131.52 2.53,140.09 2.50,148.66 2.47,157.23 2.44,165.81 2.49,174.38 2.53,182.95 2.58,191.52 2.62,200.10 2.67,208.67 2.71,217.24 2.76,225.81 2.80,234.38 2.85,242.95 2.90,251.51 2.96,260.05 3.02,268.59 3.12,277.03 3.22,285.47 3.50,293.49 3.77,301.52 4.49,307.96 5.21,314.39 8.31,315.50 11.41,316.62 19.83,316.65 28.25,316.69 36.69,316.73 45.13,316.78 53.57,316.82 62.01,316.86 70.46,316.90 78.90,316.94 87.34,316.99 95.78,317.03 104.22,317.07 112.66,317.11 121.10,317.15 129.54,317.20 137.99,317.24 146.43,317.28 154.87,317.32 163.31,317.36 171.75,317.41 180.19,317.45 188.63,317.46 197.08,317.47 205.52,317.45 213.96,317.43 222.40,317.41 230.84,317.39 239.28,317.37 247.72,317.35 256.16,317.33 264.60,317.31 273.04,317.29 281.48,317.27 289.92,317.25 298.35,317.22 306.76,317.19 315.16,317.15 323.47,317.07 331.78,316.99 339.68,316.74 347.59,316.49 353.92,315.78 360.26,315.07 361.37,311.93 362.48,308.79 362.51,300.23 362.54,291.66 362.57,283.07 362.60,274.48 362.64,265.90 362.67,257.31 362.71,248.72 362.74,240.13 362.77,231.54 362.81,222.95 362.84,214.36 362.87,205.78 362.91,197.19 362.94,188.60 362.97,180.01 363.01,171.42 363.04,162.83 363.07,154.25 363.04,145.66 363.00,137.07 362.96,128.48 362.92,119.89 362.88,111.30 362.84,102.72 362.80,94.13 362.76,85.54 362.72,76.96 362.68,68.38 362.62,59.83 362.57,51.27 362.47,42.82 362.37,34.37 362.10,26.32 361.83,18.28 361.12,11.84 360.41,5.39 357.30,4.28 354.20,3.17 345.78,3.15 337.36,3.13 328.91,3.10 320.46,3.07 312.02,3.04 303.57,3.01 295.13,2.98 286.68,2.95 278.23,2.93 269.79,2.90 261.34,2.87 252.89,2.84 244.45,2.81 236.00,2.78 227.56,2.75 219.11,2.72 210.66,2.70 202.22,2.67 193.77,2.64 185.33,2.61 176.88,2.61 168.44,2.61 160.00,2.65 151.57,2.68 143.16,2.71 134.74,2.75 126.44,2.78 118.13,2.81 110.24,2.85 102.34,2.88 96.05,2.91 89.75,2.95 89.59,2.93 89.43,2.91 89.28,2.85 89.13,2.79 89.00,2.70 88.86,2.61 88.76,2.49 88.65,2.37 88.58,2.22 88.50,2.08 88.46,1.92 88.42,1.77 88.42,1.61 88.42,1.44 88.46,1.29 88.50,1.13 88.58,0.99 88.65,0.84 88.76,0.72 88.86,0.60 89.00,0.51 89.13,0.42 89.28,0.36 89.43,0.30 89.59,0.28 Z" fill="#cecece" stroke="#cecece" stroke-width="2" pointer-events="none"/></g><g id="1d6b82d3-91b8-4cbd-131b-fb4add35a06f_svg" class="tl-centered-g" transform="translate(118.51, 165.35) rotate(0.00, 174.19, 20.79)"><path d="M 348.89,28.12 Q 348.89,28.12 348.96,29.81 349.03,31.50 349.07,33.71 349.11,35.92 347.27,38.46 345.44,40.99 338.34,41.70 331.25,42.40 323.17,42.51 315.10,42.62 306.72,42.62 298.35,42.62 289.90,42.60 281.44,42.58 272.97,42.56 264.50,42.53 256.02,42.50 247.54,42.47 239.06,42.44 230.58,42.41 222.10,42.39 213.62,42.36 205.14,42.33 196.66,42.30 188.18,42.27 179.70,42.24 171.22,42.28 162.74,42.31 154.26,42.35 145.78,42.38 137.30,42.42 128.82,42.46 120.34,42.49 111.86,42.53 103.38,42.56 94.90,42.60 86.42,42.64 77.94,42.67 69.46,42.71 60.98,42.74 52.50,42.78 44.02,42.81 35.54,42.85 27.06,42.89 18.56,42.92 10.06,42.95 5.98,41.27 1.91,39.59 0.79,37.10 -0.32,34.61 -0.47,32.10 -0.61,29.58 -0.52,27.20 -0.43,24.81 -0.39,22.46 -0.34,20.10 -0.38,17.75 -0.42,15.39 -0.46,13.04 -0.49,10.69 -0.50,8.25 -0.50,5.82 1.33,3.23 3.18,0.64 10.27,-0.05 17.36,-0.75 25.42,-0.83 33.49,-0.92 41.85,-0.89 50.22,-0.87 58.66,-0.82 67.10,-0.77 75.56,-0.72 84.03,-0.66 92.49,-0.61 100.96,-0.55 109.43,-0.49 117.90,-0.43 126.37,-0.37 134.84,-0.32 143.31,-0.26 151.78,-0.20 160.25,-0.14 168.72,-0.09 177.19,-0.09 185.66,-0.10 194.12,-0.11 202.59,-0.11 211.06,-0.12 219.53,-0.13 228.00,-0.14 236.47,-0.14 244.94,-0.15 253.41,-0.16 261.88,-0.16 270.35,-0.17 278.82,-0.18 287.29,-0.19 295.76,-0.19 304.23,-0.20 312.70,-0.21 321.17,-0.21 329.66,-0.22 338.15,-0.22 342.22,1.45 346.28,3.12 347.42,5.55 348.57,7.98 348.74,10.42 348.91,12.86 348.86,15.17 348.80,17.48 348.79,19.75 348.77,22.03 348.84,24.30 348.91,26.57 348.96,29.61 349.02,32.66 348.98,32.89 348.94,33.12 348.82,33.33 348.71,33.54 348.54,33.70 348.36,33.86 348.15,33.96 347.93,34.05 347.69,34.08 347.46,34.10 347.23,34.05 347.00,33.99 346.80,33.87 346.59,33.74 346.44,33.56 346.29,33.38 346.21,33.16 346.12,32.94 346.11,32.70 346.10,32.46 346.17,32.24 346.23,32.01 346.37,31.81 346.51,31.62 346.70,31.48 346.89,31.34 347.11,31.26 347.34,31.19 347.57,31.19 347.81,31.20 348.03,31.28 348.26,31.35 348.44,31.50 348.63,31.65 348.76,31.84 348.89,32.04 348.95,32.27 349.01,32.50 349.00,32.74 348.98,32.97 348.89,33.19 348.80,33.41 348.65,33.59 348.49,33.77 348.29,33.89 348.08,34.01 347.85,34.05 347.62,34.10 347.38,34.07 347.15,34.05 346.93,33.94 346.72,33.84 346.55,33.68 346.38,33.51 346.27,33.30 346.16,33.09 346.13,32.85 346.09,32.62 346.09,32.62 346.09,32.62 346.22,29.58 346.35,26.54 346.47,24.28 346.59,22.01 346.60,19.76 346.61,17.51 346.49,15.30 346.37,13.10 346.12,11.11 345.87,9.11 345.20,7.40 344.53,5.69 341.29,4.37 338.05,3.05 329.61,3.00 321.16,2.95 312.69,2.89 304.22,2.83 295.75,2.77 287.28,2.71 278.81,2.66 270.34,2.60 261.87,2.54 253.40,2.48 244.93,2.43 236.47,2.37 228.00,2.31 219.53,2.25 211.06,2.19 202.59,2.14 194.12,2.08 185.65,2.02 177.18,1.96 168.71,1.90 160.24,1.91 151.77,1.92 143.30,1.93 134.83,1.93 126.36,1.94 117.89,1.95 109.42,1.95 100.95,1.96 92.49,1.97 84.02,1.98 75.56,1.99 67.10,2.00 58.66,2.01 50.22,2.03 41.88,2.07 33.53,2.11 25.57,2.26 17.60,2.40 11.30,2.72 5.00,3.05 3.84,4.64 2.68,6.23 2.55,8.49 2.43,10.76 2.28,13.11 2.13,15.45 1.98,17.80 1.83,20.14 1.79,22.47 1.74,24.81 1.84,27.10 1.93,29.38 2.16,31.46 2.38,33.53 3.03,35.30 3.69,37.07 6.92,38.37 10.15,39.67 18.60,39.69 27.06,39.72 35.54,39.75 44.02,39.77 52.50,39.80 60.98,39.83 69.46,39.86 77.94,39.89 86.42,39.92 94.90,39.95 103.38,39.98 111.86,40.01 120.34,40.04 128.82,40.07 137.30,40.09 145.78,40.12 154.26,40.15 162.74,40.18 171.22,40.21 179.70,40.24 188.18,40.20 196.66,40.17 205.14,40.13 213.62,40.10 222.10,40.06 230.58,40.02 239.06,39.99 247.54,39.95 256.02,39.92 264.50,39.88 272.97,39.84 281.44,39.80 289.89,39.76 298.34,39.71 306.69,39.64 315.05,39.58 323.02,39.41 331.00,39.24 337.31,38.91 343.61,38.57 344.77,37.05 345.93,35.52 346.02,33.49 346.11,31.46 346.22,29.78 346.33,28.09 346.36,27.94 346.38,27.78 346.43,27.64 346.49,27.50 346.58,27.37 346.67,27.24 346.78,27.14 346.90,27.04 347.04,26.97 347.18,26.90 347.33,26.87 347.48,26.83 347.63,26.83 347.78,26.84 347.93,26.88 348.08,26.91 348.22,26.99 348.35,27.06 348.47,27.16 348.58,27.27 348.67,27.40 348.75,27.52 348.81,27.67 348.86,27.81 348.88,27.97 Z" fill="#cecece" stroke="#cecece" stroke-width="2" pointer-events="none"/></g><g text-align="left" text-anchor="start" fill="#cecece" transform="translate(125.49, 167.17) rotate(0.00, 92.50, 19.00)"><text y="14" letter-spacing="-0.84" font-size="28px" font-family="Caveat Brush" text-align="left" alignment-baseline="central" transform="scale(0.9835139714385606)">site.com/products/5</text></g><g id="6c13f8b0-2686-48d0-3727-605e1495df2a_svg" class="tl-centered-g" transform="translate(124.80, 218.70) rotate(0.00, 167.42, 1.01)"><defs><mask id="6c13f8b0-2686-48d0-3727-605e1495df2a_clip"><rect x="-100" y="-100" width="534.83" height="202.03" fill="white"/><rect x="167.42" y="1.01" width="0" height="0" rx="4" ry="4" fill="black" opacity="1"/></mask></defs><g pointer-events="none" opacity="1" mask=""><path d="M -0.00,1.14 Q -0.00,1.14 41.84,0.92 83.70,0.71 125.56,0.48 167.41,0.26 209.27,0.03 251.12,-0.20 292.98,-0.43 334.83,-0.67 334.94,-0.65 335.05,-0.64 335.14,-0.59 335.24,-0.54 335.32,-0.46 335.39,-0.38 335.44,-0.28 335.49,-0.18 335.50,-0.07 335.51,0.03 335.49,0.13 335.46,0.24 335.41,0.34 335.35,0.43 335.27,0.50 335.19,0.57 335.09,0.61 334.98,0.65 334.88,0.66 334.77,0.67 334.66,0.64 334.55,0.61 334.46,0.55 334.37,0.49 334.31,0.40 334.24,0.32 334.20,0.21 334.17,0.11 334.17,0.00 334.17,-0.10 334.20,-0.20 334.24,-0.31 334.30,-0.40 334.37,-0.48 334.46,-0.54 334.55,-0.61 334.65,-0.64 334.76,-0.67 334.87,-0.66 334.98,-0.66 335.08,-0.62 335.18,-0.58 335.26,-0.51 335.35,-0.44 335.40,-0.34 335.46,-0.25 335.49,-0.14 335.51,-0.04 335.50,0.06 335.49,0.17 335.44,0.27 335.40,0.37 335.32,0.45 335.25,0.53 335.15,0.58 335.05,0.63 334.95,0.65 334.84,0.67 334.84,0.67 334.84,0.67 292.98,0.94 251.13,1.21 209.27,1.49 167.42,1.76 125.56,2.04 83.71,2.33 41.86,2.62 0.00,2.91 -0.10,2.90 -0.20,2.89 -0.30,2.85 -0.40,2.81 -0.49,2.75 -0.58,2.69 -0.65,2.61 -0.72,2.53 -0.77,2.44 -0.82,2.34 -0.85,2.24 -0.88,2.14 -0.88,2.03 -0.88,1.92 -0.85,1.82 -0.83,1.72 -0.78,1.62 -0.73,1.52 -0.66,1.44 -0.59,1.36 -0.50,1.30 -0.41,1.24 -0.31,1.20 -0.21,1.16 -0.11,1.15 Z" fill="#cecece" stroke="#cecece" stroke-width="2.11" stroke-dasharray="none" stroke-dashoffset="none" stroke-linecap="round" stroke-linejoin="round" pointer-events="stroke"/></g></g><g id="3eb2c0b5-c2b8-4e1c-01f8-a3ac81d4d0ad_svg" class="tl-centered-g" transform="translate(132.53, 234.74) rotate(0.00, 161.28, 110.75)"><path d="M 323.20,94.23 Q 323.20,94.23 323.13,100.58 323.06,106.94 323.18,114.91 323.30,122.89 323.43,131.27 323.55,139.66 323.68,148.15 323.81,156.65 323.93,165.17 324.06,173.68 324.18,182.21 324.31,190.74 324.41,199.35 324.52,207.96 321.38,213.63 318.25,219.30 310.92,220.88 303.60,222.47 295.69,222.71 287.78,222.94 279.76,222.92 271.74,222.90 263.68,222.82 255.62,222.74 247.55,222.64 239.48,222.55 231.41,222.45 223.34,222.35 215.27,222.25 207.20,222.15 199.13,222.05 191.05,221.95 182.98,221.85 174.91,221.75 166.84,221.71 158.77,221.67 150.69,221.69 142.62,221.71 134.55,221.73 126.48,221.75 118.40,221.77 110.33,221.79 102.26,221.81 94.19,221.82 86.11,221.84 78.04,221.86 69.97,221.88 61.90,221.90 53.82,221.92 45.75,221.94 37.68,221.96 29.61,221.98 21.45,221.98 13.29,221.97 7.74,218.81 2.19,215.65 0.69,208.03 -0.81,200.41 -0.99,192.17 -1.16,183.93 -1.09,175.54 -1.03,167.16 -0.90,158.73 -0.77,150.30 -0.63,141.86 -0.49,133.42 -0.34,124.98 -0.19,116.54 -0.24,108.09 -0.28,99.65 -0.32,91.20 -0.36,82.76 -0.41,74.31 -0.45,65.87 -0.49,57.42 -0.53,48.98 -0.57,40.53 -0.62,32.08 -0.64,23.56 -0.66,15.03 2.48,9.40 5.63,3.77 12.92,2.14 20.21,0.52 28.07,0.24 35.93,-0.04 43.90,-0.07 51.87,-0.10 59.88,-0.07 67.88,-0.05 75.90,-0.00 83.92,0.03 91.94,0.07 99.95,0.12 107.97,0.17 115.99,0.21 124.01,0.26 132.03,0.31 140.05,0.35 148.07,0.40 156.09,0.39 164.11,0.38 172.13,0.30 180.15,0.23 188.17,0.16 196.19,0.09 204.21,0.01 212.22,-0.05 220.24,-0.12 228.26,-0.19 236.28,-0.27 244.30,-0.34 252.32,-0.41 260.34,-0.49 268.36,-0.56 276.38,-0.63 284.40,-0.70 292.42,-0.78 300.53,-0.82 308.64,-0.87 314.17,2.26 319.71,5.40 321.28,13.07 322.84,20.75 323.10,29.07 323.35,37.39 323.37,45.85 323.38,54.32 323.34,62.83 323.29,71.35 323.23,79.87 323.18,88.39 323.11,96.92 323.05,105.45 323.18,113.98 323.30,122.51 323.44,133.95 323.58,145.40 323.52,145.74 323.47,146.08 323.31,146.39 323.15,146.69 322.90,146.93 322.65,147.17 322.34,147.31 322.02,147.46 321.68,147.50 321.34,147.54 321.00,147.46 320.66,147.39 320.37,147.21 320.07,147.04 319.85,146.78 319.63,146.51 319.50,146.19 319.37,145.88 319.35,145.53 319.33,145.19 319.42,144.86 319.51,144.52 319.70,144.24 319.90,143.95 320.17,143.74 320.44,143.53 320.77,143.42 321.09,143.31 321.44,143.31 321.78,143.31 322.11,143.42 322.44,143.53 322.71,143.73 322.99,143.94 323.18,144.23 323.38,144.51 323.47,144.84 323.56,145.17 323.54,145.52 323.53,145.86 323.40,146.18 323.27,146.50 323.05,146.77 322.83,147.03 322.54,147.21 322.24,147.39 321.90,147.46 321.57,147.54 321.23,147.50 320.88,147.46 320.57,147.32 320.26,147.18 320.01,146.94 319.76,146.70 319.59,146.40 319.43,146.10 319.37,145.76 319.32,145.42 319.32,145.42 319.32,145.42 319.37,133.97 319.42,122.52 319.49,113.99 319.55,105.46 319.42,96.94 319.30,88.41 319.17,79.89 319.03,71.37 318.89,62.87 318.74,54.38 318.54,45.99 318.34,37.59 317.93,29.62 317.53,21.66 316.67,15.29 315.82,8.93 312.05,6.87 308.28,4.80 300.36,4.77 292.43,4.75 284.41,4.70 276.39,4.66 268.37,4.61 260.35,4.56 252.33,4.51 244.31,4.47 236.29,4.42 228.27,4.37 220.25,4.33 212.23,4.28 204.21,4.23 196.19,4.18 188.17,4.14 180.15,4.09 172.13,4.04 164.11,4.00 156.10,4.01 148.08,4.02 140.06,4.09 132.04,4.17 124.02,4.24 116.00,4.31 107.98,4.38 99.96,4.46 91.94,4.53 83.93,4.60 75.92,4.68 67.90,4.76 59.92,4.85 51.93,4.95 44.04,5.10 36.15,5.25 28.68,5.61 21.20,5.97 15.21,6.79 9.21,7.61 7.12,11.51 5.02,15.40 4.90,23.76 4.77,32.12 4.62,40.56 4.48,49.01 4.33,57.45 4.18,65.89 4.03,74.34 3.89,82.78 3.74,91.23 3.59,99.67 3.44,108.11 3.30,116.56 3.34,125.00 3.38,133.44 3.43,141.88 3.48,150.32 3.54,158.73 3.60,167.14 3.72,175.46 3.84,183.77 4.17,191.65 4.51,199.54 5.30,205.84 6.10,212.15 9.88,214.22 13.67,216.29 21.65,216.37 29.63,216.44 37.71,216.54 45.78,216.65 53.85,216.75 61.92,216.85 69.99,216.95 78.07,217.05 86.14,217.15 94.21,217.25 102.28,217.35 110.35,217.45 118.43,217.55 126.50,217.65 134.57,217.75 142.64,217.85 150.71,217.95 158.78,218.05 166.86,218.09 174.93,218.13 183.00,218.11 191.07,218.09 199.15,218.07 207.22,218.05 215.29,218.03 223.36,218.01 231.43,217.99 239.50,217.97 247.57,217.95 255.63,217.92 263.67,217.88 271.71,217.84 279.65,217.74 287.59,217.65 295.12,217.33 302.64,217.02 308.67,216.23 314.70,215.44 316.76,211.54 318.83,207.64 318.87,199.20 318.91,190.76 318.98,182.23 319.04,173.70 319.10,165.18 319.17,156.66 319.23,148.17 319.30,139.68 319.36,131.29 319.42,122.90 319.49,114.93 319.56,106.95 319.44,100.60 319.32,94.24 319.35,94.01 319.38,93.78 319.46,93.56 319.54,93.34 319.67,93.15 319.80,92.96 319.98,92.80 320.15,92.64 320.36,92.54 320.57,92.43 320.79,92.37 321.02,92.31 321.25,92.31 321.49,92.31 321.71,92.37 321.94,92.42 322.15,92.53 322.36,92.64 322.53,92.79 322.71,92.95 322.84,93.14 322.97,93.33 323.06,93.55 323.14,93.77 323.17,94.00 Z" fill="#36a64c" stroke="#36a64c" stroke-width="3.5" pointer-events="none"/></g><g id="42d28440-acd9-482f-187b-d8a2d26c33aa_svg" class="tl-centered-g" transform="translate(163.55, 265.80) rotate(0.00, 135.32, 83.62)"><path d="M 271.66,92.44 Q 271.66,92.44 271.81,98.59 271.96,104.75 272.11,112.47 272.27,120.19 272.43,128.31 272.58,136.44 272.72,144.75 272.85,153.07 269.71,158.66 266.57,164.25 258.92,165.82 251.26,167.40 242.95,167.65 234.64,167.89 226.19,167.89 217.74,167.89 209.24,167.83 200.75,167.77 192.24,167.70 183.73,167.62 175.22,167.55 166.71,167.47 158.20,167.39 149.68,167.31 141.17,167.31 132.66,167.30 124.15,167.38 115.63,167.45 107.12,167.52 98.61,167.59 90.10,167.67 81.58,167.74 73.07,167.81 64.56,167.88 56.05,167.96 47.53,168.03 39.02,168.10 30.51,168.17 21.91,168.23 13.31,168.28 7.65,165.12 1.98,161.96 0.51,154.44 -0.94,146.91 -1.04,138.78 -1.15,130.65 -1.00,122.38 -0.85,114.12 -0.63,105.82 -0.42,97.51 -0.32,89.20 -0.22,80.88 -0.24,72.55 -0.27,64.23 -0.29,55.91 -0.31,47.58 -0.33,39.26 -0.35,30.94 -0.35,22.53 -0.35,14.13 2.82,8.52 6.00,2.92 13.60,1.37 21.21,-0.17 29.44,-0.38 37.68,-0.60 46.05,-0.56 54.42,-0.52 62.84,-0.43 71.25,-0.33 79.68,-0.22 88.10,-0.11 96.53,0.00 104.96,0.11 113.39,0.23 121.82,0.34 130.25,0.38 138.68,0.42 147.11,0.39 155.54,0.35 163.97,0.32 172.40,0.28 180.83,0.25 189.26,0.21 197.69,0.18 206.13,0.14 214.56,0.11 222.99,0.07 231.42,0.04 239.85,0.00 248.36,-0.00 256.88,-0.02 262.51,3.12 268.14,6.27 269.71,13.75 271.28,21.23 271.51,29.30 271.74,37.38 271.72,45.58 271.71,53.79 271.63,62.03 271.56,70.28 271.60,78.53 271.63,86.79 271.79,95.05 271.95,103.31 272.12,114.39 272.29,125.48 272.23,125.86 272.17,126.24 271.99,126.58 271.81,126.92 271.53,127.19 271.25,127.45 270.90,127.62 270.55,127.78 270.17,127.82 269.79,127.87 269.41,127.79 269.03,127.70 268.70,127.51 268.37,127.31 268.12,127.02 267.87,126.72 267.73,126.37 267.58,126.01 267.56,125.62 267.54,125.24 267.64,124.87 267.74,124.50 267.96,124.18 268.17,123.86 268.48,123.62 268.78,123.39 269.15,123.26 269.51,123.14 269.90,123.14 270.28,123.14 270.65,123.26 271.01,123.38 271.32,123.61 271.63,123.84 271.85,124.16 272.07,124.48 272.17,124.85 272.27,125.22 272.25,125.61 272.23,125.99 272.09,126.35 271.95,126.71 271.70,127.00 271.46,127.30 271.13,127.50 270.80,127.70 270.42,127.78 270.04,127.87 269.66,127.83 269.28,127.79 268.93,127.62 268.58,127.46 268.30,127.20 268.02,126.94 267.83,126.60 267.65,126.26 267.59,125.88 267.52,125.50 267.52,125.50 267.52,125.50 267.61,114.41 267.69,103.32 267.79,95.06 267.88,86.80 267.84,78.55 267.81,70.30 267.63,62.07 267.45,53.84 267.22,45.71 266.98,37.58 266.54,29.87 266.09,22.16 265.19,16.00 264.28,9.84 260.40,7.75 256.51,5.66 248.17,5.57 239.82,5.47 231.39,5.36 222.96,5.24 214.53,5.12 206.10,5.01 197.67,4.89 189.24,4.77 180.81,4.66 172.38,4.54 163.95,4.42 155.52,4.31 147.09,4.19 138.66,4.08 130.23,4.04 121.80,3.99 113.37,4.03 104.94,4.07 96.51,4.10 88.09,4.14 79.66,4.18 71.24,4.22 62.84,4.28 54.45,4.33 46.15,4.44 37.85,4.56 29.98,4.89 22.11,5.21 15.81,6.01 9.51,6.81 7.42,10.67 5.33,14.53 5.12,22.77 4.91,31.00 4.68,39.32 4.45,47.65 4.21,55.97 3.98,64.29 3.75,72.60 3.52,80.92 3.42,89.24 3.32,97.55 3.36,105.84 3.40,114.14 3.50,122.33 3.60,130.52 3.93,138.29 4.25,146.06 5.06,152.26 5.87,158.47 9.76,160.53 13.65,162.59 22.08,162.65 30.51,162.70 39.02,162.78 47.53,162.86 56.05,162.94 64.56,163.02 73.07,163.10 81.58,163.18 90.10,163.26 98.61,163.34 107.12,163.42 115.63,163.49 124.15,163.57 132.66,163.65 141.17,163.66 149.68,163.66 158.20,163.59 166.71,163.51 175.22,163.44 183.73,163.37 192.23,163.29 200.74,163.21 209.22,163.12 217.70,163.03 226.07,162.88 234.45,162.73 242.40,162.37 250.34,162.01 256.70,161.19 263.05,160.37 265.11,156.55 267.17,152.73 267.24,144.59 267.31,136.46 267.41,128.33 267.50,120.21 267.60,112.49 267.70,104.76 267.80,98.61 267.90,92.45 267.93,92.23 267.96,92.00 268.04,91.79 268.12,91.58 268.24,91.39 268.37,91.21 268.54,91.06 268.71,90.91 268.91,90.80 269.11,90.70 269.33,90.64 269.55,90.59 269.77,90.58 270.00,90.58 270.22,90.64 270.44,90.69 270.64,90.79 270.84,90.90 271.01,91.05 271.18,91.20 271.31,91.38 271.44,91.57 271.52,91.78 271.60,91.99 271.63,92.22 Z" fill="#36a64c" stroke="#36a64c" stroke-width="3.5" pointer-events="none"/></g><g id="456428c6-d58c-4217-1d5e-ed877a2a2a03_svg" class="tl-centered-g" transform="translate(205.36, 300.68) rotate(0.23, 101.79, 52.54)"><path d="M 204.58,71.78 Q 204.58,71.78 204.81,76.43 205.03,81.09 205.24,87.07 205.44,93.04 202.31,98.03 199.18,103.02 191.50,104.35 183.83,105.69 175.54,105.81 167.26,105.94 158.81,105.85 150.37,105.76 141.87,105.62 133.38,105.48 124.87,105.33 116.36,105.18 107.85,105.13 99.34,105.08 90.82,105.13 82.31,105.18 73.79,105.23 65.28,105.28 56.77,105.33 48.25,105.38 39.74,105.43 31.22,105.48 22.63,105.51 14.03,105.54 8.40,102.43 2.77,99.32 1.30,93.33 -0.16,87.34 -0.26,81.10 -0.37,74.87 -0.21,68.63 -0.05,62.40 0.00,56.16 0.05,49.92 -0.03,43.67 -0.12,37.42 -0.20,31.17 -0.29,24.92 -0.34,18.56 -0.40,12.20 2.76,7.13 5.93,2.06 13.54,0.70 21.15,-0.66 29.35,-0.79 37.54,-0.93 45.89,-0.85 54.23,-0.77 62.63,-0.64 71.02,-0.50 79.42,-0.35 87.83,-0.21 96.24,-0.16 104.65,-0.11 113.06,-0.17 121.47,-0.22 129.88,-0.27 138.29,-0.33 146.70,-0.38 155.11,-0.44 163.52,-0.49 171.93,-0.55 180.43,-0.58 188.92,-0.61 194.51,2.46 200.10,5.54 201.69,11.53 203.29,17.53 203.54,23.77 203.80,30.01 203.80,36.25 203.81,42.49 203.91,48.74 204.01,54.99 204.27,61.24 204.52,67.49 204.80,75.89 205.08,84.28 205.01,84.69 204.95,85.10 204.76,85.47 204.57,85.84 204.28,86.13 203.98,86.42 203.61,86.60 203.23,86.78 202.82,86.83 202.41,86.88 202.00,86.79 201.60,86.71 201.24,86.50 200.88,86.29 200.61,85.98 200.34,85.67 200.18,85.28 200.02,84.90 199.99,84.49 199.96,84.07 200.07,83.67 200.17,83.27 200.40,82.93 200.63,82.58 200.96,82.32 201.28,82.07 201.67,81.93 202.06,81.79 202.48,81.79 202.89,81.78 203.29,81.91 203.68,82.04 204.02,82.28 204.35,82.53 204.59,82.87 204.82,83.21 204.94,83.61 205.06,84.00 205.04,84.42 205.02,84.83 204.87,85.22 204.73,85.61 204.46,85.93 204.20,86.25 203.85,86.46 203.49,86.68 203.09,86.78 202.69,86.87 202.27,86.83 201.86,86.79 201.48,86.63 201.10,86.46 200.80,86.18 200.49,85.89 200.30,85.53 200.10,85.17 200.02,84.76 199.95,84.35 199.95,84.35 199.95,84.35 200.00,75.95 200.04,67.56 200.12,61.31 200.19,55.06 200.09,48.83 199.98,42.59 199.66,36.45 199.34,30.30 198.82,24.50 198.30,18.71 197.34,14.05 196.39,9.38 192.47,7.22 188.55,5.06 180.23,4.93 171.90,4.80 163.49,4.65 155.08,4.50 146.67,4.35 138.26,4.19 129.85,4.04 121.44,3.89 113.04,3.74 104.63,3.59 96.22,3.54 87.81,3.49 79.41,3.55 71.00,3.61 62.63,3.68 54.25,3.75 45.96,3.88 37.68,4.00 29.81,4.32 21.94,4.64 15.67,5.34 9.41,6.05 7.33,9.38 5.24,12.71 5.03,18.85 4.83,24.98 4.59,31.23 4.35,37.47 4.11,43.71 3.88,49.95 3.82,56.18 3.76,62.40 3.93,68.54 4.09,74.69 4.47,80.48 4.84,86.26 5.69,90.92 6.54,95.57 10.47,97.71 14.40,99.85 22.83,99.98 31.26,100.12 39.77,100.27 48.28,100.43 56.79,100.59 65.31,100.74 73.82,100.90 82.33,101.06 90.85,101.21 99.36,101.37 107.87,101.42 116.38,101.47 124.89,101.42 133.39,101.36 141.88,101.30 150.36,101.23 158.74,101.11 167.13,100.99 175.10,100.68 183.07,100.38 189.40,99.70 195.73,99.02 197.77,95.81 199.81,92.61 199.86,86.88 199.91,81.16 200.01,76.50 200.11,71.84 200.14,71.57 200.16,71.30 200.26,71.05 200.35,70.79 200.50,70.57 200.65,70.34 200.85,70.16 201.05,69.98 201.28,69.85 201.52,69.72 201.78,69.66 202.04,69.59 202.31,69.58 202.58,69.58 202.85,69.64 203.11,69.70 203.35,69.83 203.59,69.95 203.79,70.12 204.00,70.30 204.15,70.52 204.31,70.74 204.41,70.99 204.51,71.24 204.54,71.51 Z" fill="#36a64c" stroke="#36a64c" stroke-width="3.5" pointer-events="none"/></g><g id="70f718ca-1f26-4ed9-277e-c720c7456ddf_svg" class="tl-centered-g" transform="translate(331.15, 382.65) rotate(0.00, 243.42, 87.90)"><defs><mask id="70f718ca-1f26-4ed9-277e-c720c7456ddf_clip"><rect x="-100" y="-100" width="686.83" height="375.80" fill="white"/><rect x="251.86" y="111.30" width="0" height="0" rx="4" ry="4" fill="black" opacity="1"/></mask></defs><g pointer-events="none" opacity="1" mask=""><path d="M 512.87,-12.91 Q 512.87,-12.91 511.24,-11.42 509.62,-9.93 507.33,-8.51 505.03,-7.09 501.84,-5.13 498.64,-3.17 494.55,-0.70 490.47,1.75 485.52,4.69 480.57,7.63 474.77,11.00 468.98,14.36 462.38,18.11 455.78,21.85 448.40,25.92 441.03,29.99 432.92,34.33 424.81,38.67 416.02,43.21 407.23,47.75 397.82,52.44 388.41,57.14 378.43,61.91 368.45,66.69 357.98,71.49 347.50,76.29 336.61,81.06 325.71,85.84 314.47,90.52 303.23,95.20 291.74,99.75 280.25,104.30 268.58,108.68 256.91,113.06 245.17,117.22 233.42,121.38 221.69,125.29 209.96,129.21 198.34,132.86 186.73,136.50 175.32,139.86 163.91,143.22 152.80,146.29 141.69,149.36 130.98,152.13 120.27,154.89 110.04,157.36 99.82,159.83 90.17,162.01 80.52,164.19 71.52,166.08 62.52,167.98 54.26,169.61 45.99,171.25 38.52,172.63 31.05,174.01 24.45,175.17 17.85,176.32 12.17,177.26 6.48,178.19 1.77,178.94 -2.94,179.68 -6.65,180.24 -10.36,180.79 -13.04,181.18 -15.71,181.57 -17.86,181.88 -20.02,182.19 -20.56,182.17 -21.11,182.16 -21.62,181.98 -22.13,181.79 -22.56,181.45 -22.99,181.11 -23.28,180.65 -23.58,180.19 -23.71,179.66 -23.85,179.13 -23.80,178.59 -23.76,178.04 -23.55,177.54 -23.33,177.04 -22.97,176.63 -22.61,176.22 -22.13,175.95 -21.66,175.68 -21.12,175.58 -20.58,175.47 -20.04,175.54 -19.50,175.62 -19.01,175.86 -18.52,176.10 -18.13,176.48 -17.75,176.87 -17.50,177.36 -17.26,177.84 -17.18,178.39 -17.11,178.93 -17.21,179.46 -17.31,180.00 -17.58,180.48 -17.85,180.95 -18.25,181.32 -18.66,181.68 -19.16,181.90 -19.66,182.12 -20.20,182.16 -20.75,182.21 -21.28,182.08 -21.81,181.95 -22.27,181.66 -22.73,181.36 -23.07,180.94 -23.42,180.52 -23.61,180.00 -23.80,179.49 -23.81,178.95 -23.83,178.40 -23.67,177.88 -23.51,177.35 -23.19,176.91 -22.88,176.47 -22.43,176.15 -21.99,175.83 -21.47,175.66 -20.95,175.50 -20.95,175.50 -20.95,175.50 -18.82,175.20 -16.68,174.90 -14.02,174.51 -11.37,174.12 -7.68,173.56 -3.99,173.01 0.69,172.27 5.39,171.54 11.03,170.60 16.68,169.67 23.25,168.52 29.82,167.38 37.25,166.00 44.68,164.62 52.90,163.00 61.13,161.37 70.08,159.49 79.03,157.60 88.63,155.43 98.23,153.26 108.41,150.81 118.58,148.36 129.24,145.60 139.90,142.85 150.95,139.80 162.00,136.75 173.35,133.41 184.70,130.07 196.27,126.43 207.83,122.80 219.50,118.91 231.17,115.01 242.85,110.87 254.54,106.73 266.15,102.38 277.76,98.03 289.20,93.50 300.64,88.97 311.82,84.31 323.00,79.65 333.84,74.91 344.69,70.16 355.11,65.38 365.54,60.60 375.47,55.85 385.40,51.09 394.77,46.43 404.14,41.76 412.88,37.24 421.62,32.72 429.69,28.40 437.76,24.08 445.11,20.03 452.45,15.98 459.02,12.25 465.59,8.53 471.36,5.17 477.12,1.82 482.05,-1.09 486.98,-4.01 491.05,-6.47 495.11,-8.92 498.29,-10.87 501.48,-12.82 503.76,-14.24 506.05,-15.66 508.11,-16.46 510.16,-17.26 510.44,-17.39 510.72,-17.52 511.03,-17.57 511.33,-17.63 511.64,-17.62 511.94,-17.60 512.24,-17.52 512.53,-17.43 512.80,-17.27 513.07,-17.12 513.29,-16.90 513.51,-16.69 513.67,-16.43 513.83,-16.16 513.93,-15.87 514.02,-15.58 514.05,-15.27 514.07,-14.96 514.02,-14.66 513.96,-14.36 513.84,-14.07 513.72,-13.79 513.53,-13.55 513.35,-13.30 513.11,-13.11 Z" fill="#ebbb38" stroke="#ebbb38" stroke-width="0" stroke-dasharray="none" stroke-dashoffset="none" stroke-linecap="round" stroke-linejoin="round" pointer-events="none"/><g><path d="M -2.664955575763461,190.44933528652572 L -28.63,179.97 -6.572107214975768,162.72327956148254" fill="none" stroke="#ebbb38" stroke-width="6.66" stroke-linecap="round" stroke-linejoin="round" pointer-events="none"/></g></g></g><g id="d3b9d845-9944-4622-3d02-f91d3332a1b0_svg" class="tl-centered-g" transform="translate(71.39, 501.49) rotate(0.00, 100.75, 67.34)"><path d="M 201.21,93.25 Q 201.21,93.25 201.35,99.50 201.49,105.74 201.61,113.67 201.72,121.60 198.56,127.09 195.39,132.58 187.88,134.03 180.36,135.48 172.24,135.61 164.12,135.73 155.87,135.62 147.62,135.50 139.33,135.33 131.04,135.15 122.73,134.96 114.43,134.77 106.12,134.68 97.81,134.59 89.50,134.60 81.19,134.61 72.88,134.63 64.57,134.64 56.25,134.65 47.94,134.66 39.63,134.67 31.32,134.68 22.93,134.67 14.53,134.66 8.94,131.50 3.35,128.34 1.83,120.81 0.30,113.29 0.11,105.17 -0.06,97.06 -0.01,88.81 0.04,80.57 -0.00,72.28 -0.05,63.99 -0.24,55.69 -0.44,47.39 -0.63,39.09 -0.82,30.78 -0.99,22.39 -1.16,14.00 1.98,8.38 5.12,2.77 12.66,1.25 20.19,-0.27 28.34,-0.45 36.50,-0.63 44.79,-0.57 53.07,-0.50 61.40,-0.38 69.73,-0.25 78.07,-0.11 86.41,0.02 94.75,0.06 103.10,0.10 111.44,0.04 119.79,-0.01 128.13,-0.07 136.48,-0.13 144.83,-0.19 153.17,-0.25 161.52,-0.31 169.86,-0.37 178.29,-0.41 186.72,-0.45 192.34,2.70 197.95,5.86 199.43,13.44 200.91,21.01 201.05,29.20 201.18,37.38 201.07,45.70 200.96,54.02 200.95,62.39 200.95,70.76 201.09,79.14 201.23,87.51 201.35,98.77 201.48,110.02 201.41,110.43 201.34,110.83 201.15,111.20 200.95,111.57 200.65,111.85 200.35,112.13 199.97,112.31 199.59,112.48 199.18,112.52 198.77,112.57 198.36,112.48 197.96,112.39 197.61,112.17 197.25,111.96 196.98,111.64 196.72,111.32 196.56,110.94 196.41,110.55 196.39,110.14 196.37,109.72 196.48,109.32 196.59,108.93 196.83,108.58 197.06,108.24 197.39,107.99 197.72,107.74 198.12,107.61 198.51,107.48 198.92,107.48 199.34,107.48 199.73,107.62 200.12,107.75 200.45,108.00 200.78,108.25 201.01,108.60 201.25,108.94 201.36,109.34 201.46,109.74 201.44,110.15 201.42,110.57 201.26,110.95 201.11,111.34 200.84,111.65 200.57,111.97 200.21,112.18 199.86,112.39 199.45,112.48 199.05,112.57 198.63,112.52 198.22,112.48 197.85,112.30 197.47,112.12 197.17,111.84 196.87,111.55 196.68,111.19 196.49,110.82 196.42,110.41 196.35,110.00 196.35,110.00 196.35,110.00 196.55,98.75 196.75,87.50 196.94,79.13 197.12,70.75 197.13,62.40 197.14,54.05 196.92,45.79 196.71,37.54 196.28,29.71 195.86,21.88 194.96,15.63 194.07,9.38 190.21,7.30 186.36,5.23 178.10,5.10 169.84,4.98 161.49,4.83 153.15,4.69 144.80,4.54 136.46,4.39 128.11,4.25 119.77,4.10 111.42,3.96 103.08,3.81 94.74,3.77 86.39,3.73 78.06,3.79 69.72,3.86 61.40,3.94 53.09,4.02 44.88,4.16 36.66,4.30 28.88,4.65 21.09,5.01 14.86,5.83 8.64,6.65 6.58,10.49 4.52,14.33 4.41,22.55 4.30,30.76 4.16,39.07 4.03,47.37 3.90,55.67 3.77,63.97 3.82,72.24 3.86,80.52 4.13,88.70 4.40,96.87 4.87,104.63 5.35,112.39 6.28,118.58 7.21,124.78 11.07,126.88 14.93,128.98 23.16,129.15 31.38,129.32 39.69,129.52 48.00,129.71 56.31,129.91 64.62,130.10 72.92,130.30 81.23,130.49 89.54,130.69 97.85,130.88 106.16,130.97 114.47,131.06 122.77,131.05 131.07,131.03 139.35,131.00 147.63,130.97 155.81,130.88 163.99,130.79 171.75,130.49 179.51,130.19 185.71,129.43 191.91,128.66 193.97,124.94 196.04,121.22 196.20,113.47 196.37,105.72 196.55,99.48 196.73,93.24 196.77,92.97 196.80,92.70 196.90,92.45 196.99,92.20 197.15,91.97 197.30,91.75 197.50,91.58 197.71,91.40 197.95,91.27 198.19,91.15 198.45,91.08 198.71,91.02 198.98,91.02 199.25,91.02 199.51,91.09 199.77,91.15 200.01,91.28 200.25,91.41 200.45,91.59 200.65,91.76 200.80,91.99 200.96,92.21 201.05,92.46 201.15,92.71 201.18,92.98 Z" fill="#ebbb38" stroke="#ebbb38" stroke-width="3.5" pointer-events="none"/></g><g text-align="left" text-anchor="start" fill="#cecece" transform="translate(908.11, 420.34) rotate(0.00, 95.00, 29.00)"><text y="24" letter-spacing="-1.44" font-size="48px" font-family="Caveat Brush" text-align="left" alignment-baseline="central" transform="translate(0, 0)">/products/5</text></g><g text-align="left" text-anchor="start" fill="#cecece" transform="translate(907.15, 329.83) rotate(0.00, 79.00, 29.00)"><text y="24" letter-spacing="-1.44" font-size="48px" font-family="Caveat Brush" text-align="left" alignment-baseline="central" transform="translate(0, 0)">/products</text></g><g text-align="left" text-anchor="start" fill="#cecece" transform="translate(915.39, 244.06) rotate(0.00, 11.00, 29.00)"><text y="24" letter-spacing="-1.44" font-size="48px" font-family="Caveat Brush" text-align="left" alignment-baseline="central" transform="translate(0, 0)">/</text></g><g id="3b8d5008-4992-4147-23cc-e29594a7cb86_svg" class="tl-centered-g" transform="translate(1148.49, 253.25) rotate(0.00, 26.34, 16.56)"><path d="M 16.90,32.12 Q 16.90,32.12 14.56,32.10 12.22,32.08 9.29,32.05 6.36,32.03 4.12,30.53 1.88,29.03 1.31,27.45 0.74,25.87 0.59,24.28 0.45,22.68 0.41,21.07 0.37,19.47 0.36,17.86 0.35,16.25 0.34,14.65 0.34,13.04 0.34,11.43 0.34,9.83 0.33,8.22 0.33,6.61 1.82,4.72 3.31,2.82 6.00,2.31 8.68,1.80 11.67,1.64 14.66,1.49 17.73,1.43 20.80,1.36 23.88,1.32 26.97,1.28 30.06,1.25 33.15,1.22 36.25,1.18 39.34,1.15 42.44,1.12 45.53,1.09 47.81,2.57 50.09,4.05 50.70,5.67 51.32,7.29 51.50,8.94 51.69,10.60 51.77,12.26 51.85,13.92 51.91,15.59 51.96,17.25 52.01,18.92 52.05,20.59 52.10,22.25 52.14,23.92 52.19,25.59 52.23,27.25 50.75,29.17 49.27,31.08 46.56,31.55 43.84,32.02 40.82,32.12 37.79,32.22 34.68,32.22 31.57,32.23 28.44,32.21 25.31,32.19 22.18,32.16 19.04,32.14 14.83,32.10" fill="#345246" pointer-events="none"/><path d="M 16.88,33.40 Q 16.88,33.40 14.55,33.47 12.21,33.54 9.20,33.59 6.19,33.63 3.52,31.94 0.84,30.25 0.10,28.30 -0.63,26.36 -0.72,24.58 -0.82,22.79 -0.77,21.14 -0.71,19.49 -0.73,17.88 -0.74,16.26 -0.83,14.65 -0.93,13.04 -1.02,11.44 -1.12,9.83 -1.18,8.11 -1.23,6.40 0.51,4.02 2.26,1.65 5.33,1.00 8.41,0.36 11.50,0.29 14.60,0.21 17.68,0.24 20.77,0.27 23.86,0.23 26.96,0.19 30.05,0.06 33.14,-0.05 36.23,-0.18 39.33,-0.30 42.50,-0.41 45.67,-0.51 48.39,1.15 51.11,2.82 51.90,4.80 52.69,6.78 52.83,8.62 52.96,10.45 52.95,12.16 52.95,13.87 53.00,15.55 53.05,17.22 53.19,18.89 53.33,20.55 53.47,22.22 53.61,23.88 53.70,25.66 53.80,27.45 52.05,29.85 50.31,32.25 47.20,32.86 44.09,33.46 40.96,33.48 37.83,33.49 34.70,33.41 31.57,33.32 28.44,33.30 25.30,33.28 22.17,33.35 19.03,33.41 14.82,33.47 10.61,33.53 10.38,33.49 10.14,33.45 9.93,33.33 9.73,33.22 9.56,33.05 9.40,32.87 9.31,32.66 9.21,32.44 9.18,32.21 9.16,31.97 9.21,31.74 9.27,31.51 9.39,31.31 9.51,31.10 9.70,30.95 9.88,30.80 10.10,30.72 10.32,30.63 10.56,30.62 10.79,30.61 11.02,30.67 11.25,30.74 11.44,30.87 11.64,31.01 11.78,31.20 11.92,31.39 12.00,31.61 12.07,31.84 12.07,32.08 12.07,32.31 11.99,32.54 11.91,32.76 11.77,32.95 11.62,33.13 11.42,33.27 11.23,33.40 11.00,33.46 10.77,33.52 10.53,33.50 10.30,33.49 10.08,33.40 9.86,33.31 9.68,33.16 9.50,33.00 9.38,32.80 9.26,32.59 9.21,32.36 9.16,32.13 9.19,31.89 9.22,31.66 9.32,31.44 9.42,31.23 9.58,31.06 9.75,30.89 9.96,30.78 10.17,30.67 10.40,30.63 10.64,30.60 10.64,30.60 10.64,30.60 14.84,30.73 19.05,30.86 22.18,30.98 25.32,31.09 28.44,31.11 31.57,31.13 34.66,31.04 37.75,30.94 40.67,30.76 43.60,30.58 45.92,30.24 48.24,29.91 49.45,28.49 50.66,27.06 50.67,25.51 50.68,23.96 50.73,22.29 50.77,20.62 50.82,18.96 50.87,17.29 50.82,15.63 50.76,13.98 50.59,12.36 50.42,10.74 50.18,9.27 49.94,7.80 49.50,6.54 49.06,5.28 47.23,3.98 45.39,2.69 42.38,2.65 39.36,2.61 36.26,2.55 33.17,2.49 30.08,2.44 26.98,2.38 23.90,2.42 20.82,2.46 17.77,2.61 14.73,2.77 11.84,3.00 8.95,3.24 6.66,3.61 4.36,3.98 3.14,5.41 1.91,6.83 1.85,8.33 1.80,9.83 1.71,11.43 1.62,13.04 1.53,14.64 1.44,16.25 1.45,17.84 1.46,19.44 1.59,21.00 1.72,22.56 1.92,23.97 2.12,25.39 2.52,26.60 2.92,27.82 4.72,29.12 6.52,30.42 9.38,30.52 12.24,30.61 14.57,30.73 16.91,30.84 17.06,30.86 17.21,30.88 17.36,30.94 17.50,30.99 17.63,31.08 17.75,31.17 17.85,31.28 17.95,31.40 18.02,31.54 18.09,31.68 18.13,31.83 18.17,31.97 18.16,32.13 18.16,32.28 18.12,32.43 18.09,32.58 18.01,32.72 17.94,32.85 17.84,32.97 17.73,33.08 17.61,33.17 17.48,33.26 17.33,33.31 17.19,33.36 17.04,33.38 Z" fill="#36a64c" stroke="#36a64c" stroke-width="2" pointer-events="none"/></g><g id="1e67c044-d2ec-4596-19f9-06706336f3d7_svg" class="tl-centered-g" transform="translate(1213.78, 253.16) rotate(0.00, 26.34, 16.56)"><path d="M 17.82,32.19 Q 17.82,32.19 15.56,32.23 13.31,32.27 10.47,32.32 7.64,32.37 5.43,30.89 3.22,29.41 2.57,27.76 1.93,26.11 1.69,24.42 1.45,22.73 1.31,21.02 1.18,19.32 1.06,17.61 0.95,15.90 0.85,14.19 0.74,12.49 0.64,10.78 0.53,9.07 0.43,7.36 0.33,5.65 1.79,3.73 3.25,1.80 5.98,1.37 8.70,0.94 11.74,0.89 14.79,0.85 17.91,0.90 21.04,0.94 24.18,1.02 27.33,1.09 30.48,1.17 33.63,1.25 36.78,1.33 39.94,1.42 43.09,1.50 46.24,1.58 48.54,3.09 50.83,4.60 51.40,6.16 51.97,7.72 52.10,9.29 52.23,10.86 52.25,12.43 52.27,14.00 52.26,15.58 52.25,17.15 52.23,18.73 52.21,20.30 52.19,21.87 52.17,23.45 52.15,25.02 52.13,26.60 50.64,28.49 49.14,30.38 46.50,30.90 43.86,31.42 40.93,31.59 38.00,31.76 35.00,31.85 32.00,31.93 28.97,31.99 25.95,32.05 22.92,32.10 19.89,32.16 15.83,32.23" fill="#345246" pointer-events="none"/><path d="M 17.84,33.47 Q 17.84,33.47 15.59,33.60 13.33,33.73 10.42,33.85 7.50,33.97 4.84,32.30 2.19,30.64 1.38,28.64 0.57,26.63 0.38,24.77 0.19,22.91 0.14,21.16 0.09,19.41 -0.02,17.69 -0.13,15.97 -0.33,14.27 -0.53,12.57 -0.72,10.86 -0.92,9.16 -1.07,7.32 -1.23,5.49 0.50,3.06 2.23,0.63 5.35,0.06 8.47,-0.49 11.62,-0.46 14.76,-0.42 17.91,-0.28 21.05,-0.14 24.20,-0.06 27.35,0.00 30.51,-0.00 33.66,-0.02 36.82,-0.03 39.98,-0.04 43.20,-0.03 46.42,-0.02 49.14,1.68 51.87,3.38 52.61,5.31 53.35,7.23 53.43,8.99 53.51,10.75 53.43,12.37 53.36,13.99 53.35,15.58 53.34,17.16 53.41,18.74 53.49,20.31 53.56,21.89 53.64,23.47 53.67,25.15 53.71,26.83 51.95,29.18 50.20,31.54 47.17,32.20 44.15,32.86 41.11,32.95 38.08,33.04 35.05,33.03 32.03,33.02 29.00,33.08 25.97,33.14 22.94,33.29 19.92,33.43 15.85,33.60 11.79,33.76 11.55,33.73 11.32,33.69 11.11,33.58 10.89,33.48 10.73,33.31 10.56,33.14 10.46,32.93 10.36,32.71 10.33,32.48 10.30,32.24 10.34,32.01 10.39,31.78 10.51,31.57 10.63,31.37 10.81,31.21 10.98,31.05 11.20,30.96 11.42,30.87 11.66,30.85 11.89,30.84 12.12,30.90 12.35,30.96 12.55,31.09 12.75,31.22 12.90,31.40 13.04,31.59 13.12,31.81 13.20,32.03 13.21,32.27 13.21,32.51 13.14,32.73 13.07,32.96 12.93,33.15 12.79,33.34 12.59,33.48 12.40,33.61 12.17,33.68 11.94,33.75 11.71,33.74 11.47,33.73 11.25,33.65 11.03,33.56 10.84,33.41 10.66,33.26 10.54,33.06 10.41,32.86 10.35,32.63 10.30,32.40 10.32,32.16 10.34,31.93 10.44,31.71 10.53,31.49 10.69,31.32 10.85,31.15 11.06,31.03 11.27,30.92 11.50,30.87 11.74,30.83 11.74,30.83 11.74,30.83 15.80,30.85 19.87,30.88 22.90,30.92 25.93,30.95 28.95,30.90 31.97,30.84 34.95,30.66 37.93,30.49 40.76,30.24 43.58,29.98 45.83,29.60 48.08,29.21 49.32,27.79 50.55,26.37 50.63,24.90 50.71,23.43 50.82,21.86 50.93,20.29 51.04,18.72 51.15,17.14 51.16,15.58 51.18,14.02 51.07,12.49 50.96,10.96 50.78,9.59 50.59,8.21 50.20,7.01 49.80,5.82 47.93,4.51 46.07,3.19 42.99,3.04 39.90,2.88 36.75,2.71 33.60,2.53 30.45,2.36 27.30,2.19 24.16,2.11 21.02,2.04 17.91,2.08 14.81,2.12 11.86,2.26 8.92,2.39 6.60,2.68 4.27,2.98 3.08,4.40 1.89,5.82 1.94,7.40 1.99,8.98 2.01,10.69 2.02,12.41 2.03,14.12 2.04,15.83 2.15,17.53 2.27,19.23 2.49,20.89 2.72,22.55 3.01,24.07 3.30,25.59 3.77,26.88 4.24,28.18 6.01,29.47 7.78,30.77 10.53,30.79 13.28,30.81 15.54,30.86 17.80,30.91 17.95,30.93 18.10,30.95 18.25,31.00 18.39,31.05 18.52,31.14 18.65,31.22 18.76,31.33 18.86,31.45 18.93,31.58 19.01,31.72 19.05,31.87 19.09,32.02 19.09,32.17 19.09,32.32 19.06,32.47 19.02,32.62 18.95,32.76 18.88,32.90 18.78,33.02 18.68,33.13 18.56,33.22 18.43,33.31 18.29,33.37 18.15,33.43 17.99,33.45 Z" fill="#36a64c" stroke="#36a64c" stroke-width="2" pointer-events="none"/></g><g id="688de59c-96c6-44ba-3de9-4d06ab0f9024_svg" class="tl-centered-g" transform="translate(1280.90, 253.25) rotate(0.00, 26.34, 16.56)"><path d="M 35.61,1.22 Q 35.61,1.22 37.85,1.22 40.10,1.22 42.91,1.22 45.73,1.22 47.94,2.71 50.15,4.20 50.71,5.79 51.27,7.38 51.41,8.99 51.55,10.60 51.58,12.22 51.62,13.84 51.62,15.46 51.63,17.08 51.63,18.70 51.63,20.32 51.62,21.94 51.62,23.56 51.62,25.18 51.62,26.80 50.13,28.70 48.63,30.60 46.00,31.08 43.36,31.56 40.43,31.68 37.50,31.80 34.50,31.82 31.50,31.85 28.47,31.85 25.45,31.85 22.42,31.85 19.40,31.85 16.37,31.84 13.34,31.83 10.31,31.83 7.28,31.82 5.02,30.33 2.76,28.84 2.19,27.25 1.63,25.67 1.51,24.07 1.38,22.46 1.36,20.85 1.34,19.23 1.35,17.62 1.36,16.01 1.38,14.39 1.40,12.78 1.42,11.16 1.44,9.55 1.46,7.93 1.48,6.32 2.98,4.42 4.47,2.51 7.10,2.03 9.72,1.55 12.63,1.42 15.55,1.30 18.53,1.27 21.52,1.24 24.53,1.23 27.53,1.22 30.54,1.22 33.55,1.22 37.59,1.22" fill="#345246" pointer-events="none"/><path d="M 35.61,-0.05 Q 35.61,-0.05 37.86,-0.14 40.10,-0.23 42.99,-0.30 45.89,-0.37 48.54,1.31 51.19,3.00 51.92,4.95 52.65,6.90 52.74,8.70 52.82,10.49 52.77,12.15 52.71,13.81 52.71,15.44 52.72,17.07 52.81,18.69 52.91,20.32 53.00,21.94 53.09,23.56 53.14,25.29 53.19,27.01 51.44,29.39 49.68,31.77 46.65,32.39 43.62,33.00 40.59,33.04 37.55,33.08 34.53,33.01 31.51,32.94 28.48,32.94 25.45,32.95 22.42,33.03 19.39,33.12 16.37,33.21 13.34,33.30 10.23,33.36 7.13,33.43 4.42,31.74 1.72,30.05 0.98,28.10 0.25,26.15 0.18,24.35 0.10,22.56 0.18,20.90 0.25,19.25 0.26,17.62 0.27,16.00 0.20,14.38 0.12,12.76 0.05,11.15 -0.01,9.53 -0.05,7.81 -0.09,6.09 1.66,3.72 3.42,1.34 6.44,0.72 9.46,0.11 12.48,0.06 15.49,0.02 18.50,0.08 21.51,0.15 24.52,0.14 27.53,0.13 30.54,0.04 33.55,-0.05 37.59,-0.14 41.63,-0.23 41.87,-0.19 42.10,-0.15 42.31,-0.04 42.52,0.06 42.68,0.23 42.85,0.40 42.95,0.62 43.05,0.83 43.07,1.07 43.10,1.30 43.05,1.53 42.99,1.77 42.87,1.97 42.75,2.17 42.57,2.32 42.39,2.48 42.17,2.57 41.95,2.65 41.71,2.67 41.48,2.68 41.25,2.62 41.02,2.55 40.82,2.42 40.63,2.29 40.48,2.10 40.34,1.91 40.26,1.68 40.19,1.46 40.19,1.22 40.19,0.99 40.26,0.76 40.34,0.54 40.48,0.35 40.63,0.16 40.82,0.03 41.02,-0.10 41.25,-0.16 41.48,-0.22 41.71,-0.21 41.95,-0.20 42.17,-0.11 42.39,-0.02 42.57,0.12 42.75,0.28 42.87,0.48 42.99,0.68 43.05,0.91 43.10,1.14 43.07,1.38 43.04,1.62 42.95,1.83 42.85,2.05 42.68,2.22 42.52,2.39 42.31,2.50 42.10,2.61 41.87,2.65 41.63,2.69 41.63,2.69 41.63,2.69 37.59,2.59 33.55,2.50 30.54,2.41 27.53,2.32 24.53,2.32 21.53,2.33 18.57,2.45 15.60,2.58 12.79,2.78 9.98,2.99 7.75,3.34 5.52,3.68 4.29,5.11 3.06,6.54 2.98,8.05 2.90,9.57 2.79,11.18 2.68,12.79 2.57,14.40 2.46,16.01 2.45,17.62 2.44,19.22 2.54,20.79 2.65,22.36 2.83,23.78 3.02,25.19 3.41,26.41 3.80,27.63 5.61,28.92 7.43,30.22 10.39,30.29 13.34,30.37 16.37,30.47 19.40,30.57 22.42,30.66 25.45,30.76 28.47,30.76 31.49,30.76 34.47,30.64 37.45,30.52 40.28,30.32 43.10,30.12 45.34,29.78 47.59,29.43 48.81,28.00 50.04,26.58 50.10,25.07 50.16,23.55 50.25,21.93 50.35,20.32 50.44,18.70 50.54,17.08 50.53,15.47 50.52,13.86 50.40,12.29 50.28,10.71 50.08,9.28 49.88,7.85 49.49,6.63 49.10,5.41 47.34,4.12 45.57,2.83 42.83,2.76 40.10,2.69 37.85,2.59 35.61,2.50 35.46,2.48 35.30,2.46 35.16,2.41 35.02,2.35 34.89,2.27 34.76,2.18 34.66,2.06 34.56,1.95 34.49,1.81 34.42,1.67 34.38,1.52 34.34,1.38 34.34,1.22 34.34,1.07 34.38,0.92 34.42,0.77 34.49,0.63 34.56,0.49 34.66,0.38 34.76,0.26 34.89,0.18 35.02,0.09 35.16,0.03 35.31,-0.01 35.46,-0.03 Z" fill="#36a64c" stroke="#36a64c" stroke-width="2" pointer-events="none"/></g><g id="e94d0bed-7d20-4fcd-2602-ca4e5983947a_svg" class="tl-centered-g" transform="translate(1148.53, 339.52) rotate(0.00, 26.34, 16.56)"><path d="M 0.32,12.01 Q 0.32,12.01 0.31,10.83 0.30,9.66 0.28,8.19 0.27,6.72 1.76,4.85 3.24,2.99 5.92,2.46 8.60,1.93 11.58,1.75 14.57,1.56 17.63,1.46 20.69,1.36 23.77,1.29 26.85,1.21 29.94,1.14 33.02,1.07 36.11,1.00 39.20,0.93 42.28,0.86 45.37,0.79 47.65,2.26 49.93,3.74 50.55,5.32 51.17,6.90 51.37,8.51 51.57,10.12 51.66,11.73 51.75,13.35 51.81,14.96 51.88,16.58 51.93,18.20 51.99,19.82 52.04,21.44 52.10,23.05 52.15,24.67 52.21,26.29 50.73,28.19 49.26,30.10 46.55,30.60 43.84,31.10 40.82,31.25 37.80,31.40 34.70,31.45 31.60,31.51 28.48,31.54 25.36,31.58 22.23,31.60 19.11,31.63 15.98,31.65 12.85,31.68 9.72,31.71 6.60,31.73 4.31,30.25 2.02,28.76 1.43,27.21 0.83,25.66 0.67,24.09 0.51,22.52 0.46,20.95 0.41,19.38 0.38,17.81 0.36,16.23 0.34,14.66 0.33,13.08 0.31,10.97" fill="#345246" pointer-events="none"/><path d="M -0.95,12.02 Q -0.95,12.02 -1.06,10.85 -1.16,9.67 -1.22,8.09 -1.29,6.50 0.44,4.16 2.18,1.82 5.25,1.16 8.32,0.50 11.40,0.39 14.49,0.29 17.57,0.28 20.65,0.27 23.74,0.19 26.82,0.12 29.91,-0.04 32.99,-0.20 36.08,-0.36 39.16,-0.52 42.33,-0.66 45.50,-0.80 48.22,0.84 50.94,2.50 51.74,4.44 52.53,6.37 52.68,8.17 52.84,9.96 52.84,11.62 52.84,13.29 52.90,14.91 52.97,16.54 53.12,18.16 53.27,19.77 53.42,21.39 53.56,23.01 53.67,24.74 53.78,26.48 52.04,28.87 50.31,31.26 47.21,31.90 44.11,32.54 40.99,32.61 37.86,32.67 34.74,32.64 31.62,32.60 28.49,32.64 25.37,32.67 22.24,32.79 19.12,32.91 15.99,33.03 12.86,33.14 9.66,33.24 6.46,33.34 3.73,31.67 1.00,29.99 0.23,28.08 -0.53,26.17 -0.64,24.41 -0.75,22.66 -0.71,21.04 -0.68,19.42 -0.70,17.83 -0.72,16.25 -0.83,14.67 -0.94,13.10 -1.05,10.99 -1.17,8.87 -1.13,8.64 -1.09,8.40 -0.98,8.19 -0.88,7.98 -0.71,7.82 -0.53,7.65 -0.32,7.55 -0.11,7.45 0.12,7.42 0.35,7.40 0.59,7.45 0.82,7.49 1.02,7.61 1.23,7.73 1.38,7.91 1.54,8.09 1.63,8.31 1.72,8.53 1.73,8.77 1.75,9.00 1.68,9.23 1.62,9.46 1.49,9.66 1.36,9.86 1.17,10.00 0.99,10.15 0.76,10.22 0.54,10.30 0.30,10.30 0.06,10.31 -0.15,10.23 -0.38,10.16 -0.57,10.02 -0.76,9.88 -0.89,9.68 -1.03,9.49 -1.09,9.26 -1.16,9.03 -1.15,8.79 -1.13,8.56 -1.05,8.34 -0.96,8.12 -0.81,7.93 -0.66,7.75 -0.46,7.63 -0.26,7.50 -0.03,7.45 0.20,7.40 0.43,7.42 0.67,7.44 0.88,7.54 1.10,7.64 1.27,7.80 1.45,7.96 1.56,8.17 1.67,8.38 1.71,8.61 1.75,8.85 1.75,8.85 1.75,8.85 1.68,10.96 1.61,13.07 1.53,14.64 1.45,16.22 1.48,17.78 1.50,19.34 1.64,20.87 1.78,22.39 1.99,23.77 2.20,25.15 2.62,26.34 3.04,27.53 4.89,28.83 6.73,30.12 9.79,30.17 12.84,30.22 15.97,30.28 19.09,30.35 22.22,30.42 25.35,30.48 28.46,30.45 31.58,30.42 34.66,30.27 37.74,30.12 40.66,29.89 43.58,29.66 45.89,29.30 48.21,28.93 49.42,27.52 50.64,26.10 50.64,24.60 50.64,23.10 50.67,21.48 50.71,19.86 50.75,18.24 50.78,16.63 50.72,15.02 50.66,13.41 50.48,11.84 50.30,10.27 50.05,8.85 49.80,7.42 49.36,6.20 48.91,4.97 47.08,3.68 45.25,2.39 42.24,2.39 39.23,2.39 36.14,2.37 33.05,2.35 29.97,2.33 26.88,2.30 23.80,2.38 20.73,2.46 17.69,2.65 14.65,2.84 11.77,3.10 8.88,3.37 6.59,3.76 4.30,4.16 3.07,5.55 1.84,6.94 1.80,8.29 1.76,9.65 1.68,10.82 1.59,12.00 1.58,12.15 1.56,12.30 1.51,12.45 1.45,12.59 1.37,12.72 1.28,12.85 1.17,12.95 1.05,13.05 0.92,13.13 0.78,13.20 0.63,13.24 0.48,13.27 0.33,13.28 0.17,13.28 0.02,13.24 -0.12,13.21 -0.25,13.14 -0.39,13.07 -0.51,12.96 -0.62,12.86 -0.71,12.74 -0.80,12.61 -0.86,12.47 -0.91,12.32 -0.93,12.17 Z" fill="#36a64c" stroke="#36a64c" stroke-width="2" pointer-events="none"/></g><g id="2a9dead2-044c-4fcc-2afa-79f420e76bb7_svg" class="tl-centered-g" transform="translate(1213.82, 339.43) rotate(0.00, 26.34, 16.56)"><path d="M 51.43,21.07 Q 51.43,21.07 51.44,22.26 51.46,23.45 51.47,24.94 51.49,26.43 50.00,28.30 48.51,30.17 45.89,30.67 43.27,31.17 40.37,31.32 37.46,31.47 34.47,31.53 31.49,31.60 28.49,31.64 25.49,31.68 22.48,31.71 19.48,31.74 16.47,31.78 13.46,31.81 10.46,31.84 7.45,31.87 5.19,30.39 2.94,28.91 2.33,27.34 1.73,25.78 1.55,24.19 1.37,22.60 1.29,21.01 1.22,19.42 1.17,17.83 1.13,16.23 1.09,14.64 1.05,13.05 1.01,11.45 0.97,9.86 0.94,8.27 0.90,6.67 2.38,4.78 3.86,2.88 6.49,2.37 9.13,1.86 12.06,1.71 14.98,1.56 17.99,1.49 20.99,1.43 24.01,1.39 27.03,1.35 30.06,1.31 33.09,1.28 36.12,1.24 39.14,1.21 42.17,1.18 45.20,1.14 47.46,2.62 49.73,4.11 50.31,5.67 50.90,7.24 51.07,8.83 51.23,10.41 51.28,12.01 51.33,13.60 51.36,15.19 51.38,16.79 51.40,18.38 51.42,19.98 51.44,22.12" fill="#345246" pointer-events="none"/><path d="M 52.71,21.06 Q 52.71,21.06 52.82,22.24 52.92,23.43 52.99,25.04 53.06,26.64 51.31,28.99 49.57,31.34 46.56,31.97 43.55,32.61 40.53,32.68 37.52,32.75 34.52,32.72 31.51,32.69 28.51,32.73 25.50,32.77 22.50,32.90 19.49,33.02 16.49,33.15 13.48,33.27 10.39,33.37 7.31,33.48 4.61,31.81 1.91,30.14 1.14,28.22 0.36,26.29 0.23,24.52 0.10,22.75 0.11,21.11 0.13,19.47 0.08,17.87 0.03,16.27 -0.09,14.67 -0.22,13.08 -0.35,11.49 -0.48,9.89 -0.57,8.18 -0.66,6.47 1.07,4.09 2.80,1.72 5.83,1.07 8.85,0.43 11.88,0.35 14.92,0.28 17.94,0.31 20.97,0.34 23.99,0.29 27.02,0.25 30.05,0.13 33.07,0.00 36.10,-0.12 39.13,-0.24 42.23,-0.35 45.34,-0.45 48.05,1.21 50.75,2.88 51.52,4.81 52.28,6.74 52.39,8.51 52.50,10.28 52.46,11.92 52.43,13.56 52.45,15.17 52.48,16.77 52.59,18.37 52.70,19.96 52.81,22.10 52.93,24.24 52.89,24.48 52.86,24.71 52.75,24.92 52.64,25.13 52.47,25.30 52.30,25.46 52.08,25.56 51.87,25.67 51.63,25.69 51.40,25.72 51.17,25.67 50.94,25.62 50.73,25.50 50.53,25.38 50.37,25.21 50.22,25.03 50.13,24.81 50.04,24.59 50.02,24.35 50.01,24.12 50.07,23.89 50.13,23.66 50.26,23.46 50.39,23.26 50.58,23.12 50.76,22.97 50.99,22.89 51.21,22.82 51.45,22.81 51.69,22.81 51.91,22.88 52.14,22.96 52.33,23.10 52.52,23.24 52.65,23.44 52.79,23.63 52.85,23.86 52.92,24.09 52.91,24.32 52.90,24.56 52.81,24.78 52.73,25.00 52.57,25.18 52.42,25.37 52.22,25.49 52.02,25.61 51.79,25.67 51.56,25.72 51.32,25.70 51.09,25.67 50.87,25.58 50.65,25.48 50.48,25.32 50.31,25.16 50.19,24.95 50.08,24.74 50.04,24.51 50.00,24.27 50.00,24.27 50.00,24.27 50.07,22.13 50.14,19.99 50.22,18.40 50.29,16.81 50.27,15.22 50.24,13.64 50.10,12.09 49.95,10.54 49.74,9.14 49.53,7.74 49.11,6.54 48.70,5.33 46.88,4.04 45.06,2.75 42.11,2.71 39.16,2.67 36.13,2.61 33.10,2.55 30.08,2.50 27.05,2.44 24.03,2.48 21.01,2.52 18.03,2.68 15.05,2.83 12.23,3.07 9.40,3.30 7.16,3.67 4.92,4.04 3.69,5.46 2.47,6.87 2.45,8.35 2.44,9.83 2.38,11.42 2.33,13.02 2.27,14.61 2.22,16.20 2.27,17.79 2.31,19.37 2.47,20.92 2.64,22.46 2.87,23.86 3.10,25.26 3.53,26.47 3.96,27.68 5.77,28.97 7.59,30.27 10.52,30.31 13.45,30.34 16.46,30.40 19.46,30.46 22.47,30.52 25.48,30.58 28.47,30.54 31.47,30.50 34.43,30.35 37.39,30.20 40.20,29.96 43.00,29.73 45.23,29.36 47.46,29.00 48.69,27.60 49.92,26.21 49.95,24.84 49.99,23.46 50.07,22.27 50.15,21.08 50.17,20.93 50.19,20.78 50.24,20.63 50.29,20.49 50.38,20.36 50.47,20.23 50.58,20.13 50.70,20.02 50.83,19.95 50.97,19.88 51.12,19.84 51.27,19.80 51.42,19.80 51.57,19.80 51.72,19.83 51.87,19.87 52.01,19.94 52.15,20.01 52.26,20.11 52.38,20.21 52.47,20.34 52.56,20.46 52.61,20.61 52.67,20.75 52.69,20.90 Z" fill="#36a64c" stroke="#36a64c" stroke-width="2" pointer-events="none"/></g><g id="f0d5d136-2e49-49f4-23bf-623942a08e05_svg" class="tl-centered-g" transform="translate(1280.94, 339.52) rotate(0.00, 26.34, 16.56)"><path d="M 16.95,31.94 Q 16.95,31.94 14.65,31.90 12.35,31.87 9.47,31.82 6.58,31.78 4.36,30.28 2.13,28.78 1.61,27.20 1.09,25.63 1.00,24.03 0.91,22.44 0.93,20.84 0.95,19.24 1.00,17.64 1.05,16.04 1.11,14.44 1.16,12.84 1.22,11.24 1.28,9.64 1.34,8.04 1.40,6.44 2.90,4.54 4.41,2.64 7.06,2.11 9.72,1.58 12.67,1.40 15.63,1.22 18.65,1.13 21.68,1.04 24.72,0.97 27.77,0.90 30.82,0.84 33.87,0.78 36.92,0.72 39.97,0.66 43.03,0.59 46.08,0.53 48.35,2.01 50.62,3.48 51.17,5.13 51.73,6.78 51.86,8.47 51.98,10.17 51.99,11.87 52.00,13.58 51.99,15.29 51.97,16.99 51.94,18.70 51.92,20.41 51.89,22.12 51.87,23.83 51.84,25.54 51.82,27.25 50.32,29.17 48.82,31.10 46.14,31.55 43.46,32.01 40.48,32.09 37.50,32.17 34.44,32.15 31.38,32.14 28.30,32.10 25.23,32.06 22.14,32.02 19.06,31.97 14.92,31.91" fill="#345246" pointer-events="none"/><path d="M 16.93,33.22 Q 16.93,33.22 14.63,33.27 12.33,33.33 9.37,33.36 6.41,33.38 3.75,31.67 1.08,29.97 0.39,28.02 -0.30,26.07 -0.33,24.29 -0.36,22.51 -0.25,20.87 -0.13,19.22 -0.08,17.61 -0.03,16.01 -0.07,14.40 -0.11,12.79 -0.14,11.19 -0.17,9.58 -0.17,7.89 -0.17,6.19 1.58,3.83 3.34,1.47 6.39,0.81 9.44,0.14 12.49,0.04 15.55,-0.05 18.60,-0.04 21.65,-0.04 24.70,-0.11 27.75,-0.18 30.80,-0.34 33.85,-0.49 36.90,-0.64 39.95,-0.80 43.08,-0.93 46.21,-1.06 48.93,0.61 51.66,2.28 52.39,4.30 53.12,6.32 53.19,8.20 53.25,10.08 53.17,11.82 53.09,13.57 53.08,15.29 53.06,17.00 53.13,18.72 53.20,20.43 53.27,22.14 53.33,23.85 53.36,25.66 53.40,27.47 51.63,29.87 49.86,32.27 46.78,32.86 43.71,33.45 40.62,33.45 37.53,33.45 34.46,33.34 31.38,33.23 28.29,33.19 25.21,33.15 22.13,33.20 19.04,33.25 14.90,33.28 10.76,33.31 10.52,33.27 10.29,33.22 10.08,33.11 9.88,33.00 9.72,32.82 9.56,32.65 9.46,32.43 9.36,32.21 9.34,31.98 9.32,31.74 9.37,31.51 9.43,31.28 9.55,31.08 9.68,30.88 9.86,30.73 10.04,30.58 10.27,30.49 10.49,30.41 10.72,30.40 10.96,30.39 11.19,30.46 11.42,30.52 11.61,30.66 11.80,30.80 11.94,30.99 12.08,31.18 12.16,31.40 12.23,31.63 12.22,31.87 12.22,32.10 12.14,32.33 12.06,32.55 11.92,32.74 11.77,32.92 11.57,33.05 11.37,33.18 11.14,33.24 10.92,33.30 10.68,33.28 10.44,33.27 10.22,33.18 10.01,33.09 9.83,32.93 9.65,32.77 9.53,32.57 9.41,32.36 9.36,32.13 9.32,31.90 9.35,31.66 9.38,31.43 9.48,31.22 9.58,31.00 9.75,30.83 9.91,30.66 10.12,30.56 10.33,30.45 10.57,30.41 10.80,30.38 10.80,30.38 10.80,30.38 14.94,30.54 19.08,30.69 22.16,30.83 25.24,30.97 28.31,31.01 31.39,31.05 34.43,30.97 37.47,30.89 40.34,30.73 43.22,30.56 45.50,30.24 47.79,29.92 49.01,28.47 50.24,27.02 50.32,25.41 50.40,23.81 50.52,22.10 50.64,20.39 50.76,18.69 50.88,16.98 50.89,15.28 50.91,13.59 50.81,11.92 50.70,10.26 50.52,8.75 50.34,7.24 49.96,5.96 49.57,4.68 47.76,3.41 45.95,2.14 42.98,2.13 40.00,2.12 36.95,2.09 33.90,2.06 30.85,2.03 27.79,2.00 24.75,2.06 21.71,2.13 18.71,2.31 15.70,2.50 12.86,2.76 10.01,3.02 7.74,3.41 5.47,3.81 4.22,5.24 2.98,6.68 2.86,8.19 2.74,9.69 2.59,11.29 2.44,12.88 2.29,14.48 2.14,16.07 2.09,17.66 2.04,19.25 2.11,20.81 2.18,22.37 2.33,23.77 2.48,25.18 2.83,26.38 3.19,27.58 4.97,28.88 6.76,30.17 9.57,30.29 12.38,30.40 14.67,30.53 16.97,30.66 17.12,30.68 17.27,30.70 17.42,30.76 17.56,30.82 17.69,30.91 17.81,30.99 17.91,31.11 18.01,31.23 18.08,31.37 18.15,31.50 18.19,31.65 18.22,31.80 18.22,31.96 18.22,32.11 18.18,32.26 18.14,32.41 18.06,32.55 17.99,32.68 17.89,32.79 17.78,32.91 17.65,32.99 17.53,33.08 17.38,33.13 17.24,33.18 17.08,33.20 Z" fill="#36a64c" stroke="#36a64c" stroke-width="2" pointer-events="none"/></g><g id="6a000cdc-9165-474e-2d03-a33b763aa594_svg" class="tl-centered-g" transform="translate(1154.35, 430.42) rotate(0.00, 26.34, 16.56)"><path d="M 35.12,0.60 Q 35.12,0.60 37.40,0.56 39.68,0.52 42.54,0.47 45.40,0.42 47.62,1.90 49.84,3.38 50.45,4.99 51.07,6.60 51.28,8.25 51.49,9.89 51.59,11.55 51.70,13.20 51.78,14.86 51.85,16.51 51.93,18.17 52.00,19.83 52.07,21.49 52.14,23.14 52.21,24.80 52.27,26.46 50.80,28.37 49.33,30.28 46.67,30.83 44.00,31.37 41.04,31.57 38.07,31.76 35.03,31.87 31.98,31.97 28.92,32.06 25.86,32.14 22.79,32.22 19.72,32.29 16.65,32.37 13.58,32.45 10.51,32.52 7.44,32.60 5.17,31.13 2.89,29.66 2.27,28.03 1.65,26.40 1.45,24.74 1.24,23.07 1.15,21.39 1.05,19.71 0.99,18.03 0.92,16.35 0.86,14.67 0.80,12.99 0.74,11.31 0.68,9.63 0.63,7.95 0.57,6.27 2.04,4.35 3.52,2.43 6.17,1.91 8.83,1.38 11.79,1.20 14.74,1.03 17.77,0.95 20.81,0.86 23.86,0.80 26.91,0.74 29.97,0.69 33.03,0.64 37.13,0.56" fill="#345246" pointer-events="none"/><path d="M 35.10,-0.67 Q 35.10,-0.67 37.37,-0.80 39.65,-0.93 42.59,-1.05 45.54,-1.17 48.20,0.49 50.87,2.15 51.65,4.12 52.44,6.09 52.60,7.91 52.76,9.73 52.77,11.43 52.79,13.13 52.87,14.80 52.95,16.46 53.11,18.12 53.27,19.77 53.44,21.43 53.60,23.08 53.72,24.86 53.84,26.64 52.12,29.04 50.40,31.44 47.35,32.12 44.30,32.81 41.23,32.92 38.15,33.04 35.09,33.05 32.02,33.07 28.95,33.15 25.89,33.23 22.82,33.40 19.75,33.57 16.68,33.74 13.62,33.91 10.47,34.06 7.32,34.20 4.59,32.54 1.87,30.89 1.07,28.90 0.28,26.92 0.13,25.07 -0.02,23.22 -0.02,21.50 -0.03,19.78 -0.09,18.09 -0.16,16.40 -0.31,14.72 -0.47,13.04 -0.62,11.36 -0.77,9.68 -0.88,7.88 -0.99,6.09 0.73,3.68 2.45,1.28 5.50,0.61 8.55,-0.05 11.61,-0.14 14.67,-0.24 17.72,-0.23 20.78,-0.22 23.83,-0.28 26.89,-0.34 29.95,-0.49 33.00,-0.63 37.11,-0.80 41.21,-0.96 41.45,-0.93 41.68,-0.89 41.89,-0.78 42.10,-0.68 42.27,-0.51 42.43,-0.34 42.54,-0.13 42.64,0.08 42.67,0.31 42.70,0.55 42.65,0.78 42.61,1.01 42.49,1.22 42.37,1.42 42.19,1.58 42.01,1.74 41.79,1.83 41.58,1.92 41.34,1.94 41.10,1.95 40.87,1.89 40.64,1.83 40.45,1.70 40.25,1.57 40.10,1.39 39.95,1.20 39.88,0.98 39.80,0.76 39.79,0.52 39.79,0.28 39.86,0.06 39.93,-0.16 40.07,-0.35 40.21,-0.54 40.41,-0.68 40.60,-0.81 40.83,-0.88 41.05,-0.95 41.29,-0.94 41.53,-0.93 41.75,-0.85 41.97,-0.76 42.15,-0.61 42.34,-0.46 42.46,-0.26 42.59,-0.06 42.64,0.16 42.70,0.39 42.68,0.63 42.65,0.86 42.56,1.08 42.46,1.29 42.30,1.47 42.14,1.64 41.93,1.76 41.73,1.87 41.49,1.92 41.26,1.96 41.26,1.96 41.26,1.96 37.16,1.94 33.05,1.91 29.99,1.88 26.93,1.84 23.88,1.90 20.84,1.96 17.83,2.13 14.82,2.31 11.96,2.56 9.11,2.81 6.85,3.20 4.58,3.59 3.36,5.03 2.14,6.46 2.14,8.02 2.15,9.58 2.11,11.27 2.08,12.95 2.05,14.63 2.01,16.31 2.08,17.98 2.15,19.65 2.33,21.28 2.51,22.91 2.77,24.40 3.02,25.89 3.47,27.16 3.91,28.42 5.74,29.71 7.56,30.99 10.55,30.99 13.54,30.98 16.61,31.00 19.69,31.02 22.76,31.03 25.83,31.05 28.89,30.96 31.95,30.88 34.97,30.68 37.99,30.49 40.85,30.21 43.71,29.94 45.99,29.53 48.26,29.13 49.48,27.70 50.71,26.28 50.69,24.74 50.67,23.21 50.70,21.54 50.72,19.88 50.74,18.22 50.76,16.57 50.68,14.92 50.61,13.27 50.41,11.66 50.22,10.05 49.96,8.58 49.70,7.12 49.25,5.86 48.81,4.61 47.03,3.32 45.26,2.02 42.48,2.00 39.70,1.98 37.42,1.93 35.14,1.88 34.99,1.86 34.83,1.84 34.69,1.79 34.54,1.74 34.42,1.66 34.29,1.57 34.18,1.46 34.08,1.34 34.00,1.21 33.93,1.07 33.89,0.92 33.85,0.77 33.85,0.62 33.85,0.47 33.88,0.32 33.92,0.17 33.98,0.03 34.05,-0.10 34.15,-0.22 34.25,-0.33 34.38,-0.42 34.51,-0.51 34.65,-0.57 34.79,-0.63 34.94,-0.65 Z" fill="#36a64c" stroke="#36a64c" stroke-width="2" pointer-events="none"/></g><g id="bf377b43-4656-4ef3-1648-f273861d87ce_svg" class="tl-centered-g" transform="translate(1219.64, 430.33) rotate(0.00, 26.34, 16.56)"><path d="M 0.84,11.25 Q 0.84,11.25 0.80,10.01 0.76,8.78 0.71,7.24 0.67,5.69 2.14,3.81 3.62,1.92 6.26,1.44 8.90,0.96 11.83,0.83 14.76,0.71 17.77,0.67 20.78,0.64 23.81,0.63 26.84,0.62 29.87,0.61 32.91,0.61 35.94,0.61 38.98,0.60 42.01,0.60 45.05,0.60 47.31,2.09 49.57,3.58 50.17,5.17 50.77,6.76 50.94,8.38 51.11,10.00 51.17,11.63 51.23,13.26 51.27,14.89 51.30,16.52 51.33,18.15 51.36,19.78 51.38,21.41 51.41,23.04 51.43,24.66 51.46,26.29 49.97,28.20 48.49,30.11 45.87,30.61 43.25,31.12 40.34,31.26 37.43,31.41 34.45,31.47 31.46,31.53 28.46,31.56 25.46,31.60 22.45,31.62 19.44,31.65 16.44,31.68 13.43,31.71 10.42,31.73 7.41,31.76 5.15,30.28 2.90,28.79 2.28,27.18 1.67,25.57 1.47,23.93 1.28,22.29 1.19,20.64 1.10,18.99 1.04,17.34 0.98,15.68 0.93,14.03 0.87,12.38 0.80,10.16" fill="#345246" pointer-events="none"/><path d="M -0.43,11.28 Q -0.43,11.28 -0.56,10.06 -0.69,8.83 -0.79,7.16 -0.89,5.49 0.84,3.12 2.57,0.75 5.61,0.13 8.64,-0.47 11.67,-0.52 14.71,-0.56 17.74,-0.50 20.77,-0.44 23.80,-0.45 26.84,-0.46 29.87,-0.56 32.90,-0.66 35.94,-0.76 38.97,-0.85 42.08,-0.92 45.19,-1.00 47.90,0.67 50.60,2.35 51.37,4.31 52.14,6.26 52.26,8.07 52.38,9.87 52.35,11.54 52.32,13.22 52.36,14.86 52.39,16.49 52.51,18.12 52.63,19.75 52.75,21.38 52.87,23.01 52.95,24.75 53.03,26.50 51.29,28.88 49.55,31.27 46.54,31.91 43.53,32.55 40.51,32.62 37.50,32.69 34.49,32.66 31.48,32.62 28.48,32.66 25.47,32.69 22.46,32.81 19.46,32.93 16.45,33.05 13.44,33.17 10.35,33.27 7.27,33.36 4.57,31.69 1.87,30.02 1.08,28.05 0.30,26.08 0.15,24.26 0.01,22.44 0.01,20.74 0.01,19.05 -0.04,17.38 -0.10,15.72 -0.25,14.07 -0.39,12.42 -0.56,10.20 -0.72,7.98 -0.69,7.75 -0.66,7.51 -0.55,7.30 -0.45,7.09 -0.28,6.92 -0.11,6.75 0.09,6.65 0.30,6.54 0.53,6.51 0.77,6.47 1.00,6.52 1.23,6.56 1.44,6.68 1.65,6.79 1.81,6.97 1.97,7.14 2.06,7.36 2.15,7.58 2.18,7.82 2.20,8.05 2.14,8.28 2.08,8.51 1.96,8.71 1.83,8.91 1.65,9.06 1.46,9.21 1.24,9.29 1.02,9.38 0.78,9.38 0.54,9.39 0.32,9.32 0.09,9.25 -0.09,9.12 -0.29,8.98 -0.42,8.79 -0.56,8.59 -0.63,8.37 -0.70,8.14 -0.70,7.91 -0.69,7.67 -0.61,7.45 -0.53,7.22 -0.38,7.04 -0.24,6.85 -0.04,6.72 0.15,6.60 0.38,6.54 0.61,6.48 0.85,6.50 1.08,6.52 1.30,6.61 1.52,6.70 1.70,6.86 1.87,7.02 1.99,7.22 2.11,7.43 2.15,7.66 2.20,7.89 2.20,7.89 2.20,7.89 2.18,10.11 2.15,12.34 2.11,13.99 2.07,15.64 2.13,17.29 2.19,18.93 2.37,20.53 2.55,22.14 2.79,23.60 3.04,25.06 3.48,26.31 3.92,27.56 5.74,28.86 7.55,30.16 10.48,30.20 13.41,30.24 16.42,30.31 19.43,30.37 22.44,30.44 25.45,30.50 28.44,30.47 31.44,30.44 34.40,30.29 37.37,30.14 40.17,29.91 42.97,29.68 45.20,29.31 47.43,28.94 48.66,27.52 49.88,26.09 49.91,24.57 49.94,23.06 50.01,21.43 50.08,19.80 50.14,18.17 50.21,16.54 50.17,14.92 50.14,13.30 49.99,11.72 49.83,10.14 49.61,8.70 49.39,7.27 48.97,6.03 48.54,4.80 46.72,3.50 44.90,2.20 41.94,2.14 38.98,2.07 35.94,1.98 32.91,1.89 29.88,1.80 26.84,1.71 23.82,1.72 20.80,1.73 17.81,1.86 14.82,1.98 11.99,2.19 9.16,2.40 6.91,2.75 4.67,3.09 3.45,4.49 2.23,5.89 2.23,7.31 2.23,8.74 2.17,9.97 2.12,11.21 2.10,11.36 2.09,11.51 2.04,11.66 1.99,11.80 1.90,11.93 1.82,12.06 1.71,12.17 1.60,12.27 1.46,12.35 1.33,12.43 1.18,12.47 1.03,12.51 0.88,12.51 0.72,12.52 0.57,12.49 0.42,12.45 0.28,12.39 0.14,12.32 0.03,12.22 -0.08,12.12 -0.17,12.00 -0.27,11.87 -0.32,11.73 -0.38,11.59 -0.41,11.44 Z" fill="#36a64c" stroke="#36a64c" stroke-width="2" pointer-events="none"/></g><g id="6feae34e-4ff6-4e56-2100-c7d5a107b76c_svg" class="tl-centered-g" transform="translate(1286.76, 430.42) rotate(0.00, 26.34, 16.56)"><path d="M 51.12,21.65 Q 51.12,21.65 51.13,22.93 51.14,24.21 51.16,25.82 51.17,27.44 49.69,29.34 48.20,31.24 45.60,31.67 42.99,32.11 40.11,32.17 37.22,32.24 34.25,32.20 31.29,32.17 28.31,32.12 25.33,32.06 22.35,32.00 19.36,31.93 16.38,31.87 13.39,31.81 10.40,31.74 7.42,31.68 5.17,30.17 2.91,28.66 2.34,27.08 1.76,25.49 1.61,23.88 1.46,22.27 1.43,20.66 1.39,19.04 1.37,17.43 1.36,15.81 1.36,14.20 1.35,12.58 1.35,10.97 1.35,9.35 1.34,7.74 1.34,6.12 2.83,4.22 4.32,2.32 6.91,1.80 9.51,1.28 12.38,1.12 15.26,0.95 18.20,0.88 21.15,0.81 24.12,0.76 27.08,0.71 30.05,0.66 33.02,0.62 35.99,0.57 38.96,0.53 41.93,0.49 44.91,0.44 47.15,1.92 49.40,3.40 49.99,5.06 50.57,6.72 50.74,8.43 50.90,10.14 50.95,11.86 51.01,13.58 51.03,15.30 51.06,17.02 51.08,18.74 51.10,20.47 51.13,22.78" fill="#345246" pointer-events="none"/><path d="M 52.39,21.63 Q 52.39,21.63 52.50,22.92 52.61,24.20 52.68,25.92 52.75,27.64 50.99,30.03 49.23,32.41 46.23,32.98 43.23,33.55 40.24,33.53 37.24,33.51 34.26,33.39 31.28,33.26 28.30,33.21 25.31,33.15 22.32,33.18 19.34,33.21 16.35,33.24 13.36,33.27 10.30,33.28 7.24,33.28 4.56,31.58 1.87,29.88 1.13,27.93 0.38,25.98 0.29,24.18 0.19,22.39 0.24,20.73 0.29,19.07 0.28,17.45 0.27,15.82 0.17,14.20 0.07,12.59 -0.01,10.97 -0.11,9.35 -0.16,7.63 -0.22,5.91 1.51,3.53 3.26,1.15 6.24,0.50 9.22,-0.14 12.20,-0.23 15.19,-0.31 18.15,-0.29 21.12,-0.28 24.09,-0.33 27.06,-0.38 30.03,-0.51 33.00,-0.65 35.97,-0.79 38.94,-0.93 41.99,-1.04 45.04,-1.15 47.74,0.52 50.44,2.19 51.20,4.22 51.96,6.25 52.06,8.13 52.17,10.02 52.14,11.78 52.10,13.54 52.13,15.27 52.15,17.00 52.27,18.73 52.38,20.45 52.50,22.76 52.61,25.08 52.58,25.31 52.54,25.54 52.43,25.76 52.33,25.97 52.16,26.13 51.98,26.30 51.77,26.40 51.56,26.50 51.32,26.53 51.09,26.55 50.85,26.51 50.62,26.46 50.42,26.34 50.21,26.22 50.06,26.04 49.90,25.86 49.81,25.64 49.72,25.42 49.71,25.19 49.69,24.95 49.75,24.72 49.82,24.49 49.95,24.29 50.08,24.10 50.26,23.95 50.45,23.81 50.67,23.73 50.90,23.65 51.14,23.65 51.37,23.64 51.60,23.72 51.82,23.79 52.01,23.93 52.20,24.07 52.34,24.27 52.47,24.46 52.54,24.69 52.60,24.92 52.59,25.16 52.58,25.39 52.50,25.61 52.41,25.83 52.26,26.02 52.11,26.20 51.91,26.32 51.71,26.45 51.48,26.50 51.24,26.55 51.01,26.53 50.77,26.51 50.56,26.41 50.34,26.31 50.17,26.15 49.99,25.99 49.88,25.78 49.77,25.57 49.73,25.34 49.69,25.11 49.69,25.11 49.69,25.11 49.75,22.79 49.82,20.48 49.90,18.76 49.97,17.04 49.94,15.32 49.92,13.61 49.77,11.93 49.63,10.26 49.41,8.73 49.19,7.20 48.78,5.90 48.36,4.61 46.57,3.33 44.77,2.05 41.88,2.02 38.98,1.99 36.01,1.94 33.04,1.89 30.07,1.85 27.10,1.80 24.14,1.85 21.18,1.90 18.25,2.07 15.33,2.23 12.56,2.48 9.79,2.72 7.59,3.10 5.38,3.48 4.15,4.91 2.92,6.34 2.86,7.84 2.81,9.35 2.72,10.96 2.63,12.58 2.54,14.19 2.46,15.81 2.47,17.41 2.48,19.02 2.61,20.59 2.74,22.15 2.94,23.58 3.14,25.00 3.55,26.23 3.95,27.45 5.77,28.76 7.59,30.07 10.51,30.21 13.42,30.34 16.41,30.50 19.39,30.66 22.37,30.81 25.35,30.97 28.33,31.02 31.30,31.08 34.25,31.02 37.19,30.96 39.97,30.81 42.75,30.67 44.96,30.36 47.17,30.06 48.39,28.64 49.60,27.23 49.64,25.73 49.68,24.23 49.76,22.94 49.84,21.66 49.85,21.51 49.87,21.35 49.92,21.21 49.98,21.06 50.06,20.94 50.15,20.81 50.26,20.70 50.38,20.60 50.51,20.53 50.65,20.45 50.80,20.42 50.95,20.38 51.10,20.38 51.26,20.37 51.41,20.41 51.56,20.45 51.69,20.52 51.83,20.59 51.95,20.69 52.06,20.79 52.15,20.91 52.24,21.04 52.30,21.18 52.35,21.33 52.37,21.48 Z" fill="#36a64c" stroke="#36a64c" stroke-width="2" pointer-events="none"/></g><g id="0ddb23ff-e0fa-4608-0adc-7daac286c20b_svg" class="tl-centered-g" transform="translate(888.91, 236.02) rotate(0.00, 235.06, 38.34)"><g pointer-events="none" stroke="#ebbb38" stroke-width="4.23" stroke-linecap="round"><line x1="2.11" y1="2.11" x2="468.01" y2="2.11" stroke-dasharray="0.03 6.52" stroke-dashoffset="0"/><line x1="468.01" y1="2.11" x2="468.01" y2="74.56" stroke-dasharray="0.03 6.55" stroke-dashoffset="0"/><line x1="468.01" y1="74.56" x2="2.11" y2="74.56" stroke-dasharray="0.03 6.52" stroke-dashoffset="0"/><line x1="2.11" y1="74.56" x2="2.11" y2="2.11" stroke-dasharray="0.03 6.55" stroke-dashoffset="0"/></g></g><g id="e46872a3-de06-401c-1595-265db49dd3f6_svg" class="tl-centered-g" transform="translate(889.63, 322.68) rotate(0.00, 235.06, 38.34)"><g pointer-events="none" stroke="#ebbb38" stroke-width="4.23" stroke-linecap="round"><line x1="2.11" y1="2.11" x2="468.01" y2="2.11" stroke-dasharray="0.03 6.52" stroke-dashoffset="0"/><line x1="468.01" y1="2.11" x2="468.01" y2="74.56" stroke-dasharray="0.03 6.55" stroke-dashoffset="0"/><line x1="468.01" y1="74.56" x2="2.11" y2="74.56" stroke-dasharray="0.03 6.52" stroke-dashoffset="0"/><line x1="2.11" y1="74.56" x2="2.11" y2="2.11" stroke-dasharray="0.03 6.55" stroke-dashoffset="0"/></g></g><g id="fcbc9f4d-c174-4851-025c-68720916d2d0_svg" class="tl-centered-g" transform="translate(890.09, 410.72) rotate(0.00, 235.06, 38.34)"><g pointer-events="none" stroke="#ebbb38" stroke-width="4.23" stroke-linecap="round"><line x1="2.11" y1="2.11" x2="468.01" y2="2.11" stroke-dasharray="0.03 6.52" stroke-dashoffset="0"/><line x1="468.01" y1="2.11" x2="468.01" y2="74.56" stroke-dasharray="0.03 6.55" stroke-dashoffset="0"/><line x1="468.01" y1="74.56" x2="2.11" y2="74.56" stroke-dasharray="0.03 6.52" stroke-dashoffset="0"/><line x1="2.11" y1="74.56" x2="2.11" y2="2.11" stroke-dasharray="0.03 6.55" stroke-dashoffset="0"/></g></g><g text-align="left" text-anchor="start" fill="#ebbb38" transform="translate(119.62, 499.50) rotate(0.00, 52.00, 64.50)"><text y="14" letter-spacing="-0.84" font-size="28px" font-family="Caveat Brush" text-align="left" alignment-baseline="central" transform="scale(4.263872832369943)">JS</text></g><g text-align="left" text-anchor="start" fill="#ebbb38" transform="translate(290.05, 574.78) rotate(359.45, 122.00, 32.00)"><text y="14" letter-spacing="-0.84" font-size="28px" font-family="Caveat Brush" text-align="left" alignment-baseline="central" transform="scale(1.9300839762381332)">Manifest File</text></g><g id="3f426f57-6e72-4a5e-3c21-0f5e7369e7f2_svg" class="tl-centered-g" transform="translate(864.73, 208.74) rotate(0.00, 263.49, 151.96)"><path d="M 88.54,-0.94 Q 88.54,-0.94 94.75,-0.90 100.97,-0.86 108.77,-0.82 116.57,-0.78 124.77,-0.74 132.97,-0.69 141.28,-0.65 149.59,-0.61 157.92,-0.56 166.25,-0.52 174.59,-0.48 182.93,-0.43 191.27,-0.39 199.61,-0.35 207.95,-0.30 216.30,-0.26 224.64,-0.22 232.98,-0.17 241.32,-0.13 249.66,-0.09 258.00,-0.07 266.35,-0.04 274.69,-0.04 283.03,-0.04 291.37,-0.04 299.71,-0.04 308.06,-0.04 316.40,-0.04 324.74,-0.04 333.08,-0.03 341.42,-0.03 349.77,-0.03 358.11,-0.03 366.45,-0.03 374.79,-0.03 383.13,-0.03 391.47,-0.03 399.82,-0.02 408.16,-0.02 416.50,-0.02 424.84,-0.02 433.18,-0.02 441.53,-0.02 449.87,-0.02 458.21,-0.02 466.55,-0.01 474.89,-0.01 483.24,-0.01 491.58,-0.01 499.92,-0.01 508.28,-0.00 516.65,-0.00 520.81,1.87 524.96,3.75 526.10,10.89 527.23,18.03 527.43,26.28 527.62,34.52 527.64,43.05 527.66,51.57 527.63,60.17 527.60,68.77 527.56,77.39 527.52,86.01 527.48,94.64 527.43,103.26 527.39,111.89 527.35,120.51 527.30,129.14 527.26,137.77 527.25,146.39 527.25,155.02 527.28,163.65 527.31,172.27 527.34,180.90 527.38,189.53 527.41,198.15 527.44,206.78 527.47,215.41 527.50,224.03 527.54,232.66 527.57,241.29 527.60,249.91 527.63,258.54 527.67,267.17 527.70,275.79 527.73,284.44 527.76,293.09 525.88,297.32 524.01,301.55 517.09,302.72 510.17,303.88 502.20,304.10 494.22,304.32 485.98,304.35 477.74,304.38 469.42,304.37 461.11,304.35 452.78,304.33 444.45,304.30 436.12,304.27 427.79,304.24 419.45,304.21 411.12,304.18 402.78,304.15 394.45,304.12 386.11,304.09 377.78,304.06 369.44,304.03 361.10,304.00 352.77,303.97 344.43,303.94 336.10,303.91 327.76,303.88 319.43,303.85 311.09,303.82 302.76,303.79 294.42,303.76 286.08,303.73 277.75,303.70 269.41,303.69 261.08,303.68 252.74,303.69 244.41,303.70 236.07,303.72 227.74,303.73 219.40,303.74 211.07,303.75 202.73,303.76 194.39,303.77 186.06,303.79 177.72,303.80 169.39,303.81 161.05,303.82 152.72,303.83 144.38,303.84 136.05,303.86 127.71,303.87 119.37,303.88 111.04,303.89 102.70,303.90 94.37,303.91 86.03,303.93 77.70,303.94 69.36,303.95 61.03,303.96 52.69,303.97 44.35,303.98 36.02,304.00 27.68,304.01 19.32,304.01 10.96,304.02 6.81,302.15 2.65,300.27 1.51,293.12 0.37,285.96 0.16,277.69 -0.04,269.42 -0.06,260.87 -0.09,252.33 -0.07,243.70 -0.06,235.08 -0.03,226.43 -0.00,217.79 0.02,209.14 0.05,200.49 0.09,191.85 0.12,183.20 0.15,174.55 0.18,165.90 0.18,157.25 0.17,148.60 0.13,139.95 0.08,131.30 0.04,122.65 0.00,114.00 -0.04,105.35 -0.08,96.70 -0.13,88.05 -0.17,79.39 -0.21,70.74 -0.26,62.09 -0.30,53.44 -0.34,44.79 -0.39,36.14 -0.43,27.49 -0.47,18.82 -0.51,10.15 1.35,5.91 3.22,1.68 10.14,0.52 17.06,-0.63 25.05,-0.84 33.03,-1.04 41.28,-1.06 49.53,-1.08 57.84,-1.05 66.16,-1.03 74.50,-0.99 82.83,-0.95 91.17,-0.91 99.51,-0.86 107.85,-0.82 116.20,-0.78 124.54,-0.74 132.88,-0.69 141.22,-0.65 149.56,-0.61 157.90,-0.56 166.25,-0.52 174.59,-0.48 182.93,-0.43 191.27,-0.39 199.61,-0.35 207.95,-0.30 216.30,-0.26 224.64,-0.22 232.98,-0.17 241.32,-0.13 249.66,-0.09 258.00,-0.07 266.35,-0.04 274.69,-0.04 283.03,-0.04 294.23,-0.03 305.42,-0.02 305.60,0.00 305.78,0.02 305.93,0.11 306.09,0.19 306.22,0.32 306.34,0.45 306.41,0.62 306.49,0.78 306.51,0.96 306.52,1.13 306.49,1.31 306.45,1.48 306.35,1.64 306.26,1.79 306.13,1.90 305.99,2.02 305.82,2.08 305.66,2.15 305.48,2.16 305.30,2.17 305.13,2.12 304.96,2.07 304.81,1.97 304.66,1.87 304.55,1.73 304.44,1.59 304.39,1.42 304.33,1.25 304.33,1.07 304.33,0.89 304.39,0.72 304.45,0.55 304.56,0.41 304.66,0.27 304.81,0.17 304.96,0.07 305.13,0.02 305.31,-0.02 305.48,-0.01 305.66,-0.00 305.83,0.06 305.99,0.13 306.13,0.24 306.27,0.36 306.36,0.51 306.45,0.66 306.49,0.84 306.53,1.01 306.51,1.19 306.49,1.37 306.41,1.53 306.33,1.69 306.21,1.82 306.09,1.95 305.93,2.04 305.77,2.12 305.59,2.15 305.42,2.18 305.42,2.18 305.42,2.18 294.22,2.12 283.02,2.07 274.68,2.03 266.34,1.99 258.00,1.97 249.66,1.94 241.32,1.94 232.97,1.94 224.63,1.94 216.29,1.94 207.95,1.94 199.61,1.94 191.26,1.93 182.92,1.93 174.58,1.93 166.24,1.93 157.90,1.93 149.56,1.93 141.21,1.93 132.87,1.93 124.53,1.93 116.19,1.92 107.85,1.92 99.51,1.92 91.17,1.92 82.83,1.92 74.49,1.92 66.16,1.93 57.85,1.94 49.54,1.96 41.33,2.02 33.12,2.08 25.31,2.31 17.51,2.54 11.24,3.24 4.98,3.93 3.87,7.08 2.76,10.24 2.73,18.86 2.70,27.49 2.67,36.14 2.64,44.79 2.61,53.44 2.57,62.09 2.54,70.74 2.51,79.39 2.48,88.04 2.44,96.69 2.41,105.34 2.38,113.99 2.35,122.64 2.31,131.29 2.28,139.94 2.25,148.59 2.25,157.24 2.26,165.89 2.30,174.54 2.35,183.19 2.39,191.84 2.44,200.49 2.48,209.14 2.53,217.79 2.57,226.43 2.62,235.07 2.68,243.69 2.74,252.30 2.84,260.82 2.95,269.33 3.22,277.43 3.49,285.54 4.20,292.03 4.91,298.52 7.99,299.63 11.06,300.74 19.37,300.77 27.69,300.79 36.02,300.82 44.36,300.85 52.69,300.88 61.03,300.91 69.36,300.94 77.70,300.97 86.04,301.00 94.37,301.03 102.71,301.06 111.04,301.09 119.38,301.12 127.71,301.15 136.05,301.18 144.38,301.21 152.72,301.25 161.05,301.28 169.39,301.31 177.73,301.34 186.06,301.37 194.40,301.40 202.73,301.43 211.07,301.46 219.40,301.49 227.74,301.52 236.07,301.55 244.41,301.58 252.75,301.61 261.08,301.64 269.42,301.65 277.75,301.66 286.09,301.64 294.42,301.63 302.76,301.62 311.09,301.61 319.43,301.60 327.76,301.59 336.10,301.57 344.44,301.56 352.77,301.55 361.11,301.54 369.44,301.53 377.78,301.52 386.11,301.50 394.45,301.49 402.78,301.48 411.12,301.47 419.45,301.46 427.79,301.45 436.12,301.43 444.46,301.42 452.78,301.40 461.11,301.39 469.41,301.36 477.72,301.33 485.92,301.26 494.12,301.19 501.92,300.94 509.73,300.70 515.99,300.00 522.25,299.30 523.36,296.15 524.47,293.00 524.51,284.39 524.55,275.79 524.60,267.16 524.64,258.54 524.68,249.91 524.73,241.28 524.77,232.66 524.82,224.03 524.86,215.40 524.90,206.78 524.95,198.15 524.99,189.52 525.04,180.90 525.08,172.27 525.13,163.65 525.17,155.02 525.18,146.39 525.18,137.77 525.15,129.14 525.12,120.51 525.08,111.89 525.05,103.26 525.02,94.64 524.98,86.01 524.95,77.39 524.91,68.78 524.86,60.18 524.82,51.59 524.72,43.10 524.63,34.61 524.37,26.53 524.11,18.45 523.41,11.97 522.70,5.50 519.62,4.39 516.55,3.27 508.23,3.23 499.91,3.20 491.57,3.15 483.23,3.11 474.89,3.07 466.54,3.02 458.20,2.98 449.86,2.94 441.52,2.89 433.18,2.85 424.83,2.81 416.49,2.76 408.15,2.72 399.81,2.68 391.47,2.64 383.13,2.59 374.78,2.55 366.44,2.51 358.10,2.46 349.76,2.42 341.42,2.38 333.08,2.33 324.73,2.29 316.39,2.25 308.05,2.20 299.71,2.16 291.37,2.12 283.02,2.07 274.68,2.03 266.34,1.99 258.00,1.97 249.66,1.94 241.32,1.94 232.97,1.94 224.63,1.94 216.29,1.94 207.95,1.94 199.61,1.94 191.27,1.93 182.92,1.93 174.58,1.93 166.24,1.93 157.91,1.93 149.58,1.93 141.27,1.93 132.97,1.93 124.76,1.93 116.56,1.92 108.76,1.92 100.96,1.93 94.75,1.93 88.53,1.93 88.36,1.91 88.19,1.89 88.02,1.83 87.86,1.77 87.72,1.67 87.58,1.57 87.46,1.44 87.35,1.31 87.27,1.15 87.19,1.00 87.15,0.83 87.10,0.66 87.10,0.49 87.11,0.32 87.15,0.15 87.19,-0.01 87.27,-0.16 87.35,-0.32 87.47,-0.45 87.58,-0.58 87.73,-0.68 87.87,-0.77 88.03,-0.83 88.19,-0.90 88.37,-0.92 Z" fill="#ebbb38" stroke="#ebbb38" stroke-width="2" pointer-events="none"/></g><g text-align="left" text-anchor="start" fill="#cecece" transform="translate(630.67, 126.08) rotate(0.00, 29.50, 17.50)"><text y="14" letter-spacing="-0.84" font-size="28px" font-family="Caveat Brush" text-align="left" alignment-baseline="central" transform="scale(0.8818427620532716)">server</text></g><g text-align="left" text-anchor="start" fill="#ebbb38" transform="translate(628.36, 90.63) rotate(0.00, 122.00, 25.50)"><text y="14" letter-spacing="-0.84" font-size="28px" font-family="Caveat Brush" text-align="left" alignment-baseline="central" transform="scale(1.4639668915507422)">Remix Framework</text></g></svg>