<svg xmlns="http://www.w3.org/2000/svg" viewBox="0 0 1504 688" width="1472" height="656" style="background-color: transparent;"><defs><style>@import url('https://fonts.googleapis.com/css2?family=Caveat+Brush&amp;family=Source+Code+Pro&amp;family=Source+Sans+Pro&amp;family=Crimson+Pro&amp;display=block');</style></defs><g id="c286159d-3cd8-4d6d-2ca8-8004c36d8abf_svg" class="tl-centered-g" transform="translate(16.00, 16.00) rotate(0.00, 736.00, 328.00)"><g pointer-events="none" stroke="transparent" stroke-width="4.23" stroke-linecap="round"><line x1="2.11" y1="2.11" x2="1469.88" y2="2.11" stroke-dasharray="0.03 6.46" stroke-dashoffset="0"/><line x1="1469.88" y1="2.11" x2="1469.88" y2="653.88" stroke-dasharray="0.03 6.48" stroke-dashoffset="0"/><line x1="1469.88" y1="653.88" x2="2.11" y2="653.88" stroke-dasharray="0.03 6.46" stroke-dashoffset="0"/><line x1="2.11" y1="653.88" x2="2.11" y2="2.11" stroke-dasharray="0.03 6.48" stroke-dashoffset="0"/></g></g><g id="f52a5e6c-4c6b-42ab-27ac-01a9ccb145db_svg" class="tl-centered-g" transform="translate(543.18, 122.95) rotate(0.00, 24.68, 235.26)"><g opacity="1"><path d="M 22.26,0.21 Q 22.26,0.21 21.15,0.48 20.04,0.75 18.93,1.31 17.81,1.88 16.66,2.70 15.50,3.51 14.24,4.50 12.97,5.50 11.78,6.54 10.58,7.59 9.58,8.56 8.58,9.53 7.67,10.50 6.76,11.48 5.95,12.44 5.13,13.40 4.49,14.26 3.85,15.13 3.40,15.93 2.95,16.73 2.66,17.57 2.37,18.41 2.21,19.37 2.04,20.32 1.95,21.02 1.86,21.72 1.88,22.51 1.91,23.29 2.13,24.08 2.35,24.87 2.81,25.68 3.27,26.49 3.92,27.38 4.57,28.26 5.38,29.20 6.19,30.14 7.12,31.11 8.06,32.08 9.05,33.01 10.04,33.94 11.22,34.88 12.39,35.81 13.71,36.72 15.03,37.62 16.27,38.42 17.51,39.22 18.61,39.89 19.71,40.55 20.73,41.13 21.74,41.72 22.70,42.30 23.66,42.88 24.56,43.46 25.46,44.05 26.30,44.62 27.15,45.20 27.93,45.78 28.70,46.35 29.40,46.94 30.09,47.53 30.70,48.17 31.31,48.80 31.82,49.46 32.32,50.13 32.72,50.81 33.12,51.49 33.44,52.24 33.76,53.00 34.00,53.90 34.23,54.80 34.37,55.82 34.51,56.83 34.58,57.85 34.66,58.87 34.58,59.88 34.50,60.89 34.06,62.00 33.62,63.11 32.81,64.36 32.00,65.60 30.99,66.88 29.99,68.16 28.81,69.54 27.63,70.92 25.97,72.70 24.31,74.48 23.12,75.77 21.93,77.07 20.75,78.35 19.57,79.63 18.61,80.72 17.64,81.81 16.84,82.77 16.04,83.74 15.29,84.73 14.54,85.73 13.91,86.72 13.27,87.71 12.74,88.66 12.21,89.60 11.81,90.46 11.42,91.33 11.16,92.19 10.91,93.05 10.76,93.89 10.62,94.73 10.55,95.57 10.47,96.41 10.48,97.25 10.49,98.09 10.70,98.85 10.92,99.60 11.43,100.28 11.94,100.96 12.78,101.65 13.62,102.34 14.76,103.04 15.90,103.75 17.23,104.45 18.55,105.14 20.03,105.86 21.50,106.59 23.08,107.32 24.66,108.05 26.12,108.69 27.57,109.34 28.82,109.89 30.06,110.43 31.23,110.98 32.40,111.53 33.50,112.11 34.60,112.69 35.56,113.24 36.51,113.78 37.27,114.31 38.03,114.84 38.60,115.45 39.17,116.05 39.58,116.73 39.98,117.41 40.23,118.14 40.47,118.88 40.61,119.70 40.74,120.53 40.63,121.46 40.51,122.38 39.95,123.49 39.38,124.60 38.32,125.91 37.25,127.23 35.21,129.19 33.18,131.16 31.62,132.58 30.07,133.99 27.85,135.84 25.63,137.68 23.95,139.05 22.28,140.42 20.71,141.67 19.15,142.92 17.58,144.18 16.00,145.44 14.35,146.81 12.70,148.18 11.43,149.33 10.16,150.48 8.96,151.62 7.76,152.76 6.61,153.93 5.46,155.10 4.65,156.13 3.84,157.16 3.21,158.16 2.59,159.17 2.11,160.13 1.63,161.10 1.29,162.04 0.94,162.98 0.73,163.86 0.52,164.74 0.40,165.52 0.28,166.29 0.22,167.04 0.16,167.79 0.18,168.56 0.20,169.34 0.43,170.06 0.65,170.79 1.15,171.45 1.65,172.12 2.43,172.80 3.22,173.48 4.24,174.23 5.26,174.99 6.45,175.78 7.65,176.58 8.99,177.42 10.34,178.26 11.82,179.20 13.30,180.14 14.81,181.21 16.33,182.27 17.77,183.43 19.22,184.59 20.62,185.95 22.03,187.31 23.31,188.83 24.59,190.34 25.61,191.87 26.64,193.40 27.42,194.95 28.20,196.50 28.77,198.09 29.33,199.69 29.80,201.94 30.27,204.19 30.53,205.83 30.79,207.48 30.94,209.27 31.08,211.05 31.03,212.92 30.97,214.78 30.63,216.61 30.28,218.45 29.68,220.30 29.07,222.14 28.33,223.92 27.58,225.70 26.90,227.16 26.22,228.62 25.49,229.93 24.77,231.24 24.01,232.54 23.25,233.84 22.63,234.93 22.00,236.02 21.52,236.89 21.03,237.77 20.69,238.48 20.35,239.18 20.14,239.78 19.93,240.37 19.82,240.87 19.71,241.36 19.76,241.81 19.81,242.26 20.25,242.73 20.70,243.21 21.58,243.73 22.47,244.24 23.74,244.80 25.02,245.36 26.65,245.95 28.29,246.55 29.98,247.12 31.68,247.70 33.24,248.23 34.80,248.75 36.27,249.28 37.74,249.81 39.14,250.35 40.54,250.89 41.81,251.45 43.08,252.01 44.10,252.57 45.13,253.13 45.91,253.62 46.69,254.11 47.25,254.48 47.81,254.85 48.15,255.08 48.50,255.31 48.69,255.47 48.89,255.63 48.97,255.84 49.06,256.06 48.99,256.53 48.93,257.01 48.64,257.82 48.35,258.63 47.86,259.72 47.36,260.81 46.65,262.09 45.95,263.37 45.07,264.79 44.19,266.21 43.18,267.79 42.17,269.37 40.96,271.13 39.75,272.89 38.41,274.73 37.08,276.57 35.76,278.32 34.45,280.06 33.18,281.66 31.90,283.27 30.69,284.78 29.48,286.29 28.62,287.36 27.75,288.43 26.78,289.63 25.80,290.83 25.16,291.66 24.52,292.50 24.03,293.26 23.54,294.02 23.20,294.69 22.87,295.37 22.65,295.99 22.43,296.62 22.31,297.22 22.19,297.82 22.13,298.41 22.06,299.00 22.19,299.55 22.33,300.10 22.75,300.68 23.16,301.25 23.72,301.88 24.29,302.50 24.99,303.14 25.69,303.79 26.43,304.42 27.17,305.05 27.82,305.68 28.48,306.31 29.08,306.97 29.68,307.62 30.20,308.32 30.73,309.01 31.17,309.81 31.61,310.61 31.93,311.54 32.24,312.48 32.43,313.57 32.62,314.66 32.53,316.08 32.44,317.50 31.79,319.34 31.15,321.19 29.88,323.41 28.62,325.62 26.83,328.12 25.04,330.63 23.08,333.11 21.12,335.59 19.18,337.93 17.23,340.26 15.44,342.40 13.65,344.54 12.09,346.43 10.53,348.31 9.16,349.96 7.79,351.60 6.67,352.97 5.55,354.35 4.70,355.50 3.86,356.65 3.32,357.68 2.78,358.71 2.47,359.65 2.17,360.59 2.19,361.44 2.22,362.30 2.73,363.02 3.24,363.74 4.30,364.51 5.36,365.28 6.69,365.96 8.03,366.65 9.72,367.35 11.40,368.06 13.28,368.84 15.16,369.61 16.94,370.34 18.73,371.07 20.33,371.77 21.93,372.46 23.43,373.13 24.93,373.80 26.34,374.51 27.74,375.22 28.98,376.02 30.21,376.83 31.10,377.66 31.99,378.50 32.52,379.41 33.06,380.32 33.33,381.39 33.61,382.47 33.60,383.77 33.60,385.07 33.19,386.62 32.78,388.16 32.07,389.76 31.36,391.36 30.58,392.83 29.81,394.30 29.01,395.72 28.21,397.13 27.41,398.54 26.61,399.95 25.91,401.27 25.22,402.59 24.66,403.87 24.10,405.15 23.68,406.43 23.27,407.71 23.01,408.90 22.76,410.09 22.67,411.17 22.59,412.25 22.77,413.24 22.96,414.23 23.48,415.18 24.00,416.13 24.77,417.03 25.54,417.93 26.40,418.70 27.26,419.48 28.09,420.13 28.93,420.78 29.70,421.34 30.48,421.91 31.23,422.48 31.99,423.05 32.66,423.76 33.33,424.48 33.74,425.05 34.14,425.62 34.40,426.28 34.66,426.94 34.80,427.75 34.94,428.56 34.85,429.62 34.77,430.69 34.34,431.91 33.91,433.13 33.35,434.32 32.79,435.51 32.20,436.69 31.60,437.86 30.92,439.13 30.23,440.40 29.54,441.67 28.86,442.94 28.31,444.07 27.75,445.20 27.33,446.19 26.91,447.19 26.64,448.19 26.36,449.19 26.21,450.25 26.05,451.32 25.97,452.39 25.88,453.47 25.84,454.55 25.79,455.63 25.76,456.72 25.74,457.80 25.75,458.87 25.75,459.94 25.82,461.03 25.89,462.11 26.00,463.16 26.12,464.21 26.25,465.13 26.38,466.05 26.52,466.80 26.65,467.56 26.77,468.15 26.88,468.74 27.04,469.63 27.21,470.53 27.21,470.53" fill="none" stroke="none" stroke-width="4" stroke-linejoin="round" stroke-linecap="round" pointer-events="none"/><path d="M 22.26,0.21 Q 22.26,0.21 21.15,0.48 20.04,0.75 18.93,1.31 17.81,1.88 16.66,2.70 15.50,3.51 14.24,4.50 12.97,5.50 11.78,6.54 10.58,7.59 9.58,8.56 8.58,9.53 7.67,10.50 6.76,11.48 5.95,12.44 5.13,13.40 4.49,14.26 3.85,15.13 3.40,15.93 2.95,16.73 2.66,17.57 2.37,18.41 2.21,19.37 2.04,20.32 1.95,21.02 1.86,21.72 1.88,22.51 1.91,23.29 2.13,24.08 2.35,24.87 2.81,25.68 3.27,26.49 3.92,27.38 4.57,28.26 5.38,29.20 6.19,30.14 7.12,31.11 8.06,32.08 9.05,33.01 10.04,33.94 11.22,34.88 12.39,35.81 13.71,36.72 15.03,37.62 16.27,38.42 17.51,39.22 18.61,39.89 19.71,40.55 20.73,41.13 21.74,41.72 22.70,42.30 23.66,42.88 24.56,43.46 25.46,44.05 26.30,44.62 27.15,45.20 27.93,45.78 28.70,46.35 29.40,46.94 30.09,47.53 30.70,48.17 31.31,48.80 31.82,49.46 32.32,50.13 32.72,50.81 33.12,51.49 33.44,52.24 33.76,53.00 34.00,53.90 34.23,54.80 34.37,55.82 34.51,56.83 34.58,57.85 34.66,58.87 34.58,59.88 34.50,60.89 34.06,62.00 33.62,63.11 32.81,64.36 32.00,65.60 30.99,66.88 29.99,68.16 28.81,69.54 27.63,70.92 25.97,72.70 24.31,74.48 23.12,75.77 21.93,77.07 20.75,78.35 19.57,79.63 18.61,80.72 17.64,81.81 16.84,82.77 16.04,83.74 15.29,84.73 14.54,85.73 13.91,86.72 13.27,87.71 12.74,88.66 12.21,89.60 11.81,90.46 11.42,91.33 11.16,92.19 10.91,93.05 10.76,93.89 10.62,94.73 10.55,95.57 10.47,96.41 10.48,97.25 10.49,98.09 10.70,98.85 10.92,99.60 11.43,100.28 11.94,100.96 12.78,101.65 13.62,102.34 14.76,103.04 15.90,103.75 17.23,104.45 18.55,105.14 20.03,105.86 21.50,106.59 23.08,107.32 24.66,108.05 26.12,108.69 27.57,109.34 28.82,109.89 30.06,110.43 31.23,110.98 32.40,111.53 33.50,112.11 34.60,112.69 35.56,113.24 36.51,113.78 37.27,114.31 38.03,114.84 38.60,115.45 39.17,116.05 39.58,116.73 39.98,117.41 40.23,118.14 40.47,118.88 40.61,119.70 40.74,120.53 40.63,121.46 40.51,122.38 39.95,123.49 39.38,124.60 38.32,125.91 37.25,127.23 35.21,129.19 33.18,131.16 31.62,132.58 30.07,133.99 27.85,135.84 25.63,137.68 23.95,139.05 22.28,140.42 20.71,141.67 19.15,142.92 17.58,144.18 16.00,145.44 14.35,146.81 12.70,148.18 11.43,149.33 10.16,150.48 8.96,151.62 7.76,152.76 6.61,153.93 5.46,155.10 4.65,156.13 3.84,157.16 3.21,158.16 2.59,159.17 2.11,160.13 1.63,161.10 1.29,162.04 0.94,162.98 0.73,163.86 0.52,164.74 0.40,165.52 0.28,166.29 0.22,167.04 0.16,167.79 0.18,168.56 0.20,169.34 0.43,170.06 0.65,170.79 1.15,171.45 1.65,172.12 2.43,172.80 3.22,173.48 4.24,174.23 5.26,174.99 6.45,175.78 7.65,176.58 8.99,177.42 10.34,178.26 11.82,179.20 13.30,180.14 14.81,181.21 16.33,182.27 17.77,183.43 19.22,184.59 20.62,185.95 22.03,187.31 23.31,188.83 24.59,190.34 25.61,191.87 26.64,193.40 27.42,194.95 28.20,196.50 28.77,198.09 29.33,199.69 29.80,201.94 30.27,204.19 30.53,205.83 30.79,207.48 30.94,209.27 31.08,211.05 31.03,212.92 30.97,214.78 30.63,216.61 30.28,218.45 29.68,220.30 29.07,222.14 28.33,223.92 27.58,225.70 26.90,227.16 26.22,228.62 25.49,229.93 24.77,231.24 24.01,232.54 23.25,233.84 22.63,234.93 22.00,236.02 21.52,236.89 21.03,237.77 20.69,238.48 20.35,239.18 20.14,239.78 19.93,240.37 19.82,240.87 19.71,241.36 19.76,241.81 19.81,242.26 20.25,242.73 20.70,243.21 21.58,243.73 22.47,244.24 23.74,244.80 25.02,245.36 26.65,245.95 28.29,246.55 29.98,247.12 31.68,247.70 33.24,248.23 34.80,248.75 36.27,249.28 37.74,249.81 39.14,250.35 40.54,250.89 41.81,251.45 43.08,252.01 44.10,252.57 45.13,253.13 45.91,253.62 46.69,254.11 47.25,254.48 47.81,254.85 48.15,255.08 48.50,255.31 48.69,255.47 48.89,255.63 48.97,255.84 49.06,256.06 48.99,256.53 48.93,257.01 48.64,257.82 48.35,258.63 47.86,259.72 47.36,260.81 46.65,262.09 45.95,263.37 45.07,264.79 44.19,266.21 43.18,267.79 42.17,269.37 40.96,271.13 39.75,272.89 38.41,274.73 37.08,276.57 35.76,278.32 34.45,280.06 33.18,281.66 31.90,283.27 30.69,284.78 29.48,286.29 28.62,287.36 27.75,288.43 26.78,289.63 25.80,290.83 25.16,291.66 24.52,292.50 24.03,293.26 23.54,294.02 23.20,294.69 22.87,295.37 22.65,295.99 22.43,296.62 22.31,297.22 22.19,297.82 22.13,298.41 22.06,299.00 22.19,299.55 22.33,300.10 22.75,300.68 23.16,301.25 23.72,301.88 24.29,302.50 24.99,303.14 25.69,303.79 26.43,304.42 27.17,305.05 27.82,305.68 28.48,306.31 29.08,306.97 29.68,307.62 30.20,308.32 30.73,309.01 31.17,309.81 31.61,310.61 31.93,311.54 32.24,312.48 32.43,313.57 32.62,314.66 32.53,316.08 32.44,317.50 31.79,319.34 31.15,321.19 29.88,323.41 28.62,325.62 26.83,328.12 25.04,330.63 23.08,333.11 21.12,335.59 19.18,337.93 17.23,340.26 15.44,342.40 13.65,344.54 12.09,346.43 10.53,348.31 9.16,349.96 7.79,351.60 6.67,352.97 5.55,354.35 4.70,355.50 3.86,356.65 3.32,357.68 2.78,358.71 2.47,359.65 2.17,360.59 2.19,361.44 2.22,362.30 2.73,363.02 3.24,363.74 4.30,364.51 5.36,365.28 6.69,365.96 8.03,366.65 9.72,367.35 11.40,368.06 13.28,368.84 15.16,369.61 16.94,370.34 18.73,371.07 20.33,371.77 21.93,372.46 23.43,373.13 24.93,373.80 26.34,374.51 27.74,375.22 28.98,376.02 30.21,376.83 31.10,377.66 31.99,378.50 32.52,379.41 33.06,380.32 33.33,381.39 33.61,382.47 33.60,383.77 33.60,385.07 33.19,386.62 32.78,388.16 32.07,389.76 31.36,391.36 30.58,392.83 29.81,394.30 29.01,395.72 28.21,397.13 27.41,398.54 26.61,399.95 25.91,401.27 25.22,402.59 24.66,403.87 24.10,405.15 23.68,406.43 23.27,407.71 23.01,408.90 22.76,410.09 22.67,411.17 22.59,412.25 22.77,413.24 22.96,414.23 23.48,415.18 24.00,416.13 24.77,417.03 25.54,417.93 26.40,418.70 27.26,419.48 28.09,420.13 28.93,420.78 29.70,421.34 30.48,421.91 31.23,422.48 31.99,423.05 32.66,423.76 33.33,424.48 33.74,425.05 34.14,425.62 34.40,426.28 34.66,426.94 34.80,427.75 34.94,428.56 34.85,429.62 34.77,430.69 34.34,431.91 33.91,433.13 33.35,434.32 32.79,435.51 32.20,436.69 31.60,437.86 30.92,439.13 30.23,440.40 29.54,441.67 28.86,442.94 28.31,444.07 27.75,445.20 27.33,446.19 26.91,447.19 26.64,448.19 26.36,449.19 26.21,450.25 26.05,451.32 25.97,452.39 25.88,453.47 25.84,454.55 25.79,455.63 25.76,456.72 25.74,457.80 25.75,458.87 25.75,459.94 25.82,461.03 25.89,462.11 26.00,463.16 26.12,464.21 26.25,465.13 26.38,466.05 26.52,466.80 26.65,467.56 26.77,468.15 26.88,468.74 27.04,469.63 27.21,470.53 27.21,470.53" fill="none" stroke="#717d8a" stroke-width="4" stroke-dasharray="0.1 8" stroke-dashoffset="0" stroke-linejoin="round" stroke-linecap="round" pointer-events="none"/></g></g><g id="e27f21b1-3dc2-4ffb-1f5c-b1ee87a37aad_svg" class="tl-centered-g" transform="translate(111.13, 156.77) rotate(0.00, 182.85, 159.67)"><path d="M 275.96,319.03 Q 275.96,319.03 269.64,319.00 263.32,318.98 255.39,318.95 247.47,318.92 239.13,318.89 230.79,318.87 222.34,318.84 213.90,318.81 205.43,318.79 196.96,318.76 188.48,318.76 180.00,318.77 171.52,318.80 163.04,318.84 154.57,318.87 146.09,318.91 137.61,318.94 129.13,318.98 120.65,319.01 112.17,319.05 103.69,319.08 95.21,319.12 86.73,319.15 78.25,319.18 69.77,319.22 61.29,319.25 52.81,319.29 44.33,319.32 35.85,319.36 27.37,319.39 18.86,319.42 10.36,319.45 6.17,317.58 1.97,315.71 0.84,308.60 -0.27,301.49 -0.46,293.28 -0.64,285.07 -0.64,276.59 -0.63,268.11 -0.59,259.55 -0.54,250.99 -0.48,242.41 -0.42,233.83 -0.36,225.25 -0.29,216.66 -0.23,208.08 -0.17,199.49 -0.10,190.91 -0.04,182.32 0.01,173.74 0.08,165.15 0.07,156.56 0.06,147.98 0.05,139.39 0.04,130.81 0.03,122.22 0.02,113.64 0.02,105.05 0.01,96.46 0.00,87.88 -0.00,79.29 -0.01,70.71 -0.02,62.12 -0.03,53.54 -0.04,44.95 -0.04,36.37 -0.05,27.78 -0.06,19.17 -0.06,10.56 1.81,6.35 3.68,2.13 10.68,0.97 17.69,-0.17 25.76,-0.38 33.84,-0.59 42.18,-0.62 50.53,-0.64 58.94,-0.62 67.36,-0.60 75.80,-0.56 84.23,-0.53 92.67,-0.49 101.11,-0.45 109.55,-0.42 117.99,-0.38 126.43,-0.34 134.88,-0.30 143.32,-0.27 151.76,-0.23 160.20,-0.19 168.64,-0.15 177.08,-0.15 185.53,-0.14 193.97,-0.16 202.41,-0.19 210.85,-0.21 219.29,-0.24 227.73,-0.26 236.17,-0.28 244.62,-0.31 253.06,-0.33 261.50,-0.36 269.94,-0.38 278.38,-0.40 286.82,-0.43 295.27,-0.45 303.71,-0.48 312.15,-0.50 320.59,-0.53 329.03,-0.55 337.47,-0.57 345.94,-0.59 354.40,-0.61 358.59,1.25 362.77,3.12 363.93,10.22 365.09,17.32 365.31,25.52 365.54,33.71 365.58,42.19 365.62,50.66 365.62,59.21 365.61,67.75 365.60,76.32 365.58,84.89 365.56,93.46 365.55,102.03 365.53,110.60 365.51,119.18 365.49,127.75 365.47,136.32 365.45,144.89 365.43,153.47 365.49,162.04 365.54,170.61 365.59,179.19 365.65,187.76 365.70,196.33 365.75,204.91 365.81,213.48 365.86,222.05 365.91,230.62 365.97,239.20 366.02,247.77 366.07,256.34 366.13,264.92 366.18,273.49 366.23,282.06 366.29,290.64 366.34,299.23 366.39,307.83 364.52,312.05 362.65,316.26 355.63,317.43 348.60,318.59 340.49,318.81 332.38,319.03 324.00,319.06 315.61,319.10 307.16,319.09 298.71,319.07 290.23,319.05 281.76,319.03 273.28,319.00 264.80,318.98 256.32,318.95 247.84,318.92 239.36,318.89 230.88,318.87 222.40,318.84 213.92,318.81 205.44,318.79 196.96,318.76 188.48,318.76 180.00,318.77 171.52,318.80 163.05,318.84 151.66,318.87 140.28,318.91 140.10,318.88 139.91,318.85 139.75,318.76 139.58,318.67 139.45,318.54 139.32,318.40 139.25,318.23 139.17,318.06 139.15,317.88 139.13,317.69 139.17,317.51 139.21,317.33 139.30,317.17 139.40,317.01 139.54,316.89 139.68,316.77 139.86,316.70 140.03,316.63 140.22,316.62 140.40,316.61 140.58,316.66 140.76,316.71 140.92,316.81 141.07,316.92 141.19,317.06 141.30,317.21 141.36,317.39 141.42,317.57 141.42,317.75 141.42,317.94 141.36,318.12 141.30,318.29 141.19,318.44 141.07,318.59 140.92,318.70 140.77,318.80 140.59,318.85 140.41,318.90 140.22,318.89 140.03,318.88 139.86,318.81 139.68,318.74 139.54,318.62 139.40,318.50 139.30,318.34 139.21,318.18 139.17,318.00 139.13,317.82 139.15,317.63 139.17,317.45 139.25,317.28 139.32,317.11 139.45,316.97 139.58,316.84 139.75,316.75 139.91,316.66 140.10,316.63 140.28,316.60 140.28,316.60 140.28,316.60 151.66,316.63 163.04,316.65 171.52,316.68 180.00,316.71 188.48,316.70 196.96,316.70 205.44,316.66 213.92,316.63 222.40,316.59 230.88,316.56 239.36,316.52 247.84,316.49 256.32,316.45 264.80,316.42 273.28,316.38 281.76,316.35 290.23,316.31 298.70,316.27 307.15,316.22 315.59,316.17 323.94,316.07 332.28,315.98 340.22,315.71 348.16,315.45 354.53,314.73 360.89,314.01 362.00,310.88 363.10,307.74 363.12,299.19 363.13,290.64 363.15,282.07 363.17,273.50 363.19,264.92 363.21,256.35 363.23,247.78 363.25,239.20 363.26,230.63 363.28,222.06 363.30,213.48 363.32,204.91 363.34,196.34 363.36,187.76 363.38,179.19 363.40,170.62 363.42,162.04 363.43,153.47 363.38,144.90 363.33,136.33 363.27,127.75 363.22,119.18 363.17,110.61 363.11,102.03 363.06,93.46 363.00,84.89 362.95,76.33 362.89,67.76 362.82,59.23 362.75,50.69 362.64,42.25 362.53,33.81 362.24,25.78 361.96,17.75 361.24,11.32 360.51,4.88 357.41,3.77 354.31,2.66 345.89,2.63 337.47,2.59 329.03,2.55 320.59,2.52 312.15,2.48 303.71,2.44 295.26,2.40 286.82,2.37 278.38,2.33 269.94,2.29 261.50,2.25 253.06,2.21 244.61,2.18 236.17,2.14 227.73,2.10 219.29,2.06 210.85,2.03 202.41,1.99 193.97,1.95 185.52,1.91 177.08,1.91 168.64,1.90 160.20,1.92 151.76,1.95 143.32,1.97 134.87,2.00 126.43,2.02 117.99,2.04 109.55,2.07 101.11,2.09 92.67,2.12 84.23,2.14 75.80,2.17 67.36,2.20 58.96,2.24 50.55,2.28 42.24,2.36 33.93,2.45 26.03,2.70 18.12,2.96 11.78,3.67 5.44,4.38 4.33,7.52 3.21,10.66 3.15,19.23 3.09,27.79 3.03,36.37 2.97,44.96 2.90,53.55 2.84,62.13 2.77,70.72 2.71,79.30 2.65,87.89 2.58,96.47 2.52,105.06 2.46,113.64 2.39,122.23 2.33,130.81 2.27,139.40 2.20,147.99 2.14,156.57 2.08,165.16 2.08,173.74 2.09,182.33 2.10,190.91 2.11,199.50 2.12,208.08 2.13,216.67 2.14,225.25 2.15,233.84 2.16,242.41 2.17,250.99 2.20,259.54 2.22,268.09 2.29,276.55 2.36,285.00 2.60,293.04 2.84,301.07 3.54,307.52 4.23,313.96 7.34,315.07 10.45,316.17 18.91,316.20 27.37,316.22 35.85,316.24 44.33,316.27 52.81,316.30 61.29,316.33 69.77,316.35 78.25,316.38 86.73,316.41 95.21,316.43 103.68,316.46 112.16,316.49 120.64,316.52 129.12,316.54 137.60,316.57 146.08,316.60 154.56,316.62 163.04,316.65 171.52,316.68 180.00,316.71 188.48,316.70 196.96,316.70 205.43,316.66 213.90,316.63 222.34,316.59 230.79,316.56 239.13,316.52 247.47,316.49 255.39,316.45 263.32,316.42 269.64,316.39 275.96,316.35 276.12,316.37 276.28,316.39 276.43,316.45 276.58,316.51 276.71,316.60 276.85,316.69 276.95,316.81 277.06,316.93 277.14,317.07 277.21,317.22 277.25,317.37 277.29,317.53 277.29,317.69 277.29,317.85 277.25,318.01 277.21,318.17 277.14,318.31 277.06,318.45 276.95,318.57 276.85,318.70 276.71,318.79 276.58,318.88 276.43,318.94 276.28,318.99 276.12,319.01 Z" fill="#cecece" stroke="#cecece" stroke-width="2" pointer-events="none"/></g><g id="670bc38e-d93e-4a8a-075a-3d93899b72e8_svg" class="tl-centered-g" transform="translate(118.51, 165.35) rotate(0.00, 174.19, 20.79)"><path d="M 259.12,41.53 Q 259.12,41.53 252.81,41.53 246.50,41.52 238.58,41.52 230.66,41.51 222.33,41.51 214.00,41.51 205.56,41.51 197.12,41.51 188.66,41.51 180.20,41.51 171.73,41.58 163.26,41.64 154.79,41.71 146.32,41.77 137.85,41.84 129.38,41.91 120.91,41.97 112.43,42.04 103.96,42.10 95.49,42.17 87.02,42.23 78.55,42.30 70.08,42.36 61.61,42.43 53.14,42.49 44.66,42.56 36.19,42.62 27.72,42.69 19.23,42.75 10.73,42.81 6.66,41.15 2.60,39.49 1.44,37.02 0.29,34.55 0.11,32.07 -0.06,29.58 -0.01,27.22 0.03,24.86 0.03,22.54 0.04,20.21 -0.03,17.88 -0.10,15.56 -0.18,13.24 -0.25,10.91 -0.30,8.51 -0.34,6.10 1.49,3.51 3.33,0.91 10.41,0.22 17.49,-0.47 25.55,-0.55 33.62,-0.63 41.98,-0.61 50.34,-0.59 58.78,-0.54 67.22,-0.49 75.68,-0.43 84.14,-0.38 92.60,-0.32 101.07,-0.26 109.53,-0.20 118.00,-0.14 126.47,-0.09 134.93,-0.03 143.40,0.02 151.87,0.08 160.33,0.14 168.80,0.20 177.27,0.19 185.73,0.18 194.20,0.18 202.67,0.17 211.13,0.16 219.60,0.16 228.07,0.15 236.53,0.14 245.00,0.14 253.47,0.13 261.94,0.12 270.40,0.12 278.87,0.11 287.34,0.10 295.80,0.10 304.27,0.09 312.74,0.09 321.20,0.08 329.69,0.08 338.18,0.07 342.24,1.74 346.29,3.40 347.45,5.74 348.62,8.09 348.81,10.42 349.01,12.76 348.98,14.96 348.94,17.16 348.95,19.32 348.96,21.48 349.05,23.64 349.14,25.79 349.23,27.95 349.31,30.10 349.37,32.35 349.43,34.60 347.60,37.14 345.77,39.69 338.68,40.42 331.60,41.15 323.53,41.29 315.47,41.42 307.10,41.45 298.73,41.49 290.29,41.50 281.85,41.50 273.38,41.51 264.92,41.51 256.45,41.51 247.98,41.51 239.51,41.51 231.03,41.51 222.56,41.51 214.09,41.51 205.62,41.51 197.15,41.51 188.68,41.51 180.21,41.51 171.73,41.58 163.26,41.64 151.89,41.72 140.52,41.80 140.34,41.77 140.16,41.74 140.00,41.65 139.84,41.57 139.71,41.44 139.58,41.30 139.51,41.14 139.43,40.97 139.41,40.79 139.39,40.61 139.43,40.43 139.47,40.25 139.56,40.10 139.65,39.94 139.79,39.82 139.93,39.70 140.10,39.63 140.27,39.56 140.45,39.55 140.63,39.54 140.81,39.59 140.99,39.64 141.14,39.74 141.29,39.84 141.40,39.99 141.51,40.13 141.57,40.31 141.63,40.48 141.63,40.66 141.63,40.85 141.57,41.02 141.52,41.19 141.41,41.34 141.30,41.48 141.15,41.59 140.99,41.69 140.82,41.74 140.64,41.79 140.46,41.78 140.28,41.77 140.11,41.70 139.94,41.64 139.80,41.52 139.66,41.40 139.56,41.25 139.47,41.09 139.43,40.91 139.39,40.73 139.41,40.55 139.43,40.37 139.50,40.20 139.58,40.04 139.70,39.90 139.83,39.77 139.99,39.68 140.15,39.60 140.33,39.57 140.51,39.54 140.51,39.54 140.51,39.54 151.88,39.53 163.25,39.51 171.73,39.51 180.20,39.51 188.67,39.45 197.14,39.38 205.61,39.32 214.08,39.25 222.55,39.19 231.03,39.12 239.50,39.06 247.97,38.99 256.44,38.93 264.91,38.86 273.37,38.79 281.83,38.72 290.27,38.65 298.71,38.58 307.06,38.48 315.40,38.38 323.37,38.19 331.34,37.99 337.64,37.64 343.94,37.28 345.09,35.75 346.25,34.22 346.32,32.16 346.39,30.10 346.48,27.94 346.58,25.79 346.68,23.64 346.77,21.49 346.77,19.35 346.76,17.21 346.61,15.13 346.47,13.04 346.21,11.16 345.95,9.27 345.26,7.64 344.57,6.02 341.33,4.69 338.08,3.36 329.64,3.30 321.19,3.25 312.73,3.19 304.26,3.13 295.79,3.07 287.33,3.01 278.86,2.96 270.39,2.90 261.93,2.84 253.46,2.78 244.99,2.72 236.53,2.66 228.06,2.61 219.59,2.55 211.13,2.49 202.66,2.43 194.19,2.37 185.73,2.31 177.26,2.26 168.79,2.20 160.33,2.20 151.86,2.21 143.39,2.22 134.93,2.22 126.46,2.23 117.99,2.24 109.53,2.24 101.06,2.25 92.59,2.26 84.13,2.26 75.67,2.27 67.21,2.28 58.78,2.30 50.34,2.31 42.00,2.35 33.66,2.40 25.69,2.54 17.73,2.68 11.44,3.00 5.14,3.33 3.99,4.90 2.84,6.47 2.75,8.71 2.67,10.94 2.55,13.26 2.44,15.58 2.33,17.89 2.22,20.21 2.22,22.52 2.21,24.82 2.35,27.08 2.48,29.34 2.73,31.38 2.99,33.43 3.67,35.18 4.35,36.93 7.58,38.23 10.81,39.53 19.26,39.52 27.71,39.52 36.18,39.52 44.65,39.52 53.12,39.52 61.60,39.52 70.07,39.52 78.54,39.52 87.01,39.52 95.48,39.52 103.95,39.52 112.43,39.52 120.90,39.52 129.37,39.52 137.84,39.52 146.31,39.51 154.78,39.51 163.25,39.51 171.72,39.51 180.19,39.51 188.65,39.45 197.12,39.38 205.55,39.32 213.99,39.25 222.32,39.19 230.65,39.12 238.57,39.06 246.49,39.00 252.80,38.94 259.11,38.88 259.27,38.90 259.43,38.92 259.58,38.98 259.73,39.03 259.86,39.12 259.99,39.21 260.10,39.33 260.20,39.45 260.28,39.59 260.35,39.73 260.39,39.89 260.43,40.04 260.43,40.20 260.43,40.36 260.40,40.52 260.36,40.67 260.28,40.82 260.21,40.96 260.11,41.08 260.00,41.20 259.87,41.29 259.74,41.38 259.59,41.44 259.44,41.49 259.28,41.51 Z" fill="#cecece" stroke="#cecece" stroke-width="2" pointer-events="none"/></g><g text-align="left" text-anchor="start" fill="#cecece" transform="translate(125.49, 167.17) rotate(0.00, 83.00, 19.00)"><text y="14" letter-spacing="-0.84" font-size="28px" font-family="Caveat Brush" text-align="left" alignment-baseline="central" transform="scale(0.9835139714385606)">site.com/products</text></g><g id="ce847d82-2e2a-4d78-209d-76edc2124be0_svg" class="tl-centered-g" transform="translate(124.80, 218.70) rotate(0.00, 167.42, 1.01)"><defs><mask id="ce847d82-2e2a-4d78-209d-76edc2124be0_clip"><rect x="-100" y="-100" width="534.83" height="202.03" fill="white"/><rect x="167.42" y="1.01" width="0" height="0" rx="4" ry="4" fill="black" opacity="1"/></mask></defs><g pointer-events="none" opacity="1" mask=""><path d="M -0.00,1.00 Q -0.00,1.00 41.84,0.78 83.70,0.56 125.55,0.32 167.41,0.09 209.26,-0.14 251.12,-0.37 292.97,-0.61 334.83,-0.86 334.97,-0.83 335.10,-0.81 335.23,-0.75 335.35,-0.68 335.45,-0.58 335.54,-0.48 335.60,-0.36 335.66,-0.23 335.68,-0.09 335.70,0.04 335.67,0.17 335.64,0.31 335.57,0.43 335.49,0.55 335.39,0.64 335.28,0.73 335.15,0.78 335.03,0.83 334.89,0.84 334.75,0.85 334.61,0.82 334.48,0.78 334.36,0.70 334.25,0.62 334.16,0.51 334.08,0.40 334.03,0.27 333.99,0.14 333.99,0.00 333.98,-0.13 334.03,-0.26 334.07,-0.39 334.16,-0.51 334.24,-0.62 334.35,-0.70 334.47,-0.77 334.60,-0.81 334.74,-0.85 334.88,-0.84 335.02,-0.84 335.14,-0.79 335.27,-0.74 335.38,-0.65 335.49,-0.56 335.56,-0.44 335.63,-0.32 335.66,-0.18 335.69,-0.05 335.68,0.08 335.67,0.22 335.61,0.35 335.55,0.47 335.46,0.58 335.36,0.68 335.24,0.74 335.11,0.81 334.98,0.83 334.84,0.86 334.84,0.86 334.84,0.86 292.99,1.12 251.13,1.39 209.28,1.66 167.42,1.93 125.57,2.20 83.71,2.48 41.86,2.76 0.00,3.05 -0.11,3.03 -0.23,3.02 -0.35,2.98 -0.46,2.93 -0.57,2.86 -0.67,2.79 -0.75,2.70 -0.83,2.61 -0.89,2.50 -0.95,2.39 -0.98,2.27 -1.01,2.15 -1.01,2.03 -1.01,1.91 -0.98,1.79 -0.95,1.67 -0.90,1.56 -0.84,1.45 -0.76,1.36 -0.68,1.26 -0.58,1.19 -0.48,1.12 -0.36,1.08 -0.25,1.03 -0.12,1.02 Z" fill="#cecece" stroke="#cecece" stroke-width="2.11" stroke-dasharray="none" stroke-dashoffset="none" stroke-linecap="round" stroke-linejoin="round" pointer-events="stroke"/></g></g><g text-align="left" text-anchor="start" fill="#cecece" transform="translate(237.53, 89.59) rotate(0.00, 55.00, 32.50)"><text y="14" letter-spacing="-0.84" font-size="28px" font-family="Caveat Brush" text-align="left" alignment-baseline="central" transform="scale(1.956587563795696)">client</text></g><g id="a0eff5f8-9a99-4494-087c-fbf934032e17_svg" class="tl-centered-g" transform="translate(132.53, 234.74) rotate(0.00, 161.28, 110.75)"><path d="M 232.67,221.38 Q 232.67,221.38 226.71,221.37 220.76,221.36 213.29,221.36 205.82,221.36 197.96,221.36 190.10,221.36 182.15,221.37 174.19,221.37 166.21,221.44 158.23,221.50 150.24,221.63 142.26,221.75 134.27,221.88 126.28,222.00 118.29,222.13 110.30,222.25 102.31,222.37 94.32,222.50 86.33,222.62 78.35,222.75 70.36,222.87 62.37,223.00 54.38,223.12 46.39,223.25 38.40,223.37 30.41,223.50 22.33,223.60 14.25,223.70 8.71,220.57 3.18,217.44 1.63,209.79 0.08,202.15 -0.14,193.86 -0.38,185.57 -0.37,177.13 -0.36,168.70 -0.29,160.22 -0.22,151.74 -0.14,143.25 -0.06,134.75 0.01,126.26 0.10,117.76 0.00,109.27 -0.10,100.77 -0.20,92.28 -0.30,83.78 -0.40,75.28 -0.51,66.79 -0.61,58.29 -0.71,49.80 -0.82,41.30 -0.92,32.80 -1.00,24.22 -1.08,15.64 2.04,9.99 5.18,4.34 12.48,2.72 19.77,1.10 27.65,0.83 35.53,0.56 43.52,0.53 51.51,0.51 59.53,0.55 67.56,0.59 75.59,0.64 83.63,0.70 91.67,0.76 99.70,0.81 107.74,0.87 115.78,0.93 123.82,0.99 131.86,1.05 139.89,1.11 147.93,1.17 155.97,1.17 164.01,1.17 172.05,1.11 180.08,1.05 188.12,0.98 196.16,0.92 204.20,0.86 212.24,0.80 220.28,0.74 228.31,0.68 236.35,0.62 244.39,0.56 252.43,0.50 260.47,0.44 268.50,0.38 276.54,0.32 284.58,0.26 292.62,0.20 300.75,0.16 308.87,0.12 314.42,3.28 319.96,6.43 321.45,14.01 322.94,21.58 323.11,29.78 323.27,37.98 323.18,46.31 323.10,54.65 322.95,63.03 322.81,71.40 322.65,79.79 322.49,88.18 322.33,96.58 322.17,104.97 322.19,113.37 322.22,121.76 322.25,130.16 322.27,138.55 322.30,146.95 322.32,155.34 322.35,163.74 322.37,172.14 322.40,180.53 322.43,188.93 322.43,197.41 322.43,205.89 319.29,211.50 316.15,217.11 308.88,218.77 301.61,220.43 293.78,220.76 285.94,221.09 278.00,221.18 270.06,221.26 262.08,221.29 254.11,221.31 246.12,221.32 238.13,221.33 230.14,221.34 222.15,221.34 214.17,221.35 206.18,221.35 198.19,221.36 190.20,221.36 182.21,221.37 174.22,221.37 166.23,221.44 158.24,221.50 150.25,221.63 142.26,221.75 131.53,221.90 120.81,222.05 120.48,221.99 120.16,221.94 119.86,221.79 119.57,221.64 119.34,221.40 119.11,221.16 118.97,220.86 118.82,220.56 118.79,220.23 118.75,219.90 118.82,219.58 118.88,219.25 119.05,218.97 119.22,218.68 119.47,218.47 119.72,218.25 120.03,218.12 120.34,218.00 120.67,217.98 121.00,217.96 121.32,218.04 121.64,218.13 121.92,218.31 122.19,218.50 122.39,218.76 122.60,219.02 122.71,219.34 122.81,219.65 122.82,219.98 122.82,220.31 122.72,220.63 122.61,220.94 122.41,221.21 122.22,221.47 121.94,221.66 121.67,221.85 121.35,221.94 121.03,222.03 120.70,222.02 120.37,222.00 120.06,221.88 119.75,221.76 119.50,221.55 119.24,221.34 119.07,221.05 118.90,220.77 118.82,220.45 118.75,220.12 118.78,219.79 118.82,219.46 118.95,219.16 119.09,218.86 119.31,218.62 119.54,218.37 119.83,218.22 120.12,218.06 120.45,218.00 120.78,217.95 120.78,217.95 120.78,217.95 131.50,217.92 142.23,217.89 150.22,217.89 158.21,217.88 166.20,217.82 174.19,217.75 182.17,217.63 190.16,217.50 198.15,217.38 206.14,217.26 214.13,217.13 222.12,217.01 230.11,216.88 238.09,216.75 246.07,216.62 254.06,216.49 262.01,216.35 269.97,216.21 277.83,216.00 285.69,215.80 293.14,215.40 300.58,214.99 306.56,214.13 312.53,213.28 314.64,209.39 316.75,205.51 316.89,197.19 317.03,188.88 317.19,180.49 317.36,172.09 317.52,163.70 317.69,155.31 317.85,146.91 318.01,138.52 318.18,130.12 318.34,121.73 318.50,113.34 318.67,104.94 318.64,96.55 318.61,88.15 318.58,79.77 318.55,71.38 318.50,63.02 318.46,54.65 318.36,46.39 318.25,38.13 317.94,30.29 317.62,22.45 316.84,16.19 316.06,9.92 312.29,7.86 308.52,5.80 300.57,5.77 292.62,5.73 284.58,5.67 276.54,5.61 268.50,5.55 260.47,5.49 252.43,5.44 244.39,5.38 236.35,5.32 228.31,5.26 220.28,5.20 212.24,5.14 204.20,5.08 196.16,5.02 188.12,4.96 180.08,4.90 172.05,4.85 164.01,4.79 155.97,4.79 147.93,4.79 139.89,4.85 131.86,4.91 123.82,4.97 115.78,5.03 107.74,5.09 99.70,5.15 91.67,5.21 83.63,5.28 75.60,5.34 67.57,5.41 59.57,5.49 51.56,5.57 43.65,5.71 35.75,5.85 28.26,6.20 20.76,6.55 14.76,7.36 8.75,8.18 6.67,12.08 4.60,15.97 4.53,24.39 4.47,32.80 4.38,41.29 4.29,49.79 4.21,58.29 4.12,66.78 4.03,75.28 3.95,83.78 3.86,92.27 3.77,100.77 3.69,109.26 3.60,117.76 3.70,126.25 3.81,134.75 3.92,143.24 4.02,151.72 4.15,160.19 4.27,168.65 4.45,177.01 4.63,185.37 5.01,193.31 5.40,201.25 6.23,207.58 7.06,213.91 10.82,215.97 14.57,218.02 22.47,217.99 30.37,217.96 38.36,217.96 46.35,217.95 54.34,217.95 62.33,217.94 70.32,217.94 78.31,217.93 86.30,217.93 94.29,217.92 102.28,217.92 110.27,217.91 118.26,217.91 126.25,217.90 134.24,217.90 142.23,217.89 150.21,217.89 158.20,217.88 166.18,217.82 174.16,217.75 182.12,217.63 190.07,217.51 197.93,217.38 205.79,217.26 213.26,217.14 220.73,217.02 226.68,216.91 232.63,216.80 232.90,216.83 233.18,216.86 233.44,216.96 233.69,217.05 233.92,217.21 234.15,217.36 234.34,217.57 234.52,217.77 234.65,218.02 234.78,218.26 234.85,218.53 234.92,218.80 234.92,219.07 234.92,219.35 234.86,219.62 234.79,219.88 234.67,220.13 234.54,220.37 234.36,220.58 234.18,220.79 233.95,220.95 233.73,221.11 233.47,221.21 233.21,221.31 232.94,221.34 Z" fill="#36a64c" stroke="#36a64c" stroke-width="3.5" pointer-events="none"/></g><g id="3106e9d8-30b4-4973-1740-a2c1d61206d0_svg" class="tl-centered-g" transform="translate(163.55, 265.80) rotate(0.00, 135.32, 83.62)"><path d="M 94.04,0.31 Q 94.04,0.31 100.33,0.38 106.63,0.45 114.53,0.52 122.43,0.59 130.75,0.59 139.06,0.58 147.47,0.50 155.89,0.42 164.33,0.34 172.77,0.26 181.22,0.17 189.67,0.09 198.12,0.01 206.57,-0.06 215.03,-0.14 223.48,-0.22 231.93,-0.31 240.38,-0.39 248.92,-0.45 257.45,-0.51 263.10,2.63 268.75,5.78 270.25,13.33 271.75,20.88 271.89,29.05 272.03,37.21 271.93,45.51 271.82,53.81 271.65,62.15 271.48,70.49 271.43,78.84 271.37,87.19 271.44,95.55 271.50,103.91 271.57,112.27 271.63,120.62 271.70,128.98 271.76,137.34 271.81,145.78 271.85,154.23 268.68,159.84 265.52,165.46 257.91,167.01 250.31,168.57 242.07,168.78 233.84,168.99 225.46,168.95 217.09,168.91 208.68,168.81 200.26,168.71 191.83,168.60 183.41,168.49 174.98,168.37 166.55,168.25 158.12,168.13 149.69,168.01 141.25,167.97 132.82,167.93 124.39,167.96 115.96,167.99 107.53,168.03 99.10,168.06 90.66,168.09 82.23,168.13 73.80,168.16 65.37,168.19 56.94,168.22 48.51,168.26 40.07,168.29 31.64,168.32 23.13,168.33 14.61,168.35 8.98,165.19 3.34,162.03 1.82,154.54 0.30,147.05 0.12,138.96 -0.04,130.87 0.02,122.65 0.09,114.43 0.23,106.17 0.36,97.91 0.38,89.64 0.41,81.37 0.31,73.09 0.21,64.82 0.11,56.54 0.01,48.26 -0.08,39.99 -0.18,31.71 -0.25,23.35 -0.33,14.98 2.81,9.39 5.96,3.79 13.58,2.21 21.19,0.62 29.45,0.36 37.70,0.11 46.10,0.10 54.49,0.09 62.92,0.14 71.36,0.19 79.81,0.25 88.25,0.32 96.70,0.39 105.16,0.46 113.61,0.53 122.06,0.60 130.51,0.59 138.96,0.58 147.41,0.50 155.86,0.42 167.21,0.34 178.55,0.25 178.89,0.31 179.23,0.36 179.54,0.52 179.84,0.69 180.08,0.94 180.32,1.19 180.46,1.50 180.61,1.81 180.64,2.15 180.68,2.50 180.61,2.83 180.53,3.17 180.36,3.46 180.18,3.76 179.92,3.98 179.65,4.20 179.33,4.33 179.01,4.46 178.67,4.48 178.33,4.50 177.99,4.41 177.66,4.31 177.38,4.12 177.09,3.93 176.88,3.65 176.67,3.38 176.56,3.05 176.45,2.73 176.45,2.38 176.45,2.04 176.56,1.71 176.67,1.38 176.88,1.11 177.09,0.84 177.37,0.64 177.66,0.45 177.99,0.36 178.32,0.26 178.67,0.28 179.01,0.30 179.33,0.43 179.65,0.56 179.91,0.78 180.18,1.00 180.35,1.30 180.53,1.59 180.61,1.93 180.68,2.26 180.64,2.61 180.61,2.95 180.46,3.26 180.32,3.58 180.08,3.83 179.84,4.08 179.54,4.24 179.24,4.40 178.90,4.45 178.56,4.51 178.56,4.51 178.56,4.51 167.21,4.44 155.87,4.37 147.42,4.30 138.96,4.23 130.51,4.24 122.06,4.25 113.61,4.33 105.16,4.41 96.71,4.49 88.26,4.58 79.82,4.66 71.37,4.75 62.96,4.85 54.54,4.95 46.22,5.11 37.90,5.27 30.01,5.64 22.12,6.01 15.81,6.84 9.50,7.67 7.42,11.51 5.35,15.35 5.21,23.54 5.08,31.73 4.93,40.00 4.77,48.28 4.62,56.55 4.47,64.83 4.31,73.10 4.16,81.38 4.14,89.65 4.11,97.91 4.23,106.16 4.35,114.40 4.53,122.55 4.71,130.70 5.10,138.42 5.49,146.15 6.35,152.32 7.21,158.50 11.09,160.58 14.97,162.66 23.32,162.75 31.67,162.85 40.10,162.97 48.53,163.09 56.96,163.21 65.39,163.33 73.82,163.45 82.26,163.56 90.69,163.68 99.12,163.80 107.55,163.92 115.98,164.04 124.41,164.16 132.84,164.28 141.27,164.32 149.70,164.36 158.14,164.33 166.57,164.30 175.00,164.26 183.43,164.23 191.85,164.19 200.27,164.15 208.67,164.10 217.07,164.04 225.37,163.93 233.67,163.82 241.54,163.50 249.41,163.17 255.70,162.37 262.00,161.57 264.08,157.71 266.16,153.85 266.33,145.58 266.49,137.30 266.68,128.95 266.87,120.59 267.06,112.23 267.24,103.88 267.43,95.52 267.62,87.17 267.67,78.82 267.73,70.47 267.65,62.14 267.56,53.82 267.42,45.59 267.27,37.36 266.91,29.56 266.55,21.76 265.71,15.52 264.87,9.29 260.99,7.23 257.12,5.17 248.75,5.12 240.38,5.07 231.93,5.00 223.48,4.93 215.03,4.86 206.58,4.79 198.13,4.72 189.68,4.65 181.23,4.58 172.78,4.51 164.33,4.44 155.89,4.37 147.48,4.30 139.06,4.23 130.75,4.24 122.44,4.25 114.53,4.33 106.63,4.41 100.34,4.49 94.04,4.57 93.79,4.54 93.53,4.51 93.29,4.42 93.05,4.33 92.84,4.18 92.63,4.04 92.46,3.84 92.29,3.65 92.17,3.42 92.05,3.20 91.99,2.95 91.92,2.70 91.92,2.44 91.92,2.19 91.99,1.94 92.05,1.69 92.17,1.46 92.29,1.23 92.46,1.04 92.63,0.85 92.84,0.70 93.05,0.56 93.29,0.46 93.53,0.37 93.78,0.34 Z" fill="#36a64c" stroke="#36a64c" stroke-width="3.5" pointer-events="none"/></g><g text-align="left" text-anchor="start" fill="#ebbb38" transform="translate(196.62, 166.99) rotate(0.00, 47.50, 19.00)"><text y="14" letter-spacing="-0.84" font-size="28px" font-family="Caveat Brush" text-align="left" alignment-baseline="central" transform="scale(0.9835139714385606)">/products</text></g><g id="2b5ae72d-ba16-4501-23e7-019b56f50b50_svg" class="tl-centered-g" transform="translate(205.36, 300.68) rotate(0.23, 101.79, 52.54)"><path d="M 204.39,70.76 Q 204.39,70.76 204.66,75.45 204.92,80.13 205.18,86.15 205.43,92.17 202.32,97.17 199.21,102.18 191.57,103.55 183.92,104.92 175.67,105.10 167.42,105.27 159.02,105.23 150.61,105.19 142.15,105.10 133.69,105.01 125.22,104.90 116.75,104.80 108.27,104.79 99.80,104.79 91.32,104.89 82.85,104.99 74.37,105.08 65.89,105.18 57.42,105.28 48.94,105.38 40.47,105.48 31.99,105.58 23.43,105.65 14.87,105.73 9.26,102.66 3.65,99.58 2.08,93.68 0.51,87.78 0.29,81.64 0.07,75.51 0.11,69.38 0.16,63.26 0.09,57.13 0.03,50.99 -0.17,44.86 -0.38,38.73 -0.59,32.59 -0.79,26.46 -0.96,20.20 -1.13,13.94 1.98,8.89 5.09,3.84 12.70,2.37 20.30,0.90 28.50,0.63 36.69,0.35 45.05,0.29 53.40,0.23 61.80,0.22 70.20,0.21 78.61,0.21 87.02,0.21 95.43,0.11 103.85,0.02 112.26,-0.18 120.67,-0.38 129.09,-0.58 137.50,-0.78 145.92,-0.98 154.33,-1.18 162.74,-1.38 171.16,-1.58 179.66,-1.75 188.16,-1.93 193.77,1.09 199.37,4.13 201.01,10.15 202.64,16.16 202.95,22.44 203.26,28.72 203.32,35.00 203.37,41.28 203.53,47.57 203.69,53.86 203.99,60.16 204.30,66.45 204.65,74.90 204.99,83.35 204.94,83.76 204.88,84.17 204.69,84.54 204.51,84.91 204.21,85.20 203.92,85.49 203.55,85.67 203.17,85.86 202.76,85.91 202.35,85.96 201.94,85.88 201.54,85.80 201.18,85.60 200.82,85.39 200.54,85.08 200.27,84.77 200.10,84.39 199.94,84.01 199.91,83.59 199.88,83.18 199.98,82.78 200.08,82.38 200.31,82.03 200.53,81.68 200.86,81.42 201.18,81.17 201.57,81.02 201.96,80.88 202.38,80.87 202.79,80.86 203.19,80.99 203.58,81.11 203.92,81.36 204.25,81.60 204.49,81.94 204.73,82.28 204.85,82.67 204.97,83.07 204.96,83.48 204.95,83.90 204.80,84.29 204.66,84.67 204.40,85.00 204.13,85.32 203.78,85.54 203.43,85.76 203.03,85.86 202.63,85.96 202.21,85.92 201.80,85.89 201.42,85.72 201.04,85.55 200.73,85.28 200.43,85.00 200.23,84.64 200.02,84.27 199.95,83.87 199.87,83.46 199.87,83.46 199.87,83.46 199.85,75.00 199.82,66.55 199.84,60.26 199.86,53.96 199.70,47.69 199.55,41.42 199.17,35.23 198.80,29.04 198.23,23.21 197.66,17.37 196.67,12.69 195.68,8.00 191.78,5.87 187.87,3.74 179.55,3.76 171.22,3.77 162.80,3.77 154.39,3.76 145.97,3.75 137.55,3.75 129.14,3.74 120.72,3.73 112.31,3.73 103.89,3.72 95.48,3.82 87.06,3.92 78.66,4.12 70.25,4.33 61.87,4.54 53.49,4.76 45.20,5.03 36.92,5.29 29.04,5.74 21.16,6.19 14.90,6.99 8.64,7.80 6.57,11.09 4.50,14.38 4.41,20.40 4.32,26.42 4.20,32.56 4.09,38.69 3.97,44.82 3.86,50.96 3.92,57.07 3.98,63.18 4.26,69.21 4.54,75.24 5.02,80.92 5.50,86.60 6.43,91.18 7.36,95.75 11.28,97.89 15.21,100.04 23.60,100.13 31.99,100.21 40.47,100.32 48.95,100.43 57.42,100.54 65.90,100.65 74.37,100.76 82.85,100.87 91.32,100.97 99.80,101.08 108.27,101.09 116.75,101.09 125.22,100.99 133.68,100.89 142.13,100.77 150.57,100.65 158.92,100.49 167.26,100.32 175.20,99.97 183.13,99.62 189.43,98.90 195.73,98.19 197.77,94.98 199.81,91.77 199.80,86.01 199.80,80.25 199.86,75.55 199.92,70.86 199.95,70.59 199.97,70.32 200.06,70.07 200.15,69.81 200.30,69.59 200.45,69.36 200.65,69.18 200.85,68.99 201.08,68.86 201.32,68.73 201.58,68.66 201.84,68.59 202.11,68.59 202.38,68.58 202.64,68.64 202.90,68.70 203.15,68.82 203.39,68.94 203.59,69.11 203.80,69.29 203.96,69.51 204.12,69.72 204.22,69.97 204.32,70.22 204.36,70.49 Z" fill="#ebbb38" stroke="#ebbb38" stroke-width="3.5" pointer-events="none"/></g><g text-align="left" text-anchor="start" fill="#cecece" transform="translate(688.01, 235.56) rotate(0.00, 120.00, 42.00)"><text y="24" letter-spacing="-1.44" font-size="48px" font-family="Caveat Brush" text-align="left" alignment-baseline="central" transform="scale(1.5501053760926293)">/products</text></g><g id="8f43d12e-e3c6-406e-3d3a-b36b7b3a725a_svg" class="tl-centered-g" transform="translate(660.85, 223.27) rotate(0.00, 364.38, 65.91)"><g pointer-events="none" stroke="#ebbb38" stroke-width="4.23" stroke-linecap="round"><line x1="2.11" y1="2.11" x2="726.63" y2="2.11" stroke-dasharray="0.03 6.49" stroke-dashoffset="0"/><line x1="726.63" y1="2.11" x2="726.63" y2="129.70" stroke-dasharray="0.03 6.68" stroke-dashoffset="0"/><line x1="726.63" y1="129.70" x2="2.11" y2="129.70" stroke-dasharray="0.03 6.49" stroke-dashoffset="0"/><line x1="2.11" y1="129.70" x2="2.11" y2="2.11" stroke-dasharray="0.03 6.68" stroke-dashoffset="0"/></g></g><g text-align="left" text-anchor="start" fill="#ebbb38" transform="translate(611.56, 465.55) rotate(0.00, 272.00, 38.00)"><text y="14" letter-spacing="-0.84" font-size="28px" font-family="Caveat Brush" text-align="left" alignment-baseline="central" transform="scale(2.3512626862549695)">&gt; Fetch data from loader</text></g><g id="99ce9e5a-5b11-448c-2300-e497772f64a1_svg" class="tl-centered-g" transform="translate(954.85, 253.85) rotate(0.00, 40.83, 28.46)"><path d="M 0.66,17.92 Q 0.66,17.92 0.67,15.39 0.68,12.86 0.69,9.69 0.70,6.51 2.19,4.22 3.68,1.92 7.93,1.39 12.18,0.86 17.12,0.79 22.07,0.72 27.20,0.76 32.33,0.80 37.50,0.87 42.67,0.94 47.86,1.02 53.04,1.10 58.23,1.18 63.42,1.26 68.60,1.34 73.79,1.42 76.61,2.93 79.42,4.44 80.07,7.30 80.72,10.16 80.81,13.36 80.91,16.57 80.87,19.86 80.83,23.15 80.75,26.47 80.67,29.78 80.58,33.10 80.49,36.42 80.40,39.74 80.31,43.07 80.22,46.39 80.13,49.71 78.62,52.05 77.10,54.38 72.91,54.97 68.72,55.57 63.85,55.71 58.97,55.85 53.93,55.89 48.88,55.92 43.79,55.92 38.69,55.92 33.59,55.92 28.49,55.91 23.38,55.91 18.27,55.90 13.17,55.89 8.06,55.88 5.27,54.39 2.48,52.90 1.77,49.99 1.07,47.08 0.89,43.81 0.72,40.54 0.69,37.17 0.65,33.81 0.65,30.42 0.65,27.03 0.65,23.64 0.66,20.25 0.67,15.69" fill="#345246" pointer-events="none"/><path d="M -0.60,17.92 Q -0.60,17.92 -0.69,15.39 -0.77,12.86 -0.84,9.61 -0.90,6.37 0.91,3.56 2.72,0.75 7.36,0.08 12.00,-0.58 17.02,-0.57 22.05,-0.55 27.19,-0.42 32.33,-0.28 37.51,-0.21 42.69,-0.14 47.87,-0.16 53.06,-0.17 58.25,-0.18 63.44,-0.20 68.67,-0.20 73.90,-0.20 77.19,1.58 80.48,3.36 81.31,6.60 82.15,9.84 82.17,13.19 82.19,16.53 82.05,19.85 81.92,23.17 81.84,26.49 81.76,29.81 81.77,33.13 81.77,36.46 81.77,39.78 81.78,43.11 81.76,46.49 81.74,49.88 79.92,52.71 78.09,55.54 73.51,56.28 68.92,57.02 63.97,57.07 59.01,57.13 53.95,57.07 48.89,57.01 43.79,57.01 38.69,57.02 33.59,57.10 28.49,57.19 23.38,57.28 18.27,57.36 13.12,57.44 7.97,57.51 4.69,55.75 1.42,54.00 0.53,50.71 -0.35,47.42 -0.45,44.01 -0.54,40.60 -0.49,37.21 -0.43,33.82 -0.44,30.43 -0.44,27.03 -0.52,23.64 -0.61,20.24 -0.69,15.69 -0.77,11.13 -0.73,10.89 -0.69,10.66 -0.58,10.45 -0.47,10.24 -0.30,10.08 -0.12,9.92 0.08,9.82 0.30,9.72 0.53,9.70 0.77,9.67 1.00,9.72 1.23,9.77 1.43,9.90 1.64,10.02 1.79,10.20 1.94,10.38 2.03,10.60 2.12,10.82 2.13,11.06 2.14,11.30 2.08,11.52 2.01,11.75 1.88,11.95 1.74,12.14 1.56,12.29 1.37,12.43 1.14,12.50 0.92,12.58 0.68,12.58 0.44,12.58 0.22,12.50 0.00,12.42 -0.18,12.28 -0.37,12.14 -0.50,11.94 -0.64,11.74 -0.70,11.52 -0.76,11.29 -0.75,11.05 -0.73,10.81 -0.65,10.59 -0.56,10.37 -0.40,10.19 -0.25,10.01 -0.05,9.89 0.15,9.77 0.38,9.72 0.61,9.67 0.85,9.70 1.08,9.72 1.30,9.82 1.51,9.92 1.68,10.09 1.85,10.25 1.96,10.46 2.07,10.67 2.11,10.90 2.15,11.14 2.15,11.14 2.15,11.14 2.04,15.69 1.94,20.25 1.84,23.64 1.74,27.03 1.74,30.41 1.74,33.80 1.87,37.13 2.00,40.47 2.24,43.60 2.49,46.74 3.01,49.27 3.53,51.80 5.84,53.03 8.15,54.26 13.21,54.35 18.28,54.43 23.38,54.53 28.49,54.63 33.59,54.73 38.69,54.83 43.78,54.83 48.87,54.82 53.90,54.70 58.94,54.58 63.73,54.35 68.52,54.12 72.32,53.67 76.12,53.23 77.32,51.39 78.52,49.54 78.68,46.28 78.85,43.03 79.03,39.71 79.21,36.39 79.40,33.07 79.58,29.76 79.65,26.45 79.73,23.14 79.68,19.87 79.63,16.61 79.46,13.54 79.29,10.48 78.82,8.00 78.35,5.52 76.02,4.28 73.68,3.05 68.54,2.88 63.39,2.72 58.21,2.55 53.02,2.38 47.84,2.20 42.66,2.03 37.49,1.96 32.32,1.89 27.20,1.94 22.09,1.99 17.22,2.16 12.35,2.32 8.50,2.70 4.65,3.08 3.48,4.87 2.31,6.66 2.22,9.77 2.14,12.87 2.04,15.40 1.94,17.93 1.92,18.08 1.91,18.23 1.85,18.38 1.79,18.52 1.71,18.65 1.62,18.77 1.50,18.88 1.39,18.98 1.25,19.05 1.11,19.12 0.96,19.16 0.81,19.19 0.66,19.19 0.51,19.19 0.36,19.16 0.21,19.12 0.07,19.05 -0.05,18.97 -0.17,18.87 -0.29,18.77 -0.37,18.64 -0.46,18.51 -0.51,18.37 -0.57,18.23 -0.59,18.07 Z" fill="#36a64c" stroke="#36a64c" stroke-width="2" pointer-events="none"/></g><g id="b71f6ea4-f45b-4c4f-3d8a-b47080c8bdfc_svg" class="tl-centered-g" transform="translate(1060.50, 252.06) rotate(0.00, 40.83, 28.46)"><path d="M 1.20,18.49 Q 1.20,18.49 1.23,16.03 1.27,13.57 1.31,10.49 1.35,7.40 2.85,5.12 4.35,2.85 8.51,2.23 12.66,1.60 17.50,1.40 22.33,1.20 27.34,1.11 32.35,1.01 37.40,0.95 42.45,0.88 47.51,0.82 52.57,0.76 57.63,0.71 62.70,0.65 67.76,0.59 72.83,0.54 75.61,2.01 78.39,3.49 79.09,6.36 79.79,9.23 79.95,12.46 80.12,15.69 80.15,19.01 80.18,22.33 80.17,25.68 80.17,29.02 80.15,32.37 80.14,35.72 80.12,39.07 80.11,42.42 80.09,45.77 80.07,49.13 78.58,51.47 77.08,53.81 72.91,54.42 68.73,55.02 63.87,55.17 59.01,55.33 53.98,55.37 48.94,55.42 43.87,55.43 38.79,55.45 33.70,55.45 28.61,55.46 23.51,55.47 18.42,55.47 13.33,55.48 8.23,55.48 5.45,53.99 2.66,52.50 1.98,49.67 1.30,46.83 1.16,43.65 1.02,40.46 1.02,37.19 1.02,33.93 1.05,30.63 1.09,27.34 1.13,24.04 1.17,20.75 1.23,16.32" fill="#345246" pointer-events="none"/><path d="M -0.07,18.47 Q -0.07,18.47 -0.13,16.01 -0.19,13.55 -0.22,10.40 -0.25,7.24 1.55,4.47 3.35,1.70 7.90,0.93 12.45,0.15 17.36,0.04 22.28,-0.07 27.30,-0.07 32.33,-0.07 37.38,-0.13 42.43,-0.20 47.49,-0.35 52.56,-0.50 57.62,-0.65 62.68,-0.80 67.80,-0.94 72.91,-1.08 76.18,0.65 79.45,2.39 80.33,5.64 81.21,8.89 81.30,12.26 81.39,15.63 81.33,18.98 81.27,22.32 81.26,25.67 81.26,29.02 81.34,32.37 81.42,35.73 81.49,39.08 81.57,42.43 81.63,45.85 81.68,49.27 79.88,52.11 78.07,54.96 73.51,55.71 68.94,56.47 64.00,56.54 59.05,56.61 54.00,56.56 48.95,56.51 43.87,56.53 38.79,56.54 33.70,56.64 28.61,56.74 23.52,56.84 18.42,56.94 13.28,57.02 8.14,57.11 4.87,55.35 1.60,53.60 0.74,50.38 -0.11,47.16 -0.18,43.84 -0.24,40.52 -0.15,37.22 -0.06,33.93 -0.03,30.63 -0.00,27.33 -0.05,24.03 -0.10,20.73 -0.13,16.30 -0.17,11.87 -0.12,11.64 -0.08,11.40 0.02,11.19 0.14,10.99 0.31,10.83 0.48,10.67 0.70,10.57 0.92,10.47 1.15,10.45 1.39,10.43 1.62,10.48 1.85,10.54 2.05,10.66 2.25,10.79 2.40,10.97 2.55,11.15 2.64,11.37 2.72,11.59 2.73,11.83 2.74,12.07 2.68,12.29 2.61,12.52 2.47,12.72 2.34,12.91 2.15,13.05 1.96,13.19 1.73,13.26 1.51,13.34 1.27,13.33 1.03,13.33 0.81,13.25 0.59,13.17 0.40,13.03 0.21,12.88 0.08,12.68 -0.04,12.49 -0.10,12.26 -0.16,12.03 -0.14,11.79 -0.13,11.55 -0.04,11.34 0.04,11.12 0.20,10.94 0.36,10.76 0.56,10.64 0.77,10.52 1.00,10.47 1.23,10.43 1.46,10.45 1.70,10.48 1.91,10.59 2.13,10.69 2.30,10.85 2.47,11.02 2.57,11.23 2.68,11.44 2.72,11.67 2.75,11.91 2.75,11.91 2.75,11.91 2.60,16.34 2.45,20.76 2.31,24.06 2.18,27.35 2.15,30.64 2.11,33.92 2.21,37.17 2.30,40.41 2.51,43.45 2.73,46.49 3.22,48.95 3.71,51.41 6.02,52.63 8.33,53.85 13.37,53.93 18.42,54.01 23.51,54.10 28.61,54.18 33.69,54.27 38.78,54.35 43.86,54.34 48.94,54.32 53.95,54.19 58.97,54.05 63.75,53.81 68.52,53.57 72.31,53.12 76.09,52.67 77.28,50.82 78.46,48.98 78.55,45.70 78.64,42.42 78.75,39.07 78.86,35.72 78.97,32.37 79.07,29.02 79.08,25.68 79.08,22.34 78.96,19.05 78.84,15.76 78.60,12.67 78.36,9.57 77.85,7.08 77.34,4.59 75.05,3.37 72.75,2.16 67.73,2.14 62.72,2.11 57.65,2.08 52.58,2.04 47.52,2.01 42.46,1.98 37.41,2.04 32.37,2.11 27.38,2.29 22.39,2.48 17.63,2.76 12.88,3.05 9.12,3.52 5.35,4.00 4.16,5.78 2.96,7.56 2.84,10.58 2.73,13.59 2.60,16.05 2.48,18.51 2.46,18.66 2.44,18.81 2.38,18.95 2.32,19.10 2.23,19.22 2.14,19.35 2.03,19.45 1.91,19.55 1.77,19.62 1.64,19.69 1.49,19.72 1.34,19.76 1.18,19.76 1.03,19.76 0.88,19.72 0.73,19.68 0.59,19.60 0.46,19.53 0.34,19.43 0.23,19.32 0.14,19.19 0.06,19.07 0.01,18.92 -0.04,18.78 -0.05,18.62 Z" fill="#36a64c" stroke="#36a64c" stroke-width="2" pointer-events="none"/></g><g id="18ee1c2e-bfc5-4e1a-3e56-3248904c0b63_svg" class="tl-centered-g" transform="translate(1162.95, 239.65) rotate(0.00, 100.05, 49.99)"><path d="M 200.36,69.68 Q 200.36,69.68 200.49,74.49 200.63,79.29 200.76,85.37 200.89,91.44 199.03,95.01 197.17,98.59 189.98,99.51 182.80,100.43 174.53,100.52 166.26,100.62 157.70,100.56 149.13,100.50 140.49,100.41 131.85,100.31 123.19,100.21 114.53,100.10 105.87,100.06 97.20,100.01 88.53,100.02 79.86,100.03 71.20,100.04 62.53,100.05 53.86,100.06 45.19,100.07 36.52,100.08 27.85,100.09 19.16,100.09 10.47,100.10 6.26,98.25 2.04,96.41 0.90,90.89 -0.23,85.36 -0.41,79.14 -0.59,72.92 -0.59,66.55 -0.58,60.17 -0.62,53.75 -0.66,47.34 -0.78,40.90 -0.90,34.47 -1.02,28.04 -1.14,21.61 -1.25,15.14 -1.36,8.67 0.49,4.99 2.36,1.32 9.53,0.36 16.71,-0.59 24.96,-0.70 33.22,-0.81 41.77,-0.77 50.31,-0.73 58.94,-0.64 67.56,-0.56 76.20,-0.47 84.85,-0.37 93.50,-0.34 102.15,-0.30 110.80,-0.32 119.45,-0.35 128.10,-0.37 136.75,-0.39 145.40,-0.41 154.05,-0.43 162.70,-0.45 171.36,-0.48 180.03,-0.49 188.70,-0.51 192.91,1.32 197.12,3.15 198.28,8.69 199.44,14.23 199.65,20.47 199.86,26.71 199.88,33.10 199.90,39.49 199.96,45.93 200.03,52.37 200.18,58.81 200.33,65.26 200.49,73.92 200.65,82.59 200.62,82.82 200.58,83.05 200.47,83.26 200.36,83.47 200.19,83.64 200.02,83.80 199.81,83.90 199.59,84.01 199.36,84.03 199.12,84.06 198.89,84.01 198.66,83.96 198.45,83.84 198.25,83.72 198.09,83.54 197.94,83.36 197.85,83.14 197.76,82.92 197.75,82.69 197.73,82.45 197.79,82.22 197.85,81.99 197.99,81.80 198.12,81.60 198.30,81.45 198.49,81.31 198.72,81.23 198.94,81.15 199.18,81.15 199.41,81.15 199.64,81.22 199.86,81.30 200.05,81.44 200.24,81.58 200.38,81.78 200.51,81.97 200.58,82.20 200.64,82.43 200.63,82.66 200.62,82.90 200.53,83.12 200.45,83.34 200.30,83.52 200.14,83.71 199.94,83.83 199.74,83.95 199.51,84.01 199.28,84.06 199.04,84.04 198.81,84.01 198.59,83.91 198.38,83.82 198.20,83.65 198.03,83.49 197.92,83.28 197.80,83.08 197.76,82.84 197.72,82.61 197.72,82.61 197.72,82.61 197.75,73.95 197.77,65.29 197.81,58.84 197.84,52.39 197.78,45.96 197.71,39.53 197.51,33.18 197.30,26.83 196.93,20.80 196.57,14.77 195.76,9.93 194.96,5.09 191.78,3.92 188.60,2.76 179.97,2.67 171.34,2.58 162.69,2.48 154.04,2.38 145.39,2.29 136.74,2.19 128.09,2.10 119.44,2.00 110.79,1.90 102.14,1.81 93.49,1.77 84.84,1.73 76.20,1.76 67.55,1.78 58.93,1.82 50.32,1.85 41.80,1.93 33.28,2.00 25.16,2.23 17.05,2.45 10.58,3.03 4.11,3.62 3.00,6.20 1.90,8.79 1.84,15.19 1.78,21.59 1.71,28.03 1.64,34.46 1.58,40.89 1.52,47.32 1.56,53.73 1.60,60.14 1.77,66.48 1.95,72.81 2.30,78.82 2.64,84.83 3.43,89.66 4.21,94.49 7.39,95.65 10.58,96.81 19.23,96.92 27.87,97.02 36.54,97.13 45.21,97.24 53.88,97.35 62.54,97.46 71.21,97.56 79.88,97.67 88.55,97.78 97.21,97.89 105.88,97.94 114.54,97.99 123.20,97.97 131.86,97.96 140.50,97.94 149.13,97.91 157.67,97.85 166.21,97.79 174.34,97.59 182.47,97.38 188.95,96.83 195.43,96.28 196.53,93.80 197.62,91.31 197.66,85.31 197.70,79.32 197.75,74.51 197.81,69.70 197.82,69.55 197.84,69.39 197.90,69.25 197.95,69.10 198.04,68.98 198.12,68.85 198.24,68.75 198.35,68.64 198.49,68.57 198.62,68.50 198.77,68.46 198.92,68.42 199.08,68.42 199.23,68.42 199.38,68.45 199.53,68.49 199.67,68.56 199.80,68.63 199.92,68.73 200.04,68.83 200.12,68.96 200.21,69.09 200.27,69.23 200.32,69.37 200.34,69.53 Z" fill="#ebbb38" stroke="#ebbb38" stroke-width="2" pointer-events="none"/></g><g text-align="left" text-anchor="start" fill="#cecece" transform="translate(1179.30, 248.46) rotate(0.00, 41.00, 19.00)"><text y="14" letter-spacing="-0.84" font-size="28px" font-family="Caveat Brush" text-align="left" alignment-baseline="central" transform="translate(0, 0)">loader()</text></g><g text-align="left" text-anchor="start" fill="#cecece" transform="translate(630.67, 126.08) rotate(0.00, 29.50, 17.50)"><text y="14" letter-spacing="-0.84" font-size="28px" font-family="Caveat Brush" text-align="left" alignment-baseline="central" transform="scale(0.8818427620532716)">server</text></g><g text-align="left" text-anchor="start" fill="#ebbb38" transform="translate(628.36, 90.63) rotate(0.00, 122.00, 25.50)"><text y="14" letter-spacing="-0.84" font-size="28px" font-family="Caveat Brush" text-align="left" alignment-baseline="central" transform="scale(1.4639668915507422)">Remix Framework</text></g><g text-align="left" text-anchor="start" fill="#ebbb38" transform="translate(614.80, 532.67) rotate(0.00, 258.50, 38.00)"><text y="14" letter-spacing="-0.84" font-size="28px" font-family="Caveat Brush" text-align="left" alignment-baseline="central" transform="scale(2.3512626862549695)">&gt; Get JS for Component</text></g><g id="7ad5ddc6-014f-427b-2be9-402da37a326e_svg" class="tl-centered-g" transform="translate(390.83, 331.52) rotate(0.00, 371.17, 59.70)"><defs><mask id="7ad5ddc6-014f-427b-2be9-402da37a326e_clip"><rect x="-100" y="-100" width="942.34" height="319.39" fill="white"/><rect x="378.88" y="115.02" width="0" height="0" rx="4" ry="4" fill="black" opacity="1"/></mask></defs><g pointer-events="none" opacity="1" mask=""><path d="M -40.17 58.27 A 918.89 918.89 0 0 0 778.97 -21.89" fill="none" stroke="#36a64c" stroke-width="6.66" stroke-dasharray="none" stroke-dashoffset="none" stroke-linecap="round" stroke-linejoin="round" pointer-events="none"/><g><path d="M 750.98,-21.081101933927226 L 778.97,-21.89 765.67,2.7530393992071396" fill="none" stroke="#36a64c" stroke-width="6.66" stroke-linecap="round" stroke-linejoin="round" pointer-events="none"/></g></g></g><g text-align="left" text-anchor="start" fill="#cecece" transform="translate(1178.87, 286.60) rotate(0.00, 84.50, 19.00)"><text y="14" letter-spacing="-0.84" font-size="28px" font-family="Caveat Brush" text-align="left" alignment-baseline="central" transform="translate(0, 0)">BrowseProducts()</text></g></svg>