<svg xmlns="http://www.w3.org/2000/svg" viewBox="0 0 1504 688" width="1472" height="656" style="background-color: transparent;"><defs><style>@import url('https://fonts.googleapis.com/css2?family=Caveat+Brush&amp;family=Source+Code+Pro&amp;family=Source+Sans+Pro&amp;family=Crimson+Pro&amp;display=block');</style></defs><g id="c286159d-3cd8-4d6d-2ca8-8004c36d8abf_svg" class="tl-centered-g" transform="translate(16.00, 16.00) rotate(0.00, 736.00, 328.00)"><g pointer-events="none" stroke="transparent" stroke-width="4.23" stroke-linecap="round"><line x1="2.11" y1="2.11" x2="1469.88" y2="2.11" stroke-dasharray="0.03 6.46" stroke-dashoffset="0"/><line x1="1469.88" y1="2.11" x2="1469.88" y2="653.88" stroke-dasharray="0.03 6.48" stroke-dashoffset="0"/><line x1="1469.88" y1="653.88" x2="2.11" y2="653.88" stroke-dasharray="0.03 6.46" stroke-dashoffset="0"/><line x1="2.11" y1="653.88" x2="2.11" y2="2.11" stroke-dasharray="0.03 6.48" stroke-dashoffset="0"/></g></g><g id="f52a5e6c-4c6b-42ab-27ac-01a9ccb145db_svg" class="tl-centered-g" transform="translate(543.18, 122.95) rotate(0.00, 24.68, 235.26)"><g opacity="1"><path d="M 22.26,0.21 Q 22.26,0.21 21.15,0.48 20.04,0.75 18.93,1.31 17.81,1.88 16.66,2.70 15.50,3.51 14.24,4.50 12.97,5.50 11.78,6.54 10.58,7.59 9.58,8.56 8.58,9.53 7.67,10.50 6.76,11.48 5.95,12.44 5.13,13.40 4.49,14.26 3.85,15.13 3.40,15.93 2.95,16.73 2.66,17.57 2.37,18.41 2.21,19.37 2.04,20.32 1.95,21.02 1.86,21.72 1.88,22.51 1.91,23.29 2.13,24.08 2.35,24.87 2.81,25.68 3.27,26.49 3.92,27.38 4.57,28.26 5.38,29.20 6.19,30.14 7.12,31.11 8.06,32.08 9.05,33.01 10.04,33.94 11.22,34.88 12.39,35.81 13.71,36.72 15.03,37.62 16.27,38.42 17.51,39.22 18.61,39.89 19.71,40.55 20.73,41.13 21.74,41.72 22.70,42.30 23.66,42.88 24.56,43.46 25.46,44.05 26.30,44.62 27.15,45.20 27.93,45.78 28.70,46.35 29.40,46.94 30.09,47.53 30.70,48.17 31.31,48.80 31.82,49.46 32.32,50.13 32.72,50.81 33.12,51.49 33.44,52.24 33.76,53.00 34.00,53.90 34.23,54.80 34.37,55.82 34.51,56.83 34.58,57.85 34.66,58.87 34.58,59.88 34.50,60.89 34.06,62.00 33.62,63.11 32.81,64.36 32.00,65.60 30.99,66.88 29.99,68.16 28.81,69.54 27.63,70.92 25.97,72.70 24.31,74.48 23.12,75.77 21.93,77.07 20.75,78.35 19.57,79.63 18.61,80.72 17.64,81.81 16.84,82.77 16.04,83.74 15.29,84.73 14.54,85.73 13.91,86.72 13.27,87.71 12.74,88.66 12.21,89.60 11.81,90.46 11.42,91.33 11.16,92.19 10.91,93.05 10.76,93.89 10.62,94.73 10.55,95.57 10.47,96.41 10.48,97.25 10.49,98.09 10.70,98.85 10.92,99.60 11.43,100.28 11.94,100.96 12.78,101.65 13.62,102.34 14.76,103.04 15.90,103.75 17.23,104.45 18.55,105.14 20.03,105.86 21.50,106.59 23.08,107.32 24.66,108.05 26.12,108.69 27.57,109.34 28.82,109.89 30.06,110.43 31.23,110.98 32.40,111.53 33.50,112.11 34.60,112.69 35.56,113.24 36.51,113.78 37.27,114.31 38.03,114.84 38.60,115.45 39.17,116.05 39.58,116.73 39.98,117.41 40.23,118.14 40.47,118.88 40.61,119.70 40.74,120.53 40.63,121.46 40.51,122.38 39.95,123.49 39.38,124.60 38.32,125.91 37.25,127.23 35.21,129.19 33.18,131.16 31.62,132.58 30.07,133.99 27.85,135.84 25.63,137.68 23.95,139.05 22.28,140.42 20.71,141.67 19.15,142.92 17.58,144.18 16.00,145.44 14.35,146.81 12.70,148.18 11.43,149.33 10.16,150.48 8.96,151.62 7.76,152.76 6.61,153.93 5.46,155.10 4.65,156.13 3.84,157.16 3.21,158.16 2.59,159.17 2.11,160.13 1.63,161.10 1.29,162.04 0.94,162.98 0.73,163.86 0.52,164.74 0.40,165.52 0.28,166.29 0.22,167.04 0.16,167.79 0.18,168.56 0.20,169.34 0.43,170.06 0.65,170.79 1.15,171.45 1.65,172.12 2.43,172.80 3.22,173.48 4.24,174.23 5.26,174.99 6.45,175.78 7.65,176.58 8.99,177.42 10.34,178.26 11.82,179.20 13.30,180.14 14.81,181.21 16.33,182.27 17.77,183.43 19.22,184.59 20.62,185.95 22.03,187.31 23.31,188.83 24.59,190.34 25.61,191.87 26.64,193.40 27.42,194.95 28.20,196.50 28.77,198.09 29.33,199.69 29.80,201.94 30.27,204.19 30.53,205.83 30.79,207.48 30.94,209.27 31.08,211.05 31.03,212.92 30.97,214.78 30.63,216.61 30.28,218.45 29.68,220.30 29.07,222.14 28.33,223.92 27.58,225.70 26.90,227.16 26.22,228.62 25.49,229.93 24.77,231.24 24.01,232.54 23.25,233.84 22.63,234.93 22.00,236.02 21.52,236.89 21.03,237.77 20.69,238.48 20.35,239.18 20.14,239.78 19.93,240.37 19.82,240.87 19.71,241.36 19.76,241.81 19.81,242.26 20.25,242.73 20.70,243.21 21.58,243.73 22.47,244.24 23.74,244.80 25.02,245.36 26.65,245.95 28.29,246.55 29.98,247.12 31.68,247.70 33.24,248.23 34.80,248.75 36.27,249.28 37.74,249.81 39.14,250.35 40.54,250.89 41.81,251.45 43.08,252.01 44.10,252.57 45.13,253.13 45.91,253.62 46.69,254.11 47.25,254.48 47.81,254.85 48.15,255.08 48.50,255.31 48.69,255.47 48.89,255.63 48.97,255.84 49.06,256.06 48.99,256.53 48.93,257.01 48.64,257.82 48.35,258.63 47.86,259.72 47.36,260.81 46.65,262.09 45.95,263.37 45.07,264.79 44.19,266.21 43.18,267.79 42.17,269.37 40.96,271.13 39.75,272.89 38.41,274.73 37.08,276.57 35.76,278.32 34.45,280.06 33.18,281.66 31.90,283.27 30.69,284.78 29.48,286.29 28.62,287.36 27.75,288.43 26.78,289.63 25.80,290.83 25.16,291.66 24.52,292.50 24.03,293.26 23.54,294.02 23.20,294.69 22.87,295.37 22.65,295.99 22.43,296.62 22.31,297.22 22.19,297.82 22.13,298.41 22.06,299.00 22.19,299.55 22.33,300.10 22.75,300.68 23.16,301.25 23.72,301.88 24.29,302.50 24.99,303.14 25.69,303.79 26.43,304.42 27.17,305.05 27.82,305.68 28.48,306.31 29.08,306.97 29.68,307.62 30.20,308.32 30.73,309.01 31.17,309.81 31.61,310.61 31.93,311.54 32.24,312.48 32.43,313.57 32.62,314.66 32.53,316.08 32.44,317.50 31.79,319.34 31.15,321.19 29.88,323.41 28.62,325.62 26.83,328.12 25.04,330.63 23.08,333.11 21.12,335.59 19.18,337.93 17.23,340.26 15.44,342.40 13.65,344.54 12.09,346.43 10.53,348.31 9.16,349.96 7.79,351.60 6.67,352.97 5.55,354.35 4.70,355.50 3.86,356.65 3.32,357.68 2.78,358.71 2.47,359.65 2.17,360.59 2.19,361.44 2.22,362.30 2.73,363.02 3.24,363.74 4.30,364.51 5.36,365.28 6.69,365.96 8.03,366.65 9.72,367.35 11.40,368.06 13.28,368.84 15.16,369.61 16.94,370.34 18.73,371.07 20.33,371.77 21.93,372.46 23.43,373.13 24.93,373.80 26.34,374.51 27.74,375.22 28.98,376.02 30.21,376.83 31.10,377.66 31.99,378.50 32.52,379.41 33.06,380.32 33.33,381.39 33.61,382.47 33.60,383.77 33.60,385.07 33.19,386.62 32.78,388.16 32.07,389.76 31.36,391.36 30.58,392.83 29.81,394.30 29.01,395.72 28.21,397.13 27.41,398.54 26.61,399.95 25.91,401.27 25.22,402.59 24.66,403.87 24.10,405.15 23.68,406.43 23.27,407.71 23.01,408.90 22.76,410.09 22.67,411.17 22.59,412.25 22.77,413.24 22.96,414.23 23.48,415.18 24.00,416.13 24.77,417.03 25.54,417.93 26.40,418.70 27.26,419.48 28.09,420.13 28.93,420.78 29.70,421.34 30.48,421.91 31.23,422.48 31.99,423.05 32.66,423.76 33.33,424.48 33.74,425.05 34.14,425.62 34.40,426.28 34.66,426.94 34.80,427.75 34.94,428.56 34.85,429.62 34.77,430.69 34.34,431.91 33.91,433.13 33.35,434.32 32.79,435.51 32.20,436.69 31.60,437.86 30.92,439.13 30.23,440.40 29.54,441.67 28.86,442.94 28.31,444.07 27.75,445.20 27.33,446.19 26.91,447.19 26.64,448.19 26.36,449.19 26.21,450.25 26.05,451.32 25.97,452.39 25.88,453.47 25.84,454.55 25.79,455.63 25.76,456.72 25.74,457.80 25.75,458.87 25.75,459.94 25.82,461.03 25.89,462.11 26.00,463.16 26.12,464.21 26.25,465.13 26.38,466.05 26.52,466.80 26.65,467.56 26.77,468.15 26.88,468.74 27.04,469.63 27.21,470.53 27.21,470.53" fill="none" stroke="none" stroke-width="4" stroke-linejoin="round" stroke-linecap="round" pointer-events="none"/><path d="M 22.26,0.21 Q 22.26,0.21 21.15,0.48 20.04,0.75 18.93,1.31 17.81,1.88 16.66,2.70 15.50,3.51 14.24,4.50 12.97,5.50 11.78,6.54 10.58,7.59 9.58,8.56 8.58,9.53 7.67,10.50 6.76,11.48 5.95,12.44 5.13,13.40 4.49,14.26 3.85,15.13 3.40,15.93 2.95,16.73 2.66,17.57 2.37,18.41 2.21,19.37 2.04,20.32 1.95,21.02 1.86,21.72 1.88,22.51 1.91,23.29 2.13,24.08 2.35,24.87 2.81,25.68 3.27,26.49 3.92,27.38 4.57,28.26 5.38,29.20 6.19,30.14 7.12,31.11 8.06,32.08 9.05,33.01 10.04,33.94 11.22,34.88 12.39,35.81 13.71,36.72 15.03,37.62 16.27,38.42 17.51,39.22 18.61,39.89 19.71,40.55 20.73,41.13 21.74,41.72 22.70,42.30 23.66,42.88 24.56,43.46 25.46,44.05 26.30,44.62 27.15,45.20 27.93,45.78 28.70,46.35 29.40,46.94 30.09,47.53 30.70,48.17 31.31,48.80 31.82,49.46 32.32,50.13 32.72,50.81 33.12,51.49 33.44,52.24 33.76,53.00 34.00,53.90 34.23,54.80 34.37,55.82 34.51,56.83 34.58,57.85 34.66,58.87 34.58,59.88 34.50,60.89 34.06,62.00 33.62,63.11 32.81,64.36 32.00,65.60 30.99,66.88 29.99,68.16 28.81,69.54 27.63,70.92 25.97,72.70 24.31,74.48 23.12,75.77 21.93,77.07 20.75,78.35 19.57,79.63 18.61,80.72 17.64,81.81 16.84,82.77 16.04,83.74 15.29,84.73 14.54,85.73 13.91,86.72 13.27,87.71 12.74,88.66 12.21,89.60 11.81,90.46 11.42,91.33 11.16,92.19 10.91,93.05 10.76,93.89 10.62,94.73 10.55,95.57 10.47,96.41 10.48,97.25 10.49,98.09 10.70,98.85 10.92,99.60 11.43,100.28 11.94,100.96 12.78,101.65 13.62,102.34 14.76,103.04 15.90,103.75 17.23,104.45 18.55,105.14 20.03,105.86 21.50,106.59 23.08,107.32 24.66,108.05 26.12,108.69 27.57,109.34 28.82,109.89 30.06,110.43 31.23,110.98 32.40,111.53 33.50,112.11 34.60,112.69 35.56,113.24 36.51,113.78 37.27,114.31 38.03,114.84 38.60,115.45 39.17,116.05 39.58,116.73 39.98,117.41 40.23,118.14 40.47,118.88 40.61,119.70 40.74,120.53 40.63,121.46 40.51,122.38 39.95,123.49 39.38,124.60 38.32,125.91 37.25,127.23 35.21,129.19 33.18,131.16 31.62,132.58 30.07,133.99 27.85,135.84 25.63,137.68 23.95,139.05 22.28,140.42 20.71,141.67 19.15,142.92 17.58,144.18 16.00,145.44 14.35,146.81 12.70,148.18 11.43,149.33 10.16,150.48 8.96,151.62 7.76,152.76 6.61,153.93 5.46,155.10 4.65,156.13 3.84,157.16 3.21,158.16 2.59,159.17 2.11,160.13 1.63,161.10 1.29,162.04 0.94,162.98 0.73,163.86 0.52,164.74 0.40,165.52 0.28,166.29 0.22,167.04 0.16,167.79 0.18,168.56 0.20,169.34 0.43,170.06 0.65,170.79 1.15,171.45 1.65,172.12 2.43,172.80 3.22,173.48 4.24,174.23 5.26,174.99 6.45,175.78 7.65,176.58 8.99,177.42 10.34,178.26 11.82,179.20 13.30,180.14 14.81,181.21 16.33,182.27 17.77,183.43 19.22,184.59 20.62,185.95 22.03,187.31 23.31,188.83 24.59,190.34 25.61,191.87 26.64,193.40 27.42,194.95 28.20,196.50 28.77,198.09 29.33,199.69 29.80,201.94 30.27,204.19 30.53,205.83 30.79,207.48 30.94,209.27 31.08,211.05 31.03,212.92 30.97,214.78 30.63,216.61 30.28,218.45 29.68,220.30 29.07,222.14 28.33,223.92 27.58,225.70 26.90,227.16 26.22,228.62 25.49,229.93 24.77,231.24 24.01,232.54 23.25,233.84 22.63,234.93 22.00,236.02 21.52,236.89 21.03,237.77 20.69,238.48 20.35,239.18 20.14,239.78 19.93,240.37 19.82,240.87 19.71,241.36 19.76,241.81 19.81,242.26 20.25,242.73 20.70,243.21 21.58,243.73 22.47,244.24 23.74,244.80 25.02,245.36 26.65,245.95 28.29,246.55 29.98,247.12 31.68,247.70 33.24,248.23 34.80,248.75 36.27,249.28 37.74,249.81 39.14,250.35 40.54,250.89 41.81,251.45 43.08,252.01 44.10,252.57 45.13,253.13 45.91,253.62 46.69,254.11 47.25,254.48 47.81,254.85 48.15,255.08 48.50,255.31 48.69,255.47 48.89,255.63 48.97,255.84 49.06,256.06 48.99,256.53 48.93,257.01 48.64,257.82 48.35,258.63 47.86,259.72 47.36,260.81 46.65,262.09 45.95,263.37 45.07,264.79 44.19,266.21 43.18,267.79 42.17,269.37 40.96,271.13 39.75,272.89 38.41,274.73 37.08,276.57 35.76,278.32 34.45,280.06 33.18,281.66 31.90,283.27 30.69,284.78 29.48,286.29 28.62,287.36 27.75,288.43 26.78,289.63 25.80,290.83 25.16,291.66 24.52,292.50 24.03,293.26 23.54,294.02 23.20,294.69 22.87,295.37 22.65,295.99 22.43,296.62 22.31,297.22 22.19,297.82 22.13,298.41 22.06,299.00 22.19,299.55 22.33,300.10 22.75,300.68 23.16,301.25 23.72,301.88 24.29,302.50 24.99,303.14 25.69,303.79 26.43,304.42 27.17,305.05 27.82,305.68 28.48,306.31 29.08,306.97 29.68,307.62 30.20,308.32 30.73,309.01 31.17,309.81 31.61,310.61 31.93,311.54 32.24,312.48 32.43,313.57 32.62,314.66 32.53,316.08 32.44,317.50 31.79,319.34 31.15,321.19 29.88,323.41 28.62,325.62 26.83,328.12 25.04,330.63 23.08,333.11 21.12,335.59 19.18,337.93 17.23,340.26 15.44,342.40 13.65,344.54 12.09,346.43 10.53,348.31 9.16,349.96 7.79,351.60 6.67,352.97 5.55,354.35 4.70,355.50 3.86,356.65 3.32,357.68 2.78,358.71 2.47,359.65 2.17,360.59 2.19,361.44 2.22,362.30 2.73,363.02 3.24,363.74 4.30,364.51 5.36,365.28 6.69,365.96 8.03,366.65 9.72,367.35 11.40,368.06 13.28,368.84 15.16,369.61 16.94,370.34 18.73,371.07 20.33,371.77 21.93,372.46 23.43,373.13 24.93,373.80 26.34,374.51 27.74,375.22 28.98,376.02 30.21,376.83 31.10,377.66 31.99,378.50 32.52,379.41 33.06,380.32 33.33,381.39 33.61,382.47 33.60,383.77 33.60,385.07 33.19,386.62 32.78,388.16 32.07,389.76 31.36,391.36 30.58,392.83 29.81,394.30 29.01,395.72 28.21,397.13 27.41,398.54 26.61,399.95 25.91,401.27 25.22,402.59 24.66,403.87 24.10,405.15 23.68,406.43 23.27,407.71 23.01,408.90 22.76,410.09 22.67,411.17 22.59,412.25 22.77,413.24 22.96,414.23 23.48,415.18 24.00,416.13 24.77,417.03 25.54,417.93 26.40,418.70 27.26,419.48 28.09,420.13 28.93,420.78 29.70,421.34 30.48,421.91 31.23,422.48 31.99,423.05 32.66,423.76 33.33,424.48 33.74,425.05 34.14,425.62 34.40,426.28 34.66,426.94 34.80,427.75 34.94,428.56 34.85,429.62 34.77,430.69 34.34,431.91 33.91,433.13 33.35,434.32 32.79,435.51 32.20,436.69 31.60,437.86 30.92,439.13 30.23,440.40 29.54,441.67 28.86,442.94 28.31,444.07 27.75,445.20 27.33,446.19 26.91,447.19 26.64,448.19 26.36,449.19 26.21,450.25 26.05,451.32 25.97,452.39 25.88,453.47 25.84,454.55 25.79,455.63 25.76,456.72 25.74,457.80 25.75,458.87 25.75,459.94 25.82,461.03 25.89,462.11 26.00,463.16 26.12,464.21 26.25,465.13 26.38,466.05 26.52,466.80 26.65,467.56 26.77,468.15 26.88,468.74 27.04,469.63 27.21,470.53 27.21,470.53" fill="none" stroke="#717d8a" stroke-width="4" stroke-dasharray="0.1 8" stroke-dashoffset="0" stroke-linejoin="round" stroke-linecap="round" pointer-events="none"/></g></g><g id="e27f21b1-3dc2-4ffb-1f5c-b1ee87a37aad_svg" class="tl-centered-g" transform="translate(111.13, 156.77) rotate(0.00, 182.85, 159.67)"><path d="M 275.96,319.03 Q 275.96,319.03 269.64,319.00 263.32,318.98 255.39,318.95 247.47,318.92 239.13,318.89 230.79,318.87 222.34,318.84 213.90,318.81 205.43,318.79 196.96,318.76 188.48,318.76 180.00,318.77 171.52,318.80 163.04,318.84 154.57,318.87 146.09,318.91 137.61,318.94 129.13,318.98 120.65,319.01 112.17,319.05 103.69,319.08 95.21,319.12 86.73,319.15 78.25,319.18 69.77,319.22 61.29,319.25 52.81,319.29 44.33,319.32 35.85,319.36 27.37,319.39 18.86,319.42 10.36,319.45 6.17,317.58 1.97,315.71 0.84,308.60 -0.27,301.49 -0.46,293.28 -0.64,285.07 -0.64,276.59 -0.63,268.11 -0.59,259.55 -0.54,250.99 -0.48,242.41 -0.42,233.83 -0.36,225.25 -0.29,216.66 -0.23,208.08 -0.17,199.49 -0.10,190.91 -0.04,182.32 0.01,173.74 0.08,165.15 0.07,156.56 0.06,147.98 0.05,139.39 0.04,130.81 0.03,122.22 0.02,113.64 0.02,105.05 0.01,96.46 0.00,87.88 -0.00,79.29 -0.01,70.71 -0.02,62.12 -0.03,53.54 -0.04,44.95 -0.04,36.37 -0.05,27.78 -0.06,19.17 -0.06,10.56 1.81,6.35 3.68,2.13 10.68,0.97 17.69,-0.17 25.76,-0.38 33.84,-0.59 42.18,-0.62 50.53,-0.64 58.94,-0.62 67.36,-0.60 75.80,-0.56 84.23,-0.53 92.67,-0.49 101.11,-0.45 109.55,-0.42 117.99,-0.38 126.43,-0.34 134.88,-0.30 143.32,-0.27 151.76,-0.23 160.20,-0.19 168.64,-0.15 177.08,-0.15 185.53,-0.14 193.97,-0.16 202.41,-0.19 210.85,-0.21 219.29,-0.24 227.73,-0.26 236.17,-0.28 244.62,-0.31 253.06,-0.33 261.50,-0.36 269.94,-0.38 278.38,-0.40 286.82,-0.43 295.27,-0.45 303.71,-0.48 312.15,-0.50 320.59,-0.53 329.03,-0.55 337.47,-0.57 345.94,-0.59 354.40,-0.61 358.59,1.25 362.77,3.12 363.93,10.22 365.09,17.32 365.31,25.52 365.54,33.71 365.58,42.19 365.62,50.66 365.62,59.21 365.61,67.75 365.60,76.32 365.58,84.89 365.56,93.46 365.55,102.03 365.53,110.60 365.51,119.18 365.49,127.75 365.47,136.32 365.45,144.89 365.43,153.47 365.49,162.04 365.54,170.61 365.59,179.19 365.65,187.76 365.70,196.33 365.75,204.91 365.81,213.48 365.86,222.05 365.91,230.62 365.97,239.20 366.02,247.77 366.07,256.34 366.13,264.92 366.18,273.49 366.23,282.06 366.29,290.64 366.34,299.23 366.39,307.83 364.52,312.05 362.65,316.26 355.63,317.43 348.60,318.59 340.49,318.81 332.38,319.03 324.00,319.06 315.61,319.10 307.16,319.09 298.71,319.07 290.23,319.05 281.76,319.03 273.28,319.00 264.80,318.98 256.32,318.95 247.84,318.92 239.36,318.89 230.88,318.87 222.40,318.84 213.92,318.81 205.44,318.79 196.96,318.76 188.48,318.76 180.00,318.77 171.52,318.80 163.05,318.84 151.66,318.87 140.28,318.91 140.10,318.88 139.91,318.85 139.75,318.76 139.58,318.67 139.45,318.54 139.32,318.40 139.25,318.23 139.17,318.06 139.15,317.88 139.13,317.69 139.17,317.51 139.21,317.33 139.30,317.17 139.40,317.01 139.54,316.89 139.68,316.77 139.86,316.70 140.03,316.63 140.22,316.62 140.40,316.61 140.58,316.66 140.76,316.71 140.92,316.81 141.07,316.92 141.19,317.06 141.30,317.21 141.36,317.39 141.42,317.57 141.42,317.75 141.42,317.94 141.36,318.12 141.30,318.29 141.19,318.44 141.07,318.59 140.92,318.70 140.77,318.80 140.59,318.85 140.41,318.90 140.22,318.89 140.03,318.88 139.86,318.81 139.68,318.74 139.54,318.62 139.40,318.50 139.30,318.34 139.21,318.18 139.17,318.00 139.13,317.82 139.15,317.63 139.17,317.45 139.25,317.28 139.32,317.11 139.45,316.97 139.58,316.84 139.75,316.75 139.91,316.66 140.10,316.63 140.28,316.60 140.28,316.60 140.28,316.60 151.66,316.63 163.04,316.65 171.52,316.68 180.00,316.71 188.48,316.70 196.96,316.70 205.44,316.66 213.92,316.63 222.40,316.59 230.88,316.56 239.36,316.52 247.84,316.49 256.32,316.45 264.80,316.42 273.28,316.38 281.76,316.35 290.23,316.31 298.70,316.27 307.15,316.22 315.59,316.17 323.94,316.07 332.28,315.98 340.22,315.71 348.16,315.45 354.53,314.73 360.89,314.01 362.00,310.88 363.10,307.74 363.12,299.19 363.13,290.64 363.15,282.07 363.17,273.50 363.19,264.92 363.21,256.35 363.23,247.78 363.25,239.20 363.26,230.63 363.28,222.06 363.30,213.48 363.32,204.91 363.34,196.34 363.36,187.76 363.38,179.19 363.40,170.62 363.42,162.04 363.43,153.47 363.38,144.90 363.33,136.33 363.27,127.75 363.22,119.18 363.17,110.61 363.11,102.03 363.06,93.46 363.00,84.89 362.95,76.33 362.89,67.76 362.82,59.23 362.75,50.69 362.64,42.25 362.53,33.81 362.24,25.78 361.96,17.75 361.24,11.32 360.51,4.88 357.41,3.77 354.31,2.66 345.89,2.63 337.47,2.59 329.03,2.55 320.59,2.52 312.15,2.48 303.71,2.44 295.26,2.40 286.82,2.37 278.38,2.33 269.94,2.29 261.50,2.25 253.06,2.21 244.61,2.18 236.17,2.14 227.73,2.10 219.29,2.06 210.85,2.03 202.41,1.99 193.97,1.95 185.52,1.91 177.08,1.91 168.64,1.90 160.20,1.92 151.76,1.95 143.32,1.97 134.87,2.00 126.43,2.02 117.99,2.04 109.55,2.07 101.11,2.09 92.67,2.12 84.23,2.14 75.80,2.17 67.36,2.20 58.96,2.24 50.55,2.28 42.24,2.36 33.93,2.45 26.03,2.70 18.12,2.96 11.78,3.67 5.44,4.38 4.33,7.52 3.21,10.66 3.15,19.23 3.09,27.79 3.03,36.37 2.97,44.96 2.90,53.55 2.84,62.13 2.77,70.72 2.71,79.30 2.65,87.89 2.58,96.47 2.52,105.06 2.46,113.64 2.39,122.23 2.33,130.81 2.27,139.40 2.20,147.99 2.14,156.57 2.08,165.16 2.08,173.74 2.09,182.33 2.10,190.91 2.11,199.50 2.12,208.08 2.13,216.67 2.14,225.25 2.15,233.84 2.16,242.41 2.17,250.99 2.20,259.54 2.22,268.09 2.29,276.55 2.36,285.00 2.60,293.04 2.84,301.07 3.54,307.52 4.23,313.96 7.34,315.07 10.45,316.17 18.91,316.20 27.37,316.22 35.85,316.24 44.33,316.27 52.81,316.30 61.29,316.33 69.77,316.35 78.25,316.38 86.73,316.41 95.21,316.43 103.68,316.46 112.16,316.49 120.64,316.52 129.12,316.54 137.60,316.57 146.08,316.60 154.56,316.62 163.04,316.65 171.52,316.68 180.00,316.71 188.48,316.70 196.96,316.70 205.43,316.66 213.90,316.63 222.34,316.59 230.79,316.56 239.13,316.52 247.47,316.49 255.39,316.45 263.32,316.42 269.64,316.39 275.96,316.35 276.12,316.37 276.28,316.39 276.43,316.45 276.58,316.51 276.71,316.60 276.85,316.69 276.95,316.81 277.06,316.93 277.14,317.07 277.21,317.22 277.25,317.37 277.29,317.53 277.29,317.69 277.29,317.85 277.25,318.01 277.21,318.17 277.14,318.31 277.06,318.45 276.95,318.57 276.85,318.70 276.71,318.79 276.58,318.88 276.43,318.94 276.28,318.99 276.12,319.01 Z" fill="#cecece" stroke="#cecece" stroke-width="2" pointer-events="none"/></g><g id="670bc38e-d93e-4a8a-075a-3d93899b72e8_svg" class="tl-centered-g" transform="translate(118.51, 165.35) rotate(0.00, 174.19, 20.79)"><path d="M 259.12,41.53 Q 259.12,41.53 252.81,41.53 246.50,41.52 238.58,41.52 230.66,41.51 222.33,41.51 214.00,41.51 205.56,41.51 197.12,41.51 188.66,41.51 180.20,41.51 171.73,41.58 163.26,41.64 154.79,41.71 146.32,41.77 137.85,41.84 129.38,41.91 120.91,41.97 112.43,42.04 103.96,42.10 95.49,42.17 87.02,42.23 78.55,42.30 70.08,42.36 61.61,42.43 53.14,42.49 44.66,42.56 36.19,42.62 27.72,42.69 19.23,42.75 10.73,42.81 6.66,41.15 2.60,39.49 1.44,37.02 0.29,34.55 0.11,32.07 -0.06,29.58 -0.01,27.22 0.03,24.86 0.03,22.54 0.04,20.21 -0.03,17.88 -0.10,15.56 -0.18,13.24 -0.25,10.91 -0.30,8.51 -0.34,6.10 1.49,3.51 3.33,0.91 10.41,0.22 17.49,-0.47 25.55,-0.55 33.62,-0.63 41.98,-0.61 50.34,-0.59 58.78,-0.54 67.22,-0.49 75.68,-0.43 84.14,-0.38 92.60,-0.32 101.07,-0.26 109.53,-0.20 118.00,-0.14 126.47,-0.09 134.93,-0.03 143.40,0.02 151.87,0.08 160.33,0.14 168.80,0.20 177.27,0.19 185.73,0.18 194.20,0.18 202.67,0.17 211.13,0.16 219.60,0.16 228.07,0.15 236.53,0.14 245.00,0.14 253.47,0.13 261.94,0.12 270.40,0.12 278.87,0.11 287.34,0.10 295.80,0.10 304.27,0.09 312.74,0.09 321.20,0.08 329.69,0.08 338.18,0.07 342.24,1.74 346.29,3.40 347.45,5.74 348.62,8.09 348.81,10.42 349.01,12.76 348.98,14.96 348.94,17.16 348.95,19.32 348.96,21.48 349.05,23.64 349.14,25.79 349.23,27.95 349.31,30.10 349.37,32.35 349.43,34.60 347.60,37.14 345.77,39.69 338.68,40.42 331.60,41.15 323.53,41.29 315.47,41.42 307.10,41.45 298.73,41.49 290.29,41.50 281.85,41.50 273.38,41.51 264.92,41.51 256.45,41.51 247.98,41.51 239.51,41.51 231.03,41.51 222.56,41.51 214.09,41.51 205.62,41.51 197.15,41.51 188.68,41.51 180.21,41.51 171.73,41.58 163.26,41.64 151.89,41.72 140.52,41.80 140.34,41.77 140.16,41.74 140.00,41.65 139.84,41.57 139.71,41.44 139.58,41.30 139.51,41.14 139.43,40.97 139.41,40.79 139.39,40.61 139.43,40.43 139.47,40.25 139.56,40.10 139.65,39.94 139.79,39.82 139.93,39.70 140.10,39.63 140.27,39.56 140.45,39.55 140.63,39.54 140.81,39.59 140.99,39.64 141.14,39.74 141.29,39.84 141.40,39.99 141.51,40.13 141.57,40.31 141.63,40.48 141.63,40.66 141.63,40.85 141.57,41.02 141.52,41.19 141.41,41.34 141.30,41.48 141.15,41.59 140.99,41.69 140.82,41.74 140.64,41.79 140.46,41.78 140.28,41.77 140.11,41.70 139.94,41.64 139.80,41.52 139.66,41.40 139.56,41.25 139.47,41.09 139.43,40.91 139.39,40.73 139.41,40.55 139.43,40.37 139.50,40.20 139.58,40.04 139.70,39.90 139.83,39.77 139.99,39.68 140.15,39.60 140.33,39.57 140.51,39.54 140.51,39.54 140.51,39.54 151.88,39.53 163.25,39.51 171.73,39.51 180.20,39.51 188.67,39.45 197.14,39.38 205.61,39.32 214.08,39.25 222.55,39.19 231.03,39.12 239.50,39.06 247.97,38.99 256.44,38.93 264.91,38.86 273.37,38.79 281.83,38.72 290.27,38.65 298.71,38.58 307.06,38.48 315.40,38.38 323.37,38.19 331.34,37.99 337.64,37.64 343.94,37.28 345.09,35.75 346.25,34.22 346.32,32.16 346.39,30.10 346.48,27.94 346.58,25.79 346.68,23.64 346.77,21.49 346.77,19.35 346.76,17.21 346.61,15.13 346.47,13.04 346.21,11.16 345.95,9.27 345.26,7.64 344.57,6.02 341.33,4.69 338.08,3.36 329.64,3.30 321.19,3.25 312.73,3.19 304.26,3.13 295.79,3.07 287.33,3.01 278.86,2.96 270.39,2.90 261.93,2.84 253.46,2.78 244.99,2.72 236.53,2.66 228.06,2.61 219.59,2.55 211.13,2.49 202.66,2.43 194.19,2.37 185.73,2.31 177.26,2.26 168.79,2.20 160.33,2.20 151.86,2.21 143.39,2.22 134.93,2.22 126.46,2.23 117.99,2.24 109.53,2.24 101.06,2.25 92.59,2.26 84.13,2.26 75.67,2.27 67.21,2.28 58.78,2.30 50.34,2.31 42.00,2.35 33.66,2.40 25.69,2.54 17.73,2.68 11.44,3.00 5.14,3.33 3.99,4.90 2.84,6.47 2.75,8.71 2.67,10.94 2.55,13.26 2.44,15.58 2.33,17.89 2.22,20.21 2.22,22.52 2.21,24.82 2.35,27.08 2.48,29.34 2.73,31.38 2.99,33.43 3.67,35.18 4.35,36.93 7.58,38.23 10.81,39.53 19.26,39.52 27.71,39.52 36.18,39.52 44.65,39.52 53.12,39.52 61.60,39.52 70.07,39.52 78.54,39.52 87.01,39.52 95.48,39.52 103.95,39.52 112.43,39.52 120.90,39.52 129.37,39.52 137.84,39.52 146.31,39.51 154.78,39.51 163.25,39.51 171.72,39.51 180.19,39.51 188.65,39.45 197.12,39.38 205.55,39.32 213.99,39.25 222.32,39.19 230.65,39.12 238.57,39.06 246.49,39.00 252.80,38.94 259.11,38.88 259.27,38.90 259.43,38.92 259.58,38.98 259.73,39.03 259.86,39.12 259.99,39.21 260.10,39.33 260.20,39.45 260.28,39.59 260.35,39.73 260.39,39.89 260.43,40.04 260.43,40.20 260.43,40.36 260.40,40.52 260.36,40.67 260.28,40.82 260.21,40.96 260.11,41.08 260.00,41.20 259.87,41.29 259.74,41.38 259.59,41.44 259.44,41.49 259.28,41.51 Z" fill="#cecece" stroke="#cecece" stroke-width="2" pointer-events="none"/></g><g text-align="left" text-anchor="start" fill="#cecece" transform="translate(125.49, 167.17) rotate(0.00, 83.00, 19.00)"><text y="14" letter-spacing="-0.84" font-size="28px" font-family="Caveat Brush" text-align="left" alignment-baseline="central" transform="scale(0.9835139714385606)">site.com/products</text></g><g id="ce847d82-2e2a-4d78-209d-76edc2124be0_svg" class="tl-centered-g" transform="translate(124.80, 218.70) rotate(0.00, 167.42, 1.01)"><defs><mask id="ce847d82-2e2a-4d78-209d-76edc2124be0_clip"><rect x="-100" y="-100" width="534.83" height="202.03" fill="white"/><rect x="167.42" y="1.01" width="0" height="0" rx="4" ry="4" fill="black" opacity="1"/></mask></defs><g pointer-events="none" opacity="1" mask=""><path d="M -0.00,1.00 Q -0.00,1.00 41.84,0.78 83.70,0.56 125.55,0.32 167.41,0.09 209.26,-0.14 251.12,-0.37 292.97,-0.61 334.83,-0.86 334.97,-0.83 335.10,-0.81 335.23,-0.75 335.35,-0.68 335.45,-0.58 335.54,-0.48 335.60,-0.36 335.66,-0.23 335.68,-0.09 335.70,0.04 335.67,0.17 335.64,0.31 335.57,0.43 335.49,0.55 335.39,0.64 335.28,0.73 335.15,0.78 335.03,0.83 334.89,0.84 334.75,0.85 334.61,0.82 334.48,0.78 334.36,0.70 334.25,0.62 334.16,0.51 334.08,0.40 334.03,0.27 333.99,0.14 333.99,0.00 333.98,-0.13 334.03,-0.26 334.07,-0.39 334.16,-0.51 334.24,-0.62 334.35,-0.70 334.47,-0.77 334.60,-0.81 334.74,-0.85 334.88,-0.84 335.02,-0.84 335.14,-0.79 335.27,-0.74 335.38,-0.65 335.49,-0.56 335.56,-0.44 335.63,-0.32 335.66,-0.18 335.69,-0.05 335.68,0.08 335.67,0.22 335.61,0.35 335.55,0.47 335.46,0.58 335.36,0.68 335.24,0.74 335.11,0.81 334.98,0.83 334.84,0.86 334.84,0.86 334.84,0.86 292.99,1.12 251.13,1.39 209.28,1.66 167.42,1.93 125.57,2.20 83.71,2.48 41.86,2.76 0.00,3.05 -0.11,3.03 -0.23,3.02 -0.35,2.98 -0.46,2.93 -0.57,2.86 -0.67,2.79 -0.75,2.70 -0.83,2.61 -0.89,2.50 -0.95,2.39 -0.98,2.27 -1.01,2.15 -1.01,2.03 -1.01,1.91 -0.98,1.79 -0.95,1.67 -0.90,1.56 -0.84,1.45 -0.76,1.36 -0.68,1.26 -0.58,1.19 -0.48,1.12 -0.36,1.08 -0.25,1.03 -0.12,1.02 Z" fill="#cecece" stroke="#cecece" stroke-width="2.11" stroke-dasharray="none" stroke-dashoffset="none" stroke-linecap="round" stroke-linejoin="round" pointer-events="stroke"/></g></g><g text-align="left" text-anchor="start" fill="#cecece" transform="translate(237.53, 89.59) rotate(0.00, 55.00, 32.50)"><text y="14" letter-spacing="-0.84" font-size="28px" font-family="Caveat Brush" text-align="left" alignment-baseline="central" transform="scale(1.956587563795696)">client</text></g><g text-align="left" text-anchor="start" fill="#ebbb38" transform="translate(196.62, 166.99) rotate(0.00, 47.50, 19.00)"><text y="14" letter-spacing="-0.84" font-size="28px" font-family="Caveat Brush" text-align="left" alignment-baseline="central" transform="scale(0.9835139714385606)">/products</text></g><g text-align="left" text-anchor="start" fill="#1e78c8" transform="translate(131.73, 230.14) rotate(0.00, 63.00, 30.50)"><text y="14" letter-spacing="-0.84" font-size="28px" font-family="Source Code Pro" text-align="left" alignment-baseline="central" transform="scale(1.821680333378142)">Link</text></g><g text-align="left" text-anchor="start" fill="#cecece" transform="translate(185.25, 322.05) rotate(343.63, 53.00, 30.50)"><text y="14" letter-spacing="-0.84" font-size="28px" font-family="Caveat Brush" text-align="left" alignment-baseline="central" transform="scale(1.8118019855382412)">Hover</text></g><g id="91db7b4e-253e-4142-3e4e-07284e86d6f3_svg" class="tl-centered-g" transform="translate(400.34, 263.49) rotate(0.00, 206.46, 0.50)"><defs><mask id="91db7b4e-253e-4142-3e4e-07284e86d6f3_clip"><rect x="-100" y="-100" width="612.92" height="201" fill="white"/><rect x="206.46" y="0.49" width="0" height="0" rx="4" ry="4" fill="black" opacity="1"/></mask></defs><g pointer-events="none" opacity="1" mask=""><path d="M0,0.98L412.92,0" fill="#36a64c" stroke="#36a64c" stroke-width="9.09" stroke-dasharray="none" stroke-dashoffset="none" stroke-linecap="round" stroke-linejoin="round" pointer-events="stroke"/><g><path d="M 378.23,-19.917728957516484 L 412.92,0 378.32,20.082158388001513" fill="none" stroke="#36a64c" stroke-width="9.09" stroke-linecap="round" stroke-linejoin="round" pointer-events="none"/></g></g></g><g id="feede58d-1c45-4c8e-179b-0eced3bdfb6d_svg" class="tl-centered-g" transform="translate(217.61, 279.58) rotate(0.00, 14.43, 26.27)"><g opacity="1"><path d="M 19.57,52.54 Q 19.57,52.54 19.40,51.71 19.24,50.88 19.07,50.24 18.91,49.60 18.76,49.10 18.62,48.61 18.48,48.15 18.34,47.70 18.20,47.27 18.05,46.84 17.89,46.44 17.74,46.05 17.58,45.68 17.42,45.31 17.28,44.98 17.14,44.65 17.01,44.36 16.87,44.06 16.75,43.82 16.62,43.57 16.51,43.36 16.41,43.14 16.31,42.94 16.21,42.74 16.12,42.55 16.03,42.35 15.94,42.17 15.85,41.99 15.75,41.82 15.65,41.64 15.54,41.45 15.43,41.25 15.34,41.10 15.25,40.95 15.17,40.79 15.08,40.62 15.00,40.47 14.92,40.31 14.83,40.16 14.75,40.00 14.68,39.85 14.61,39.70 14.55,39.57 14.49,39.44 14.42,39.31 14.35,39.19 14.28,39.07 14.21,38.95 14.14,38.84 14.07,38.72 14.01,38.61 13.95,38.50 13.90,38.39 13.84,38.29 13.79,38.18 13.75,38.07 13.69,37.96 13.64,37.85 13.58,37.74 13.52,37.63 13.47,37.54 13.42,37.44 13.37,37.34 13.33,37.24 13.28,37.14 13.23,37.03 13.19,36.93 13.14,36.83 13.10,36.73 13.06,36.64 13.01,36.54 12.96,36.44 12.91,36.34 12.86,36.24 12.82,36.14 12.77,36.04 12.72,35.94 12.68,35.85 12.65,35.76 12.61,35.67 12.57,35.59 12.53,35.50 12.50,35.42 12.46,35.34 12.43,35.26 12.40,35.19 12.37,35.11 12.34,35.03 12.33,34.96 12.31,34.88 12.29,34.80 12.27,34.73 12.25,34.63 12.22,34.53 12.20,34.45 12.17,34.37 12.15,34.28 12.12,34.18 12.10,34.09 12.07,34.01 12.05,33.92 12.02,33.84 12.00,33.75 11.98,33.67 11.95,33.60 11.93,33.53 11.91,33.47 11.90,33.41 11.88,33.35 11.87,33.30 11.85,33.25 11.83,33.20 11.82,33.16 11.80,33.12 11.79,33.10 11.77,33.07 11.76,33.06 11.74,33.05 11.71,33.04 11.68,33.03 11.61,33.03 11.55,33.02 11.46,33.02 11.36,33.02 11.23,33.02 11.11,33.02 10.94,33.03 10.78,33.05 10.58,33.08 10.38,33.12 10.15,33.17 9.93,33.22 9.68,33.28 9.43,33.34 9.16,33.42 8.89,33.50 8.60,33.59 8.30,33.69 7.99,33.80 7.68,33.91 7.39,34.03 7.11,34.15 6.83,34.28 6.56,34.41 6.30,34.54 6.04,34.66 5.79,34.78 5.53,34.89 5.30,35.00 5.07,35.11 4.87,35.21 4.67,35.31 4.48,35.41 4.29,35.50 4.11,35.59 3.94,35.68 3.79,35.75 3.63,35.83 3.50,35.89 3.37,35.96 3.25,36.01 3.13,36.07 3.02,36.11 2.90,36.15 2.80,36.19 2.69,36.22 2.58,36.25 2.48,36.27 2.36,36.29 2.24,36.32 2.12,36.34 1.99,36.37 1.86,36.38 1.74,36.40 1.62,36.42 1.51,36.44 1.40,36.47 1.30,36.49 1.19,36.51 1.09,36.52 0.96,36.55 0.84,36.58 0.71,36.60 0.58,36.62 0.51,36.64 0.45,36.66 0.40,36.68 0.35,36.70 0.30,36.72 0.25,36.73 0.20,36.73 0.15,36.74 0.12,36.75 0.08,36.77 0.06,36.78 0.04,36.80 0.03,36.82 0.02,36.84 0.02,36.86 0.01,36.88 0.01,36.85 0.00,36.82 0.00,36.73 0.00,36.64 0.00,36.54 0.00,36.43 0.00,36.29 0.00,36.16 0.00,35.90 0.00,35.65 0.02,35.40 0.05,35.14 0.09,34.76 0.13,34.38 0.17,34.12 0.20,33.87 0.24,33.63 0.27,33.39 0.29,33.14 0.31,32.89 0.32,32.63 0.33,32.37 0.33,32.13 0.34,31.88 0.35,31.67 0.37,31.45 0.39,31.23 0.41,31.01 0.42,30.79 0.43,30.56 0.44,30.36 0.45,30.15 0.45,29.94 0.45,29.74 0.46,29.53 0.46,29.32 0.46,29.11 0.46,28.91 0.47,28.71 0.47,28.51 0.49,28.29 0.50,28.07 0.53,27.86 0.55,27.65 0.58,27.44 0.61,27.24 0.65,27.04 0.69,26.84 0.72,26.65 0.76,26.45 0.79,26.26 0.82,26.07 0.85,25.88 0.88,25.69 0.91,25.51 0.94,25.33 0.96,25.17 0.98,25.00 1.00,24.84 1.02,24.69 1.04,24.54 1.06,24.40 1.08,24.27 1.11,24.14 1.13,24.01 1.16,23.89 1.18,23.76 1.21,23.63 1.24,23.49 1.28,23.35 1.31,23.20 1.35,23.06 1.38,22.91 1.41,22.77 1.45,22.62 1.48,22.48 1.52,22.31 1.56,22.14 1.59,21.97 1.63,21.80 1.66,21.60 1.69,21.40 1.71,21.26 1.74,21.12 1.78,20.98 1.82,20.84 1.86,20.70 1.89,20.55 1.92,20.41 1.95,20.26 2.00,20.10 2.04,19.94 2.08,19.78 2.11,19.62 2.14,19.47 2.18,19.32 2.22,19.15 2.26,18.97 2.30,18.80 2.34,18.62 2.38,18.45 2.42,18.29 2.46,18.13 2.50,17.97 2.54,17.82 2.58,17.66 2.61,17.51 2.64,17.35 2.66,17.20 2.68,17.04 2.70,16.89 2.72,16.73 2.75,16.58 2.77,16.43 2.79,16.27 2.81,16.12 2.82,15.96 2.83,15.80 2.83,15.64 2.84,15.47 2.84,15.31 2.84,15.16 2.85,14.99 2.85,14.83 2.85,14.66 2.85,14.49 2.85,14.30 2.85,14.12 2.85,13.94 2.85,13.75 2.85,13.57 2.85,13.39 2.85,13.20 2.85,13.02 2.85,12.83 2.85,12.65 2.85,12.48 2.85,12.31 2.85,12.14 2.85,11.97 2.85,11.74 2.85,11.51 2.85,11.36 2.85,11.21 2.85,11.06 2.85,10.91 2.85,10.76 2.85,10.61 2.85,10.48 2.85,10.35 2.85,10.21 2.85,10.07 2.85,9.93 2.85,9.79 2.85,9.64 2.85,9.50 2.85,9.35 2.85,9.20 2.85,9.06 2.85,8.91 2.85,8.76 2.85,8.61 2.86,8.45 2.88,8.29 2.90,8.11 2.92,7.93 2.93,7.76 2.94,7.60 2.94,7.43 2.95,7.26 2.95,7.08 2.96,6.90 2.96,6.72 2.96,6.54 2.96,6.35 2.96,6.17 2.96,5.98 2.96,5.79 2.96,5.59 2.96,5.39 2.96,5.17 2.96,4.96 2.96,4.75 2.96,4.54 2.97,4.34 2.98,4.14 3.00,3.95 3.01,3.76 3.03,3.57 3.04,3.38 3.05,3.20 3.06,3.02 3.06,2.86 3.07,2.70 3.07,2.54 3.07,2.38 3.08,2.24 3.09,2.10 3.10,1.98 3.12,1.86 3.13,1.76 3.15,1.66 3.15,1.56 3.16,1.46 3.16,1.35 3.17,1.25 3.17,1.15 3.17,1.06 3.17,0.98 3.17,0.90 3.17,0.82 3.18,0.74 3.18,0.67 3.18,0.61 3.18,0.55 3.18,0.49 3.19,0.43 3.20,0.38 3.21,0.32 3.23,0.27 3.24,0.22 3.24,0.17 3.26,0.13 3.27,0.09 3.31,0.07 3.35,0.05 3.45,0.06 3.54,0.07 3.62,0.09 3.71,0.11 3.84,0.17 3.96,0.22 4.14,0.32 4.32,0.43 4.54,0.56 4.75,0.69 4.96,0.82 5.17,0.95 5.41,1.10 5.66,1.25 5.93,1.43 6.20,1.61 6.47,1.82 6.73,2.03 7.02,2.28 7.31,2.52 7.62,2.76 7.92,3.00 8.21,3.22 8.49,3.43 8.75,3.63 9.02,3.83 9.28,4.04 9.54,4.25 9.78,4.46 10.02,4.67 10.24,4.88 10.45,5.09 10.66,5.29 10.86,5.50 11.05,5.70 11.24,5.89 11.41,6.08 11.58,6.26 11.76,6.44 11.93,6.62 12.10,6.80 12.26,6.98 12.42,7.15 12.58,7.32 12.73,7.48 12.88,7.65 13.03,7.80 13.18,7.95 13.34,8.11 13.50,8.26 13.67,8.42 13.84,8.57 14.00,8.72 14.17,8.86 14.35,9.01 14.54,9.16 14.73,9.31 14.93,9.47 15.12,9.63 15.32,9.79 15.51,9.95 15.71,10.11 15.92,10.28 16.12,10.44 16.41,10.65 16.71,10.87 16.91,11.03 17.11,11.20 17.32,11.36 17.53,11.53 17.74,11.69 17.95,11.86 18.15,12.02 18.34,12.18 18.55,12.35 18.75,12.51 18.96,12.68 19.17,12.85 19.35,12.99 19.53,13.14 19.69,13.29 19.85,13.44 20.02,13.59 20.19,13.75 20.37,13.89 20.54,14.04 20.71,14.18 20.87,14.32 21.02,14.46 21.16,14.59 21.31,14.71 21.45,14.84 21.58,14.96 21.72,15.08 21.84,15.20 21.97,15.32 22.08,15.45 22.20,15.58 22.32,15.71 22.44,15.85 22.57,15.99 22.70,16.13 22.83,16.25 22.96,16.38 23.08,16.52 23.20,16.65 23.32,16.79 23.45,16.94 23.58,17.07 23.71,17.21 23.84,17.34 23.96,17.46 24.09,17.60 24.22,17.74 24.35,17.88 24.49,18.02 24.61,18.16 24.74,18.29 24.85,18.41 24.97,18.54 25.08,18.66 25.19,18.78 25.29,18.89 25.40,19.00 25.49,19.11 25.59,19.22 25.71,19.37 25.83,19.53 25.91,19.63 25.99,19.74 26.06,19.85 26.14,19.96 26.22,20.06 26.29,20.15 26.37,20.24 26.44,20.33 26.52,20.43 26.60,20.53 26.67,20.63 26.75,20.72 26.82,20.80 26.90,20.89 26.98,20.99 27.05,21.09 27.13,21.18 27.20,21.27 27.28,21.35 27.36,21.43 27.44,21.52 27.53,21.60 27.60,21.68 27.67,21.77 27.74,21.83 27.82,21.90 27.89,21.97 27.96,22.03 28.02,22.08 28.08,22.14 28.13,22.20 28.18,22.25 28.24,22.30 28.29,22.34 28.34,22.38 28.39,22.42 28.44,22.45 28.49,22.48 28.53,22.51 28.57,22.53 28.60,22.54 28.64,22.55 28.67,22.57 28.69,22.58 28.71,22.60 28.73,22.62 28.75,22.64 28.77,22.65 28.79,22.66 28.81,22.67 28.82,22.68 28.83,22.69 28.84,22.72 28.84,22.75 28.85,22.79 28.85,22.82 28.84,22.86 28.83,22.90 28.79,22.94 28.75,22.97 28.67,23.02 28.58,23.06 28.46,23.11 28.33,23.16 28.19,23.22 28.04,23.28 27.87,23.34 27.70,23.40 27.51,23.46 27.31,23.52 27.10,23.59 26.88,23.65 26.68,23.72 26.48,23.78 26.28,23.84 26.09,23.91 25.91,23.97 25.73,24.03 25.56,24.09 25.39,24.14 25.24,24.19 25.09,24.23 24.96,24.27 24.83,24.32 24.71,24.37 24.60,24.42 24.48,24.46 24.37,24.51 24.26,24.54 24.15,24.58 24.04,24.62 23.94,24.67 23.83,24.71 23.73,24.76 23.62,24.80 23.51,24.85 23.41,24.88 23.30,24.92 23.20,24.96 23.09,25.00 22.99,25.05 22.89,25.10 22.75,25.16 22.61,25.23 22.52,25.27 22.42,25.31 22.32,25.34 22.21,25.38 22.11,25.42 22.01,25.46 21.91,25.51 21.81,25.56 21.70,25.61 21.60,25.66 21.50,25.72 21.39,25.77 21.29,25.82 21.19,25.88 21.08,25.93 20.98,25.99 20.87,26.04 20.76,26.08 20.64,26.12 20.53,26.17 20.42,26.21 20.31,26.26 20.20,26.32 20.09,26.37 19.98,26.42 19.88,26.47 19.80,26.51 19.71,26.55 19.64,26.59 19.56,26.63 19.49,26.67 19.42,26.71 19.36,26.73 19.30,26.76 19.26,26.78 19.22,26.79 19.19,26.80 19.15,26.81 19.13,26.82 19.10,26.83 19.08,26.85 19.06,26.87 19.04,26.88 19.02,26.90 19.00,26.91 18.98,26.91 18.97,26.93 18.96,26.94 18.95,26.97 18.95,27.00 18.94,27.06 18.94,27.11 18.94,27.19 18.93,27.27 18.93,27.38 18.93,27.49 18.94,27.63 18.95,27.76 18.97,27.92 19.00,28.07 19.06,28.24 19.11,28.41 19.19,28.62 19.26,28.83 19.34,29.04 19.43,29.26 19.51,29.47 19.60,29.68 19.68,29.89 19.76,30.10 19.85,30.31 19.93,30.52 20.02,30.74 20.10,30.96 20.19,31.18 20.28,31.41 20.38,31.64 20.48,31.86 20.58,32.10 20.68,32.34 20.81,32.67 20.95,32.99 21.03,33.21 21.12,33.43 21.20,33.64 21.29,33.84 21.39,34.06 21.49,34.27 21.58,34.49 21.68,34.71 21.76,34.91 21.84,35.11 21.92,35.31 22.00,35.50 22.08,35.69 22.16,35.88 22.23,36.06 22.30,36.25 22.38,36.45 22.47,36.64 22.55,36.85 22.64,37.05 22.71,37.25 22.79,37.45 22.85,37.65 22.92,37.84 22.99,38.03 23.06,38.22 23.13,38.41 23.21,38.60 23.28,38.78 23.36,38.96 23.42,39.12 23.49,39.28 23.55,39.43 23.61,39.58 23.67,39.73 23.73,39.88 23.78,40.02 23.84,40.16 23.89,40.29 23.95,40.42 24.00,40.54 24.05,40.66 24.11,40.78 24.16,40.90 24.21,41.02 24.27,41.14 24.32,41.25 24.38,41.37 24.43,41.49 24.48,41.62 24.53,41.74 24.58,41.87 24.64,41.98 24.69,42.09 24.74,42.19 24.79,42.30 24.83,42.40 24.87,42.51 24.91,42.61 24.94,42.71 24.98,42.81 25.02,42.90 25.06,43.01 25.09,43.11 25.13,43.18 25.16,43.25 25.18,43.32 25.21,43.40 25.23,43.47 25.26,43.55 25.28,43.61 25.31,43.68 25.33,43.74 25.35,43.80 25.38,43.87 25.40,43.93 25.42,44.01 25.45,44.08 25.47,44.16 25.50,44.24 25.51,44.31 25.52,44.39 25.54,44.46 25.56,44.54 25.58,44.62 25.60,44.70 25.63,44.78 25.65,44.85 25.67,44.92 25.69,44.99 25.70,45.05 25.72,45.11 25.74,45.16 25.76,45.22 25.77,45.27 25.79,45.33 25.80,45.37 25.81,45.42 25.81,45.46 25.81,45.50 25.82,45.53 25.82,45.56 25.83,45.58 25.84,45.60 25.86,45.61 25.87,45.63 25.88,45.64 25.89,45.66 25.90,45.68 25.90,45.70 25.89,45.71 25.89,45.72 25.86,45.73 25.84,45.75 25.81,45.77 25.77,45.80 25.72,45.83 25.67,45.87 25.59,45.92 25.52,45.97 25.45,46.03 25.37,46.10 25.29,46.16 25.21,46.23 25.11,46.30 25.02,46.37 24.92,46.45 24.81,46.53 24.71,46.60 24.61,46.67 24.51,46.75 24.41,46.82 24.30,46.90 24.20,46.98 24.10,47.05 24.00,47.12 23.91,47.20 23.82,47.27 23.73,47.35 23.64,47.43 23.56,47.50 23.47,47.56 23.39,47.64 23.30,47.71 23.21,47.79 23.12,47.87 23.02,47.95 22.92,48.03 22.85,48.09 22.78,48.15 22.71,48.21 22.64,48.26 22.57,48.32 22.49,48.37 22.42,48.42 22.35,48.48 22.27,48.53 22.20,48.59 22.13,48.64 22.07,48.69 22.02,48.74 21.96,48.79 21.91,48.84 21.86,48.89 21.81,48.94 21.76,48.99 21.72,49.05 21.67,49.10 21.64,49.16 21.60,49.21 21.56,49.27 21.52,49.32 21.49,49.37 21.46,49.42 21.43,49.45 21.40,49.49 21.38,49.53 21.36,49.56 21.34,49.58 21.32,49.61 21.27,49.64 21.23,49.67 21.23,49.67" fill="none" stroke="none" stroke-width="4" stroke-linejoin="round" stroke-linecap="round" pointer-events="none"/><path d="M 19.57,52.54 Q 19.57,52.54 19.40,51.71 19.24,50.88 19.07,50.24 18.91,49.60 18.76,49.10 18.62,48.61 18.48,48.15 18.34,47.70 18.20,47.27 18.05,46.84 17.89,46.44 17.74,46.05 17.58,45.68 17.42,45.31 17.28,44.98 17.14,44.65 17.01,44.36 16.87,44.06 16.75,43.82 16.62,43.57 16.51,43.36 16.41,43.14 16.31,42.94 16.21,42.74 16.12,42.55 16.03,42.35 15.94,42.17 15.85,41.99 15.75,41.82 15.65,41.64 15.54,41.45 15.43,41.25 15.34,41.10 15.25,40.95 15.17,40.79 15.08,40.62 15.00,40.47 14.92,40.31 14.83,40.16 14.75,40.00 14.68,39.85 14.61,39.70 14.55,39.57 14.49,39.44 14.42,39.31 14.35,39.19 14.28,39.07 14.21,38.95 14.14,38.84 14.07,38.72 14.01,38.61 13.95,38.50 13.90,38.39 13.84,38.29 13.79,38.18 13.75,38.07 13.69,37.96 13.64,37.85 13.58,37.74 13.52,37.63 13.47,37.54 13.42,37.44 13.37,37.34 13.33,37.24 13.28,37.14 13.23,37.03 13.19,36.93 13.14,36.83 13.10,36.73 13.06,36.64 13.01,36.54 12.96,36.44 12.91,36.34 12.86,36.24 12.82,36.14 12.77,36.04 12.72,35.94 12.68,35.85 12.65,35.76 12.61,35.67 12.57,35.59 12.53,35.50 12.50,35.42 12.46,35.34 12.43,35.26 12.40,35.19 12.37,35.11 12.34,35.03 12.33,34.96 12.31,34.88 12.29,34.80 12.27,34.73 12.25,34.63 12.22,34.53 12.20,34.45 12.17,34.37 12.15,34.28 12.12,34.18 12.10,34.09 12.07,34.01 12.05,33.92 12.02,33.84 12.00,33.75 11.98,33.67 11.95,33.60 11.93,33.53 11.91,33.47 11.90,33.41 11.88,33.35 11.87,33.30 11.85,33.25 11.83,33.20 11.82,33.16 11.80,33.12 11.79,33.10 11.77,33.07 11.76,33.06 11.74,33.05 11.71,33.04 11.68,33.03 11.61,33.03 11.55,33.02 11.46,33.02 11.36,33.02 11.23,33.02 11.11,33.02 10.94,33.03 10.78,33.05 10.58,33.08 10.38,33.12 10.15,33.17 9.93,33.22 9.68,33.28 9.43,33.34 9.16,33.42 8.89,33.50 8.60,33.59 8.30,33.69 7.99,33.80 7.68,33.91 7.39,34.03 7.11,34.15 6.83,34.28 6.56,34.41 6.30,34.54 6.04,34.66 5.79,34.78 5.53,34.89 5.30,35.00 5.07,35.11 4.87,35.21 4.67,35.31 4.48,35.41 4.29,35.50 4.11,35.59 3.94,35.68 3.79,35.75 3.63,35.83 3.50,35.89 3.37,35.96 3.25,36.01 3.13,36.07 3.02,36.11 2.90,36.15 2.80,36.19 2.69,36.22 2.58,36.25 2.48,36.27 2.36,36.29 2.24,36.32 2.12,36.34 1.99,36.37 1.86,36.38 1.74,36.40 1.62,36.42 1.51,36.44 1.40,36.47 1.30,36.49 1.19,36.51 1.09,36.52 0.96,36.55 0.84,36.58 0.71,36.60 0.58,36.62 0.51,36.64 0.45,36.66 0.40,36.68 0.35,36.70 0.30,36.72 0.25,36.73 0.20,36.73 0.15,36.74 0.12,36.75 0.08,36.77 0.06,36.78 0.04,36.80 0.03,36.82 0.02,36.84 0.02,36.86 0.01,36.88 0.01,36.85 0.00,36.82 0.00,36.73 0.00,36.64 0.00,36.54 0.00,36.43 0.00,36.29 0.00,36.16 0.00,35.90 0.00,35.65 0.02,35.40 0.05,35.14 0.09,34.76 0.13,34.38 0.17,34.12 0.20,33.87 0.24,33.63 0.27,33.39 0.29,33.14 0.31,32.89 0.32,32.63 0.33,32.37 0.33,32.13 0.34,31.88 0.35,31.67 0.37,31.45 0.39,31.23 0.41,31.01 0.42,30.79 0.43,30.56 0.44,30.36 0.45,30.15 0.45,29.94 0.45,29.74 0.46,29.53 0.46,29.32 0.46,29.11 0.46,28.91 0.47,28.71 0.47,28.51 0.49,28.29 0.50,28.07 0.53,27.86 0.55,27.65 0.58,27.44 0.61,27.24 0.65,27.04 0.69,26.84 0.72,26.65 0.76,26.45 0.79,26.26 0.82,26.07 0.85,25.88 0.88,25.69 0.91,25.51 0.94,25.33 0.96,25.17 0.98,25.00 1.00,24.84 1.02,24.69 1.04,24.54 1.06,24.40 1.08,24.27 1.11,24.14 1.13,24.01 1.16,23.89 1.18,23.76 1.21,23.63 1.24,23.49 1.28,23.35 1.31,23.20 1.35,23.06 1.38,22.91 1.41,22.77 1.45,22.62 1.48,22.48 1.52,22.31 1.56,22.14 1.59,21.97 1.63,21.80 1.66,21.60 1.69,21.40 1.71,21.26 1.74,21.12 1.78,20.98 1.82,20.84 1.86,20.70 1.89,20.55 1.92,20.41 1.95,20.26 2.00,20.10 2.04,19.94 2.08,19.78 2.11,19.62 2.14,19.47 2.18,19.32 2.22,19.15 2.26,18.97 2.30,18.80 2.34,18.62 2.38,18.45 2.42,18.29 2.46,18.13 2.50,17.97 2.54,17.82 2.58,17.66 2.61,17.51 2.64,17.35 2.66,17.20 2.68,17.04 2.70,16.89 2.72,16.73 2.75,16.58 2.77,16.43 2.79,16.27 2.81,16.12 2.82,15.96 2.83,15.80 2.83,15.64 2.84,15.47 2.84,15.31 2.84,15.16 2.85,14.99 2.85,14.83 2.85,14.66 2.85,14.49 2.85,14.30 2.85,14.12 2.85,13.94 2.85,13.75 2.85,13.57 2.85,13.39 2.85,13.20 2.85,13.02 2.85,12.83 2.85,12.65 2.85,12.48 2.85,12.31 2.85,12.14 2.85,11.97 2.85,11.74 2.85,11.51 2.85,11.36 2.85,11.21 2.85,11.06 2.85,10.91 2.85,10.76 2.85,10.61 2.85,10.48 2.85,10.35 2.85,10.21 2.85,10.07 2.85,9.93 2.85,9.79 2.85,9.64 2.85,9.50 2.85,9.35 2.85,9.20 2.85,9.06 2.85,8.91 2.85,8.76 2.85,8.61 2.86,8.45 2.88,8.29 2.90,8.11 2.92,7.93 2.93,7.76 2.94,7.60 2.94,7.43 2.95,7.26 2.95,7.08 2.96,6.90 2.96,6.72 2.96,6.54 2.96,6.35 2.96,6.17 2.96,5.98 2.96,5.79 2.96,5.59 2.96,5.39 2.96,5.17 2.96,4.96 2.96,4.75 2.96,4.54 2.97,4.34 2.98,4.14 3.00,3.95 3.01,3.76 3.03,3.57 3.04,3.38 3.05,3.20 3.06,3.02 3.06,2.86 3.07,2.70 3.07,2.54 3.07,2.38 3.08,2.24 3.09,2.10 3.10,1.98 3.12,1.86 3.13,1.76 3.15,1.66 3.15,1.56 3.16,1.46 3.16,1.35 3.17,1.25 3.17,1.15 3.17,1.06 3.17,0.98 3.17,0.90 3.17,0.82 3.18,0.74 3.18,0.67 3.18,0.61 3.18,0.55 3.18,0.49 3.19,0.43 3.20,0.38 3.21,0.32 3.23,0.27 3.24,0.22 3.24,0.17 3.26,0.13 3.27,0.09 3.31,0.07 3.35,0.05 3.45,0.06 3.54,0.07 3.62,0.09 3.71,0.11 3.84,0.17 3.96,0.22 4.14,0.32 4.32,0.43 4.54,0.56 4.75,0.69 4.96,0.82 5.17,0.95 5.41,1.10 5.66,1.25 5.93,1.43 6.20,1.61 6.47,1.82 6.73,2.03 7.02,2.28 7.31,2.52 7.62,2.76 7.92,3.00 8.21,3.22 8.49,3.43 8.75,3.63 9.02,3.83 9.28,4.04 9.54,4.25 9.78,4.46 10.02,4.67 10.24,4.88 10.45,5.09 10.66,5.29 10.86,5.50 11.05,5.70 11.24,5.89 11.41,6.08 11.58,6.26 11.76,6.44 11.93,6.62 12.10,6.80 12.26,6.98 12.42,7.15 12.58,7.32 12.73,7.48 12.88,7.65 13.03,7.80 13.18,7.95 13.34,8.11 13.50,8.26 13.67,8.42 13.84,8.57 14.00,8.72 14.17,8.86 14.35,9.01 14.54,9.16 14.73,9.31 14.93,9.47 15.12,9.63 15.32,9.79 15.51,9.95 15.71,10.11 15.92,10.28 16.12,10.44 16.41,10.65 16.71,10.87 16.91,11.03 17.11,11.20 17.32,11.36 17.53,11.53 17.74,11.69 17.95,11.86 18.15,12.02 18.34,12.18 18.55,12.35 18.75,12.51 18.96,12.68 19.17,12.85 19.35,12.99 19.53,13.14 19.69,13.29 19.85,13.44 20.02,13.59 20.19,13.75 20.37,13.89 20.54,14.04 20.71,14.18 20.87,14.32 21.02,14.46 21.16,14.59 21.31,14.71 21.45,14.84 21.58,14.96 21.72,15.08 21.84,15.20 21.97,15.32 22.08,15.45 22.20,15.58 22.32,15.71 22.44,15.85 22.57,15.99 22.70,16.13 22.83,16.25 22.96,16.38 23.08,16.52 23.20,16.65 23.32,16.79 23.45,16.94 23.58,17.07 23.71,17.21 23.84,17.34 23.96,17.46 24.09,17.60 24.22,17.74 24.35,17.88 24.49,18.02 24.61,18.16 24.74,18.29 24.85,18.41 24.97,18.54 25.08,18.66 25.19,18.78 25.29,18.89 25.40,19.00 25.49,19.11 25.59,19.22 25.71,19.37 25.83,19.53 25.91,19.63 25.99,19.74 26.06,19.85 26.14,19.96 26.22,20.06 26.29,20.15 26.37,20.24 26.44,20.33 26.52,20.43 26.60,20.53 26.67,20.63 26.75,20.72 26.82,20.80 26.90,20.89 26.98,20.99 27.05,21.09 27.13,21.18 27.20,21.27 27.28,21.35 27.36,21.43 27.44,21.52 27.53,21.60 27.60,21.68 27.67,21.77 27.74,21.83 27.82,21.90 27.89,21.97 27.96,22.03 28.02,22.08 28.08,22.14 28.13,22.20 28.18,22.25 28.24,22.30 28.29,22.34 28.34,22.38 28.39,22.42 28.44,22.45 28.49,22.48 28.53,22.51 28.57,22.53 28.60,22.54 28.64,22.55 28.67,22.57 28.69,22.58 28.71,22.60 28.73,22.62 28.75,22.64 28.77,22.65 28.79,22.66 28.81,22.67 28.82,22.68 28.83,22.69 28.84,22.72 28.84,22.75 28.85,22.79 28.85,22.82 28.84,22.86 28.83,22.90 28.79,22.94 28.75,22.97 28.67,23.02 28.58,23.06 28.46,23.11 28.33,23.16 28.19,23.22 28.04,23.28 27.87,23.34 27.70,23.40 27.51,23.46 27.31,23.52 27.10,23.59 26.88,23.65 26.68,23.72 26.48,23.78 26.28,23.84 26.09,23.91 25.91,23.97 25.73,24.03 25.56,24.09 25.39,24.14 25.24,24.19 25.09,24.23 24.96,24.27 24.83,24.32 24.71,24.37 24.60,24.42 24.48,24.46 24.37,24.51 24.26,24.54 24.15,24.58 24.04,24.62 23.94,24.67 23.83,24.71 23.73,24.76 23.62,24.80 23.51,24.85 23.41,24.88 23.30,24.92 23.20,24.96 23.09,25.00 22.99,25.05 22.89,25.10 22.75,25.16 22.61,25.23 22.52,25.27 22.42,25.31 22.32,25.34 22.21,25.38 22.11,25.42 22.01,25.46 21.91,25.51 21.81,25.56 21.70,25.61 21.60,25.66 21.50,25.72 21.39,25.77 21.29,25.82 21.19,25.88 21.08,25.93 20.98,25.99 20.87,26.04 20.76,26.08 20.64,26.12 20.53,26.17 20.42,26.21 20.31,26.26 20.20,26.32 20.09,26.37 19.98,26.42 19.88,26.47 19.80,26.51 19.71,26.55 19.64,26.59 19.56,26.63 19.49,26.67 19.42,26.71 19.36,26.73 19.30,26.76 19.26,26.78 19.22,26.79 19.19,26.80 19.15,26.81 19.13,26.82 19.10,26.83 19.08,26.85 19.06,26.87 19.04,26.88 19.02,26.90 19.00,26.91 18.98,26.91 18.97,26.93 18.96,26.94 18.95,26.97 18.95,27.00 18.94,27.06 18.94,27.11 18.94,27.19 18.93,27.27 18.93,27.38 18.93,27.49 18.94,27.63 18.95,27.76 18.97,27.92 19.00,28.07 19.06,28.24 19.11,28.41 19.19,28.62 19.26,28.83 19.34,29.04 19.43,29.26 19.51,29.47 19.60,29.68 19.68,29.89 19.76,30.10 19.85,30.31 19.93,30.52 20.02,30.74 20.10,30.96 20.19,31.18 20.28,31.41 20.38,31.64 20.48,31.86 20.58,32.10 20.68,32.34 20.81,32.67 20.95,32.99 21.03,33.21 21.12,33.43 21.20,33.64 21.29,33.84 21.39,34.06 21.49,34.27 21.58,34.49 21.68,34.71 21.76,34.91 21.84,35.11 21.92,35.31 22.00,35.50 22.08,35.69 22.16,35.88 22.23,36.06 22.30,36.25 22.38,36.45 22.47,36.64 22.55,36.85 22.64,37.05 22.71,37.25 22.79,37.45 22.85,37.65 22.92,37.84 22.99,38.03 23.06,38.22 23.13,38.41 23.21,38.60 23.28,38.78 23.36,38.96 23.42,39.12 23.49,39.28 23.55,39.43 23.61,39.58 23.67,39.73 23.73,39.88 23.78,40.02 23.84,40.16 23.89,40.29 23.95,40.42 24.00,40.54 24.05,40.66 24.11,40.78 24.16,40.90 24.21,41.02 24.27,41.14 24.32,41.25 24.38,41.37 24.43,41.49 24.48,41.62 24.53,41.74 24.58,41.87 24.64,41.98 24.69,42.09 24.74,42.19 24.79,42.30 24.83,42.40 24.87,42.51 24.91,42.61 24.94,42.71 24.98,42.81 25.02,42.90 25.06,43.01 25.09,43.11 25.13,43.18 25.16,43.25 25.18,43.32 25.21,43.40 25.23,43.47 25.26,43.55 25.28,43.61 25.31,43.68 25.33,43.74 25.35,43.80 25.38,43.87 25.40,43.93 25.42,44.01 25.45,44.08 25.47,44.16 25.50,44.24 25.51,44.31 25.52,44.39 25.54,44.46 25.56,44.54 25.58,44.62 25.60,44.70 25.63,44.78 25.65,44.85 25.67,44.92 25.69,44.99 25.70,45.05 25.72,45.11 25.74,45.16 25.76,45.22 25.77,45.27 25.79,45.33 25.80,45.37 25.81,45.42 25.81,45.46 25.81,45.50 25.82,45.53 25.82,45.56 25.83,45.58 25.84,45.60 25.86,45.61 25.87,45.63 25.88,45.64 25.89,45.66 25.90,45.68 25.90,45.70 25.89,45.71 25.89,45.72 25.86,45.73 25.84,45.75 25.81,45.77 25.77,45.80 25.72,45.83 25.67,45.87 25.59,45.92 25.52,45.97 25.45,46.03 25.37,46.10 25.29,46.16 25.21,46.23 25.11,46.30 25.02,46.37 24.92,46.45 24.81,46.53 24.71,46.60 24.61,46.67 24.51,46.75 24.41,46.82 24.30,46.90 24.20,46.98 24.10,47.05 24.00,47.12 23.91,47.20 23.82,47.27 23.73,47.35 23.64,47.43 23.56,47.50 23.47,47.56 23.39,47.64 23.30,47.71 23.21,47.79 23.12,47.87 23.02,47.95 22.92,48.03 22.85,48.09 22.78,48.15 22.71,48.21 22.64,48.26 22.57,48.32 22.49,48.37 22.42,48.42 22.35,48.48 22.27,48.53 22.20,48.59 22.13,48.64 22.07,48.69 22.02,48.74 21.96,48.79 21.91,48.84 21.86,48.89 21.81,48.94 21.76,48.99 21.72,49.05 21.67,49.10 21.64,49.16 21.60,49.21 21.56,49.27 21.52,49.32 21.49,49.37 21.46,49.42 21.43,49.45 21.40,49.49 21.38,49.53 21.36,49.56 21.34,49.58 21.32,49.61 21.27,49.64 21.23,49.67 21.23,49.67" fill="none" stroke="#cecece" stroke-width="4" stroke-dasharray="none" stroke-dashoffset="none" stroke-linejoin="round" stroke-linecap="round" pointer-events="none"/></g></g><g text-align="left" text-anchor="start" fill="#cecece" transform="translate(630.67, 126.08) rotate(0.00, 29.50, 17.50)"><text y="14" letter-spacing="-0.84" font-size="28px" font-family="Caveat Brush" text-align="left" alignment-baseline="central" transform="scale(0.8818427620532716)">server</text></g><g text-align="left" text-anchor="start" fill="#ebbb38" transform="translate(628.36, 90.63) rotate(0.00, 122.00, 25.50)"><text y="14" letter-spacing="-0.84" font-size="28px" font-family="Caveat Brush" text-align="left" alignment-baseline="central" transform="scale(1.4639668915507422)">Remix Framework</text></g><g text-align="left" text-anchor="start" fill="#cecece" transform="translate(847.38, 224.53) rotate(0.00, 298.00, 32.50)"><text y="14" letter-spacing="-0.84" font-size="28px" font-family="Caveat Brush" text-align="left" alignment-baseline="central" transform="scale(1.956587563795696)">Get loader data on hover (intent)</text></g><g text-align="left" text-anchor="start" fill="#ebbb38" transform="translate(95.08, 485.53) rotate(0.00, 186.50, 28.50)"><text y="14" letter-spacing="-0.84" font-size="28px" font-family="Caveat Brush" text-align="left" alignment-baseline="central" transform="scale(1.668985475680474)">&lt;Link prefetch="none"&gt;</text></g><g text-align="left" text-anchor="start" fill="#ebbb38" transform="translate(95.77, 542.70) rotate(0.00, 199.00, 28.50)"><text y="14" letter-spacing="-0.84" font-size="28px" font-family="Caveat Brush" text-align="left" alignment-baseline="central" transform="scale(1.6795190148924237)">&lt;Link prefetch="intent"&gt;</text></g><g text-align="left" text-anchor="start" fill="#ebbb38" transform="translate(99.66, 596.21) rotate(0.00, 196.00, 28.00)"><text y="14" letter-spacing="-0.84" font-size="28px" font-family="Caveat Brush" text-align="left" alignment-baseline="central" transform="scale(1.6283917991968935)">&lt;Link prefetch="render"&gt;</text></g><g text-align="left" text-anchor="start" fill="#cecece" transform="translate(845.68, 280.19) rotate(0.00, 249.00, 32.50)"><text y="14" letter-spacing="-0.84" font-size="28px" font-family="Caveat Brush" text-align="left" alignment-baseline="central" transform="scale(1.956587563795696)">or when the link is rendered</text></g></svg>