<svg xmlns="http://www.w3.org/2000/svg" viewBox="0 0 1504 688" width="1472" height="656" style="background-color: transparent;"><defs><style>@import url('https://fonts.googleapis.com/css2?family=Caveat+Brush&amp;family=Source+Code+Pro&amp;family=Source+Sans+Pro&amp;family=Crimson+Pro&amp;display=block');</style></defs><g id="0f0c0cbb-1133-4c69-22f3-a3d513e9aeac_svg" class="tl-centered-g" transform="translate(16.00, 16.00) rotate(0.00, 736.00, 328.00)"><g pointer-events="none" stroke="transparent" stroke-width="4.23" stroke-linecap="round"><line x1="2.11" y1="2.11" x2="1469.88" y2="2.11" stroke-dasharray="0.03 6.46" stroke-dashoffset="0"/><line x1="1469.88" y1="2.11" x2="1469.88" y2="653.88" stroke-dasharray="0.03 6.48" stroke-dashoffset="0"/><line x1="1469.88" y1="653.88" x2="2.11" y2="653.88" stroke-dasharray="0.03 6.46" stroke-dashoffset="0"/><line x1="2.11" y1="653.88" x2="2.11" y2="2.11" stroke-dasharray="0.03 6.48" stroke-dashoffset="0"/></g></g><g id="9535ff23-b647-493b-1b26-b6caa66949dd_svg" class="tl-centered-g" transform="translate(267.76, 137.91) rotate(0.00, 182.85, 159.67)"><path d="M -0.40,228.69 Q -0.40,228.69 -0.37,222.30 -0.35,215.91 -0.33,207.89 -0.31,199.87 -0.29,191.43 -0.27,182.99 -0.25,174.45 -0.24,165.91 -0.29,157.34 -0.34,148.77 -0.40,140.19 -0.45,131.62 -0.50,123.04 -0.56,114.46 -0.61,105.88 -0.66,97.30 -0.72,88.72 -0.77,80.15 -0.83,71.57 -0.88,62.99 -0.93,54.41 -0.99,45.83 -1.04,37.25 -1.09,28.67 -1.14,20.07 -1.19,11.47 0.66,7.25 2.53,3.03 9.56,1.87 16.58,0.71 24.69,0.49 32.80,0.27 41.18,0.24 49.57,0.21 58.02,0.22 66.47,0.23 74.94,0.26 83.42,0.28 91.89,0.31 100.37,0.34 108.85,0.37 117.33,0.40 125.81,0.43 134.29,0.46 142.77,0.49 151.25,0.52 159.72,0.54 168.20,0.57 176.68,0.57 185.16,0.57 193.64,0.54 202.12,0.50 210.60,0.47 219.08,0.44 227.56,0.41 236.04,0.37 244.51,0.34 252.99,0.31 261.47,0.28 269.95,0.24 278.43,0.21 286.91,0.18 295.39,0.14 303.87,0.11 312.35,0.08 320.83,0.05 329.31,0.01 337.78,-0.01 346.29,-0.04 354.79,-0.07 358.98,1.79 363.17,3.66 364.34,10.75 365.50,17.84 365.73,26.02 365.96,34.20 366.00,42.66 366.05,51.12 366.05,59.65 366.04,68.18 366.03,76.73 366.02,85.28 366.01,93.84 365.99,102.39 365.97,110.95 365.96,119.51 365.94,128.07 365.93,136.62 365.91,145.18 365.90,153.74 365.95,162.30 366.01,170.85 366.06,179.41 366.12,187.97 366.18,196.53 366.23,205.08 366.29,213.64 366.34,222.20 366.40,230.76 366.46,239.31 366.51,247.87 366.57,256.43 366.63,264.99 366.68,273.54 366.74,282.10 366.79,290.66 366.85,299.24 366.90,307.82 365.03,312.03 363.17,316.25 356.14,317.42 349.12,318.60 341.00,318.83 332.89,319.07 324.51,319.12 316.12,319.17 307.67,319.17 299.21,319.17 290.74,319.17 282.26,319.16 273.78,319.15 265.30,319.14 256.82,319.13 248.34,319.12 239.86,319.11 231.38,319.10 222.90,319.09 214.42,319.08 205.93,319.06 197.45,319.05 188.97,319.07 180.49,319.09 172.01,319.14 163.53,319.20 155.05,319.25 146.57,319.30 138.08,319.35 129.60,319.40 121.12,319.45 112.64,319.50 104.16,319.55 95.68,319.60 87.20,319.65 78.72,319.71 70.23,319.76 61.75,319.81 53.27,319.86 44.79,319.91 36.31,319.96 27.83,320.01 19.32,320.06 10.82,320.10 6.63,318.24 2.43,316.37 1.27,309.27 0.11,302.17 -0.11,293.97 -0.33,285.77 -0.38,277.29 -0.42,268.81 -0.42,260.26 -0.41,251.70 -0.40,243.13 -0.38,234.56 -0.36,225.98 -0.35,217.40 -0.33,208.83 -0.31,200.25 -0.29,191.67 -0.27,183.09 -0.25,174.51 -0.24,165.93 -0.29,157.35 -0.34,148.78 -0.40,137.26 -0.46,125.75 -0.43,125.56 -0.40,125.38 -0.32,125.22 -0.23,125.05 -0.10,124.92 0.03,124.80 0.20,124.72 0.36,124.64 0.55,124.62 0.73,124.60 0.91,124.64 1.09,124.68 1.25,124.77 1.41,124.87 1.53,125.01 1.65,125.15 1.72,125.32 1.79,125.49 1.80,125.68 1.81,125.86 1.76,126.04 1.71,126.22 1.61,126.37 1.50,126.53 1.36,126.64 1.21,126.75 1.03,126.81 0.86,126.87 0.67,126.87 0.49,126.87 0.31,126.81 0.14,126.75 -0.00,126.64 -0.15,126.53 -0.25,126.38 -0.36,126.23 -0.41,126.05 -0.46,125.87 -0.45,125.68 -0.44,125.50 -0.37,125.33 -0.30,125.15 -0.18,125.01 -0.06,124.87 0.09,124.78 0.25,124.68 0.43,124.64 0.61,124.60 0.79,124.62 0.98,124.64 1.14,124.72 1.31,124.79 1.45,124.92 1.58,125.05 1.67,125.21 1.76,125.38 1.79,125.56 1.82,125.74 1.82,125.74 1.82,125.74 1.80,137.26 1.79,148.77 1.77,157.35 1.75,165.93 1.81,174.51 1.86,183.09 1.91,191.66 1.97,200.24 2.02,208.82 2.08,217.40 2.13,225.98 2.19,234.55 2.24,243.12 2.30,251.69 2.37,260.24 2.44,268.78 2.55,277.23 2.67,285.67 2.95,293.70 3.23,301.74 3.96,308.18 4.68,314.61 7.79,315.72 10.91,316.82 19.36,316.83 27.82,316.84 36.30,316.85 44.78,316.86 53.27,316.87 61.75,316.88 70.23,316.89 78.71,316.90 87.19,316.91 95.67,316.92 104.15,316.93 112.63,316.94 121.12,316.96 129.60,316.97 138.08,316.98 146.56,316.99 155.04,317.00 163.52,317.01 172.00,317.02 180.49,317.03 188.97,317.01 197.45,316.99 205.93,316.94 214.41,316.89 222.89,316.84 231.37,316.79 239.85,316.74 248.34,316.69 256.82,316.63 265.30,316.58 273.78,316.53 282.25,316.48 290.73,316.42 299.20,316.37 307.65,316.30 316.10,316.24 324.44,316.13 332.79,316.01 340.73,315.73 348.67,315.45 355.04,314.73 361.40,314.00 362.51,310.87 363.62,307.74 363.63,299.20 363.64,290.67 363.65,282.11 363.67,273.55 363.69,264.99 363.70,256.44 363.72,247.88 363.74,239.32 363.75,230.76 363.77,222.21 363.78,213.65 363.80,205.09 363.82,196.53 363.83,187.97 363.85,179.42 363.86,170.86 363.88,162.30 363.90,153.74 363.84,145.19 363.78,136.63 363.73,128.07 363.67,119.51 363.61,110.96 363.56,102.40 363.50,93.85 363.44,85.29 363.38,76.74 363.32,68.19 363.25,59.67 363.18,51.14 363.06,42.72 362.95,34.30 362.66,26.29 362.38,18.27 361.65,11.85 360.92,5.43 357.81,4.32 354.70,3.21 346.24,3.18 337.79,3.16 329.31,3.13 320.83,3.10 312.35,3.07 303.87,3.04 295.39,3.01 286.91,2.98 278.43,2.95 269.95,2.92 261.47,2.89 252.99,2.87 244.52,2.84 236.04,2.81 227.56,2.78 219.08,2.75 210.60,2.72 202.12,2.69 193.64,2.66 185.16,2.63 176.68,2.63 168.20,2.64 159.72,2.67 151.25,2.70 142.77,2.73 134.29,2.77 125.81,2.80 117.33,2.83 108.85,2.87 100.37,2.90 91.90,2.93 83.42,2.97 74.95,3.00 66.48,3.04 58.03,3.09 49.59,3.14 41.24,3.23 32.90,3.32 24.96,3.59 17.02,3.85 10.66,4.57 4.29,5.28 3.18,8.42 2.08,11.55 2.07,20.11 2.05,28.67 2.03,37.25 2.01,45.82 2.00,54.40 1.98,62.98 1.96,71.56 1.94,80.14 1.92,88.72 1.90,97.30 1.88,105.88 1.87,114.45 1.85,123.03 1.83,131.61 1.81,140.19 1.79,148.76 1.77,157.33 1.75,165.90 1.81,174.45 1.86,182.99 1.91,191.43 1.97,199.86 2.02,207.88 2.07,215.90 2.12,222.29 2.17,228.69 2.15,228.84 2.13,228.99 2.08,229.14 2.02,229.29 1.94,229.41 1.85,229.54 1.73,229.64 1.62,229.75 1.48,229.82 1.34,229.89 1.19,229.93 1.04,229.97 0.88,229.97 0.73,229.97 0.58,229.93 0.43,229.89 0.29,229.82 0.15,229.75 0.04,229.65 -0.07,229.55 -0.16,229.42 -0.25,229.29 -0.30,229.14 -0.36,229.00 -0.38,228.85 Z" fill="#cecece" stroke="#cecece" stroke-width="2" pointer-events="none"/></g><g id="31353079-80da-4a9e-3d2a-a3488a242dd8_svg" class="tl-centered-g" transform="translate(275.14, 146.49) rotate(0.00, 174.19, 20.79)"><path d="M 89.56,-0.43 Q 89.56,-0.43 95.87,-0.41 102.18,-0.38 110.09,-0.36 118.01,-0.33 126.34,-0.31 134.67,-0.29 143.10,-0.26 151.54,-0.24 160.00,-0.22 168.46,-0.20 176.92,-0.24 185.39,-0.28 193.86,-0.32 202.33,-0.36 210.79,-0.40 219.26,-0.45 227.73,-0.49 236.20,-0.53 244.67,-0.57 253.14,-0.61 261.61,-0.66 270.08,-0.70 278.55,-0.74 287.01,-0.78 295.48,-0.82 303.95,-0.86 312.42,-0.91 320.89,-0.95 329.38,-0.98 337.87,-1.02 341.94,0.63 346.00,2.30 347.18,4.77 348.35,7.25 348.57,9.74 348.78,12.24 348.76,14.61 348.74,16.98 348.77,19.32 348.80,21.66 348.91,24.00 349.02,26.33 349.12,28.66 349.23,31.00 349.31,33.42 349.38,35.85 347.55,38.45 345.72,41.05 338.64,41.75 331.56,42.44 323.49,42.52 315.42,42.60 307.05,42.57 298.69,42.55 290.24,42.49 281.80,42.44 273.34,42.38 264.87,42.32 256.40,42.26 247.93,42.20 239.46,42.14 230.99,42.08 222.52,42.02 214.05,41.96 205.57,41.89 197.10,41.83 188.63,41.77 180.16,41.71 171.69,41.71 163.22,41.72 154.74,41.72 146.27,41.72 137.80,41.73 129.33,41.73 120.86,41.73 112.38,41.74 103.91,41.74 95.44,41.74 86.97,41.75 78.50,41.75 70.03,41.76 61.55,41.76 53.08,41.76 44.61,41.77 36.14,41.77 27.67,41.77 19.17,41.77 10.68,41.77 6.62,40.10 2.57,38.43 1.39,36.04 0.22,33.64 0.01,31.24 -0.18,28.84 -0.16,26.58 -0.14,24.31 -0.16,22.08 -0.18,19.85 -0.28,17.62 -0.38,15.40 -0.48,13.17 -0.57,10.95 -0.64,8.63 -0.71,6.31 1.11,3.75 2.94,1.18 10.02,0.46 17.10,-0.25 25.17,-0.36 33.23,-0.48 41.59,-0.49 49.96,-0.50 58.40,-0.48 66.84,-0.47 75.30,-0.45 83.76,-0.43 92.23,-0.40 100.70,-0.38 109.17,-0.36 117.64,-0.33 126.10,-0.31 134.57,-0.29 143.04,-0.26 151.51,-0.24 159.98,-0.22 168.45,-0.20 176.92,-0.24 185.39,-0.28 196.75,-0.32 208.12,-0.37 208.30,-0.34 208.48,-0.31 208.65,-0.22 208.81,-0.14 208.93,-0.01 209.06,0.12 209.14,0.28 209.21,0.45 209.23,0.63 209.25,0.81 209.21,0.99 209.17,1.17 209.08,1.33 208.99,1.48 208.85,1.60 208.71,1.72 208.54,1.79 208.37,1.85 208.19,1.86 208.00,1.87 207.83,1.83 207.65,1.78 207.50,1.67 207.35,1.57 207.24,1.43 207.13,1.28 207.07,1.11 207.01,0.94 207.01,0.75 207.01,0.57 207.07,0.40 207.12,0.22 207.24,0.08 207.35,-0.06 207.50,-0.16 207.65,-0.26 207.82,-0.31 208.00,-0.36 208.18,-0.35 208.37,-0.34 208.54,-0.28 208.71,-0.21 208.84,-0.09 208.98,0.02 209.08,0.18 209.17,0.33 209.21,0.51 209.25,0.69 209.23,0.87 209.21,1.05 209.14,1.22 209.06,1.38 208.93,1.52 208.81,1.65 208.65,1.74 208.49,1.82 208.31,1.85 208.12,1.88 208.12,1.88 208.13,1.88 196.76,1.86 185.39,1.84 176.92,1.82 168.45,1.79 159.98,1.84 151.51,1.88 143.04,1.92 134.58,1.96 126.11,2.00 117.64,2.05 109.17,2.09 100.70,2.13 92.23,2.17 83.77,2.21 75.31,2.26 66.85,2.30 58.41,2.35 49.97,2.40 41.63,2.48 33.28,2.55 25.32,2.73 17.35,2.90 11.06,3.24 4.76,3.59 3.61,5.13 2.46,6.68 2.40,8.81 2.34,10.94 2.26,13.16 2.17,15.39 2.08,17.61 2.00,19.83 2.02,22.04 2.04,24.25 2.19,26.41 2.35,28.56 2.62,30.52 2.90,32.47 3.59,34.15 4.29,35.83 7.53,37.16 10.78,38.49 19.23,38.55 27.68,38.60 36.15,38.66 44.62,38.73 53.09,38.79 61.56,38.85 70.03,38.91 78.51,38.97 86.98,39.03 95.45,39.09 103.92,39.16 112.39,39.22 120.86,39.28 129.34,39.34 137.81,39.40 146.28,39.46 154.75,39.53 163.22,39.59 171.69,39.65 180.17,39.71 188.64,39.71 197.11,39.70 205.58,39.70 214.05,39.70 222.53,39.69 231.00,39.69 239.47,39.69 247.94,39.68 256.41,39.68 264.88,39.67 273.34,39.67 281.81,39.66 290.25,39.65 298.69,39.64 307.03,39.60 315.38,39.56 323.35,39.42 331.31,39.28 337.61,38.96 343.91,38.64 345.05,37.07 346.20,35.50 346.25,33.26 346.30,31.01 346.38,28.68 346.46,26.35 346.54,24.02 346.61,21.69 346.59,19.37 346.56,17.05 346.40,14.78 346.24,12.51 345.95,10.45 345.66,8.39 344.96,6.63 344.26,4.87 341.02,3.56 337.79,2.25 329.34,2.23 320.89,2.21 312.43,2.19 303.96,2.17 295.49,2.14 287.02,2.12 278.55,2.10 270.08,2.07 261.61,2.05 253.14,2.03 244.67,2.00 236.20,1.98 227.73,1.96 219.27,1.93 210.80,1.91 202.33,1.89 193.86,1.86 185.39,1.84 176.92,1.82 168.46,1.79 160.00,1.84 151.54,1.88 143.10,1.92 134.67,1.96 126.34,2.00 118.01,2.05 110.10,2.09 102.18,2.13 95.87,2.17 89.56,2.21 89.40,2.19 89.24,2.17 89.09,2.11 88.94,2.06 88.81,1.96 88.68,1.87 88.57,1.75 88.47,1.64 88.39,1.49 88.32,1.35 88.28,1.20 88.24,1.04 88.24,0.88 88.24,0.72 88.28,0.57 88.32,0.41 88.39,0.27 88.47,0.13 88.57,0.01 88.68,-0.10 88.81,-0.19 88.94,-0.28 89.09,-0.34 89.24,-0.39 89.40,-0.41 Z" fill="#cecece" stroke="#cecece" stroke-width="2" pointer-events="none"/></g><g text-align="left" text-anchor="start" fill="#cecece" transform="translate(282.12, 148.31) rotate(0.00, 83.00, 19.00)"><text y="14" letter-spacing="-0.84" font-size="28px" font-family="Caveat Brush" text-align="left" alignment-baseline="central" transform="scale(0.9835139714385606)">site.com/products</text></g><g id="0fb4f33f-ce3b-40cd-2077-24e951786be9_svg" class="tl-centered-g" transform="translate(281.43, 199.84) rotate(0.00, 167.42, 1.01)"><defs><mask id="0fb4f33f-ce3b-40cd-2077-24e951786be9_clip"><rect x="-100" y="-100" width="534.83" height="202.03" fill="white"/><rect x="167.42" y="1.01" width="0" height="0" rx="4" ry="4" fill="black" opacity="1"/></mask></defs><g pointer-events="none" opacity="1" mask=""><path d="M -0.00,1.05 Q -0.00,1.05 41.84,0.83 83.70,0.61 125.55,0.38 167.41,0.15 209.26,-0.07 251.12,-0.31 292.98,-0.55 334.83,-0.79 334.96,-0.77 335.08,-0.75 335.20,-0.69 335.31,-0.63 335.40,-0.54 335.49,-0.44 335.54,-0.33 335.60,-0.21 335.61,-0.08 335.63,0.03 335.60,0.16 335.57,0.28 335.51,0.39 335.44,0.50 335.35,0.59 335.25,0.67 335.13,0.72 335.01,0.77 334.88,0.78 334.75,0.78 334.63,0.75 334.51,0.72 334.40,0.65 334.29,0.57 334.21,0.47 334.14,0.37 334.09,0.25 334.05,0.13 334.05,0.00 334.05,-0.12 334.09,-0.24 334.13,-0.36 334.21,-0.47 334.29,-0.57 334.39,-0.64 334.50,-0.71 334.62,-0.75 334.74,-0.78 334.87,-0.78 335.00,-0.77 335.12,-0.72 335.24,-0.68 335.34,-0.59 335.44,-0.51 335.50,-0.40 335.57,-0.29 335.60,-0.17 335.63,-0.04 335.61,0.08 335.60,0.20 335.55,0.32 335.49,0.44 335.41,0.53 335.32,0.62 335.21,0.68 335.09,0.75 334.97,0.77 334.84,0.79 334.84,0.79 334.84,0.79 292.98,1.06 251.13,1.32 209.28,1.59 167.42,1.87 125.57,2.15 83.71,2.42 41.86,2.71 0.00,3.00 -0.11,2.98 -0.22,2.97 -0.33,2.93 -0.44,2.89 -0.54,2.82 -0.64,2.76 -0.71,2.67 -0.79,2.58 -0.85,2.48 -0.90,2.38 -0.93,2.26 -0.96,2.15 -0.96,2.03 -0.96,1.91 -0.93,1.80 -0.91,1.69 -0.85,1.58 -0.80,1.48 -0.72,1.39 -0.64,1.30 -0.55,1.23 -0.45,1.17 -0.34,1.12 -0.23,1.08 -0.12,1.07 Z" fill="#cecece" stroke="#cecece" stroke-width="2.11" stroke-dasharray="none" stroke-dashoffset="none" stroke-linecap="round" stroke-linejoin="round" pointer-events="stroke"/></g></g><g text-align="left" text-anchor="start" fill="#cecece" transform="translate(394.16, 70.73) rotate(0.00, 55.00, 32.50)"><text y="14" letter-spacing="-0.84" font-size="28px" font-family="Caveat Brush" text-align="left" alignment-baseline="central" transform="scale(1.956587563795696)">client</text></g><g id="074ceb46-2ffe-4c79-11be-539cc13009a1_svg" class="tl-centered-g" transform="translate(290.76, 212.55) rotate(0.00, 45.80, 110.36)"><path d="M 92.60,93.03 Q 92.60,93.03 92.50,99.41 92.39,105.78 92.47,113.79 92.55,121.79 92.63,130.21 92.71,138.62 92.79,147.15 92.87,155.67 92.95,164.22 93.03,172.77 93.11,181.33 93.19,189.88 93.24,198.52 93.30,207.17 90.25,212.78 87.20,218.40 81.85,219.94 76.50,221.48 71.04,221.66 65.58,221.84 60.18,221.75 54.78,221.66 49.40,221.67 44.01,221.68 38.62,221.84 33.22,222.00 27.83,222.15 22.44,222.31 16.92,222.42 11.40,222.54 6.55,219.39 1.69,216.25 0.35,208.59 -0.98,200.94 -1.16,192.69 -1.33,184.44 -1.30,176.03 -1.27,167.62 -1.18,159.17 -1.10,150.71 -1.01,142.24 -0.91,133.77 -0.82,125.29 -0.72,116.82 -0.81,108.34 -0.90,99.87 -0.99,91.39 -1.08,82.92 -1.17,74.44 -1.26,65.97 -1.35,57.49 -1.44,49.02 -1.53,40.54 -1.63,32.07 -1.69,23.51 -1.76,14.95 1.25,9.36 4.28,3.77 9.64,2.13 15.00,0.48 20.47,0.16 25.95,-0.14 31.37,-0.19 36.79,-0.25 42.20,-0.40 47.61,-0.55 53.01,-0.86 58.42,-1.16 63.83,-1.46 69.23,-1.75 74.78,-2.01 80.33,-2.27 85.22,0.83 90.10,3.95 91.44,11.65 92.77,19.36 92.94,27.68 93.10,36.01 93.06,44.50 93.01,52.99 92.92,61.53 92.83,70.07 92.72,78.62 92.61,87.18 92.50,95.73 92.39,104.29 92.47,112.85 92.55,121.41 92.63,132.90 92.70,144.39 92.64,144.73 92.59,145.06 92.43,145.37 92.26,145.67 92.01,145.91 91.76,146.15 91.45,146.29 91.14,146.43 90.79,146.47 90.45,146.51 90.12,146.43 89.78,146.36 89.48,146.18 89.19,146.00 88.97,145.74 88.74,145.48 88.62,145.16 88.49,144.84 88.47,144.49 88.45,144.15 88.55,143.82 88.64,143.48 88.83,143.20 89.03,142.91 89.30,142.71 89.58,142.50 89.90,142.39 90.23,142.28 90.58,142.28 90.92,142.28 91.25,142.39 91.57,142.50 91.85,142.71 92.12,142.92 92.31,143.21 92.51,143.49 92.60,143.82 92.69,144.16 92.67,144.50 92.65,144.84 92.52,145.16 92.39,145.48 92.17,145.74 91.95,146.01 91.65,146.18 91.36,146.36 91.02,146.43 90.68,146.51 90.34,146.47 90.00,146.43 89.68,146.29 89.37,146.14 89.12,145.90 88.87,145.67 88.71,145.36 88.55,145.06 88.50,144.72 88.44,144.38 88.44,144.38 88.44,144.38 88.56,132.89 88.67,121.40 88.78,112.84 88.89,104.28 88.81,95.73 88.73,87.17 88.65,78.62 88.57,70.07 88.47,61.54 88.37,53.01 88.23,44.59 88.08,36.16 87.76,28.14 87.43,20.12 86.76,13.76 86.08,7.41 82.99,5.37 79.91,3.34 74.63,3.35 69.36,3.36 63.95,3.33 58.54,3.31 53.13,3.28 47.72,3.26 42.33,3.41 36.94,3.57 31.63,3.94 26.32,4.31 21.34,4.86 16.36,5.42 12.33,6.40 8.29,7.38 6.10,11.34 3.91,15.29 3.84,23.68 3.76,32.07 3.66,40.54 3.56,49.02 3.46,57.49 3.36,65.97 3.27,74.44 3.17,82.92 3.07,91.40 2.97,99.87 2.87,108.35 2.77,116.82 2.86,125.29 2.96,133.77 3.05,142.23 3.15,150.70 3.25,159.15 3.36,167.59 3.52,175.94 3.67,184.28 4.01,192.22 4.35,200.16 5.03,206.47 5.71,212.77 8.82,214.84 11.93,216.92 17.19,217.05 22.45,217.18 27.84,217.35 33.23,217.53 38.61,217.69 44.00,217.86 49.37,217.85 54.73,217.84 60.03,217.61 65.32,217.37 70.28,216.95 75.24,216.52 79.25,215.63 83.27,214.74 85.44,210.78 87.61,206.82 87.70,198.35 87.79,189.87 87.90,181.32 88.01,172.76 88.12,164.21 88.23,155.66 88.34,147.14 88.45,138.62 88.56,130.20 88.67,121.78 88.78,113.78 88.89,105.78 88.81,99.40 88.73,93.02 88.75,92.79 88.78,92.56 88.87,92.34 88.95,92.12 89.08,91.93 89.22,91.74 89.39,91.58 89.57,91.43 89.77,91.32 89.98,91.21 90.21,91.16 90.44,91.10 90.67,91.10 90.90,91.10 91.13,91.16 91.36,91.22 91.56,91.32 91.77,91.43 91.94,91.59 92.12,91.74 92.25,91.94 92.38,92.13 92.47,92.35 92.55,92.57 92.58,92.80 Z" fill="#36a64c" stroke="#36a64c" stroke-width="3.5" pointer-events="none"/></g><g id="7df60573-77b7-40de-0a3d-0d0e4d0c8c73_svg" class="tl-centered-g" transform="translate(404.60, 212.09) rotate(0.00, 99.75, 110.79)"><path d="M -0.31,127.78 Q -0.31,127.78 -0.20,121.46 -0.09,115.14 -0.17,107.21 -0.25,99.27 -0.32,90.93 -0.40,82.59 -0.47,74.14 -0.55,65.69 -0.63,57.22 -0.70,48.75 -0.78,40.27 -0.85,31.79 -0.91,23.22 -0.96,14.65 2.17,9.01 5.30,3.37 12.75,1.74 20.20,0.11 28.24,-0.17 36.28,-0.46 44.45,-0.50 52.62,-0.55 60.83,-0.54 69.04,-0.52 77.26,-0.49 85.48,-0.46 93.70,-0.53 101.92,-0.60 110.15,-0.78 118.37,-0.95 126.59,-1.12 134.81,-1.29 143.04,-1.47 151.26,-1.64 159.48,-1.81 167.70,-1.98 176.02,-2.13 184.33,-2.28 189.92,0.83 195.52,3.96 197.11,11.65 198.71,19.34 198.99,27.69 199.26,36.04 199.30,44.53 199.33,53.03 199.30,61.57 199.28,70.11 199.24,78.67 199.20,87.22 199.15,95.78 199.11,104.34 199.25,112.90 199.39,121.45 199.54,130.01 199.68,138.57 199.83,147.13 199.97,155.69 200.11,164.24 200.26,172.80 200.40,181.36 200.54,189.92 200.67,198.56 200.79,207.21 197.66,212.88 194.52,218.56 187.03,220.13 179.53,221.69 171.42,221.91 163.31,222.12 155.07,222.09 146.82,222.05 138.54,221.95 130.26,221.86 121.97,221.74 113.67,221.63 105.38,221.62 97.08,221.61 88.78,221.70 80.49,221.79 72.19,221.88 63.89,221.97 55.59,222.06 47.29,222.15 39.00,222.24 30.70,222.33 22.31,222.39 13.93,222.46 8.32,219.31 2.72,216.15 1.17,208.51 -0.37,200.87 -0.58,192.59 -0.80,184.31 -0.76,175.89 -0.73,167.47 -0.63,159.00 -0.54,150.54 -0.43,142.06 -0.32,133.58 -0.21,125.10 -0.10,116.62 -0.17,108.13 -0.25,99.65 -0.32,88.26 -0.39,76.88 -0.33,76.54 -0.27,76.20 -0.11,75.89 0.04,75.59 0.29,75.35 0.54,75.12 0.86,74.97 1.17,74.83 1.51,74.79 1.85,74.76 2.19,74.83 2.53,74.91 2.82,75.09 3.12,75.26 3.34,75.53 3.56,75.79 3.69,76.11 3.81,76.43 3.83,76.77 3.85,77.12 3.76,77.45 3.66,77.78 3.47,78.07 3.28,78.35 3.00,78.56 2.73,78.77 2.40,78.88 2.07,78.99 1.73,78.98 1.38,78.98 1.06,78.87 0.73,78.76 0.46,78.55 0.18,78.34 -0.00,78.06 -0.19,77.77 -0.28,77.44 -0.37,77.11 -0.35,76.76 -0.33,76.42 -0.21,76.10 -0.08,75.78 0.14,75.52 0.36,75.26 0.65,75.08 0.95,74.90 1.29,74.83 1.62,74.76 1.97,74.79 2.31,74.83 2.62,74.98 2.93,75.12 3.18,75.36 3.43,75.60 3.59,75.90 3.75,76.21 3.81,76.55 3.86,76.89 3.86,76.89 3.86,76.89 3.74,88.27 3.62,99.66 3.51,108.14 3.39,116.62 3.47,125.11 3.55,133.59 3.63,142.06 3.71,150.54 3.81,158.99 3.90,167.44 4.05,175.78 4.21,184.13 4.57,192.05 4.94,199.97 5.77,206.31 6.60,212.64 10.44,214.71 14.28,216.77 22.50,216.87 30.71,216.96 39.00,217.08 47.30,217.20 55.60,217.32 63.90,217.43 72.20,217.55 80.49,217.67 88.79,217.78 97.09,217.90 105.38,217.91 113.68,217.93 121.97,217.83 130.26,217.74 138.52,217.63 146.79,217.52 154.95,217.35 163.12,217.18 170.86,216.80 178.60,216.41 184.79,215.56 190.98,214.70 193.04,210.80 195.10,206.90 195.12,198.42 195.15,189.95 195.19,181.39 195.24,172.83 195.29,164.27 195.33,155.71 195.38,147.15 195.42,138.59 195.47,130.04 195.51,121.48 195.56,112.92 195.61,104.36 195.46,95.80 195.32,87.25 195.17,78.70 195.02,70.15 194.86,61.62 194.69,53.10 194.47,44.67 194.25,36.25 193.82,28.26 193.40,20.27 192.52,13.88 191.65,7.50 187.83,5.45 184.02,3.39 175.88,3.38 167.75,3.37 159.52,3.33 151.30,3.30 143.08,3.27 134.85,3.23 126.63,3.20 118.40,3.16 110.18,3.13 101.96,3.09 93.73,3.16 85.51,3.23 77.30,3.41 69.08,3.59 60.89,3.78 52.70,3.97 44.61,4.22 36.52,4.47 28.85,4.93 21.17,5.39 15.03,6.30 8.90,7.21 6.81,11.10 4.72,15.00 4.63,23.40 4.53,31.80 4.42,40.28 4.31,48.76 4.19,57.23 4.08,65.71 3.96,74.15 3.85,82.60 3.74,90.94 3.62,99.28 3.51,107.21 3.40,115.14 3.48,121.46 3.56,127.78 3.53,128.02 3.50,128.25 3.42,128.47 3.33,128.69 3.20,128.88 3.07,129.07 2.89,129.22 2.72,129.38 2.51,129.49 2.30,129.60 2.08,129.65 1.85,129.71 1.61,129.71 1.38,129.70 1.15,129.65 0.93,129.59 0.72,129.48 0.51,129.37 0.34,129.22 0.16,129.06 0.03,128.87 -0.09,128.68 -0.17,128.46 -0.26,128.24 -0.28,128.01 Z" fill="#36a64c" stroke="#36a64c" stroke-width="3.5" pointer-events="none"/></g><g id="af8ea42d-ddd7-4b3b-14fd-d7e5bdcb593e_svg" class="tl-centered-g" transform="translate(431.09, 287.34) rotate(0.00, 75.19, 25.43)"><rect x="2.11" y="2.11" width="148.25" height="48.73" fill="#345246" pointer-events="none"/><g pointer-events="none" stroke="#36a64c" stroke-width="4.23" stroke-linecap="round"><line x1="2.11" y1="2.11" x2="148.25" y2="2.11" stroke-dasharray="none" stroke-dashoffset="none"/><line x1="148.25" y1="2.11" x2="148.25" y2="48.73" stroke-dasharray="none" stroke-dashoffset="none"/><line x1="148.25" y1="48.73" x2="2.11" y2="48.73" stroke-dasharray="none" stroke-dashoffset="none"/><line x1="2.11" y1="48.73" x2="2.11" y2="2.11" stroke-dasharray="none" stroke-dashoffset="none"/></g></g><g id="399f385c-ff8e-438c-36a5-9e4b4e022cf9_svg" class="tl-centered-g" transform="translate(432.29, 352.55) rotate(0.00, 75.19, 25.43)"><rect x="2.11" y="2.11" width="148.25" height="48.73" fill="#345246" pointer-events="none"/><g pointer-events="none" stroke="#36a64c" stroke-width="4.23" stroke-linecap="round"><line x1="2.11" y1="2.11" x2="148.25" y2="2.11" stroke-dasharray="none" stroke-dashoffset="none"/><line x1="148.25" y1="2.11" x2="148.25" y2="48.73" stroke-dasharray="none" stroke-dashoffset="none"/><line x1="148.25" y1="48.73" x2="2.11" y2="48.73" stroke-dasharray="none" stroke-dashoffset="none"/><line x1="2.11" y1="48.73" x2="2.11" y2="2.11" stroke-dasharray="none" stroke-dashoffset="none"/></g></g><g id="0ce6d3eb-0fe9-4632-10bc-9633f6f168a1_svg" class="tl-centered-g" transform="translate(432.19, 234.92) rotate(0.00, 74.13, 18.32)"><rect x="2.11" y="2.11" width="146.14" height="34.53" fill="#345246" pointer-events="none"/><g pointer-events="none" stroke="#36a64c" stroke-width="4.23" stroke-linecap="round"><line x1="2.11" y1="2.11" x2="146.14" y2="2.11" stroke-dasharray="none" stroke-dashoffset="none"/><line x1="146.14" y1="2.11" x2="146.14" y2="34.53" stroke-dasharray="none" stroke-dashoffset="none"/><line x1="146.14" y1="34.53" x2="2.11" y2="34.53" stroke-dasharray="none" stroke-dashoffset="none"/><line x1="2.11" y1="34.53" x2="2.11" y2="2.11" stroke-dasharray="none" stroke-dashoffset="none"/></g></g><g id="0860b8fe-e911-4940-3b2b-a4d7529e7528_svg" class="tl-centered-g" transform="translate(311.02, 233.58) rotate(0.00, 26.07, 25.02)"><rect x="2.11" y="2.11" width="50.01" height="47.92" fill="#345246" pointer-events="none"/><g pointer-events="none" stroke="#36a64c" stroke-width="4.23" stroke-linecap="round"><line x1="2.11" y1="2.11" x2="50.01" y2="2.11" stroke-dasharray="none" stroke-dashoffset="none"/><line x1="50.01" y1="2.11" x2="50.01" y2="47.92" stroke-dasharray="none" stroke-dashoffset="none"/><line x1="50.01" y1="47.92" x2="2.11" y2="47.92" stroke-dasharray="none" stroke-dashoffset="none"/><line x1="2.11" y1="47.92" x2="2.11" y2="2.11" stroke-dasharray="none" stroke-dashoffset="none"/></g></g><g id="fd8c2367-43f5-4320-2854-c20ea21a12bd_svg" class="tl-centered-g" transform="translate(311.02, 294.79) rotate(0.00, 26.07, 51.27)"><rect x="2.11" y="2.11" width="50.01" height="100.43" fill="#345246" pointer-events="none"/><g pointer-events="none" stroke="#36a64c" stroke-width="4.23" stroke-linecap="round"><line x1="2.11" y1="2.11" x2="50.01" y2="2.11" stroke-dasharray="none" stroke-dashoffset="none"/><line x1="50.01" y1="2.11" x2="50.01" y2="100.43" stroke-dasharray="none" stroke-dashoffset="none"/><line x1="50.01" y1="100.43" x2="2.11" y2="100.43" stroke-dasharray="none" stroke-dashoffset="none"/><line x1="2.11" y1="100.43" x2="2.11" y2="2.11" stroke-dasharray="none" stroke-dashoffset="none"/></g></g><g text-align="center" text-anchor="middle" fill="#ebbb38" transform="translate(690.45, 120.42) rotate(0.00, 256.00, 58.50)"><text y="14" letter-spacing="-0.84" font-size="28px" font-family="Caveat Brush" text-align="center" alignment-baseline="central" transform="scale(3.8172248803827746)" x="67.06">So now where's</text></g><g text-align="center" text-anchor="middle" fill="#ebbb38" transform="translate(687.84, 217.60) rotate(0.00, 226.50, 58.50)"><text y="14" letter-spacing="-0.84" font-size="28px" font-family="Caveat Brush" text-align="center" alignment-baseline="central" transform="scale(3.8172248803827746)" x="59.33">the source of</text></g><g text-align="center" text-anchor="middle" fill="#ebbb38" transform="translate(692.85, 315.20) rotate(0.00, 120.50, 58.50)"><text y="14" letter-spacing="-0.84" font-size="28px" font-family="Caveat Brush" text-align="center" alignment-baseline="central" transform="scale(3.8172248803827746)" x="31.56">truth?</text></g><g id="a08b033e-e7ca-48b0-02e8-003b4e4061d4_svg" class="tl-centered-g" transform="translate(1149.22, 451.97) rotate(0.00, 72.11, 57.60)"><path d="M 35.35,6.01 Q 35.35,6.01 39.50,2.37 43.66,-1.26 46.55,-2.53 49.44,-3.81 53.08,-4.83 56.72,-5.85 61.15,-6.39 65.57,-6.93 70.67,-6.91 75.76,-6.90 81.37,-6.14 86.98,-5.37 92.90,-3.70 98.81,-2.02 104.77,0.65 110.73,3.33 116.41,7.09 122.09,10.85 127.10,15.75 132.11,20.64 136.03,26.60 139.94,32.56 142.34,39.39 144.73,46.23 145.25,53.62 145.77,61.00 144.17,68.50 142.58,75.99 138.80,83.08 135.03,90.17 129.22,96.33 123.40,102.49 115.89,107.25 108.37,112.02 99.65,115.02 90.92,118.03 81.59,119.06 72.25,120.09 62.96,119.09 53.67,118.09 45.05,115.18 36.44,112.26 29.05,107.68 21.67,103.11 15.94,97.25 10.21,91.39 6.38,84.71 2.56,78.03 0.73,70.99 -1.09,63.96 -1.01,57.03 -0.94,50.10 0.80,43.66 2.54,37.22 5.61,31.56 8.68,25.90 12.70,21.17 16.71,16.45 21.25,12.68 25.79,8.91 30.54,6.05 35.29,3.20 39.97,1.19 44.66,-0.80 49.07,-2.04 53.48,-3.27 57.44,-3.84 61.39,-4.40 64.75,-4.45 68.12,-4.50 74.03,-3.36 79.94,-2.23 79.94,-2.22 79.94,-2.22 79.94,-2.21 79.94,-2.21 74.20,-1.35 68.45,-0.49 65.34,0.00 62.23,0.49 58.58,1.22 54.93,1.95 50.82,3.08 46.70,4.20 42.28,5.92 37.85,7.64 33.33,10.14 28.81,12.64 24.50,16.05 20.20,19.46 16.45,23.79 12.69,28.12 9.82,33.30 6.95,38.47 5.29,44.34 3.64,50.21 3.50,56.54 3.36,62.87 4.97,69.33 6.58,75.80 10.05,82.01 13.53,88.22 18.83,93.72 24.13,99.22 31.04,103.56 37.95,107.90 46.07,110.70 54.20,113.50 62.98,114.49 71.77,115.48 80.61,114.55 89.44,113.61 97.67,110.82 105.90,108.03 112.95,103.62 120.00,99.21 125.42,93.54 130.83,87.87 134.34,81.39 137.84,74.91 139.33,68.10 140.82,61.29 140.36,54.59 139.90,47.88 137.69,41.68 135.49,35.47 131.86,30.07 128.22,24.66 123.53,20.27 118.85,15.88 113.52,12.61 108.20,9.33 102.62,7.17 97.05,5.01 91.57,3.85 86.09,2.69 80.98,2.29 75.87,1.89 71.28,2.03 66.68,2.18 62.69,2.67 58.69,3.15 52.53,4.13 46.36,5.12 40.86,5.57 Z" fill="#cecece" stroke="#cecece" stroke-width="5" pointer-events="none" stroke-linecap="round" stroke-linejoin="round"/></g><g text-align="center" text-anchor="middle" fill="#cecece" transform="translate(1167.39, 455.93) rotate(0.00, 51.00, 53.00)"><text y="48" letter-spacing="-2.88" font-size="96px" font-family="Caveat Brush" text-align="center" alignment-baseline="central" transform="translate(0, 0)" x="51">DB</text></g><g id="2d447d3f-4be2-47a2-2850-7ed4ce3948e6_svg" class="tl-centered-g" transform="translate(710.21, 474.42) rotate(0.00, 183.00, 26.65)"><defs><mask id="2d447d3f-4be2-47a2-2850-7ed4ce3948e6_clip"><rect x="-100" y="-100" width="566.00" height="253.29" fill="white"/><rect x="179.86" y="48.00" width="0" height="0" rx="4" ry="4" fill="black" opacity="1"/></mask></defs><g pointer-events="none" opacity="1" mask=""><path d="M -17.55,-11.54 Q -17.55,-11.54 -15.03,-10.93 -12.50,-10.32 -9.63,-9.05 -6.77,-7.78 -2.78,-6.08 1.20,-4.37 6.28,-2.28 11.35,-0.20 17.46,2.18 23.56,4.56 30.65,7.16 37.74,9.76 45.74,12.48 53.74,15.21 62.56,17.96 71.38,20.71 80.93,23.39 90.47,26.07 100.63,28.60 110.79,31.13 121.43,33.42 132.07,35.72 143.06,37.72 154.05,39.72 165.24,41.38 176.43,43.03 187.66,44.31 198.89,45.59 210.03,46.49 221.16,47.39 232.03,47.91 242.90,48.44 253.36,48.62 263.82,48.80 273.73,48.66 283.64,48.53 292.87,48.14 302.10,47.76 310.53,47.19 318.95,46.63 326.46,45.94 333.98,45.25 340.48,44.52 346.99,43.79 352.42,43.09 357.86,42.38 362.14,41.76 366.43,41.14 369.53,40.66 372.62,40.18 375.11,39.77 377.60,39.36 378.32,39.35 379.05,39.35 379.74,39.58 380.43,39.81 381.02,40.25 381.60,40.68 382.01,41.28 382.42,41.89 382.62,42.59 382.82,43.29 382.78,44.01 382.74,44.74 382.48,45.42 382.21,46.10 381.74,46.65 381.27,47.21 380.65,47.59 380.03,47.97 379.32,48.13 378.61,48.29 377.88,48.21 377.16,48.13 376.50,47.83 375.84,47.53 375.30,47.03 374.77,46.53 374.43,45.89 374.09,45.25 373.97,44.53 373.84,43.81 373.96,43.09 374.07,42.37 374.41,41.73 374.75,41.08 375.28,40.58 375.80,40.08 376.46,39.77 377.12,39.46 377.85,39.38 378.57,39.30 379.28,39.45 379.99,39.61 380.62,39.98 381.24,40.35 381.72,40.90 382.19,41.46 382.46,42.13 382.73,42.81 382.78,43.53 382.82,44.26 382.63,44.96 382.44,45.67 382.03,46.27 381.62,46.87 381.05,47.32 380.47,47.76 379.78,48.00 379.09,48.23 379.09,48.23 379.09,48.23 376.55,48.65 374.01,49.07 370.86,49.56 367.72,50.05 363.37,50.68 359.01,51.31 353.51,52.02 348.00,52.74 341.40,53.48 334.79,54.22 327.18,54.91 319.56,55.60 311.01,56.18 302.47,56.75 293.12,57.14 283.77,57.52 273.72,57.66 263.67,57.79 253.07,57.61 242.47,57.43 231.45,56.90 220.43,56.36 209.15,55.45 197.88,54.54 186.49,53.24 175.10,51.94 163.77,50.25 152.44,48.57 141.31,46.54 130.18,44.51 119.40,42.19 108.62,39.86 98.33,37.30 88.04,34.74 78.37,32.02 68.71,29.30 59.77,26.51 50.83,23.72 42.74,20.97 34.65,18.21 27.47,15.58 20.29,12.95 14.10,10.53 7.92,8.12 2.79,6.00 -2.32,3.89 -6.36,2.17 -10.40,0.44 -13.31,-0.83 -16.21,-2.11 -18.33,-3.60 -20.46,-5.09 -20.82,-5.31 -21.19,-5.53 -21.49,-5.84 -21.79,-6.14 -22.01,-6.50 -22.23,-6.87 -22.36,-7.28 -22.48,-7.68 -22.51,-8.11 -22.53,-8.53 -22.46,-8.95 -22.38,-9.37 -22.20,-9.76 -22.03,-10.15 -21.76,-10.48 -21.50,-10.82 -21.17,-11.08 -20.83,-11.34 -20.44,-11.52 -20.05,-11.69 -19.63,-11.77 -19.21,-11.84 -18.79,-11.82 -18.36,-11.79 -17.96,-11.66 Z" fill="#ebbb38" stroke="#ebbb38" stroke-width="0" stroke-dasharray="none" stroke-dashoffset="none" stroke-linecap="round" stroke-linejoin="round" pointer-events="none"/><g><path d="M 349.07,28.184494142706736 L 386.47,42.38 355.47,67.66844336069343" fill="none" stroke="#ebbb38" stroke-width="9.09" stroke-linecap="round" stroke-linejoin="round" pointer-events="none"/></g></g></g><g id="21559dc1-2e8f-4409-02ec-fb8aef6c5eb4_svg" class="tl-centered-g" transform="translate(770.09, 455.17) rotate(0.00, 96.73, 58.70)"><path d="M 104.32,115.37 Q 104.32,115.37 98.71,115.28 93.09,115.20 86.04,115.09 78.99,114.99 71.57,114.87 64.16,114.76 56.65,114.65 49.14,114.54 41.61,114.42 34.08,114.31 26.54,114.20 19.00,114.08 13.35,110.33 7.71,106.57 6.12,100.84 4.54,95.11 4.00,88.88 3.45,82.65 3.17,76.28 2.89,69.92 2.68,63.53 2.47,57.13 2.27,50.73 2.07,44.32 1.88,37.92 1.69,31.51 1.50,25.11 1.31,18.70 4.99,13.34 8.66,7.98 15.36,6.60 22.06,5.22 29.53,4.85 37.00,4.48 44.67,4.36 52.33,4.25 60.05,4.21 67.77,4.16 75.49,4.13 83.22,4.11 90.96,4.08 98.69,4.06 106.42,4.03 114.15,4.01 121.89,3.99 129.62,3.96 137.35,3.94 145.09,3.92 152.82,3.90 160.56,3.87 168.29,3.85 176.02,3.83 181.72,7.55 187.42,11.27 188.78,17.15 190.15,23.03 190.42,29.46 190.68,35.89 190.66,42.46 190.65,49.04 190.56,55.64 190.47,62.25 190.36,68.87 190.26,75.49 190.14,82.11 190.03,88.73 189.92,95.35 189.81,101.97 186.05,107.38 182.30,112.80 175.72,114.09 169.15,115.39 161.86,115.63 154.56,115.88 147.08,115.86 139.61,115.84 132.08,115.75 124.56,115.66 117.02,115.55 109.48,115.44 101.94,115.33 94.41,115.22 86.86,115.10 79.32,114.99 69.20,114.84" fill="rgb(30,33,37)" pointer-events="none"/><path d="M 104.29,118.01 Q 104.29,118.01 98.67,117.93 93.05,117.84 86.00,117.89 78.94,117.93 71.53,117.96 64.11,118.00 56.60,118.03 49.09,118.07 41.55,118.10 34.02,118.14 26.30,118.12 18.58,118.10 11.80,113.77 5.01,109.44 3.01,102.76 1.01,96.08 0.64,89.50 0.27,82.92 0.22,76.48 0.16,70.04 -0.04,63.63 -0.25,57.22 -0.68,50.82 -1.11,44.42 -1.53,38.02 -1.96,31.62 -2.31,24.99 -2.66,18.35 1.65,11.76 5.98,5.17 13.64,3.32 21.29,1.46 29.06,1.21 36.83,0.95 44.56,0.98 52.29,1.02 60.02,1.12 67.75,1.22 75.48,1.34 83.21,1.46 90.95,1.43 98.68,1.41 106.41,1.24 114.15,1.07 121.88,0.90 129.61,0.73 137.34,0.55 145.08,0.38 152.81,0.21 160.54,0.04 168.46,-0.06 176.38,-0.18 183.27,4.16 190.16,8.51 191.94,15.36 193.72,22.21 193.80,28.98 193.88,35.76 193.63,42.40 193.38,49.04 193.29,55.67 193.20,62.29 193.33,68.92 193.45,75.54 193.57,82.17 193.69,88.79 193.75,95.61 193.81,102.42 189.38,109.03 184.96,115.63 177.42,117.39 169.88,119.15 162.28,119.28 154.68,119.41 147.14,119.24 139.60,119.07 132.06,118.84 124.52,118.60 116.98,118.34 109.45,118.09 101.91,117.98 94.37,117.86 86.82,117.90 79.28,117.93 69.16,117.93 59.03,117.92 58.52,117.83 58.00,117.74 57.54,117.49 57.08,117.23 56.73,116.85 56.37,116.46 56.16,115.98 55.95,115.50 55.90,114.98 55.85,114.46 55.97,113.95 56.09,113.44 56.37,113.00 56.65,112.55 57.05,112.22 57.45,111.89 57.94,111.70 58.43,111.51 58.96,111.49 59.48,111.47 59.98,111.62 60.49,111.77 60.92,112.07 61.34,112.37 61.66,112.79 61.97,113.21 62.13,113.71 62.29,114.21 62.28,114.73 62.27,115.26 62.09,115.75 61.92,116.25 61.60,116.66 61.27,117.07 60.84,117.36 60.40,117.65 59.89,117.78 59.38,117.91 58.86,117.87 58.34,117.84 57.85,117.64 57.37,117.43 56.98,117.09 56.58,116.74 56.32,116.29 56.06,115.84 55.95,115.32 55.85,114.81 55.91,114.29 55.98,113.77 56.20,113.30 56.43,112.83 56.80,112.45 57.16,112.08 57.63,111.84 58.10,111.60 58.61,111.52 59.13,111.45 59.13,111.45 59.13,111.45 69.25,111.75 79.37,112.05 86.91,112.31 94.44,112.57 101.98,112.68 109.52,112.79 117.06,112.75 124.59,112.71 132.10,112.65 139.62,112.60 147.03,112.47 154.44,112.35 161.43,111.99 168.42,111.63 174.03,110.80 179.64,109.97 182.72,105.74 185.81,101.51 186.09,95.09 186.37,88.67 186.72,82.05 187.06,75.44 187.40,68.83 187.74,62.22 187.83,55.62 187.92,49.03 187.70,42.53 187.49,36.02 187.04,29.93 186.59,23.84 185.63,18.93 184.67,14.02 180.17,10.93 175.66,7.84 168.11,7.77 160.57,7.70 152.83,7.58 145.10,7.45 137.37,7.33 129.63,7.20 121.90,7.08 114.16,6.95 106.43,6.83 98.70,6.70 90.97,6.73 83.23,6.75 75.51,6.93 67.78,7.11 60.08,7.30 52.38,7.49 44.78,7.75 37.18,8.01 30.00,8.49 22.83,8.97 17.09,9.88 11.35,10.79 8.32,14.92 5.30,19.05 5.32,25.23 5.35,31.40 5.31,37.81 5.27,44.23 5.23,50.63 5.20,57.04 5.41,63.42 5.62,69.80 6.13,76.08 6.64,82.37 7.35,88.26 8.07,94.15 9.24,98.93 10.40,103.71 14.91,106.89 19.41,110.07 26.77,110.27 34.13,110.48 41.66,110.74 49.19,111.00 56.70,111.26 64.21,111.52 71.62,111.78 79.03,112.04 86.08,112.30 93.13,112.55 98.75,112.63 104.36,112.72 104.68,112.76 105.00,112.81 105.29,112.92 105.59,113.04 105.85,113.23 106.11,113.41 106.32,113.65 106.53,113.90 106.67,114.18 106.81,114.47 106.89,114.78 106.96,115.09 106.95,115.41 106.95,115.73 106.87,116.03 106.79,116.34 106.63,116.62 106.48,116.90 106.27,117.14 106.05,117.37 105.79,117.55 105.52,117.73 105.22,117.84 104.92,117.95 104.60,117.98 Z" fill="#cecece" stroke="#cecece" stroke-width="5" pointer-events="none"/></g><g text-align="center" text-anchor="middle" fill="#cecece" transform="translate(804.89, 475.99) rotate(0.00, 58.50, 32.00)"><text y="48" letter-spacing="-2.88" font-size="96px" font-family="Caveat Brush" text-align="center" alignment-baseline="central" transform="scale(0.5587583688374927)" x="104.69">server</text></g><g id="7f77b483-6204-4745-1c15-aa65d0772867_svg" class="tl-centered-g" transform="translate(1251.42, 346.21) rotate(0.00, 8.13, 39.33)"><defs><mask id="7f77b483-6204-4745-1c15-aa65d0772867_clip"><rect x="-100" y="-100" width="216.25" height="278.65" fill="white"/><rect x="8.12" y="39.33" width="0" height="0" rx="2.51" ry="2.51" fill="black" opacity="1"/></mask></defs><g pointer-events="none" opacity="1" mask=""><path d="M 18.45,0.45 Q 18.45,0.45 16.45,9.65 14.45,18.85 12.47,28.06 10.50,37.26 8.54,46.47 6.59,55.68 4.64,64.90 2.70,74.11 2.60,74.37 2.50,74.63 2.32,74.85 2.14,75.06 1.91,75.21 1.67,75.36 1.40,75.42 1.12,75.48 0.84,75.46 0.57,75.43 0.31,75.32 0.05,75.20 -0.14,75.01 -0.35,74.82 -0.48,74.58 -0.62,74.33 -0.66,74.06 -0.71,73.78 -0.67,73.50 -0.63,73.23 -0.50,72.98 -0.37,72.73 -0.17,72.53 0.02,72.34 0.27,72.22 0.52,72.10 0.80,72.06 1.08,72.03 1.35,72.09 1.63,72.14 1.87,72.28 2.11,72.43 2.29,72.64 2.48,72.85 2.58,73.11 2.69,73.37 2.71,73.64 2.73,73.92 2.66,74.19 2.59,74.46 2.43,74.70 2.28,74.93 2.06,75.10 1.84,75.28 1.57,75.37 1.31,75.46 1.03,75.47 0.75,75.47 0.48,75.38 0.22,75.30 -0.00,75.13 -0.22,74.96 -0.38,74.73 -0.54,74.50 -0.62,74.24 -0.70,73.97 -0.69,73.69 -0.68,73.41 -0.68,73.41 -0.68,73.41 1.18,64.18 3.05,54.95 4.90,45.72 6.75,36.49 8.59,27.25 10.42,18.02 12.23,8.78 14.04,-0.45 14.13,-0.71 14.22,-0.96 14.36,-1.19 14.51,-1.42 14.70,-1.61 14.90,-1.80 15.13,-1.93 15.37,-2.07 15.63,-2.14 15.89,-2.22 16.16,-2.23 16.43,-2.24 16.70,-2.18 16.96,-2.13 17.21,-2.01 17.45,-1.89 17.66,-1.72 17.87,-1.55 18.03,-1.33 18.20,-1.11 18.30,-0.87 18.41,-0.62 18.45,-0.35 18.49,-0.08 18.47,0.18 Z" fill="#ebbb38" stroke="#ebbb38" stroke-width="4.54" stroke-dasharray="none" stroke-dashoffset="none" stroke-linecap="round" stroke-linejoin="round" pointer-events="stroke"/><g><path d="M 17.80,58.661147246105344 L 0,78.66 -8.419029062834287,53.24448057943869" fill="none" stroke="#ebbb38" stroke-width="9.09" stroke-linecap="round" stroke-linejoin="round" pointer-events="none"/></g></g></g><g id="78105a72-6f98-4f94-26aa-4a14af4ecb3f_svg" class="tl-centered-g" transform="translate(1305.46, 416.18) rotate(0.00, 17.82, 19.52)"><defs><mask id="78105a72-6f98-4f94-26aa-4a14af4ecb3f_clip"><rect x="-100" y="-100" width="235.63" height="239.05" fill="white"/><rect x="17.81" y="19.52" width="0" height="0" rx="2" ry="2" fill="black" opacity="1"/></mask></defs><g pointer-events="none" opacity="1" mask=""><path d="M 37.49,1.70 Q 37.49,1.70 33.40,6.07 29.31,10.43 25.24,14.82 21.17,19.20 17.10,23.59 13.04,27.98 8.98,32.38 4.93,36.78 4.66,36.99 4.39,37.20 4.07,37.32 3.75,37.43 3.40,37.44 3.06,37.44 2.74,37.34 2.41,37.24 2.13,37.04 1.86,36.83 1.66,36.55 1.46,36.28 1.36,35.95 1.27,35.62 1.28,35.28 1.29,34.94 1.41,34.61 1.53,34.29 1.75,34.03 1.97,33.76 2.26,33.58 2.55,33.40 2.88,33.32 3.21,33.24 3.55,33.27 3.89,33.30 4.21,33.44 4.52,33.58 4.77,33.81 5.03,34.04 5.19,34.34 5.36,34.64 5.42,34.98 5.48,35.31 5.43,35.65 5.38,35.99 5.23,36.29 5.07,36.60 4.83,36.84 4.58,37.08 4.28,37.23 3.97,37.38 3.63,37.42 3.29,37.47 2.95,37.40 2.62,37.33 2.32,37.16 2.03,36.99 1.80,36.73 1.57,36.48 1.44,36.16 1.31,35.84 1.28,35.50 1.26,35.16 1.34,34.83 1.43,34.50 1.62,34.21 1.80,33.93 1.80,33.93 1.80,33.93 5.81,29.49 9.82,25.05 13.82,20.60 17.83,16.15 21.82,11.69 25.81,7.23 29.78,2.76 33.76,-1.70 33.99,-1.90 34.22,-2.10 34.49,-2.23 34.76,-2.37 35.06,-2.44 35.36,-2.51 35.66,-2.50 35.97,-2.50 36.26,-2.42 36.56,-2.34 36.82,-2.20 37.09,-2.05 37.32,-1.85 37.54,-1.64 37.71,-1.39 37.88,-1.14 37.98,-0.85 38.09,-0.56 38.12,-0.26 38.15,0.03 38.11,0.33 38.07,0.64 37.96,0.92 37.84,1.20 37.67,1.45 Z" fill="#ebbb38" stroke="#ebbb38" stroke-width="4.54" stroke-dasharray="none" stroke-dashoffset="none" stroke-linecap="round" stroke-linejoin="round" pointer-events="stroke"/><g><path d="M 16.79,33.71556932740589 L 0,39.05 3.77,21.838902660739222" fill="none" stroke="#ebbb38" stroke-width="9.09" stroke-linecap="round" stroke-linejoin="round" pointer-events="none"/></g></g></g><g id="0541cce4-1e60-4e3a-2cd9-1465e949696e_svg" class="tl-centered-g" transform="translate(1146.14, 344.41) rotate(0.00, 20.46, 41.94)"><defs><mask id="0541cce4-1e60-4e3a-2cd9-1465e949696e_clip"><rect x="-100" y="-100" width="240.93" height="283.88" fill="white"/><rect x="20.46" y="41.94" width="0" height="0" rx="2.91" ry="2.91" fill="black" opacity="1"/></mask></defs><g pointer-events="none" opacity="1" mask=""><path d="M 1.96,-0.95 Q 1.96,-0.95 6.71,9.00 11.47,18.97 16.24,28.93 21.01,38.88 25.81,48.83 30.60,58.78 35.41,68.72 40.21,78.66 40.29,78.91 40.36,79.17 40.35,79.44 40.35,79.70 40.25,79.95 40.16,80.20 39.99,80.41 39.82,80.61 39.60,80.75 39.37,80.90 39.11,80.96 38.86,81.02 38.59,81.00 38.32,80.98 38.08,80.87 37.84,80.76 37.64,80.58 37.44,80.40 37.31,80.17 37.18,79.94 37.14,79.68 37.09,79.42 37.13,79.15 37.16,78.89 37.28,78.65 37.40,78.41 37.59,78.23 37.78,78.04 38.02,77.92 38.26,77.81 38.52,77.77 38.79,77.74 39.05,77.79 39.31,77.84 39.54,77.97 39.77,78.11 39.95,78.31 40.12,78.50 40.23,78.75 40.33,79.00 40.35,79.26 40.37,79.53 40.30,79.78 40.24,80.04 40.09,80.26 39.95,80.49 39.74,80.65 39.53,80.82 39.28,80.91 39.03,81.00 38.77,81.00 38.50,81.01 38.25,80.93 37.99,80.85 37.78,80.69 37.56,80.54 37.41,80.32 37.25,80.10 37.25,80.10 37.25,80.10 32.38,70.20 27.50,60.29 22.60,50.39 17.71,40.49 12.80,30.60 7.89,20.71 2.96,10.83 -1.96,0.95 -2.05,0.71 -2.13,0.46 -2.16,0.19 -2.18,-0.06 -2.14,-0.32 -2.10,-0.58 -2.00,-0.82 -1.90,-1.07 -1.75,-1.28 -1.59,-1.49 -1.39,-1.66 -1.18,-1.83 -0.95,-1.95 -0.71,-2.06 -0.45,-2.12 -0.19,-2.17 0.06,-2.17 0.32,-2.16 0.58,-2.09 0.83,-2.02 1.06,-1.89 1.29,-1.76 1.48,-1.58 1.67,-1.40 1.82,-1.18 Z" fill="#ebbb38" stroke="#ebbb38" stroke-width="4.54" stroke-dasharray="none" stroke-dashoffset="none" stroke-linecap="round" stroke-linejoin="round" pointer-events="stroke"/><g><path d="M 43.09,52.84426304352043 L 40.93,83.88 15.13,66.48759637685376" fill="none" stroke="#ebbb38" stroke-width="9.09" stroke-linecap="round" stroke-linejoin="round" pointer-events="none"/></g></g></g></svg>