<svg xmlns="http://www.w3.org/2000/svg" viewBox="0 0 1504 688" width="1504" height="688" style="background-color: transparent;"><defs><style>@import url('https://fonts.googleapis.com/css2?family=Caveat+Brush&amp;family=Source+Code+Pro&amp;family=Source+Sans+Pro&amp;family=Crimson+Pro&amp;display=block');</style></defs><g id="0f0c0cbb-1133-4c69-22f3-a3d513e9aeac_svg" class="tl-centered-g" transform="translate(16.00, 16.00) rotate(0.00, 736.00, 328.00)"><g pointer-events="none" stroke="transparent" stroke-width="4.23" stroke-linecap="round"><line x1="2.11" y1="2.11" x2="1469.88" y2="2.11" stroke-dasharray="0.03 6.46" stroke-dashoffset="0"/><line x1="1469.88" y1="2.11" x2="1469.88" y2="653.88" stroke-dasharray="0.03 6.48" stroke-dashoffset="0"/><line x1="1469.88" y1="653.88" x2="2.11" y2="653.88" stroke-dasharray="0.03 6.46" stroke-dashoffset="0"/><line x1="2.11" y1="653.88" x2="2.11" y2="2.11" stroke-dasharray="0.03 6.48" stroke-dashoffset="0"/></g></g><g id="9535ff23-b647-493b-1b26-b6caa66949dd_svg" class="tl-centered-g" transform="translate(267.76, 137.91) rotate(0.00, 182.85, 159.67)"><path d="M-0.402,228.696Q-0.402,228.696 -0.379,222.305 -0.356,215.914 -0.336,207.893 -0.316,199.872 -0.298,191.435 -0.279,182.998 -0.260,174.456 -0.241,165.913 -0.295,157.343 -0.348,148.774 -0.402,140.198 -0.456,131.621 -0.509,123.043 -0.563,114.465 -0.616,105.886 -0.670,97.308 -0.724,88.729 -0.777,80.150 -0.831,71.572 -0.884,62.993 -0.938,54.414 -0.992,45.835 -1.045,37.257 -1.099,28.678 -1.148,20.076 -1.197,11.475 0.66,7.255 2.53,3.035 9.56,1.873 16.58,0.711 24.69,0.494 32.80,0.276 41.19,0.244 49.57,0.212 58.02,0.226 66.47,0.239 74.95,0.264 83.42,0.290 91.90,0.318 100.37,0.346 108.85,0.375 117.33,0.404 125.81,0.433 134.29,0.462 142.77,0.491 151.25,0.520 159.72,0.549 168.20,0.579 176.68,0.577 185.16,0.575 193.64,0.542 202.12,0.509 210.60,0.477 219.08,0.444 227.56,0.411 236.04,0.378 244.52,0.346 252.99,0.313 261.47,0.280 269.95,0.247 278.43,0.215 286.91,0.182 295.39,0.149 303.87,0.116 312.35,0.084 320.83,0.051 329.31,0.018 337.78,-0.015 346.29,-0.043 354.79,-0.071 358.98,1.798 363.17,3.667 364.34,10.755 365.50,17.842 365.73,26.025 365.96,34.208 366.00,42.665 366.05,51.123 366.05,59.654 366.05,68.186 366.03,76.737 366.02,85.288 366.01,93.844 365.99,102.400 365.98,110.957 365.96,119.514 365.94,128.072 365.93,136.629 365.91,145.187 365.90,153.744 365.95,162.302 366.01,170.859 366.06,179.417 366.12,187.974 366.18,196.532 366.23,205.089 366.29,213.647 366.35,222.204 366.40,230.762 366.46,239.319 366.51,247.877 366.57,256.434 366.63,264.992 366.68,273.549 366.74,282.107 366.79,290.664 366.85,299.245 366.90,307.825 365.03,312.039 363.17,316.252 356.14,317.427 349.12,318.602 341.00,318.836 332.89,319.070 324.51,319.120 316.12,319.170 307.67,319.175 299.21,319.179 290.74,319.172 282.26,319.165 273.78,319.156 265.30,319.146 256.82,319.135 248.34,319.124 239.86,319.113 231.38,319.102 222.90,319.092 214.42,319.081 205.94,319.070 197.45,319.059 188.97,319.079 180.49,319.099 172.01,319.150 163.53,319.201 155.05,319.252 146.57,319.303 138.09,319.354 129.60,319.405 121.12,319.456 112.64,319.507 104.16,319.557 95.68,319.608 87.20,319.659 78.72,319.710 70.24,319.761 61.75,319.812 53.27,319.863 44.79,319.914 36.31,319.965 27.83,320.016 19.32,320.063 10.82,320.109 6.63,318.243 2.43,316.378 1.27,309.277 0.11,302.176 -0.114,293.973 -0.339,285.771 -0.381,277.292 -0.423,268.814 -0.420,260.261 -0.417,251.709 -0.402,243.137 -0.388,234.564 -0.370,225.987 -0.352,217.410 -0.334,208.832 -0.316,200.253 -0.297,191.674 -0.278,183.096 -0.260,174.517 -0.241,165.938 -0.295,157.359 -0.348,148.780 -0.408,137.265 -0.468,125.750 -0.438,125.567 -0.408,125.384 -0.322,125.221 -0.236,125.057 -0.101,124.929 0.03,124.802 0.20,124.724 0.36,124.646 0.55,124.625 0.73,124.605 0.91,124.644 1.09,124.684 1.25,124.779 1.41,124.874 1.53,125.015 1.65,125.156 1.72,125.328 1.79,125.500 1.80,125.684 1.81,125.869 1.76,126.048 1.71,126.226 1.61,126.380 1.50,126.533 1.36,126.645 1.21,126.758 1.04,126.817 0.86,126.877 0.67,126.877 0.49,126.877 0.31,126.819 0.14,126.760 -0.005,126.648 -0.153,126.536 -0.257,126.383 -0.361,126.230 -0.411,126.052 -0.461,125.874 -0.451,125.689 -0.441,125.504 -0.373,125.332 -0.305,125.159 -0.185,125.018 -0.066,124.877 0.09,124.781 0.25,124.685 0.43,124.645 0.61,124.605 0.79,124.625 0.98,124.644 1.14,124.722 1.31,124.799 1.45,124.926 1.58,125.054 1.67,125.217 1.76,125.380 1.79,125.563 1.82,125.746 1.82,125.746 1.82,125.745 1.80,137.261 1.79,148.776 1.77,157.355 1.75,165.934 1.81,174.512 1.86,183.091 1.92,191.670 1.97,200.248 2.02,208.827 2.08,217.405 2.13,225.981 2.19,234.558 2.24,243.128 2.30,251.698 2.37,260.243 2.44,268.788 2.55,277.232 2.67,285.676 2.95,293.709 3.23,301.742 3.96,308.180 4.68,314.619 7.80,315.723 10.91,316.827 19.36,316.834 27.82,316.840 36.30,316.851 44.78,316.862 53.27,316.873 61.75,316.884 70.23,316.895 78.71,316.906 87.19,316.917 95.67,316.928 104.15,316.938 112.64,316.949 121.12,316.960 129.60,316.971 138.08,316.982 146.56,316.993 155.04,317.004 163.52,317.015 172.00,317.026 180.49,317.037 188.97,317.017 197.45,316.997 205.93,316.946 214.41,316.895 222.89,316.844 231.37,316.793 239.85,316.742 248.34,316.691 256.82,316.640 265.30,316.588 273.78,316.536 282.26,316.485 290.73,316.430 299.20,316.375 307.65,316.308 316.10,316.242 324.44,316.131 332.79,316.020 340.73,315.739 348.67,315.458 355.04,314.730 361.40,314.003 362.51,310.872 363.62,307.741 363.63,299.206 363.64,290.672 363.66,282.114 363.67,273.556 363.69,264.999 363.70,256.441 363.72,247.883 363.74,239.326 363.75,230.768 363.77,222.210 363.78,213.653 363.80,205.095 363.82,196.537 363.83,187.980 363.85,179.422 363.86,170.864 363.88,162.307 363.90,153.749 363.84,145.192 363.78,136.634 363.73,128.077 363.67,119.520 363.61,110.963 363.56,102.406 363.50,93.850 363.44,85.295 363.38,76.746 363.32,68.197 363.25,59.673 363.18,51.150 363.06,42.726 362.95,34.303 362.66,26.290 362.38,18.277 361.65,11.854 360.92,5.431 357.81,4.321 354.70,3.211 346.24,3.186 337.79,3.162 329.31,3.132 320.83,3.103 312.35,3.074 303.87,3.045 295.39,3.016 286.91,2.987 278.43,2.958 269.95,2.928 261.47,2.899 253.00,2.870 244.52,2.841 236.04,2.812 227.56,2.783 219.08,2.753 210.60,2.724 202.12,2.695 193.64,2.666 185.16,2.637 176.68,2.639 168.20,2.640 159.73,2.673 151.25,2.706 142.77,2.739 134.29,2.771 125.81,2.804 117.33,2.837 108.85,2.870 100.37,2.903 91.90,2.937 83.42,2.971 74.95,3.007 66.48,3.044 58.03,3.092 49.59,3.141 41.24,3.234 32.90,3.327 24.96,3.592 17.02,3.856 10.66,4.572 4.29,5.288 3.19,8.424 2.08,11.559 2.07,20.115 2.05,28.671 2.03,37.250 2.02,45.829 2.00,54.408 1.98,62.987 1.96,71.566 1.94,80.145 1.92,88.724 1.90,97.302 1.88,105.881 1.87,114.460 1.85,123.038 1.83,131.617 1.81,140.193 1.79,148.770 1.77,157.339 1.75,165.909 1.81,174.451 1.86,182.994 1.91,191.430 1.97,199.867 2.02,207.888 2.07,215.909 2.12,222.300 2.17,228.691 2.15,228.845 2.13,228.999 2.08,229.145 2.02,229.290 1.94,229.418 1.85,229.546 1.73,229.650 1.62,229.753 1.48,229.825 1.34,229.898 1.19,229.935 1.04,229.973 0.88,229.973 0.73,229.973 0.58,229.937 0.43,229.900 0.29,229.828 0.15,229.756 0.04,229.653 -0.076,229.550 -0.165,229.422 -0.253,229.295 -0.309,229.150 -0.364,229.004 -0.383,228.850 Z" fill="#cecece" stroke="#cecece" stroke-width="2" pointer-events="none"/></g><g id="31353079-80da-4a9e-3d2a-a3488a242dd8_svg" class="tl-centered-g" transform="translate(275.14, 146.49) rotate(0.00, 174.19, 20.79)"><path d="M89.561,-0.439Q89.561,-0.439 95.87,-0.413 102.18,-0.388 110.09,-0.364 118.01,-0.340 126.34,-0.317 134.67,-0.293 143.10,-0.270 151.54,-0.247 160.00,-0.223 168.46,-0.200 176.92,-0.242 185.39,-0.284 193.86,-0.326 202.33,-0.367 210.79,-0.409 219.26,-0.451 227.73,-0.493 236.20,-0.535 244.67,-0.576 253.14,-0.618 261.61,-0.660 270.08,-0.702 278.55,-0.744 287.02,-0.785 295.48,-0.827 303.95,-0.869 312.42,-0.911 320.89,-0.953 329.38,-0.990 337.88,-1.027 341.94,0.637 346.00,2.301 347.18,4.776 348.35,7.251 348.57,9.747 348.78,12.243 348.76,14.615 348.74,16.986 348.77,19.327 348.80,21.667 348.91,24.002 349.02,26.336 349.12,28.670 349.23,31.003 349.31,33.428 349.38,35.852 347.55,38.453 345.72,41.053 338.64,41.751 331.56,42.449 323.49,42.527 315.42,42.605 307.06,42.579 298.69,42.553 290.25,42.500 281.80,42.447 273.34,42.388 264.87,42.329 256.40,42.268 247.93,42.207 239.46,42.146 230.99,42.084 222.52,42.023 214.05,41.961 205.57,41.900 197.10,41.838 188.63,41.777 180.16,41.715 171.69,41.719 163.22,41.722 154.74,41.725 146.27,41.729 137.80,41.732 129.33,41.736 120.86,41.739 112.38,41.743 103.91,41.746 95.44,41.750 86.97,41.753 78.50,41.757 70.03,41.760 61.55,41.764 53.08,41.767 44.61,41.771 36.14,41.774 27.67,41.777 19.17,41.776 10.68,41.775 6.62,40.108 2.57,38.440 1.39,36.045 0.22,33.650 0.01,31.249 -0.190,28.849 -0.165,26.583 -0.141,24.317 -0.161,22.085 -0.181,19.853 -0.282,17.627 -0.383,15.402 -0.481,13.177 -0.579,10.953 -0.647,8.636 -0.714,6.320 1.11,3.751 2.94,1.182 10.02,0.463 17.10,-0.255 25.17,-0.368 33.23,-0.480 41.59,-0.491 49.96,-0.502 58.40,-0.487 66.84,-0.473 75.30,-0.452 83.76,-0.431 92.23,-0.408 100.70,-0.386 109.17,-0.362 117.64,-0.339 126.10,-0.316 134.57,-0.293 143.04,-0.270 151.51,-0.247 159.98,-0.223 168.45,-0.200 176.92,-0.242 185.39,-0.284 196.76,-0.329 208.12,-0.374 208.30,-0.344 208.48,-0.315 208.65,-0.230 208.81,-0.144 208.93,-0.012 209.06,0.121 209.14,0.287 209.21,0.453 209.23,0.634 209.25,0.816 209.21,0.995 209.17,1.173 209.08,1.330 208.99,1.487 208.85,1.605 208.71,1.724 208.54,1.792 208.37,1.860 208.19,1.870 208.00,1.880 207.83,1.831 207.65,1.782 207.50,1.680 207.35,1.577 207.24,1.432 207.13,1.286 207.07,1.113 207.01,0.940 207.01,0.757 207.01,0.574 207.07,0.401 207.13,0.228 207.24,0.082 207.35,-0.063 207.50,-0.166 207.65,-0.269 207.82,-0.318 208.00,-0.367 208.18,-0.357 208.37,-0.348 208.54,-0.280 208.71,-0.213 208.85,-0.094 208.98,0.024 209.08,0.180 209.17,0.337 209.21,0.516 209.25,0.694 209.23,0.876 209.21,1.058 209.14,1.224 209.06,1.390 208.93,1.522 208.81,1.655 208.65,1.741 208.49,1.827 208.31,1.856 208.13,1.886 208.13,1.886 208.13,1.886 196.76,1.866 185.39,1.846 176.92,1.823 168.45,1.800 159.98,1.842 151.51,1.883 143.04,1.925 134.58,1.967 126.11,2.009 117.64,2.051 109.17,2.093 100.70,2.134 92.23,2.177 83.77,2.219 75.31,2.263 66.85,2.307 58.41,2.358 49.97,2.408 41.63,2.484 33.28,2.559 25.32,2.732 17.35,2.905 11.06,3.249 4.76,3.593 3.61,5.138 2.46,6.684 2.40,8.815 2.34,10.946 2.26,13.169 2.17,15.392 2.09,17.613 2.00,19.834 2.02,22.043 2.04,24.253 2.19,26.411 2.35,28.568 2.62,30.522 2.90,32.475 3.59,34.157 4.29,35.839 7.53,37.166 10.78,38.494 19.23,38.551 27.68,38.607 36.15,38.669 44.62,38.731 53.09,38.792 61.56,38.854 70.04,38.915 78.51,38.977 86.98,39.038 95.45,39.100 103.92,39.161 112.39,39.223 120.87,39.284 129.34,39.346 137.81,39.407 146.28,39.469 154.75,39.530 163.22,39.592 171.70,39.654 180.17,39.715 188.64,39.712 197.11,39.708 205.58,39.705 214.05,39.701 222.53,39.698 231.00,39.694 239.47,39.691 247.94,39.687 256.41,39.683 264.88,39.679 273.34,39.673 281.81,39.667 290.25,39.655 298.69,39.643 307.03,39.604 315.38,39.566 323.35,39.427 331.32,39.288 337.61,38.966 343.91,38.644 345.05,37.074 346.20,35.505 346.25,33.262 346.30,31.020 346.38,28.687 346.46,26.354 346.54,24.024 346.61,21.693 346.59,19.374 346.56,17.055 346.40,14.787 346.24,12.520 345.95,10.459 345.67,8.398 344.96,6.637 344.26,4.877 341.02,3.566 337.79,2.255 329.34,2.236 320.89,2.217 312.43,2.194 303.96,2.171 295.49,2.148 287.02,2.125 278.55,2.101 270.08,2.078 261.61,2.055 253.14,2.032 244.67,2.009 236.20,1.985 227.74,1.962 219.27,1.939 210.80,1.916 202.33,1.893 193.86,1.869 185.39,1.846 176.92,1.823 168.46,1.800 160.00,1.842 151.54,1.883 143.11,1.925 134.67,1.967 126.34,2.008 118.01,2.050 110.10,2.091 102.18,2.132 95.87,2.172 89.56,2.211 89.40,2.192 89.24,2.173 89.09,2.117 88.94,2.060 88.81,1.970 88.68,1.879 88.57,1.760 88.47,1.640 88.39,1.499 88.32,1.358 88.28,1.202 88.24,1.047 88.24,0.888 88.24,0.728 88.28,0.573 88.32,0.418 88.39,0.276 88.47,0.135 88.57,0.015 88.68,-0.105 88.81,-0.195 88.94,-0.286 89.09,-0.343 89.24,-0.400 89.40,-0.419 Z" fill="#cecece" stroke="#cecece" stroke-width="2" pointer-events="none"/></g><text font-size="27.538391200279698px" font-family="Caveat Brush" font-weight="normal" line-height="27.538391200279698px" letter-spacing="-0.03em" text-align="left" dominant-baseline="mathematical" alignment-baseline="mathematical" text-anchor="start" fill="#cecece" transform="translate(282.12, 148.31) rotate(0.00, 83.00, 19.00)"><tspan y="13.769195600139849px" x="4">site.com/products
</tspan></text><g id="0fb4f33f-ce3b-40cd-2077-24e951786be9_svg" class="tl-centered-g" transform="translate(281.43, 199.84) rotate(0.00, 167.42, 1.01)"><defs><mask id="0fb4f33f-ce3b-40cd-2077-24e951786be9_clip"><rect x="-100" y="-100" width="534.83" height="202.03" fill="white"/><rect x="167.42" y="1.01" width="0" height="0" rx="4" ry="4" fill="black" opacity="1"/></mask></defs><g pointer-events="none" opacity="1" mask=""><path d="M-0.006,1.058Q-0.006,1.058 41.84,0.837 83.70,0.616 125.56,0.387 167.41,0.158 209.27,-0.077 251.12,-0.313 292.98,-0.553 334.83,-0.793 334.96,-0.773 335.08,-0.753 335.20,-0.694 335.31,-0.634 335.40,-0.542 335.49,-0.449 335.54,-0.333 335.60,-0.217 335.61,-0.089 335.63,0.038 335.60,0.164 335.57,0.289 335.51,0.400 335.44,0.510 335.35,0.594 335.25,0.677 335.13,0.725 335.01,0.774 334.88,0.781 334.75,0.789 334.63,0.755 334.51,0.722 334.40,0.651 334.29,0.579 334.22,0.477 334.14,0.376 334.10,0.254 334.05,0.133 334.05,0.005 334.05,-0.124 334.09,-0.246 334.13,-0.367 334.21,-0.470 334.29,-0.573 334.39,-0.645 334.50,-0.718 334.62,-0.753 334.75,-0.788 334.87,-0.782 335.00,-0.776 335.12,-0.729 335.24,-0.682 335.34,-0.600 335.44,-0.517 335.50,-0.407 335.57,-0.298 335.60,-0.173 335.63,-0.048 335.61,0.080 335.60,0.208 335.55,0.325 335.49,0.441 335.41,0.535 335.32,0.629 335.21,0.689 335.09,0.750 334.97,0.772 334.84,0.793 334.84,0.793 334.84,0.793 292.99,1.060 251.13,1.328 209.28,1.600 167.42,1.872 125.57,2.150 83.71,2.429 41.86,2.716 0.00,3.002 -0.111,2.989 -0.227,2.976 -0.337,2.935 -0.447,2.894 -0.544,2.828 -0.640,2.762 -0.719,2.675 -0.797,2.587 -0.852,2.484 -0.907,2.380 -0.936,2.267 -0.965,2.153 -0.965,2.036 -0.966,1.919 -0.939,1.805 -0.911,1.691 -0.858,1.586 -0.804,1.482 -0.726,1.394 -0.649,1.306 -0.553,1.239 -0.457,1.172 -0.348,1.129 -0.238,1.087 -0.122,1.072 Z" fill="#cecece" stroke="#cecece" stroke-width="2.11" stroke-dasharray="none" stroke-dashoffset="none" stroke-linecap="round" stroke-linejoin="round" pointer-events="stroke"/></g></g><text font-size="54.78445178627949px" font-family="Caveat Brush" font-weight="normal" line-height="54.78445178627949px" letter-spacing="-0.03em" text-align="left" dominant-baseline="mathematical" alignment-baseline="mathematical" text-anchor="start" fill="#cecece" transform="translate(394.16, 70.73) rotate(0.00, 55.00, 32.50)"><tspan y="27.392225893139745px" x="4">client
</tspan></text><g id="074ceb46-2ffe-4c79-11be-539cc13009a1_svg" class="tl-centered-g" transform="translate(290.76, 212.55) rotate(0.00, 45.80, 110.36)"><path d="M92.610,93.036Q92.610,93.036 92.50,99.412 92.39,105.789 92.47,113.791 92.55,121.794 92.63,130.211 92.71,138.628 92.79,147.151 92.87,155.674 92.95,164.224 93.03,172.774 93.11,181.331 93.19,189.887 93.24,198.529 93.30,207.171 90.25,212.790 87.20,218.408 81.85,219.949 76.50,221.490 71.04,221.669 65.58,221.847 60.18,221.757 54.79,221.666 49.40,221.678 44.01,221.689 38.62,221.847 33.23,222.005 27.83,222.160 22.44,222.315 16.92,222.430 11.40,222.545 6.55,219.400 1.69,216.255 0.35,208.598 -0.989,200.941 -1.162,192.694 -1.336,184.446 -1.304,176.037 -1.271,167.628 -1.189,159.171 -1.107,150.713 -1.013,142.243 -0.918,133.772 -0.820,125.298 -0.723,116.824 -0.814,108.349 -0.905,99.874 -0.995,91.399 -1.086,82.923 -1.177,74.448 -1.268,65.972 -1.358,57.497 -1.449,49.022 -1.540,40.546 -1.630,32.071 -1.700,23.511 -1.769,14.951 1.26,9.364 4.28,3.778 9.64,2.131 15.00,0.483 20.47,0.168 25.95,-0.148 31.37,-0.200 36.79,-0.251 42.20,-0.405 47.61,-0.559 53.01,-0.861 58.42,-1.162 63.83,-1.460 69.23,-1.758 74.78,-2.015 80.33,-2.271 85.22,0.839 90.10,3.950 91.44,11.659 92.77,19.367 92.94,27.689 93.10,36.011 93.06,44.502 93.01,52.992 92.92,61.532 92.83,70.073 92.72,78.627 92.61,87.181 92.50,95.738 92.39,104.296 92.47,112.854 92.55,121.413 92.63,132.902 92.70,144.390 92.64,144.730 92.59,145.070 92.43,145.374 92.26,145.678 92.01,145.914 91.76,146.151 91.45,146.295 91.14,146.439 90.79,146.476 90.45,146.512 90.12,146.437 89.78,146.363 89.48,146.185 89.19,146.006 88.97,145.744 88.75,145.481 88.62,145.160 88.49,144.840 88.47,144.496 88.46,144.152 88.55,143.820 88.64,143.489 88.83,143.204 89.03,142.919 89.30,142.711 89.58,142.503 89.90,142.394 90.23,142.285 90.58,142.285 90.92,142.286 91.25,142.397 91.57,142.507 91.85,142.716 92.12,142.925 92.31,143.211 92.51,143.496 92.60,143.828 92.69,144.160 92.67,144.504 92.65,144.848 92.52,145.168 92.39,145.488 92.17,145.750 91.95,146.012 91.65,146.189 91.36,146.366 91.02,146.439 90.68,146.513 90.34,146.475 90.00,146.437 89.69,146.291 89.37,146.146 89.12,145.909 88.87,145.671 88.71,145.367 88.55,145.062 88.50,144.722 88.44,144.382 88.44,144.382 88.44,144.382 88.56,132.894 88.67,121.406 88.78,112.848 88.89,104.290 88.81,95.732 88.73,87.175 88.65,78.624 88.57,70.073 88.47,61.546 88.38,53.020 88.23,44.590 88.09,36.161 87.76,28.144 87.43,20.127 86.76,13.770 86.08,7.413 82.99,5.378 79.91,3.342 74.63,3.354 69.36,3.366 63.95,3.338 58.54,3.311 53.13,3.288 47.72,3.264 42.33,3.418 36.94,3.571 31.63,3.941 26.32,4.311 21.34,4.866 16.36,5.421 12.33,6.406 8.29,7.390 6.10,11.341 3.92,15.292 3.84,23.683 3.76,32.073 3.66,40.549 3.56,49.024 3.46,57.499 3.37,65.975 3.27,74.450 3.17,82.925 3.07,91.400 2.97,99.876 2.87,108.350 2.77,116.825 2.86,125.299 2.96,133.772 3.05,142.239 3.15,150.707 3.25,159.151 3.36,167.594 3.52,175.941 3.67,184.288 4.01,192.229 4.35,200.170 5.03,206.472 5.71,212.775 8.82,214.849 11.93,216.924 17.19,217.057 22.45,217.190 27.84,217.360 33.23,217.530 38.61,217.697 44.00,217.864 49.37,217.853 54.74,217.842 60.03,217.611 65.32,217.380 70.28,216.953 75.24,216.526 79.25,215.638 83.27,214.750 85.44,210.789 87.61,206.827 87.70,198.352 87.79,189.878 87.90,181.321 88.01,172.765 88.12,164.215 88.23,155.666 88.34,147.143 88.45,138.620 88.56,130.204 88.67,121.787 88.78,113.785 88.89,105.782 88.81,99.406 88.73,93.029 88.75,92.797 88.78,92.565 88.87,92.347 88.95,92.128 89.08,91.936 89.22,91.744 89.39,91.589 89.57,91.434 89.77,91.326 89.98,91.218 90.21,91.162 90.44,91.107 90.67,91.107 90.90,91.108 91.13,91.164 91.36,91.220 91.56,91.329 91.77,91.439 91.95,91.594 92.12,91.749 92.25,91.942 92.38,92.135 92.47,92.353 92.55,92.572 92.58,92.804 Z" fill="#36a64c" stroke="#36a64c" stroke-width="3.5" pointer-events="none"/></g><g id="7df60573-77b7-40de-0a3d-0d0e4d0c8c73_svg" class="tl-centered-g" transform="translate(404.60, 212.09) rotate(0.00, 99.75, 110.79)"><path d="M-0.316,127.781Q-0.316,127.781 -0.207,121.461 -0.098,115.142 -0.175,107.210 -0.252,99.279 -0.328,90.936 -0.403,82.594 -0.479,74.147 -0.555,65.700 -0.631,57.226 -0.706,48.752 -0.782,40.271 -0.858,31.791 -0.912,23.224 -0.966,14.658 2.17,9.015 5.30,3.372 12.75,1.746 20.20,0.120 28.24,-0.172 36.28,-0.465 44.45,-0.510 52.62,-0.555 60.83,-0.540 69.04,-0.526 77.26,-0.496 85.48,-0.467 93.70,-0.537 101.92,-0.608 110.15,-0.780 118.37,-0.953 126.59,-1.126 134.81,-1.298 143.04,-1.471 151.26,-1.643 159.48,-1.815 167.70,-1.988 176.02,-2.137 184.33,-2.287 189.92,0.838 195.52,3.963 197.12,11.653 198.71,19.344 198.99,27.693 199.26,36.041 199.30,44.537 199.33,53.034 199.30,61.576 199.28,70.118 199.24,78.673 199.20,87.228 199.15,95.786 199.11,104.344 199.25,112.902 199.39,121.459 199.54,130.017 199.68,138.575 199.83,147.134 199.97,155.692 200.11,164.250 200.26,172.808 200.40,181.366 200.54,189.924 200.67,198.568 200.79,207.213 197.66,212.890 194.52,218.567 187.03,220.133 179.53,221.700 171.42,221.914 163.31,222.129 155.07,222.092 146.83,222.055 138.54,221.959 130.26,221.862 121.97,221.750 113.67,221.638 105.38,221.625 97.08,221.613 88.78,221.703 80.49,221.793 72.19,221.883 63.89,221.972 55.59,222.062 47.29,222.152 39.00,222.241 30.70,222.331 22.31,222.398 13.93,222.466 8.32,219.313 2.72,216.160 1.17,208.520 -0.375,200.880 -0.587,192.598 -0.800,184.317 -0.765,175.895 -0.731,167.473 -0.637,159.007 -0.543,150.541 -0.434,142.063 -0.326,133.585 -0.213,125.103 -0.100,116.622 -0.176,108.139 -0.252,99.656 -0.321,88.270 -0.391,76.883 -0.334,76.544 -0.278,76.204 -0.116,75.900 0.04,75.596 0.29,75.359 0.54,75.123 0.86,74.979 1.17,74.835 1.51,74.799 1.85,74.762 2.19,74.837 2.53,74.912 2.82,75.090 3.12,75.269 3.34,75.532 3.56,75.795 3.69,76.115 3.81,76.435 3.83,76.779 3.85,77.123 3.76,77.455 3.66,77.787 3.47,78.071 3.28,78.356 3.00,78.564 2.73,78.772 2.40,78.881 2.07,78.990 1.73,78.989 1.38,78.988 1.06,78.878 0.73,78.767 0.46,78.558 0.18,78.349 -0.003,78.063 -0.196,77.777 -0.287,77.445 -0.379,77.113 -0.359,76.769 -0.340,76.425 -0.211,76.106 -0.083,75.786 0.14,75.524 0.36,75.262 0.66,75.085 0.95,74.908 1.29,74.835 1.62,74.762 1.97,74.800 2.31,74.838 2.62,74.983 2.93,75.129 3.18,75.366 3.43,75.604 3.59,75.909 3.75,76.213 3.81,76.554 3.86,76.894 3.86,76.893 3.86,76.893 3.74,88.279 3.62,99.665 3.51,108.147 3.40,116.629 3.47,125.110 3.55,133.591 3.63,142.066 3.71,150.541 3.81,158.990 3.90,167.440 4.06,175.789 4.21,184.138 4.57,192.059 4.94,199.980 5.77,206.311 6.60,212.642 10.44,214.711 14.29,216.780 22.50,216.875 30.71,216.970 39.01,217.087 47.30,217.204 55.60,217.321 63.90,217.438 72.20,217.555 80.49,217.672 88.79,217.789 97.09,217.906 105.38,217.919 113.68,217.931 121.97,217.836 130.26,217.741 138.52,217.631 146.79,217.521 154.95,217.353 163.12,217.185 170.86,216.802 178.60,216.419 184.79,215.563 190.98,214.707 193.04,210.805 195.10,206.902 195.12,198.429 195.15,189.955 195.19,181.396 195.24,172.837 195.29,164.278 195.33,155.718 195.38,147.159 195.42,138.600 195.47,130.041 195.52,121.482 195.56,112.923 195.61,104.364 195.46,95.808 195.32,87.252 195.17,78.702 195.02,70.152 194.86,61.628 194.69,53.103 194.47,44.680 194.25,36.257 193.83,28.264 193.40,20.272 192.52,13.889 191.65,7.506 187.83,5.451 184.02,3.396 175.88,3.385 167.75,3.373 159.53,3.339 151.30,3.304 143.08,3.270 134.85,3.236 126.63,3.201 118.40,3.167 110.18,3.133 101.96,3.099 93.73,3.169 85.51,3.240 77.30,3.417 69.08,3.594 60.89,3.787 52.70,3.979 44.61,4.228 36.52,4.477 28.85,4.934 21.17,5.391 15.03,6.301 8.90,7.211 6.81,11.109 4.72,15.007 4.63,23.405 4.53,31.803 4.42,40.283 4.31,48.763 4.19,57.237 4.08,65.710 3.96,74.157 3.85,82.604 3.74,90.946 3.62,99.288 3.51,107.219 3.40,115.150 3.48,121.470 3.56,127.789 3.53,128.021 3.50,128.254 3.42,128.472 3.33,128.690 3.20,128.882 3.07,129.075 2.89,129.229 2.72,129.384 2.51,129.492 2.30,129.600 2.08,129.656 1.85,129.711 1.61,129.711 1.38,129.710 1.15,129.654 0.93,129.597 0.72,129.488 0.51,129.379 0.34,129.223 0.16,129.068 0.03,128.875 -0.096,128.682 -0.178,128.464 -0.261,128.245 -0.288,128.013 Z" fill="#36a64c" stroke="#36a64c" stroke-width="3.5" pointer-events="none"/></g><g id="af8ea42d-ddd7-4b3b-14fd-d7e5bdcb593e_svg" class="tl-centered-g" transform="translate(431.09, 287.34) rotate(0.00, 75.19, 25.43)"><rect x="2.11" y="2.11" width="148.25" height="48.73" fill="#345246" pointer-events="none"/><g pointer-events="none" stroke="#36a64c" stroke-width="4.23" stroke-linecap="round"><line x1="2.11" y1="2.11" x2="148.25" y2="2.11" stroke-dasharray="none" stroke-dashoffset="none"/><line x1="148.25" y1="2.11" x2="148.25" y2="48.73" stroke-dasharray="none" stroke-dashoffset="none"/><line x1="148.25" y1="48.73" x2="2.11" y2="48.73" stroke-dasharray="none" stroke-dashoffset="none"/><line x1="2.11" y1="48.73" x2="2.11" y2="2.11" stroke-dasharray="none" stroke-dashoffset="none"/></g></g><g id="399f385c-ff8e-438c-36a5-9e4b4e022cf9_svg" class="tl-centered-g" transform="translate(432.29, 352.55) rotate(0.00, 75.19, 25.43)"><rect x="2.11" y="2.11" width="148.25" height="48.73" fill="#345246" pointer-events="none"/><g pointer-events="none" stroke="#36a64c" stroke-width="4.23" stroke-linecap="round"><line x1="2.11" y1="2.11" x2="148.25" y2="2.11" stroke-dasharray="none" stroke-dashoffset="none"/><line x1="148.25" y1="2.11" x2="148.25" y2="48.73" stroke-dasharray="none" stroke-dashoffset="none"/><line x1="148.25" y1="48.73" x2="2.11" y2="48.73" stroke-dasharray="none" stroke-dashoffset="none"/><line x1="2.11" y1="48.73" x2="2.11" y2="2.11" stroke-dasharray="none" stroke-dashoffset="none"/></g></g><g id="0ce6d3eb-0fe9-4632-10bc-9633f6f168a1_svg" class="tl-centered-g" transform="translate(432.19, 234.92) rotate(0.00, 74.13, 18.32)"><rect x="2.11" y="2.11" width="146.14" height="34.53" fill="#345246" pointer-events="none"/><g pointer-events="none" stroke="#36a64c" stroke-width="4.23" stroke-linecap="round"><line x1="2.11" y1="2.11" x2="146.14" y2="2.11" stroke-dasharray="none" stroke-dashoffset="none"/><line x1="146.14" y1="2.11" x2="146.14" y2="34.53" stroke-dasharray="none" stroke-dashoffset="none"/><line x1="146.14" y1="34.53" x2="2.11" y2="34.53" stroke-dasharray="none" stroke-dashoffset="none"/><line x1="2.11" y1="34.53" x2="2.11" y2="2.11" stroke-dasharray="none" stroke-dashoffset="none"/></g></g><g id="0860b8fe-e911-4940-3b2b-a4d7529e7528_svg" class="tl-centered-g" transform="translate(311.02, 233.58) rotate(0.00, 26.07, 25.02)"><rect x="2.11" y="2.11" width="50.01" height="47.92" fill="#345246" pointer-events="none"/><g pointer-events="none" stroke="#36a64c" stroke-width="4.23" stroke-linecap="round"><line x1="2.11" y1="2.11" x2="50.01" y2="2.11" stroke-dasharray="none" stroke-dashoffset="none"/><line x1="50.01" y1="2.11" x2="50.01" y2="47.92" stroke-dasharray="none" stroke-dashoffset="none"/><line x1="50.01" y1="47.92" x2="2.11" y2="47.92" stroke-dasharray="none" stroke-dashoffset="none"/><line x1="2.11" y1="47.92" x2="2.11" y2="2.11" stroke-dasharray="none" stroke-dashoffset="none"/></g></g><g id="fd8c2367-43f5-4320-2854-c20ea21a12bd_svg" class="tl-centered-g" transform="translate(311.02, 294.79) rotate(0.00, 26.07, 51.27)"><rect x="2.11" y="2.11" width="50.01" height="100.43" fill="#345246" pointer-events="none"/><g pointer-events="none" stroke="#36a64c" stroke-width="4.23" stroke-linecap="round"><line x1="2.11" y1="2.11" x2="50.01" y2="2.11" stroke-dasharray="none" stroke-dashoffset="none"/><line x1="50.01" y1="2.11" x2="50.01" y2="100.43" stroke-dasharray="none" stroke-dashoffset="none"/><line x1="50.01" y1="100.43" x2="2.11" y2="100.43" stroke-dasharray="none" stroke-dashoffset="none"/><line x1="2.11" y1="100.43" x2="2.11" y2="2.11" stroke-dasharray="none" stroke-dashoffset="none"/></g></g><text font-size="106.88229665071769px" font-family="Caveat Brush" font-weight="normal" line-height="106.88229665071769px" letter-spacing="-0.03em" text-align="center" dominant-baseline="mathematical" alignment-baseline="mathematical" text-anchor="middle" fill="#ebbb38" transform="translate(690.45, 120.42) rotate(0.00, 256.00, 58.50)"><tspan y="53.441148325358846px" x="260">So now where's
</tspan></text><text font-size="106.88229665071769px" font-family="Caveat Brush" font-weight="normal" line-height="106.88229665071769px" letter-spacing="-0.03em" text-align="center" dominant-baseline="mathematical" alignment-baseline="mathematical" text-anchor="middle" fill="#ebbb38" transform="translate(687.84, 217.60) rotate(0.00, 226.50, 58.50)"><tspan y="53.441148325358846px" x="230.5">the source of
</tspan></text><text font-size="106.88229665071769px" font-family="Caveat Brush" font-weight="normal" line-height="106.88229665071769px" letter-spacing="-0.03em" text-align="center" dominant-baseline="mathematical" alignment-baseline="mathematical" text-anchor="middle" fill="#ebbb38" transform="translate(692.85, 315.20) rotate(0.00, 120.50, 58.50)"><tspan y="53.441148325358846px" x="124.5">truth?
</tspan></text></svg>