<svg xmlns="http://www.w3.org/2000/svg" viewBox="0 0 1504 688" width="1472" height="656" style="background-color: transparent;"><defs><style>@import url('https://fonts.googleapis.com/css2?family=Caveat+Brush&amp;family=Source+Code+Pro&amp;family=Source+Sans+Pro&amp;family=Crimson+Pro&amp;display=block');</style></defs><g id="0f0c0cbb-1133-4c69-22f3-a3d513e9aeac_svg" class="tl-centered-g" transform="translate(16.00, 16.00) rotate(0.00, 736.00, 328.00)"><g pointer-events="none" stroke="transparent" stroke-width="4.23" stroke-linecap="round"><line x1="2.11" y1="2.11" x2="1469.88" y2="2.11" stroke-dasharray="0.03 6.46" stroke-dashoffset="0"/><line x1="1469.88" y1="2.11" x2="1469.88" y2="653.88" stroke-dasharray="0.03 6.48" stroke-dashoffset="0"/><line x1="1469.88" y1="653.88" x2="2.11" y2="653.88" stroke-dasharray="0.03 6.46" stroke-dashoffset="0"/><line x1="2.11" y1="653.88" x2="2.11" y2="2.11" stroke-dasharray="0.03 6.48" stroke-dashoffset="0"/></g></g><g id="9535ff23-b647-493b-1b26-b6caa66949dd_svg" class="tl-centered-g" transform="translate(267.76, 137.91) rotate(0.00, 182.85, 159.67)"><path d="M -0.40,228.69 Q -0.40,228.69 -0.37,222.30 -0.35,215.91 -0.33,207.89 -0.31,199.87 -0.29,191.43 -0.27,182.99 -0.25,174.45 -0.24,165.91 -0.29,157.34 -0.34,148.77 -0.40,140.19 -0.45,131.62 -0.50,123.04 -0.56,114.46 -0.61,105.88 -0.66,97.30 -0.72,88.72 -0.77,80.15 -0.83,71.57 -0.88,62.99 -0.93,54.41 -0.99,45.83 -1.04,37.25 -1.09,28.67 -1.14,20.07 -1.19,11.47 0.66,7.25 2.53,3.03 9.56,1.87 16.58,0.71 24.69,0.49 32.80,0.27 41.18,0.24 49.57,0.21 58.02,0.22 66.47,0.23 74.94,0.26 83.42,0.28 91.89,0.31 100.37,0.34 108.85,0.37 117.33,0.40 125.81,0.43 134.29,0.46 142.77,0.49 151.25,0.52 159.72,0.54 168.20,0.57 176.68,0.57 185.16,0.57 193.64,0.54 202.12,0.50 210.60,0.47 219.08,0.44 227.56,0.41 236.04,0.37 244.51,0.34 252.99,0.31 261.47,0.28 269.95,0.24 278.43,0.21 286.91,0.18 295.39,0.14 303.87,0.11 312.35,0.08 320.83,0.05 329.31,0.01 337.78,-0.01 346.29,-0.04 354.79,-0.07 358.98,1.79 363.17,3.66 364.34,10.75 365.50,17.84 365.73,26.02 365.96,34.20 366.00,42.66 366.05,51.12 366.05,59.65 366.04,68.18 366.03,76.73 366.02,85.28 366.01,93.84 365.99,102.39 365.97,110.95 365.96,119.51 365.94,128.07 365.93,136.62 365.91,145.18 365.90,153.74 365.95,162.30 366.01,170.85 366.06,179.41 366.12,187.97 366.18,196.53 366.23,205.08 366.29,213.64 366.34,222.20 366.40,230.76 366.46,239.31 366.51,247.87 366.57,256.43 366.63,264.99 366.68,273.54 366.74,282.10 366.79,290.66 366.85,299.24 366.90,307.82 365.03,312.03 363.17,316.25 356.14,317.42 349.12,318.60 341.00,318.83 332.89,319.07 324.51,319.12 316.12,319.17 307.67,319.17 299.21,319.17 290.74,319.17 282.26,319.16 273.78,319.15 265.30,319.14 256.82,319.13 248.34,319.12 239.86,319.11 231.38,319.10 222.90,319.09 214.42,319.08 205.93,319.06 197.45,319.05 188.97,319.07 180.49,319.09 172.01,319.14 163.53,319.20 155.05,319.25 146.57,319.30 138.08,319.35 129.60,319.40 121.12,319.45 112.64,319.50 104.16,319.55 95.68,319.60 87.20,319.65 78.72,319.71 70.23,319.76 61.75,319.81 53.27,319.86 44.79,319.91 36.31,319.96 27.83,320.01 19.32,320.06 10.82,320.10 6.63,318.24 2.43,316.37 1.27,309.27 0.11,302.17 -0.11,293.97 -0.33,285.77 -0.38,277.29 -0.42,268.81 -0.42,260.26 -0.41,251.70 -0.40,243.13 -0.38,234.56 -0.36,225.98 -0.35,217.40 -0.33,208.83 -0.31,200.25 -0.29,191.67 -0.27,183.09 -0.25,174.51 -0.24,165.93 -0.29,157.35 -0.34,148.78 -0.40,137.26 -0.46,125.75 -0.43,125.56 -0.40,125.38 -0.32,125.22 -0.23,125.05 -0.10,124.92 0.03,124.80 0.20,124.72 0.36,124.64 0.55,124.62 0.73,124.60 0.91,124.64 1.09,124.68 1.25,124.77 1.41,124.87 1.53,125.01 1.65,125.15 1.72,125.32 1.79,125.49 1.80,125.68 1.81,125.86 1.76,126.04 1.71,126.22 1.61,126.37 1.50,126.53 1.36,126.64 1.21,126.75 1.03,126.81 0.86,126.87 0.67,126.87 0.49,126.87 0.31,126.81 0.14,126.75 -0.00,126.64 -0.15,126.53 -0.25,126.38 -0.36,126.23 -0.41,126.05 -0.46,125.87 -0.45,125.68 -0.44,125.50 -0.37,125.33 -0.30,125.15 -0.18,125.01 -0.06,124.87 0.09,124.78 0.25,124.68 0.43,124.64 0.61,124.60 0.79,124.62 0.98,124.64 1.14,124.72 1.31,124.79 1.45,124.92 1.58,125.05 1.67,125.21 1.76,125.38 1.79,125.56 1.82,125.74 1.82,125.74 1.82,125.74 1.80,137.26 1.79,148.77 1.77,157.35 1.75,165.93 1.81,174.51 1.86,183.09 1.91,191.66 1.97,200.24 2.02,208.82 2.08,217.40 2.13,225.98 2.19,234.55 2.24,243.12 2.30,251.69 2.37,260.24 2.44,268.78 2.55,277.23 2.67,285.67 2.95,293.70 3.23,301.74 3.96,308.18 4.68,314.61 7.79,315.72 10.91,316.82 19.36,316.83 27.82,316.84 36.30,316.85 44.78,316.86 53.27,316.87 61.75,316.88 70.23,316.89 78.71,316.90 87.19,316.91 95.67,316.92 104.15,316.93 112.63,316.94 121.12,316.96 129.60,316.97 138.08,316.98 146.56,316.99 155.04,317.00 163.52,317.01 172.00,317.02 180.49,317.03 188.97,317.01 197.45,316.99 205.93,316.94 214.41,316.89 222.89,316.84 231.37,316.79 239.85,316.74 248.34,316.69 256.82,316.63 265.30,316.58 273.78,316.53 282.25,316.48 290.73,316.42 299.20,316.37 307.65,316.30 316.10,316.24 324.44,316.13 332.79,316.01 340.73,315.73 348.67,315.45 355.04,314.73 361.40,314.00 362.51,310.87 363.62,307.74 363.63,299.20 363.64,290.67 363.65,282.11 363.67,273.55 363.69,264.99 363.70,256.44 363.72,247.88 363.74,239.32 363.75,230.76 363.77,222.21 363.78,213.65 363.80,205.09 363.82,196.53 363.83,187.97 363.85,179.42 363.86,170.86 363.88,162.30 363.90,153.74 363.84,145.19 363.78,136.63 363.73,128.07 363.67,119.51 363.61,110.96 363.56,102.40 363.50,93.85 363.44,85.29 363.38,76.74 363.32,68.19 363.25,59.67 363.18,51.14 363.06,42.72 362.95,34.30 362.66,26.29 362.38,18.27 361.65,11.85 360.92,5.43 357.81,4.32 354.70,3.21 346.24,3.18 337.79,3.16 329.31,3.13 320.83,3.10 312.35,3.07 303.87,3.04 295.39,3.01 286.91,2.98 278.43,2.95 269.95,2.92 261.47,2.89 252.99,2.87 244.52,2.84 236.04,2.81 227.56,2.78 219.08,2.75 210.60,2.72 202.12,2.69 193.64,2.66 185.16,2.63 176.68,2.63 168.20,2.64 159.72,2.67 151.25,2.70 142.77,2.73 134.29,2.77 125.81,2.80 117.33,2.83 108.85,2.87 100.37,2.90 91.90,2.93 83.42,2.97 74.95,3.00 66.48,3.04 58.03,3.09 49.59,3.14 41.24,3.23 32.90,3.32 24.96,3.59 17.02,3.85 10.66,4.57 4.29,5.28 3.18,8.42 2.08,11.55 2.07,20.11 2.05,28.67 2.03,37.25 2.01,45.82 2.00,54.40 1.98,62.98 1.96,71.56 1.94,80.14 1.92,88.72 1.90,97.30 1.88,105.88 1.87,114.45 1.85,123.03 1.83,131.61 1.81,140.19 1.79,148.76 1.77,157.33 1.75,165.90 1.81,174.45 1.86,182.99 1.91,191.43 1.97,199.86 2.02,207.88 2.07,215.90 2.12,222.29 2.17,228.69 2.15,228.84 2.13,228.99 2.08,229.14 2.02,229.29 1.94,229.41 1.85,229.54 1.73,229.64 1.62,229.75 1.48,229.82 1.34,229.89 1.19,229.93 1.04,229.97 0.88,229.97 0.73,229.97 0.58,229.93 0.43,229.89 0.29,229.82 0.15,229.75 0.04,229.65 -0.07,229.55 -0.16,229.42 -0.25,229.29 -0.30,229.14 -0.36,229.00 -0.38,228.85 Z" fill="#cecece" stroke="#cecece" stroke-width="2" pointer-events="none"/></g><g id="31353079-80da-4a9e-3d2a-a3488a242dd8_svg" class="tl-centered-g" transform="translate(275.14, 146.49) rotate(0.00, 174.19, 20.79)"><path d="M 89.56,-0.43 Q 89.56,-0.43 95.87,-0.41 102.18,-0.38 110.09,-0.36 118.01,-0.33 126.34,-0.31 134.67,-0.29 143.10,-0.26 151.54,-0.24 160.00,-0.22 168.46,-0.20 176.92,-0.24 185.39,-0.28 193.86,-0.32 202.33,-0.36 210.79,-0.40 219.26,-0.45 227.73,-0.49 236.20,-0.53 244.67,-0.57 253.14,-0.61 261.61,-0.66 270.08,-0.70 278.55,-0.74 287.01,-0.78 295.48,-0.82 303.95,-0.86 312.42,-0.91 320.89,-0.95 329.38,-0.98 337.87,-1.02 341.94,0.63 346.00,2.30 347.18,4.77 348.35,7.25 348.57,9.74 348.78,12.24 348.76,14.61 348.74,16.98 348.77,19.32 348.80,21.66 348.91,24.00 349.02,26.33 349.12,28.66 349.23,31.00 349.31,33.42 349.38,35.85 347.55,38.45 345.72,41.05 338.64,41.75 331.56,42.44 323.49,42.52 315.42,42.60 307.05,42.57 298.69,42.55 290.24,42.49 281.80,42.44 273.34,42.38 264.87,42.32 256.40,42.26 247.93,42.20 239.46,42.14 230.99,42.08 222.52,42.02 214.05,41.96 205.57,41.89 197.10,41.83 188.63,41.77 180.16,41.71 171.69,41.71 163.22,41.72 154.74,41.72 146.27,41.72 137.80,41.73 129.33,41.73 120.86,41.73 112.38,41.74 103.91,41.74 95.44,41.74 86.97,41.75 78.50,41.75 70.03,41.76 61.55,41.76 53.08,41.76 44.61,41.77 36.14,41.77 27.67,41.77 19.17,41.77 10.68,41.77 6.62,40.10 2.57,38.43 1.39,36.04 0.22,33.64 0.01,31.24 -0.18,28.84 -0.16,26.58 -0.14,24.31 -0.16,22.08 -0.18,19.85 -0.28,17.62 -0.38,15.40 -0.48,13.17 -0.57,10.95 -0.64,8.63 -0.71,6.31 1.11,3.75 2.94,1.18 10.02,0.46 17.10,-0.25 25.17,-0.36 33.23,-0.48 41.59,-0.49 49.96,-0.50 58.40,-0.48 66.84,-0.47 75.30,-0.45 83.76,-0.43 92.23,-0.40 100.70,-0.38 109.17,-0.36 117.64,-0.33 126.10,-0.31 134.57,-0.29 143.04,-0.26 151.51,-0.24 159.98,-0.22 168.45,-0.20 176.92,-0.24 185.39,-0.28 196.75,-0.32 208.12,-0.37 208.30,-0.34 208.48,-0.31 208.65,-0.22 208.81,-0.14 208.93,-0.01 209.06,0.12 209.14,0.28 209.21,0.45 209.23,0.63 209.25,0.81 209.21,0.99 209.17,1.17 209.08,1.33 208.99,1.48 208.85,1.60 208.71,1.72 208.54,1.79 208.37,1.85 208.19,1.86 208.00,1.87 207.83,1.83 207.65,1.78 207.50,1.67 207.35,1.57 207.24,1.43 207.13,1.28 207.07,1.11 207.01,0.94 207.01,0.75 207.01,0.57 207.07,0.40 207.12,0.22 207.24,0.08 207.35,-0.06 207.50,-0.16 207.65,-0.26 207.82,-0.31 208.00,-0.36 208.18,-0.35 208.37,-0.34 208.54,-0.28 208.71,-0.21 208.84,-0.09 208.98,0.02 209.08,0.18 209.17,0.33 209.21,0.51 209.25,0.69 209.23,0.87 209.21,1.05 209.14,1.22 209.06,1.38 208.93,1.52 208.81,1.65 208.65,1.74 208.49,1.82 208.31,1.85 208.12,1.88 208.12,1.88 208.13,1.88 196.76,1.86 185.39,1.84 176.92,1.82 168.45,1.79 159.98,1.84 151.51,1.88 143.04,1.92 134.58,1.96 126.11,2.00 117.64,2.05 109.17,2.09 100.70,2.13 92.23,2.17 83.77,2.21 75.31,2.26 66.85,2.30 58.41,2.35 49.97,2.40 41.63,2.48 33.28,2.55 25.32,2.73 17.35,2.90 11.06,3.24 4.76,3.59 3.61,5.13 2.46,6.68 2.40,8.81 2.34,10.94 2.26,13.16 2.17,15.39 2.08,17.61 2.00,19.83 2.02,22.04 2.04,24.25 2.19,26.41 2.35,28.56 2.62,30.52 2.90,32.47 3.59,34.15 4.29,35.83 7.53,37.16 10.78,38.49 19.23,38.55 27.68,38.60 36.15,38.66 44.62,38.73 53.09,38.79 61.56,38.85 70.03,38.91 78.51,38.97 86.98,39.03 95.45,39.09 103.92,39.16 112.39,39.22 120.86,39.28 129.34,39.34 137.81,39.40 146.28,39.46 154.75,39.53 163.22,39.59 171.69,39.65 180.17,39.71 188.64,39.71 197.11,39.70 205.58,39.70 214.05,39.70 222.53,39.69 231.00,39.69 239.47,39.69 247.94,39.68 256.41,39.68 264.88,39.67 273.34,39.67 281.81,39.66 290.25,39.65 298.69,39.64 307.03,39.60 315.38,39.56 323.35,39.42 331.31,39.28 337.61,38.96 343.91,38.64 345.05,37.07 346.20,35.50 346.25,33.26 346.30,31.01 346.38,28.68 346.46,26.35 346.54,24.02 346.61,21.69 346.59,19.37 346.56,17.05 346.40,14.78 346.24,12.51 345.95,10.45 345.66,8.39 344.96,6.63 344.26,4.87 341.02,3.56 337.79,2.25 329.34,2.23 320.89,2.21 312.43,2.19 303.96,2.17 295.49,2.14 287.02,2.12 278.55,2.10 270.08,2.07 261.61,2.05 253.14,2.03 244.67,2.00 236.20,1.98 227.73,1.96 219.27,1.93 210.80,1.91 202.33,1.89 193.86,1.86 185.39,1.84 176.92,1.82 168.46,1.79 160.00,1.84 151.54,1.88 143.10,1.92 134.67,1.96 126.34,2.00 118.01,2.05 110.10,2.09 102.18,2.13 95.87,2.17 89.56,2.21 89.40,2.19 89.24,2.17 89.09,2.11 88.94,2.06 88.81,1.96 88.68,1.87 88.57,1.75 88.47,1.64 88.39,1.49 88.32,1.35 88.28,1.20 88.24,1.04 88.24,0.88 88.24,0.72 88.28,0.57 88.32,0.41 88.39,0.27 88.47,0.13 88.57,0.01 88.68,-0.10 88.81,-0.19 88.94,-0.28 89.09,-0.34 89.24,-0.39 89.40,-0.41 Z" fill="#cecece" stroke="#cecece" stroke-width="2" pointer-events="none"/></g><g text-align="left" text-anchor="start" fill="#cecece" transform="translate(282.12, 148.31) rotate(0.00, 83.00, 19.00)"><text y="14" letter-spacing="-0.84" font-size="28px" font-family="Caveat Brush" text-align="left" alignment-baseline="central" transform="scale(0.9835139714385606)">site.com/products</text></g><g id="0fb4f33f-ce3b-40cd-2077-24e951786be9_svg" class="tl-centered-g" transform="translate(281.43, 199.84) rotate(0.00, 167.42, 1.01)"><defs><mask id="0fb4f33f-ce3b-40cd-2077-24e951786be9_clip"><rect x="-100" y="-100" width="534.83" height="202.03" fill="white"/><rect x="167.42" y="1.01" width="0" height="0" rx="4" ry="4" fill="black" opacity="1"/></mask></defs><g pointer-events="none" opacity="1" mask=""><path d="M -0.00,1.05 Q -0.00,1.05 41.84,0.83 83.70,0.61 125.55,0.38 167.41,0.15 209.26,-0.07 251.12,-0.31 292.98,-0.55 334.83,-0.79 334.96,-0.77 335.08,-0.75 335.20,-0.69 335.31,-0.63 335.40,-0.54 335.49,-0.44 335.54,-0.33 335.60,-0.21 335.61,-0.08 335.63,0.03 335.60,0.16 335.57,0.28 335.51,0.39 335.44,0.50 335.35,0.59 335.25,0.67 335.13,0.72 335.01,0.77 334.88,0.78 334.75,0.78 334.63,0.75 334.51,0.72 334.40,0.65 334.29,0.57 334.21,0.47 334.14,0.37 334.09,0.25 334.05,0.13 334.05,0.00 334.05,-0.12 334.09,-0.24 334.13,-0.36 334.21,-0.47 334.29,-0.57 334.39,-0.64 334.50,-0.71 334.62,-0.75 334.74,-0.78 334.87,-0.78 335.00,-0.77 335.12,-0.72 335.24,-0.68 335.34,-0.59 335.44,-0.51 335.50,-0.40 335.57,-0.29 335.60,-0.17 335.63,-0.04 335.61,0.08 335.60,0.20 335.55,0.32 335.49,0.44 335.41,0.53 335.32,0.62 335.21,0.68 335.09,0.75 334.97,0.77 334.84,0.79 334.84,0.79 334.84,0.79 292.98,1.06 251.13,1.32 209.28,1.59 167.42,1.87 125.57,2.15 83.71,2.42 41.86,2.71 0.00,3.00 -0.11,2.98 -0.22,2.97 -0.33,2.93 -0.44,2.89 -0.54,2.82 -0.64,2.76 -0.71,2.67 -0.79,2.58 -0.85,2.48 -0.90,2.38 -0.93,2.26 -0.96,2.15 -0.96,2.03 -0.96,1.91 -0.93,1.80 -0.91,1.69 -0.85,1.58 -0.80,1.48 -0.72,1.39 -0.64,1.30 -0.55,1.23 -0.45,1.17 -0.34,1.12 -0.23,1.08 -0.12,1.07 Z" fill="#cecece" stroke="#cecece" stroke-width="2.11" stroke-dasharray="none" stroke-dashoffset="none" stroke-linecap="round" stroke-linejoin="round" pointer-events="stroke"/></g></g><g text-align="left" text-anchor="start" fill="#cecece" transform="translate(394.16, 70.73) rotate(0.00, 55.00, 32.50)"><text y="14" letter-spacing="-0.84" font-size="28px" font-family="Caveat Brush" text-align="left" alignment-baseline="central" transform="scale(1.956587563795696)">client</text></g><g id="074ceb46-2ffe-4c79-11be-539cc13009a1_svg" class="tl-centered-g" transform="translate(290.76, 212.55) rotate(0.00, 45.80, 110.36)"><path d="M 92.60,93.03 Q 92.60,93.03 92.50,99.41 92.39,105.78 92.47,113.79 92.55,121.79 92.63,130.21 92.71,138.62 92.79,147.15 92.87,155.67 92.95,164.22 93.03,172.77 93.11,181.33 93.19,189.88 93.24,198.52 93.30,207.17 90.25,212.78 87.20,218.40 81.85,219.94 76.50,221.48 71.04,221.66 65.58,221.84 60.18,221.75 54.78,221.66 49.40,221.67 44.01,221.68 38.62,221.84 33.22,222.00 27.83,222.15 22.44,222.31 16.92,222.42 11.40,222.54 6.55,219.39 1.69,216.25 0.35,208.59 -0.98,200.94 -1.16,192.69 -1.33,184.44 -1.30,176.03 -1.27,167.62 -1.18,159.17 -1.10,150.71 -1.01,142.24 -0.91,133.77 -0.82,125.29 -0.72,116.82 -0.81,108.34 -0.90,99.87 -0.99,91.39 -1.08,82.92 -1.17,74.44 -1.26,65.97 -1.35,57.49 -1.44,49.02 -1.53,40.54 -1.63,32.07 -1.69,23.51 -1.76,14.95 1.25,9.36 4.28,3.77 9.64,2.13 15.00,0.48 20.47,0.16 25.95,-0.14 31.37,-0.19 36.79,-0.25 42.20,-0.40 47.61,-0.55 53.01,-0.86 58.42,-1.16 63.83,-1.46 69.23,-1.75 74.78,-2.01 80.33,-2.27 85.22,0.83 90.10,3.95 91.44,11.65 92.77,19.36 92.94,27.68 93.10,36.01 93.06,44.50 93.01,52.99 92.92,61.53 92.83,70.07 92.72,78.62 92.61,87.18 92.50,95.73 92.39,104.29 92.47,112.85 92.55,121.41 92.63,132.90 92.70,144.39 92.64,144.73 92.59,145.06 92.43,145.37 92.26,145.67 92.01,145.91 91.76,146.15 91.45,146.29 91.14,146.43 90.79,146.47 90.45,146.51 90.12,146.43 89.78,146.36 89.48,146.18 89.19,146.00 88.97,145.74 88.74,145.48 88.62,145.16 88.49,144.84 88.47,144.49 88.45,144.15 88.55,143.82 88.64,143.48 88.83,143.20 89.03,142.91 89.30,142.71 89.58,142.50 89.90,142.39 90.23,142.28 90.58,142.28 90.92,142.28 91.25,142.39 91.57,142.50 91.85,142.71 92.12,142.92 92.31,143.21 92.51,143.49 92.60,143.82 92.69,144.16 92.67,144.50 92.65,144.84 92.52,145.16 92.39,145.48 92.17,145.74 91.95,146.01 91.65,146.18 91.36,146.36 91.02,146.43 90.68,146.51 90.34,146.47 90.00,146.43 89.68,146.29 89.37,146.14 89.12,145.90 88.87,145.67 88.71,145.36 88.55,145.06 88.50,144.72 88.44,144.38 88.44,144.38 88.44,144.38 88.56,132.89 88.67,121.40 88.78,112.84 88.89,104.28 88.81,95.73 88.73,87.17 88.65,78.62 88.57,70.07 88.47,61.54 88.37,53.01 88.23,44.59 88.08,36.16 87.76,28.14 87.43,20.12 86.76,13.76 86.08,7.41 82.99,5.37 79.91,3.34 74.63,3.35 69.36,3.36 63.95,3.33 58.54,3.31 53.13,3.28 47.72,3.26 42.33,3.41 36.94,3.57 31.63,3.94 26.32,4.31 21.34,4.86 16.36,5.42 12.33,6.40 8.29,7.38 6.10,11.34 3.91,15.29 3.84,23.68 3.76,32.07 3.66,40.54 3.56,49.02 3.46,57.49 3.36,65.97 3.27,74.44 3.17,82.92 3.07,91.40 2.97,99.87 2.87,108.35 2.77,116.82 2.86,125.29 2.96,133.77 3.05,142.23 3.15,150.70 3.25,159.15 3.36,167.59 3.52,175.94 3.67,184.28 4.01,192.22 4.35,200.16 5.03,206.47 5.71,212.77 8.82,214.84 11.93,216.92 17.19,217.05 22.45,217.18 27.84,217.35 33.23,217.53 38.61,217.69 44.00,217.86 49.37,217.85 54.73,217.84 60.03,217.61 65.32,217.37 70.28,216.95 75.24,216.52 79.25,215.63 83.27,214.74 85.44,210.78 87.61,206.82 87.70,198.35 87.79,189.87 87.90,181.32 88.01,172.76 88.12,164.21 88.23,155.66 88.34,147.14 88.45,138.62 88.56,130.20 88.67,121.78 88.78,113.78 88.89,105.78 88.81,99.40 88.73,93.02 88.75,92.79 88.78,92.56 88.87,92.34 88.95,92.12 89.08,91.93 89.22,91.74 89.39,91.58 89.57,91.43 89.77,91.32 89.98,91.21 90.21,91.16 90.44,91.10 90.67,91.10 90.90,91.10 91.13,91.16 91.36,91.22 91.56,91.32 91.77,91.43 91.94,91.59 92.12,91.74 92.25,91.94 92.38,92.13 92.47,92.35 92.55,92.57 92.58,92.80 Z" fill="#36a64c" stroke="#36a64c" stroke-width="3.5" pointer-events="none"/></g><g id="7df60573-77b7-40de-0a3d-0d0e4d0c8c73_svg" class="tl-centered-g" transform="translate(404.60, 212.09) rotate(0.00, 99.75, 110.79)"><path d="M -0.31,127.78 Q -0.31,127.78 -0.20,121.46 -0.09,115.14 -0.17,107.21 -0.25,99.27 -0.32,90.93 -0.40,82.59 -0.47,74.14 -0.55,65.69 -0.63,57.22 -0.70,48.75 -0.78,40.27 -0.85,31.79 -0.91,23.22 -0.96,14.65 2.17,9.01 5.30,3.37 12.75,1.74 20.20,0.11 28.24,-0.17 36.28,-0.46 44.45,-0.50 52.62,-0.55 60.83,-0.54 69.04,-0.52 77.26,-0.49 85.48,-0.46 93.70,-0.53 101.92,-0.60 110.15,-0.78 118.37,-0.95 126.59,-1.12 134.81,-1.29 143.04,-1.47 151.26,-1.64 159.48,-1.81 167.70,-1.98 176.02,-2.13 184.33,-2.28 189.92,0.83 195.52,3.96 197.11,11.65 198.71,19.34 198.99,27.69 199.26,36.04 199.30,44.53 199.33,53.03 199.30,61.57 199.28,70.11 199.24,78.67 199.20,87.22 199.15,95.78 199.11,104.34 199.25,112.90 199.39,121.45 199.54,130.01 199.68,138.57 199.83,147.13 199.97,155.69 200.11,164.24 200.26,172.80 200.40,181.36 200.54,189.92 200.67,198.56 200.79,207.21 197.66,212.88 194.52,218.56 187.03,220.13 179.53,221.69 171.42,221.91 163.31,222.12 155.07,222.09 146.82,222.05 138.54,221.95 130.26,221.86 121.97,221.74 113.67,221.63 105.38,221.62 97.08,221.61 88.78,221.70 80.49,221.79 72.19,221.88 63.89,221.97 55.59,222.06 47.29,222.15 39.00,222.24 30.70,222.33 22.31,222.39 13.93,222.46 8.32,219.31 2.72,216.15 1.17,208.51 -0.37,200.87 -0.58,192.59 -0.80,184.31 -0.76,175.89 -0.73,167.47 -0.63,159.00 -0.54,150.54 -0.43,142.06 -0.32,133.58 -0.21,125.10 -0.10,116.62 -0.17,108.13 -0.25,99.65 -0.32,88.26 -0.39,76.88 -0.33,76.54 -0.27,76.20 -0.11,75.89 0.04,75.59 0.29,75.35 0.54,75.12 0.86,74.97 1.17,74.83 1.51,74.79 1.85,74.76 2.19,74.83 2.53,74.91 2.82,75.09 3.12,75.26 3.34,75.53 3.56,75.79 3.69,76.11 3.81,76.43 3.83,76.77 3.85,77.12 3.76,77.45 3.66,77.78 3.47,78.07 3.28,78.35 3.00,78.56 2.73,78.77 2.40,78.88 2.07,78.99 1.73,78.98 1.38,78.98 1.06,78.87 0.73,78.76 0.46,78.55 0.18,78.34 -0.00,78.06 -0.19,77.77 -0.28,77.44 -0.37,77.11 -0.35,76.76 -0.33,76.42 -0.21,76.10 -0.08,75.78 0.14,75.52 0.36,75.26 0.65,75.08 0.95,74.90 1.29,74.83 1.62,74.76 1.97,74.79 2.31,74.83 2.62,74.98 2.93,75.12 3.18,75.36 3.43,75.60 3.59,75.90 3.75,76.21 3.81,76.55 3.86,76.89 3.86,76.89 3.86,76.89 3.74,88.27 3.62,99.66 3.51,108.14 3.39,116.62 3.47,125.11 3.55,133.59 3.63,142.06 3.71,150.54 3.81,158.99 3.90,167.44 4.05,175.78 4.21,184.13 4.57,192.05 4.94,199.97 5.77,206.31 6.60,212.64 10.44,214.71 14.28,216.77 22.50,216.87 30.71,216.96 39.00,217.08 47.30,217.20 55.60,217.32 63.90,217.43 72.20,217.55 80.49,217.67 88.79,217.78 97.09,217.90 105.38,217.91 113.68,217.93 121.97,217.83 130.26,217.74 138.52,217.63 146.79,217.52 154.95,217.35 163.12,217.18 170.86,216.80 178.60,216.41 184.79,215.56 190.98,214.70 193.04,210.80 195.10,206.90 195.12,198.42 195.15,189.95 195.19,181.39 195.24,172.83 195.29,164.27 195.33,155.71 195.38,147.15 195.42,138.59 195.47,130.04 195.51,121.48 195.56,112.92 195.61,104.36 195.46,95.80 195.32,87.25 195.17,78.70 195.02,70.15 194.86,61.62 194.69,53.10 194.47,44.67 194.25,36.25 193.82,28.26 193.40,20.27 192.52,13.88 191.65,7.50 187.83,5.45 184.02,3.39 175.88,3.38 167.75,3.37 159.52,3.33 151.30,3.30 143.08,3.27 134.85,3.23 126.63,3.20 118.40,3.16 110.18,3.13 101.96,3.09 93.73,3.16 85.51,3.23 77.30,3.41 69.08,3.59 60.89,3.78 52.70,3.97 44.61,4.22 36.52,4.47 28.85,4.93 21.17,5.39 15.03,6.30 8.90,7.21 6.81,11.10 4.72,15.00 4.63,23.40 4.53,31.80 4.42,40.28 4.31,48.76 4.19,57.23 4.08,65.71 3.96,74.15 3.85,82.60 3.74,90.94 3.62,99.28 3.51,107.21 3.40,115.14 3.48,121.46 3.56,127.78 3.53,128.02 3.50,128.25 3.42,128.47 3.33,128.69 3.20,128.88 3.07,129.07 2.89,129.22 2.72,129.38 2.51,129.49 2.30,129.60 2.08,129.65 1.85,129.71 1.61,129.71 1.38,129.70 1.15,129.65 0.93,129.59 0.72,129.48 0.51,129.37 0.34,129.22 0.16,129.06 0.03,128.87 -0.09,128.68 -0.17,128.46 -0.26,128.24 -0.28,128.01 Z" fill="#36a64c" stroke="#36a64c" stroke-width="3.5" pointer-events="none"/></g><g id="af8ea42d-ddd7-4b3b-14fd-d7e5bdcb593e_svg" class="tl-centered-g" transform="translate(431.09, 287.34) rotate(0.00, 75.19, 25.43)"><rect x="2.11" y="2.11" width="148.25" height="48.73" fill="#345246" pointer-events="none"/><g pointer-events="none" stroke="#36a64c" stroke-width="4.23" stroke-linecap="round"><line x1="2.11" y1="2.11" x2="148.25" y2="2.11" stroke-dasharray="none" stroke-dashoffset="none"/><line x1="148.25" y1="2.11" x2="148.25" y2="48.73" stroke-dasharray="none" stroke-dashoffset="none"/><line x1="148.25" y1="48.73" x2="2.11" y2="48.73" stroke-dasharray="none" stroke-dashoffset="none"/><line x1="2.11" y1="48.73" x2="2.11" y2="2.11" stroke-dasharray="none" stroke-dashoffset="none"/></g></g><g id="399f385c-ff8e-438c-36a5-9e4b4e022cf9_svg" class="tl-centered-g" transform="translate(432.29, 352.55) rotate(0.00, 75.19, 25.43)"><rect x="2.11" y="2.11" width="148.25" height="48.73" fill="#345246" pointer-events="none"/><g pointer-events="none" stroke="#36a64c" stroke-width="4.23" stroke-linecap="round"><line x1="2.11" y1="2.11" x2="148.25" y2="2.11" stroke-dasharray="none" stroke-dashoffset="none"/><line x1="148.25" y1="2.11" x2="148.25" y2="48.73" stroke-dasharray="none" stroke-dashoffset="none"/><line x1="148.25" y1="48.73" x2="2.11" y2="48.73" stroke-dasharray="none" stroke-dashoffset="none"/><line x1="2.11" y1="48.73" x2="2.11" y2="2.11" stroke-dasharray="none" stroke-dashoffset="none"/></g></g><g id="0ce6d3eb-0fe9-4632-10bc-9633f6f168a1_svg" class="tl-centered-g" transform="translate(432.19, 234.92) rotate(0.00, 74.13, 18.32)"><rect x="2.11" y="2.11" width="146.14" height="34.53" fill="#345246" pointer-events="none"/><g pointer-events="none" stroke="#36a64c" stroke-width="4.23" stroke-linecap="round"><line x1="2.11" y1="2.11" x2="146.14" y2="2.11" stroke-dasharray="none" stroke-dashoffset="none"/><line x1="146.14" y1="2.11" x2="146.14" y2="34.53" stroke-dasharray="none" stroke-dashoffset="none"/><line x1="146.14" y1="34.53" x2="2.11" y2="34.53" stroke-dasharray="none" stroke-dashoffset="none"/><line x1="2.11" y1="34.53" x2="2.11" y2="2.11" stroke-dasharray="none" stroke-dashoffset="none"/></g></g><g id="0860b8fe-e911-4940-3b2b-a4d7529e7528_svg" class="tl-centered-g" transform="translate(311.02, 233.58) rotate(0.00, 26.07, 25.02)"><rect x="2.11" y="2.11" width="50.01" height="47.92" fill="#345246" pointer-events="none"/><g pointer-events="none" stroke="#36a64c" stroke-width="4.23" stroke-linecap="round"><line x1="2.11" y1="2.11" x2="50.01" y2="2.11" stroke-dasharray="none" stroke-dashoffset="none"/><line x1="50.01" y1="2.11" x2="50.01" y2="47.92" stroke-dasharray="none" stroke-dashoffset="none"/><line x1="50.01" y1="47.92" x2="2.11" y2="47.92" stroke-dasharray="none" stroke-dashoffset="none"/><line x1="2.11" y1="47.92" x2="2.11" y2="2.11" stroke-dasharray="none" stroke-dashoffset="none"/></g></g><g id="fd8c2367-43f5-4320-2854-c20ea21a12bd_svg" class="tl-centered-g" transform="translate(311.02, 294.79) rotate(0.00, 26.07, 51.27)"><rect x="2.11" y="2.11" width="50.01" height="100.43" fill="#345246" pointer-events="none"/><g pointer-events="none" stroke="#36a64c" stroke-width="4.23" stroke-linecap="round"><line x1="2.11" y1="2.11" x2="50.01" y2="2.11" stroke-dasharray="none" stroke-dashoffset="none"/><line x1="50.01" y1="2.11" x2="50.01" y2="100.43" stroke-dasharray="none" stroke-dashoffset="none"/><line x1="50.01" y1="100.43" x2="2.11" y2="100.43" stroke-dasharray="none" stroke-dashoffset="none"/><line x1="2.11" y1="100.43" x2="2.11" y2="2.11" stroke-dasharray="none" stroke-dashoffset="none"/></g></g><g text-align="center" text-anchor="middle" fill="#ebbb38" transform="translate(690.45, 120.42) rotate(0.00, 256.00, 58.50)"><text y="14" letter-spacing="-0.84" font-size="28px" font-family="Caveat Brush" text-align="center" alignment-baseline="central" transform="scale(3.8172248803827746)" x="67.06">So now where's</text></g><g text-align="center" text-anchor="middle" fill="#ebbb38" transform="translate(687.84, 217.60) rotate(0.00, 226.50, 58.50)"><text y="14" letter-spacing="-0.84" font-size="28px" font-family="Caveat Brush" text-align="center" alignment-baseline="central" transform="scale(3.8172248803827746)" x="59.33">the source of</text></g><g text-align="center" text-anchor="middle" fill="#ebbb38" transform="translate(692.85, 315.20) rotate(0.00, 120.50, 58.50)"><text y="14" letter-spacing="-0.84" font-size="28px" font-family="Caveat Brush" text-align="center" alignment-baseline="central" transform="scale(3.8172248803827746)" x="31.56">truth?</text></g></svg>