<svg xmlns="http://www.w3.org/2000/svg" viewBox="0 0 1504 688" width="1472" height="656" style="background-color: transparent;"><defs><style>@import url('https://fonts.googleapis.com/css2?family=Caveat+Brush&amp;family=Source+Code+Pro&amp;family=Source+Sans+Pro&amp;family=Crimson+Pro&amp;display=block');</style></defs><g id="3b3f3bb4-7288-48bd-047e-2ca12f5b13bf_svg" class="tl-centered-g" transform="translate(845.31, 148.36) rotate(0.00, 191.56, 77.11)"><g pointer-events="none" stroke="#cecece" stroke-width="4.23" stroke-linecap="round"><line x1="2.11" y1="2.11" x2="380.99" y2="2.11" stroke-dasharray="6.47 6.59" stroke-dashoffset="3.23"/><line x1="380.99" y1="2.11" x2="380.99" y2="152.10" stroke-dasharray="6.47 7.16" stroke-dashoffset="3.23"/><line x1="380.99" y1="152.10" x2="2.11" y2="152.10" stroke-dasharray="6.47 6.59" stroke-dashoffset="3.23"/><line x1="2.11" y1="152.10" x2="2.11" y2="2.11" stroke-dasharray="6.47 7.16" stroke-dashoffset="3.23"/></g></g><g id="0f0c0cbb-1133-4c69-22f3-a3d513e9aeac_svg" class="tl-centered-g" transform="translate(16.00, 16.00) rotate(0.00, 736.00, 328.00)"><g pointer-events="none" stroke="transparent" stroke-width="4.23" stroke-linecap="round"><line x1="2.11" y1="2.11" x2="1469.88" y2="2.11" stroke-dasharray="0.03 6.46" stroke-dashoffset="0"/><line x1="1469.88" y1="2.11" x2="1469.88" y2="653.88" stroke-dasharray="0.03 6.48" stroke-dashoffset="0"/><line x1="1469.88" y1="653.88" x2="2.11" y2="653.88" stroke-dasharray="0.03 6.46" stroke-dashoffset="0"/><line x1="2.11" y1="653.88" x2="2.11" y2="2.11" stroke-dasharray="0.03 6.48" stroke-dashoffset="0"/></g></g><g id="9535ff23-b647-493b-1b26-b6caa66949dd_svg" class="tl-centered-g" transform="translate(267.76, 137.91) rotate(0.00, 182.85, 159.67)"><path d="M -0.40,228.69 Q -0.40,228.69 -0.37,222.30 -0.35,215.91 -0.33,207.89 -0.31,199.87 -0.29,191.43 -0.27,182.99 -0.25,174.45 -0.24,165.91 -0.29,157.34 -0.34,148.77 -0.40,140.19 -0.45,131.62 -0.50,123.04 -0.56,114.46 -0.61,105.88 -0.66,97.30 -0.72,88.72 -0.77,80.15 -0.83,71.57 -0.88,62.99 -0.93,54.41 -0.99,45.83 -1.04,37.25 -1.09,28.67 -1.14,20.07 -1.19,11.47 0.66,7.25 2.53,3.03 9.56,1.87 16.58,0.71 24.69,0.49 32.80,0.27 41.18,0.24 49.57,0.21 58.02,0.22 66.47,0.23 74.94,0.26 83.42,0.28 91.89,0.31 100.37,0.34 108.85,0.37 117.33,0.40 125.81,0.43 134.29,0.46 142.77,0.49 151.25,0.52 159.72,0.54 168.20,0.57 176.68,0.57 185.16,0.57 193.64,0.54 202.12,0.50 210.60,0.47 219.08,0.44 227.56,0.41 236.04,0.37 244.51,0.34 252.99,0.31 261.47,0.28 269.95,0.24 278.43,0.21 286.91,0.18 295.39,0.14 303.87,0.11 312.35,0.08 320.83,0.05 329.31,0.01 337.78,-0.01 346.29,-0.04 354.79,-0.07 358.98,1.79 363.17,3.66 364.34,10.75 365.50,17.84 365.73,26.02 365.96,34.20 366.00,42.66 366.05,51.12 366.05,59.65 366.04,68.18 366.03,76.73 366.02,85.28 366.01,93.84 365.99,102.39 365.97,110.95 365.96,119.51 365.94,128.07 365.93,136.62 365.91,145.18 365.90,153.74 365.95,162.30 366.01,170.85 366.06,179.41 366.12,187.97 366.18,196.53 366.23,205.08 366.29,213.64 366.34,222.20 366.40,230.76 366.46,239.31 366.51,247.87 366.57,256.43 366.63,264.99 366.68,273.54 366.74,282.10 366.79,290.66 366.85,299.24 366.90,307.82 365.03,312.03 363.17,316.25 356.14,317.42 349.12,318.60 341.00,318.83 332.89,319.07 324.51,319.12 316.12,319.17 307.67,319.17 299.21,319.17 290.74,319.17 282.26,319.16 273.78,319.15 265.30,319.14 256.82,319.13 248.34,319.12 239.86,319.11 231.38,319.10 222.90,319.09 214.42,319.08 205.93,319.06 197.45,319.05 188.97,319.07 180.49,319.09 172.01,319.14 163.53,319.20 155.05,319.25 146.57,319.30 138.08,319.35 129.60,319.40 121.12,319.45 112.64,319.50 104.16,319.55 95.68,319.60 87.20,319.65 78.72,319.71 70.23,319.76 61.75,319.81 53.27,319.86 44.79,319.91 36.31,319.96 27.83,320.01 19.32,320.06 10.82,320.10 6.63,318.24 2.43,316.37 1.27,309.27 0.11,302.17 -0.11,293.97 -0.33,285.77 -0.38,277.29 -0.42,268.81 -0.42,260.26 -0.41,251.70 -0.40,243.13 -0.38,234.56 -0.36,225.98 -0.35,217.40 -0.33,208.83 -0.31,200.25 -0.29,191.67 -0.27,183.09 -0.25,174.51 -0.24,165.93 -0.29,157.35 -0.34,148.78 -0.40,137.26 -0.46,125.75 -0.43,125.56 -0.40,125.38 -0.32,125.22 -0.23,125.05 -0.10,124.92 0.03,124.80 0.20,124.72 0.36,124.64 0.55,124.62 0.73,124.60 0.91,124.64 1.09,124.68 1.25,124.77 1.41,124.87 1.53,125.01 1.65,125.15 1.72,125.32 1.79,125.49 1.80,125.68 1.81,125.86 1.76,126.04 1.71,126.22 1.61,126.37 1.50,126.53 1.36,126.64 1.21,126.75 1.03,126.81 0.86,126.87 0.67,126.87 0.49,126.87 0.31,126.81 0.14,126.75 -0.00,126.64 -0.15,126.53 -0.25,126.38 -0.36,126.23 -0.41,126.05 -0.46,125.87 -0.45,125.68 -0.44,125.50 -0.37,125.33 -0.30,125.15 -0.18,125.01 -0.06,124.87 0.09,124.78 0.25,124.68 0.43,124.64 0.61,124.60 0.79,124.62 0.98,124.64 1.14,124.72 1.31,124.79 1.45,124.92 1.58,125.05 1.67,125.21 1.76,125.38 1.79,125.56 1.82,125.74 1.82,125.74 1.82,125.74 1.80,137.26 1.79,148.77 1.77,157.35 1.75,165.93 1.81,174.51 1.86,183.09 1.91,191.66 1.97,200.24 2.02,208.82 2.08,217.40 2.13,225.98 2.19,234.55 2.24,243.12 2.30,251.69 2.37,260.24 2.44,268.78 2.55,277.23 2.67,285.67 2.95,293.70 3.23,301.74 3.96,308.18 4.68,314.61 7.79,315.72 10.91,316.82 19.36,316.83 27.82,316.84 36.30,316.85 44.78,316.86 53.27,316.87 61.75,316.88 70.23,316.89 78.71,316.90 87.19,316.91 95.67,316.92 104.15,316.93 112.63,316.94 121.12,316.96 129.60,316.97 138.08,316.98 146.56,316.99 155.04,317.00 163.52,317.01 172.00,317.02 180.49,317.03 188.97,317.01 197.45,316.99 205.93,316.94 214.41,316.89 222.89,316.84 231.37,316.79 239.85,316.74 248.34,316.69 256.82,316.63 265.30,316.58 273.78,316.53 282.25,316.48 290.73,316.42 299.20,316.37 307.65,316.30 316.10,316.24 324.44,316.13 332.79,316.01 340.73,315.73 348.67,315.45 355.04,314.73 361.40,314.00 362.51,310.87 363.62,307.74 363.63,299.20 363.64,290.67 363.65,282.11 363.67,273.55 363.69,264.99 363.70,256.44 363.72,247.88 363.74,239.32 363.75,230.76 363.77,222.21 363.78,213.65 363.80,205.09 363.82,196.53 363.83,187.97 363.85,179.42 363.86,170.86 363.88,162.30 363.90,153.74 363.84,145.19 363.78,136.63 363.73,128.07 363.67,119.51 363.61,110.96 363.56,102.40 363.50,93.85 363.44,85.29 363.38,76.74 363.32,68.19 363.25,59.67 363.18,51.14 363.06,42.72 362.95,34.30 362.66,26.29 362.38,18.27 361.65,11.85 360.92,5.43 357.81,4.32 354.70,3.21 346.24,3.18 337.79,3.16 329.31,3.13 320.83,3.10 312.35,3.07 303.87,3.04 295.39,3.01 286.91,2.98 278.43,2.95 269.95,2.92 261.47,2.89 252.99,2.87 244.52,2.84 236.04,2.81 227.56,2.78 219.08,2.75 210.60,2.72 202.12,2.69 193.64,2.66 185.16,2.63 176.68,2.63 168.20,2.64 159.72,2.67 151.25,2.70 142.77,2.73 134.29,2.77 125.81,2.80 117.33,2.83 108.85,2.87 100.37,2.90 91.90,2.93 83.42,2.97 74.95,3.00 66.48,3.04 58.03,3.09 49.59,3.14 41.24,3.23 32.90,3.32 24.96,3.59 17.02,3.85 10.66,4.57 4.29,5.28 3.18,8.42 2.08,11.55 2.07,20.11 2.05,28.67 2.03,37.25 2.01,45.82 2.00,54.40 1.98,62.98 1.96,71.56 1.94,80.14 1.92,88.72 1.90,97.30 1.88,105.88 1.87,114.45 1.85,123.03 1.83,131.61 1.81,140.19 1.79,148.76 1.77,157.33 1.75,165.90 1.81,174.45 1.86,182.99 1.91,191.43 1.97,199.86 2.02,207.88 2.07,215.90 2.12,222.29 2.17,228.69 2.15,228.84 2.13,228.99 2.08,229.14 2.02,229.29 1.94,229.41 1.85,229.54 1.73,229.64 1.62,229.75 1.48,229.82 1.34,229.89 1.19,229.93 1.04,229.97 0.88,229.97 0.73,229.97 0.58,229.93 0.43,229.89 0.29,229.82 0.15,229.75 0.04,229.65 -0.07,229.55 -0.16,229.42 -0.25,229.29 -0.30,229.14 -0.36,229.00 -0.38,228.85 Z" fill="#cecece" stroke="#cecece" stroke-width="2" pointer-events="none"/></g><g id="31353079-80da-4a9e-3d2a-a3488a242dd8_svg" class="tl-centered-g" transform="translate(275.14, 146.49) rotate(0.00, 174.19, 20.79)"><path d="M 89.56,-0.43 Q 89.56,-0.43 95.87,-0.41 102.18,-0.38 110.09,-0.36 118.01,-0.33 126.34,-0.31 134.67,-0.29 143.10,-0.26 151.54,-0.24 160.00,-0.22 168.46,-0.20 176.92,-0.24 185.39,-0.28 193.86,-0.32 202.33,-0.36 210.79,-0.40 219.26,-0.45 227.73,-0.49 236.20,-0.53 244.67,-0.57 253.14,-0.61 261.61,-0.66 270.08,-0.70 278.55,-0.74 287.01,-0.78 295.48,-0.82 303.95,-0.86 312.42,-0.91 320.89,-0.95 329.38,-0.98 337.87,-1.02 341.94,0.63 346.00,2.30 347.18,4.77 348.35,7.25 348.57,9.74 348.78,12.24 348.76,14.61 348.74,16.98 348.77,19.32 348.80,21.66 348.91,24.00 349.02,26.33 349.12,28.66 349.23,31.00 349.31,33.42 349.38,35.85 347.55,38.45 345.72,41.05 338.64,41.75 331.56,42.44 323.49,42.52 315.42,42.60 307.05,42.57 298.69,42.55 290.24,42.49 281.80,42.44 273.34,42.38 264.87,42.32 256.40,42.26 247.93,42.20 239.46,42.14 230.99,42.08 222.52,42.02 214.05,41.96 205.57,41.89 197.10,41.83 188.63,41.77 180.16,41.71 171.69,41.71 163.22,41.72 154.74,41.72 146.27,41.72 137.80,41.73 129.33,41.73 120.86,41.73 112.38,41.74 103.91,41.74 95.44,41.74 86.97,41.75 78.50,41.75 70.03,41.76 61.55,41.76 53.08,41.76 44.61,41.77 36.14,41.77 27.67,41.77 19.17,41.77 10.68,41.77 6.62,40.10 2.57,38.43 1.39,36.04 0.22,33.64 0.01,31.24 -0.18,28.84 -0.16,26.58 -0.14,24.31 -0.16,22.08 -0.18,19.85 -0.28,17.62 -0.38,15.40 -0.48,13.17 -0.57,10.95 -0.64,8.63 -0.71,6.31 1.11,3.75 2.94,1.18 10.02,0.46 17.10,-0.25 25.17,-0.36 33.23,-0.48 41.59,-0.49 49.96,-0.50 58.40,-0.48 66.84,-0.47 75.30,-0.45 83.76,-0.43 92.23,-0.40 100.70,-0.38 109.17,-0.36 117.64,-0.33 126.10,-0.31 134.57,-0.29 143.04,-0.26 151.51,-0.24 159.98,-0.22 168.45,-0.20 176.92,-0.24 185.39,-0.28 196.75,-0.32 208.12,-0.37 208.30,-0.34 208.48,-0.31 208.65,-0.22 208.81,-0.14 208.93,-0.01 209.06,0.12 209.14,0.28 209.21,0.45 209.23,0.63 209.25,0.81 209.21,0.99 209.17,1.17 209.08,1.33 208.99,1.48 208.85,1.60 208.71,1.72 208.54,1.79 208.37,1.85 208.19,1.86 208.00,1.87 207.83,1.83 207.65,1.78 207.50,1.67 207.35,1.57 207.24,1.43 207.13,1.28 207.07,1.11 207.01,0.94 207.01,0.75 207.01,0.57 207.07,0.40 207.12,0.22 207.24,0.08 207.35,-0.06 207.50,-0.16 207.65,-0.26 207.82,-0.31 208.00,-0.36 208.18,-0.35 208.37,-0.34 208.54,-0.28 208.71,-0.21 208.84,-0.09 208.98,0.02 209.08,0.18 209.17,0.33 209.21,0.51 209.25,0.69 209.23,0.87 209.21,1.05 209.14,1.22 209.06,1.38 208.93,1.52 208.81,1.65 208.65,1.74 208.49,1.82 208.31,1.85 208.12,1.88 208.12,1.88 208.13,1.88 196.76,1.86 185.39,1.84 176.92,1.82 168.45,1.79 159.98,1.84 151.51,1.88 143.04,1.92 134.58,1.96 126.11,2.00 117.64,2.05 109.17,2.09 100.70,2.13 92.23,2.17 83.77,2.21 75.31,2.26 66.85,2.30 58.41,2.35 49.97,2.40 41.63,2.48 33.28,2.55 25.32,2.73 17.35,2.90 11.06,3.24 4.76,3.59 3.61,5.13 2.46,6.68 2.40,8.81 2.34,10.94 2.26,13.16 2.17,15.39 2.08,17.61 2.00,19.83 2.02,22.04 2.04,24.25 2.19,26.41 2.35,28.56 2.62,30.52 2.90,32.47 3.59,34.15 4.29,35.83 7.53,37.16 10.78,38.49 19.23,38.55 27.68,38.60 36.15,38.66 44.62,38.73 53.09,38.79 61.56,38.85 70.03,38.91 78.51,38.97 86.98,39.03 95.45,39.09 103.92,39.16 112.39,39.22 120.86,39.28 129.34,39.34 137.81,39.40 146.28,39.46 154.75,39.53 163.22,39.59 171.69,39.65 180.17,39.71 188.64,39.71 197.11,39.70 205.58,39.70 214.05,39.70 222.53,39.69 231.00,39.69 239.47,39.69 247.94,39.68 256.41,39.68 264.88,39.67 273.34,39.67 281.81,39.66 290.25,39.65 298.69,39.64 307.03,39.60 315.38,39.56 323.35,39.42 331.31,39.28 337.61,38.96 343.91,38.64 345.05,37.07 346.20,35.50 346.25,33.26 346.30,31.01 346.38,28.68 346.46,26.35 346.54,24.02 346.61,21.69 346.59,19.37 346.56,17.05 346.40,14.78 346.24,12.51 345.95,10.45 345.66,8.39 344.96,6.63 344.26,4.87 341.02,3.56 337.79,2.25 329.34,2.23 320.89,2.21 312.43,2.19 303.96,2.17 295.49,2.14 287.02,2.12 278.55,2.10 270.08,2.07 261.61,2.05 253.14,2.03 244.67,2.00 236.20,1.98 227.73,1.96 219.27,1.93 210.80,1.91 202.33,1.89 193.86,1.86 185.39,1.84 176.92,1.82 168.46,1.79 160.00,1.84 151.54,1.88 143.10,1.92 134.67,1.96 126.34,2.00 118.01,2.05 110.10,2.09 102.18,2.13 95.87,2.17 89.56,2.21 89.40,2.19 89.24,2.17 89.09,2.11 88.94,2.06 88.81,1.96 88.68,1.87 88.57,1.75 88.47,1.64 88.39,1.49 88.32,1.35 88.28,1.20 88.24,1.04 88.24,0.88 88.24,0.72 88.28,0.57 88.32,0.41 88.39,0.27 88.47,0.13 88.57,0.01 88.68,-0.10 88.81,-0.19 88.94,-0.28 89.09,-0.34 89.24,-0.39 89.40,-0.41 Z" fill="#cecece" stroke="#cecece" stroke-width="2" pointer-events="none"/></g><g text-align="left" text-anchor="start" fill="#cecece" transform="translate(282.12, 148.31) rotate(0.00, 83.00, 19.00)"><text y="14" letter-spacing="-0.84" font-size="28px" font-family="Caveat Brush" text-align="left" alignment-baseline="central" transform="scale(0.9835139714385606)">site.com/products</text></g><g id="0fb4f33f-ce3b-40cd-2077-24e951786be9_svg" class="tl-centered-g" transform="translate(281.43, 199.84) rotate(0.00, 167.42, 1.01)"><defs><mask id="0fb4f33f-ce3b-40cd-2077-24e951786be9_clip"><rect x="-100" y="-100" width="534.83" height="202.03" fill="white"/><rect x="167.42" y="1.01" width="0" height="0" rx="4" ry="4" fill="black" opacity="1"/></mask></defs><g pointer-events="none" opacity="1" mask=""><path d="M -0.00,1.05 Q -0.00,1.05 41.84,0.83 83.70,0.61 125.55,0.38 167.41,0.15 209.26,-0.07 251.12,-0.31 292.98,-0.55 334.83,-0.79 334.96,-0.77 335.08,-0.75 335.20,-0.69 335.31,-0.63 335.40,-0.54 335.49,-0.44 335.54,-0.33 335.60,-0.21 335.61,-0.08 335.63,0.03 335.60,0.16 335.57,0.28 335.51,0.39 335.44,0.50 335.35,0.59 335.25,0.67 335.13,0.72 335.01,0.77 334.88,0.78 334.75,0.78 334.63,0.75 334.51,0.72 334.40,0.65 334.29,0.57 334.21,0.47 334.14,0.37 334.09,0.25 334.05,0.13 334.05,0.00 334.05,-0.12 334.09,-0.24 334.13,-0.36 334.21,-0.47 334.29,-0.57 334.39,-0.64 334.50,-0.71 334.62,-0.75 334.74,-0.78 334.87,-0.78 335.00,-0.77 335.12,-0.72 335.24,-0.68 335.34,-0.59 335.44,-0.51 335.50,-0.40 335.57,-0.29 335.60,-0.17 335.63,-0.04 335.61,0.08 335.60,0.20 335.55,0.32 335.49,0.44 335.41,0.53 335.32,0.62 335.21,0.68 335.09,0.75 334.97,0.77 334.84,0.79 334.84,0.79 334.84,0.79 292.98,1.06 251.13,1.32 209.28,1.59 167.42,1.87 125.57,2.15 83.71,2.42 41.86,2.71 0.00,3.00 -0.11,2.98 -0.22,2.97 -0.33,2.93 -0.44,2.89 -0.54,2.82 -0.64,2.76 -0.71,2.67 -0.79,2.58 -0.85,2.48 -0.90,2.38 -0.93,2.26 -0.96,2.15 -0.96,2.03 -0.96,1.91 -0.93,1.80 -0.91,1.69 -0.85,1.58 -0.80,1.48 -0.72,1.39 -0.64,1.30 -0.55,1.23 -0.45,1.17 -0.34,1.12 -0.23,1.08 -0.12,1.07 Z" fill="#cecece" stroke="#cecece" stroke-width="2.11" stroke-dasharray="none" stroke-dashoffset="none" stroke-linecap="round" stroke-linejoin="round" pointer-events="stroke"/></g></g><g text-align="left" text-anchor="start" fill="#cecece" transform="translate(394.16, 70.73) rotate(0.00, 55.00, 32.50)"><text y="14" letter-spacing="-0.84" font-size="28px" font-family="Caveat Brush" text-align="left" alignment-baseline="central" transform="scale(1.956587563795696)">client</text></g><g id="b17bd482-6ea2-4a67-3aab-ec97f19d9b9f_svg" class="tl-centered-g" transform="translate(724.40, 100.09) rotate(0.00, 24.68, 235.26)"><g opacity="1"><path d="M 22.26,0.21 Q 22.26,0.21 21.15,0.48 20.04,0.75 18.93,1.31 17.81,1.88 16.66,2.70 15.50,3.51 14.24,4.50 12.97,5.50 11.78,6.54 10.58,7.59 9.58,8.56 8.58,9.53 7.67,10.50 6.76,11.48 5.95,12.44 5.13,13.40 4.49,14.26 3.85,15.13 3.40,15.93 2.95,16.73 2.66,17.57 2.37,18.41 2.21,19.37 2.04,20.32 1.95,21.02 1.86,21.72 1.88,22.51 1.91,23.29 2.13,24.08 2.35,24.87 2.81,25.68 3.27,26.49 3.92,27.38 4.57,28.26 5.38,29.20 6.19,30.14 7.12,31.11 8.06,32.08 9.05,33.01 10.04,33.94 11.22,34.88 12.39,35.81 13.71,36.72 15.03,37.62 16.27,38.42 17.51,39.22 18.61,39.89 19.71,40.55 20.73,41.13 21.74,41.72 22.70,42.30 23.66,42.88 24.56,43.46 25.46,44.05 26.30,44.62 27.15,45.20 27.93,45.78 28.70,46.35 29.40,46.94 30.09,47.53 30.70,48.17 31.31,48.80 31.82,49.46 32.32,50.13 32.72,50.81 33.12,51.49 33.44,52.24 33.76,53.00 34.00,53.90 34.23,54.80 34.37,55.82 34.51,56.83 34.58,57.85 34.66,58.87 34.58,59.88 34.50,60.89 34.06,62.00 33.62,63.11 32.81,64.36 32.00,65.60 30.99,66.88 29.99,68.16 28.81,69.54 27.63,70.92 25.97,72.70 24.31,74.48 23.12,75.77 21.93,77.07 20.75,78.35 19.57,79.63 18.61,80.72 17.64,81.81 16.84,82.77 16.04,83.74 15.29,84.73 14.54,85.73 13.91,86.72 13.27,87.71 12.74,88.66 12.21,89.60 11.81,90.46 11.42,91.33 11.16,92.19 10.91,93.05 10.76,93.89 10.62,94.73 10.55,95.57 10.47,96.41 10.48,97.25 10.49,98.09 10.70,98.85 10.92,99.60 11.43,100.28 11.94,100.96 12.78,101.65 13.62,102.34 14.76,103.04 15.90,103.75 17.23,104.45 18.55,105.14 20.03,105.86 21.50,106.59 23.08,107.32 24.66,108.05 26.12,108.69 27.57,109.34 28.82,109.89 30.06,110.43 31.23,110.98 32.40,111.53 33.50,112.11 34.60,112.69 35.56,113.24 36.51,113.78 37.27,114.31 38.03,114.84 38.60,115.45 39.17,116.05 39.58,116.73 39.98,117.41 40.23,118.14 40.47,118.88 40.61,119.70 40.74,120.53 40.63,121.46 40.51,122.38 39.95,123.49 39.38,124.60 38.32,125.91 37.25,127.23 35.21,129.19 33.18,131.16 31.62,132.58 30.07,133.99 27.85,135.84 25.63,137.68 23.95,139.05 22.28,140.42 20.71,141.67 19.15,142.92 17.58,144.18 16.00,145.44 14.35,146.81 12.70,148.18 11.43,149.33 10.16,150.48 8.96,151.62 7.76,152.76 6.61,153.93 5.46,155.10 4.65,156.13 3.84,157.16 3.21,158.16 2.59,159.17 2.11,160.13 1.63,161.10 1.29,162.04 0.94,162.98 0.73,163.86 0.52,164.74 0.40,165.52 0.28,166.29 0.22,167.04 0.16,167.79 0.18,168.56 0.20,169.34 0.43,170.06 0.65,170.79 1.15,171.45 1.65,172.12 2.43,172.80 3.22,173.48 4.24,174.23 5.26,174.99 6.45,175.78 7.65,176.58 8.99,177.42 10.34,178.26 11.82,179.20 13.30,180.14 14.81,181.21 16.33,182.27 17.77,183.43 19.22,184.59 20.62,185.95 22.03,187.31 23.31,188.83 24.59,190.34 25.61,191.87 26.64,193.40 27.42,194.95 28.20,196.50 28.77,198.09 29.33,199.69 29.80,201.94 30.27,204.19 30.53,205.83 30.79,207.48 30.94,209.27 31.08,211.05 31.03,212.92 30.97,214.78 30.63,216.61 30.28,218.45 29.68,220.30 29.07,222.14 28.33,223.92 27.58,225.70 26.90,227.16 26.22,228.62 25.49,229.93 24.77,231.24 24.01,232.54 23.25,233.84 22.63,234.93 22.00,236.02 21.52,236.89 21.03,237.77 20.69,238.48 20.35,239.18 20.14,239.78 19.93,240.37 19.82,240.87 19.71,241.36 19.76,241.81 19.81,242.26 20.25,242.73 20.70,243.21 21.58,243.73 22.47,244.24 23.74,244.80 25.02,245.36 26.65,245.95 28.29,246.55 29.98,247.12 31.68,247.70 33.24,248.23 34.80,248.75 36.27,249.28 37.74,249.81 39.14,250.35 40.54,250.89 41.81,251.45 43.08,252.01 44.10,252.57 45.13,253.13 45.91,253.62 46.69,254.11 47.25,254.48 47.81,254.85 48.15,255.08 48.50,255.31 48.69,255.47 48.89,255.63 48.97,255.84 49.06,256.06 48.99,256.53 48.93,257.01 48.64,257.82 48.35,258.63 47.86,259.72 47.36,260.81 46.65,262.09 45.95,263.37 45.07,264.79 44.19,266.21 43.18,267.79 42.17,269.37 40.96,271.13 39.75,272.89 38.41,274.73 37.08,276.57 35.76,278.32 34.45,280.06 33.18,281.66 31.90,283.27 30.69,284.78 29.48,286.29 28.62,287.36 27.75,288.43 26.78,289.63 25.80,290.83 25.16,291.66 24.52,292.50 24.03,293.26 23.54,294.02 23.20,294.69 22.87,295.37 22.65,295.99 22.43,296.62 22.31,297.22 22.19,297.82 22.13,298.41 22.06,299.00 22.19,299.55 22.33,300.10 22.75,300.68 23.16,301.25 23.72,301.88 24.29,302.50 24.99,303.14 25.69,303.79 26.43,304.42 27.17,305.05 27.82,305.68 28.48,306.31 29.08,306.97 29.68,307.62 30.20,308.32 30.73,309.01 31.17,309.81 31.61,310.61 31.93,311.54 32.24,312.48 32.43,313.57 32.62,314.66 32.53,316.08 32.44,317.50 31.79,319.34 31.15,321.19 29.88,323.41 28.62,325.62 26.83,328.12 25.04,330.63 23.08,333.11 21.12,335.59 19.18,337.93 17.23,340.26 15.44,342.40 13.65,344.54 12.09,346.43 10.53,348.31 9.16,349.96 7.79,351.60 6.67,352.97 5.55,354.35 4.70,355.50 3.86,356.65 3.32,357.68 2.78,358.71 2.47,359.65 2.17,360.59 2.19,361.44 2.22,362.30 2.73,363.02 3.24,363.74 4.30,364.51 5.36,365.28 6.69,365.96 8.03,366.65 9.72,367.35 11.40,368.06 13.28,368.84 15.16,369.61 16.94,370.34 18.73,371.07 20.33,371.77 21.93,372.46 23.43,373.13 24.93,373.80 26.34,374.51 27.74,375.22 28.98,376.02 30.21,376.83 31.10,377.66 31.99,378.50 32.52,379.41 33.06,380.32 33.33,381.39 33.61,382.47 33.60,383.77 33.60,385.07 33.19,386.62 32.78,388.16 32.07,389.76 31.36,391.36 30.58,392.83 29.81,394.30 29.01,395.72 28.21,397.13 27.41,398.54 26.61,399.95 25.91,401.27 25.22,402.59 24.66,403.87 24.10,405.15 23.68,406.43 23.27,407.71 23.01,408.90 22.76,410.09 22.67,411.17 22.59,412.25 22.77,413.24 22.96,414.23 23.48,415.18 24.00,416.13 24.77,417.03 25.54,417.93 26.40,418.70 27.26,419.48 28.09,420.13 28.93,420.78 29.70,421.34 30.48,421.91 31.23,422.48 31.99,423.05 32.66,423.76 33.33,424.48 33.74,425.05 34.14,425.62 34.40,426.28 34.66,426.94 34.80,427.75 34.94,428.56 34.85,429.62 34.77,430.69 34.34,431.91 33.91,433.13 33.35,434.32 32.79,435.51 32.20,436.69 31.60,437.86 30.92,439.13 30.23,440.40 29.54,441.67 28.86,442.94 28.31,444.07 27.75,445.20 27.33,446.19 26.91,447.19 26.64,448.19 26.36,449.19 26.21,450.25 26.05,451.32 25.97,452.39 25.88,453.47 25.84,454.55 25.79,455.63 25.76,456.72 25.74,457.80 25.75,458.87 25.75,459.94 25.82,461.03 25.89,462.11 26.00,463.16 26.12,464.21 26.25,465.13 26.38,466.05 26.52,466.80 26.65,467.56 26.77,468.15 26.88,468.74 27.04,469.63 27.21,470.53 27.21,470.53" fill="none" stroke="none" stroke-width="4" stroke-linejoin="round" stroke-linecap="round" pointer-events="none"/><path d="M 22.26,0.21 Q 22.26,0.21 21.15,0.48 20.04,0.75 18.93,1.31 17.81,1.88 16.66,2.70 15.50,3.51 14.24,4.50 12.97,5.50 11.78,6.54 10.58,7.59 9.58,8.56 8.58,9.53 7.67,10.50 6.76,11.48 5.95,12.44 5.13,13.40 4.49,14.26 3.85,15.13 3.40,15.93 2.95,16.73 2.66,17.57 2.37,18.41 2.21,19.37 2.04,20.32 1.95,21.02 1.86,21.72 1.88,22.51 1.91,23.29 2.13,24.08 2.35,24.87 2.81,25.68 3.27,26.49 3.92,27.38 4.57,28.26 5.38,29.20 6.19,30.14 7.12,31.11 8.06,32.08 9.05,33.01 10.04,33.94 11.22,34.88 12.39,35.81 13.71,36.72 15.03,37.62 16.27,38.42 17.51,39.22 18.61,39.89 19.71,40.55 20.73,41.13 21.74,41.72 22.70,42.30 23.66,42.88 24.56,43.46 25.46,44.05 26.30,44.62 27.15,45.20 27.93,45.78 28.70,46.35 29.40,46.94 30.09,47.53 30.70,48.17 31.31,48.80 31.82,49.46 32.32,50.13 32.72,50.81 33.12,51.49 33.44,52.24 33.76,53.00 34.00,53.90 34.23,54.80 34.37,55.82 34.51,56.83 34.58,57.85 34.66,58.87 34.58,59.88 34.50,60.89 34.06,62.00 33.62,63.11 32.81,64.36 32.00,65.60 30.99,66.88 29.99,68.16 28.81,69.54 27.63,70.92 25.97,72.70 24.31,74.48 23.12,75.77 21.93,77.07 20.75,78.35 19.57,79.63 18.61,80.72 17.64,81.81 16.84,82.77 16.04,83.74 15.29,84.73 14.54,85.73 13.91,86.72 13.27,87.71 12.74,88.66 12.21,89.60 11.81,90.46 11.42,91.33 11.16,92.19 10.91,93.05 10.76,93.89 10.62,94.73 10.55,95.57 10.47,96.41 10.48,97.25 10.49,98.09 10.70,98.85 10.92,99.60 11.43,100.28 11.94,100.96 12.78,101.65 13.62,102.34 14.76,103.04 15.90,103.75 17.23,104.45 18.55,105.14 20.03,105.86 21.50,106.59 23.08,107.32 24.66,108.05 26.12,108.69 27.57,109.34 28.82,109.89 30.06,110.43 31.23,110.98 32.40,111.53 33.50,112.11 34.60,112.69 35.56,113.24 36.51,113.78 37.27,114.31 38.03,114.84 38.60,115.45 39.17,116.05 39.58,116.73 39.98,117.41 40.23,118.14 40.47,118.88 40.61,119.70 40.74,120.53 40.63,121.46 40.51,122.38 39.95,123.49 39.38,124.60 38.32,125.91 37.25,127.23 35.21,129.19 33.18,131.16 31.62,132.58 30.07,133.99 27.85,135.84 25.63,137.68 23.95,139.05 22.28,140.42 20.71,141.67 19.15,142.92 17.58,144.18 16.00,145.44 14.35,146.81 12.70,148.18 11.43,149.33 10.16,150.48 8.96,151.62 7.76,152.76 6.61,153.93 5.46,155.10 4.65,156.13 3.84,157.16 3.21,158.16 2.59,159.17 2.11,160.13 1.63,161.10 1.29,162.04 0.94,162.98 0.73,163.86 0.52,164.74 0.40,165.52 0.28,166.29 0.22,167.04 0.16,167.79 0.18,168.56 0.20,169.34 0.43,170.06 0.65,170.79 1.15,171.45 1.65,172.12 2.43,172.80 3.22,173.48 4.24,174.23 5.26,174.99 6.45,175.78 7.65,176.58 8.99,177.42 10.34,178.26 11.82,179.20 13.30,180.14 14.81,181.21 16.33,182.27 17.77,183.43 19.22,184.59 20.62,185.95 22.03,187.31 23.31,188.83 24.59,190.34 25.61,191.87 26.64,193.40 27.42,194.95 28.20,196.50 28.77,198.09 29.33,199.69 29.80,201.94 30.27,204.19 30.53,205.83 30.79,207.48 30.94,209.27 31.08,211.05 31.03,212.92 30.97,214.78 30.63,216.61 30.28,218.45 29.68,220.30 29.07,222.14 28.33,223.92 27.58,225.70 26.90,227.16 26.22,228.62 25.49,229.93 24.77,231.24 24.01,232.54 23.25,233.84 22.63,234.93 22.00,236.02 21.52,236.89 21.03,237.77 20.69,238.48 20.35,239.18 20.14,239.78 19.93,240.37 19.82,240.87 19.71,241.36 19.76,241.81 19.81,242.26 20.25,242.73 20.70,243.21 21.58,243.73 22.47,244.24 23.74,244.80 25.02,245.36 26.65,245.95 28.29,246.55 29.98,247.12 31.68,247.70 33.24,248.23 34.80,248.75 36.27,249.28 37.74,249.81 39.14,250.35 40.54,250.89 41.81,251.45 43.08,252.01 44.10,252.57 45.13,253.13 45.91,253.62 46.69,254.11 47.25,254.48 47.81,254.85 48.15,255.08 48.50,255.31 48.69,255.47 48.89,255.63 48.97,255.84 49.06,256.06 48.99,256.53 48.93,257.01 48.64,257.82 48.35,258.63 47.86,259.72 47.36,260.81 46.65,262.09 45.95,263.37 45.07,264.79 44.19,266.21 43.18,267.79 42.17,269.37 40.96,271.13 39.75,272.89 38.41,274.73 37.08,276.57 35.76,278.32 34.45,280.06 33.18,281.66 31.90,283.27 30.69,284.78 29.48,286.29 28.62,287.36 27.75,288.43 26.78,289.63 25.80,290.83 25.16,291.66 24.52,292.50 24.03,293.26 23.54,294.02 23.20,294.69 22.87,295.37 22.65,295.99 22.43,296.62 22.31,297.22 22.19,297.82 22.13,298.41 22.06,299.00 22.19,299.55 22.33,300.10 22.75,300.68 23.16,301.25 23.72,301.88 24.29,302.50 24.99,303.14 25.69,303.79 26.43,304.42 27.17,305.05 27.82,305.68 28.48,306.31 29.08,306.97 29.68,307.62 30.20,308.32 30.73,309.01 31.17,309.81 31.61,310.61 31.93,311.54 32.24,312.48 32.43,313.57 32.62,314.66 32.53,316.08 32.44,317.50 31.79,319.34 31.15,321.19 29.88,323.41 28.62,325.62 26.83,328.12 25.04,330.63 23.08,333.11 21.12,335.59 19.18,337.93 17.23,340.26 15.44,342.40 13.65,344.54 12.09,346.43 10.53,348.31 9.16,349.96 7.79,351.60 6.67,352.97 5.55,354.35 4.70,355.50 3.86,356.65 3.32,357.68 2.78,358.71 2.47,359.65 2.17,360.59 2.19,361.44 2.22,362.30 2.73,363.02 3.24,363.74 4.30,364.51 5.36,365.28 6.69,365.96 8.03,366.65 9.72,367.35 11.40,368.06 13.28,368.84 15.16,369.61 16.94,370.34 18.73,371.07 20.33,371.77 21.93,372.46 23.43,373.13 24.93,373.80 26.34,374.51 27.74,375.22 28.98,376.02 30.21,376.83 31.10,377.66 31.99,378.50 32.52,379.41 33.06,380.32 33.33,381.39 33.61,382.47 33.60,383.77 33.60,385.07 33.19,386.62 32.78,388.16 32.07,389.76 31.36,391.36 30.58,392.83 29.81,394.30 29.01,395.72 28.21,397.13 27.41,398.54 26.61,399.95 25.91,401.27 25.22,402.59 24.66,403.87 24.10,405.15 23.68,406.43 23.27,407.71 23.01,408.90 22.76,410.09 22.67,411.17 22.59,412.25 22.77,413.24 22.96,414.23 23.48,415.18 24.00,416.13 24.77,417.03 25.54,417.93 26.40,418.70 27.26,419.48 28.09,420.13 28.93,420.78 29.70,421.34 30.48,421.91 31.23,422.48 31.99,423.05 32.66,423.76 33.33,424.48 33.74,425.05 34.14,425.62 34.40,426.28 34.66,426.94 34.80,427.75 34.94,428.56 34.85,429.62 34.77,430.69 34.34,431.91 33.91,433.13 33.35,434.32 32.79,435.51 32.20,436.69 31.60,437.86 30.92,439.13 30.23,440.40 29.54,441.67 28.86,442.94 28.31,444.07 27.75,445.20 27.33,446.19 26.91,447.19 26.64,448.19 26.36,449.19 26.21,450.25 26.05,451.32 25.97,452.39 25.88,453.47 25.84,454.55 25.79,455.63 25.76,456.72 25.74,457.80 25.75,458.87 25.75,459.94 25.82,461.03 25.89,462.11 26.00,463.16 26.12,464.21 26.25,465.13 26.38,466.05 26.52,466.80 26.65,467.56 26.77,468.15 26.88,468.74 27.04,469.63 27.21,470.53 27.21,470.53" fill="none" stroke="#717d8a" stroke-width="4" stroke-dasharray="0.1 8" stroke-dashoffset="0" stroke-linejoin="round" stroke-linecap="round" pointer-events="none"/></g></g><g text-align="left" text-anchor="start" fill="#cecece" transform="translate(932.79, 78.53) rotate(0.00, 116.00, 32.50)"><text y="14" letter-spacing="-0.84" font-size="28px" font-family="Caveat Brush" text-align="left" alignment-baseline="central" transform="scale(1.956587563795696)">static server</text></g><g id="fd8d6fee-628b-407a-13a5-7785ababc855_svg" class="tl-centered-g" transform="translate(533.94, 188.71) rotate(0.00, 154.92, 14.13)"><defs><mask id="fd8d6fee-628b-407a-13a5-7785ababc855_clip"><rect x="-100" y="-100" width="509.83" height="228.26" fill="white"/><rect x="154.04" y="0.44" width="0" height="0" rx="4" ry="4" fill="black" opacity="1"/></mask></defs><g pointer-events="none" opacity="1" mask=""><path d="M 326.06,22.58 Q 326.06,22.58 323.24,22.23 320.43,21.87 317.85,21.21 315.28,20.55 311.41,19.60 307.54,18.65 302.13,17.42 296.72,16.20 289.47,14.72 282.23,13.24 272.89,11.63 263.54,10.02 251.80,8.45 240.07,6.88 225.66,5.63 211.24,4.39 193.91,3.87 176.57,3.35 156.91,4.05 137.25,4.75 120.01,6.50 102.76,8.24 88.50,10.51 74.23,12.78 62.65,15.17 51.07,17.57 41.87,19.84 32.67,22.11 25.57,24.09 18.47,26.07 13.16,27.68 7.85,29.28 4.08,30.50 0.30,31.72 -2.21,32.56 -4.73,33.41 -7.44,34.34 -10.14,35.27 -10.68,35.34 -11.22,35.41 -11.76,35.31 -12.29,35.21 -12.77,34.94 -13.24,34.67 -13.61,34.26 -13.97,33.85 -14.19,33.35 -14.40,32.85 -14.44,32.30 -14.48,31.76 -14.35,31.23 -14.22,30.70 -13.92,30.24 -13.63,29.78 -13.20,29.44 -12.77,29.10 -12.26,28.91 -11.75,28.73 -11.20,28.71 -10.66,28.70 -10.13,28.86 -9.61,29.02 -9.17,29.34 -8.73,29.66 -8.41,30.11 -8.09,30.55 -7.94,31.07 -7.78,31.60 -7.79,32.14 -7.81,32.69 -8.00,33.20 -8.19,33.71 -8.53,34.14 -8.88,34.56 -9.34,34.85 -9.80,35.15 -10.33,35.28 -10.86,35.41 -11.40,35.36 -11.95,35.31 -12.45,35.10 -12.95,34.88 -13.35,34.51 -13.76,34.15 -14.03,33.67 -14.29,33.20 -14.39,32.66 -14.50,32.12 -14.42,31.58 -14.35,31.04 -14.10,30.55 -13.86,30.06 -13.47,29.68 -13.08,29.29 -12.59,29.05 -12.10,28.81 -12.10,28.81 -12.10,28.81 -9.49,27.91 -6.88,27.00 -4.32,26.15 -1.76,25.29 2.06,24.06 5.90,22.83 11.28,21.19 16.66,19.56 23.86,17.56 31.06,15.56 40.38,13.26 49.70,10.96 61.44,8.54 73.18,6.11 87.63,3.82 102.09,1.53 119.55,-0.23 137.02,-1.99 156.90,-2.69 176.78,-3.39 194.30,-2.86 211.83,-2.33 226.39,-1.06 240.96,0.19 252.83,1.78 264.69,3.37 274.13,5.00 283.58,6.63 290.90,8.12 298.21,9.61 303.68,10.86 309.15,12.10 313.05,13.06 316.95,14.02 319.57,14.69 322.18,15.36 324.80,16.46 327.41,17.57 327.70,17.68 327.99,17.80 328.24,17.98 328.50,18.17 328.70,18.41 328.90,18.64 329.04,18.93 329.18,19.21 329.25,19.51 329.32,19.82 329.31,20.13 329.31,20.44 329.22,20.74 329.14,21.05 328.99,21.32 328.84,21.59 328.63,21.82 328.42,22.05 328.15,22.23 327.89,22.40 327.60,22.50 327.30,22.61 326.99,22.64 326.68,22.67 326.37,22.63 Z" fill="#36a64c" stroke="#36a64c" stroke-width="0" stroke-dasharray="none" stroke-dashoffset="none" stroke-linecap="round" stroke-linejoin="round" pointer-events="none"/><g><path d="M 11.00,39.27826839900468 L -16.49,33.96 1.86,12.81184506514034" fill="none" stroke="#36a64c" stroke-width="6.66" stroke-linecap="round" stroke-linejoin="round" pointer-events="none"/></g></g></g><g text-align="left" text-anchor="start" fill="#cecece" transform="translate(877.17, 169.87) rotate(0.00, 86.50, 29.00)"><text y="24" letter-spacing="-1.44" font-size="48px" font-family="Caveat Brush" text-align="left" alignment-baseline="central" transform="translate(0, 0)">index.html</text></g><g text-align="center" text-anchor="middle" fill="#ebbb38" transform="translate(281.44, 198.42) rotate(0.00, 103.50, 29.00)"><text y="24" letter-spacing="-1.44" font-size="48px" font-family="Caveat Brush" text-align="center" alignment-baseline="central" transform="translate(0, 0)" x="103.5">&lt;div&gt;&lt;/div&gt;</text></g></svg>