<svg xmlns="http://www.w3.org/2000/svg" viewBox="0 0 1504 688" width="1504" height="688" style="background-color: transparent;"><defs><style>@import url('https://fonts.googleapis.com/css2?family=Caveat+Brush&amp;family=Source+Code+Pro&amp;family=Source+Sans+Pro&amp;family=Crimson+Pro&amp;display=block');</style></defs><g id="0f0c0cbb-1133-4c69-22f3-a3d513e9aeac_svg" class="tl-centered-g" transform="translate(16.00, 16.00) rotate(0.00, 736.00, 328.00)"><g pointer-events="none" stroke="transparent" stroke-width="4.23" stroke-linecap="round"><line x1="2.11" y1="2.11" x2="1469.88" y2="2.11" stroke-dasharray="0.03 6.46" stroke-dashoffset="0"/><line x1="1469.88" y1="2.11" x2="1469.88" y2="653.88" stroke-dasharray="0.03 6.48" stroke-dashoffset="0"/><line x1="1469.88" y1="653.88" x2="2.11" y2="653.88" stroke-dasharray="0.03 6.46" stroke-dashoffset="0"/><line x1="2.11" y1="653.88" x2="2.11" y2="2.11" stroke-dasharray="0.03 6.48" stroke-dashoffset="0"/></g></g><g id="9535ff23-b647-493b-1b26-b6caa66949dd_svg" class="tl-centered-g" transform="translate(267.76, 137.91) rotate(0.00, 182.85, 159.67)"><path d="M-0.402,228.696Q-0.402,228.696 -0.379,222.305 -0.356,215.914 -0.336,207.893 -0.316,199.872 -0.298,191.435 -0.279,182.998 -0.260,174.456 -0.241,165.913 -0.295,157.343 -0.348,148.774 -0.402,140.198 -0.456,131.621 -0.509,123.043 -0.563,114.465 -0.616,105.886 -0.670,97.308 -0.724,88.729 -0.777,80.150 -0.831,71.572 -0.884,62.993 -0.938,54.414 -0.992,45.835 -1.045,37.257 -1.099,28.678 -1.148,20.076 -1.197,11.475 0.66,7.255 2.53,3.035 9.56,1.873 16.58,0.711 24.69,0.494 32.80,0.276 41.19,0.244 49.57,0.212 58.02,0.226 66.47,0.239 74.95,0.264 83.42,0.290 91.90,0.318 100.37,0.346 108.85,0.375 117.33,0.404 125.81,0.433 134.29,0.462 142.77,0.491 151.25,0.520 159.72,0.549 168.20,0.579 176.68,0.577 185.16,0.575 193.64,0.542 202.12,0.509 210.60,0.477 219.08,0.444 227.56,0.411 236.04,0.378 244.52,0.346 252.99,0.313 261.47,0.280 269.95,0.247 278.43,0.215 286.91,0.182 295.39,0.149 303.87,0.116 312.35,0.084 320.83,0.051 329.31,0.018 337.78,-0.015 346.29,-0.043 354.79,-0.071 358.98,1.798 363.17,3.667 364.34,10.755 365.50,17.842 365.73,26.025 365.96,34.208 366.00,42.665 366.05,51.123 366.05,59.654 366.05,68.186 366.03,76.737 366.02,85.288 366.01,93.844 365.99,102.400 365.98,110.957 365.96,119.514 365.94,128.072 365.93,136.629 365.91,145.187 365.90,153.744 365.95,162.302 366.01,170.859 366.06,179.417 366.12,187.974 366.18,196.532 366.23,205.089 366.29,213.647 366.35,222.204 366.40,230.762 366.46,239.319 366.51,247.877 366.57,256.434 366.63,264.992 366.68,273.549 366.74,282.107 366.79,290.664 366.85,299.245 366.90,307.825 365.03,312.039 363.17,316.252 356.14,317.427 349.12,318.602 341.00,318.836 332.89,319.070 324.51,319.120 316.12,319.170 307.67,319.175 299.21,319.179 290.74,319.172 282.26,319.165 273.78,319.156 265.30,319.146 256.82,319.135 248.34,319.124 239.86,319.113 231.38,319.102 222.90,319.092 214.42,319.081 205.94,319.070 197.45,319.059 188.97,319.079 180.49,319.099 172.01,319.150 163.53,319.201 155.05,319.252 146.57,319.303 138.09,319.354 129.60,319.405 121.12,319.456 112.64,319.507 104.16,319.557 95.68,319.608 87.20,319.659 78.72,319.710 70.24,319.761 61.75,319.812 53.27,319.863 44.79,319.914 36.31,319.965 27.83,320.016 19.32,320.063 10.82,320.109 6.63,318.243 2.43,316.378 1.27,309.277 0.11,302.176 -0.114,293.973 -0.339,285.771 -0.381,277.292 -0.423,268.814 -0.420,260.261 -0.417,251.709 -0.402,243.137 -0.388,234.564 -0.370,225.987 -0.352,217.410 -0.334,208.832 -0.316,200.253 -0.297,191.674 -0.278,183.096 -0.260,174.517 -0.241,165.938 -0.295,157.359 -0.348,148.780 -0.408,137.265 -0.468,125.750 -0.438,125.567 -0.408,125.384 -0.322,125.221 -0.236,125.057 -0.101,124.929 0.03,124.802 0.20,124.724 0.36,124.646 0.55,124.625 0.73,124.605 0.91,124.644 1.09,124.684 1.25,124.779 1.41,124.874 1.53,125.015 1.65,125.156 1.72,125.328 1.79,125.500 1.80,125.684 1.81,125.869 1.76,126.048 1.71,126.226 1.61,126.380 1.50,126.533 1.36,126.645 1.21,126.758 1.04,126.817 0.86,126.877 0.67,126.877 0.49,126.877 0.31,126.819 0.14,126.760 -0.005,126.648 -0.153,126.536 -0.257,126.383 -0.361,126.230 -0.411,126.052 -0.461,125.874 -0.451,125.689 -0.441,125.504 -0.373,125.332 -0.305,125.159 -0.185,125.018 -0.066,124.877 0.09,124.781 0.25,124.685 0.43,124.645 0.61,124.605 0.79,124.625 0.98,124.644 1.14,124.722 1.31,124.799 1.45,124.926 1.58,125.054 1.67,125.217 1.76,125.380 1.79,125.563 1.82,125.746 1.82,125.746 1.82,125.745 1.80,137.261 1.79,148.776 1.77,157.355 1.75,165.934 1.81,174.512 1.86,183.091 1.92,191.670 1.97,200.248 2.02,208.827 2.08,217.405 2.13,225.981 2.19,234.558 2.24,243.128 2.30,251.698 2.37,260.243 2.44,268.788 2.55,277.232 2.67,285.676 2.95,293.709 3.23,301.742 3.96,308.180 4.68,314.619 7.80,315.723 10.91,316.827 19.36,316.834 27.82,316.840 36.30,316.851 44.78,316.862 53.27,316.873 61.75,316.884 70.23,316.895 78.71,316.906 87.19,316.917 95.67,316.928 104.15,316.938 112.64,316.949 121.12,316.960 129.60,316.971 138.08,316.982 146.56,316.993 155.04,317.004 163.52,317.015 172.00,317.026 180.49,317.037 188.97,317.017 197.45,316.997 205.93,316.946 214.41,316.895 222.89,316.844 231.37,316.793 239.85,316.742 248.34,316.691 256.82,316.640 265.30,316.588 273.78,316.536 282.26,316.485 290.73,316.430 299.20,316.375 307.65,316.308 316.10,316.242 324.44,316.131 332.79,316.020 340.73,315.739 348.67,315.458 355.04,314.730 361.40,314.003 362.51,310.872 363.62,307.741 363.63,299.206 363.64,290.672 363.66,282.114 363.67,273.556 363.69,264.999 363.70,256.441 363.72,247.883 363.74,239.326 363.75,230.768 363.77,222.210 363.78,213.653 363.80,205.095 363.82,196.537 363.83,187.980 363.85,179.422 363.86,170.864 363.88,162.307 363.90,153.749 363.84,145.192 363.78,136.634 363.73,128.077 363.67,119.520 363.61,110.963 363.56,102.406 363.50,93.850 363.44,85.295 363.38,76.746 363.32,68.197 363.25,59.673 363.18,51.150 363.06,42.726 362.95,34.303 362.66,26.290 362.38,18.277 361.65,11.854 360.92,5.431 357.81,4.321 354.70,3.211 346.24,3.186 337.79,3.162 329.31,3.132 320.83,3.103 312.35,3.074 303.87,3.045 295.39,3.016 286.91,2.987 278.43,2.958 269.95,2.928 261.47,2.899 253.00,2.870 244.52,2.841 236.04,2.812 227.56,2.783 219.08,2.753 210.60,2.724 202.12,2.695 193.64,2.666 185.16,2.637 176.68,2.639 168.20,2.640 159.73,2.673 151.25,2.706 142.77,2.739 134.29,2.771 125.81,2.804 117.33,2.837 108.85,2.870 100.37,2.903 91.90,2.937 83.42,2.971 74.95,3.007 66.48,3.044 58.03,3.092 49.59,3.141 41.24,3.234 32.90,3.327 24.96,3.592 17.02,3.856 10.66,4.572 4.29,5.288 3.19,8.424 2.08,11.559 2.07,20.115 2.05,28.671 2.03,37.250 2.02,45.829 2.00,54.408 1.98,62.987 1.96,71.566 1.94,80.145 1.92,88.724 1.90,97.302 1.88,105.881 1.87,114.460 1.85,123.038 1.83,131.617 1.81,140.193 1.79,148.770 1.77,157.339 1.75,165.909 1.81,174.451 1.86,182.994 1.91,191.430 1.97,199.867 2.02,207.888 2.07,215.909 2.12,222.300 2.17,228.691 2.15,228.845 2.13,228.999 2.08,229.145 2.02,229.290 1.94,229.418 1.85,229.546 1.73,229.650 1.62,229.753 1.48,229.825 1.34,229.898 1.19,229.935 1.04,229.973 0.88,229.973 0.73,229.973 0.58,229.937 0.43,229.900 0.29,229.828 0.15,229.756 0.04,229.653 -0.076,229.550 -0.165,229.422 -0.253,229.295 -0.309,229.150 -0.364,229.004 -0.383,228.850 Z" fill="#cecece" stroke="#cecece" stroke-width="2" pointer-events="none"/></g><g id="31353079-80da-4a9e-3d2a-a3488a242dd8_svg" class="tl-centered-g" transform="translate(275.14, 146.49) rotate(0.00, 174.19, 20.79)"><path d="M89.561,-0.439Q89.561,-0.439 95.87,-0.413 102.18,-0.388 110.09,-0.364 118.01,-0.340 126.34,-0.317 134.67,-0.293 143.10,-0.270 151.54,-0.247 160.00,-0.223 168.46,-0.200 176.92,-0.242 185.39,-0.284 193.86,-0.326 202.33,-0.367 210.79,-0.409 219.26,-0.451 227.73,-0.493 236.20,-0.535 244.67,-0.576 253.14,-0.618 261.61,-0.660 270.08,-0.702 278.55,-0.744 287.02,-0.785 295.48,-0.827 303.95,-0.869 312.42,-0.911 320.89,-0.953 329.38,-0.990 337.88,-1.027 341.94,0.637 346.00,2.301 347.18,4.776 348.35,7.251 348.57,9.747 348.78,12.243 348.76,14.615 348.74,16.986 348.77,19.327 348.80,21.667 348.91,24.002 349.02,26.336 349.12,28.670 349.23,31.003 349.31,33.428 349.38,35.852 347.55,38.453 345.72,41.053 338.64,41.751 331.56,42.449 323.49,42.527 315.42,42.605 307.06,42.579 298.69,42.553 290.25,42.500 281.80,42.447 273.34,42.388 264.87,42.329 256.40,42.268 247.93,42.207 239.46,42.146 230.99,42.084 222.52,42.023 214.05,41.961 205.57,41.900 197.10,41.838 188.63,41.777 180.16,41.715 171.69,41.719 163.22,41.722 154.74,41.725 146.27,41.729 137.80,41.732 129.33,41.736 120.86,41.739 112.38,41.743 103.91,41.746 95.44,41.750 86.97,41.753 78.50,41.757 70.03,41.760 61.55,41.764 53.08,41.767 44.61,41.771 36.14,41.774 27.67,41.777 19.17,41.776 10.68,41.775 6.62,40.108 2.57,38.440 1.39,36.045 0.22,33.650 0.01,31.249 -0.190,28.849 -0.165,26.583 -0.141,24.317 -0.161,22.085 -0.181,19.853 -0.282,17.627 -0.383,15.402 -0.481,13.177 -0.579,10.953 -0.647,8.636 -0.714,6.320 1.11,3.751 2.94,1.182 10.02,0.463 17.10,-0.255 25.17,-0.368 33.23,-0.480 41.59,-0.491 49.96,-0.502 58.40,-0.487 66.84,-0.473 75.30,-0.452 83.76,-0.431 92.23,-0.408 100.70,-0.386 109.17,-0.362 117.64,-0.339 126.10,-0.316 134.57,-0.293 143.04,-0.270 151.51,-0.247 159.98,-0.223 168.45,-0.200 176.92,-0.242 185.39,-0.284 196.76,-0.329 208.12,-0.374 208.30,-0.344 208.48,-0.315 208.65,-0.230 208.81,-0.144 208.93,-0.012 209.06,0.121 209.14,0.287 209.21,0.453 209.23,0.634 209.25,0.816 209.21,0.995 209.17,1.173 209.08,1.330 208.99,1.487 208.85,1.605 208.71,1.724 208.54,1.792 208.37,1.860 208.19,1.870 208.00,1.880 207.83,1.831 207.65,1.782 207.50,1.680 207.35,1.577 207.24,1.432 207.13,1.286 207.07,1.113 207.01,0.940 207.01,0.757 207.01,0.574 207.07,0.401 207.13,0.228 207.24,0.082 207.35,-0.063 207.50,-0.166 207.65,-0.269 207.82,-0.318 208.00,-0.367 208.18,-0.357 208.37,-0.348 208.54,-0.280 208.71,-0.213 208.85,-0.094 208.98,0.024 209.08,0.180 209.17,0.337 209.21,0.516 209.25,0.694 209.23,0.876 209.21,1.058 209.14,1.224 209.06,1.390 208.93,1.522 208.81,1.655 208.65,1.741 208.49,1.827 208.31,1.856 208.13,1.886 208.13,1.886 208.13,1.886 196.76,1.866 185.39,1.846 176.92,1.823 168.45,1.800 159.98,1.842 151.51,1.883 143.04,1.925 134.58,1.967 126.11,2.009 117.64,2.051 109.17,2.093 100.70,2.134 92.23,2.177 83.77,2.219 75.31,2.263 66.85,2.307 58.41,2.358 49.97,2.408 41.63,2.484 33.28,2.559 25.32,2.732 17.35,2.905 11.06,3.249 4.76,3.593 3.61,5.138 2.46,6.684 2.40,8.815 2.34,10.946 2.26,13.169 2.17,15.392 2.09,17.613 2.00,19.834 2.02,22.043 2.04,24.253 2.19,26.411 2.35,28.568 2.62,30.522 2.90,32.475 3.59,34.157 4.29,35.839 7.53,37.166 10.78,38.494 19.23,38.551 27.68,38.607 36.15,38.669 44.62,38.731 53.09,38.792 61.56,38.854 70.04,38.915 78.51,38.977 86.98,39.038 95.45,39.100 103.92,39.161 112.39,39.223 120.87,39.284 129.34,39.346 137.81,39.407 146.28,39.469 154.75,39.530 163.22,39.592 171.70,39.654 180.17,39.715 188.64,39.712 197.11,39.708 205.58,39.705 214.05,39.701 222.53,39.698 231.00,39.694 239.47,39.691 247.94,39.687 256.41,39.683 264.88,39.679 273.34,39.673 281.81,39.667 290.25,39.655 298.69,39.643 307.03,39.604 315.38,39.566 323.35,39.427 331.32,39.288 337.61,38.966 343.91,38.644 345.05,37.074 346.20,35.505 346.25,33.262 346.30,31.020 346.38,28.687 346.46,26.354 346.54,24.024 346.61,21.693 346.59,19.374 346.56,17.055 346.40,14.787 346.24,12.520 345.95,10.459 345.67,8.398 344.96,6.637 344.26,4.877 341.02,3.566 337.79,2.255 329.34,2.236 320.89,2.217 312.43,2.194 303.96,2.171 295.49,2.148 287.02,2.125 278.55,2.101 270.08,2.078 261.61,2.055 253.14,2.032 244.67,2.009 236.20,1.985 227.74,1.962 219.27,1.939 210.80,1.916 202.33,1.893 193.86,1.869 185.39,1.846 176.92,1.823 168.46,1.800 160.00,1.842 151.54,1.883 143.11,1.925 134.67,1.967 126.34,2.008 118.01,2.050 110.10,2.091 102.18,2.132 95.87,2.172 89.56,2.211 89.40,2.192 89.24,2.173 89.09,2.117 88.94,2.060 88.81,1.970 88.68,1.879 88.57,1.760 88.47,1.640 88.39,1.499 88.32,1.358 88.28,1.202 88.24,1.047 88.24,0.888 88.24,0.728 88.28,0.573 88.32,0.418 88.39,0.276 88.47,0.135 88.57,0.015 88.68,-0.105 88.81,-0.195 88.94,-0.286 89.09,-0.343 89.24,-0.400 89.40,-0.419 Z" fill="#cecece" stroke="#cecece" stroke-width="2" pointer-events="none"/></g><text font-size="27.538391200279698px" font-family="Caveat Brush" font-weight="normal" line-height="27.538391200279698px" letter-spacing="-0.03em" text-align="left" dominant-baseline="mathematical" alignment-baseline="mathematical" text-anchor="start" fill="#cecece" transform="translate(282.12, 148.31) rotate(0.00, 83.00, 19.00)"><tspan y="13.769195600139849px" x="4">site.com/products
</tspan></text><g id="0fb4f33f-ce3b-40cd-2077-24e951786be9_svg" class="tl-centered-g" transform="translate(281.43, 199.84) rotate(0.00, 167.42, 1.01)"><defs><mask id="0fb4f33f-ce3b-40cd-2077-24e951786be9_clip"><rect x="-100" y="-100" width="534.83" height="202.03" fill="white"/><rect x="167.42" y="1.01" width="0" height="0" rx="4" ry="4" fill="black" opacity="1"/></mask></defs><g pointer-events="none" opacity="1" mask=""><path d="M-0.006,1.058Q-0.006,1.058 41.84,0.837 83.70,0.616 125.56,0.387 167.41,0.158 209.27,-0.077 251.12,-0.313 292.98,-0.553 334.83,-0.793 334.96,-0.773 335.08,-0.753 335.20,-0.694 335.31,-0.634 335.40,-0.542 335.49,-0.449 335.54,-0.333 335.60,-0.217 335.61,-0.089 335.63,0.038 335.60,0.164 335.57,0.289 335.51,0.400 335.44,0.510 335.35,0.594 335.25,0.677 335.13,0.725 335.01,0.774 334.88,0.781 334.75,0.789 334.63,0.755 334.51,0.722 334.40,0.651 334.29,0.579 334.22,0.477 334.14,0.376 334.10,0.254 334.05,0.133 334.05,0.005 334.05,-0.124 334.09,-0.246 334.13,-0.367 334.21,-0.470 334.29,-0.573 334.39,-0.645 334.50,-0.718 334.62,-0.753 334.75,-0.788 334.87,-0.782 335.00,-0.776 335.12,-0.729 335.24,-0.682 335.34,-0.600 335.44,-0.517 335.50,-0.407 335.57,-0.298 335.60,-0.173 335.63,-0.048 335.61,0.080 335.60,0.208 335.55,0.325 335.49,0.441 335.41,0.535 335.32,0.629 335.21,0.689 335.09,0.750 334.97,0.772 334.84,0.793 334.84,0.793 334.84,0.793 292.99,1.060 251.13,1.328 209.28,1.600 167.42,1.872 125.57,2.150 83.71,2.429 41.86,2.716 0.00,3.002 -0.111,2.989 -0.227,2.976 -0.337,2.935 -0.447,2.894 -0.544,2.828 -0.640,2.762 -0.719,2.675 -0.797,2.587 -0.852,2.484 -0.907,2.380 -0.936,2.267 -0.965,2.153 -0.965,2.036 -0.966,1.919 -0.939,1.805 -0.911,1.691 -0.858,1.586 -0.804,1.482 -0.726,1.394 -0.649,1.306 -0.553,1.239 -0.457,1.172 -0.348,1.129 -0.238,1.087 -0.122,1.072 Z" fill="#cecece" stroke="#cecece" stroke-width="2.11" stroke-dasharray="none" stroke-dashoffset="none" stroke-linecap="round" stroke-linejoin="round" pointer-events="stroke"/></g></g><text font-size="54.78445178627949px" font-family="Caveat Brush" font-weight="normal" line-height="54.78445178627949px" letter-spacing="-0.03em" text-align="left" dominant-baseline="mathematical" alignment-baseline="mathematical" text-anchor="start" fill="#cecece" transform="translate(394.16, 70.73) rotate(0.00, 55.00, 32.50)"><tspan y="27.392225893139745px" x="4">client
</tspan></text><g id="074ceb46-2ffe-4c79-11be-539cc13009a1_svg" class="tl-centered-g" transform="translate(290.76, 212.55) rotate(0.00, 45.80, 110.36)"><path d="M92.610,93.036Q92.610,93.036 92.50,99.412 92.39,105.789 92.47,113.791 92.55,121.794 92.63,130.211 92.71,138.628 92.79,147.151 92.87,155.674 92.95,164.224 93.03,172.774 93.11,181.331 93.19,189.887 93.24,198.529 93.30,207.171 90.25,212.790 87.20,218.408 81.85,219.949 76.50,221.490 71.04,221.669 65.58,221.847 60.18,221.757 54.79,221.666 49.40,221.678 44.01,221.689 38.62,221.847 33.23,222.005 27.83,222.160 22.44,222.315 16.92,222.430 11.40,222.545 6.55,219.400 1.69,216.255 0.35,208.598 -0.989,200.941 -1.162,192.694 -1.336,184.446 -1.304,176.037 -1.271,167.628 -1.189,159.171 -1.107,150.713 -1.013,142.243 -0.918,133.772 -0.820,125.298 -0.723,116.824 -0.814,108.349 -0.905,99.874 -0.995,91.399 -1.086,82.923 -1.177,74.448 -1.268,65.972 -1.358,57.497 -1.449,49.022 -1.540,40.546 -1.630,32.071 -1.700,23.511 -1.769,14.951 1.26,9.364 4.28,3.778 9.64,2.131 15.00,0.483 20.47,0.168 25.95,-0.148 31.37,-0.200 36.79,-0.251 42.20,-0.405 47.61,-0.559 53.01,-0.861 58.42,-1.162 63.83,-1.460 69.23,-1.758 74.78,-2.015 80.33,-2.271 85.22,0.839 90.10,3.950 91.44,11.659 92.77,19.367 92.94,27.689 93.10,36.011 93.06,44.502 93.01,52.992 92.92,61.532 92.83,70.073 92.72,78.627 92.61,87.181 92.50,95.738 92.39,104.296 92.47,112.854 92.55,121.413 92.63,132.902 92.70,144.390 92.64,144.730 92.59,145.070 92.43,145.374 92.26,145.678 92.01,145.914 91.76,146.151 91.45,146.295 91.14,146.439 90.79,146.476 90.45,146.512 90.12,146.437 89.78,146.363 89.48,146.185 89.19,146.006 88.97,145.744 88.75,145.481 88.62,145.160 88.49,144.840 88.47,144.496 88.46,144.152 88.55,143.820 88.64,143.489 88.83,143.204 89.03,142.919 89.30,142.711 89.58,142.503 89.90,142.394 90.23,142.285 90.58,142.285 90.92,142.286 91.25,142.397 91.57,142.507 91.85,142.716 92.12,142.925 92.31,143.211 92.51,143.496 92.60,143.828 92.69,144.160 92.67,144.504 92.65,144.848 92.52,145.168 92.39,145.488 92.17,145.750 91.95,146.012 91.65,146.189 91.36,146.366 91.02,146.439 90.68,146.513 90.34,146.475 90.00,146.437 89.69,146.291 89.37,146.146 89.12,145.909 88.87,145.671 88.71,145.367 88.55,145.062 88.50,144.722 88.44,144.382 88.44,144.382 88.44,144.382 88.56,132.894 88.67,121.406 88.78,112.848 88.89,104.290 88.81,95.732 88.73,87.175 88.65,78.624 88.57,70.073 88.47,61.546 88.38,53.020 88.23,44.590 88.09,36.161 87.76,28.144 87.43,20.127 86.76,13.770 86.08,7.413 82.99,5.378 79.91,3.342 74.63,3.354 69.36,3.366 63.95,3.338 58.54,3.311 53.13,3.288 47.72,3.264 42.33,3.418 36.94,3.571 31.63,3.941 26.32,4.311 21.34,4.866 16.36,5.421 12.33,6.406 8.29,7.390 6.10,11.341 3.92,15.292 3.84,23.683 3.76,32.073 3.66,40.549 3.56,49.024 3.46,57.499 3.37,65.975 3.27,74.450 3.17,82.925 3.07,91.400 2.97,99.876 2.87,108.350 2.77,116.825 2.86,125.299 2.96,133.772 3.05,142.239 3.15,150.707 3.25,159.151 3.36,167.594 3.52,175.941 3.67,184.288 4.01,192.229 4.35,200.170 5.03,206.472 5.71,212.775 8.82,214.849 11.93,216.924 17.19,217.057 22.45,217.190 27.84,217.360 33.23,217.530 38.61,217.697 44.00,217.864 49.37,217.853 54.74,217.842 60.03,217.611 65.32,217.380 70.28,216.953 75.24,216.526 79.25,215.638 83.27,214.750 85.44,210.789 87.61,206.827 87.70,198.352 87.79,189.878 87.90,181.321 88.01,172.765 88.12,164.215 88.23,155.666 88.34,147.143 88.45,138.620 88.56,130.204 88.67,121.787 88.78,113.785 88.89,105.782 88.81,99.406 88.73,93.029 88.75,92.797 88.78,92.565 88.87,92.347 88.95,92.128 89.08,91.936 89.22,91.744 89.39,91.589 89.57,91.434 89.77,91.326 89.98,91.218 90.21,91.162 90.44,91.107 90.67,91.107 90.90,91.108 91.13,91.164 91.36,91.220 91.56,91.329 91.77,91.439 91.95,91.594 92.12,91.749 92.25,91.942 92.38,92.135 92.47,92.353 92.55,92.572 92.58,92.804 Z" fill="#36a64c" stroke="#36a64c" stroke-width="3.5" pointer-events="none"/></g><g id="7df60573-77b7-40de-0a3d-0d0e4d0c8c73_svg" class="tl-centered-g" transform="translate(404.60, 212.09) rotate(0.00, 99.75, 110.79)"><path d="M-0.316,127.781Q-0.316,127.781 -0.207,121.461 -0.098,115.142 -0.175,107.210 -0.252,99.279 -0.328,90.936 -0.403,82.594 -0.479,74.147 -0.555,65.700 -0.631,57.226 -0.706,48.752 -0.782,40.271 -0.858,31.791 -0.912,23.224 -0.966,14.658 2.17,9.015 5.30,3.372 12.75,1.746 20.20,0.120 28.24,-0.172 36.28,-0.465 44.45,-0.510 52.62,-0.555 60.83,-0.540 69.04,-0.526 77.26,-0.496 85.48,-0.467 93.70,-0.537 101.92,-0.608 110.15,-0.780 118.37,-0.953 126.59,-1.126 134.81,-1.298 143.04,-1.471 151.26,-1.643 159.48,-1.815 167.70,-1.988 176.02,-2.137 184.33,-2.287 189.92,0.838 195.52,3.963 197.12,11.653 198.71,19.344 198.99,27.693 199.26,36.041 199.30,44.537 199.33,53.034 199.30,61.576 199.28,70.118 199.24,78.673 199.20,87.228 199.15,95.786 199.11,104.344 199.25,112.902 199.39,121.459 199.54,130.017 199.68,138.575 199.83,147.134 199.97,155.692 200.11,164.250 200.26,172.808 200.40,181.366 200.54,189.924 200.67,198.568 200.79,207.213 197.66,212.890 194.52,218.567 187.03,220.133 179.53,221.700 171.42,221.914 163.31,222.129 155.07,222.092 146.83,222.055 138.54,221.959 130.26,221.862 121.97,221.750 113.67,221.638 105.38,221.625 97.08,221.613 88.78,221.703 80.49,221.793 72.19,221.883 63.89,221.972 55.59,222.062 47.29,222.152 39.00,222.241 30.70,222.331 22.31,222.398 13.93,222.466 8.32,219.313 2.72,216.160 1.17,208.520 -0.375,200.880 -0.587,192.598 -0.800,184.317 -0.765,175.895 -0.731,167.473 -0.637,159.007 -0.543,150.541 -0.434,142.063 -0.326,133.585 -0.213,125.103 -0.100,116.622 -0.176,108.139 -0.252,99.656 -0.321,88.270 -0.391,76.883 -0.334,76.544 -0.278,76.204 -0.116,75.900 0.04,75.596 0.29,75.359 0.54,75.123 0.86,74.979 1.17,74.835 1.51,74.799 1.85,74.762 2.19,74.837 2.53,74.912 2.82,75.090 3.12,75.269 3.34,75.532 3.56,75.795 3.69,76.115 3.81,76.435 3.83,76.779 3.85,77.123 3.76,77.455 3.66,77.787 3.47,78.071 3.28,78.356 3.00,78.564 2.73,78.772 2.40,78.881 2.07,78.990 1.73,78.989 1.38,78.988 1.06,78.878 0.73,78.767 0.46,78.558 0.18,78.349 -0.003,78.063 -0.196,77.777 -0.287,77.445 -0.379,77.113 -0.359,76.769 -0.340,76.425 -0.211,76.106 -0.083,75.786 0.14,75.524 0.36,75.262 0.66,75.085 0.95,74.908 1.29,74.835 1.62,74.762 1.97,74.800 2.31,74.838 2.62,74.983 2.93,75.129 3.18,75.366 3.43,75.604 3.59,75.909 3.75,76.213 3.81,76.554 3.86,76.894 3.86,76.893 3.86,76.893 3.74,88.279 3.62,99.665 3.51,108.147 3.40,116.629 3.47,125.110 3.55,133.591 3.63,142.066 3.71,150.541 3.81,158.990 3.90,167.440 4.06,175.789 4.21,184.138 4.57,192.059 4.94,199.980 5.77,206.311 6.60,212.642 10.44,214.711 14.29,216.780 22.50,216.875 30.71,216.970 39.01,217.087 47.30,217.204 55.60,217.321 63.90,217.438 72.20,217.555 80.49,217.672 88.79,217.789 97.09,217.906 105.38,217.919 113.68,217.931 121.97,217.836 130.26,217.741 138.52,217.631 146.79,217.521 154.95,217.353 163.12,217.185 170.86,216.802 178.60,216.419 184.79,215.563 190.98,214.707 193.04,210.805 195.10,206.902 195.12,198.429 195.15,189.955 195.19,181.396 195.24,172.837 195.29,164.278 195.33,155.718 195.38,147.159 195.42,138.600 195.47,130.041 195.52,121.482 195.56,112.923 195.61,104.364 195.46,95.808 195.32,87.252 195.17,78.702 195.02,70.152 194.86,61.628 194.69,53.103 194.47,44.680 194.25,36.257 193.83,28.264 193.40,20.272 192.52,13.889 191.65,7.506 187.83,5.451 184.02,3.396 175.88,3.385 167.75,3.373 159.53,3.339 151.30,3.304 143.08,3.270 134.85,3.236 126.63,3.201 118.40,3.167 110.18,3.133 101.96,3.099 93.73,3.169 85.51,3.240 77.30,3.417 69.08,3.594 60.89,3.787 52.70,3.979 44.61,4.228 36.52,4.477 28.85,4.934 21.17,5.391 15.03,6.301 8.90,7.211 6.81,11.109 4.72,15.007 4.63,23.405 4.53,31.803 4.42,40.283 4.31,48.763 4.19,57.237 4.08,65.710 3.96,74.157 3.85,82.604 3.74,90.946 3.62,99.288 3.51,107.219 3.40,115.150 3.48,121.470 3.56,127.789 3.53,128.021 3.50,128.254 3.42,128.472 3.33,128.690 3.20,128.882 3.07,129.075 2.89,129.229 2.72,129.384 2.51,129.492 2.30,129.600 2.08,129.656 1.85,129.711 1.61,129.711 1.38,129.710 1.15,129.654 0.93,129.597 0.72,129.488 0.51,129.379 0.34,129.223 0.16,129.068 0.03,128.875 -0.096,128.682 -0.178,128.464 -0.261,128.245 -0.288,128.013 Z" fill="#36a64c" stroke="#36a64c" stroke-width="3.5" pointer-events="none"/></g><g id="0860b8fe-e911-4940-3b2b-a4d7529e7528_svg" class="tl-centered-g" transform="translate(311.02, 233.58) rotate(0.00, 26.07, 25.02)"><rect x="2.11" y="2.11" width="50.01" height="47.92" fill="#345246" pointer-events="none"/><g pointer-events="none" stroke="#36a64c" stroke-width="4.23" stroke-linecap="round"><line x1="2.11" y1="2.11" x2="50.01" y2="2.11" stroke-dasharray="none" stroke-dashoffset="none"/><line x1="50.01" y1="2.11" x2="50.01" y2="47.92" stroke-dasharray="none" stroke-dashoffset="none"/><line x1="50.01" y1="47.92" x2="2.11" y2="47.92" stroke-dasharray="none" stroke-dashoffset="none"/><line x1="2.11" y1="47.92" x2="2.11" y2="2.11" stroke-dasharray="none" stroke-dashoffset="none"/></g></g><g id="fd8c2367-43f5-4320-2854-c20ea21a12bd_svg" class="tl-centered-g" transform="translate(311.02, 294.79) rotate(0.00, 26.07, 51.27)"><rect x="2.11" y="2.11" width="50.01" height="100.43" fill="#345246" pointer-events="none"/><g pointer-events="none" stroke="#36a64c" stroke-width="4.23" stroke-linecap="round"><line x1="2.11" y1="2.11" x2="50.01" y2="2.11" stroke-dasharray="none" stroke-dashoffset="none"/><line x1="50.01" y1="2.11" x2="50.01" y2="100.43" stroke-dasharray="none" stroke-dashoffset="none"/><line x1="50.01" y1="100.43" x2="2.11" y2="100.43" stroke-dasharray="none" stroke-dashoffset="none"/><line x1="2.11" y1="100.43" x2="2.11" y2="2.11" stroke-dasharray="none" stroke-dashoffset="none"/></g></g><g id="148425aa-e633-4ba5-0a1f-361101cd96a5_svg" class="tl-centered-g" transform="translate(1006.35, 98.24) rotate(0.00, 38.72, 29.45)"><path d="M73.803,36.866Q73.803,36.866 72.19,41.968 70.58,47.071 67.17,50.123 63.77,53.176 58.45,55.708 53.13,58.239 46.03,59.318 38.94,60.397 31.00,59.000 23.06,57.604 16.04,53.186 9.03,48.768 5.13,41.728 1.24,34.688 2.18,26.687 3.13,18.685 9.01,12.108 14.90,5.530 24.00,2.319 33.09,-0.892 42.67,-0.052 52.24,0.787 59.78,5.033 67.32,9.279 71.36,15.426 75.40,21.573 75.80,27.910 76.21,34.248 73.93,39.480 71.66,44.713 68.06,48.244 64.47,51.774 60.82,53.621 57.17,55.468 54.33,56.018 51.49,56.569 51.49,56.565 51.49,56.560 51.49,56.555 51.49,56.551 53.83,55.160 56.18,53.769 59.25,51.680 62.32,49.591 65.44,46.410 68.56,43.228 70.67,38.737 72.78,34.245 72.60,28.734 72.41,23.224 68.93,17.698 65.46,12.173 58.62,8.202 51.79,4.230 42.95,3.342 34.10,2.453 25.72,5.251 17.34,8.048 11.93,13.778 6.53,19.508 5.53,26.435 4.53,33.363 7.86,39.573 11.19,45.782 17.51,49.817 23.83,53.851 31.11,55.143 38.40,56.435 44.87,55.427 51.34,54.418 56.07,52.091 60.81,49.764 63.71,47.229 66.61,44.695 70.19,40.775 Z" fill="#717d8a" stroke="#717d8a" stroke-width="3.5" pointer-events="none" stroke-linecap="round" stroke-linejoin="round"/></g><g id="ed824de9-cb4b-4671-202f-81e27e66b552_svg" class="tl-centered-g" transform="translate(961.87, 180.94) rotate(0.00, 30.88, 31.40)"><path d="M47.947,57.155Q47.947,57.155 42.19,60.125 36.44,63.094 31.25,63.100 26.06,63.106 20.04,61.243 14.01,59.381 8.40,54.880 2.79,50.379 -0.415,43.281 -3.628,36.182 -2.555,27.883 -1.483,19.583 4.47,12.642 10.43,5.701 19.81,2.706 29.20,-0.289 38.92,1.920 48.65,4.129 55.38,10.769 62.11,17.409 63.80,26.026 65.50,34.643 62.26,42.349 59.03,50.055 52.71,54.926 46.39,59.797 39.31,61.450 32.23,63.102 26.11,62.278 19.98,61.455 15.70,59.190 11.42,56.925 9.08,54.464 6.75,52.004 6.75,52.000 6.75,51.996 6.76,51.992 6.76,51.988 9.52,53.526 12.29,55.064 16.38,56.643 20.46,58.221 26.01,58.977 31.55,59.732 37.99,58.358 44.43,56.984 50.21,52.740 55.99,48.495 59.06,41.713 62.12,34.930 60.80,27.238 59.48,19.546 53.54,13.468 47.60,7.390 38.79,5.235 29.98,3.080 21.42,5.637 12.85,8.194 7.39,14.289 1.93,20.384 0.83,27.692 -0.253,34.999 2.50,41.316 5.25,47.633 10.24,51.699 15.23,55.765 20.67,57.446 26.11,59.127 30.66,59.111 35.21,59.095 41.57,58.116 Z" fill="#717d8a" stroke="#717d8a" stroke-width="3.5" pointer-events="none" stroke-linecap="round" stroke-linejoin="round"/></g><g id="ef31e0e0-9ce1-4149-28ce-f3f4cfd94146_svg" class="tl-centered-g" transform="translate(1063.45, 181.30) rotate(0.00, 30.88, 31.40)"><path d="M63.049,27.374Q63.049,27.374 64.13,32.253 65.22,37.131 63.98,40.981 62.73,44.830 59.75,48.870 56.77,52.909 51.88,56.349 46.99,59.789 40.40,61.518 33.81,63.248 26.46,62.297 19.11,61.347 12.58,57.340 6.04,53.334 2.03,46.823 -1.981,40.312 -2.321,32.755 -2.661,25.198 0.71,18.453 4.09,11.708 10.10,7.266 16.11,2.823 23.10,1.277 30.08,-0.270 36.52,0.748 42.95,1.767 47.89,4.456 52.83,7.145 55.96,10.537 59.09,13.928 60.58,17.133 62.06,20.337 62.34,22.747 62.63,25.157 62.62,25.159 62.62,25.160 62.61,25.162 62.61,25.163 61.50,23.207 60.39,21.251 58.65,18.612 56.91,15.974 54.02,13.055 51.13,10.136 46.72,7.660 42.31,5.184 36.52,4.172 30.72,3.159 24.40,4.446 18.07,5.733 12.61,9.603 7.14,13.473 4.02,19.384 0.89,25.296 1.06,31.962 1.23,38.629 4.70,44.447 8.16,50.264 13.96,53.898 19.76,57.532 26.32,58.418 32.89,59.303 38.74,57.768 44.59,56.233 48.82,53.190 53.06,50.146 55.50,46.624 57.94,43.102 59.11,40.010 60.28,36.918 61.65,32.146 Z" fill="#717d8a" stroke="#717d8a" stroke-width="3.5" pointer-events="none" stroke-linecap="round" stroke-linejoin="round"/></g><g id="1b1fffa0-f587-4c72-255e-e246b0ae7d7b_svg" class="tl-centered-g" transform="translate(867.20, 272.05) rotate(0.00, 30.88, 31.40)"><path d="M59.124,39.409Q59.124,39.409 56.06,44.698 53.01,49.986 49.34,52.872 45.66,55.759 40.10,57.553 34.53,59.347 27.74,58.631 20.94,57.915 14.69,53.781 8.43,49.646 5.07,42.526 1.72,35.407 2.99,27.355 4.27,19.303 10.11,13.211 15.95,7.119 24.26,5.202 32.56,3.286 40.31,5.905 48.06,8.525 52.91,14.207 57.76,19.890 59.03,26.397 60.29,32.904 58.77,38.436 57.24,43.968 54.37,47.740 51.50,51.512 48.61,53.620 45.72,55.728 43.66,56.679 " stroke="none" fill="#595642" pointer-events="none"/><path d="M59.132,39.414Q59.132,39.414 57.06,45.312 55.00,51.209 50.98,54.350 46.97,57.492 41.03,59.399 35.08,61.306 27.86,60.567 20.64,59.828 13.97,55.471 7.29,51.113 3.66,43.560 0.02,36.007 1.30,27.426 2.57,18.846 8.69,12.324 14.81,5.801 23.56,3.686 32.31,1.571 40.52,4.254 48.73,6.937 53.93,12.899 59.14,18.861 60.57,25.758 62.00,32.656 60.44,38.563 58.89,44.471 55.80,48.462 52.71,52.453 49.50,54.481 46.29,56.510 43.95,57.075 41.61,57.640 41.61,57.635 41.60,57.631 41.60,57.626 41.60,57.622 43.38,56.284 45.15,54.946 47.72,52.758 50.29,50.570 52.94,47.018 55.59,43.465 57.09,38.309 58.59,33.153 57.49,27.036 56.38,20.919 51.89,15.516 47.39,10.112 40.10,7.556 32.82,5.000 24.96,6.718 17.10,8.437 11.54,14.098 5.98,19.760 4.69,27.283 3.41,34.806 6.49,41.493 9.57,48.179 15.41,52.091 21.25,56.003 27.61,56.696 33.97,57.389 39.17,55.707 44.36,54.026 47.69,51.395 51.02,48.763 55.06,44.084 Z" fill="#ebbb38" stroke="#ebbb38" stroke-width="3.5" pointer-events="none" stroke-linecap="round" stroke-linejoin="round"/></g><g id="a91e793d-7d02-4b73-0cdf-c28d4cb9b111_svg" class="tl-centered-g" transform="translate(971.23, 282.09) rotate(0.00, 25.13, 26.84)"><path d="M8.896,3.443Q8.896,3.443 13.73,0.047 18.57,-3.348 23.32,-3.573 28.07,-3.797 33.56,-2.097 39.05,-0.398 44.12,3.912 49.20,8.221 52.11,15.007 55.02,21.793 54.22,29.656 53.43,37.520 48.56,44.118 43.69,50.716 36.01,53.812 28.33,56.907 20.30,55.537 12.26,54.168 6.32,49.112 0.37,44.056 -2.202,37.270 -4.776,30.483 -4.152,24.007 -3.528,17.531 -0.836,12.656 1.85,7.780 5.33,4.974 8.81,2.168 11.88,1.196 14.96,0.223 14.96,0.228 14.97,0.232 14.97,0.237 14.97,0.241 12.63,2.047 10.29,3.852 7.50,6.648 4.72,9.443 2.31,13.726 -0.096,18.008 -0.781,23.724 -1.466,29.440 0.67,35.506 2.81,41.572 7.97,46.174 13.14,50.777 20.22,52.147 27.30,53.517 34.14,50.922 40.99,48.327 45.39,42.590 49.79,36.853 50.59,29.959 51.40,23.064 48.92,17.109 46.44,11.153 42.06,7.399 37.67,3.646 32.93,2.230 28.19,0.813 24.29,0.997 20.40,1.180 14.65,2.321 Z" fill="#717d8a" stroke="#717d8a" stroke-width="3.5" pointer-events="none" stroke-linecap="round" stroke-linejoin="round"/></g><g id="3065764f-8817-4cc4-2241-6cc575e901f9_svg" class="tl-centered-g" transform="translate(1067.62, 281.20) rotate(0.00, 30.88, 31.40)"><path d="M41.768,-0.023Q41.768,-0.023 47.18,1.373 52.59,2.768 55.83,5.799 59.07,8.831 61.80,13.505 64.53,18.180 65.77,24.384 67.01,30.588 65.64,37.589 64.27,44.590 59.66,50.952 55.06,57.315 47.58,61.252 40.09,65.190 31.24,65.259 22.39,65.328 14.44,61.145 6.49,56.962 1.64,49.521 -3.204,42.081 -3.735,33.442 -4.265,24.803 -0.690,17.247 2.88,9.691 9.16,4.825 15.44,-0.041 22.58,-1.736 29.72,-3.431 36.18,-2.474 42.63,-1.518 47.54,1.063 52.45,3.644 55.58,6.819 58.70,9.994 60.27,12.866 61.84,15.738 62.31,17.729 62.79,19.721 62.79,19.723 62.78,19.725 62.78,19.727 62.77,19.729 61.63,18.177 60.49,16.624 58.63,14.302 56.77,11.979 53.81,9.287 50.85,6.594 46.44,4.237 42.04,1.880 36.22,0.916 30.40,-0.047 23.92,1.369 17.43,2.784 11.67,7.068 5.91,11.352 2.56,18.093 -0.798,24.833 -0.472,32.615 -0.146,40.396 4.10,47.177 8.35,53.958 15.47,57.848 22.59,61.739 30.58,61.791 38.57,61.843 45.34,58.391 52.11,54.940 56.27,49.306 60.44,43.673 61.68,37.481 62.92,31.289 61.80,25.837 60.68,20.385 58.20,16.347 55.72,12.310 53.00,9.729 50.28,7.147 46.02,3.571 Z" fill="#717d8a" stroke="#717d8a" stroke-width="3.5" pointer-events="none" stroke-linecap="round" stroke-linejoin="round"/></g><g id="626e2a48-eb1c-40ec-2a42-05aea8e0d6a4_svg" class="tl-centered-g" transform="translate(1175.47, 279.27) rotate(0.00, 30.88, 31.40)"><path d="M58.686,15.210Q58.686,15.210 61.57,19.587 64.47,23.964 64.86,28.133 65.26,32.302 64.30,37.349 63.34,42.395 60.50,47.669 57.67,52.942 52.63,57.321 47.60,61.700 40.72,63.855 33.84,66.009 26.30,64.889 18.75,63.769 12.26,59.152 5.78,54.535 2.02,47.294 -1.742,40.052 -1.852,31.912 -1.962,23.772 1.41,16.663 4.79,9.554 10.54,4.901 16.29,0.249 22.87,-1.442 29.46,-3.133 35.50,-2.258 41.54,-1.382 46.22,1.135 50.90,3.652 53.94,6.825 56.98,9.998 58.52,12.976 60.07,15.954 60.51,18.137 60.96,20.320 60.95,20.322 60.95,20.324 60.94,20.326 60.94,20.328 59.74,18.613 58.55,16.898 56.72,14.479 54.89,12.059 52.06,9.337 49.24,6.615 45.09,4.320 40.95,2.024 35.57,1.138 30.19,0.252 24.27,1.650 18.35,3.048 13.10,7.129 7.86,11.211 4.70,17.562 1.55,23.914 1.52,31.253 1.50,38.592 4.77,45.154 8.04,51.716 13.77,55.932 19.50,60.148 26.19,61.232 32.88,62.316 38.99,60.460 45.09,58.605 49.54,54.741 54.00,50.878 56.45,46.209 58.90,41.541 59.62,37.104 60.34,32.668 60.10,29.132 59.86,25.597 59.26,20.407 Z" fill="#717d8a" stroke="#717d8a" stroke-width="3.5" pointer-events="none" stroke-linecap="round" stroke-linejoin="round"/></g><g id="d20b1ac3-98b7-48ac-018f-a8f372a9a0ba_svg" class="tl-centered-g" transform="translate(792.65, 386.71) rotate(0.00, 30.88, 20.82)"><path d="M43.575,-0.159Q43.575,-0.159 47.03,0.274 50.49,0.707 53.68,3.281 56.87,5.855 59.17,10.646 61.48,15.436 61.07,21.712 60.67,27.987 56.00,33.937 51.34,39.887 42.82,42.943 34.31,45.999 24.78,44.269 15.24,42.540 8.79,36.184 2.34,29.828 2.05,21.597 1.75,13.366 7.28,6.977 12.81,0.589 21.08,-1.827 29.35,-4.243 36.95,-2.928 44.55,-1.612 49.62,1.805 54.69,5.222 56.93,9.070 59.16,12.918 59.37,15.814 59.57,18.711 59.56,18.712 59.56,18.713 59.55,18.714 59.55,18.716 58.42,16.406 57.29,14.096 55.01,11.017 52.72,7.938 48.26,4.876 43.80,1.814 36.98,0.506 30.15,-0.802 22.69,1.183 15.23,3.168 10.20,8.568 5.17,13.968 5.24,20.919 5.31,27.870 10.81,33.380 16.31,38.890 24.77,40.511 33.24,42.131 40.75,39.557 48.26,36.983 52.23,32.102 56.20,27.220 56.52,22.297 56.83,17.373 54.88,13.688 52.92,10.004 50.54,7.528 48.15,5.051 45.86,2.455 Z" fill="#717d8a" stroke="#717d8a" stroke-width="3.5" pointer-events="none" stroke-linecap="round" stroke-linejoin="round"/></g><g id="d857b7c6-ace7-4a03-0516-3775d27a5231_svg" class="tl-centered-g" transform="translate(896.68, 375.59) rotate(0.00, 25.13, 26.84)"><path d="M5.782,8.366Q5.782,8.366 10.03,3.115 14.28,-2.136 19.30,-3.410 24.32,-4.685 30.37,-3.160 36.43,-1.636 41.80,3.791 47.17,9.219 49.44,17.928 51.72,26.638 49.21,35.853 46.69,45.068 39.73,50.890 32.77,56.712 24.21,56.331 15.64,55.950 9.22,49.782 2.80,43.614 0.72,34.792 -1.346,25.970 0.71,18.032 2.77,10.093 7.19,5.048 11.61,0.002 16.43,-1.934 21.26,-3.870 25.08,-3.609 28.89,-3.348 31.04,-2.216 33.20,-1.083 33.19,-1.078 33.19,-1.073 33.19,-1.068 33.19,-1.064 31.02,-1.199 28.85,-1.333 25.59,-1.144 22.34,-0.954 18.20,0.726 14.06,2.406 10.05,6.778 6.05,11.149 4.05,18.274 2.05,25.400 3.74,33.396 5.42,41.392 10.92,47.031 16.42,52.670 23.79,53.202 31.15,53.735 37.28,48.749 43.41,43.764 45.77,35.530 48.13,27.296 46.22,19.469 44.31,11.642 39.74,6.836 35.17,2.030 30.12,0.683 25.07,-0.665 21.04,0.301 17.00,1.268 11.40,4.824 Z" fill="#717d8a" stroke="#717d8a" stroke-width="3.5" pointer-events="none" stroke-linecap="round" stroke-linejoin="round"/></g><g id="abba869c-eff9-42ce-0544-84147845b520_svg" class="tl-centered-g" transform="translate(993.07, 374.69) rotate(0.00, 30.88, 31.40)"><path d="M60.855,33.221Q60.855,33.221 60.23,39.287 59.60,45.353 56.77,49.322 53.93,53.292 49.03,56.703 44.14,60.113 37.30,61.519 30.47,62.924 22.95,60.917 15.42,58.909 9.43,53.057 3.44,47.205 1.31,38.717 -0.810,30.230 2.07,21.766 4.96,13.302 12.01,7.778 19.06,2.254 27.75,1.366 36.44,0.478 43.92,3.976 51.41,7.474 55.86,13.602 60.31,19.730 61.43,26.344 62.55,32.958 61.19,38.485 59.83,44.012 57.19,47.686 54.55,51.360 51.88,53.159 49.22,54.958 49.21,54.955 49.21,54.951 49.21,54.947 49.20,54.944 50.98,52.569 52.76,50.195 54.72,46.685 56.69,43.175 57.91,38.281 59.14,33.388 58.28,27.482 57.43,21.576 53.59,16.015 49.75,10.453 43.12,7.170 36.50,3.886 28.70,4.506 20.90,5.126 14.49,9.927 8.07,14.727 5.33,22.227 2.59,29.727 4.34,37.332 6.08,44.936 11.33,50.248 16.58,55.560 23.26,57.452 29.93,59.345 36.03,58.168 42.12,56.990 46.49,53.989 50.86,50.988 53.31,47.602 55.77,44.216 58.30,38.716 Z" fill="#717d8a" stroke="#717d8a" stroke-width="3.5" pointer-events="none" stroke-linecap="round" stroke-linejoin="round"/></g><g id="62b6ad41-a44f-43c2-089f-b63e5598e440_svg" class="tl-centered-g" transform="translate(1100.92, 372.77) rotate(0.00, 30.88, 31.40)"><path d="M49.704,9.304Q49.704,9.304 54.56,13.965 59.42,18.626 60.73,23.840 62.04,29.055 61.08,35.517 60.13,41.980 55.75,48.215 51.37,54.450 43.64,58.026 35.90,61.602 26.82,60.343 17.74,59.084 10.76,52.627 3.78,46.169 2.00,36.742 0.21,27.314 4.41,18.772 8.60,10.229 16.75,5.849 24.89,1.469 33.55,2.241 42.21,3.012 48.58,7.614 54.94,12.216 57.97,18.308 61.01,24.399 61.21,29.998 61.42,35.596 59.97,39.591 58.51,43.586 56.73,45.704 54.95,47.822 54.95,47.820 54.94,47.817 54.94,47.815 54.93,47.812 55.75,45.403 56.57,42.994 57.40,39.327 58.24,35.660 58.05,30.724 57.87,25.787 55.31,20.319 52.76,14.851 47.19,10.612 41.62,6.372 33.90,5.495 26.19,4.618 18.82,8.355 11.45,12.091 7.53,19.614 3.62,27.137 5.02,35.552 6.43,43.967 12.52,49.829 18.61,55.690 26.66,56.955 34.72,58.219 41.62,55.164 48.52,52.108 52.45,46.666 56.38,41.224 57.25,35.564 58.12,29.905 57.04,25.489 55.97,21.073 52.83,15.195 Z" fill="#717d8a" stroke="#717d8a" stroke-width="3.5" pointer-events="none" stroke-linecap="round" stroke-linejoin="round"/></g><g id="2f920388-2f3a-436a-1e42-b1c7103e5723_svg" class="tl-centered-g" transform="translate(1201.39, 382.78) rotate(0.00, 30.88, 31.40)"><path d="M9.767,51.147Q9.767,51.147 6.09,46.862 2.41,42.576 1.52,38.113 0.62,33.650 1.24,28.142 1.86,22.634 4.73,16.947 7.60,11.260 12.99,6.903 18.39,2.545 25.57,1.166 32.76,-0.214 39.98,2.346 47.20,4.905 52.35,10.992 57.49,17.079 59.08,24.962 60.68,32.844 58.55,40.271 56.43,47.698 51.62,52.896 46.81,58.094 40.96,60.378 35.11,62.662 29.68,62.425 24.25,62.188 20.12,60.378 16.00,58.569 13.48,56.226 10.97,53.882 9.89,51.910 8.81,49.938 8.82,49.935 8.82,49.932 8.82,49.928 8.83,49.925 10.51,51.149 12.18,52.373 14.71,54.056 17.24,55.740 20.87,57.248 24.51,58.756 29.25,59.072 34.00,59.388 39.20,57.498 44.40,55.608 48.77,51.077 53.14,46.547 55.17,39.937 57.21,33.327 55.92,26.248 54.63,19.169 50.19,13.673 45.74,8.178 39.45,5.801 33.16,3.424 26.87,4.526 20.58,5.628 15.81,9.400 11.05,13.173 8.52,18.172 5.99,23.172 5.50,28.015 5.01,32.858 5.72,36.642 6.42,40.426 8.10,45.782 Z" fill="#717d8a" stroke="#717d8a" stroke-width="3.5" pointer-events="none" stroke-linecap="round" stroke-linejoin="round"/></g><g id="6381f382-d424-4cd6-0123-7b9b9b76aa6f_svg" class="tl-centered-g" transform="translate(1309.24, 380.86) rotate(0.00, 30.88, 31.40)"><path d="M-2.846,36.265Q-2.846,36.265 -3.784,30.769 -4.723,25.273 -3.212,21.019 -1.700,16.764 1.78,12.326 5.27,7.888 11.06,4.330 16.85,0.772 24.55,-0.495 32.25,-1.762 40.44,0.418 48.63,2.598 55.12,8.462 61.60,14.326 64.15,22.728 66.71,31.129 64.20,39.692 61.69,48.255 54.81,54.360 47.93,60.465 38.90,62.449 29.87,64.434 21.37,62.198 12.86,59.962 6.89,54.728 0.91,49.494 -1.786,43.060 -4.485,36.625 -4.322,30.587 -4.160,24.549 -2.137,19.880 -0.114,15.212 2.58,12.255 5.28,9.298 7.70,7.901 10.12,6.504 10.12,6.508 10.12,6.512 10.13,6.516 10.13,6.519 8.45,8.516 6.78,10.514 4.71,13.463 2.65,16.412 0.95,20.583 -0.736,24.755 -0.999,30.102 -1.263,35.449 1.02,41.245 3.30,47.041 8.61,51.867 13.92,56.693 21.63,58.862 29.33,61.031 37.58,59.378 45.83,57.724 52.16,52.352 58.48,46.980 60.89,39.389 63.30,31.798 61.16,24.271 59.02,16.745 53.26,11.392 47.50,6.039 40.10,3.984 32.70,1.930 25.73,3.018 18.76,4.106 13.57,7.267 8.37,10.429 5.31,14.358 2.25,18.287 0.88,21.862 -0.493,25.437 -1.659,30.851 Z" fill="#717d8a" stroke="#717d8a" stroke-width="3.5" pointer-events="none" stroke-linecap="round" stroke-linejoin="round"/></g><g id="67b7ba3b-be85-44ef-0448-5629c5a8921c_svg" class="tl-centered-g" transform="translate(1063.79, 166.66) rotate(0.00, 6.55, 10.58)"><g opacity="1"><path d="M2.975,0.000Q2.975,0.000 2.98,0.681 3.00,1.362 3.61,3.040 4.22,4.717 5.08,5.774 5.93,6.831 6.65,8.063 7.38,9.294 8.29,10.599 9.21,11.903 10.22,12.901 11.24,13.898 12.32,15.196 13.40,16.494 14.41,17.493 15.43,18.491 15.80,18.934 16.16,19.377 16.37,19.914 16.57,20.450 16.59,21.024 16.62,21.598 16.46,22.149 16.29,22.700 15.96,23.171 15.64,23.641 15.17,23.982 14.71,24.323 14.16,24.499 13.62,24.674 13.04,24.666 12.47,24.657 11.93,24.466 11.39,24.275 10.93,23.920 10.48,23.566 10.17,23.086 9.85,22.606 9.71,22.051 9.56,21.495 9.60,20.922 9.64,20.349 9.86,19.819 10.08,19.289 10.46,18.856 10.84,18.424 11.33,18.135 11.83,17.846 12.39,17.731 12.95,17.616 13.52,17.687 14.09,17.757 14.61,18.006 15.13,18.255 15.54,18.656 15.95,19.057 16.21,19.568 16.47,20.079 16.56,20.647 16.64,21.215 16.54,21.781 16.44,22.346 16.16,22.849 15.89,23.353 15.46,23.741 15.04,24.130 14.52,24.364 13.99,24.597 13.42,24.651 12.85,24.704 12.29,24.573 11.73,24.441 11.24,24.137 10.76,23.834 10.76,23.834 10.76,23.835 9.61,22.648 8.47,21.461 7.52,20.319 6.57,19.178 5.60,18.197 4.63,17.216 3.73,16.042 2.82,14.868 2.00,13.495 1.17,12.122 0.53,10.931 -0.099,9.740 -0.802,8.295 -1.504,6.849 -2.145,5.485 -2.785,4.120 -2.894,2.741 -3.002,1.362 -2.989,0.681 -2.975,0.000 -2.932,-0.356 -2.889,-0.712 -2.762,-1.047 -2.634,-1.383 -2.431,-1.678 -2.227,-1.973 -1.958,-2.211 -1.690,-2.449 -1.372,-2.615 -1.055,-2.782 -0.707,-2.868 -0.358,-2.954 0.00,-2.954 0.35,-2.954 0.70,-2.868 1.05,-2.782 1.37,-2.615 1.69,-2.448 1.95,-2.211 2.22,-1.973 2.43,-1.678 2.63,-1.382 2.76,-1.047 2.88,-0.712 2.93,-0.356 Z" fill="#717d8a" stroke="#717d8a" stroke-width="1" stroke-linejoin="round" stroke-linecap="round" pointer-events="none"/></g></g><g id="58dae3a1-3288-4fb1-3daa-354439ec952f_svg" class="tl-centered-g" transform="translate(1012.12, 158.45) rotate(0.00, 6.33, 11.76)"><g opacity="1"><path d="M15.665,0.059Q15.665,0.059 15.65,0.871 15.64,1.682 15.47,3.056 15.31,4.431 14.88,5.696 14.46,6.960 13.74,8.316 13.02,9.671 12.28,10.796 11.55,11.921 10.86,13.263 10.17,14.604 9.49,15.728 8.81,16.853 7.92,18.135 7.03,19.417 6.30,20.548 5.57,21.678 3.48,24.223 1.39,26.769 0.83,26.906 0.28,27.043 -0.288,26.996 -0.858,26.948 -1.383,26.722 -1.907,26.495 -2.332,26.113 -2.757,25.730 -3.037,25.232 -3.318,24.735 -3.424,24.173 -3.531,23.612 -3.453,23.046 -3.375,22.479 -3.120,21.968 -2.866,21.456 -2.461,21.053 -2.056,20.649 -1.544,20.396 -1.031,20.143 -0.465,20.067 0.10,19.991 0.66,20.100 1.22,20.208 1.72,20.490 2.21,20.772 2.59,21.198 2.98,21.624 3.20,22.150 3.42,22.675 3.47,23.245 3.52,23.815 3.38,24.369 3.24,24.923 2.93,25.404 2.62,25.885 2.17,26.242 1.73,26.600 1.19,26.796 0.66,26.992 0.08,27.006 -0.483,27.021 -1.029,26.852 -1.575,26.683 -2.039,26.349 -2.502,26.015 -2.835,25.550 -3.167,25.086 -3.334,24.539 -3.501,23.992 -3.484,23.421 -3.468,22.850 -3.270,22.314 -3.072,21.778 -2.713,21.333 -2.354,20.888 -1.872,20.581 -1.390,20.274 -1.390,20.275 -1.391,20.275 -0.545,18.645 0.30,17.014 1.15,15.795 2.00,14.577 2.98,13.221 3.95,11.866 4.73,10.582 5.51,9.297 6.36,8.032 7.21,6.767 8.01,5.444 8.81,4.121 9.22,2.841 9.62,1.561 9.64,0.751 9.66,-0.059 9.71,-0.417 9.77,-0.775 9.90,-1.111 10.04,-1.446 10.25,-1.739 10.46,-2.033 10.73,-2.267 11.01,-2.501 11.33,-2.663 11.65,-2.825 12.01,-2.904 12.36,-2.984 12.72,-2.976 13.08,-2.969 13.43,-2.876 13.78,-2.782 14.10,-2.608 14.41,-2.434 14.68,-2.189 14.95,-1.944 15.15,-1.642 15.35,-1.340 15.47,-1.000 15.59,-0.660 15.62,-0.300 Z" fill="#717d8a" stroke="#717d8a" stroke-width="1" stroke-linejoin="round" stroke-linecap="round" pointer-events="none"/></g></g><g id="ba94aa56-d56a-43af-2794-7d0c734a8bfb_svg" class="tl-centered-g" transform="translate(1092.41, 241.80) rotate(0.00, 0.50, 17.40)"><g opacity="1"><path d="M3.009,0.000Q3.009,0.000 3.02,0.699 3.03,1.398 3.07,3.080 3.10,4.763 3.14,6.178 3.18,7.594 3.20,9.170 3.23,10.747 3.25,12.296 3.27,13.844 3.29,15.289 3.31,16.734 3.32,18.240 3.34,19.746 3.35,21.154 3.36,22.562 3.38,23.973 3.41,25.384 3.43,26.930 3.45,28.475 3.48,29.938 3.50,31.402 3.51,33.102 3.51,34.802 3.42,35.363 3.33,35.924 3.06,36.427 2.79,36.930 2.38,37.321 1.97,37.712 1.45,37.951 0.94,38.190 0.37,38.251 -0.191,38.313 -0.746,38.190 -1.302,38.068 -1.789,37.775 -2.276,37.481 -2.645,37.048 -3.013,36.614 -3.223,36.086 -3.434,35.557 -3.465,34.989 -3.495,34.421 -3.343,33.873 -3.191,33.325 -2.872,32.854 -2.552,32.383 -2.099,32.039 -1.647,31.695 -1.107,31.513 -0.568,31.332 0.00,31.332 0.56,31.332 1.10,31.514 1.64,31.695 2.10,32.040 2.55,32.384 2.87,32.855 3.19,33.326 3.34,33.874 3.49,34.422 3.46,34.990 3.43,35.558 3.22,36.087 3.01,36.615 2.64,37.049 2.27,37.482 1.78,37.775 1.30,38.068 0.74,38.191 0.18,38.313 -0.376,38.251 -0.942,38.189 -1.458,37.950 -1.974,37.711 -2.387,37.320 -2.800,36.929 -3.066,36.426 -3.332,35.923 -3.424,35.362 -3.516,34.801 -3.516,34.801 -3.516,34.802 -3.510,33.102 -3.503,31.402 -3.480,29.938 -3.458,28.475 -3.435,26.930 -3.411,25.384 -3.389,23.973 -3.367,22.562 -3.354,21.154 -3.340,19.746 -3.327,18.240 -3.313,16.734 -3.294,15.289 -3.275,13.844 -3.254,12.296 -3.233,10.747 -3.207,9.170 -3.182,7.594 -3.145,6.178 -3.108,4.763 -3.070,3.080 -3.031,1.398 -3.020,0.699 -3.009,0.000 -2.965,-0.360 -2.922,-0.720 -2.793,-1.059 -2.664,-1.398 -2.458,-1.697 -2.252,-1.995 -1.981,-2.236 -1.709,-2.477 -1.388,-2.645 -1.067,-2.814 -0.715,-2.900 -0.363,-2.987 0.00,-2.987 0.36,-2.987 0.71,-2.900 1.06,-2.814 1.38,-2.645 1.71,-2.476 1.98,-2.236 2.25,-1.995 2.45,-1.697 2.66,-1.398 2.79,-1.059 2.92,-0.720 2.96,-0.360 Z" fill="#717d8a" stroke="#717d8a" stroke-width="1" stroke-linejoin="round" stroke-linecap="round" pointer-events="none"/></g></g><g id="6cca6b58-876c-4881-2efe-ba2314154cbb_svg" class="tl-centered-g" transform="translate(1113.35, 243.56) rotate(0.00, 41.56, 17.45)"><g opacity="1"><path d="M-0.167,-1.773Q-0.167,-1.773 0.84,-1.902 1.85,-2.032 4.26,-2.152 6.67,-2.272 8.13,-2.265 9.58,-2.258 11.16,-2.223 12.74,-2.188 14.42,-2.138 16.09,-2.088 17.92,-1.940 19.75,-1.792 21.74,-1.443 23.72,-1.093 25.71,-0.598 27.69,-0.103 29.56,0.411 31.43,0.925 33.27,1.512 35.11,2.098 36.91,2.701 38.71,3.304 40.37,3.805 42.03,4.306 43.60,4.772 45.17,5.238 46.68,5.765 48.18,6.292 49.58,6.856 50.97,7.420 52.28,7.998 53.60,8.577 54.87,9.140 56.13,9.704 57.32,10.275 58.51,10.847 59.76,11.415 61.01,11.983 62.88,12.914 64.74,13.845 66.36,14.755 67.97,15.666 69.23,16.416 70.48,17.167 71.70,18.008 72.91,18.849 74.32,19.858 75.72,20.867 76.89,21.926 78.05,22.985 79.01,23.947 79.97,24.909 80.91,25.940 81.84,26.970 82.75,28.112 83.66,29.254 85.00,31.710 86.35,34.166 86.38,34.702 86.41,35.237 86.27,35.754 86.13,36.271 85.83,36.716 85.53,37.161 85.11,37.488 84.68,37.814 84.17,37.988 83.67,38.161 83.13,38.164 82.59,38.166 82.08,37.998 81.58,37.829 81.15,37.506 80.72,37.184 80.42,36.741 80.11,36.299 79.97,35.783 79.82,35.267 79.85,34.732 79.88,34.197 80.07,33.698 80.27,33.199 80.61,32.789 80.96,32.378 81.42,32.100 81.87,31.821 82.40,31.704 82.92,31.586 83.45,31.642 83.99,31.697 84.47,31.920 84.96,32.143 85.35,32.510 85.74,32.877 86.00,33.349 86.25,33.822 86.34,34.350 86.43,34.879 86.34,35.408 86.26,35.938 86.01,36.413 85.76,36.887 85.37,37.258 84.99,37.628 84.50,37.855 84.02,38.083 83.48,38.143 82.95,38.203 82.43,38.090 81.90,37.978 81.44,37.703 80.98,37.429 80.63,37.022 80.28,36.615 80.08,36.118 79.88,35.621 79.88,35.621 79.88,35.622 78.76,33.837 77.64,32.053 76.85,30.947 76.05,29.842 75.17,28.838 74.29,27.835 73.38,26.821 72.47,25.807 71.46,24.836 70.44,23.864 68.99,22.645 67.54,21.425 66.42,20.569 65.30,19.712 63.88,18.712 62.47,17.711 60.88,16.672 59.30,15.634 56.90,14.372 54.50,13.111 53.27,12.475 52.03,11.840 50.80,11.198 49.57,10.557 48.30,9.937 47.04,9.317 45.63,8.737 44.22,8.157 42.69,7.623 41.16,7.088 39.50,6.546 37.83,6.004 36.05,5.445 34.26,4.887 32.47,4.374 30.69,3.862 28.87,3.444 27.05,3.026 25.15,2.719 23.26,2.413 21.43,2.262 19.59,2.110 17.84,2.109 16.10,2.109 14.43,2.167 12.77,2.225 11.20,2.275 9.63,2.325 8.20,2.358 6.77,2.392 4.48,2.408 2.20,2.425 1.18,2.455 0.16,2.485 -0.090,2.474 -0.348,2.463 -0.595,2.391 -0.842,2.318 -1.064,2.189 -1.287,2.060 -1.472,1.881 -1.657,1.702 -1.794,1.484 -1.932,1.267 -2.012,1.022 -2.093,0.778 -2.113,0.521 -2.134,0.265 -2.092,0.011 -2.050,-0.243 -1.948,-0.480 -1.847,-0.717 -1.692,-0.922 -1.536,-1.127 -1.337,-1.290 -1.137,-1.452 -0.904,-1.562 -0.671,-1.671 -0.419,-1.722 Z" fill="#717d8a" stroke="#717d8a" stroke-width="1" stroke-linejoin="round" stroke-linecap="round" pointer-events="none"/></g></g><g id="0dc4823a-9ca2-4208-339d-c9ea6e8fadd9_svg" class="tl-centered-g" transform="translate(1117.04, 342.29) rotate(0.00, 0.50, 15.13)"><g opacity="1"><path d="M2.887,0.000Q2.887,0.000 2.88,1.032 2.87,2.064 2.87,3.971 2.87,5.878 2.87,7.860 2.86,9.843 2.88,11.633 2.89,13.422 2.92,14.881 2.95,16.339 2.98,17.673 3.01,19.006 3.05,20.527 3.10,22.049 3.15,23.503 3.20,24.957 3.30,27.127 3.41,29.297 3.48,29.823 3.55,30.349 3.45,30.871 3.35,31.392 3.09,31.854 2.82,32.316 2.43,32.670 2.03,33.023 1.54,33.232 1.06,33.442 0.53,33.484 0.00,33.526 -0.513,33.397 -1.029,33.268 -1.475,32.981 -1.922,32.695 -2.254,32.280 -2.586,31.866 -2.769,31.367 -2.951,30.869 -2.964,30.338 -2.978,29.807 -2.821,29.300 -2.664,28.792 -2.354,28.362 -2.043,27.931 -1.612,27.622 -1.180,27.313 -0.672,27.158 -0.164,27.003 0.36,27.018 0.89,27.034 1.39,27.218 1.89,27.401 2.30,27.735 2.72,28.068 3.00,28.516 3.29,28.964 3.41,29.479 3.54,29.995 3.50,30.524 3.45,31.053 3.24,31.540 3.03,32.028 2.68,32.422 2.32,32.817 1.86,33.077 1.39,33.338 0.87,33.437 0.35,33.536 -0.170,33.464 -0.696,33.391 -1.171,33.154 -1.646,32.917 -2.021,32.541 -2.396,32.165 -2.631,31.689 -2.866,31.213 -2.866,31.213 -2.866,31.214 -3.035,28.085 -3.204,24.957 -3.153,23.503 -3.103,22.049 -3.057,20.527 -3.012,19.006 -2.983,17.673 -2.954,16.339 -2.924,14.881 -2.894,13.422 -2.881,11.633 -2.869,9.843 -2.873,7.860 -2.878,5.878 -2.875,3.971 -2.873,2.064 -2.880,1.032 -2.887,0.000 -2.845,-0.346 -2.804,-0.691 -2.680,-1.016 -2.557,-1.342 -2.359,-1.628 -2.161,-1.915 -1.901,-2.146 -1.640,-2.376 -1.332,-2.538 -1.024,-2.700 -0.686,-2.783 -0.348,-2.866 0.00,-2.866 0.34,-2.866 0.68,-2.783 1.02,-2.700 1.33,-2.538 1.64,-2.376 1.90,-2.145 2.16,-1.915 2.35,-1.628 2.55,-1.342 2.68,-1.016 2.80,-0.691 2.84,-0.345 Z" fill="#717d8a" stroke="#717d8a" stroke-width="1" stroke-linejoin="round" stroke-linecap="round" pointer-events="none"/></g></g><g id="7a694aaa-fbb6-4d14-0849-f4b0f23de9fd_svg" class="tl-centered-g" transform="translate(1211.99, 349.14) rotate(0.00, 1.07, 17.34)"><g opacity="1"><path d="M2.962,0.000Q2.962,0.000 2.96,0.920 2.95,1.840 2.97,3.375 2.99,4.909 3.01,6.356 3.03,7.803 3.04,9.382 3.04,10.960 3.08,12.806 3.11,14.652 3.14,16.446 3.17,18.240 3.18,20.118 3.20,21.996 3.23,23.708 3.27,25.420 3.50,26.822 3.73,28.224 4.58,31.223 5.44,34.221 5.43,34.760 5.41,35.300 5.23,35.806 5.04,36.313 4.71,36.734 4.37,37.156 3.92,37.448 3.47,37.740 2.94,37.872 2.42,38.004 1.88,37.962 1.34,37.920 0.85,37.709 0.35,37.497 -0.045,37.139 -0.448,36.780 -0.715,36.312 -0.982,35.843 -1.085,35.314 -1.189,34.785 -1.118,34.250 -1.047,33.716 -0.809,33.232 -0.571,32.748 -0.191,32.366 0.18,31.983 0.67,31.742 1.15,31.501 1.68,31.426 2.22,31.352 2.75,31.451 3.28,31.551 3.75,31.815 4.22,32.079 4.58,32.479 4.94,32.879 5.15,33.373 5.37,33.868 5.41,34.405 5.46,34.942 5.33,35.466 5.20,35.990 4.91,36.445 4.63,36.900 4.21,37.239 3.79,37.579 3.28,37.766 2.78,37.954 2.24,37.970 1.70,37.987 1.18,37.830 0.67,37.673 0.23,37.360 -0.206,37.047 -0.522,36.610 -0.838,36.174 -0.998,35.659 -1.158,35.144 -1.158,35.144 -1.158,35.145 -1.714,33.275 -2.271,31.406 -2.587,29.823 -2.903,28.239 -3.055,26.922 -3.207,25.606 -3.206,23.801 -3.205,21.996 -3.188,20.118 -3.170,18.240 -3.143,16.446 -3.116,14.652 -3.083,12.806 -3.049,10.960 -3.043,9.382 -3.036,7.803 -3.017,6.356 -2.997,4.909 -2.978,3.375 -2.959,1.840 -2.960,0.920 -2.962,0.000 -2.919,-0.354 -2.876,-0.709 -2.749,-1.043 -2.622,-1.376 -2.420,-1.670 -2.217,-1.964 -1.950,-2.201 -1.682,-2.438 -1.366,-2.603 -1.050,-2.769 -0.704,-2.855 -0.357,-2.940 0.00,-2.940 0.35,-2.940 0.70,-2.855 1.05,-2.769 1.36,-2.603 1.68,-2.437 1.95,-2.201 2.21,-1.964 2.42,-1.670 2.62,-1.376 2.74,-1.042 2.87,-0.709 2.91,-0.354 Z" fill="#717d8a" stroke="#717d8a" stroke-width="1" stroke-linejoin="round" stroke-linecap="round" pointer-events="none"/></g></g><g id="aeb9eeef-0819-4a1e-104f-4e7cfcd293fc_svg" class="tl-centered-g" transform="translate(1230.74, 337.76) rotate(0.00, 41.34, 21.94)"><g opacity="1"><path d="M-0.066,-1.308Q-0.066,-1.308 1.85,-1.332 3.77,-1.356 5.36,-1.436 6.94,-1.516 10.71,-1.050 14.48,-0.585 17.02,-0.249 19.57,0.087 21.81,0.407 24.06,0.727 26.07,1.165 28.09,1.603 30.07,2.242 32.04,2.880 33.94,3.546 35.83,4.212 37.71,4.921 39.60,5.630 41.35,6.321 43.10,7.012 44.56,7.546 46.02,8.080 47.26,8.554 48.51,9.027 50.55,9.831 52.58,10.634 54.19,11.424 55.79,12.214 57.26,13.081 58.72,13.949 60.15,14.882 61.59,15.815 62.93,16.840 64.27,17.866 65.57,18.720 66.86,19.574 68.19,20.575 69.51,21.575 70.64,22.456 71.77,23.337 72.74,24.239 73.71,25.140 75.02,26.617 76.33,28.095 77.33,29.398 78.33,30.701 79.23,32.037 80.13,33.374 80.97,34.645 81.80,35.917 82.72,37.178 83.63,38.440 84.82,40.989 86.00,43.538 85.97,44.078 85.93,44.619 85.73,45.121 85.53,45.624 85.18,46.034 84.82,46.445 84.36,46.722 83.89,46.999 83.36,47.112 82.83,47.226 82.29,47.164 81.75,47.102 81.26,46.872 80.77,46.642 80.38,46.267 79.99,45.892 79.74,45.412 79.49,44.932 79.40,44.397 79.32,43.862 79.41,43.328 79.50,42.794 79.76,42.316 80.01,41.839 80.41,41.469 80.81,41.099 81.30,40.874 81.79,40.649 82.33,40.594 82.87,40.538 83.40,40.658 83.93,40.777 84.39,41.059 84.85,41.341 85.20,41.756 85.55,42.171 85.75,42.676 85.94,43.180 85.97,43.721 86.00,44.262 85.85,44.784 85.70,45.305 85.39,45.751 85.09,46.198 84.65,46.523 84.22,46.849 83.71,47.019 83.19,47.189 82.65,47.185 82.11,47.182 81.60,47.006 81.08,46.830 80.65,46.500 80.22,46.169 79.92,45.719 79.62,45.269 79.48,44.746 79.34,44.223 79.34,44.224 79.34,44.224 78.56,42.924 77.78,41.624 77.04,40.513 76.30,39.402 75.63,38.278 74.96,37.154 74.06,35.728 73.17,34.301 72.33,33.090 71.50,31.878 70.44,30.574 69.39,29.270 68.23,28.105 67.07,26.940 65.93,25.982 64.79,25.023 63.57,24.048 62.34,23.072 61.01,21.998 59.68,20.924 58.50,19.907 57.32,18.891 56.02,17.871 54.72,16.851 53.48,15.921 52.24,14.991 50.72,13.988 49.20,12.985 47.07,11.787 44.94,10.589 43.56,9.910 42.19,9.232 40.49,8.507 38.80,7.781 36.94,7.101 35.07,6.422 33.20,5.791 31.32,5.160 29.46,4.593 27.60,4.026 25.67,3.659 23.74,3.292 21.50,3.052 19.27,2.811 16.72,2.582 14.17,2.352 10.60,2.038 7.03,1.725 5.46,1.730 3.89,1.734 1.98,1.864 0.06,1.994 -0.133,1.978 -0.331,1.962 -0.520,1.898 -0.709,1.835 -0.877,1.729 -1.045,1.622 -1.183,1.479 -1.321,1.335 -1.421,1.162 -1.520,0.990 -1.576,0.798 -1.631,0.607 -1.639,0.408 -1.647,0.209 -1.607,0.014 -1.567,-0.181 -1.482,-0.361 -1.396,-0.541 -1.270,-0.695 -1.144,-0.850 -0.985,-0.969 -0.826,-1.089 -0.642,-1.167 -0.459,-1.245 -0.262,-1.277 Z" fill="#717d8a" stroke="#717d8a" stroke-width="1" stroke-linejoin="round" stroke-linecap="round" pointer-events="none"/></g></g><g id="066f42da-18e9-4707-1c7c-948407681ac6_svg" class="tl-centered-g" transform="translate(1007.98, 337.72) rotate(0.00, 1.57, 20.26)"><g opacity="1"><path d="M2.994,0.000Q2.994,0.000 2.99,0.908 2.99,1.816 3.03,3.649 3.07,5.482 3.10,7.368 3.13,9.253 3.16,10.820 3.19,12.388 3.22,13.891 3.24,15.395 3.28,16.964 3.31,18.533 3.48,20.003 3.65,21.473 3.97,22.887 4.29,24.301 4.63,25.939 4.97,27.577 5.20,29.240 5.44,30.904 5.51,32.241 5.59,33.578 5.80,34.911 6.00,36.244 6.11,37.444 6.22,38.643 6.44,39.185 6.66,39.727 6.69,40.311 6.73,40.895 6.57,41.459 6.42,42.023 6.09,42.509 5.77,42.994 5.30,43.350 4.84,43.706 4.28,43.896 3.73,44.085 3.15,44.088 2.56,44.090 2.01,43.906 1.45,43.722 0.98,43.370 0.52,43.019 0.19,42.536 -0.139,42.054 -0.298,41.491 -0.457,40.928 -0.428,40.344 -0.399,39.760 -0.185,39.216 0.02,38.671 0.40,38.224 0.78,37.777 1.28,37.473 1.78,37.169 2.35,37.041 2.92,36.912 3.50,36.973 4.08,37.034 4.61,37.277 5.14,37.520 5.57,37.920 6.00,38.320 6.27,38.836 6.55,39.351 6.65,39.928 6.74,40.505 6.65,41.082 6.56,41.660 6.29,42.177 6.02,42.695 5.59,43.099 5.17,43.503 4.64,43.751 4.11,43.999 3.53,44.065 2.95,44.131 2.38,44.008 1.81,43.884 1.30,43.585 0.80,43.286 0.42,42.842 0.04,42.398 0.04,42.398 0.04,42.399 -0.571,39.595 -1.189,36.792 -1.353,35.488 -1.518,34.184 -1.585,32.746 -1.653,31.308 -1.847,29.638 -2.042,27.968 -2.363,26.261 -2.684,24.554 -2.896,23.166 -3.109,21.779 -3.212,20.156 -3.315,18.533 -3.282,16.964 -3.248,15.395 -3.222,13.891 -3.196,12.388 -3.165,10.820 -3.133,9.253 -3.103,7.368 -3.074,5.482 -3.032,3.649 -2.990,1.816 -2.992,0.908 -2.994,0.000 -2.951,-0.358 -2.907,-0.717 -2.779,-1.054 -2.651,-1.392 -2.446,-1.689 -2.241,-1.986 -1.971,-2.225 -1.701,-2.464 -1.381,-2.632 -1.062,-2.800 -0.711,-2.886 -0.361,-2.973 0.00,-2.973 0.36,-2.973 0.71,-2.886 1.06,-2.800 1.38,-2.632 1.70,-2.464 1.97,-2.225 2.24,-1.986 2.44,-1.688 2.65,-1.391 2.78,-1.054 2.90,-0.716 2.95,-0.358 Z" fill="#717d8a" stroke="#717d8a" stroke-width="1" stroke-linejoin="round" stroke-linecap="round" pointer-events="none"/></g></g><g id="24ab380d-7308-4122-07ac-97829f397eaa_svg" class="tl-centered-g" transform="translate(995.86, 252.48) rotate(0.00, 0.50, 12.69)"><g opacity="1"><path d="M3.009,0.000Q3.009,0.000 3.01,0.714 3.03,1.427 3.07,3.113 3.11,4.799 3.14,6.252 3.18,7.705 3.20,9.324 3.23,10.943 3.25,12.391 3.27,13.839 3.29,15.271 3.31,16.703 3.34,18.171 3.37,19.638 3.39,22.509 3.42,25.380 3.33,25.927 3.24,26.474 2.98,26.963 2.72,27.453 2.32,27.834 1.92,28.216 1.41,28.448 0.91,28.681 0.36,28.741 -0.186,28.801 -0.727,28.682 -1.268,28.562 -1.743,28.277 -2.218,27.991 -2.577,27.568 -2.936,27.146 -3.141,26.631 -3.346,26.116 -3.376,25.563 -3.406,25.009 -3.258,24.475 -3.109,23.941 -2.798,23.482 -2.487,23.023 -2.046,22.688 -1.604,22.353 -1.079,22.176 -0.554,21.999 0.00,21.999 0.55,21.999 1.08,22.176 1.60,22.353 2.04,22.689 2.48,23.024 2.79,23.483 3.11,23.942 3.25,24.476 3.40,25.010 3.37,25.564 3.34,26.117 3.14,26.632 2.93,27.147 2.57,27.569 2.21,27.991 1.74,28.277 1.26,28.563 0.72,28.682 0.18,28.801 -0.366,28.741 -0.917,28.681 -1.420,28.448 -1.923,28.215 -2.326,27.834 -2.728,27.452 -2.987,26.963 -3.247,26.473 -3.336,25.926 -3.426,25.379 -3.426,25.379 -3.426,25.380 -3.398,22.509 -3.370,19.638 -3.343,18.171 -3.316,16.703 -3.297,15.271 -3.278,13.839 -3.255,12.391 -3.232,10.943 -3.208,9.324 -3.184,7.705 -3.148,6.252 -3.112,4.799 -3.071,3.113 -3.030,1.427 -3.019,0.714 -3.009,0.000 -2.965,-0.360 -2.922,-0.720 -2.793,-1.059 -2.664,-1.398 -2.458,-1.697 -2.252,-1.995 -1.981,-2.236 -1.709,-2.476 -1.388,-2.645 -1.067,-2.813 -0.715,-2.900 -0.363,-2.987 0.00,-2.987 0.36,-2.987 0.71,-2.900 1.06,-2.813 1.38,-2.645 1.70,-2.476 1.98,-2.236 2.25,-1.995 2.45,-1.697 2.66,-1.398 2.79,-1.059 2.92,-0.720 2.96,-0.360 Z" fill="#717d8a" stroke="#717d8a" stroke-width="1" stroke-linejoin="round" stroke-linecap="round" pointer-events="none"/></g></g><g id="b6cf91e8-21d4-4cf2-0404-07913ea068e3_svg" class="tl-centered-g" transform="translate(911.99, 238.38) rotate(0.00, 27.72, 21.97)"><g opacity="1"><path d="M-1.271,41.850Q-1.271,41.850 -0.348,41.264 0.57,40.679 2.53,39.331 4.50,37.984 6.32,36.487 8.15,34.989 9.42,34.169 10.68,33.348 12.10,32.485 13.52,31.621 14.90,30.707 16.27,29.793 17.44,28.927 18.60,28.060 19.67,27.258 20.73,26.455 21.85,25.639 22.97,24.824 24.18,23.972 25.40,23.120 26.52,22.280 27.63,21.440 29.71,19.818 31.78,18.197 33.19,17.237 34.60,16.277 36.08,14.937 37.55,13.598 38.76,12.290 39.98,10.982 41.00,9.946 42.03,8.910 43.23,7.673 44.44,6.436 45.40,5.550 46.37,4.664 47.49,3.350 48.60,2.037 49.72,0.916 50.83,-0.205 51.67,-0.911 52.51,-1.617 52.84,-2.042 53.17,-2.468 53.63,-2.765 54.08,-3.061 54.61,-3.198 55.13,-3.334 55.67,-3.296 56.21,-3.257 56.71,-3.049 57.21,-2.840 57.62,-2.482 58.02,-2.125 58.30,-1.656 58.57,-1.188 58.67,-0.657 58.78,-0.126 58.71,0.411 58.65,0.949 58.41,1.437 58.18,1.924 57.80,2.311 57.42,2.698 56.94,2.944 56.45,3.190 55.92,3.269 55.38,3.347 54.85,3.251 54.32,3.155 53.84,2.893 53.37,2.631 53.00,2.232 52.63,1.833 52.42,1.337 52.20,0.842 52.15,0.303 52.10,-0.237 52.22,-0.764 52.35,-1.291 52.63,-1.750 52.92,-2.210 53.34,-2.553 53.76,-2.897 54.27,-3.089 54.77,-3.281 55.31,-3.302 55.85,-3.322 56.37,-3.168 56.89,-3.015 57.34,-2.703 57.78,-2.392 58.10,-1.955 58.42,-1.519 58.58,-1.002 58.75,-0.486 58.74,0.055 58.73,0.597 58.55,1.107 58.37,1.618 58.37,1.617 58.37,1.617 56.30,3.571 54.23,5.526 53.05,6.478 51.87,7.430 50.95,8.371 50.03,9.312 48.92,10.106 47.80,10.901 46.72,11.779 45.65,12.657 44.52,13.575 43.39,14.494 42.00,15.741 40.60,16.988 38.84,18.319 37.08,19.650 35.75,20.699 34.43,21.748 33.38,22.518 32.33,23.287 31.28,24.085 30.23,24.883 29.06,25.757 27.90,26.632 26.71,27.495 25.52,28.359 24.40,29.154 23.29,29.950 22.23,30.707 21.16,31.464 19.97,32.365 18.79,33.267 17.42,34.334 16.06,35.402 14.73,36.386 13.39,37.370 12.31,38.133 11.23,38.896 9.31,40.445 7.40,41.994 5.27,43.453 3.15,44.913 2.21,45.465 1.27,46.018 1.00,46.139 0.73,46.261 0.44,46.315 0.15,46.370 -0.137,46.353 -0.431,46.336 -0.712,46.250 -0.993,46.164 -1.245,46.012 -1.498,45.861 -1.707,45.654 -1.916,45.447 -2.069,45.195 -2.222,44.944 -2.311,44.664 -2.399,44.383 -2.418,44.089 -2.437,43.796 -2.385,43.506 -2.333,43.217 -2.214,42.948 -2.094,42.679 -1.913,42.447 -1.733,42.214 -1.502,42.032 Z" fill="#717d8a" stroke="#717d8a" stroke-width="1" stroke-linejoin="round" stroke-linecap="round" pointer-events="none"/></g></g><g id="943772d4-b1ab-438e-32c5-4b38834818d2_svg" class="tl-centered-g" transform="translate(840.56, 329.20) rotate(0.00, 22.50, 27.46)"><g opacity="1"><path d="M-1.943,53.063Q-1.943,53.063 -0.969,52.103 0.00,51.142 1.79,49.399 3.57,47.656 5.21,46.069 6.84,44.483 8.37,42.879 9.90,41.275 11.45,39.620 12.99,37.965 14.33,36.226 15.67,34.486 16.73,33.041 17.79,31.596 18.84,30.301 19.89,29.005 20.73,27.782 21.57,26.559 22.54,25.274 23.51,23.989 24.43,22.769 25.35,21.548 26.29,20.405 27.24,19.262 28.07,18.197 28.91,17.132 29.94,15.688 30.97,14.244 32.00,12.828 33.03,11.411 34.08,9.883 35.12,8.354 36.01,7.183 36.89,6.012 37.81,4.873 38.72,3.735 39.43,2.614 40.13,1.492 40.71,0.894 41.29,0.295 41.33,-0.275 41.38,-0.846 41.60,-1.372 41.83,-1.898 42.21,-2.325 42.59,-2.752 43.09,-3.034 43.58,-3.317 44.15,-3.426 44.71,-3.535 45.28,-3.459 45.84,-3.383 46.36,-3.130 46.87,-2.877 47.27,-2.473 47.68,-2.070 47.93,-1.558 48.19,-1.045 48.27,-0.479 48.35,0.088 48.24,0.650 48.13,1.212 47.85,1.711 47.57,2.210 47.15,2.593 46.72,2.976 46.20,3.203 45.67,3.430 45.10,3.478 44.53,3.526 43.98,3.389 43.42,3.252 42.94,2.945 42.46,2.637 42.10,2.192 41.74,1.747 41.54,1.210 41.34,0.674 41.32,0.102 41.31,-0.470 41.47,-1.018 41.64,-1.565 41.97,-2.030 42.31,-2.496 42.77,-2.830 43.23,-3.165 43.78,-3.334 44.33,-3.503 44.90,-3.489 45.47,-3.475 46.01,-3.278 46.55,-3.082 46.99,-2.725 47.44,-2.367 47.75,-1.885 48.06,-1.404 48.20,-0.849 48.34,-0.294 48.34,-0.295 48.34,-0.295 46.92,2.909 45.50,6.113 44.63,7.333 43.76,8.553 42.81,9.642 41.86,10.731 40.96,11.885 40.07,13.040 39.21,14.271 38.36,15.501 37.51,16.625 36.67,17.750 35.62,19.110 34.56,20.470 33.63,21.594 32.70,22.719 31.74,23.783 30.79,24.847 29.90,25.849 29.01,26.851 27.97,28.096 26.94,29.340 25.93,30.571 24.91,31.803 23.99,32.743 23.07,33.684 22.00,34.968 20.93,36.252 19.70,37.871 18.46,39.489 17.63,40.500 16.80,41.511 15.24,43.184 13.67,44.857 12.07,46.511 10.47,48.164 8.81,49.756 7.16,51.348 5.46,53.051 3.77,54.754 2.86,55.769 1.94,56.784 1.69,56.990 1.44,57.195 1.14,57.334 0.85,57.474 0.53,57.539 0.22,57.605 -0.103,57.592 -0.427,57.579 -0.739,57.490 -1.051,57.400 -1.332,57.238 -1.613,57.077 -1.847,56.852 -2.081,56.628 -2.255,56.354 -2.429,56.080 -2.532,55.773 -2.635,55.466 -2.661,55.142 -2.688,54.819 -2.636,54.499 -2.585,54.179 -2.458,53.881 -2.332,53.582 -2.137,53.323 Z" fill="#717d8a" stroke="#717d8a" stroke-width="1" stroke-linejoin="round" stroke-linecap="round" pointer-events="none"/></g></g><g id="7c78ffbb-dc14-42ff-2aae-d6a1acd2c4cf_svg" class="tl-centered-g" transform="translate(907.49, 334.51) rotate(0.00, 3.60, 16.67)"><g opacity="1"><path d="M4.228,33.339Q4.228,33.339 4.23,32.357 4.24,31.375 4.24,29.619 4.23,27.863 4.18,26.100 4.14,24.338 4.10,22.805 4.06,21.272 4.01,19.697 3.97,18.123 3.76,16.538 3.55,14.953 3.05,13.743 2.56,12.533 2.06,11.261 1.55,9.989 1.07,8.757 0.58,7.526 -0.026,6.244 -0.639,4.962 -0.666,4.220 -0.694,3.478 -1.231,3.277 -1.768,3.075 -2.213,2.712 -2.658,2.349 -2.963,1.863 -3.269,1.377 -3.403,0.820 -3.537,0.262 -3.487,-0.310 -3.436,-0.882 -3.205,-1.407 -2.974,-1.933 -2.588,-2.357 -2.202,-2.781 -1.700,-3.060 -1.198,-3.338 -0.634,-3.442 -0.070,-3.546 0.49,-3.465 1.06,-3.383 1.57,-3.124 2.09,-2.865 2.49,-2.456 2.89,-2.048 3.14,-1.532 3.39,-1.016 3.47,-0.446 3.54,0.123 3.43,0.686 3.32,1.248 3.03,1.746 2.74,2.243 2.31,2.623 1.88,3.003 1.35,3.226 0.83,3.449 0.25,3.491 -0.315,3.533 -0.871,3.390 -1.426,3.248 -1.907,2.935 -2.389,2.622 -2.745,2.172 -3.101,1.722 -3.295,1.182 -3.488,0.642 -3.500,0.068 -3.511,-0.506 -3.338,-1.053 -3.166,-1.600 -2.827,-2.064 -2.489,-2.527 -2.020,-2.858 -1.552,-3.190 -1.002,-3.354 -0.452,-3.518 0.12,-3.498 0.69,-3.478 0.69,-3.478 0.69,-3.478 3.44,-0.379 6.19,2.720 6.90,4.443 7.62,6.166 8.13,7.738 8.64,9.310 9.16,10.638 9.69,11.965 9.98,13.489 10.28,15.013 10.36,16.568 10.43,18.123 10.39,19.697 10.34,21.272 10.30,22.805 10.26,24.338 10.21,26.100 10.17,27.863 10.16,29.619 10.16,31.375 10.17,32.357 10.17,33.339 10.13,33.695 10.09,34.051 9.96,34.386 9.83,34.722 9.63,35.017 9.43,35.312 9.16,35.550 8.89,35.788 8.57,35.954 8.25,36.121 7.91,36.207 7.56,36.292 7.20,36.292 6.84,36.292 6.49,36.207 6.14,36.121 5.83,35.954 5.51,35.787 5.24,35.550 4.97,35.312 4.77,35.017 4.56,34.721 4.44,34.386 4.31,34.051 4.27,33.695 Z" fill="#717d8a" stroke="#717d8a" stroke-width="1" stroke-linejoin="round" stroke-linecap="round" pointer-events="none"/></g></g><text font-size="53.096020990893656px" font-family="Caveat Brush" font-weight="normal" line-height="53.096020990893656px" letter-spacing="-0.03em" text-align="left" dominant-baseline="mathematical" alignment-baseline="mathematical" text-anchor="start" fill="#ebbb38" transform="translate(689.73, 265.42) rotate(0.00, 85.50, 31.50)"><tspan y="26.548010495446828px" x="4">useEffect
</tspan></text><text font-size="28px" font-family="Caveat Brush" font-weight="normal" line-height="28px" letter-spacing="-0.03em" text-align="left" dominant-baseline="mathematical" alignment-baseline="mathematical" text-anchor="start" fill="#ebbb38" transform="translate(417.57, 225.60) rotate(0.00, 45.00, 19.00)"><tspan y="14px" x="4">loading...
</tspan></text></svg>