<svg xmlns="http://www.w3.org/2000/svg" viewBox="0 0 1504 688" width="1472" height="656" style="background-color: transparent;"><defs><style>@import url('https://fonts.googleapis.com/css2?family=Caveat+Brush&amp;family=Source+Code+Pro&amp;family=Source+Sans+Pro&amp;family=Crimson+Pro&amp;display=block');</style></defs><g id="c286159d-3cd8-4d6d-2ca8-8004c36d8abf_svg" class="tl-centered-g" transform="translate(16.00, 16.00) rotate(0.00, 736.00, 328.00)"><g pointer-events="none" stroke="transparent" stroke-width="4.23" stroke-linecap="round"><line x1="2.11" y1="2.11" x2="1469.88" y2="2.11" stroke-dasharray="0.03 6.46" stroke-dashoffset="0"/><line x1="1469.88" y1="2.11" x2="1469.88" y2="653.88" stroke-dasharray="0.03 6.48" stroke-dashoffset="0"/><line x1="1469.88" y1="653.88" x2="2.11" y2="653.88" stroke-dasharray="0.03 6.46" stroke-dashoffset="0"/><line x1="2.11" y1="653.88" x2="2.11" y2="2.11" stroke-dasharray="0.03 6.48" stroke-dashoffset="0"/></g></g><g text-align="left" text-anchor="start" fill="#36a64c" transform="translate(212.48, 159.85) rotate(0.00, 63.00, 21.50)"><text y="14" letter-spacing="-0.84" font-size="28px" font-family="Caveat Brush" text-align="left" alignment-baseline="central" transform="scale(1.165392162061834)">/path/path</text></g><g id="f52a5e6c-4c6b-42ab-27ac-01a9ccb145db_svg" class="tl-centered-g" transform="translate(714.62, 96.54) rotate(0.00, 24.68, 235.26)"><g opacity="1"><path d="M 22.26,0.21 Q 22.26,0.21 21.15,0.48 20.04,0.75 18.93,1.31 17.81,1.88 16.66,2.70 15.50,3.51 14.24,4.50 12.97,5.50 11.78,6.54 10.58,7.59 9.58,8.56 8.58,9.53 7.67,10.50 6.76,11.48 5.95,12.44 5.13,13.40 4.49,14.26 3.85,15.13 3.40,15.93 2.95,16.73 2.66,17.57 2.37,18.41 2.21,19.37 2.04,20.32 1.95,21.02 1.86,21.72 1.88,22.51 1.91,23.29 2.13,24.08 2.35,24.87 2.81,25.68 3.27,26.49 3.92,27.38 4.57,28.26 5.38,29.20 6.19,30.14 7.12,31.11 8.06,32.08 9.05,33.01 10.04,33.94 11.22,34.88 12.39,35.81 13.71,36.72 15.03,37.62 16.27,38.42 17.51,39.22 18.61,39.89 19.71,40.55 20.73,41.13 21.74,41.72 22.70,42.30 23.66,42.88 24.56,43.46 25.46,44.05 26.30,44.62 27.15,45.20 27.93,45.78 28.70,46.35 29.40,46.94 30.09,47.53 30.70,48.17 31.31,48.80 31.82,49.46 32.32,50.13 32.72,50.81 33.12,51.49 33.44,52.24 33.76,53.00 34.00,53.90 34.23,54.80 34.37,55.82 34.51,56.83 34.58,57.85 34.66,58.87 34.58,59.88 34.50,60.89 34.06,62.00 33.62,63.11 32.81,64.36 32.00,65.60 30.99,66.88 29.99,68.16 28.81,69.54 27.63,70.92 25.97,72.70 24.31,74.48 23.12,75.77 21.93,77.07 20.75,78.35 19.57,79.63 18.61,80.72 17.64,81.81 16.84,82.77 16.04,83.74 15.29,84.73 14.54,85.73 13.91,86.72 13.27,87.71 12.74,88.66 12.21,89.60 11.81,90.46 11.42,91.33 11.16,92.19 10.91,93.05 10.76,93.89 10.62,94.73 10.55,95.57 10.47,96.41 10.48,97.25 10.49,98.09 10.70,98.85 10.92,99.60 11.43,100.28 11.94,100.96 12.78,101.65 13.62,102.34 14.76,103.04 15.90,103.75 17.23,104.45 18.55,105.14 20.03,105.86 21.50,106.59 23.08,107.32 24.66,108.05 26.12,108.69 27.57,109.34 28.82,109.89 30.06,110.43 31.23,110.98 32.40,111.53 33.50,112.11 34.60,112.69 35.56,113.24 36.51,113.78 37.27,114.31 38.03,114.84 38.60,115.45 39.17,116.05 39.58,116.73 39.98,117.41 40.23,118.14 40.47,118.88 40.61,119.70 40.74,120.53 40.63,121.46 40.51,122.38 39.95,123.49 39.38,124.60 38.32,125.91 37.25,127.23 35.21,129.19 33.18,131.16 31.62,132.58 30.07,133.99 27.85,135.84 25.63,137.68 23.95,139.05 22.28,140.42 20.71,141.67 19.15,142.92 17.58,144.18 16.00,145.44 14.35,146.81 12.70,148.18 11.43,149.33 10.16,150.48 8.96,151.62 7.76,152.76 6.61,153.93 5.46,155.10 4.65,156.13 3.84,157.16 3.21,158.16 2.59,159.17 2.11,160.13 1.63,161.10 1.29,162.04 0.94,162.98 0.73,163.86 0.52,164.74 0.40,165.52 0.28,166.29 0.22,167.04 0.16,167.79 0.18,168.56 0.20,169.34 0.43,170.06 0.65,170.79 1.15,171.45 1.65,172.12 2.43,172.80 3.22,173.48 4.24,174.23 5.26,174.99 6.45,175.78 7.65,176.58 8.99,177.42 10.34,178.26 11.82,179.20 13.30,180.14 14.81,181.21 16.33,182.27 17.77,183.43 19.22,184.59 20.62,185.95 22.03,187.31 23.31,188.83 24.59,190.34 25.61,191.87 26.64,193.40 27.42,194.95 28.20,196.50 28.77,198.09 29.33,199.69 29.80,201.94 30.27,204.19 30.53,205.83 30.79,207.48 30.94,209.27 31.08,211.05 31.03,212.92 30.97,214.78 30.63,216.61 30.28,218.45 29.68,220.30 29.07,222.14 28.33,223.92 27.58,225.70 26.90,227.16 26.22,228.62 25.49,229.93 24.77,231.24 24.01,232.54 23.25,233.84 22.63,234.93 22.00,236.02 21.52,236.89 21.03,237.77 20.69,238.48 20.35,239.18 20.14,239.78 19.93,240.37 19.82,240.87 19.71,241.36 19.76,241.81 19.81,242.26 20.25,242.73 20.70,243.21 21.58,243.73 22.47,244.24 23.74,244.80 25.02,245.36 26.65,245.95 28.29,246.55 29.98,247.12 31.68,247.70 33.24,248.23 34.80,248.75 36.27,249.28 37.74,249.81 39.14,250.35 40.54,250.89 41.81,251.45 43.08,252.01 44.10,252.57 45.13,253.13 45.91,253.62 46.69,254.11 47.25,254.48 47.81,254.85 48.15,255.08 48.50,255.31 48.69,255.47 48.89,255.63 48.97,255.84 49.06,256.06 48.99,256.53 48.93,257.01 48.64,257.82 48.35,258.63 47.86,259.72 47.36,260.81 46.65,262.09 45.95,263.37 45.07,264.79 44.19,266.21 43.18,267.79 42.17,269.37 40.96,271.13 39.75,272.89 38.41,274.73 37.08,276.57 35.76,278.32 34.45,280.06 33.18,281.66 31.90,283.27 30.69,284.78 29.48,286.29 28.62,287.36 27.75,288.43 26.78,289.63 25.80,290.83 25.16,291.66 24.52,292.50 24.03,293.26 23.54,294.02 23.20,294.69 22.87,295.37 22.65,295.99 22.43,296.62 22.31,297.22 22.19,297.82 22.13,298.41 22.06,299.00 22.19,299.55 22.33,300.10 22.75,300.68 23.16,301.25 23.72,301.88 24.29,302.50 24.99,303.14 25.69,303.79 26.43,304.42 27.17,305.05 27.82,305.68 28.48,306.31 29.08,306.97 29.68,307.62 30.20,308.32 30.73,309.01 31.17,309.81 31.61,310.61 31.93,311.54 32.24,312.48 32.43,313.57 32.62,314.66 32.53,316.08 32.44,317.50 31.79,319.34 31.15,321.19 29.88,323.41 28.62,325.62 26.83,328.12 25.04,330.63 23.08,333.11 21.12,335.59 19.18,337.93 17.23,340.26 15.44,342.40 13.65,344.54 12.09,346.43 10.53,348.31 9.16,349.96 7.79,351.60 6.67,352.97 5.55,354.35 4.70,355.50 3.86,356.65 3.32,357.68 2.78,358.71 2.47,359.65 2.17,360.59 2.19,361.44 2.22,362.30 2.73,363.02 3.24,363.74 4.30,364.51 5.36,365.28 6.69,365.96 8.03,366.65 9.72,367.35 11.40,368.06 13.28,368.84 15.16,369.61 16.94,370.34 18.73,371.07 20.33,371.77 21.93,372.46 23.43,373.13 24.93,373.80 26.34,374.51 27.74,375.22 28.98,376.02 30.21,376.83 31.10,377.66 31.99,378.50 32.52,379.41 33.06,380.32 33.33,381.39 33.61,382.47 33.60,383.77 33.60,385.07 33.19,386.62 32.78,388.16 32.07,389.76 31.36,391.36 30.58,392.83 29.81,394.30 29.01,395.72 28.21,397.13 27.41,398.54 26.61,399.95 25.91,401.27 25.22,402.59 24.66,403.87 24.10,405.15 23.68,406.43 23.27,407.71 23.01,408.90 22.76,410.09 22.67,411.17 22.59,412.25 22.77,413.24 22.96,414.23 23.48,415.18 24.00,416.13 24.77,417.03 25.54,417.93 26.40,418.70 27.26,419.48 28.09,420.13 28.93,420.78 29.70,421.34 30.48,421.91 31.23,422.48 31.99,423.05 32.66,423.76 33.33,424.48 33.74,425.05 34.14,425.62 34.40,426.28 34.66,426.94 34.80,427.75 34.94,428.56 34.85,429.62 34.77,430.69 34.34,431.91 33.91,433.13 33.35,434.32 32.79,435.51 32.20,436.69 31.60,437.86 30.92,439.13 30.23,440.40 29.54,441.67 28.86,442.94 28.31,444.07 27.75,445.20 27.33,446.19 26.91,447.19 26.64,448.19 26.36,449.19 26.21,450.25 26.05,451.32 25.97,452.39 25.88,453.47 25.84,454.55 25.79,455.63 25.76,456.72 25.74,457.80 25.75,458.87 25.75,459.94 25.82,461.03 25.89,462.11 26.00,463.16 26.12,464.21 26.25,465.13 26.38,466.05 26.52,466.80 26.65,467.56 26.77,468.15 26.88,468.74 27.04,469.63 27.21,470.53 27.21,470.53" fill="none" stroke="none" stroke-width="4" stroke-linejoin="round" stroke-linecap="round" pointer-events="none"/><path d="M 22.26,0.21 Q 22.26,0.21 21.15,0.48 20.04,0.75 18.93,1.31 17.81,1.88 16.66,2.70 15.50,3.51 14.24,4.50 12.97,5.50 11.78,6.54 10.58,7.59 9.58,8.56 8.58,9.53 7.67,10.50 6.76,11.48 5.95,12.44 5.13,13.40 4.49,14.26 3.85,15.13 3.40,15.93 2.95,16.73 2.66,17.57 2.37,18.41 2.21,19.37 2.04,20.32 1.95,21.02 1.86,21.72 1.88,22.51 1.91,23.29 2.13,24.08 2.35,24.87 2.81,25.68 3.27,26.49 3.92,27.38 4.57,28.26 5.38,29.20 6.19,30.14 7.12,31.11 8.06,32.08 9.05,33.01 10.04,33.94 11.22,34.88 12.39,35.81 13.71,36.72 15.03,37.62 16.27,38.42 17.51,39.22 18.61,39.89 19.71,40.55 20.73,41.13 21.74,41.72 22.70,42.30 23.66,42.88 24.56,43.46 25.46,44.05 26.30,44.62 27.15,45.20 27.93,45.78 28.70,46.35 29.40,46.94 30.09,47.53 30.70,48.17 31.31,48.80 31.82,49.46 32.32,50.13 32.72,50.81 33.12,51.49 33.44,52.24 33.76,53.00 34.00,53.90 34.23,54.80 34.37,55.82 34.51,56.83 34.58,57.85 34.66,58.87 34.58,59.88 34.50,60.89 34.06,62.00 33.62,63.11 32.81,64.36 32.00,65.60 30.99,66.88 29.99,68.16 28.81,69.54 27.63,70.92 25.97,72.70 24.31,74.48 23.12,75.77 21.93,77.07 20.75,78.35 19.57,79.63 18.61,80.72 17.64,81.81 16.84,82.77 16.04,83.74 15.29,84.73 14.54,85.73 13.91,86.72 13.27,87.71 12.74,88.66 12.21,89.60 11.81,90.46 11.42,91.33 11.16,92.19 10.91,93.05 10.76,93.89 10.62,94.73 10.55,95.57 10.47,96.41 10.48,97.25 10.49,98.09 10.70,98.85 10.92,99.60 11.43,100.28 11.94,100.96 12.78,101.65 13.62,102.34 14.76,103.04 15.90,103.75 17.23,104.45 18.55,105.14 20.03,105.86 21.50,106.59 23.08,107.32 24.66,108.05 26.12,108.69 27.57,109.34 28.82,109.89 30.06,110.43 31.23,110.98 32.40,111.53 33.50,112.11 34.60,112.69 35.56,113.24 36.51,113.78 37.27,114.31 38.03,114.84 38.60,115.45 39.17,116.05 39.58,116.73 39.98,117.41 40.23,118.14 40.47,118.88 40.61,119.70 40.74,120.53 40.63,121.46 40.51,122.38 39.95,123.49 39.38,124.60 38.32,125.91 37.25,127.23 35.21,129.19 33.18,131.16 31.62,132.58 30.07,133.99 27.85,135.84 25.63,137.68 23.95,139.05 22.28,140.42 20.71,141.67 19.15,142.92 17.58,144.18 16.00,145.44 14.35,146.81 12.70,148.18 11.43,149.33 10.16,150.48 8.96,151.62 7.76,152.76 6.61,153.93 5.46,155.10 4.65,156.13 3.84,157.16 3.21,158.16 2.59,159.17 2.11,160.13 1.63,161.10 1.29,162.04 0.94,162.98 0.73,163.86 0.52,164.74 0.40,165.52 0.28,166.29 0.22,167.04 0.16,167.79 0.18,168.56 0.20,169.34 0.43,170.06 0.65,170.79 1.15,171.45 1.65,172.12 2.43,172.80 3.22,173.48 4.24,174.23 5.26,174.99 6.45,175.78 7.65,176.58 8.99,177.42 10.34,178.26 11.82,179.20 13.30,180.14 14.81,181.21 16.33,182.27 17.77,183.43 19.22,184.59 20.62,185.95 22.03,187.31 23.31,188.83 24.59,190.34 25.61,191.87 26.64,193.40 27.42,194.95 28.20,196.50 28.77,198.09 29.33,199.69 29.80,201.94 30.27,204.19 30.53,205.83 30.79,207.48 30.94,209.27 31.08,211.05 31.03,212.92 30.97,214.78 30.63,216.61 30.28,218.45 29.68,220.30 29.07,222.14 28.33,223.92 27.58,225.70 26.90,227.16 26.22,228.62 25.49,229.93 24.77,231.24 24.01,232.54 23.25,233.84 22.63,234.93 22.00,236.02 21.52,236.89 21.03,237.77 20.69,238.48 20.35,239.18 20.14,239.78 19.93,240.37 19.82,240.87 19.71,241.36 19.76,241.81 19.81,242.26 20.25,242.73 20.70,243.21 21.58,243.73 22.47,244.24 23.74,244.80 25.02,245.36 26.65,245.95 28.29,246.55 29.98,247.12 31.68,247.70 33.24,248.23 34.80,248.75 36.27,249.28 37.74,249.81 39.14,250.35 40.54,250.89 41.81,251.45 43.08,252.01 44.10,252.57 45.13,253.13 45.91,253.62 46.69,254.11 47.25,254.48 47.81,254.85 48.15,255.08 48.50,255.31 48.69,255.47 48.89,255.63 48.97,255.84 49.06,256.06 48.99,256.53 48.93,257.01 48.64,257.82 48.35,258.63 47.86,259.72 47.36,260.81 46.65,262.09 45.95,263.37 45.07,264.79 44.19,266.21 43.18,267.79 42.17,269.37 40.96,271.13 39.75,272.89 38.41,274.73 37.08,276.57 35.76,278.32 34.45,280.06 33.18,281.66 31.90,283.27 30.69,284.78 29.48,286.29 28.62,287.36 27.75,288.43 26.78,289.63 25.80,290.83 25.16,291.66 24.52,292.50 24.03,293.26 23.54,294.02 23.20,294.69 22.87,295.37 22.65,295.99 22.43,296.62 22.31,297.22 22.19,297.82 22.13,298.41 22.06,299.00 22.19,299.55 22.33,300.10 22.75,300.68 23.16,301.25 23.72,301.88 24.29,302.50 24.99,303.14 25.69,303.79 26.43,304.42 27.17,305.05 27.82,305.68 28.48,306.31 29.08,306.97 29.68,307.62 30.20,308.32 30.73,309.01 31.17,309.81 31.61,310.61 31.93,311.54 32.24,312.48 32.43,313.57 32.62,314.66 32.53,316.08 32.44,317.50 31.79,319.34 31.15,321.19 29.88,323.41 28.62,325.62 26.83,328.12 25.04,330.63 23.08,333.11 21.12,335.59 19.18,337.93 17.23,340.26 15.44,342.40 13.65,344.54 12.09,346.43 10.53,348.31 9.16,349.96 7.79,351.60 6.67,352.97 5.55,354.35 4.70,355.50 3.86,356.65 3.32,357.68 2.78,358.71 2.47,359.65 2.17,360.59 2.19,361.44 2.22,362.30 2.73,363.02 3.24,363.74 4.30,364.51 5.36,365.28 6.69,365.96 8.03,366.65 9.72,367.35 11.40,368.06 13.28,368.84 15.16,369.61 16.94,370.34 18.73,371.07 20.33,371.77 21.93,372.46 23.43,373.13 24.93,373.80 26.34,374.51 27.74,375.22 28.98,376.02 30.21,376.83 31.10,377.66 31.99,378.50 32.52,379.41 33.06,380.32 33.33,381.39 33.61,382.47 33.60,383.77 33.60,385.07 33.19,386.62 32.78,388.16 32.07,389.76 31.36,391.36 30.58,392.83 29.81,394.30 29.01,395.72 28.21,397.13 27.41,398.54 26.61,399.95 25.91,401.27 25.22,402.59 24.66,403.87 24.10,405.15 23.68,406.43 23.27,407.71 23.01,408.90 22.76,410.09 22.67,411.17 22.59,412.25 22.77,413.24 22.96,414.23 23.48,415.18 24.00,416.13 24.77,417.03 25.54,417.93 26.40,418.70 27.26,419.48 28.09,420.13 28.93,420.78 29.70,421.34 30.48,421.91 31.23,422.48 31.99,423.05 32.66,423.76 33.33,424.48 33.74,425.05 34.14,425.62 34.40,426.28 34.66,426.94 34.80,427.75 34.94,428.56 34.85,429.62 34.77,430.69 34.34,431.91 33.91,433.13 33.35,434.32 32.79,435.51 32.20,436.69 31.60,437.86 30.92,439.13 30.23,440.40 29.54,441.67 28.86,442.94 28.31,444.07 27.75,445.20 27.33,446.19 26.91,447.19 26.64,448.19 26.36,449.19 26.21,450.25 26.05,451.32 25.97,452.39 25.88,453.47 25.84,454.55 25.79,455.63 25.76,456.72 25.74,457.80 25.75,458.87 25.75,459.94 25.82,461.03 25.89,462.11 26.00,463.16 26.12,464.21 26.25,465.13 26.38,466.05 26.52,466.80 26.65,467.56 26.77,468.15 26.88,468.74 27.04,469.63 27.21,470.53 27.21,470.53" fill="none" stroke="#717d8a" stroke-width="4" stroke-dasharray="0.1 8" stroke-dashoffset="0" stroke-linejoin="round" stroke-linecap="round" pointer-events="none"/></g></g><g text-align="left" text-anchor="start" fill="#cecece" transform="translate(262.87, 50.24) rotate(0.00, 75.00, 43.50)"><text y="14" letter-spacing="-0.84" font-size="28px" font-family="Caveat Brush" text-align="left" alignment-baseline="central" transform="scale(2.7536777269002877)">client</text></g><g id="3f210b50-00c9-40c3-301e-3f6510cd4967_svg" class="tl-centered-g" transform="translate(83.21, 144.79) rotate(0.00, 259.89, 224.72)"><path d="M 520.49,87.00 Q 520.49,87.00 520.46,93.05 520.43,99.11 520.40,106.71 520.37,114.31 520.35,122.31 520.32,130.30 520.29,138.39 520.26,146.49 520.23,154.61 520.20,162.73 520.17,170.86 520.14,178.98 520.11,187.11 520.09,195.24 520.06,203.37 520.03,211.50 520.02,219.63 520.02,227.76 520.04,235.89 520.06,244.01 520.08,252.14 520.10,260.27 520.11,268.40 520.13,276.53 520.15,284.66 520.17,292.79 520.19,300.92 520.21,309.05 520.23,317.18 520.25,325.30 520.27,333.43 520.29,341.56 520.31,349.69 520.33,357.82 520.35,365.95 520.37,374.08 520.38,382.21 520.40,390.34 520.42,398.47 520.44,406.60 520.46,414.72 520.48,422.85 520.50,431.01 520.51,439.16 518.64,443.26 516.77,447.36 509.94,448.50 503.10,449.63 495.24,449.85 487.37,450.06 479.25,450.09 471.12,450.12 462.93,450.10 454.74,450.09 446.53,450.07 438.32,450.04 430.10,450.01 421.89,449.99 413.67,449.96 405.45,449.93 397.24,449.90 389.02,449.87 380.80,449.84 372.59,449.82 364.37,449.79 356.15,449.76 347.94,449.73 339.72,449.70 331.50,449.67 323.29,449.64 315.07,449.61 306.85,449.59 298.64,449.56 290.42,449.53 282.20,449.50 273.99,449.47 265.77,449.46 257.55,449.46 249.34,449.47 241.12,449.48 232.90,449.50 224.69,449.51 216.47,449.52 208.25,449.54 200.04,449.55 191.82,449.56 183.60,449.58 175.39,449.59 167.17,449.60 158.95,449.62 150.73,449.63 142.52,449.64 134.30,449.66 126.08,449.67 117.87,449.68 109.65,449.70 101.43,449.71 93.22,449.72 85.00,449.74 76.78,449.75 68.57,449.76 60.35,449.78 52.13,449.79 43.92,449.80 35.70,449.82 27.48,449.83 19.24,449.84 11.00,449.85 6.88,447.98 2.76,446.11 1.61,439.35 0.47,432.58 0.26,424.80 0.05,417.02 0.02,408.99 -0.01,400.96 0.00,392.86 0.01,384.76 0.03,376.65 0.06,368.53 0.09,360.41 0.11,352.29 0.14,344.17 0.17,336.05 0.20,327.92 0.23,319.80 0.25,311.68 0.28,303.56 0.31,295.43 0.34,287.31 0.37,279.19 0.39,271.07 0.42,262.94 0.45,254.82 0.48,246.70 0.51,238.58 0.51,230.45 0.52,222.33 0.50,214.21 0.48,206.09 0.46,197.96 0.44,189.84 0.42,181.72 0.40,173.60 0.38,165.47 0.36,157.35 0.34,149.23 0.32,141.11 0.30,132.99 0.28,124.86 0.26,116.74 0.24,108.62 0.22,100.50 0.20,92.37 0.18,84.25 0.16,76.13 0.14,68.01 0.12,59.88 0.10,51.76 0.08,43.64 0.06,35.52 0.04,27.39 0.02,19.25 0.01,11.10 1.88,7.00 3.74,2.90 10.58,1.76 17.41,0.62 25.28,0.40 33.15,0.19 41.27,0.15 49.40,0.12 57.59,0.12 65.78,0.13 73.99,0.15 82.20,0.17 90.42,0.19 98.64,0.21 106.85,0.24 115.07,0.26 123.29,0.28 131.50,0.30 139.72,0.33 147.94,0.35 156.16,0.37 164.37,0.40 172.59,0.42 180.81,0.44 189.02,0.46 197.24,0.49 205.46,0.51 213.68,0.53 221.89,0.56 230.11,0.58 238.33,0.60 246.55,0.62 254.76,0.63 262.98,0.63 271.20,0.61 279.42,0.59 287.63,0.57 295.85,0.55 304.07,0.53 312.29,0.51 320.50,0.49 328.72,0.48 336.94,0.46 345.15,0.44 353.37,0.42 361.59,0.40 369.81,0.38 378.02,0.36 386.24,0.34 394.46,0.32 402.68,0.30 410.89,0.28 419.11,0.27 427.33,0.25 435.55,0.23 443.76,0.21 451.98,0.19 460.20,0.17 468.41,0.15 476.63,0.13 484.85,0.11 493.07,0.09 501.31,0.08 509.55,0.07 513.67,1.93 517.80,3.80 518.94,10.57 520.08,17.34 520.29,25.12 520.50,32.91 520.53,40.95 520.57,48.98 520.55,57.09 520.54,65.19 520.51,73.32 520.49,81.44 520.46,89.57 520.43,97.69 520.40,105.82 520.37,113.95 520.35,122.08 520.32,130.21 520.29,138.34 520.26,146.47 520.23,154.60 520.20,162.72 520.17,170.85 520.14,178.98 520.11,187.11 520.09,195.24 520.06,203.37 520.03,211.50 520.02,219.63 520.02,227.76 520.04,235.89 520.06,244.01 520.07,254.93 520.09,265.84 520.06,266.02 520.03,266.19 519.95,266.36 519.86,266.52 519.73,266.64 519.60,266.76 519.44,266.84 519.27,266.92 519.09,266.94 518.91,266.96 518.73,266.92 518.56,266.88 518.40,266.78 518.25,266.69 518.13,266.55 518.01,266.41 517.94,266.25 517.88,266.08 517.87,265.90 517.86,265.71 517.91,265.54 517.96,265.37 518.06,265.22 518.16,265.07 518.30,264.96 518.45,264.85 518.62,264.79 518.79,264.73 518.97,264.73 519.15,264.73 519.33,264.79 519.50,264.85 519.64,264.96 519.79,265.07 519.89,265.22 519.99,265.37 520.04,265.54 520.09,265.72 520.08,265.90 520.07,266.08 520.00,266.25 519.93,266.41 519.81,266.55 519.70,266.69 519.54,266.78 519.39,266.88 519.21,266.92 519.03,266.96 518.85,266.94 518.67,266.92 518.51,266.84 518.34,266.76 518.21,266.64 518.08,266.51 517.99,266.35 517.91,266.19 517.88,266.01 517.85,265.84 517.85,265.84 517.85,265.84 517.88,254.92 517.91,244.01 517.94,235.88 517.97,227.75 517.98,219.63 517.98,211.50 517.96,203.37 517.94,195.24 517.92,187.11 517.90,178.98 517.88,170.85 517.86,162.72 517.85,154.59 517.83,146.46 517.81,138.34 517.79,130.21 517.77,122.08 517.75,113.95 517.73,105.82 517.71,97.69 517.69,89.56 517.67,81.44 517.65,73.32 517.62,65.20 517.59,57.10 517.55,49.00 517.48,41.00 517.40,33.00 517.15,25.39 516.91,17.78 516.23,11.68 515.55,5.58 512.50,4.46 509.45,3.35 501.26,3.33 493.07,3.31 484.85,3.29 476.63,3.26 468.41,3.24 460.20,3.22 451.98,3.20 443.76,3.17 435.54,3.15 427.33,3.13 419.11,3.10 410.89,3.08 402.68,3.06 394.46,3.04 386.24,3.01 378.02,2.99 369.81,2.97 361.59,2.94 353.37,2.92 345.15,2.90 336.94,2.88 328.72,2.85 320.50,2.83 312.28,2.81 304.07,2.78 295.85,2.76 287.63,2.74 279.42,2.72 271.20,2.69 262.98,2.67 254.76,2.67 246.55,2.67 238.33,2.69 230.11,2.70 221.89,2.72 213.68,2.74 205.46,2.76 197.24,2.78 189.02,2.80 180.81,2.82 172.59,2.84 164.37,2.86 156.16,2.88 147.94,2.89 139.72,2.91 131.50,2.93 123.29,2.95 115.07,2.97 106.85,2.99 98.64,3.01 90.42,3.03 82.20,3.05 74.00,3.07 65.79,3.10 57.60,3.13 49.42,3.16 41.33,3.24 33.24,3.32 25.55,3.56 17.86,3.81 11.69,4.48 5.52,5.15 4.40,8.18 3.29,11.20 3.27,19.30 3.24,27.40 3.21,35.52 3.19,43.64 3.16,51.76 3.13,59.88 3.10,68.01 3.07,76.13 3.04,84.25 3.02,92.37 2.99,100.50 2.96,108.62 2.93,116.74 2.90,124.86 2.87,132.99 2.85,141.11 2.82,149.23 2.79,157.35 2.76,165.48 2.73,173.60 2.71,181.72 2.68,189.84 2.65,197.97 2.62,206.09 2.59,214.21 2.56,222.33 2.56,230.46 2.56,238.58 2.58,246.70 2.60,254.82 2.62,262.95 2.64,271.07 2.66,279.19 2.68,287.31 2.70,295.43 2.71,303.56 2.73,311.68 2.75,319.80 2.77,327.92 2.79,336.05 2.81,344.17 2.84,352.29 2.86,360.41 2.88,368.53 2.90,376.65 2.92,384.76 2.96,392.85 2.99,400.94 3.07,408.93 3.15,416.93 3.40,424.53 3.64,432.13 4.32,438.23 5.00,444.33 8.05,445.45 11.10,446.56 19.29,446.59 27.49,446.61 35.70,446.64 43.92,446.67 52.14,446.70 60.35,446.73 68.57,446.76 76.79,446.78 85.00,446.81 93.22,446.84 101.44,446.87 109.65,446.90 117.87,446.93 126.09,446.96 134.30,446.98 142.52,447.01 150.74,447.04 158.95,447.07 167.17,447.10 175.39,447.13 183.60,447.16 191.82,447.19 200.04,447.21 208.25,447.24 216.47,447.27 224.69,447.30 232.90,447.33 241.12,447.36 249.34,447.39 257.56,447.41 265.77,447.42 273.99,447.43 282.21,447.42 290.42,447.40 298.64,447.39 306.86,447.38 315.07,447.36 323.29,447.35 331.51,447.34 339.72,447.32 347.94,447.31 356.16,447.30 364.37,447.28 372.59,447.27 380.81,447.26 389.02,447.24 397.24,447.23 405.46,447.22 413.67,447.20 421.89,447.19 430.10,447.18 438.32,447.16 446.53,447.14 454.74,447.13 462.92,447.10 471.10,447.07 479.19,447.00 487.28,446.93 494.97,446.69 502.66,446.45 508.83,445.78 515.00,445.11 516.11,442.09 517.23,439.06 517.25,430.96 517.28,422.85 517.31,414.72 517.33,406.59 517.36,398.46 517.39,390.34 517.42,382.21 517.45,374.08 517.48,365.95 517.51,357.82 517.54,349.69 517.57,341.56 517.59,333.43 517.62,325.30 517.65,317.17 517.68,309.05 517.71,300.92 517.74,292.79 517.77,284.66 517.80,276.53 517.83,268.40 517.85,260.27 517.88,252.14 517.91,244.01 517.94,235.88 517.97,227.76 517.98,219.63 517.98,211.50 517.96,203.37 517.94,195.24 517.92,187.11 517.90,178.98 517.88,170.86 517.86,162.73 517.85,154.61 517.83,146.49 517.81,138.39 517.79,130.30 517.77,122.30 517.75,114.31 517.73,106.71 517.71,99.11 517.69,93.05 517.67,87.00 517.69,86.83 517.71,86.66 517.77,86.50 517.83,86.34 517.93,86.20 518.02,86.06 518.15,85.95 518.28,85.84 518.43,85.76 518.58,85.68 518.74,85.64 518.91,85.60 519.08,85.60 519.25,85.60 519.41,85.64 519.58,85.68 519.73,85.76 519.88,85.84 520.01,85.95 520.13,86.06 520.23,86.20 520.33,86.34 520.39,86.50 520.45,86.66 520.47,86.83 Z" fill="#cecece" stroke="#cecece" stroke-width="2" pointer-events="none"/></g><g id="44050360-ae63-4468-087d-004f9e4ab337_svg" class="tl-centered-g" transform="translate(93.70, 156.86) rotate(0.00, 247.59, 29.25)"><path d="M 406.12,59.58 Q 406.12,59.58 399.91,59.56 393.69,59.53 385.89,59.50 378.09,59.47 369.88,59.44 361.67,59.41 353.36,59.38 345.06,59.35 336.72,59.32 328.38,59.29 320.04,59.26 311.70,59.23 303.36,59.20 295.01,59.17 286.67,59.14 278.32,59.11 269.98,59.08 261.63,59.05 253.29,59.04 244.94,59.03 236.60,59.05 228.25,59.06 219.91,59.08 211.57,59.09 203.22,59.11 194.88,59.12 186.53,59.14 178.19,59.15 169.84,59.17 161.50,59.18 153.15,59.20 144.81,59.21 136.46,59.23 128.12,59.24 119.77,59.26 111.43,59.27 103.08,59.29 94.74,59.30 86.39,59.32 78.05,59.33 69.71,59.34 61.36,59.36 53.02,59.37 44.67,59.39 36.33,59.40 27.98,59.42 19.61,59.43 11.25,59.44 7.17,57.70 3.09,55.97 1.94,52.62 0.78,49.28 0.59,45.75 0.40,42.22 0.41,38.72 0.42,35.22 0.39,31.73 0.35,28.24 0.24,24.75 0.12,21.26 0.00,17.76 -0.10,14.27 -0.19,10.71 -0.29,7.15 1.54,4.24 3.38,1.33 10.36,0.52 17.35,-0.29 25.31,-0.43 33.28,-0.56 41.54,-0.58 49.79,-0.60 58.12,-0.59 66.45,-0.58 74.80,-0.56 83.15,-0.54 91.50,-0.52 99.86,-0.50 108.21,-0.47 116.57,-0.45 124.93,-0.43 133.28,-0.41 141.64,-0.39 150.00,-0.37 158.35,-0.34 166.71,-0.32 175.07,-0.30 183.42,-0.28 191.78,-0.26 200.13,-0.24 208.49,-0.21 216.85,-0.19 225.20,-0.17 233.56,-0.15 241.92,-0.15 250.27,-0.15 258.63,-0.17 266.99,-0.20 275.34,-0.22 283.70,-0.24 292.06,-0.27 300.41,-0.29 308.77,-0.31 317.13,-0.33 325.48,-0.36 333.84,-0.38 342.19,-0.40 350.55,-0.43 358.91,-0.45 367.26,-0.47 375.62,-0.50 383.98,-0.52 392.33,-0.54 400.69,-0.57 409.05,-0.59 417.40,-0.61 425.76,-0.63 434.12,-0.66 442.47,-0.68 450.83,-0.70 459.18,-0.73 467.54,-0.75 475.92,-0.77 484.30,-0.79 488.39,0.95 492.48,2.69 493.59,6.06 494.70,9.43 494.85,12.99 494.99,16.55 494.93,20.08 494.87,23.61 494.86,27.14 494.85,30.66 494.91,34.19 494.98,37.72 495.05,41.25 495.11,44.78 495.16,48.37 495.20,51.96 493.35,54.87 491.50,57.78 484.52,58.59 477.55,59.41 469.59,59.53 461.63,59.66 453.39,59.67 445.14,59.68 436.83,59.66 428.51,59.64 420.17,59.62 411.83,59.59 403.49,59.56 395.15,59.53 386.80,59.50 378.46,59.47 370.11,59.44 361.77,59.41 353.42,59.38 345.08,59.35 336.73,59.32 328.39,59.29 320.05,59.26 311.70,59.23 303.36,59.20 295.01,59.17 286.67,59.14 278.32,59.11 269.98,59.08 261.63,59.05 253.29,59.04 244.94,59.03 236.60,59.05 228.25,59.06 217.05,59.08 205.85,59.09 205.68,59.06 205.50,59.03 205.34,58.94 205.18,58.86 205.06,58.73 204.93,58.60 204.86,58.44 204.78,58.27 204.76,58.09 204.74,57.91 204.78,57.74 204.82,57.56 204.91,57.41 205.01,57.26 205.14,57.14 205.28,57.02 205.45,56.96 205.62,56.89 205.80,56.88 205.97,56.87 206.15,56.92 206.32,56.97 206.47,57.07 206.62,57.17 206.73,57.31 206.84,57.46 206.89,57.63 206.95,57.80 206.95,57.98 206.95,58.16 206.89,58.33 206.84,58.50 206.73,58.64 206.62,58.78 206.47,58.88 206.32,58.99 206.15,59.03 205.97,59.08 205.79,59.07 205.61,59.06 205.45,58.99 205.28,58.93 205.14,58.81 205.01,58.69 204.91,58.54 204.82,58.39 204.78,58.21 204.74,58.03 204.76,57.86 204.78,57.68 204.86,57.51 204.93,57.35 205.06,57.22 205.18,57.09 205.34,57.01 205.50,56.92 205.68,56.89 205.85,56.86 205.85,56.86 205.85,56.86 217.06,56.90 228.26,56.93 236.60,56.96 244.95,56.99 253.29,57.00 261.63,57.00 269.98,56.99 278.32,56.97 286.67,56.96 295.01,56.95 303.36,56.93 311.70,56.92 320.05,56.90 328.39,56.89 336.74,56.87 345.08,56.86 353.43,56.84 361.77,56.83 370.12,56.81 378.46,56.80 386.80,56.78 395.15,56.77 403.49,56.75 411.83,56.74 420.17,56.72 428.51,56.70 436.82,56.68 445.13,56.65 453.35,56.60 461.57,56.54 469.41,56.38 477.25,56.21 483.47,55.81 489.69,55.42 490.83,53.55 491.98,51.68 492.08,48.22 492.18,44.75 492.30,41.23 492.43,37.70 492.54,34.18 492.66,30.65 492.67,27.14 492.69,23.63 492.56,20.17 492.44,16.71 492.17,13.48 491.90,10.25 491.21,7.61 490.52,4.96 487.36,3.72 484.21,2.49 475.87,2.47 467.54,2.45 459.19,2.43 450.83,2.41 442.47,2.39 434.12,2.36 425.76,2.34 417.40,2.32 409.05,2.30 400.69,2.28 392.33,2.25 383.98,2.23 375.62,2.21 367.26,2.19 358.91,2.17 350.55,2.15 342.19,2.12 333.84,2.10 325.48,2.08 317.13,2.06 308.77,2.04 300.41,2.02 292.06,1.99 283.70,1.97 275.34,1.95 266.99,1.93 258.63,1.91 250.27,1.88 241.92,1.89 233.56,1.89 225.20,1.91 216.85,1.93 208.49,1.96 200.14,1.98 191.78,2.00 183.42,2.02 175.07,2.05 166.71,2.07 158.35,2.09 150.00,2.12 141.64,2.14 133.28,2.16 124.93,2.19 116.57,2.21 108.21,2.23 99.86,2.26 91.50,2.28 83.15,2.30 74.80,2.33 66.45,2.35 58.13,2.39 49.80,2.42 41.57,2.48 33.34,2.55 25.49,2.72 17.64,2.89 11.41,3.29 5.19,3.69 4.06,5.54 2.93,7.40 2.87,10.83 2.82,14.25 2.75,17.74 2.68,21.24 2.61,24.73 2.54,28.22 2.57,31.70 2.61,35.17 2.78,38.60 2.95,42.02 3.27,45.22 3.58,48.42 4.30,51.04 5.03,53.66 8.18,54.91 11.34,56.16 19.66,56.18 27.99,56.21 36.33,56.24 44.67,56.27 53.02,56.30 61.36,56.33 69.71,56.36 78.05,56.39 86.40,56.42 94.74,56.45 103.09,56.48 111.43,56.51 119.78,56.54 128.12,56.57 136.47,56.60 144.81,56.63 153.15,56.66 161.50,56.69 169.84,56.72 178.19,56.75 186.53,56.78 194.88,56.81 203.22,56.84 211.57,56.87 219.91,56.90 228.26,56.93 236.60,56.96 244.95,56.99 253.29,57.00 261.63,57.00 269.98,56.99 278.32,56.97 286.67,56.96 295.01,56.95 303.36,56.93 311.70,56.92 320.04,56.90 328.39,56.89 336.72,56.87 345.06,56.86 353.37,56.84 361.68,56.83 369.88,56.81 378.09,56.80 385.89,56.78 393.69,56.77 399.91,56.75 406.13,56.73 406.30,56.75 406.47,56.77 406.63,56.84 406.79,56.90 406.93,56.99 407.07,57.09 407.19,57.22 407.30,57.35 407.38,57.50 407.46,57.65 407.50,57.82 407.54,57.99 407.54,58.16 407.54,58.33 407.50,58.50 407.46,58.67 407.38,58.82 407.30,58.97 407.18,59.10 407.07,59.23 406.93,59.32 406.79,59.42 406.63,59.48 406.47,59.54 406.29,59.56 Z" fill="#cecece" stroke="#cecece" stroke-width="2" pointer-events="none"/></g><g text-align="left" text-anchor="start" fill="#cecece" transform="translate(103.62, 159.43) rotate(0.00, 55.00, 24.50)"><text y="14" letter-spacing="-0.84" font-size="28px" font-family="Caveat Brush" text-align="left" alignment-baseline="central" transform="scale(1.3841856952170655)">site.com</text></g><g id="31ddc19f-55db-44f9-1e84-d4aaf9d71970_svg" class="tl-centered-g" transform="translate(102.64, 231.95) rotate(0.00, 237.96, 1.43)"><defs><mask id="31ddc19f-55db-44f9-1e84-d4aaf9d71970_clip"><rect x="-100" y="-100" width="675.92" height="202.86" fill="white"/><rect x="237.96" y="1.43" width="0" height="0" rx="4" ry="4" fill="black" opacity="1"/></mask></defs><g pointer-events="none" opacity="1" mask=""><path d="M -0.00,1.94 Q -0.00,1.94 59.48,1.62 118.97,1.30 178.46,0.97 237.95,0.64 297.44,0.30 356.93,-0.02 416.42,-0.37 475.91,-0.71 476.02,-0.69 476.14,-0.67 476.24,-0.62 476.34,-0.57 476.42,-0.48 476.50,-0.40 476.55,-0.29 476.60,-0.19 476.62,-0.08 476.63,0.03 476.60,0.14 476.58,0.26 476.52,0.35 476.46,0.45 476.37,0.53 476.29,0.61 476.18,0.65 476.07,0.69 475.96,0.70 475.84,0.71 475.73,0.68 475.62,0.65 475.52,0.58 475.43,0.52 475.36,0.43 475.29,0.33 475.25,0.22 475.21,0.11 475.21,0.00 475.21,-0.11 475.25,-0.22 475.28,-0.33 475.35,-0.42 475.42,-0.51 475.52,-0.58 475.61,-0.64 475.72,-0.67 475.83,-0.70 475.95,-0.70 476.06,-0.69 476.17,-0.65 476.28,-0.61 476.37,-0.54 476.46,-0.46 476.52,-0.36 476.58,-0.26 476.60,-0.15 476.63,-0.04 476.62,0.07 476.60,0.18 476.56,0.29 476.51,0.39 476.43,0.48 476.35,0.56 476.25,0.62 476.15,0.67 476.03,0.69 475.92,0.71 475.92,0.71 475.92,0.71 416.43,1.08 356.94,1.45 297.45,1.83 237.96,2.21 178.47,2.60 118.98,2.98 59.49,3.38 0.00,3.77 -0.10,3.76 -0.21,3.75 -0.31,3.71 -0.42,3.67 -0.51,3.61 -0.60,3.54 -0.67,3.46 -0.75,3.38 -0.80,3.28 -0.85,3.18 -0.88,3.08 -0.90,2.97 -0.90,2.86 -0.90,2.75 -0.88,2.64 -0.85,2.54 -0.80,2.44 -0.75,2.34 -0.68,2.26 -0.61,2.17 -0.52,2.11 -0.43,2.05 -0.32,2.01 -0.22,1.97 -0.11,1.95 Z" fill="#cecece" stroke="#cecece" stroke-width="2.11" stroke-dasharray="none" stroke-dashoffset="none" stroke-linecap="round" stroke-linejoin="round" pointer-events="stroke"/></g></g><g text-align="left" text-anchor="start" fill="#cecece" transform="translate(1052.46, 64.96) rotate(0.00, 154.50, 43.50)"><text y="14" letter-spacing="-0.84" font-size="28px" font-family="Caveat Brush" text-align="left" alignment-baseline="central" transform="scale(2.7536777269002877)">Node Server</text></g><g id="151ece60-e502-4dec-2b8a-210819cbc986_svg" class="tl-centered-g" transform="translate(1165.97, 242.08) rotate(0.00, 37.30, 34.35)"><path d="M 47.66,-1.16 Q 47.66,-1.16 52.29,0.91 56.92,2.99 59.97,5.37 63.02,7.75 66.03,11.55 69.05,15.35 71.20,20.69 73.36,26.03 73.67,32.59 73.99,39.14 71.66,46.01 69.33,52.88 64.06,58.67 58.80,64.46 51.17,67.63 43.54,70.81 34.98,70.26 26.43,69.71 18.93,65.25 11.42,60.79 6.79,53.37 2.16,45.95 1.44,37.36 0.72,28.77 3.81,21.01 6.90,13.25 12.73,7.85 18.56,2.45 25.57,0.05 32.58,-2.33 39.31,-1.96 46.05,-1.58 51.54,0.73 57.04,3.06 60.93,6.34 64.81,9.61 67.21,12.96 69.61,16.31 70.88,19.11 72.15,21.91 72.72,23.81" stroke="none" fill="#345246" pointer-events="none"/><path d="M 47.66,-1.16 Q 47.66,-1.16 52.80,-0.20 57.95,0.75 61.27,3.25 64.59,5.76 67.74,9.85 70.88,13.94 73.12,19.60 75.36,25.27 75.69,32.18 76.01,39.09 73.58,46.33 71.14,53.56 65.63,59.66 60.13,65.77 52.14,69.14 44.16,72.52 35.19,72.00 26.23,71.48 18.34,66.87 10.44,62.26 5.54,54.53 0.63,46.80 -0.18,37.82 -1.01,28.83 2.15,20.69 5.32,12.55 11.38,6.85 17.43,1.15 24.75,-1.41 32.07,-3.98 39.12,-3.64 46.18,-3.30 51.95,-0.91 57.73,1.48 61.80,4.93 65.88,8.37 68.29,11.96 70.69,15.54 71.77,18.57 72.85,21.60 73.07,23.66 73.29,25.71 73.29,25.71 73.28,25.72 73.28,25.72 73.27,25.72 72.36,23.97 71.45,22.23 69.99,19.66 68.52,17.08 66.14,13.97 63.75,10.86 60.05,7.75 56.34,4.64 51.13,2.38 45.92,0.12 39.50,-0.28 33.09,-0.69 26.39,1.53 19.68,3.76 14.08,8.86 8.48,13.96 5.46,21.33 2.45,28.71 3.07,36.91 3.69,45.10 8.04,52.21 12.40,59.33 19.52,63.63 26.64,67.94 34.78,68.52 42.92,69.10 50.19,66.12 57.47,63.14 62.49,57.67 67.52,52.19 69.75,45.69 71.97,39.18 71.66,32.99 71.35,26.80 69.29,21.78 67.23,16.77 64.33,13.25 61.44,9.74 58.67,7.48 55.90,5.23 51.78,2.04 Z" fill="#36a64c" stroke="#36a64c" stroke-width="3.5" pointer-events="none" stroke-linecap="round" stroke-linejoin="round"/></g><g id="ecac8fcd-8db9-4a78-0747-c12a5381aa4a_svg" class="tl-centered-g" transform="translate(1105.02, 349.63) rotate(0.00, 32.61, 31.59)"><path d="M 35.55,-2.19 Q 35.55,-2.19 40.70,-1.65 45.84,-1.11 49.33,1.38 52.83,3.88 56.05,8.29 59.27,12.69 61.30,18.98 63.33,25.28 63.07,32.79 62.80,40.31 59.52,47.56 56.23,54.81 50.05,59.83 43.88,64.84 36.08,65.87 28.29,66.90 21.00,63.37 13.70,59.84 8.93,52.78 4.16,45.71 2.95,37.23 1.73,28.75 3.86,21.05 5.99,13.35 10.37,7.90 14.76,2.46 19.99,-0.27 25.22,-3.01 30.11,-3.38 35.00,-3.75 38.75,-2.59 42.49,-1.44 44.77,0.30 47.04,2.05 47.04,2.06 47.04,2.06 47.04,2.06 47.03,2.07 44.51,1.30 41.99,0.52 38.59,-0.09 35.20,-0.70 30.95,-0.31 26.69,0.08 22.02,2.40 17.35,4.73 13.32,9.56 9.28,14.40 7.23,21.40 5.18,28.40 6.17,36.16 7.15,43.92 11.31,50.38 15.47,56.83 21.83,60.11 28.19,63.40 35.03,62.64 41.88,61.89 47.42,57.51 52.96,53.12 55.99,46.59 59.01,40.05 59.28,33.23 59.55,26.41 57.72,20.76 55.88,15.11 53.01,11.26 50.13,7.41 47.28,5.18 44.44,2.96 39.99,0.39 Z" fill="#cecece" stroke="#cecece" stroke-width="3.5" pointer-events="none" stroke-linecap="round" stroke-linejoin="round"/></g><g id="453cd7c2-df7d-427f-1f1d-4dab9f9c4011_svg" class="tl-centered-g" transform="translate(1228.70, 347.69) rotate(0.00, 38.36, 35.45)"><path d="M -0.08,39.86 Q -0.08,39.86 -0.08,35.48 -0.08,31.09 0.64,27.83 1.37,24.57 3.14,20.73 4.92,16.89 8.15,12.96 11.38,9.04 16.27,5.76 21.16,2.47 27.51,0.68 33.87,-1.10 41.02,-0.62 48.17,-0.15 54.99,3.00 61.82,6.16 66.99,11.83 72.16,17.49 74.54,24.82 76.93,32.14 75.95,39.80 74.96,47.45 70.83,54.00 66.69,60.54 60.31,64.84 53.93,69.15 46.62,70.69 39.31,72.24 32.36,71.19 25.42,70.14 19.77,67.14 14.12,64.15 10.19,60.10 6.27,56.05 4.02,51.77 1.77,47.50 0.84,43.63 -0.09,39.76 -0.20,36.66 -0.30,33.57 -0.05,31.41" stroke="none" fill="#345246" pointer-events="none"/><path d="M -0.09,39.86 Q -0.09,39.86 -1.26,35.47 -2.44,31.08 -1.86,27.52 -1.27,23.96 0.67,19.88 2.62,15.80 6.12,11.67 9.62,7.55 14.80,4.11 19.99,0.67 26.67,-1.19 33.36,-3.06 40.85,-2.57 48.35,-2.08 55.50,1.20 62.66,4.49 68.11,10.40 73.56,16.31 76.10,23.99 78.65,31.66 77.68,39.70 76.71,47.75 72.42,54.64 68.14,61.53 61.50,66.07 54.86,70.62 47.25,72.28 39.63,73.95 32.38,72.90 25.13,71.84 19.21,68.75 13.29,65.66 9.15,61.45 5.02,57.23 2.67,52.74 0.32,48.25 -0.55,44.16 -1.43,40.07 -1.28,36.83 -1.13,33.59 -0.47,31.42 0.18,29.25 0.18,29.25 0.19,29.25 0.19,29.25 0.20,29.25 0.35,31.39 0.51,33.54 0.87,36.49 1.24,39.44 2.23,43.09 3.22,46.75 5.37,50.80 7.52,54.86 11.24,58.75 14.95,62.64 20.33,65.53 25.71,68.43 32.35,69.48 38.99,70.54 45.99,69.11 53.00,67.67 59.12,63.61 65.24,59.55 69.23,53.36 73.22,47.16 74.21,39.89 75.20,32.63 72.99,25.65 70.77,18.67 65.87,13.26 60.98,7.84 54.49,4.81 48.00,1.77 41.19,1.31 34.38,0.85 28.36,2.56 22.33,4.27 17.74,7.40 13.15,10.53 10.18,14.25 7.22,17.97 5.62,21.57 4.01,25.17 3.14,28.14 2.26,31.11 1.09,35.48 Z" fill="#36a64c" stroke="#36a64c" stroke-width="3.5" pointer-events="none" stroke-linecap="round" stroke-linejoin="round"/></g><g id="0c8f575f-01d0-41a8-24cd-4913b7cf502a_svg" class="tl-centered-g" transform="translate(1036.07, 446.82) rotate(0.00, 30.65, 33.88)"><path d="M 5.48,20.44 Q 5.48,20.44 7.36,15.01 9.24,9.58 12.57,6.69 15.89,3.79 20.75,1.92 25.61,0.05 31.58,0.35 37.55,0.65 43.48,4.08 49.40,7.51 53.63,14.06 57.86,20.62 58.92,29.05 59.98,37.48 57.26,45.59 54.55,53.71 48.68,59.21 42.81,64.71 35.51,66.16 28.20,67.60 21.54,65.02 14.88,62.44 10.32,57.19 5.77,51.94 3.72,45.82 1.67,39.70 1.69,34.14 1.70,28.59 3.06,24.43 4.43,20.27 6.23,17.79 8.03,15.31 8.03,15.31 8.04,15.31 8.04,15.31 8.05,15.32 7.26,18.07 6.46,20.82 5.71,24.72 4.95,28.61 4.97,33.64 4.99,38.67 6.74,44.22 8.49,49.77 12.42,54.53 16.35,59.30 22.10,61.72 27.86,64.15 34.26,63.05 40.65,61.95 45.94,57.15 51.22,52.35 53.77,45.05 56.31,37.76 55.45,30.13 54.58,22.51 50.92,16.64 47.25,10.78 42.19,7.76 37.13,4.74 32.10,4.47 27.07,4.20 23.01,5.85 18.94,7.49 16.15,9.83 13.36,12.17 9.43,16.31 Z" fill="#cecece" stroke="#cecece" stroke-width="3.5" pointer-events="none" stroke-linecap="round" stroke-linejoin="round"/></g><g id="a7f0adab-cc71-4ad8-0752-e6ec5626d998_svg" class="tl-centered-g" transform="translate(1302.62, 443.88) rotate(0.00, 30.65, 33.88)"><path d="M 8.11,56.01 Q 8.11,56.01 5.06,51.30 2.02,46.59 1.29,42.08 0.57,37.58 0.84,31.92 1.12,26.27 3.00,20.07 4.89,13.88 8.83,8.31 12.76,2.75 18.64,-0.62 24.52,-4.00 31.40,-3.75 38.29,-3.50 44.53,0.90 50.78,5.30 54.75,13.01 58.72,20.71 59.48,29.82 60.24,38.92 57.80,47.25 55.35,55.57 50.55,61.39 45.74,67.22 39.86,69.74 33.99,72.26 28.36,71.70 22.74,71.14 18.29,68.47 13.83,65.81 10.91,62.25 7.98,58.68 6.49,55.24 5.00,51.80 4.60,49.19 4.21,46.57 4.22,46.57 4.22,46.57 4.23,46.56 4.23,46.56 5.48,48.74 6.72,50.91 8.51,53.83 10.31,56.74 12.99,59.83 15.67,62.93 19.47,65.34 23.27,67.75 28.07,68.39 32.88,69.04 38.05,66.96 43.23,64.88 47.65,59.68 52.07,54.47 54.42,46.79 56.76,39.11 56.16,30.65 55.55,22.20 52.06,15.11 48.58,8.03 43.19,4.00 37.80,-0.03 31.91,-0.39 26.01,-0.76 20.84,2.12 15.68,5.01 12.10,10.02 8.53,15.04 6.80,20.76 5.08,26.47 4.89,31.70 4.69,36.93 5.35,40.97 6.01,45.01 7.07,50.51 Z" fill="#cecece" stroke="#cecece" stroke-width="3.5" pointer-events="none" stroke-linecap="round" stroke-linejoin="round"/></g><g id="f9e01aea-5faa-48a8-31c3-828884e46996_svg" class="tl-centered-g" transform="translate(1162.49, 445.86) rotate(0.00, 38.64, 29.99)"><path d="M 3.19,17.87 Q 3.19,17.87 6.06,14.13 8.93,10.39 11.94,8.07 14.94,5.75 19.46,3.66 23.99,1.57 30.02,0.45 36.04,-0.65 43.01,-0.01 49.98,0.63 56.75,3.57 63.51,6.51 68.54,11.74 73.57,16.96 75.39,23.70 77.21,30.45 75.03,37.31 72.85,44.18 66.97,49.57 61.09,54.97 52.89,57.65 44.69,60.33 36.10,59.87 27.51,59.40 20.35,56.24 13.19,53.08 8.58,48.26 3.96,43.44 2.10,38.16 0.23,32.88 0.61,28.08 0.99,23.28 2.74,19.49 4.49,15.70 6.71,13.04 8.93,10.39 10.92,8.75" stroke="none" fill="#345246" pointer-events="none"/><path d="M 3.18,17.87 Q 3.18,17.87 5.18,13.44 7.17,9.01 10.33,6.43 13.49,3.85 18.29,1.71 23.08,-0.43 29.38,-1.56 35.68,-2.69 42.94,-2.01 50.19,-1.32 57.25,1.73 64.32,4.80 69.64,10.29 74.96,15.77 76.96,22.95 78.96,30.13 76.72,37.48 74.49,44.83 68.36,50.57 62.23,56.30 53.71,59.15 45.19,62.00 36.28,61.57 27.38,61.14 19.91,57.89 12.45,54.64 7.56,49.61 2.67,44.59 0.63,38.99 -1.40,33.39 -1.04,28.25 -0.68,23.11 1.22,19.08 3.13,15.05 5.66,12.41 8.19,9.77 10.54,8.43 12.89,7.10 12.90,7.10 12.90,7.11 12.90,7.11 12.90,7.12 11.29,9.06 9.67,11.01 7.76,13.68 5.86,16.34 4.27,19.89 2.68,23.45 2.28,27.91 1.87,32.36 3.56,37.33 5.24,42.30 9.59,46.91 13.94,51.52 20.79,54.59 27.64,57.67 35.91,58.16 44.18,58.65 52.07,56.14 59.96,53.63 65.58,48.58 71.21,43.54 73.33,37.15 75.46,30.76 73.82,24.45 72.18,18.14 67.44,13.19 62.71,8.23 56.24,5.41 49.76,2.58 43.08,1.98 36.39,1.38 30.65,2.48 24.90,3.58 20.64,5.61 16.39,7.65 13.54,9.71 10.70,11.77 6.95,14.82 Z" fill="#36a64c" stroke="#36a64c" stroke-width="3.5" pointer-events="none" stroke-linecap="round" stroke-linejoin="round"/></g><g id="2b1f4109-66ae-45fe-1b8d-7a82dd1f6180_svg" class="tl-centered-g" transform="translate(1154.58, 306.20) rotate(0.00, 15.04, 24.02)"><defs><mask id="2b1f4109-66ae-45fe-1b8d-7a82dd1f6180_clip"><rect x="-100" y="-100" width="230.07" height="248.04" fill="white"/><rect x="15.03" y="24.02" width="0" height="0" rx="2" ry="2" fill="black" opacity="1"/></mask></defs><g pointer-events="none" opacity="1" mask=""><path d="M 30.92,0.53 Q 30.92,0.53 27.13,6.52 23.35,12.51 19.57,18.50 15.79,24.49 12.02,30.49 8.25,36.49 4.48,42.48 0.71,48.48 0.62,48.58 0.53,48.69 0.41,48.75 0.29,48.82 0.16,48.85 0.03,48.88 -0.10,48.86 -0.23,48.84 -0.36,48.78 -0.48,48.72 -0.58,48.63 -0.67,48.53 -0.74,48.41 -0.80,48.29 -0.82,48.15 -0.84,48.02 -0.81,47.89 -0.79,47.75 -0.72,47.63 -0.66,47.51 -0.56,47.42 -0.46,47.33 -0.33,47.27 -0.21,47.22 -0.07,47.21 0.06,47.19 0.19,47.23 0.32,47.26 0.44,47.33 0.55,47.40 0.64,47.51 0.72,47.61 0.77,47.74 0.82,47.87 0.83,48.00 0.83,48.14 0.79,48.27 0.75,48.40 0.67,48.51 0.60,48.62 0.49,48.71 0.38,48.79 0.25,48.83 0.12,48.87 -0.01,48.87 -0.15,48.86 -0.27,48.82 -0.40,48.77 -0.51,48.69 -0.62,48.60 -0.69,48.49 -0.77,48.37 -0.80,48.24 -0.83,48.11 -0.82,47.98 -0.81,47.84 -0.76,47.71 -0.71,47.59 -0.71,47.59 -0.71,47.59 3.03,41.58 6.78,35.56 10.52,29.55 14.27,23.54 18.01,17.52 21.75,11.50 25.48,5.48 29.21,-0.53 29.29,-0.62 29.36,-0.72 29.46,-0.79 29.56,-0.87 29.67,-0.91 29.78,-0.96 29.90,-0.98 30.02,-1.00 30.14,-0.99 30.26,-0.98 30.38,-0.95 30.49,-0.91 30.60,-0.84 30.70,-0.78 30.78,-0.69 30.87,-0.60 30.93,-0.50 30.99,-0.39 31.02,-0.28 31.06,-0.16 31.06,-0.04 31.07,0.07 31.05,0.19 31.02,0.31 30.97,0.42 Z" fill="#cecece" stroke="#cecece" stroke-width="2.11" stroke-dasharray="none" stroke-dashoffset="none" stroke-linecap="round" stroke-linejoin="round" pointer-events="stroke"/></g></g><g id="4d14dca1-8210-40ae-3253-aacb16f23298_svg" class="tl-centered-g" transform="translate(1221.53, 306.39) rotate(0.00, 13.83, 22.69)"><defs><mask id="4d14dca1-8210-40ae-3253-aacb16f23298_clip"><rect x="-100" y="-100" width="227.66" height="245.38" fill="white"/><rect x="13.83" y="22.69" width="0" height="0" rx="2" ry="2" fill="black" opacity="1"/></mask></defs><g pointer-events="none" opacity="1" mask=""><path d="M 0.77,-0.47 Q 0.77,-0.47 4.20,5.21 7.62,10.91 11.05,16.59 14.49,22.28 17.93,27.96 21.37,33.65 24.81,39.33 28.26,45.01 28.30,45.11 28.34,45.22 28.35,45.33 28.36,45.45 28.33,45.56 28.30,45.67 28.23,45.76 28.17,45.86 28.08,45.93 27.99,46.00 27.88,46.03 27.77,46.07 27.66,46.07 27.55,46.07 27.44,46.03 27.33,46.00 27.24,45.93 27.15,45.86 27.08,45.77 27.02,45.67 26.99,45.56 26.96,45.46 26.96,45.34 26.97,45.23 27.01,45.12 27.05,45.02 27.12,44.93 27.20,44.84 27.29,44.78 27.39,44.72 27.50,44.70 27.61,44.67 27.73,44.68 27.84,44.70 27.94,44.74 28.05,44.79 28.13,44.87 28.21,44.95 28.27,45.05 28.32,45.15 28.34,45.26 28.36,45.37 28.34,45.48 28.32,45.60 28.27,45.70 28.22,45.80 28.14,45.88 28.05,45.96 27.95,46.00 27.85,46.05 27.73,46.07 27.62,46.08 27.51,46.05 27.40,46.03 27.30,45.97 27.20,45.91 27.13,45.83 27.05,45.74 27.05,45.74 27.05,45.74 23.58,40.08 20.11,34.41 16.64,28.75 13.16,23.09 9.68,17.43 6.20,11.77 2.71,6.12 -0.77,0.47 -0.82,0.37 -0.86,0.27 -0.88,0.16 -0.90,0.05 -0.90,-0.05 -0.89,-0.16 -0.86,-0.26 -0.82,-0.36 -0.77,-0.46 -0.71,-0.55 -0.63,-0.63 -0.56,-0.71 -0.46,-0.76 -0.37,-0.82 -0.27,-0.85 -0.16,-0.89 -0.05,-0.89 0.05,-0.90 0.15,-0.88 0.26,-0.86 0.36,-0.82 0.46,-0.77 0.55,-0.71 0.63,-0.64 0.70,-0.55 Z" fill="#36a64c" stroke="#36a64c" stroke-width="2.11" stroke-dasharray="none" stroke-dashoffset="none" stroke-linecap="round" stroke-linejoin="round" pointer-events="stroke"/></g></g><g id="9df832fd-4828-4826-3130-bba7c219a531_svg" class="tl-centered-g" transform="translate(1086.07, 407.31) rotate(0.00, 16.59, 23.56)"><defs><mask id="9df832fd-4828-4826-3130-bba7c219a531_clip"><rect x="-100" y="-100" width="233.18" height="247.12" fill="white"/><rect x="16.59" y="23.56" width="0" height="0" rx="2" ry="2" fill="black" opacity="1"/></mask></defs><g pointer-events="none" opacity="1" mask=""><path d="M 34.00,0.58 Q 34.00,0.58 29.83,6.45 25.66,12.32 21.49,18.20 17.33,24.08 13.16,29.96 9.00,35.84 4.85,41.72 0.69,47.60 0.59,47.70 0.50,47.80 0.37,47.86 0.25,47.92 0.12,47.94 -0.01,47.96 -0.15,47.94 -0.28,47.91 -0.40,47.85 -0.52,47.78 -0.61,47.68 -0.71,47.58 -0.76,47.45 -0.82,47.33 -0.83,47.19 -0.84,47.05 -0.81,46.92 -0.78,46.79 -0.70,46.67 -0.63,46.55 -0.53,46.47 -0.42,46.38 -0.29,46.33 -0.16,46.28 -0.03,46.28 0.10,46.27 0.23,46.31 0.36,46.35 0.48,46.43 0.59,46.51 0.67,46.62 0.75,46.73 0.79,46.86 0.83,46.99 0.83,47.13 0.83,47.27 0.78,47.40 0.74,47.53 0.65,47.63 0.57,47.74 0.45,47.82 0.34,47.89 0.20,47.93 0.07,47.96 -0.06,47.95 -0.19,47.94 -0.32,47.89 -0.45,47.83 -0.55,47.74 -0.65,47.65 -0.72,47.53 -0.79,47.41 -0.82,47.28 -0.84,47.15 -0.83,47.01 -0.81,46.87 -0.75,46.75 -0.69,46.63 -0.69,46.63 -0.69,46.63 3.44,40.73 7.58,34.83 11.71,28.93 15.84,23.03 19.97,17.13 24.10,11.23 28.22,5.32 32.35,-0.58 32.43,-0.67 32.51,-0.76 32.61,-0.83 32.71,-0.90 32.83,-0.94 32.94,-0.98 33.06,-0.99 33.18,-1.01 33.31,-0.99 33.43,-0.98 33.54,-0.93 33.65,-0.89 33.75,-0.82 33.85,-0.75 33.93,-0.65 34.01,-0.56 34.07,-0.45 34.12,-0.35 34.15,-0.23 34.18,-0.11 34.18,0.00 34.18,0.13 34.15,0.24 34.12,0.36 34.06,0.47 Z" fill="#cecece" stroke="#cecece" stroke-width="2.11" stroke-dasharray="none" stroke-dashoffset="none" stroke-linecap="round" stroke-linejoin="round" pointer-events="stroke"/></g></g><g id="aa353af3-8c1b-4bab-0e55-849fd9079bb7_svg" class="tl-centered-g" transform="translate(1218.66, 412.49) rotate(0.00, 13.44, 18.32)"><defs><mask id="aa353af3-8c1b-4bab-0e55-849fd9079bb7_clip"><rect x="-100" y="-100" width="226.88" height="236.63" fill="white"/><rect x="13.44" y="18.31" width="0" height="0" rx="2" ry="2" fill="black" opacity="1"/></mask></defs><g pointer-events="none" opacity="1" mask=""><path d="M 27.57,0.50 Q 27.57,0.50 24.17,5.06 20.78,9.61 17.39,14.17 14.01,18.73 10.63,23.30 7.25,27.86 3.88,32.43 0.50,37.00 0.43,37.07 0.36,37.14 0.27,37.19 0.17,37.23 0.07,37.24 -0.02,37.26 -0.12,37.24 -0.22,37.22 -0.31,37.16 -0.40,37.11 -0.46,37.04 -0.53,36.96 -0.57,36.87 -0.61,36.77 -0.62,36.67 -0.62,36.57 -0.60,36.47 -0.57,36.37 -0.52,36.28 -0.46,36.20 -0.38,36.14 -0.30,36.07 -0.20,36.04 -0.11,36.00 -0.01,36.00 0.09,36.00 0.18,36.03 0.28,36.06 0.36,36.12 0.45,36.18 0.50,36.27 0.56,36.35 0.59,36.45 0.62,36.55 0.62,36.65 0.61,36.75 0.58,36.85 0.54,36.94 0.48,37.02 0.41,37.10 0.33,37.15 0.24,37.21 0.14,37.23 0.04,37.25 -0.05,37.25 -0.15,37.24 -0.25,37.19 -0.34,37.15 -0.42,37.08 -0.49,37.02 -0.54,36.93 -0.59,36.84 -0.61,36.74 -0.63,36.64 -0.61,36.53 -0.60,36.43 -0.55,36.34 -0.50,36.25 -0.50,36.25 -0.50,36.25 2.83,31.66 6.18,27.07 9.52,22.48 12.86,17.89 16.20,13.29 19.53,8.70 22.86,4.09 26.18,-0.50 26.26,-0.58 26.33,-0.65 26.41,-0.71 26.50,-0.76 26.60,-0.80 26.69,-0.83 26.80,-0.84 26.90,-0.85 27.00,-0.84 27.10,-0.82 27.20,-0.78 27.29,-0.74 27.38,-0.68 27.46,-0.62 27.53,-0.54 27.59,-0.46 27.64,-0.37 27.68,-0.28 27.71,-0.17 27.73,-0.07 27.72,0.02 27.72,0.12 27.69,0.22 27.67,0.32 27.62,0.41 Z" fill="#36a64c" stroke="#36a64c" stroke-width="2.11" stroke-dasharray="none" stroke-dashoffset="none" stroke-linecap="round" stroke-linejoin="round" pointer-events="stroke"/></g></g><g id="fdf57383-7ba9-46f7-260a-40ba00d18e91_svg" class="tl-centered-g" transform="translate(1290.04, 411.54) rotate(0.00, 14.60, 18.05)"><defs><mask id="fdf57383-7ba9-46f7-260a-40ba00d18e91_clip"><rect x="-100" y="-100" width="229.2" height="236.1" fill="white"/><rect x="14.6" y="18.05" width="0" height="0" rx="2" ry="2" fill="black" opacity="1"/></mask></defs><g pointer-events="none" opacity="1" mask=""><path d="M 0.77,-0.63 Q 0.77,-0.63 4.40,3.90 8.03,8.43 11.66,12.96 15.29,17.48 18.93,22.01 22.56,26.53 26.20,31.05 29.84,35.57 29.91,35.69 29.98,35.80 30.00,35.94 30.03,36.07 30.01,36.20 29.99,36.34 29.93,36.46 29.87,36.58 29.78,36.68 29.68,36.77 29.56,36.83 29.44,36.89 29.31,36.91 29.17,36.93 29.04,36.90 28.91,36.88 28.79,36.81 28.67,36.75 28.58,36.65 28.49,36.55 28.44,36.42 28.39,36.30 28.37,36.16 28.36,36.03 28.40,35.90 28.43,35.77 28.50,35.65 28.57,35.54 28.68,35.45 28.78,35.37 28.91,35.32 29.04,35.28 29.17,35.27 29.31,35.27 29.43,35.31 29.56,35.35 29.67,35.42 29.78,35.50 29.86,35.61 29.94,35.72 29.98,35.85 30.02,35.98 30.02,36.11 30.02,36.25 29.97,36.38 29.92,36.50 29.84,36.61 29.75,36.71 29.64,36.79 29.53,36.86 29.40,36.89 29.27,36.93 29.13,36.92 29.00,36.91 28.87,36.85 28.75,36.80 28.65,36.71 28.55,36.62 28.55,36.62 28.55,36.62 24.89,32.12 21.23,27.61 17.56,23.11 13.90,18.61 10.23,14.11 6.56,9.61 2.89,5.12 -0.77,0.63 -0.84,0.52 -0.90,0.42 -0.94,0.31 -0.98,0.19 -0.99,0.07 -1.00,-0.04 -0.98,-0.16 -0.96,-0.28 -0.91,-0.39 -0.86,-0.50 -0.79,-0.60 -0.71,-0.69 -0.62,-0.77 -0.53,-0.84 -0.42,-0.90 -0.31,-0.95 -0.19,-0.97 -0.07,-0.99 0.04,-0.99 0.16,-0.98 0.28,-0.95 0.39,-0.92 0.50,-0.85 0.60,-0.79 0.69,-0.71 Z" fill="#cecece" stroke="#cecece" stroke-width="2.11" stroke-dasharray="none" stroke-dashoffset="none" stroke-linecap="round" stroke-linejoin="round" pointer-events="stroke"/></g></g><g id="a42abfe7-82ec-4df6-3a7c-9e87014173af_svg" class="tl-centered-g" transform="translate(113.83, 248.82) rotate(0.00, 54.56, 159.16)"><path d="M 34.23,316.90 Q 34.23,316.90 29.36,316.83 24.48,316.77 18.37,316.69 12.25,316.61 8.08,313.98 3.91,311.35 2.88,304.44 1.84,297.52 1.60,289.51 1.36,281.50 1.33,273.21 1.30,264.92 1.31,256.56 1.33,248.20 1.36,239.82 1.39,231.44 1.43,223.06 1.46,214.68 1.49,206.29 1.53,197.91 1.56,189.53 1.60,181.14 1.64,172.76 1.67,164.37 1.71,155.99 1.74,147.60 1.78,139.22 1.81,130.83 1.85,122.45 1.88,114.07 1.92,105.68 1.95,97.30 1.99,88.91 2.02,80.53 2.06,72.14 2.09,63.76 2.13,55.37 2.16,46.99 2.20,38.61 2.23,30.22 2.27,21.84 2.30,13.45 4.92,8.71 7.54,3.96 13.02,2.76 18.50,1.56 24.71,1.26 30.92,0.97 37.32,0.90 43.72,0.83 50.16,0.83 56.61,0.82 63.06,0.83 69.52,0.83 75.98,0.84 82.44,0.86 88.90,0.87 95.36,0.88 99.62,3.49 103.88,6.10 104.96,13.03 106.04,19.97 106.31,28.00 106.59,36.04 106.65,44.36 106.72,52.67 106.74,61.06 106.75,69.45 106.75,77.86 106.75,86.26 106.75,94.67 106.75,103.08 106.75,111.50 106.74,119.91 106.74,128.32 106.74,136.74 106.73,145.15 106.73,153.56 106.73,161.97 106.72,170.39 106.72,178.80 106.72,187.21 106.71,195.62 106.71,204.04 106.70,212.45 106.70,220.86 106.70,229.28 106.69,237.69 106.69,246.10 106.69,254.51 106.68,262.93 106.68,271.34 106.68,279.75 106.67,288.17 106.67,296.58 106.67,304.99 104.06,309.74 101.45,314.50 95.91,315.65 90.37,316.79 84.08,317.02 77.80,317.25 71.32,317.25 64.84,317.24 58.31,317.18 51.79,317.11 45.25,317.03 38.71,316.95 29.93,316.84" fill="#345246" pointer-events="none"/><path d="M 34.20,319.13 Q 34.20,319.13 29.33,319.23 24.45,319.33 18.22,319.38 11.99,319.43 6.95,316.26 1.92,313.10 0.51,305.51 -0.88,297.93 -1.07,289.75 -1.26,281.58 -1.23,273.25 -1.20,264.93 -1.12,256.56 -1.04,248.20 -0.95,239.82 -0.85,231.44 -0.76,223.05 -0.66,214.67 -0.56,206.29 -0.46,197.90 -0.36,189.52 -0.27,181.13 -0.17,172.75 -0.07,164.37 -0.10,155.98 -0.13,147.60 -0.15,139.21 -0.18,130.83 -0.21,122.44 -0.24,114.06 -0.27,105.67 -0.29,97.29 -0.32,88.90 -0.35,80.52 -0.38,72.13 -0.41,63.75 -0.43,55.36 -0.46,46.98 -0.49,38.59 -0.52,30.21 -0.52,21.74 -0.53,13.27 2.56,7.68 5.66,2.08 11.81,0.57 17.96,-0.93 24.39,-1.10 30.82,-1.26 37.26,-1.16 43.70,-1.07 50.15,-1.08 56.61,-1.08 63.06,-1.24 69.52,-1.39 75.99,-1.55 82.45,-1.70 89.02,-1.82 95.59,-1.93 100.72,1.20 105.86,4.35 107.31,11.95 108.77,19.54 108.99,27.75 109.22,35.95 109.23,44.30 109.23,52.65 109.18,61.05 109.13,69.44 109.07,77.85 109.01,86.26 108.94,94.67 108.88,103.09 108.81,111.50 108.75,119.91 108.68,128.32 108.61,136.74 108.55,145.15 108.48,153.56 108.54,161.97 108.60,170.39 108.66,178.80 108.72,187.21 108.78,195.63 108.84,204.04 108.90,212.45 108.96,220.86 109.02,229.28 109.08,237.69 109.14,246.10 109.20,254.52 109.26,262.93 109.32,271.34 109.38,279.75 109.44,288.17 109.47,296.67 109.51,305.16 106.40,310.78 103.30,316.39 97.09,317.85 90.88,319.30 84.38,319.40 77.88,319.49 71.36,319.32 64.84,319.15 58.30,319.09 51.77,319.02 45.23,319.11 38.68,319.19 29.90,319.24 21.11,319.29 20.71,319.21 20.30,319.14 19.93,318.94 19.57,318.74 19.29,318.44 19.01,318.14 18.84,317.76 18.67,317.38 18.63,316.97 18.59,316.55 18.68,316.15 18.78,315.75 19.00,315.39 19.22,315.04 19.53,314.78 19.85,314.51 20.24,314.36 20.63,314.22 21.04,314.20 21.46,314.18 21.85,314.30 22.25,314.41 22.59,314.65 22.93,314.89 23.18,315.22 23.43,315.55 23.55,315.95 23.68,316.34 23.68,316.76 23.67,317.17 23.53,317.56 23.40,317.95 23.14,318.28 22.88,318.61 22.54,318.84 22.19,319.06 21.79,319.17 21.39,319.28 20.98,319.25 20.56,319.22 20.18,319.06 19.80,318.90 19.48,318.63 19.17,318.36 18.96,318.00 18.75,317.64 18.67,317.24 18.59,316.83 18.64,316.42 18.69,316.01 18.87,315.63 19.04,315.26 19.33,314.96 19.62,314.66 19.99,314.48 20.36,314.29 20.77,314.22 21.18,314.16 21.18,314.16 21.18,314.16 29.96,314.44 38.74,314.71 45.27,314.96 51.81,315.20 58.32,315.26 64.84,315.33 71.28,315.17 77.71,315.02 83.79,314.65 89.86,314.28 94.73,313.44 99.60,312.60 101.71,308.71 103.82,304.82 103.87,296.49 103.91,288.16 103.98,279.75 104.05,271.34 104.11,262.93 104.18,254.51 104.25,246.10 104.31,237.69 104.38,229.28 104.45,220.86 104.51,212.45 104.58,204.04 104.65,195.62 104.71,187.21 104.78,178.80 104.85,170.39 104.91,161.97 104.98,153.56 104.92,145.15 104.86,136.73 104.80,128.32 104.74,119.91 104.68,111.50 104.62,103.08 104.56,94.67 104.50,86.26 104.43,77.86 104.37,69.45 104.29,61.07 104.21,52.69 104.08,44.41 103.95,36.13 103.63,28.26 103.31,20.39 102.60,14.12 101.89,7.85 98.52,5.78 95.14,3.71 88.79,3.56 82.44,3.42 75.98,3.24 69.52,3.07 63.06,2.90 56.61,2.73 50.17,2.74 43.74,2.75 37.38,2.97 31.03,3.20 25.04,3.63 19.04,4.06 14.23,4.95 9.41,5.84 7.28,9.74 5.15,13.63 5.07,21.93 4.99,30.23 4.90,38.62 4.80,47.00 4.70,55.39 4.60,63.77 4.50,72.15 4.40,80.54 4.31,88.92 4.21,97.31 4.11,105.69 4.01,114.07 3.91,122.46 3.81,130.84 3.72,139.23 3.62,147.61 3.52,156.00 3.42,164.38 3.45,172.76 3.48,181.15 3.50,189.53 3.53,197.92 3.56,206.30 3.59,214.69 3.62,223.07 3.65,231.45 3.68,239.83 3.71,248.21 3.76,256.56 3.80,264.91 3.90,273.17 4.00,281.42 4.28,289.27 4.57,297.11 5.24,303.36 5.91,309.61 9.21,311.70 12.51,313.79 18.51,314.00 24.52,314.21 29.39,314.43 34.26,314.66 34.53,314.69 34.80,314.73 35.05,314.83 35.30,314.93 35.52,315.08 35.74,315.24 35.91,315.44 36.09,315.65 36.21,315.89 36.34,316.13 36.40,316.39 36.46,316.66 36.45,316.93 36.45,317.19 36.38,317.46 36.31,317.72 36.19,317.95 36.06,318.19 35.88,318.39 35.69,318.59 35.47,318.74 35.25,318.89 34.99,318.98 34.74,319.08 34.47,319.10 Z" fill="#36a64c" stroke="#36a64c" stroke-width="3.5" pointer-events="none"/></g><g id="3017822e-edfc-4980-32d6-646b0b0bccd0_svg" class="tl-centered-g" transform="translate(247.38, 248.47) rotate(0.00, 160.69, 51.98)"><path d="M 232.50,102.03 Q 232.50,102.03 226.53,102.04 220.57,102.04 213.08,102.04 205.59,102.04 197.72,102.04 189.85,102.05 181.87,102.05 173.90,102.05 165.90,102.05 157.90,102.05 149.90,102.06 141.89,102.06 133.89,102.06 125.88,102.06 117.87,102.06 109.87,102.07 101.86,102.07 93.85,102.07 85.84,102.07 77.84,102.07 69.83,102.08 61.82,102.08 53.82,102.08 45.81,102.08 37.80,102.09 29.79,102.09 21.79,102.09 13.78,102.09 9.13,99.48 4.48,96.88 3.28,91.57 2.09,86.26 1.77,80.26 1.46,74.26 1.36,68.08 1.27,61.90 1.24,55.68 1.20,49.46 1.18,43.23 1.16,37.00 1.15,30.76 1.13,24.53 1.12,18.29 1.10,12.06 3.70,7.86 6.31,3.66 12.93,2.64 19.55,1.61 27.19,1.39 34.84,1.17 42.74,1.16 50.65,1.15 58.62,1.19 66.59,1.23 74.58,1.29 82.57,1.34 90.57,1.40 98.56,1.46 106.55,1.52 114.55,1.58 122.54,1.64 130.54,1.70 138.53,1.76 146.53,1.82 154.52,1.88 162.52,1.93 170.51,1.99 178.51,2.05 186.50,2.11 194.50,2.17 202.49,2.23 210.49,2.29 218.48,2.35 226.48,2.41 234.47,2.47 242.47,2.53 250.46,2.59 258.46,2.65 266.45,2.71 274.45,2.77 282.44,2.83 290.44,2.88 298.43,2.94 306.43,3.00 311.08,5.63 315.72,8.25 316.94,13.44 318.16,18.63 318.51,24.47 318.86,30.32 318.98,36.33 319.10,42.34 319.17,48.40 319.24,54.45 319.29,60.52 319.34,66.58 319.39,72.65 319.44,78.72 319.49,84.79 319.54,90.86 316.94,95.01 314.35,99.17 307.72,100.23 301.09,101.29 293.44,101.56 285.78,101.84 277.86,101.91 269.95,101.98 261.96,102.00 253.98,102.02 245.98,102.02 237.98,102.03 229.97,102.03 221.96,102.04 213.96,102.04 205.95,102.04 197.94,102.04 189.94,102.05 181.93,102.05 173.92,102.05 165.92,102.05 157.91,102.05 149.90,102.06 141.89,102.06 131.15,102.06" fill="#345246" pointer-events="none"/><path d="M 232.50,104.32 Q 232.50,104.32 226.53,104.26 220.57,104.21 213.08,104.15 205.59,104.09 197.72,104.03 189.85,103.98 181.87,103.92 173.90,103.86 165.90,103.86 157.90,103.86 149.90,103.93 141.89,103.99 133.89,104.05 125.88,104.11 117.87,104.17 109.87,104.24 101.86,104.30 93.85,104.36 85.84,104.42 77.84,104.48 69.83,104.55 61.82,104.61 53.82,104.67 45.81,104.73 37.80,104.79 29.79,104.86 21.70,104.89 13.60,104.93 8.10,101.85 2.60,98.77 1.10,92.79 -0.40,86.81 -0.59,80.59 -0.77,74.37 -0.70,68.15 -0.63,61.93 -0.66,55.70 -0.70,49.47 -0.88,43.24 -1.06,37.01 -1.24,30.77 -1.42,24.54 -1.57,18.18 -1.71,11.83 1.42,6.75 4.56,1.68 11.84,0.27 19.13,-1.12 26.94,-1.29 34.76,-1.46 42.70,-1.41 50.65,-1.37 58.63,-1.26 66.61,-1.16 74.60,-1.05 82.59,-0.93 90.58,-0.82 98.57,-0.70 106.57,-0.58 114.56,-0.46 122.56,-0.34 130.55,-0.22 138.55,-0.10 146.54,0.01 154.54,0.07 162.53,0.13 170.53,0.12 178.52,0.12 186.52,0.12 194.51,0.12 202.51,0.12 210.50,0.12 218.50,0.12 226.50,0.12 234.49,0.12 242.49,0.12 250.48,0.12 258.48,0.12 266.47,0.12 274.47,0.12 282.46,0.12 290.46,0.12 298.54,0.14 306.63,0.16 312.11,3.25 317.59,6.33 319.12,12.19 320.66,18.05 320.87,24.12 321.09,30.19 321.05,36.25 321.02,42.30 321.08,48.37 321.15,54.43 321.36,60.50 321.58,66.56 321.79,72.63 322.00,78.70 322.18,84.89 322.36,91.08 319.23,96.12 316.11,101.15 308.82,102.59 301.53,104.02 293.70,104.25 285.87,104.48 277.92,104.49 269.97,104.51 261.98,104.47 253.98,104.43 245.98,104.37 237.98,104.32 229.97,104.26 221.96,104.21 213.96,104.15 205.95,104.09 197.94,104.03 189.94,103.98 181.93,103.92 173.92,103.86 165.92,103.86 157.91,103.86 149.90,103.93 141.89,103.99 131.15,104.05 120.40,104.11 120.07,104.06 119.74,104.01 119.45,103.85 119.16,103.70 118.93,103.45 118.70,103.21 118.56,102.91 118.42,102.61 118.39,102.28 118.35,101.95 118.42,101.63 118.49,101.31 118.67,101.02 118.84,100.74 119.09,100.52 119.34,100.31 119.65,100.19 119.96,100.06 120.29,100.04 120.62,100.03 120.94,100.11 121.26,100.20 121.53,100.39 121.81,100.58 122.01,100.84 122.21,101.10 122.31,101.42 122.42,101.73 122.42,102.06 122.42,102.40 122.31,102.71 122.21,103.02 122.01,103.29 121.81,103.55 121.53,103.74 121.26,103.92 120.94,104.01 120.62,104.10 120.29,104.08 119.96,104.07 119.65,103.94 119.34,103.82 119.09,103.61 118.84,103.39 118.67,103.11 118.49,102.82 118.42,102.50 118.35,102.17 118.39,101.85 118.42,101.52 118.56,101.21 118.70,100.91 118.93,100.67 119.16,100.43 119.45,100.28 119.74,100.12 120.07,100.07 120.40,100.01 120.40,100.01 120.40,100.01 131.15,100.07 141.89,100.13 149.90,100.19 157.91,100.24 165.91,100.24 173.92,100.24 181.93,100.18 189.94,100.12 197.94,100.05 205.95,99.99 213.96,99.93 221.96,99.87 229.97,99.80 237.97,99.74 245.97,99.67 253.97,99.61 261.95,99.53 269.92,99.45 277.81,99.32 285.69,99.19 293.17,98.87 300.66,98.56 306.62,97.87 312.58,97.19 314.65,93.91 316.72,90.64 316.80,84.69 316.88,78.74 316.99,72.67 317.11,66.60 317.22,60.54 317.33,54.47 317.26,48.43 317.19,42.38 316.91,36.42 316.62,30.45 316.14,24.83 315.67,19.21 314.76,14.69 313.85,10.17 310.04,8.00 306.23,5.84 298.33,5.75 290.42,5.65 282.42,5.53 274.43,5.41 266.44,5.29 258.44,5.18 250.45,5.06 242.45,4.94 234.46,4.82 226.46,4.70 218.47,4.58 210.47,4.46 202.48,4.34 194.48,4.22 186.49,4.10 178.49,3.98 170.50,3.86 162.51,3.74 154.51,3.69 146.51,3.63 138.52,3.63 130.52,3.63 122.53,3.63 114.53,3.63 106.54,3.63 98.54,3.63 90.55,3.63 82.56,3.63 74.57,3.64 66.58,3.64 58.62,3.66 50.65,3.68 42.78,3.75 34.91,3.82 27.44,4.08 19.97,4.34 14.01,5.00 8.06,5.65 5.99,8.97 3.92,12.28 3.81,18.40 3.69,24.52 3.55,30.76 3.40,36.99 3.26,43.22 3.12,49.45 3.15,55.66 3.18,61.88 3.44,68.01 3.69,74.14 4.14,79.92 4.59,85.70 5.47,90.34 6.36,94.98 10.16,97.12 13.96,99.25 21.88,99.29 29.79,99.32 37.80,99.38 45.81,99.44 53.81,99.49 61.82,99.55 69.83,99.61 77.84,99.67 85.84,99.72 93.85,99.78 101.86,99.84 109.86,99.90 117.87,99.96 125.88,100.01 133.89,100.07 141.89,100.13 149.90,100.19 157.90,100.24 165.90,100.24 173.90,100.24 181.87,100.18 189.85,100.12 197.72,100.05 205.59,99.99 213.08,99.93 220.57,99.87 226.53,99.81 232.50,99.75 232.77,99.78 233.04,99.81 233.30,99.91 233.56,100.01 233.79,100.16 234.02,100.32 234.20,100.53 234.38,100.73 234.51,100.98 234.64,101.22 234.70,101.49 234.77,101.76 234.77,102.03 234.77,102.31 234.70,102.58 234.64,102.85 234.51,103.09 234.38,103.33 234.20,103.54 234.02,103.75 233.79,103.90 233.56,104.06 233.30,104.16 233.05,104.26 232.77,104.29 Z" fill="#36a64c" stroke="#36a64c" stroke-width="3.5" pointer-events="none"/></g><g id="a1ae2cce-9ced-42a1-1f79-4299060865b2_svg" class="tl-centered-g" transform="translate(256.00, 380.37) rotate(0.00, 153.04, 69.39)"><path d="M 2.49,44.02 Q 2.49,44.02 2.49,37.58 2.48,31.15 2.48,23.07 2.47,14.99 5.08,10.32 7.69,5.66 14.30,4.47 20.91,3.27 28.54,2.97 36.17,2.66 44.06,2.59 51.95,2.51 59.91,2.49 67.86,2.47 75.84,2.46 83.81,2.45 91.79,2.45 99.77,2.45 107.75,2.45 115.73,2.45 123.71,2.44 131.69,2.44 139.67,2.44 147.65,2.44 155.63,2.44 163.61,2.44 171.59,2.44 179.57,2.44 187.55,2.43 195.53,2.43 203.51,2.43 211.49,2.43 219.47,2.43 227.45,2.43 235.43,2.43 243.41,2.43 251.39,2.42 259.37,2.42 267.35,2.42 275.33,2.42 283.31,2.42 291.29,2.42 295.93,5.03 300.57,7.63 301.73,14.76 302.89,21.88 303.16,30.16 303.42,38.43 303.46,47.00 303.50,55.57 303.49,64.22 303.47,72.86 303.44,81.52 303.41,90.19 303.37,98.86 303.34,107.53 303.30,116.19 303.26,124.86 300.65,129.68 298.03,134.50 291.43,135.72 284.83,136.94 277.21,137.25 269.60,137.55 261.72,137.62 253.85,137.69 245.91,137.70 237.96,137.71 230.01,137.70 222.05,137.70 214.09,137.69 206.12,137.68 198.16,137.67 190.20,137.66 182.23,137.65 174.27,137.64 166.31,137.63 158.34,137.62 150.38,137.61 142.41,137.60 134.45,137.59 126.49,137.57 118.52,137.56 110.56,137.55 102.59,137.54 94.63,137.53 86.67,137.52 78.70,137.51 70.74,137.50 62.77,137.49 54.81,137.48 46.85,137.47 38.88,137.46 30.92,137.45 22.96,137.44 14.99,137.43 10.35,134.82 5.71,132.21 4.53,125.10 3.34,118.00 3.04,109.75 2.73,101.51 2.65,92.97 2.57,84.43 2.54,75.81 2.52,67.20 2.51,58.56 2.50,49.93 2.49,38.34" fill="#345246" pointer-events="none"/><path d="M 0.25,44.02 Q 0.25,44.02 0.09,37.59 -0.07,31.15 -0.21,22.98 -0.36,14.81 2.77,9.27 5.90,3.72 13.16,2.14 20.42,0.56 28.24,0.29 36.06,0.03 43.99,0.02 51.92,0.00 59.89,0.04 67.86,0.08 75.83,0.14 83.81,0.20 91.79,0.26 99.77,0.32 107.75,0.38 115.73,0.44 123.71,0.50 131.69,0.57 139.67,0.63 147.65,0.69 155.63,0.63 163.61,0.56 171.59,0.50 179.57,0.43 187.55,0.37 195.53,0.30 203.51,0.24 211.49,0.18 219.47,0.11 227.45,0.05 235.43,-0.01 243.41,-0.07 251.39,-0.14 259.37,-0.20 267.35,-0.27 275.33,-0.33 283.40,-0.37 291.47,-0.41 297.00,2.73 302.53,5.89 303.97,13.68 305.42,21.47 305.54,29.92 305.66,38.36 305.54,46.96 305.42,55.56 305.40,64.21 305.38,72.86 305.51,81.53 305.65,90.20 305.77,98.87 305.90,107.54 306.00,116.29 306.11,125.04 302.97,130.73 299.82,136.42 292.57,138.04 285.33,139.66 277.52,139.92 269.70,140.18 261.79,140.19 253.87,140.20 245.92,140.14 237.97,140.09 230.01,140.02 222.05,139.95 214.08,139.88 206.12,139.81 198.16,139.74 190.19,139.66 182.23,139.59 174.27,139.51 166.30,139.44 158.34,139.37 150.37,139.42 142.41,139.47 134.45,139.53 126.48,139.58 118.52,139.63 110.56,139.68 102.59,139.74 94.63,139.79 86.66,139.84 78.70,139.89 70.74,139.95 62.77,140.00 54.81,140.05 46.84,140.10 38.88,140.16 30.92,140.21 22.86,140.24 14.81,140.27 9.29,137.12 3.76,133.96 2.29,126.19 0.81,118.42 0.65,110.01 0.49,101.59 0.57,93.02 0.65,84.45 0.63,75.82 0.60,67.20 0.43,58.57 0.26,49.93 0.09,38.34 -0.07,26.74 -0.01,26.33 0.05,25.92 0.24,25.56 0.44,25.19 0.74,24.91 1.04,24.62 1.42,24.45 1.79,24.27 2.20,24.23 2.62,24.18 3.02,24.27 3.43,24.36 3.78,24.57 4.14,24.79 4.41,25.10 4.67,25.42 4.83,25.80 4.98,26.19 5.00,26.60 5.03,27.02 4.92,27.42 4.81,27.82 4.57,28.16 4.34,28.50 4.01,28.75 3.68,29.00 3.29,29.14 2.90,29.27 2.48,29.27 2.07,29.27 1.67,29.14 1.28,29.01 0.95,28.75 0.62,28.50 0.39,28.16 0.15,27.82 0.04,27.42 -0.06,27.02 -0.04,26.61 -0.01,26.19 0.13,25.81 0.28,25.42 0.55,25.10 0.82,24.79 1.18,24.57 1.53,24.36 1.94,24.27 2.34,24.18 2.75,24.23 3.16,24.27 3.54,24.45 3.92,24.62 4.22,24.90 4.52,25.19 4.71,25.56 4.91,25.92 4.98,26.33 5.04,26.74 5.04,26.74 5.04,26.74 4.89,38.33 4.73,49.93 4.58,58.56 4.43,67.19 4.45,75.80 4.48,84.41 4.72,92.92 4.97,101.42 5.42,109.50 5.87,117.58 6.77,124.02 7.66,130.45 11.42,132.52 15.18,134.59 23.05,134.64 30.92,134.69 38.89,134.76 46.85,134.83 54.81,134.91 62.78,134.98 70.74,135.06 78.71,135.13 86.67,135.20 94.63,135.28 102.60,135.35 110.56,135.42 118.52,135.50 126.49,135.57 134.45,135.65 142.42,135.72 150.38,135.79 158.34,135.87 166.31,135.81 174.27,135.76 182.24,135.71 190.20,135.66 198.16,135.60 206.13,135.55 214.09,135.50 222.05,135.44 230.01,135.38 237.96,135.33 245.89,135.25 253.82,135.18 261.66,135.05 269.49,134.92 276.91,134.57 284.33,134.23 290.29,133.40 296.24,132.58 298.33,128.64 300.42,124.69 300.60,116.10 300.77,107.51 300.97,98.85 301.17,90.18 301.36,81.52 301.56,72.86 301.58,64.22 301.59,55.58 301.39,47.04 301.19,38.51 300.77,30.40 300.36,22.29 299.49,15.83 298.62,9.38 294.86,7.32 291.11,5.26 283.22,5.22 275.33,5.18 267.35,5.12 259.37,5.06 251.39,5.00 243.41,4.93 235.43,4.87 227.45,4.81 219.47,4.75 211.49,4.69 203.51,4.62 195.53,4.56 187.55,4.50 179.57,4.44 171.59,4.38 163.61,4.31 155.63,4.25 147.65,4.19 139.67,4.25 131.69,4.32 123.71,4.38 115.73,4.45 107.75,4.51 99.77,4.58 91.79,4.64 83.81,4.71 75.84,4.78 67.87,4.85 59.92,4.93 51.97,5.02 44.12,5.16 36.27,5.30 28.83,5.64 21.39,5.99 15.43,6.79 9.47,7.59 7.39,11.38 5.31,15.17 5.18,23.16 5.04,31.15 4.89,37.58 4.73,44.02 4.69,44.29 4.66,44.56 4.57,44.81 4.47,45.06 4.32,45.28 4.17,45.50 3.96,45.68 3.76,45.86 3.52,45.99 3.28,46.11 3.02,46.18 2.76,46.24 2.49,46.24 2.22,46.24 1.96,46.18 1.70,46.11 1.46,45.99 1.22,45.86 1.02,45.68 0.82,45.51 0.66,45.28 0.51,45.06 0.41,44.81 0.32,44.56 0.28,44.29 Z" fill="#36a64c" stroke="#36a64c" stroke-width="3.5" pointer-events="none"/></g><g id="bb84b1ea-a114-4ba9-37bc-f64cafb4e76d_svg" class="tl-centered-g" transform="translate(396.34, 412.30) rotate(0.00, 16.24, 13.78)"><path d="M 32.34,19.64 Q 32.34,19.64 29.23,22.91 26.11,26.19 22.00,26.93 17.89,27.68 12.93,27.03 7.97,26.39 3.48,23.94 -1.00,21.49 -2.80,17.15 -4.61,12.81 -1.99,8.76 0.62,4.72 6.66,2.67 12.70,0.62 19.20,1.30 25.71,1.97 30.18,4.87 34.64,7.77 35.78,11.62 36.91,15.48 35.06,18.75 33.20,22.02 29.88,23.75 26.56,25.48 23.42,25.13 20.28,24.77 20.27,24.77 20.27,24.76 20.27,24.76 20.27,24.75 22.42,23.19 24.57,21.62 26.98,20.34 29.40,19.06 31.13,17.19 32.86,15.31 32.47,12.85 32.08,10.38 28.59,8.16 25.10,5.93 19.48,5.32 13.86,4.71 8.89,6.22 3.91,7.73 1.70,10.44 -0.51,13.16 0.52,15.59 1.55,18.03 5.09,19.80 8.63,21.57 12.85,21.95 17.06,22.32 20.32,21.85 23.57,21.38 27.95,20.50 Z" fill="#cecece" stroke="#cecece" stroke-width="3.5" pointer-events="none" stroke-linecap="round" stroke-linejoin="round"/></g><g id="5e3b6b00-6e30-40b6-339e-617e9e9e7e98_svg" class="tl-centered-g" transform="translate(369.81, 455.44) rotate(0.00, 14.19, 12.67)"><path d="M 24.21,2.64 Q 24.21,2.64 27.17,5.47 30.13,8.31 30.35,11.77 30.57,15.22 29.21,19.06 27.86,22.90 24.53,25.98 21.21,29.06 16.48,29.76 11.75,30.46 7.39,27.92 3.02,25.38 0.87,20.51 -1.27,15.63 -0.54,10.44 0.17,5.25 3.16,1.56 6.14,-2.13 10.09,-3.46 14.04,-4.80 17.64,-3.98 21.25,-3.16 23.51,-0.93 25.76,1.30 26.05,3.84 26.33,6.39 26.32,6.39 26.32,6.39 26.32,6.40 26.31,6.40 22.95,4.02 19.58,1.65 17.26,0.71 14.93,-0.22 12.06,0.38 9.19,0.99 6.84,3.61 4.49,6.24 3.89,10.16 3.29,14.07 4.78,17.61 6.27,21.15 9.05,22.96 11.83,24.76 14.75,24.48 17.66,24.20 19.84,22.29 22.02,20.38 23.05,17.78 24.08,15.18 24.19,12.93 24.30,10.67 24.25,6.66 Z" fill="#cecece" stroke="#cecece" stroke-width="3.5" pointer-events="none" stroke-linecap="round" stroke-linejoin="round"/></g><g id="ae878c0a-18e5-4980-21bf-3f00501b43f0_svg" class="tl-centered-g" transform="translate(423.65, 454.67) rotate(0.00, 16.70, 14.22)"><path d="M 16.29,30.02 Q 16.29,30.02 12.32,29.93 8.35,29.84 5.86,27.33 3.36,24.83 1.99,20.66 0.62,16.50 1.43,11.52 2.24,6.54 5.62,2.55 9.01,-1.43 14.07,-2.40 19.12,-3.37 23.61,-0.56 28.10,2.23 30.07,7.44 32.04,12.64 31.01,17.86 29.97,23.07 26.89,26.49 23.81,29.91 20.12,31.03 16.42,32.14 13.33,31.17 10.23,30.21 8.86,28.00 7.49,25.80 7.49,25.80 7.49,25.80 7.50,25.79 7.50,25.79 11.60,26.82 15.70,27.85 18.49,27.43 21.27,27.01 23.84,24.51 26.42,22.02 27.38,17.83 28.34,13.64 26.94,9.44 25.54,5.24 22.28,2.98 19.03,0.71 15.45,1.29 11.88,1.86 9.43,4.77 6.99,7.67 6.43,11.40 5.86,15.13 6.75,18.23 7.64,21.33 9.01,23.24 10.38,25.15 13.34,27.57 Z" fill="#cecece" stroke="#cecece" stroke-width="3.5" pointer-events="none" stroke-linecap="round" stroke-linejoin="round"/></g><g id="175307dd-b1a9-4550-0c10-09af58b96ca6_svg" class="tl-centered-g" transform="translate(339.79, 494.43) rotate(0.00, 13.34, 13.59)"><path d="M 25.08,3.78 Q 25.08,3.78 27.69,7.17 30.30,10.55 30.31,14.12 30.32,17.68 28.62,21.54 26.92,25.40 23.19,28.28 19.46,31.16 14.46,31.45 9.46,31.73 5.06,28.74 0.66,25.76 -1.32,20.55 -3.31,15.34 -2.22,9.97 -1.12,4.60 2.35,1.01 5.83,-2.57 10.13,-3.60 14.43,-4.63 18.18,-3.47 21.94,-2.32 24.22,0.13 26.50,2.60 26.81,5.23 27.11,7.87 27.11,7.87 27.10,7.87 27.10,7.88 27.09,7.88 25.44,6.53 23.78,5.18 22.00,3.51 20.21,1.83 17.55,0.62 14.90,-0.59 11.57,-0.11 8.24,0.35 5.43,3.06 2.63,5.77 1.65,10.00 0.68,14.24 2.11,18.33 3.55,22.42 6.71,24.69 9.87,26.96 13.34,26.87 16.81,26.78 19.48,24.82 22.15,22.86 23.53,20.07 24.91,17.27 25.20,14.72 25.50,12.18 25.28,7.98 Z" fill="#cecece" stroke="#cecece" stroke-width="3.5" pointer-events="none" stroke-linecap="round" stroke-linejoin="round"/></g><g id="2700b357-2234-49e8-3527-51b4dac42840_svg" class="tl-centered-g" transform="translate(455.83, 493.25) rotate(0.00, 13.34, 13.59)"><path d="M 21.55,23.40 Q 21.55,23.40 17.88,25.62 14.21,27.84 10.76,27.57 7.31,27.29 3.70,25.76 0.08,24.23 -2.62,21.05 -5.33,17.88 -5.34,13.62 -5.36,9.37 -2.02,5.88 1.30,2.39 6.66,1.07 12.03,-0.24 17.31,0.72 22.60,1.69 26.27,4.37 29.93,7.04 31.17,10.57 32.40,14.09 31.32,17.29 30.23,20.49 27.72,22.33 25.21,24.17 22.58,24.05 19.94,23.94 19.94,23.93 19.94,23.93 19.94,23.92 19.94,23.92 22.58,20.92 25.23,17.92 25.96,14.15 26.68,10.37 24.11,8.34 21.54,6.31 17.33,5.61 13.12,4.91 9.11,5.92 5.10,6.93 2.49,10.95 -0.12,14.98 1.35,16.84 2.83,18.69 5.46,19.89 8.09,21.09 10.63,21.48 13.17,21.87 17.36,22.62 Z" fill="#cecece" stroke="#cecece" stroke-width="3.5" pointer-events="none" stroke-linecap="round" stroke-linejoin="round"/></g><g id="c50a639e-c837-4c0e-19dd-6b9eb82f58de_svg" class="tl-centered-g" transform="translate(394.83, 494.05) rotate(0.00, 16.82, 12.03)"><path d="M 18.21,-3.37 Q 18.21,-3.37 22.57,-2.74 26.94,-2.11 29.44,0.63 31.95,3.38 33.02,7.77 34.09,12.16 32.49,17.08 30.88,22.00 26.45,25.31 22.02,28.61 16.31,28.37 10.60,28.13 6.33,24.15 2.05,20.18 1.24,14.43 0.43,8.69 3.10,3.91 5.78,-0.85 10.23,-2.94 14.69,-5.03 18.96,-4.54 23.24,-4.05 26.11,-1.88 28.99,0.27 29.72,2.97 30.45,5.68 30.45,5.68 30.44,5.68 30.44,5.69 30.44,5.69 28.63,4.36 26.82,3.04 24.61,1.42 22.40,-0.20 19.12,-0.93 15.83,-1.65 12.21,-0.19 8.60,1.26 6.31,4.98 4.02,8.71 4.49,13.32 4.96,17.93 8.20,21.18 11.44,24.44 15.80,24.76 20.17,25.08 23.57,22.64 26.96,20.20 28.19,16.53 29.41,12.85 28.76,9.53 28.10,6.21 26.58,3.99 25.06,1.77 21.63,-0.78 Z" fill="#cecece" stroke="#cecece" stroke-width="3.5" pointer-events="none" stroke-linecap="round" stroke-linejoin="round"/></g><g id="9b4d09f2-2e9e-4785-31db-4db5334caef6_svg" class="tl-centered-g" transform="translate(390.97, 437.94) rotate(0.00, 6.67, 9.56)"><defs><mask id="9b4d09f2-2e9e-4785-31db-4db5334caef6_clip"><rect x="-100" y="-100" width="213.34" height="219.13" fill="white"/><rect x="6.67" y="9.56" width="0" height="0" rx="2" ry="2" fill="black" opacity="1"/></mask></defs><g pointer-events="none" opacity="1" mask=""><path d="M 14.10,0.53 Q 14.10,0.53 12.40,2.90 10.71,5.27 9.02,7.65 7.33,10.02 5.65,12.40 3.96,14.78 2.28,17.17 0.60,19.55 0.52,19.63 0.44,19.72 0.33,19.78 0.22,19.83 0.10,19.85 -0.00,19.87 -0.12,19.84 -0.24,19.82 -0.35,19.77 -0.45,19.71 -0.53,19.62 -0.61,19.53 -0.66,19.42 -0.71,19.31 -0.72,19.19 -0.73,19.08 -0.71,18.96 -0.68,18.84 -0.62,18.74 -0.55,18.64 -0.46,18.56 -0.37,18.49 -0.26,18.44 -0.14,18.40 -0.02,18.39 0.08,18.39 0.20,18.42 0.31,18.46 0.41,18.53 0.51,18.59 0.58,18.69 0.65,18.79 0.69,18.90 0.73,19.01 0.73,19.13 0.72,19.25 0.68,19.37 0.64,19.48 0.57,19.57 0.50,19.67 0.40,19.74 0.30,19.80 0.18,19.83 0.07,19.86 -0.04,19.85 -0.16,19.85 -0.27,19.80 -0.39,19.75 -0.48,19.68 -0.57,19.60 -0.63,19.49 -0.69,19.39 -0.71,19.27 -0.73,19.16 -0.72,19.04 -0.71,18.92 -0.65,18.81 -0.60,18.70 -0.60,18.70 -0.60,18.70 1.04,16.30 2.70,13.90 4.35,11.50 6.00,9.10 7.65,6.69 9.29,4.28 10.93,1.87 12.57,-0.53 12.64,-0.61 12.72,-0.70 12.81,-0.76 12.90,-0.82 13.01,-0.86 13.12,-0.90 13.23,-0.92 13.34,-0.93 13.45,-0.92 13.56,-0.90 13.67,-0.86 13.77,-0.82 13.87,-0.76 13.96,-0.69 14.03,-0.61 14.11,-0.52 14.16,-0.42 14.21,-0.32 14.24,-0.21 14.26,-0.10 14.26,0.00 14.26,0.11 14.23,0.22 14.21,0.33 14.15,0.43 Z" fill="#cecece" stroke="#cecece" stroke-width="2.11" stroke-dasharray="none" stroke-dashoffset="none" stroke-linecap="round" stroke-linejoin="round" pointer-events="stroke"/></g></g><g id="b35d1a2a-8ad0-497c-2d07-76bb6304bb39_svg" class="tl-centered-g" transform="translate(420.82, 437.96) rotate(0.00, 6.25, 9.02)"><defs><mask id="b35d1a2a-8ad0-497c-2d07-76bb6304bb39_clip"><rect x="-100" y="-100" width="212.51" height="218.03" fill="white"/><rect x="6.25" y="9.01" width="0" height="0" rx="2" ry="2" fill="black" opacity="1"/></mask></defs><g pointer-events="none" opacity="1" mask=""><path d="M 0.84,-0.58 Q 0.84,-0.58 2.38,1.68 3.92,3.95 5.46,6.22 7.01,8.48 8.56,10.75 10.11,13.01 11.66,15.27 13.22,17.53 13.28,17.66 13.34,17.78 13.36,17.92 13.37,18.06 13.34,18.20 13.32,18.34 13.24,18.46 13.17,18.58 13.07,18.67 12.96,18.76 12.83,18.82 12.70,18.87 12.56,18.88 12.42,18.89 12.28,18.85 12.15,18.82 12.03,18.74 11.91,18.66 11.83,18.55 11.74,18.44 11.70,18.31 11.65,18.17 11.65,18.03 11.65,17.89 11.69,17.76 11.73,17.63 11.82,17.51 11.90,17.40 12.02,17.32 12.13,17.24 12.27,17.20 12.40,17.16 12.54,17.17 12.68,17.18 12.81,17.23 12.94,17.28 13.05,17.37 13.16,17.46 13.23,17.58 13.31,17.70 13.34,17.83 13.37,17.97 13.36,18.11 13.34,18.25 13.29,18.38 13.23,18.50 13.13,18.61 13.04,18.71 12.91,18.78 12.79,18.84 12.65,18.87 12.51,18.89 12.38,18.87 12.24,18.85 12.11,18.79 11.99,18.72 11.89,18.62 11.79,18.52 11.79,18.52 11.79,18.52 10.22,16.27 8.64,14.03 7.07,11.78 5.49,9.54 3.91,7.30 2.33,5.05 0.74,2.82 -0.84,0.58 -0.90,0.47 -0.95,0.36 -0.98,0.24 -1.01,0.12 -1.01,0.00 -1.01,-0.12 -0.99,-0.24 -0.96,-0.36 -0.90,-0.47 -0.84,-0.58 -0.76,-0.67 -0.68,-0.76 -0.58,-0.83 -0.47,-0.90 -0.36,-0.95 -0.24,-0.99 -0.12,-1.01 -0.00,-1.02 0.12,-1.01 0.24,-0.99 0.35,-0.95 0.47,-0.91 0.57,-0.84 0.67,-0.77 0.76,-0.67 Z" fill="#cecece" stroke="#cecece" stroke-width="2.11" stroke-dasharray="none" stroke-dashoffset="none" stroke-linecap="round" stroke-linejoin="round" pointer-events="stroke"/></g></g><g id="e1bbf4c9-57bb-4eee-349a-cec2770d6ed3_svg" class="tl-centered-g" transform="translate(361.46, 478.56) rotate(0.00, 7.25, 9.42)"><defs><mask id="e1bbf4c9-57bb-4eee-349a-cec2770d6ed3_clip"><rect x="-100" y="-100" width="214.51" height="218.84" fill="white"/><rect x="7.25" y="9.42" width="0" height="0" rx="2" ry="2" fill="black" opacity="1"/></mask></defs><g pointer-events="none" opacity="1" mask=""><path d="M 15.20,0.53 Q 15.20,0.53 13.35,2.86 11.51,5.19 9.67,7.53 7.83,9.86 6.00,12.20 4.17,14.55 2.34,16.89 0.52,19.24 0.44,19.31 0.36,19.38 0.26,19.43 0.17,19.47 0.06,19.48 -0.03,19.49 -0.14,19.47 -0.24,19.44 -0.33,19.39 -0.42,19.33 -0.49,19.25 -0.56,19.17 -0.60,19.07 -0.64,18.97 -0.64,18.87 -0.65,18.76 -0.62,18.66 -0.59,18.56 -0.53,18.47 -0.47,18.38 -0.38,18.32 -0.30,18.25 -0.20,18.22 -0.10,18.19 0.00,18.19 0.11,18.19 0.21,18.22 0.31,18.26 0.39,18.32 0.48,18.39 0.53,18.47 0.59,18.56 0.62,18.67 0.65,18.77 0.64,18.87 0.64,18.98 0.60,19.08 0.56,19.18 0.49,19.26 0.42,19.34 0.33,19.39 0.23,19.45 0.13,19.47 0.03,19.49 -0.07,19.48 -0.17,19.47 -0.27,19.42 -0.37,19.38 -0.44,19.30 -0.52,19.23 -0.57,19.14 -0.62,19.04 -0.64,18.94 -0.65,18.83 -0.63,18.73 -0.62,18.62 -0.57,18.53 -0.52,18.43 -0.52,18.43 -0.52,18.43 1.28,16.07 3.08,13.70 4.87,11.34 6.67,8.97 8.46,6.59 10.25,4.22 12.03,1.84 13.81,-0.53 13.89,-0.60 13.96,-0.68 14.05,-0.73 14.14,-0.79 14.24,-0.82 14.34,-0.85 14.45,-0.86 14.55,-0.87 14.65,-0.85 14.76,-0.83 14.85,-0.79 14.95,-0.75 15.03,-0.68 15.12,-0.62 15.18,-0.54 15.25,-0.45 15.29,-0.36 15.34,-0.26 15.36,-0.16 15.38,-0.05 15.37,0.04 15.37,0.15 15.34,0.25 15.31,0.35 15.25,0.44 Z" fill="#cecece" stroke="#cecece" stroke-width="2.11" stroke-dasharray="none" stroke-dashoffset="none" stroke-linecap="round" stroke-linejoin="round" pointer-events="stroke"/></g></g><g id="b6944965-c7fd-41ac-1938-74e43d3a92a8_svg" class="tl-centered-g" transform="translate(417.77, 480.32) rotate(0.00, 6.32, 7.28)"><defs><mask id="b6944965-c7fd-41ac-1938-74e43d3a92a8_clip"><rect x="-100" y="-100" width="212.64" height="214.55" fill="white"/><rect x="6.32" y="7.27" width="0" height="0" rx="2" ry="2" fill="black" opacity="1"/></mask></defs><g pointer-events="none" opacity="1" mask=""><path d="M 13.36,0.63 Q 13.36,0.63 11.76,2.42 10.15,4.22 8.55,6.02 6.95,7.83 5.36,9.63 3.77,11.44 2.18,13.25 0.59,15.06 0.49,15.14 0.39,15.22 0.27,15.27 0.15,15.31 0.03,15.32 -0.09,15.32 -0.21,15.29 -0.33,15.25 -0.44,15.18 -0.54,15.11 -0.61,15.01 -0.69,14.90 -0.73,14.78 -0.77,14.66 -0.77,14.54 -0.77,14.41 -0.72,14.29 -0.68,14.17 -0.60,14.07 -0.53,13.97 -0.42,13.90 -0.32,13.83 -0.19,13.80 -0.07,13.77 0.05,13.77 0.17,13.78 0.29,13.83 0.41,13.88 0.50,13.96 0.60,14.05 0.66,14.15 0.72,14.26 0.75,14.39 0.78,14.51 0.76,14.64 0.75,14.76 0.69,14.88 0.64,14.99 0.55,15.08 0.46,15.17 0.35,15.23 0.24,15.29 0.11,15.31 -0.00,15.33 -0.13,15.31 -0.25,15.28 -0.36,15.22 -0.48,15.16 -0.56,15.07 -0.65,14.98 -0.70,14.86 -0.75,14.75 -0.76,14.62 -0.78,14.49 -0.75,14.37 -0.72,14.25 -0.65,14.14 -0.59,14.03 -0.59,14.03 -0.59,14.03 0.97,12.20 2.54,10.38 4.11,8.55 5.68,6.71 7.24,4.88 8.80,3.04 10.35,1.20 11.91,-0.63 11.99,-0.71 12.08,-0.78 12.18,-0.84 12.28,-0.89 12.40,-0.92 12.51,-0.95 12.63,-0.95 12.74,-0.95 12.86,-0.93 12.97,-0.90 13.07,-0.85 13.18,-0.79 13.26,-0.72 13.35,-0.64 13.42,-0.55 13.48,-0.45 13.53,-0.34 13.57,-0.23 13.58,-0.12 13.60,-0.00 13.59,0.10 13.57,0.22 13.53,0.33 13.49,0.44 13.43,0.53 Z" fill="#cecece" stroke="#cecece" stroke-width="2.11" stroke-dasharray="none" stroke-dashoffset="none" stroke-linecap="round" stroke-linejoin="round" pointer-events="stroke"/></g></g><g id="694de074-662f-496c-2ddd-378bcaf1df83_svg" class="tl-centered-g" transform="translate(451.12, 479.76) rotate(0.00, 7.00, 7.07)"><defs><mask id="694de074-662f-496c-2ddd-378bcaf1df83_clip"><rect x="-100" y="-100" width="214.01" height="214.13" fill="white"/><rect x="7.00" y="7.06" width="0" height="0" rx="2" ry="2" fill="black" opacity="1"/></mask></defs><g pointer-events="none" opacity="1" mask=""><path d="M 0.74,-0.74 Q 0.74,-0.74 2.47,1.04 4.20,2.83 5.94,4.61 7.68,6.39 9.42,8.16 11.16,9.94 12.90,11.72 14.65,13.49 14.73,13.61 14.81,13.73 14.86,13.87 14.90,14.01 14.89,14.15 14.89,14.30 14.84,14.44 14.79,14.57 14.70,14.69 14.60,14.80 14.48,14.88 14.36,14.96 14.22,14.99 14.07,15.02 13.93,15.01 13.78,15.00 13.65,14.94 13.52,14.88 13.41,14.79 13.30,14.69 13.23,14.56 13.16,14.43 13.13,14.29 13.10,14.15 13.12,14.00 13.14,13.86 13.21,13.73 13.27,13.60 13.38,13.49 13.48,13.39 13.61,13.33 13.74,13.26 13.89,13.24 14.03,13.22 14.18,13.25 14.32,13.28 14.45,13.35 14.57,13.42 14.67,13.53 14.77,13.64 14.82,13.78 14.88,13.91 14.89,14.06 14.90,14.20 14.87,14.34 14.83,14.49 14.75,14.61 14.67,14.73 14.56,14.82 14.45,14.91 14.31,14.96 14.17,15.01 14.03,15.02 13.88,15.02 13.74,14.97 13.60,14.93 13.48,14.85 13.36,14.76 13.36,14.76 13.36,14.76 11.61,13.00 9.85,11.24 8.08,9.49 6.32,7.73 4.56,5.98 2.79,4.23 1.02,2.48 -0.74,0.74 -0.82,0.64 -0.90,0.54 -0.95,0.42 -1.00,0.30 -1.02,0.18 -1.04,0.05 -1.04,-0.06 -1.03,-0.19 -0.99,-0.31 -0.95,-0.43 -0.89,-0.54 -0.82,-0.65 -0.73,-0.74 -0.64,-0.83 -0.53,-0.89 -0.42,-0.96 -0.30,-0.99 -0.18,-1.03 -0.05,-1.04 0.06,-1.04 0.19,-1.02 0.31,-1.00 0.43,-0.95 0.54,-0.89 0.64,-0.81 Z" fill="#cecece" stroke="#cecece" stroke-width="2.11" stroke-dasharray="none" stroke-dashoffset="none" stroke-linecap="round" stroke-linejoin="round" pointer-events="stroke"/></g></g><g id="8a1205a5-977d-4c82-0ddc-7d92f9cea0d3_svg" class="tl-centered-g" transform="translate(377.29, 296.84) rotate(0.00, 13.23, 54.44)"><defs><mask id="8a1205a5-977d-4c82-0ddc-7d92f9cea0d3_clip"><rect x="-100" y="-100" width="226.46" height="308.88" fill="white"/><rect x="13.23" y="54.44" width="0" height="0" rx="3.50" ry="3.50" fill="black" opacity="1"/></mask></defs><g pointer-events="none" opacity="1" mask=""><path d="M 25.00,109.23 Q 25.00,109.23 21.86,96.03 18.73,82.83 15.58,69.63 12.43,56.43 9.26,43.24 6.10,30.04 2.92,16.85 -0.25,3.66 -0.26,3.48 -0.27,3.30 -0.23,3.13 -0.18,2.95 -0.09,2.80 0.00,2.65 0.14,2.54 0.28,2.43 0.45,2.37 0.62,2.31 0.80,2.30 0.98,2.30 1.15,2.35 1.32,2.41 1.46,2.51 1.61,2.62 1.71,2.76 1.82,2.91 1.87,3.08 1.92,3.25 1.91,3.43 1.91,3.61 1.85,3.78 1.78,3.95 1.67,4.09 1.56,4.22 1.41,4.32 1.25,4.42 1.08,4.46 0.91,4.50 0.73,4.49 0.55,4.47 0.38,4.40 0.22,4.33 0.09,4.21 -0.04,4.09 -0.12,3.93 -0.21,3.77 -0.24,3.60 -0.28,3.42 -0.25,3.24 -0.23,3.06 -0.15,2.90 -0.06,2.74 0.05,2.62 0.18,2.49 0.34,2.41 0.50,2.34 0.68,2.31 0.86,2.29 1.03,2.32 1.21,2.36 1.36,2.45 1.52,2.54 1.64,2.67 1.76,2.80 1.83,2.97 1.90,3.13 1.90,3.13 1.90,3.13 5.13,16.31 8.36,29.49 11.61,42.67 14.85,55.84 18.11,69.01 21.36,82.19 24.64,95.35 27.91,108.52 27.93,108.70 27.96,108.88 27.93,109.06 27.91,109.24 27.85,109.41 27.78,109.58 27.68,109.73 27.57,109.87 27.44,109.99 27.30,110.11 27.14,110.20 26.98,110.28 26.81,110.32 26.63,110.36 26.45,110.36 26.27,110.36 26.09,110.32 25.92,110.28 25.76,110.19 25.60,110.11 25.46,109.99 25.33,109.87 25.23,109.72 25.12,109.57 25.06,109.40 Z" fill="#36a64c" stroke="#36a64c" stroke-width="3.33" stroke-dasharray="none" stroke-dashoffset="none" stroke-linecap="round" stroke-linejoin="round" pointer-events="stroke"/><g><path d="M -7.877793034422439,26.86894819130078 L 0,0 19.33,20.256842989216324" fill="none" stroke="#36a64c" stroke-width="6.66" stroke-linecap="round" stroke-linejoin="round" pointer-events="none"/></g></g></g><g id="479eba4e-4d52-4180-19e8-e512c2827b33_svg" class="tl-centered-g" transform="translate(176.96, 423.66) rotate(0.00, 82.69, 28.20)"><defs><mask id="479eba4e-4d52-4180-19e8-e512c2827b33_clip"><rect x="-100" y="-100" width="365.38" height="256.40" fill="white"/><rect x="82.69" y="28.20" width="0" height="0" rx="4" ry="4" fill="black" opacity="1"/></mask></defs><g pointer-events="none" opacity="1" mask=""><path d="M 164.82,58.03 Q 164.82,58.03 144.58,51.07 124.34,44.11 104.09,37.15 83.85,30.20 63.60,23.27 43.35,16.33 23.10,9.39 2.85,2.46 2.65,2.35 2.45,2.25 2.29,2.08 2.14,1.91 2.04,1.71 1.94,1.50 1.92,1.27 1.90,1.04 1.95,0.82 2.00,0.60 2.12,0.40 2.23,0.21 2.41,0.06 2.58,-0.08 2.80,-0.16 3.01,-0.25 3.24,-0.26 3.47,-0.27 3.69,-0.21 3.91,-0.15 4.09,-0.02 4.28,0.10 4.42,0.29 4.56,0.47 4.63,0.68 4.70,0.90 4.70,1.13 4.70,1.36 4.63,1.58 4.55,1.79 4.41,1.97 4.28,2.15 4.09,2.28 3.90,2.41 3.68,2.47 3.45,2.53 3.23,2.52 3.00,2.50 2.79,2.42 2.57,2.33 2.40,2.18 2.23,2.04 2.11,1.84 1.99,1.64 1.94,1.42 1.90,1.20 1.92,0.97 1.95,0.74 2.04,0.53 2.14,0.33 2.30,0.16 2.46,0.00 2.66,-0.10 2.86,-0.21 3.09,-0.24 3.31,-0.28 3.54,-0.24 3.76,-0.20 3.76,-0.20 3.76,-0.20 24.03,6.68 44.30,13.56 64.56,20.44 84.83,27.33 105.10,34.19 125.38,41.06 145.65,47.92 165.93,54.78 166.12,54.87 166.30,54.96 166.46,55.09 166.62,55.22 166.75,55.39 166.87,55.55 166.95,55.75 167.03,55.94 167.06,56.14 167.09,56.35 167.08,56.55 167.06,56.76 166.99,56.96 166.92,57.15 166.81,57.33 166.70,57.50 166.55,57.64 166.40,57.79 166.22,57.89 166.04,57.99 165.84,58.05 165.64,58.10 165.43,58.11 165.23,58.12 165.02,58.08 Z" fill="#36a64c" stroke="#36a64c" stroke-width="3.33" stroke-dasharray="none" stroke-dashoffset="none" stroke-linecap="round" stroke-linejoin="round" pointer-events="stroke"/><g><path d="M 18.43,21.07861029363645 L 0,0 27.46,-5.422184165484447" fill="none" stroke="#36a64c" stroke-width="6.66" stroke-linecap="round" stroke-linejoin="round" pointer-events="none"/></g></g></g><g id="c24c9cbf-9707-43d6-2ee2-b512604397c2_svg" class="tl-centered-g" transform="translate(310.33, 411.85) rotate(0.00, 25.41, 17.73)"><defs><mask id="c24c9cbf-9707-43d6-2ee2-b512604397c2_clip"><rect x="-100" y="-100" width="250.82" height="235.46" fill="white"/><rect x="25.41" y="17.73" width="0" height="0" rx="2" ry="2" fill="black" opacity="1"/></mask></defs><g pointer-events="none" opacity="1" mask=""><path d="M 49.95,36.70 Q 49.95,36.70 43.99,32.46 38.04,28.22 32.08,24.00 26.11,19.77 20.14,15.56 14.17,11.34 8.19,7.13 2.22,2.93 2.08,2.80 1.95,2.67 1.87,2.51 1.78,2.35 1.76,2.16 1.73,1.98 1.76,1.80 1.79,1.62 1.88,1.46 1.97,1.30 2.11,1.17 2.24,1.05 2.41,0.97 2.58,0.90 2.76,0.88 2.94,0.86 3.12,0.91 3.30,0.95 3.46,1.05 3.61,1.14 3.73,1.28 3.85,1.43 3.91,1.60 3.98,1.77 3.98,1.95 3.99,2.14 3.94,2.31 3.89,2.49 3.78,2.64 3.68,2.79 3.53,2.90 3.38,3.01 3.21,3.06 3.03,3.12 2.85,3.12 2.67,3.12 2.49,3.05 2.32,2.99 2.18,2.88 2.03,2.77 1.93,2.61 1.83,2.46 1.78,2.28 1.74,2.11 1.75,1.92 1.76,1.74 1.83,1.57 1.90,1.40 2.02,1.26 2.14,1.12 2.30,1.03 2.46,0.94 2.64,0.90 2.82,0.86 3.00,0.89 3.18,0.91 3.35,0.99 3.52,1.07 3.52,1.07 3.52,1.07 9.53,5.23 15.54,9.38 21.55,13.53 27.57,17.68 33.59,21.82 39.62,25.96 45.65,30.08 51.68,34.21 51.82,34.33 51.96,34.45 52.06,34.60 52.16,34.76 52.23,34.93 52.29,35.10 52.31,35.28 52.33,35.46 52.31,35.64 52.29,35.83 52.22,36.00 52.16,36.17 52.05,36.32 51.95,36.47 51.81,36.59 51.67,36.71 51.51,36.79 51.35,36.88 51.17,36.92 50.99,36.96 50.81,36.96 50.62,36.96 50.45,36.92 50.27,36.87 50.11,36.79 Z" fill="#36a64c" stroke="#36a64c" stroke-width="3.33" stroke-dasharray="none" stroke-dashoffset="none" stroke-linecap="round" stroke-linejoin="round" pointer-events="stroke"/><g><path d="M 8.76,18.706420272732068 L 0,0 20.58,1.7664202727320681" fill="none" stroke="#36a64c" stroke-width="6.66" stroke-linecap="round" stroke-linejoin="round" pointer-events="none"/></g></g></g><g text-align="left" text-anchor="start" fill="#ebbb38" transform="translate(236.36, 519.96) rotate(0.00, 151.00, 36.50)"><text y="24" letter-spacing="-1.44" font-size="48px" font-family="Caveat Brush" text-align="left" alignment-baseline="central" transform="scale(1.3176672507145086)">"Rehydration"</text></g></svg>