<svg xmlns="http://www.w3.org/2000/svg" viewBox="0 0 1504 688" width="1504" height="688" style="background-color: transparent;"><defs><style>@import url('https://fonts.googleapis.com/css2?family=Caveat+Brush&amp;family=Source+Code+Pro&amp;family=Source+Sans+Pro&amp;family=Crimson+Pro&amp;display=block');</style></defs><g id="c286159d-3cd8-4d6d-2ca8-8004c36d8abf_svg" class="tl-centered-g" transform="translate(16.00, 16.00) rotate(0.00, 736.00, 328.00)"><g pointer-events="none" stroke="transparent" stroke-width="4.23" stroke-linecap="round"><line x1="2.11" y1="2.11" x2="1469.88" y2="2.11" stroke-dasharray="0.03 6.46" stroke-dashoffset="0"/><line x1="1469.88" y1="2.11" x2="1469.88" y2="653.88" stroke-dasharray="0.03 6.48" stroke-dashoffset="0"/><line x1="1469.88" y1="653.88" x2="2.11" y2="653.88" stroke-dasharray="0.03 6.46" stroke-dashoffset="0"/><line x1="2.11" y1="653.88" x2="2.11" y2="2.11" stroke-dasharray="0.03 6.48" stroke-dashoffset="0"/></g></g><text font-size="32.63098053773135px" font-family="Caveat Brush" font-weight="normal" line-height="32.63098053773135px" letter-spacing="-0.03em" text-align="left" dominant-baseline="mathematical" alignment-baseline="mathematical" text-anchor="start" fill="#36a64c" transform="translate(212.48, 159.85) rotate(0.00, 63.00, 21.50)"><tspan y="16.315490268865673px" x="4">/path/path
</tspan></text><g id="f52a5e6c-4c6b-42ab-27ac-01a9ccb145db_svg" class="tl-centered-g" transform="translate(714.62, 96.54) rotate(0.00, 24.68, 235.26)"><g opacity="1"><path d="M22.260,0.210Q22.260,0.210 21.15,0.481 20.04,0.751 18.93,1.319 17.81,1.887 16.66,2.700 15.50,3.513 14.24,4.508 12.97,5.503 11.78,6.547 10.58,7.592 9.58,8.562 8.58,9.533 7.67,10.508 6.76,11.483 5.95,12.442 5.13,13.401 4.49,14.267 3.85,15.133 3.40,15.933 2.95,16.733 2.66,17.574 2.37,18.415 2.21,19.371 2.04,20.328 1.95,21.029 1.86,21.729 1.88,22.510 1.91,23.291 2.13,24.083 2.35,24.875 2.81,25.686 3.27,26.497 3.92,27.382 4.57,28.266 5.38,29.204 6.19,30.143 7.12,31.113 8.06,32.084 9.05,33.016 10.05,33.948 11.22,34.882 12.39,35.815 13.71,36.720 15.03,37.625 16.27,38.427 17.51,39.229 18.61,39.892 19.71,40.554 20.73,41.137 21.75,41.720 22.70,42.302 23.66,42.884 24.56,43.467 25.46,44.050 26.30,44.630 27.15,45.209 27.93,45.784 28.70,46.360 29.40,46.948 30.09,47.537 30.70,48.171 31.31,48.805 31.82,49.468 32.32,50.132 32.72,50.811 33.12,51.491 33.44,52.247 33.76,53.003 34.00,53.906 34.23,54.810 34.37,55.821 34.51,56.833 34.58,57.855 34.66,58.876 34.58,59.886 34.50,60.896 34.06,62.007 33.62,63.118 32.81,64.362 32.00,65.607 30.99,66.887 29.99,68.168 28.81,69.547 27.63,70.925 25.97,72.703 24.31,74.481 23.12,75.776 21.93,77.071 20.75,78.353 19.57,79.635 18.61,80.723 17.64,81.812 16.84,82.778 16.04,83.744 15.29,84.739 14.55,85.734 13.91,86.726 13.27,87.719 12.74,88.661 12.21,89.603 11.81,90.469 11.42,91.334 11.16,92.192 10.91,93.050 10.76,93.894 10.62,94.737 10.55,95.577 10.47,96.417 10.48,97.256 10.49,98.096 10.71,98.851 10.92,99.606 11.43,100.287 11.94,100.968 12.78,101.656 13.62,102.343 14.76,103.049 15.90,103.756 17.23,104.452 18.55,105.149 20.03,105.870 21.50,106.591 23.08,107.322 24.66,108.054 26.12,108.699 27.57,109.345 28.82,109.890 30.06,110.435 31.23,110.986 32.40,111.538 33.50,112.116 34.60,112.693 35.56,113.241 36.51,113.788 37.27,114.319 38.03,114.850 38.60,115.454 39.17,116.058 39.58,116.736 39.99,117.415 40.23,118.148 40.47,118.880 40.61,119.708 40.74,120.536 40.63,121.461 40.51,122.386 39.95,123.494 39.38,124.603 38.32,125.918 37.25,127.233 35.22,129.199 33.18,131.165 31.62,132.583 30.07,134.000 27.85,135.841 25.63,137.683 23.95,139.052 22.28,140.420 20.71,141.673 19.15,142.926 17.58,144.187 16.00,145.447 14.35,146.817 12.70,148.187 11.43,149.336 10.16,150.484 8.96,151.627 7.76,152.769 6.61,153.935 5.46,155.101 4.65,156.132 3.84,157.163 3.21,158.170 2.59,159.176 2.11,160.139 1.63,161.102 1.29,162.041 0.95,162.981 0.73,163.862 0.52,164.743 0.40,165.521 0.29,166.299 0.22,167.047 0.16,167.794 0.18,168.570 0.20,169.345 0.43,170.069 0.65,170.793 1.15,171.457 1.65,172.121 2.43,172.803 3.22,173.485 4.24,174.238 5.26,174.991 6.46,175.790 7.65,176.588 8.99,177.425 10.34,178.263 11.82,179.206 13.30,180.150 14.81,181.210 16.33,182.271 17.77,183.432 19.22,184.593 20.62,185.955 22.03,187.317 23.31,188.832 24.59,190.348 25.61,191.879 26.64,193.410 27.42,194.956 28.20,196.502 28.77,198.097 29.33,199.692 29.80,201.942 30.27,204.193 30.53,205.839 30.79,207.485 30.94,209.272 31.08,211.058 31.03,212.920 30.97,214.782 30.63,216.619 30.28,218.455 29.68,220.300 29.07,222.145 28.33,223.927 27.59,225.709 26.90,227.168 26.22,228.627 25.49,229.937 24.77,231.246 24.01,232.547 23.25,233.848 22.63,234.936 22.00,236.024 21.52,236.900 21.03,237.776 20.69,238.482 20.35,239.188 20.14,239.781 19.93,240.375 19.82,240.870 19.71,241.366 19.76,241.814 19.81,242.263 20.25,242.739 20.70,243.215 21.58,243.731 22.47,244.246 23.74,244.804 25.02,245.362 26.65,245.959 28.29,246.556 29.98,247.130 31.68,247.703 33.24,248.231 34.80,248.758 36.27,249.286 37.74,249.815 39.14,250.353 40.54,250.891 41.81,251.453 43.08,252.014 44.10,252.575 45.13,253.135 45.91,253.624 46.69,254.113 47.25,254.482 47.81,254.850 48.15,255.085 48.50,255.320 48.69,255.477 48.89,255.633 48.97,255.850 49.06,256.066 48.99,256.539 48.93,257.012 48.64,257.821 48.35,258.631 47.86,259.725 47.36,260.819 46.65,262.094 45.95,263.370 45.07,264.791 44.19,266.212 43.18,267.795 42.17,269.379 40.96,271.138 39.75,272.897 38.41,274.737 37.08,276.577 35.76,278.320 34.45,280.064 33.18,281.670 31.90,283.275 30.69,284.784 29.48,286.294 28.62,287.362 27.75,288.431 26.78,289.632 25.80,290.834 25.16,291.667 24.52,292.501 24.03,293.262 23.54,294.022 23.20,294.697 22.87,295.373 22.65,295.999 22.43,296.624 22.31,297.225 22.19,297.826 22.13,298.413 22.06,299.000 22.20,299.553 22.33,300.106 22.75,300.682 23.16,301.258 23.72,301.880 24.29,302.503 24.99,303.147 25.70,303.790 26.43,304.421 27.17,305.052 27.82,305.685 28.48,306.318 29.08,306.974 29.68,307.630 30.20,308.321 30.73,309.013 31.17,309.813 31.61,310.614 31.93,311.548 32.24,312.483 32.43,313.574 32.62,314.665 32.53,316.083 32.44,317.500 31.79,319.348 31.15,321.196 29.88,323.410 28.62,325.624 26.83,328.129 25.04,330.634 23.08,333.117 21.12,335.600 19.18,337.933 17.23,340.267 15.44,342.407 13.65,344.547 12.09,346.431 10.53,348.316 9.16,349.961 7.79,351.607 6.67,352.979 5.55,354.351 4.70,355.501 3.86,356.651 3.32,357.682 2.78,358.714 2.47,359.652 2.17,360.591 2.19,361.446 2.22,362.300 2.73,363.023 3.24,363.746 4.30,364.514 5.36,365.282 6.69,365.967 8.03,366.651 9.72,367.360 11.40,368.069 13.28,368.841 15.16,369.613 16.95,370.346 18.73,371.080 20.33,371.771 21.93,372.463 23.43,373.133 24.93,373.804 26.34,374.512 27.74,375.221 28.98,376.026 30.21,376.831 31.10,377.668 31.99,378.504 32.52,379.414 33.06,380.324 33.33,381.397 33.61,382.470 33.61,383.775 33.60,385.079 33.19,386.623 32.78,388.167 32.07,389.765 31.36,391.364 30.58,392.835 29.81,394.307 29.01,395.721 28.21,397.136 27.41,398.545 26.61,399.953 25.91,401.272 25.22,402.592 24.66,403.873 24.10,405.155 23.69,406.436 23.27,407.717 23.01,408.908 22.76,410.099 22.67,411.176 22.59,412.252 22.77,413.243 22.96,414.234 23.48,415.184 24.00,416.134 24.77,417.032 25.54,417.931 26.40,418.709 27.26,419.488 28.09,420.135 28.93,420.782 29.70,421.350 30.48,421.918 31.23,422.484 31.99,423.051 32.66,423.769 33.33,424.487 33.74,425.056 34.15,425.625 34.40,426.284 34.66,426.943 34.80,427.754 34.94,428.566 34.86,429.630 34.77,430.693 34.34,431.914 33.91,433.135 33.35,434.327 32.79,435.518 32.20,436.693 31.61,437.868 30.92,439.135 30.23,440.402 29.54,441.672 28.86,442.943 28.31,444.072 27.75,445.201 27.33,446.197 26.91,447.192 26.64,448.192 26.36,449.192 26.21,450.256 26.05,451.321 25.97,452.397 25.88,453.473 25.84,454.555 25.79,455.638 25.77,456.723 25.74,457.809 25.75,458.879 25.76,459.949 25.82,461.032 25.89,462.115 26.00,463.163 26.12,464.212 26.25,465.131 26.38,466.050 26.52,466.809 26.66,467.567 26.77,468.154 26.88,468.741 27.04,469.635 27.21,470.530 27.21,470.530 " fill="none" stroke="none" stroke-width="4" stroke-linejoin="round" stroke-linecap="round" pointer-events="none"/><path d="M22.260,0.210Q22.260,0.210 21.15,0.481 20.04,0.751 18.93,1.319 17.81,1.887 16.66,2.700 15.50,3.513 14.24,4.508 12.97,5.503 11.78,6.547 10.58,7.592 9.58,8.562 8.58,9.533 7.67,10.508 6.76,11.483 5.95,12.442 5.13,13.401 4.49,14.267 3.85,15.133 3.40,15.933 2.95,16.733 2.66,17.574 2.37,18.415 2.21,19.371 2.04,20.328 1.95,21.029 1.86,21.729 1.88,22.510 1.91,23.291 2.13,24.083 2.35,24.875 2.81,25.686 3.27,26.497 3.92,27.382 4.57,28.266 5.38,29.204 6.19,30.143 7.12,31.113 8.06,32.084 9.05,33.016 10.05,33.948 11.22,34.882 12.39,35.815 13.71,36.720 15.03,37.625 16.27,38.427 17.51,39.229 18.61,39.892 19.71,40.554 20.73,41.137 21.75,41.720 22.70,42.302 23.66,42.884 24.56,43.467 25.46,44.050 26.30,44.630 27.15,45.209 27.93,45.784 28.70,46.360 29.40,46.948 30.09,47.537 30.70,48.171 31.31,48.805 31.82,49.468 32.32,50.132 32.72,50.811 33.12,51.491 33.44,52.247 33.76,53.003 34.00,53.906 34.23,54.810 34.37,55.821 34.51,56.833 34.58,57.855 34.66,58.876 34.58,59.886 34.50,60.896 34.06,62.007 33.62,63.118 32.81,64.362 32.00,65.607 30.99,66.887 29.99,68.168 28.81,69.547 27.63,70.925 25.97,72.703 24.31,74.481 23.12,75.776 21.93,77.071 20.75,78.353 19.57,79.635 18.61,80.723 17.64,81.812 16.84,82.778 16.04,83.744 15.29,84.739 14.55,85.734 13.91,86.726 13.27,87.719 12.74,88.661 12.21,89.603 11.81,90.469 11.42,91.334 11.16,92.192 10.91,93.050 10.76,93.894 10.62,94.737 10.55,95.577 10.47,96.417 10.48,97.256 10.49,98.096 10.71,98.851 10.92,99.606 11.43,100.287 11.94,100.968 12.78,101.656 13.62,102.343 14.76,103.049 15.90,103.756 17.23,104.452 18.55,105.149 20.03,105.870 21.50,106.591 23.08,107.322 24.66,108.054 26.12,108.699 27.57,109.345 28.82,109.890 30.06,110.435 31.23,110.986 32.40,111.538 33.50,112.116 34.60,112.693 35.56,113.241 36.51,113.788 37.27,114.319 38.03,114.850 38.60,115.454 39.17,116.058 39.58,116.736 39.99,117.415 40.23,118.148 40.47,118.880 40.61,119.708 40.74,120.536 40.63,121.461 40.51,122.386 39.95,123.494 39.38,124.603 38.32,125.918 37.25,127.233 35.22,129.199 33.18,131.165 31.62,132.583 30.07,134.000 27.85,135.841 25.63,137.683 23.95,139.052 22.28,140.420 20.71,141.673 19.15,142.926 17.58,144.187 16.00,145.447 14.35,146.817 12.70,148.187 11.43,149.336 10.16,150.484 8.96,151.627 7.76,152.769 6.61,153.935 5.46,155.101 4.65,156.132 3.84,157.163 3.21,158.170 2.59,159.176 2.11,160.139 1.63,161.102 1.29,162.041 0.95,162.981 0.73,163.862 0.52,164.743 0.40,165.521 0.29,166.299 0.22,167.047 0.16,167.794 0.18,168.570 0.20,169.345 0.43,170.069 0.65,170.793 1.15,171.457 1.65,172.121 2.43,172.803 3.22,173.485 4.24,174.238 5.26,174.991 6.46,175.790 7.65,176.588 8.99,177.425 10.34,178.263 11.82,179.206 13.30,180.150 14.81,181.210 16.33,182.271 17.77,183.432 19.22,184.593 20.62,185.955 22.03,187.317 23.31,188.832 24.59,190.348 25.61,191.879 26.64,193.410 27.42,194.956 28.20,196.502 28.77,198.097 29.33,199.692 29.80,201.942 30.27,204.193 30.53,205.839 30.79,207.485 30.94,209.272 31.08,211.058 31.03,212.920 30.97,214.782 30.63,216.619 30.28,218.455 29.68,220.300 29.07,222.145 28.33,223.927 27.59,225.709 26.90,227.168 26.22,228.627 25.49,229.937 24.77,231.246 24.01,232.547 23.25,233.848 22.63,234.936 22.00,236.024 21.52,236.900 21.03,237.776 20.69,238.482 20.35,239.188 20.14,239.781 19.93,240.375 19.82,240.870 19.71,241.366 19.76,241.814 19.81,242.263 20.25,242.739 20.70,243.215 21.58,243.731 22.47,244.246 23.74,244.804 25.02,245.362 26.65,245.959 28.29,246.556 29.98,247.130 31.68,247.703 33.24,248.231 34.80,248.758 36.27,249.286 37.74,249.815 39.14,250.353 40.54,250.891 41.81,251.453 43.08,252.014 44.10,252.575 45.13,253.135 45.91,253.624 46.69,254.113 47.25,254.482 47.81,254.850 48.15,255.085 48.50,255.320 48.69,255.477 48.89,255.633 48.97,255.850 49.06,256.066 48.99,256.539 48.93,257.012 48.64,257.821 48.35,258.631 47.86,259.725 47.36,260.819 46.65,262.094 45.95,263.370 45.07,264.791 44.19,266.212 43.18,267.795 42.17,269.379 40.96,271.138 39.75,272.897 38.41,274.737 37.08,276.577 35.76,278.320 34.45,280.064 33.18,281.670 31.90,283.275 30.69,284.784 29.48,286.294 28.62,287.362 27.75,288.431 26.78,289.632 25.80,290.834 25.16,291.667 24.52,292.501 24.03,293.262 23.54,294.022 23.20,294.697 22.87,295.373 22.65,295.999 22.43,296.624 22.31,297.225 22.19,297.826 22.13,298.413 22.06,299.000 22.20,299.553 22.33,300.106 22.75,300.682 23.16,301.258 23.72,301.880 24.29,302.503 24.99,303.147 25.70,303.790 26.43,304.421 27.17,305.052 27.82,305.685 28.48,306.318 29.08,306.974 29.68,307.630 30.20,308.321 30.73,309.013 31.17,309.813 31.61,310.614 31.93,311.548 32.24,312.483 32.43,313.574 32.62,314.665 32.53,316.083 32.44,317.500 31.79,319.348 31.15,321.196 29.88,323.410 28.62,325.624 26.83,328.129 25.04,330.634 23.08,333.117 21.12,335.600 19.18,337.933 17.23,340.267 15.44,342.407 13.65,344.547 12.09,346.431 10.53,348.316 9.16,349.961 7.79,351.607 6.67,352.979 5.55,354.351 4.70,355.501 3.86,356.651 3.32,357.682 2.78,358.714 2.47,359.652 2.17,360.591 2.19,361.446 2.22,362.300 2.73,363.023 3.24,363.746 4.30,364.514 5.36,365.282 6.69,365.967 8.03,366.651 9.72,367.360 11.40,368.069 13.28,368.841 15.16,369.613 16.95,370.346 18.73,371.080 20.33,371.771 21.93,372.463 23.43,373.133 24.93,373.804 26.34,374.512 27.74,375.221 28.98,376.026 30.21,376.831 31.10,377.668 31.99,378.504 32.52,379.414 33.06,380.324 33.33,381.397 33.61,382.470 33.61,383.775 33.60,385.079 33.19,386.623 32.78,388.167 32.07,389.765 31.36,391.364 30.58,392.835 29.81,394.307 29.01,395.721 28.21,397.136 27.41,398.545 26.61,399.953 25.91,401.272 25.22,402.592 24.66,403.873 24.10,405.155 23.69,406.436 23.27,407.717 23.01,408.908 22.76,410.099 22.67,411.176 22.59,412.252 22.77,413.243 22.96,414.234 23.48,415.184 24.00,416.134 24.77,417.032 25.54,417.931 26.40,418.709 27.26,419.488 28.09,420.135 28.93,420.782 29.70,421.350 30.48,421.918 31.23,422.484 31.99,423.051 32.66,423.769 33.33,424.487 33.74,425.056 34.15,425.625 34.40,426.284 34.66,426.943 34.80,427.754 34.94,428.566 34.86,429.630 34.77,430.693 34.34,431.914 33.91,433.135 33.35,434.327 32.79,435.518 32.20,436.693 31.61,437.868 30.92,439.135 30.23,440.402 29.54,441.672 28.86,442.943 28.31,444.072 27.75,445.201 27.33,446.197 26.91,447.192 26.64,448.192 26.36,449.192 26.21,450.256 26.05,451.321 25.97,452.397 25.88,453.473 25.84,454.555 25.79,455.638 25.77,456.723 25.74,457.809 25.75,458.879 25.76,459.949 25.82,461.032 25.89,462.115 26.00,463.163 26.12,464.212 26.25,465.131 26.38,466.050 26.52,466.809 26.66,467.567 26.77,468.154 26.88,468.741 27.04,469.635 27.21,470.530 27.21,470.530 " fill="none" stroke="#717d8a" stroke-width="4" stroke-dasharray="0.1 8" stroke-dashoffset="0" stroke-linejoin="round" stroke-linecap="round" pointer-events="none"/></g></g><text font-size="77.10297635320805px" font-family="Caveat Brush" font-weight="normal" line-height="77.10297635320805px" letter-spacing="-0.03em" text-align="left" dominant-baseline="mathematical" alignment-baseline="mathematical" text-anchor="start" fill="#cecece" transform="translate(262.87, 50.24) rotate(0.00, 75.00, 43.50)"><tspan y="38.551488176604025px" x="4">client
</tspan></text><g id="3f210b50-00c9-40c3-301e-3f6510cd4967_svg" class="tl-centered-g" transform="translate(83.21, 144.79) rotate(0.00, 259.89, 224.72)"><path d="M520.492,87.004Q520.492,87.004 520.46,93.060 520.43,99.116 520.40,106.716 520.38,114.317 520.35,122.311 520.32,130.305 520.29,138.400 520.26,146.495 520.23,154.615 520.20,162.735 520.17,170.862 520.14,178.989 520.12,187.117 520.09,195.245 520.06,203.374 520.03,211.503 520.02,219.632 520.02,227.761 520.04,235.890 520.06,244.019 520.08,252.148 520.10,260.277 520.12,268.406 520.13,276.535 520.15,284.665 520.17,292.794 520.19,300.923 520.21,309.052 520.23,317.181 520.25,325.310 520.27,333.439 520.29,341.568 520.31,349.697 520.33,357.826 520.35,365.955 520.37,374.084 520.38,382.213 520.40,390.342 520.42,398.471 520.44,406.600 520.46,414.729 520.48,422.858 520.50,431.012 520.51,439.166 518.64,443.267 516.77,447.368 509.94,448.504 503.10,449.640 495.24,449.851 487.37,450.061 479.25,450.092 471.12,450.123 462.93,450.110 454.74,450.096 446.53,450.071 438.32,450.046 430.10,450.019 421.89,449.991 413.67,449.963 405.46,449.934 397.24,449.906 389.02,449.877 380.81,449.849 372.59,449.820 364.37,449.791 356.15,449.763 347.94,449.734 339.72,449.705 331.50,449.677 323.29,449.648 315.07,449.620 306.85,449.591 298.64,449.562 290.42,449.534 282.20,449.505 273.99,449.476 265.77,449.469 257.55,449.461 249.34,449.474 241.12,449.488 232.90,449.501 224.69,449.514 216.47,449.528 208.25,449.541 200.04,449.554 191.82,449.567 183.60,449.581 175.39,449.594 167.17,449.607 158.95,449.621 150.74,449.634 142.52,449.647 134.30,449.661 126.09,449.674 117.87,449.687 109.65,449.700 101.43,449.714 93.22,449.727 85.00,449.740 76.78,449.754 68.57,449.767 60.35,449.780 52.13,449.794 43.92,449.807 35.70,449.820 27.48,449.833 19.24,449.842 11.00,449.850 6.88,447.983 2.76,446.116 1.61,439.351 0.47,432.586 0.26,424.806 0.05,417.027 0.02,408.996 -0.011,400.966 0.00,392.867 0.01,384.769 0.03,376.652 0.06,368.536 0.09,360.415 0.11,352.294 0.14,344.172 0.17,336.050 0.20,327.928 0.23,319.806 0.25,311.683 0.28,303.561 0.31,295.439 0.34,287.316 0.37,279.194 0.40,271.071 0.42,262.949 0.45,254.826 0.48,246.704 0.51,238.582 0.51,230.459 0.52,222.337 0.50,214.214 0.48,206.092 0.46,197.970 0.44,189.847 0.42,181.725 0.40,173.602 0.38,165.480 0.36,157.357 0.34,149.235 0.32,141.113 0.30,132.990 0.28,124.868 0.26,116.745 0.24,108.623 0.22,100.500 0.20,92.378 0.18,84.256 0.16,76.133 0.14,68.011 0.12,59.888 0.10,51.766 0.08,43.643 0.06,35.521 0.04,27.399 0.02,19.251 0.01,11.104 1.88,7.005 3.74,2.906 10.58,1.766 17.41,0.626 25.28,0.410 33.15,0.194 41.27,0.157 49.40,0.121 57.59,0.128 65.78,0.136 73.99,0.155 82.20,0.174 90.42,0.196 98.64,0.218 106.85,0.241 115.07,0.263 123.29,0.286 131.50,0.309 139.72,0.332 147.94,0.355 156.16,0.378 164.37,0.400 172.59,0.423 180.81,0.446 189.03,0.469 197.24,0.492 205.46,0.515 213.68,0.538 221.89,0.561 230.11,0.583 238.33,0.606 246.55,0.629 254.76,0.631 262.98,0.633 271.20,0.614 279.42,0.595 287.63,0.576 295.85,0.557 304.07,0.538 312.29,0.519 320.50,0.500 328.72,0.481 336.94,0.461 345.15,0.442 353.37,0.423 361.59,0.404 369.81,0.385 378.02,0.366 386.24,0.347 394.46,0.328 402.68,0.309 410.89,0.290 419.11,0.271 427.33,0.252 435.55,0.233 443.76,0.214 451.98,0.195 460.20,0.176 468.41,0.157 476.63,0.138 484.85,0.118 493.07,0.099 501.31,0.085 509.55,0.071 513.67,1.937 517.80,3.803 518.94,10.572 520.08,17.341 520.29,25.127 520.50,32.913 520.53,40.950 520.57,48.987 520.55,57.092 520.54,65.197 520.51,73.320 520.49,81.443 520.46,89.571 520.43,97.698 520.40,105.827 520.38,113.955 520.35,122.084 520.32,130.213 520.29,138.342 520.26,146.471 520.23,154.600 520.20,162.729 520.17,170.858 520.14,178.987 520.12,187.116 520.09,195.245 520.06,203.374 520.03,211.503 520.02,219.632 520.02,227.761 520.04,235.890 520.06,244.019 520.08,254.931 520.09,265.842 520.06,266.021 520.03,266.200 519.95,266.360 519.86,266.520 519.73,266.645 519.60,266.769 519.44,266.845 519.27,266.921 519.09,266.941 518.91,266.960 518.73,266.921 518.56,266.882 518.40,266.789 518.25,266.695 518.13,266.557 518.01,266.419 517.95,266.250 517.88,266.082 517.87,265.901 517.86,265.720 517.91,265.545 517.96,265.370 518.06,265.220 518.16,265.070 518.30,264.961 518.45,264.851 518.62,264.794 518.79,264.736 518.97,264.736 519.15,264.736 519.33,264.794 519.50,264.852 519.64,264.962 519.79,265.072 519.89,265.222 519.99,265.372 520.04,265.547 520.09,265.721 520.08,265.902 520.07,266.083 520.00,266.252 519.93,266.420 519.81,266.558 519.70,266.696 519.54,266.789 519.39,266.883 519.21,266.922 519.03,266.960 518.85,266.941 518.67,266.921 518.51,266.845 518.34,266.768 518.21,266.644 518.08,266.519 518.00,266.359 517.91,266.198 517.88,266.019 517.85,265.841 517.85,265.841 517.85,265.841 517.88,254.929 517.91,244.018 517.94,235.889 517.97,227.760 517.98,219.631 517.98,211.502 517.96,203.373 517.94,195.244 517.92,187.115 517.90,178.986 517.88,170.857 517.87,162.728 517.85,154.599 517.83,146.470 517.81,138.341 517.79,130.212 517.77,122.083 517.75,113.954 517.73,105.825 517.71,97.697 517.69,89.570 517.67,81.443 517.65,73.322 517.62,65.201 517.59,57.104 517.55,49.008 517.48,41.007 517.40,33.005 517.15,25.397 516.91,17.788 516.23,11.685 515.55,5.582 512.50,4.467 509.45,3.352 501.26,3.334 493.07,3.316 484.85,3.293 476.63,3.270 468.41,3.247 460.20,3.224 451.98,3.201 443.76,3.178 435.54,3.155 427.33,3.132 419.11,3.110 410.89,3.087 402.68,3.064 394.46,3.041 386.24,3.018 378.02,2.995 369.81,2.972 361.59,2.949 353.37,2.927 345.15,2.904 336.94,2.881 328.72,2.858 320.50,2.835 312.28,2.812 304.07,2.789 295.85,2.766 287.63,2.744 279.42,2.721 271.20,2.698 262.98,2.675 254.76,2.673 246.55,2.671 238.33,2.690 230.11,2.709 221.89,2.728 213.68,2.747 205.46,2.766 197.24,2.785 189.02,2.805 180.81,2.824 172.59,2.843 164.37,2.862 156.16,2.881 147.94,2.900 139.72,2.919 131.50,2.938 123.29,2.957 115.07,2.976 106.85,2.996 98.64,3.015 90.42,3.035 82.21,3.055 74.00,3.078 65.79,3.101 57.60,3.135 49.42,3.169 41.33,3.247 33.24,3.325 25.55,3.568 17.86,3.811 11.69,4.485 5.52,5.158 4.40,8.181 3.29,11.205 3.27,19.302 3.24,27.400 3.21,35.523 3.19,43.645 3.16,51.767 3.13,59.890 3.10,68.012 3.07,76.135 3.04,84.257 3.02,92.379 2.99,100.502 2.96,108.624 2.93,116.747 2.90,124.869 2.88,132.991 2.85,141.114 2.82,149.236 2.79,157.359 2.76,165.481 2.73,173.603 2.71,181.726 2.68,189.848 2.65,197.971 2.62,206.093 2.59,214.215 2.56,222.338 2.56,230.460 2.56,238.583 2.58,246.705 2.60,254.828 2.62,262.950 2.64,271.072 2.66,279.195 2.68,287.317 2.70,295.440 2.72,303.562 2.74,311.685 2.76,319.807 2.78,327.929 2.80,336.052 2.82,344.173 2.84,352.295 2.86,360.416 2.88,368.536 2.90,376.650 2.92,384.765 2.96,392.855 3.00,400.945 3.07,408.939 3.15,416.934 3.40,424.537 3.64,432.139 4.32,438.238 5.00,444.336 8.05,445.453 11.10,446.570 19.29,446.593 27.49,446.617 35.70,446.646 43.92,446.675 52.14,446.703 60.35,446.732 68.57,446.760 76.79,446.789 85.00,446.818 93.22,446.846 101.44,446.875 109.65,446.904 117.87,446.932 126.09,446.961 134.30,446.990 142.52,447.018 150.74,447.047 158.95,447.075 167.17,447.104 175.39,447.133 183.60,447.161 191.82,447.190 200.04,447.219 208.26,447.247 216.47,447.276 224.69,447.305 232.91,447.333 241.12,447.362 249.34,447.390 257.56,447.419 265.77,447.427 273.99,447.434 282.21,447.421 290.42,447.408 298.64,447.395 306.86,447.381 315.07,447.368 323.29,447.355 331.51,447.341 339.72,447.328 347.94,447.315 356.16,447.301 364.37,447.288 372.59,447.275 380.81,447.262 389.02,447.248 397.24,447.235 405.46,447.221 413.67,447.208 421.89,447.194 430.10,447.180 438.32,447.166 446.53,447.149 454.74,447.132 462.92,447.103 471.10,447.075 479.19,447.003 487.28,446.930 494.97,446.692 502.66,446.454 508.83,445.784 515.00,445.115 516.12,442.090 517.23,439.065 517.25,430.961 517.28,422.856 517.31,414.727 517.34,406.598 517.36,398.469 517.39,390.340 517.42,382.211 517.45,374.082 517.48,365.953 517.51,357.824 517.54,349.695 517.57,341.566 517.60,333.437 517.62,325.308 517.65,317.179 517.68,309.050 517.71,300.921 517.74,292.792 517.77,284.663 517.80,276.534 517.83,268.405 517.86,260.276 517.88,252.147 517.91,244.018 517.94,235.889 517.97,227.760 517.98,219.631 517.98,211.502 517.96,203.373 517.94,195.244 517.92,187.116 517.90,178.987 517.88,170.860 517.87,162.734 517.85,154.613 517.83,146.493 517.81,138.398 517.79,130.304 517.77,122.309 517.75,114.315 517.73,106.715 517.71,99.114 517.69,93.058 517.67,87.002 517.69,86.833 517.71,86.665 517.77,86.506 517.83,86.347 517.93,86.207 518.02,86.068 518.15,85.955 518.28,85.843 518.43,85.764 518.58,85.685 518.74,85.644 518.91,85.604 519.08,85.604 519.25,85.604 519.41,85.645 519.58,85.686 519.73,85.765 519.88,85.844 520.01,85.956 520.13,86.069 520.23,86.209 520.33,86.349 520.39,86.508 520.45,86.667 520.47,86.835 Z" fill="#cecece" stroke="#cecece" stroke-width="2" pointer-events="none"/></g><g id="44050360-ae63-4468-087d-004f9e4ab337_svg" class="tl-centered-g" transform="translate(93.70, 156.86) rotate(0.00, 247.59, 29.25)"><path d="M406.129,59.590Q406.129,59.590 399.91,59.562 393.69,59.534 385.89,59.504 378.09,59.474 369.88,59.445 361.67,59.415 353.37,59.385 345.06,59.355 336.72,59.325 328.38,59.295 320.04,59.265 311.70,59.235 303.36,59.204 295.01,59.174 286.67,59.144 278.32,59.114 269.98,59.084 261.63,59.054 253.29,59.047 244.94,59.039 236.60,59.054 228.25,59.069 219.91,59.083 211.57,59.098 203.22,59.113 194.88,59.128 186.53,59.143 178.19,59.157 169.84,59.172 161.50,59.187 153.15,59.202 144.81,59.216 136.46,59.231 128.12,59.246 119.77,59.261 111.43,59.276 103.08,59.290 94.74,59.305 86.40,59.320 78.05,59.335 69.71,59.350 61.36,59.364 53.02,59.379 44.67,59.394 36.33,59.409 27.98,59.424 19.61,59.434 11.25,59.444 7.17,57.709 3.09,55.974 1.94,52.629 0.79,49.283 0.59,45.753 0.40,42.222 0.41,38.726 0.42,35.230 0.39,31.738 0.35,28.245 0.24,24.753 0.12,21.260 0.01,17.767 -0.104,14.274 -0.198,10.713 -0.292,7.151 1.54,4.245 3.38,1.339 10.36,0.521 17.35,-0.297 25.31,-0.434 33.28,-0.570 41.54,-0.588 49.79,-0.605 58.12,-0.594 66.45,-0.582 74.80,-0.563 83.15,-0.544 91.50,-0.523 99.86,-0.501 108.22,-0.480 116.57,-0.458 124.93,-0.436 133.28,-0.415 141.64,-0.393 150.00,-0.371 158.35,-0.350 166.71,-0.328 175.07,-0.306 183.42,-0.284 191.78,-0.262 200.14,-0.241 208.49,-0.219 216.85,-0.197 225.20,-0.175 233.56,-0.154 241.92,-0.154 250.27,-0.155 258.63,-0.178 266.99,-0.201 275.34,-0.224 283.70,-0.247 292.06,-0.270 300.41,-0.293 308.77,-0.316 317.13,-0.339 325.48,-0.362 333.84,-0.386 342.20,-0.409 350.55,-0.432 358.91,-0.455 367.26,-0.478 375.62,-0.501 383.98,-0.524 392.33,-0.547 400.69,-0.570 409.05,-0.593 417.40,-0.616 425.76,-0.639 434.12,-0.662 442.47,-0.685 450.83,-0.708 459.19,-0.731 467.54,-0.755 475.92,-0.773 484.30,-0.791 488.39,0.951 492.48,2.692 493.59,6.063 494.70,9.434 494.85,12.996 494.99,16.558 494.93,20.086 494.87,23.615 494.86,27.141 494.85,30.667 494.92,34.196 494.98,37.724 495.05,41.252 495.11,44.781 495.16,48.374 495.20,51.966 493.35,54.875 491.50,57.783 484.53,58.596 477.55,59.410 469.59,59.539 461.63,59.668 453.39,59.678 445.15,59.688 436.83,59.668 428.51,59.648 420.17,59.621 411.83,59.593 403.49,59.564 395.15,59.534 386.80,59.505 378.46,59.475 370.11,59.445 361.77,59.415 353.42,59.385 345.08,59.355 336.74,59.325 328.39,59.295 320.05,59.265 311.70,59.235 303.36,59.204 295.01,59.174 286.67,59.144 278.32,59.114 269.98,59.084 261.63,59.054 253.29,59.047 244.94,59.039 236.60,59.054 228.25,59.069 217.05,59.081 205.85,59.093 205.68,59.064 205.50,59.034 205.34,58.950 205.18,58.866 205.06,58.735 204.93,58.604 204.86,58.441 204.78,58.277 204.76,58.098 204.74,57.920 204.78,57.744 204.82,57.568 204.91,57.414 205.01,57.260 205.14,57.144 205.28,57.027 205.45,56.961 205.62,56.895 205.80,56.885 205.98,56.875 206.15,56.924 206.32,56.972 206.47,57.073 206.62,57.174 206.73,57.318 206.84,57.461 206.89,57.632 206.95,57.802 206.95,57.982 206.95,58.162 206.89,58.332 206.84,58.503 206.73,58.646 206.62,58.789 206.47,58.890 206.32,58.991 206.15,59.039 205.97,59.087 205.79,59.077 205.61,59.067 205.45,59.000 205.28,58.933 205.14,58.816 205.01,58.700 204.91,58.546 204.82,58.391 204.78,58.216 204.74,58.040 204.76,57.861 204.78,57.682 204.86,57.519 204.93,57.356 205.06,57.225 205.18,57.095 205.34,57.011 205.50,56.927 205.68,56.898 205.86,56.869 205.86,56.869 205.86,56.869 217.06,56.901 228.26,56.934 236.60,56.964 244.95,56.994 253.29,57.002 261.64,57.009 269.98,56.995 278.32,56.980 286.67,56.965 295.01,56.950 303.36,56.936 311.70,56.921 320.05,56.906 328.39,56.891 336.74,56.876 345.08,56.862 353.43,56.847 361.77,56.832 370.12,56.817 378.46,56.802 386.80,56.787 395.15,56.772 403.49,56.757 411.83,56.741 420.17,56.724 428.51,56.707 436.82,56.682 445.13,56.657 453.35,56.603 461.57,56.548 469.41,56.381 477.25,56.213 483.47,55.820 489.69,55.426 490.84,53.555 491.98,51.684 492.08,48.221 492.18,44.758 492.31,41.232 492.43,37.706 492.54,34.182 492.66,30.659 492.67,27.147 492.69,23.635 492.56,20.175 492.44,16.715 492.17,13.486 491.90,10.257 491.21,7.611 490.52,4.966 487.36,3.728 484.21,2.490 475.87,2.473 467.54,2.456 459.19,2.434 450.83,2.412 442.47,2.391 434.12,2.369 425.76,2.347 417.40,2.325 409.05,2.303 400.69,2.282 392.33,2.260 383.98,2.238 375.62,2.216 367.26,2.195 358.91,2.173 350.55,2.151 342.20,2.129 333.84,2.108 325.48,2.086 317.13,2.064 308.77,2.042 300.41,2.021 292.06,1.999 283.70,1.977 275.34,1.955 266.99,1.933 258.63,1.912 250.27,1.890 241.92,1.891 233.56,1.891 225.20,1.914 216.85,1.937 208.49,1.960 200.14,1.983 191.78,2.007 183.42,2.030 175.07,2.053 166.71,2.076 158.35,2.099 150.00,2.122 141.64,2.145 133.28,2.168 124.93,2.191 116.57,2.214 108.22,2.237 99.86,2.261 91.51,2.284 83.15,2.308 74.80,2.334 66.45,2.359 58.13,2.392 49.80,2.426 41.57,2.488 33.34,2.550 25.49,2.725 17.64,2.900 11.42,3.297 5.19,3.694 4.06,5.549 2.93,7.405 2.87,10.831 2.82,14.256 2.75,17.749 2.68,21.243 2.61,24.733 2.54,28.223 2.57,31.701 2.61,35.180 2.78,38.605 2.95,42.030 3.27,45.226 3.58,48.422 4.31,51.043 5.03,53.664 8.19,54.913 11.34,56.162 19.66,56.188 27.99,56.213 36.33,56.243 44.67,56.273 53.02,56.303 61.36,56.333 69.71,56.363 78.05,56.393 86.40,56.423 94.74,56.453 103.09,56.484 111.43,56.514 119.78,56.544 128.12,56.574 136.47,56.604 144.81,56.634 153.16,56.664 161.50,56.694 169.84,56.724 178.19,56.754 186.53,56.784 194.88,56.814 203.22,56.844 211.57,56.874 219.91,56.904 228.26,56.934 236.60,56.964 244.95,56.994 253.29,57.002 261.64,57.009 269.98,56.995 278.32,56.980 286.67,56.965 295.01,56.950 303.36,56.936 311.70,56.921 320.04,56.906 328.39,56.891 336.72,56.876 345.06,56.862 353.37,56.847 361.68,56.832 369.88,56.817 378.09,56.802 385.89,56.787 393.69,56.772 399.91,56.755 406.13,56.738 406.30,56.759 406.47,56.780 406.63,56.841 406.79,56.902 406.93,57.000 407.07,57.098 407.19,57.226 407.30,57.355 407.38,57.507 407.46,57.660 407.50,57.826 407.54,57.993 407.54,58.165 407.54,58.337 407.50,58.504 407.46,58.671 407.38,58.823 407.30,58.975 407.18,59.104 407.07,59.232 406.93,59.330 406.79,59.427 406.63,59.488 406.47,59.549 406.30,59.569 Z" fill="#cecece" stroke="#cecece" stroke-width="2" pointer-events="none"/></g><text font-size="38.757199466077836px" font-family="Caveat Brush" font-weight="normal" line-height="38.757199466077836px" letter-spacing="-0.03em" text-align="left" dominant-baseline="mathematical" alignment-baseline="mathematical" text-anchor="start" fill="#cecece" transform="translate(103.62, 159.43) rotate(0.00, 55.00, 24.50)"><tspan y="19.378599733038918px" x="4">site.com
</tspan></text><g id="31ddc19f-55db-44f9-1e84-d4aaf9d71970_svg" class="tl-centered-g" transform="translate(102.64, 231.95) rotate(0.00, 237.96, 1.43)"><defs><mask id="31ddc19f-55db-44f9-1e84-d4aaf9d71970_clip"><rect x="-100" y="-100" width="675.92" height="202.86" fill="white"/><rect x="237.96" y="1.43" width="0" height="0" rx="4" ry="4" fill="black" opacity="1"/></mask></defs><g pointer-events="none" opacity="1" mask=""><path d="M-0.006,1.944Q-0.006,1.944 59.48,1.624 118.97,1.304 178.46,0.974 237.95,0.644 297.44,0.307 356.93,-0.030 416.42,-0.372 475.91,-0.715 476.03,-0.697 476.14,-0.679 476.24,-0.625 476.34,-0.571 476.42,-0.488 476.50,-0.405 476.55,-0.300 476.60,-0.195 476.62,-0.080 476.63,0.034 476.61,0.147 476.58,0.261 476.52,0.360 476.46,0.459 476.38,0.535 476.29,0.610 476.18,0.654 476.07,0.697 475.96,0.704 475.84,0.711 475.73,0.681 475.62,0.650 475.52,0.586 475.43,0.522 475.36,0.430 475.29,0.338 475.25,0.229 475.21,0.120 475.21,0.004 475.21,-0.111 475.25,-0.221 475.28,-0.331 475.35,-0.423 475.42,-0.516 475.52,-0.581 475.61,-0.647 475.72,-0.678 475.83,-0.710 475.95,-0.704 476.07,-0.699 476.17,-0.657 476.28,-0.614 476.37,-0.540 476.46,-0.466 476.52,-0.367 476.58,-0.268 476.60,-0.156 476.63,-0.043 476.62,0.072 476.61,0.187 476.56,0.292 476.51,0.398 476.43,0.482 476.35,0.566 476.25,0.621 476.15,0.676 476.03,0.695 475.92,0.715 475.92,0.715 475.92,0.715 416.43,1.087 356.94,1.460 297.45,1.838 237.96,2.216 178.47,2.601 118.98,2.986 59.49,3.381 0.00,3.776 -0.104,3.763 -0.214,3.750 -0.317,3.712 -0.421,3.673 -0.512,3.611 -0.603,3.549 -0.677,3.467 -0.751,3.385 -0.802,3.287 -0.854,3.190 -0.881,3.083 -0.908,2.976 -0.909,2.865 -0.910,2.755 -0.884,2.648 -0.858,2.540 -0.807,2.442 -0.757,2.344 -0.684,2.261 -0.611,2.178 -0.521,2.115 -0.430,2.052 -0.327,2.012 -0.224,1.972 -0.115,1.958 Z" fill="#cecece" stroke="#cecece" stroke-width="2.11" stroke-dasharray="none" stroke-dashoffset="none" stroke-linecap="round" stroke-linejoin="round" pointer-events="stroke"/></g></g><text font-size="77.10297635320805px" font-family="Caveat Brush" font-weight="normal" line-height="77.10297635320805px" letter-spacing="-0.03em" text-align="left" dominant-baseline="mathematical" alignment-baseline="mathematical" text-anchor="start" fill="#cecece" transform="translate(1052.46, 64.96) rotate(0.00, 154.50, 43.50)"><tspan y="38.551488176604025px" x="4">Node Server
</tspan></text><g id="a42abfe7-82ec-4df6-3a7c-9e87014173af_svg" class="tl-centered-g" transform="translate(113.83, 248.82) rotate(0.00, 54.56, 159.16)"><path d="M34.238,316.901Q34.238,316.901 29.36,316.837 24.48,316.774 18.37,316.694 12.25,316.614 8.08,313.986 3.91,311.358 2.88,304.441 1.84,297.525 1.60,289.515 1.36,281.505 1.33,273.215 1.30,264.926 1.31,256.566 1.33,248.206 1.36,239.828 1.39,231.450 1.43,223.067 1.46,214.684 1.50,206.300 1.53,197.916 1.57,189.531 1.60,181.147 1.64,172.762 1.67,164.378 1.71,155.993 1.74,147.609 1.78,139.224 1.81,130.840 1.85,122.455 1.88,114.071 1.92,105.686 1.95,97.302 1.99,88.917 2.02,80.533 2.06,72.148 2.09,63.764 2.13,55.380 2.16,46.995 2.20,38.611 2.23,30.226 2.27,21.842 2.30,13.457 4.92,8.712 7.54,3.966 13.02,2.765 18.50,1.565 24.71,1.268 30.92,0.971 37.32,0.905 43.72,0.838 50.16,0.831 56.61,0.823 63.07,0.831 69.52,0.838 75.98,0.850 82.44,0.861 88.90,0.873 95.37,0.885 99.62,3.496 103.88,6.107 104.96,13.040 106.04,19.973 106.31,28.009 106.59,36.044 106.65,44.361 106.72,52.677 106.74,61.066 106.75,69.454 106.75,77.861 106.75,86.267 106.75,94.678 106.75,103.090 106.75,111.502 106.74,119.915 106.74,128.327 106.74,136.740 106.73,145.153 106.73,153.566 106.73,161.979 106.72,170.391 106.72,178.804 106.72,187.217 106.71,195.630 106.71,204.043 106.71,212.456 106.70,220.868 106.70,229.281 106.70,237.694 106.69,246.107 106.69,254.520 106.68,262.933 106.68,271.345 106.68,279.758 106.67,288.171 106.67,296.584 106.67,304.997 104.06,309.750 101.45,314.502 95.91,315.651 90.37,316.799 84.08,317.028 77.80,317.257 71.32,317.252 64.84,317.247 58.31,317.181 51.79,317.116 45.25,317.036 38.71,316.956 29.93,316.843 " fill="#404a53" pointer-events="none"/><path d="M34.209,319.138Q34.209,319.138 29.33,319.237 24.45,319.336 18.22,319.386 11.99,319.435 6.95,316.268 1.92,313.101 0.51,305.516 -0.885,297.932 -1.075,289.757 -1.264,281.583 -1.236,273.260 -1.208,264.937 -1.127,256.569 -1.047,248.201 -0.953,239.821 -0.859,231.441 -0.762,223.058 -0.664,214.675 -0.566,206.291 -0.468,197.907 -0.370,189.523 -0.271,181.139 -0.173,172.755 -0.075,164.371 -0.103,155.986 -0.131,147.601 -0.159,139.216 -0.187,130.832 -0.215,122.447 -0.242,114.062 -0.270,105.677 -0.298,97.292 -0.326,88.908 -0.354,80.523 -0.382,72.138 -0.410,63.753 -0.438,55.369 -0.466,46.984 -0.494,38.599 -0.522,30.214 -0.528,21.745 -0.534,13.276 2.56,7.681 5.66,2.085 11.81,0.573 17.96,-0.939 24.39,-1.102 30.82,-1.264 37.26,-1.169 43.70,-1.074 50.15,-1.082 56.61,-1.089 63.07,-1.244 69.53,-1.399 75.99,-1.550 82.45,-1.702 89.02,-1.821 95.59,-1.940 100.72,1.207 105.86,4.355 107.31,11.952 108.77,19.550 108.99,27.752 109.22,35.955 109.23,44.306 109.23,52.657 109.18,61.054 109.13,69.450 109.07,77.858 109.01,86.267 108.94,94.679 108.88,103.090 108.81,111.503 108.75,119.915 108.68,128.328 108.61,136.741 108.55,145.154 108.48,153.566 108.54,161.979 108.60,170.392 108.66,178.805 108.72,187.218 108.78,195.631 108.84,204.044 108.90,212.456 108.96,220.869 109.02,229.282 109.08,237.695 109.14,246.108 109.20,254.521 109.26,262.934 109.32,271.346 109.38,279.759 109.44,288.172 109.47,296.671 109.51,305.169 106.41,310.783 103.30,316.396 97.09,317.852 90.89,319.309 84.38,319.401 77.88,319.493 71.36,319.326 64.84,319.159 58.30,319.094 51.77,319.029 45.23,319.111 38.68,319.193 29.90,319.243 21.11,319.292 20.71,319.220 20.30,319.148 19.93,318.949 19.57,318.750 19.29,318.445 19.01,318.141 18.84,317.762 18.67,317.384 18.63,316.971 18.59,316.558 18.68,316.155 18.78,315.751 19.00,315.398 19.22,315.046 19.54,314.782 19.85,314.517 20.24,314.369 20.63,314.220 21.04,314.203 21.46,314.186 21.86,314.302 22.25,314.418 22.59,314.656 22.93,314.893 23.18,315.226 23.43,315.559 23.55,315.954 23.68,316.348 23.68,316.763 23.67,317.177 23.53,317.569 23.40,317.960 23.14,318.286 22.89,318.613 22.54,318.841 22.19,319.069 21.79,319.175 21.39,319.281 20.98,319.253 20.56,319.225 20.18,319.067 19.80,318.908 19.49,318.636 19.17,318.363 18.96,318.005 18.75,317.647 18.67,317.241 18.59,316.835 18.64,316.424 18.69,316.012 18.87,315.638 19.05,315.264 19.33,314.967 19.62,314.670 19.99,314.480 20.36,314.291 20.77,314.229 21.18,314.168 21.18,314.168 21.18,314.168 29.96,314.443 38.74,314.719 45.27,314.961 51.81,315.204 58.32,315.269 64.84,315.334 71.28,315.178 77.72,315.021 83.79,314.655 89.86,314.289 94.73,313.449 99.60,312.608 101.71,308.716 103.82,304.825 103.87,296.497 103.91,288.170 103.98,279.757 104.05,271.344 104.11,262.932 104.18,254.519 104.25,246.106 104.31,237.693 104.38,229.280 104.45,220.867 104.51,212.455 104.58,204.042 104.65,195.629 104.71,187.216 104.78,178.803 104.85,170.391 104.91,161.978 104.98,153.565 104.92,145.152 104.86,136.739 104.80,128.327 104.74,119.914 104.68,111.502 104.62,103.089 104.56,94.678 104.50,86.268 104.43,77.863 104.37,69.458 104.29,61.078 104.21,52.698 104.08,44.416 103.95,36.134 103.63,28.265 103.31,20.397 102.60,14.128 101.89,7.859 98.52,5.784 95.14,3.710 88.79,3.567 82.44,3.423 75.98,3.249 69.52,3.076 63.07,2.906 56.61,2.736 50.17,2.743 43.74,2.751 37.38,2.978 31.03,3.206 25.04,3.637 19.04,4.068 14.23,4.957 9.41,5.846 7.28,9.742 5.15,13.638 5.07,21.938 5.00,30.238 4.90,38.622 4.80,47.006 4.70,55.390 4.60,63.775 4.50,72.159 4.40,80.543 4.31,88.927 4.21,97.311 4.11,105.696 4.01,114.080 3.91,122.464 3.81,130.848 3.72,139.233 3.62,147.617 3.52,156.001 3.42,164.385 3.45,172.770 3.48,181.155 3.50,189.539 3.53,197.924 3.56,206.308 3.59,214.692 3.62,223.075 3.65,231.458 3.68,239.834 3.71,248.211 3.76,256.564 3.80,264.916 3.90,273.171 4.00,281.426 4.29,289.272 4.57,297.118 5.24,303.366 5.91,309.615 9.21,311.703 12.51,313.792 18.51,314.002 24.52,314.211 29.39,314.437 34.26,314.664 34.53,314.700 34.80,314.736 35.05,314.835 35.30,314.934 35.52,315.090 35.74,315.246 35.92,315.450 36.09,315.654 36.21,315.895 36.34,316.135 36.40,316.398 36.46,316.660 36.45,316.930 36.45,317.200 36.38,317.461 36.32,317.722 36.19,317.959 36.06,318.196 35.88,318.396 35.70,318.595 35.47,318.745 35.25,318.896 34.99,318.988 34.74,319.080 34.47,319.109 Z" fill="#717d8a" stroke="#717d8a" stroke-width="3.5" pointer-events="none"/></g><g id="3017822e-edfc-4980-32d6-646b0b0bccd0_svg" class="tl-centered-g" transform="translate(247.38, 248.47) rotate(0.00, 160.69, 51.98)"><path d="M232.503,102.039Q232.503,102.039 226.53,102.041 220.57,102.043 213.08,102.045 205.59,102.046 197.72,102.049 189.85,102.051 181.87,102.053 173.90,102.055 165.90,102.057 157.90,102.059 149.90,102.061 141.89,102.063 133.89,102.065 125.88,102.067 117.87,102.069 109.87,102.071 101.86,102.074 93.85,102.076 85.84,102.078 77.84,102.080 69.83,102.082 61.82,102.084 53.82,102.086 45.81,102.088 37.80,102.090 29.79,102.092 21.79,102.094 13.78,102.096 9.13,99.490 4.48,96.883 3.29,91.572 2.09,86.261 1.77,80.261 1.46,74.261 1.36,68.085 1.27,61.909 1.24,55.689 1.20,49.468 1.18,43.236 1.16,37.004 1.15,30.769 1.13,24.534 1.12,18.298 1.10,12.062 3.70,7.865 6.31,3.667 12.93,2.641 19.55,1.615 27.19,1.397 34.84,1.180 42.74,1.168 50.65,1.157 58.62,1.199 66.59,1.240 74.58,1.295 82.57,1.349 90.57,1.408 98.56,1.466 106.55,1.525 114.55,1.584 122.54,1.643 130.54,1.703 138.53,1.762 146.53,1.821 154.52,1.881 162.52,1.940 170.51,1.999 178.51,2.059 186.50,2.118 194.50,2.177 202.49,2.237 210.49,2.296 218.48,2.355 226.48,2.415 234.47,2.474 242.47,2.533 250.46,2.593 258.46,2.652 266.45,2.711 274.45,2.771 282.44,2.830 290.44,2.890 298.44,2.949 306.43,3.008 311.08,5.631 315.72,8.254 316.94,13.444 318.16,18.634 318.51,24.479 318.86,30.325 318.98,36.337 319.10,42.349 319.17,48.403 319.24,54.458 319.29,60.524 319.34,66.589 319.39,72.658 319.44,78.726 319.49,84.795 319.54,90.864 316.94,95.019 314.35,99.174 307.72,100.235 301.09,101.296 293.44,101.568 285.78,101.841 277.86,101.912 269.95,101.983 261.96,102.002 253.98,102.022 245.98,102.028 237.98,102.035 229.97,102.038 221.96,102.041 213.96,102.044 205.95,102.046 197.94,102.048 189.94,102.050 181.93,102.053 173.92,102.055 165.92,102.057 157.91,102.059 149.90,102.061 141.89,102.063 131.15,102.066 " fill="#404a53" pointer-events="none"/><path d="M232.503,104.328Q232.503,104.328 226.53,104.270 220.57,104.212 213.08,104.154 205.60,104.096 197.72,104.038 189.85,103.980 181.87,103.922 173.90,103.865 165.90,103.867 157.90,103.869 149.90,103.931 141.89,103.993 133.89,104.055 125.88,104.117 117.87,104.179 109.87,104.241 101.86,104.302 93.85,104.364 85.85,104.426 77.84,104.488 69.83,104.550 61.82,104.612 53.82,104.674 45.81,104.736 37.80,104.798 29.80,104.860 21.70,104.898 13.60,104.937 8.10,101.857 2.60,98.777 1.10,92.798 -0.408,86.819 -0.591,80.599 -0.774,74.379 -0.705,68.158 -0.635,61.938 -0.670,55.708 -0.704,49.479 -0.887,43.245 -1.069,37.011 -1.248,30.776 -1.426,24.540 -1.571,18.189 -1.716,11.838 1.42,6.759 4.56,1.680 11.84,0.280 19.13,-1.121 26.95,-1.294 34.76,-1.467 42.70,-1.419 50.65,-1.371 58.63,-1.270 66.61,-1.169 74.60,-1.054 82.59,-0.939 90.58,-0.821 98.58,-0.703 106.57,-0.584 114.56,-0.465 122.56,-0.346 130.55,-0.227 138.55,-0.108 146.54,0.011 154.54,0.071 162.53,0.130 170.53,0.130 178.52,0.129 186.52,0.129 194.51,0.128 202.51,0.127 210.51,0.127 218.50,0.126 226.50,0.126 234.49,0.125 242.49,0.125 250.48,0.124 258.48,0.124 266.47,0.123 274.47,0.123 282.47,0.122 290.46,0.122 298.54,0.145 306.63,0.168 312.11,3.252 317.59,6.336 319.12,12.195 320.66,18.054 320.87,24.123 321.09,30.192 321.05,36.251 321.02,42.309 321.08,48.373 321.15,54.437 321.37,60.503 321.58,66.570 321.79,72.638 322.00,78.705 322.18,84.894 322.36,91.083 319.23,96.120 316.11,101.157 308.82,102.593 301.53,104.030 293.70,104.258 285.88,104.487 277.92,104.499 269.97,104.511 261.98,104.471 253.98,104.430 245.98,104.377 237.98,104.324 229.97,104.267 221.97,104.210 213.96,104.153 205.95,104.096 197.94,104.038 189.94,103.980 181.93,103.922 173.92,103.865 165.92,103.867 157.91,103.869 149.90,103.931 141.89,103.993 131.15,104.055 120.40,104.118 120.07,104.064 119.74,104.011 119.45,103.856 119.16,103.700 118.93,103.460 118.70,103.219 118.56,102.918 118.42,102.617 118.39,102.288 118.35,101.958 118.42,101.634 118.49,101.311 118.67,101.026 118.84,100.742 119.09,100.528 119.34,100.313 119.65,100.190 119.96,100.067 120.29,100.049 120.62,100.031 120.94,100.120 121.26,100.209 121.53,100.395 121.81,100.581 122.01,100.845 122.21,101.109 122.32,101.423 122.42,101.737 122.42,102.068 122.42,102.400 122.32,102.714 122.21,103.028 122.01,103.292 121.81,103.556 121.53,103.742 121.26,103.929 120.94,104.017 120.62,104.106 120.29,104.088 119.96,104.070 119.65,103.947 119.34,103.825 119.09,103.610 118.84,103.395 118.67,103.111 118.49,102.827 118.42,102.503 118.35,102.180 118.39,101.850 118.42,101.520 118.56,101.220 118.70,100.919 118.93,100.678 119.16,100.437 119.45,100.282 119.74,100.127 120.07,100.073 120.40,100.019 120.40,100.019 120.40,100.019 131.15,100.076 141.89,100.133 149.90,100.191 157.91,100.249 165.92,100.247 173.92,100.245 181.93,100.183 189.94,100.121 197.94,100.059 205.95,99.997 213.96,99.935 221.96,99.872 229.97,99.809 237.97,99.746 245.97,99.680 253.97,99.613 261.95,99.534 269.92,99.454 277.81,99.324 285.69,99.194 293.17,98.879 300.66,98.563 306.62,97.877 312.58,97.191 314.65,93.918 316.72,90.644 316.80,84.695 316.88,78.747 316.99,72.678 317.11,66.609 317.22,60.544 317.33,54.479 317.26,48.434 317.19,42.388 316.91,36.423 316.62,30.457 316.15,24.836 315.67,19.214 314.76,14.693 313.85,10.171 310.04,8.010 306.23,5.849 298.33,5.753 290.42,5.657 282.42,5.538 274.43,5.419 266.44,5.300 258.44,5.180 250.45,5.061 242.45,4.942 234.46,4.823 226.46,4.703 218.47,4.584 210.47,4.465 202.48,4.346 194.48,4.227 186.49,4.107 178.49,3.988 170.50,3.869 162.51,3.750 154.51,3.690 146.52,3.631 138.52,3.632 130.52,3.632 122.53,3.633 114.53,3.633 106.54,3.634 98.54,3.635 90.55,3.637 82.56,3.638 74.57,3.643 66.58,3.648 58.62,3.667 50.65,3.686 42.78,3.756 34.91,3.827 27.44,4.088 19.97,4.350 14.02,5.002 8.06,5.654 5.99,8.970 3.92,12.287 3.81,18.407 3.69,24.527 3.55,30.762 3.40,36.997 3.26,43.227 3.12,49.458 3.15,55.669 3.18,61.881 3.44,68.012 3.69,74.144 4.14,79.924 4.59,85.704 5.47,90.346 6.36,94.988 10.16,97.122 13.96,99.256 21.88,99.290 29.79,99.325 37.80,99.382 45.81,99.440 53.82,99.498 61.82,99.556 69.83,99.613 77.84,99.671 85.84,99.729 93.85,99.787 101.86,99.845 109.87,99.902 117.87,99.960 125.88,100.018 133.89,100.076 141.89,100.133 149.90,100.191 157.90,100.249 165.90,100.247 173.90,100.245 181.87,100.183 189.85,100.121 197.72,100.059 205.59,99.997 213.08,99.935 220.57,99.873 226.53,99.812 232.50,99.751 232.77,99.784 233.05,99.817 233.30,99.915 233.56,100.013 233.79,100.169 234.02,100.326 234.20,100.532 234.38,100.739 234.51,100.983 234.64,101.227 234.70,101.495 234.77,101.763 234.77,102.039 234.77,102.315 234.70,102.583 234.64,102.851 234.51,103.095 234.38,103.339 234.20,103.546 234.02,103.752 233.79,103.909 233.56,104.066 233.30,104.164 233.05,104.262 232.77,104.295 Z" fill="#717d8a" stroke="#717d8a" stroke-width="3.5" pointer-events="none"/></g><g id="a1ae2cce-9ced-42a1-1f79-4299060865b2_svg" class="tl-centered-g" transform="translate(256.00, 380.37) rotate(0.00, 153.19, 89.31)"><path d="M2.510,89.861Q2.510,89.861 2.50,83.871 2.50,77.882 2.50,70.365 2.49,62.848 2.49,54.942 2.49,47.036 2.48,39.031 2.48,31.025 2.48,22.994 2.47,14.964 5.08,10.308 7.69,5.653 14.30,4.465 20.92,3.277 28.56,2.973 36.19,2.669 44.09,2.591 51.99,2.512 59.96,2.492 67.92,2.471 75.91,2.465 83.89,2.458 91.87,2.456 99.86,2.453 107.85,2.452 115.84,2.450 123.82,2.449 131.81,2.448 139.80,2.447 147.79,2.445 155.78,2.444 163.76,2.443 171.75,2.442 179.74,2.441 187.73,2.439 195.72,2.438 203.71,2.437 211.69,2.436 219.68,2.435 227.67,2.433 235.66,2.432 243.65,2.431 251.63,2.430 259.62,2.429 267.61,2.428 275.60,2.426 283.59,2.425 291.57,2.424 296.22,5.031 300.86,7.638 302.03,14.308 303.19,20.978 303.47,28.684 303.75,36.390 303.80,44.360 303.85,52.330 303.85,60.368 303.84,68.405 303.82,76.460 303.80,84.515 303.78,92.574 303.75,100.633 303.73,108.693 303.70,116.753 303.68,124.814 303.65,132.874 303.62,140.935 303.60,148.995 303.57,157.056 303.55,165.117 300.93,169.779 298.32,174.442 291.71,175.624 285.11,176.805 277.48,177.098 269.86,177.392 261.98,177.459 254.09,177.525 246.15,177.535 238.20,177.544 230.23,177.538 222.26,177.533 214.29,177.524 206.32,177.514 198.35,177.504 190.38,177.494 182.41,177.484 174.44,177.473 166.46,177.463 158.49,177.452 150.52,177.442 142.55,177.431 134.58,177.421 126.60,177.410 118.63,177.399 110.66,177.389 102.69,177.378 94.72,177.368 86.74,177.357 78.77,177.347 70.80,177.336 62.83,177.326 54.86,177.315 46.89,177.305 38.91,177.294 30.94,177.284 22.97,177.273 15.00,177.263 10.36,174.652 5.72,172.042 4.53,165.387 3.34,158.732 3.04,151.046 2.73,143.359 2.65,135.410 2.57,127.460 2.55,119.444 2.53,111.427 2.52,103.394 2.51,95.360 2.51,87.322 2.50,79.284 2.50,68.494 " fill="#404a53" pointer-events="none"/><path d="M0.760,89.861Q0.760,89.861 0.64,83.872 0.52,77.883 0.41,70.366 0.29,62.849 0.17,54.943 0.05,47.037 -0.059,39.032 -0.176,31.026 -0.269,22.905 -0.363,14.785 2.77,9.252 5.90,3.720 13.17,2.139 20.43,0.559 28.26,0.298 36.09,0.037 44.03,0.020 51.97,0.004 59.94,0.047 67.92,0.089 75.90,0.146 83.89,0.203 91.87,0.263 99.86,0.324 107.85,0.386 115.84,0.448 123.82,0.509 131.81,0.571 139.80,0.633 147.79,0.695 155.78,0.631 163.76,0.567 171.75,0.502 179.74,0.438 187.73,0.373 195.72,0.309 203.71,0.245 211.69,0.180 219.68,0.116 227.67,0.052 235.66,-0.013 243.65,-0.077 251.63,-0.142 259.62,-0.206 267.61,-0.270 275.60,-0.335 283.68,-0.376 291.76,-0.416 297.28,2.724 302.80,5.864 304.31,13.194 305.81,20.524 306.00,28.413 306.18,36.303 306.12,44.309 306.06,52.316 305.94,60.362 305.82,68.407 305.69,76.463 305.55,84.519 305.64,92.579 305.73,100.639 305.82,108.700 305.91,116.760 305.99,124.821 306.08,132.882 306.17,140.943 306.26,149.004 306.32,157.153 306.39,165.303 303.25,170.840 300.10,176.377 292.85,177.950 285.59,179.523 277.78,179.774 269.96,180.024 262.04,180.029 254.12,180.034 246.16,179.980 238.20,179.926 230.23,179.857 222.26,179.788 214.29,179.716 206.32,179.644 198.35,179.570 190.38,179.497 182.41,179.423 174.43,179.350 166.46,179.276 158.49,179.202 150.52,179.255 142.55,179.307 134.57,179.360 126.60,179.413 118.63,179.465 110.66,179.518 102.69,179.571 94.71,179.623 86.74,179.676 78.77,179.729 70.80,179.781 62.83,179.834 54.85,179.887 46.88,179.939 38.91,179.992 30.94,180.045 22.88,180.074 14.81,180.103 9.30,176.964 3.78,173.826 2.25,166.511 0.73,159.195 0.51,151.326 0.30,143.456 0.34,135.469 0.37,127.483 0.46,119.458 0.55,111.433 0.66,103.398 0.76,95.362 0.64,87.324 0.52,79.285 0.41,68.495 0.29,57.704 0.34,57.352 0.40,57.000 0.57,56.684 0.74,56.369 0.99,56.124 1.25,55.878 1.58,55.728 1.90,55.578 2.26,55.540 2.61,55.501 2.96,55.578 3.31,55.654 3.61,55.838 3.92,56.022 4.15,56.293 4.38,56.565 4.51,56.897 4.64,57.228 4.66,57.584 4.68,57.940 4.59,58.284 4.49,58.628 4.29,58.923 4.09,59.219 3.81,59.435 3.52,59.651 3.19,59.765 2.85,59.879 2.49,59.879 2.14,59.879 1.80,59.765 1.46,59.651 1.17,59.435 0.89,59.220 0.69,58.924 0.49,58.629 0.39,58.286 0.30,57.942 0.32,57.586 0.34,57.229 0.47,56.898 0.60,56.566 0.83,56.295 1.06,56.023 1.37,55.839 1.67,55.655 2.02,55.578 2.37,55.501 2.73,55.540 3.08,55.578 3.40,55.728 3.73,55.877 3.99,56.123 4.25,56.368 4.41,56.683 4.58,56.998 4.64,57.350 4.70,57.702 4.70,57.702 4.70,57.702 4.59,68.492 4.48,79.283 4.37,87.321 4.26,95.358 4.38,103.390 4.51,111.422 4.64,119.430 4.78,127.438 4.97,135.351 5.17,143.263 5.56,150.766 5.96,158.269 6.81,164.263 7.65,170.258 11.42,172.340 15.18,174.422 23.06,174.472 30.94,174.522 38.92,174.596 46.89,174.670 54.86,174.744 62.83,174.817 70.80,174.891 78.78,174.965 86.75,175.039 94.72,175.112 102.69,175.186 110.66,175.260 118.64,175.333 126.61,175.407 134.58,175.481 142.55,175.555 150.52,175.628 158.49,175.702 166.47,175.649 174.44,175.597 182.41,175.544 190.38,175.491 198.35,175.438 206.33,175.385 214.30,175.331 222.27,175.277 230.23,175.220 238.19,175.162 246.13,175.090 254.07,175.017 261.92,174.888 269.76,174.759 277.19,174.423 284.63,174.086 290.58,173.297 296.53,172.508 298.62,168.719 300.71,164.930 300.82,156.959 300.94,148.987 301.08,140.927 301.22,132.867 301.36,124.807 301.50,116.746 301.64,108.687 301.77,100.627 301.91,92.569 302.05,84.510 301.96,76.457 301.86,68.404 301.76,60.374 301.65,52.345 301.48,44.411 301.32,36.478 300.95,28.955 300.57,21.433 299.75,15.423 298.92,9.413 295.16,7.339 291.39,5.264 283.50,5.226 275.60,5.187 267.61,5.125 259.62,5.063 251.63,5.001 243.65,4.939 235.66,4.877 227.67,4.815 219.68,4.753 211.69,4.691 203.71,4.629 195.72,4.567 187.73,4.505 179.74,4.443 171.75,4.381 163.77,4.319 155.78,4.257 147.79,4.195 139.80,4.260 131.81,4.324 123.82,4.389 115.84,4.453 107.85,4.518 99.86,4.583 91.88,4.648 83.89,4.714 75.91,4.783 67.93,4.853 59.97,4.937 52.02,5.021 44.16,5.161 36.30,5.302 28.85,5.648 21.40,5.995 15.44,6.790 9.47,7.586 7.39,11.364 5.31,15.143 5.23,23.083 5.14,31.024 5.03,39.030 4.92,47.035 4.81,54.941 4.70,62.847 4.59,70.364 4.48,77.881 4.37,83.870 4.26,89.860 4.23,90.069 4.20,90.279 4.13,90.476 4.06,90.673 3.94,90.847 3.82,91.021 3.66,91.161 3.50,91.300 3.31,91.399 3.13,91.497 2.92,91.547 2.72,91.598 2.51,91.598 2.29,91.598 2.09,91.548 1.89,91.497 1.70,91.399 1.51,91.301 1.35,91.161 1.20,91.022 1.08,90.848 0.96,90.674 0.88,90.477 0.81,90.280 0.78,90.071 Z" fill="#717d8a" stroke="#717d8a" stroke-width="3.5" pointer-events="none"/></g><g id="0c41d678-e009-4805-3b8d-f1119565ebb2_svg" class="tl-centered-g" transform="translate(507.64, 300.41) rotate(0.00, 223.52, 1.00)"><defs><mask id="0c41d678-e009-4805-3b8d-f1119565ebb2_clip"><rect x="-100" y="-100" width="647.04" height="202" fill="white"/><rect x="223.52" y="1" width="0" height="0" rx="4" ry="4" fill="black" opacity="1"/></mask></defs><g pointer-events="none" opacity="1" mask=""><path d="M447.047,1.574Q447.047,1.574 391.60,1.755 336.16,1.936 280.71,2.133 225.27,2.331 169.83,2.542 114.39,2.753 58.94,2.974 3.50,3.195 3.31,3.164 3.11,3.133 2.94,3.042 2.77,2.951 2.63,2.810 2.50,2.668 2.41,2.491 2.33,2.313 2.31,2.119 2.29,1.924 2.33,1.733 2.37,1.541 2.47,1.373 2.57,1.205 2.72,1.077 2.87,0.950 3.05,0.877 3.23,0.803 3.43,0.792 3.62,0.780 3.81,0.832 4.00,0.884 4.16,0.993 4.32,1.102 4.44,1.257 4.56,1.413 4.63,1.598 4.69,1.783 4.69,1.979 4.69,2.175 4.63,2.361 4.57,2.547 4.45,2.703 4.33,2.860 4.17,2.970 4.01,3.081 3.82,3.134 3.63,3.187 3.44,3.177 3.24,3.168 3.06,3.096 2.88,3.024 2.73,2.898 2.58,2.772 2.47,2.604 2.37,2.437 2.33,2.246 2.29,2.055 2.31,1.860 2.33,1.665 2.41,1.487 2.49,1.309 2.62,1.167 2.76,1.024 2.93,0.931 3.10,0.839 3.30,0.806 3.49,0.774 3.49,0.774 3.49,0.774 58.93,0.499 114.37,0.223 169.82,-0.062 225.26,-0.347 280.70,-0.645 336.14,-0.943 391.59,-1.259 447.03,-1.574 447.22,-1.552 447.41,-1.530 447.58,-1.463 447.76,-1.397 447.92,-1.290 448.07,-1.183 448.20,-1.041 448.33,-0.900 448.42,-0.732 448.50,-0.565 448.55,-0.381 448.60,-0.197 448.60,-0.007 448.60,0.183 448.55,0.367 448.51,0.552 448.42,0.720 448.33,0.888 448.21,1.031 448.08,1.173 447.93,1.282 447.77,1.390 447.60,1.458 447.42,1.526 447.23,1.550 Z" fill="#36a64c" stroke="#36a64c" stroke-width="3.33" stroke-dasharray="none" stroke-dashoffset="none" stroke-linecap="round" stroke-linejoin="round" pointer-events="stroke"/><g><path d="M 24.31,15.891375334323072 L 0,2 24.18,-12.108344452380798" fill="none" stroke="#36a64c" stroke-width="6.66" stroke-linecap="round" stroke-linejoin="round" pointer-events="none"/></g></g></g><g id="551ea7c9-4551-4a68-2f5a-38782f7c3b7a_svg" class="tl-centered-g" transform="translate(693.13, 238.81) rotate(0.00, 96.75, 66.67)"><path d="M190.720,91.633Q190.720,91.633 190.74,97.811 190.76,103.988 190.78,111.740 190.81,119.493 188.21,124.077 185.61,128.662 179.00,129.864 172.40,131.067 164.77,131.408 157.14,131.749 149.25,131.869 141.36,131.990 133.41,132.055 125.46,132.119 117.48,132.170 109.51,132.220 101.54,132.267 93.56,132.313 85.58,132.359 77.61,132.405 69.63,132.450 61.65,132.496 53.68,132.541 45.70,132.587 37.72,132.632 29.74,132.678 21.77,132.723 13.79,132.769 9.15,130.173 4.51,127.577 3.38,120.736 2.26,113.896 2.03,105.973 1.80,98.050 1.80,89.851 1.80,81.652 1.86,73.383 1.92,65.113 1.99,56.826 2.07,48.539 2.15,40.247 2.22,31.955 2.30,23.662 2.38,15.369 5.01,10.647 7.64,5.925 14.20,4.687 20.76,3.450 28.33,3.102 35.89,2.753 43.71,2.631 51.53,2.510 59.42,2.445 67.31,2.381 75.21,2.332 83.11,2.283 91.02,2.237 98.93,2.191 106.84,2.147 114.75,2.102 122.66,2.058 130.57,2.013 138.47,1.969 146.38,1.925 154.29,1.880 162.20,1.836 170.11,1.792 178.02,1.747 182.64,4.344 187.27,6.940 188.47,13.779 189.67,20.618 190.00,28.540 190.32,36.461 190.43,44.658 190.53,52.855 190.58,61.123 190.63,69.390 190.66,77.676 190.69,85.961 190.73,97.089 " fill="#595642" pointer-events="none"/><path d="M192.957,91.626Q192.957,91.626 193.14,97.803 193.32,103.979 193.48,111.826 193.65,119.672 190.53,125.133 187.40,130.594 180.14,132.150 172.87,133.705 165.06,133.962 157.25,134.220 149.33,134.238 141.40,134.257 133.44,134.218 125.47,134.179 117.50,134.126 109.52,134.073 101.55,134.120 93.57,134.167 85.60,134.316 77.62,134.465 69.64,134.614 61.67,134.763 53.69,134.912 45.71,135.061 37.74,135.210 29.76,135.358 21.69,135.483 13.62,135.608 8.09,132.466 2.56,129.324 1.14,121.816 -0.267,114.308 -0.349,106.211 -0.431,98.114 -0.268,89.883 -0.105,81.652 -0.046,73.376 0.01,65.100 -0.076,56.809 -0.164,48.519 -0.249,40.225 -0.334,31.931 -0.396,23.553 -0.457,15.174 2.68,9.589 5.83,4.004 13.05,2.410 20.27,0.816 28.02,0.549 35.78,0.282 43.64,0.262 51.50,0.243 59.40,0.282 67.29,0.321 75.20,0.375 83.10,0.429 91.01,0.384 98.92,0.338 106.83,0.190 114.74,0.042 122.64,-0.106 130.55,-0.254 138.46,-0.401 146.37,-0.549 154.28,-0.697 162.19,-0.845 170.19,-0.968 178.19,-1.092 183.70,2.036 189.21,5.163 190.70,12.671 192.19,20.179 192.38,28.274 192.56,36.369 192.50,44.600 192.44,52.831 192.49,61.105 192.54,69.379 192.73,77.666 192.93,85.953 193.13,97.080 193.33,108.208 193.27,108.617 193.20,109.026 193.01,109.393 192.82,109.760 192.52,110.046 192.22,110.333 191.84,110.508 191.47,110.683 191.05,110.730 190.64,110.776 190.24,110.688 189.83,110.600 189.48,110.388 189.12,110.175 188.85,109.860 188.58,109.545 188.43,109.161 188.27,108.776 188.25,108.362 188.22,107.948 188.33,107.549 188.44,107.149 188.67,106.805 188.91,106.461 189.23,106.209 189.56,105.957 189.96,105.823 190.35,105.689 190.76,105.688 191.18,105.687 191.57,105.818 191.96,105.949 192.30,106.198 192.63,106.448 192.86,106.791 193.09,107.133 193.21,107.532 193.32,107.931 193.30,108.345 193.28,108.759 193.12,109.145 192.97,109.530 192.70,109.847 192.44,110.164 192.08,110.379 191.73,110.594 191.32,110.684 190.92,110.775 190.51,110.731 190.09,110.688 189.72,110.515 189.34,110.342 189.04,110.058 188.74,109.774 188.54,109.408 188.35,109.043 188.28,108.634 188.21,108.225 188.21,108.225 188.21,108.226 188.33,97.098 188.46,85.970 188.58,77.686 188.71,69.402 188.67,61.141 188.62,52.880 188.35,44.717 188.09,36.553 187.62,28.806 187.14,21.058 186.24,14.888 185.33,8.717 181.59,6.652 177.85,4.587 170.03,4.552 162.22,4.517 154.31,4.458 146.40,4.399 138.49,4.339 130.58,4.280 122.67,4.221 114.76,4.162 106.85,4.104 98.94,4.045 91.03,4.090 83.13,4.136 75.23,4.289 67.33,4.442 59.45,4.609 51.57,4.776 43.79,5.000 36.01,5.225 28.63,5.655 21.25,6.085 15.35,6.965 9.44,7.845 7.33,11.704 5.22,15.564 5.01,23.771 4.79,31.979 4.55,40.269 4.31,48.559 4.07,56.843 3.83,65.127 3.77,73.390 3.72,81.652 3.88,89.819 4.04,97.986 4.41,105.734 4.79,113.483 5.62,119.656 6.46,125.830 10.21,127.879 13.96,129.929 21.84,129.963 29.73,129.997 37.71,130.055 45.69,130.113 53.66,130.171 61.64,130.229 69.62,130.287 77.60,130.345 85.57,130.402 93.55,130.460 101.53,130.413 109.50,130.367 117.47,130.213 125.44,130.059 133.38,129.891 141.33,129.723 149.18,129.500 157.03,129.277 164.47,128.853 171.92,128.430 177.87,127.579 183.81,126.729 185.89,123.021 187.97,119.313 188.08,111.655 188.19,103.997 188.34,97.819 188.48,91.641 188.51,91.373 188.54,91.105 188.64,90.853 188.73,90.600 188.88,90.378 189.04,90.155 189.24,89.976 189.44,89.796 189.68,89.670 189.91,89.544 190.18,89.479 190.44,89.413 190.71,89.412 190.98,89.411 191.24,89.475 191.50,89.539 191.74,89.663 191.98,89.788 192.18,89.966 192.39,90.144 192.54,90.366 192.69,90.587 192.79,90.839 192.89,91.091 192.92,91.358 Z" fill="#ebbb38" stroke="#ebbb38" stroke-width="3.5" pointer-events="none"/></g><text font-size="67.6550289017341px" font-family="Caveat Brush" font-weight="normal" line-height="67.6550289017341px" letter-spacing="-0.03em" text-align="left" dominant-baseline="mathematical" alignment-baseline="mathematical" text-anchor="start" fill="#cecece" transform="translate(716.19, 266.14) rotate(0.00, 69.50, 39.00)"><tspan y="33.82751445086705px" x="4">HTML
</tspan></text><text font-size="52.811731061758465px" font-family="Caveat Brush" font-weight="normal" line-height="52.811731061758465px" letter-spacing="-0.03em" text-align="center" dominant-baseline="mathematical" alignment-baseline="mathematical" text-anchor="middle" fill="#36a64c" transform="translate(968.64, 261.01) rotate(0.00, 218.00, 31.50)"><tspan y="26.405865530879232px" x="222">renderToString(&lt;App /&gt;)
</tspan></text></svg>