<svg xmlns="http://www.w3.org/2000/svg" viewBox="0 0 1504 688" width="1472" height="656" style="background-color: transparent;"><defs><style>@import url('https://fonts.googleapis.com/css2?family=Caveat+Brush&amp;family=Source+Code+Pro&amp;family=Source+Sans+Pro&amp;family=Crimson+Pro&amp;display=block');</style></defs><g id="c286159d-3cd8-4d6d-2ca8-8004c36d8abf_svg" class="tl-centered-g" transform="translate(16.00, 16.00) rotate(0.00, 736.00, 328.00)"><g pointer-events="none" stroke="transparent" stroke-width="4.23" stroke-linecap="round"><line x1="2.11" y1="2.11" x2="1469.88" y2="2.11" stroke-dasharray="0.03 6.46" stroke-dashoffset="0"/><line x1="1469.88" y1="2.11" x2="1469.88" y2="653.88" stroke-dasharray="0.03 6.48" stroke-dashoffset="0"/><line x1="1469.88" y1="653.88" x2="2.11" y2="653.88" stroke-dasharray="0.03 6.46" stroke-dashoffset="0"/><line x1="2.11" y1="653.88" x2="2.11" y2="2.11" stroke-dasharray="0.03 6.48" stroke-dashoffset="0"/></g></g><g text-align="left" text-anchor="start" fill="#36a64c" transform="translate(212.48, 159.85) rotate(0.00, 63.00, 21.50)"><text y="14" letter-spacing="-0.84" font-size="28px" font-family="Caveat Brush" text-align="left" alignment-baseline="central" transform="scale(1.165392162061834)">/path/path</text></g><g id="f52a5e6c-4c6b-42ab-27ac-01a9ccb145db_svg" class="tl-centered-g" transform="translate(714.62, 96.54) rotate(0.00, 24.68, 235.26)"><g opacity="1"><path d="M 22.26,0.21 Q 22.26,0.21 21.15,0.48 20.04,0.75 18.93,1.31 17.81,1.88 16.66,2.70 15.50,3.51 14.24,4.50 12.97,5.50 11.78,6.54 10.58,7.59 9.58,8.56 8.58,9.53 7.67,10.50 6.76,11.48 5.95,12.44 5.13,13.40 4.49,14.26 3.85,15.13 3.40,15.93 2.95,16.73 2.66,17.57 2.37,18.41 2.21,19.37 2.04,20.32 1.95,21.02 1.86,21.72 1.88,22.51 1.91,23.29 2.13,24.08 2.35,24.87 2.81,25.68 3.27,26.49 3.92,27.38 4.57,28.26 5.38,29.20 6.19,30.14 7.12,31.11 8.06,32.08 9.05,33.01 10.04,33.94 11.22,34.88 12.39,35.81 13.71,36.72 15.03,37.62 16.27,38.42 17.51,39.22 18.61,39.89 19.71,40.55 20.73,41.13 21.74,41.72 22.70,42.30 23.66,42.88 24.56,43.46 25.46,44.05 26.30,44.62 27.15,45.20 27.93,45.78 28.70,46.35 29.40,46.94 30.09,47.53 30.70,48.17 31.31,48.80 31.82,49.46 32.32,50.13 32.72,50.81 33.12,51.49 33.44,52.24 33.76,53.00 34.00,53.90 34.23,54.80 34.37,55.82 34.51,56.83 34.58,57.85 34.66,58.87 34.58,59.88 34.50,60.89 34.06,62.00 33.62,63.11 32.81,64.36 32.00,65.60 30.99,66.88 29.99,68.16 28.81,69.54 27.63,70.92 25.97,72.70 24.31,74.48 23.12,75.77 21.93,77.07 20.75,78.35 19.57,79.63 18.61,80.72 17.64,81.81 16.84,82.77 16.04,83.74 15.29,84.73 14.54,85.73 13.91,86.72 13.27,87.71 12.74,88.66 12.21,89.60 11.81,90.46 11.42,91.33 11.16,92.19 10.91,93.05 10.76,93.89 10.62,94.73 10.55,95.57 10.47,96.41 10.48,97.25 10.49,98.09 10.70,98.85 10.92,99.60 11.43,100.28 11.94,100.96 12.78,101.65 13.62,102.34 14.76,103.04 15.90,103.75 17.23,104.45 18.55,105.14 20.03,105.86 21.50,106.59 23.08,107.32 24.66,108.05 26.12,108.69 27.57,109.34 28.82,109.89 30.06,110.43 31.23,110.98 32.40,111.53 33.50,112.11 34.60,112.69 35.56,113.24 36.51,113.78 37.27,114.31 38.03,114.84 38.60,115.45 39.17,116.05 39.58,116.73 39.98,117.41 40.23,118.14 40.47,118.88 40.61,119.70 40.74,120.53 40.63,121.46 40.51,122.38 39.95,123.49 39.38,124.60 38.32,125.91 37.25,127.23 35.21,129.19 33.18,131.16 31.62,132.58 30.07,133.99 27.85,135.84 25.63,137.68 23.95,139.05 22.28,140.42 20.71,141.67 19.15,142.92 17.58,144.18 16.00,145.44 14.35,146.81 12.70,148.18 11.43,149.33 10.16,150.48 8.96,151.62 7.76,152.76 6.61,153.93 5.46,155.10 4.65,156.13 3.84,157.16 3.21,158.16 2.59,159.17 2.11,160.13 1.63,161.10 1.29,162.04 0.94,162.98 0.73,163.86 0.52,164.74 0.40,165.52 0.28,166.29 0.22,167.04 0.16,167.79 0.18,168.56 0.20,169.34 0.43,170.06 0.65,170.79 1.15,171.45 1.65,172.12 2.43,172.80 3.22,173.48 4.24,174.23 5.26,174.99 6.45,175.78 7.65,176.58 8.99,177.42 10.34,178.26 11.82,179.20 13.30,180.14 14.81,181.21 16.33,182.27 17.77,183.43 19.22,184.59 20.62,185.95 22.03,187.31 23.31,188.83 24.59,190.34 25.61,191.87 26.64,193.40 27.42,194.95 28.20,196.50 28.77,198.09 29.33,199.69 29.80,201.94 30.27,204.19 30.53,205.83 30.79,207.48 30.94,209.27 31.08,211.05 31.03,212.92 30.97,214.78 30.63,216.61 30.28,218.45 29.68,220.30 29.07,222.14 28.33,223.92 27.58,225.70 26.90,227.16 26.22,228.62 25.49,229.93 24.77,231.24 24.01,232.54 23.25,233.84 22.63,234.93 22.00,236.02 21.52,236.89 21.03,237.77 20.69,238.48 20.35,239.18 20.14,239.78 19.93,240.37 19.82,240.87 19.71,241.36 19.76,241.81 19.81,242.26 20.25,242.73 20.70,243.21 21.58,243.73 22.47,244.24 23.74,244.80 25.02,245.36 26.65,245.95 28.29,246.55 29.98,247.12 31.68,247.70 33.24,248.23 34.80,248.75 36.27,249.28 37.74,249.81 39.14,250.35 40.54,250.89 41.81,251.45 43.08,252.01 44.10,252.57 45.13,253.13 45.91,253.62 46.69,254.11 47.25,254.48 47.81,254.85 48.15,255.08 48.50,255.31 48.69,255.47 48.89,255.63 48.97,255.84 49.06,256.06 48.99,256.53 48.93,257.01 48.64,257.82 48.35,258.63 47.86,259.72 47.36,260.81 46.65,262.09 45.95,263.37 45.07,264.79 44.19,266.21 43.18,267.79 42.17,269.37 40.96,271.13 39.75,272.89 38.41,274.73 37.08,276.57 35.76,278.32 34.45,280.06 33.18,281.66 31.90,283.27 30.69,284.78 29.48,286.29 28.62,287.36 27.75,288.43 26.78,289.63 25.80,290.83 25.16,291.66 24.52,292.50 24.03,293.26 23.54,294.02 23.20,294.69 22.87,295.37 22.65,295.99 22.43,296.62 22.31,297.22 22.19,297.82 22.13,298.41 22.06,299.00 22.19,299.55 22.33,300.10 22.75,300.68 23.16,301.25 23.72,301.88 24.29,302.50 24.99,303.14 25.69,303.79 26.43,304.42 27.17,305.05 27.82,305.68 28.48,306.31 29.08,306.97 29.68,307.62 30.20,308.32 30.73,309.01 31.17,309.81 31.61,310.61 31.93,311.54 32.24,312.48 32.43,313.57 32.62,314.66 32.53,316.08 32.44,317.50 31.79,319.34 31.15,321.19 29.88,323.41 28.62,325.62 26.83,328.12 25.04,330.63 23.08,333.11 21.12,335.59 19.18,337.93 17.23,340.26 15.44,342.40 13.65,344.54 12.09,346.43 10.53,348.31 9.16,349.96 7.79,351.60 6.67,352.97 5.55,354.35 4.70,355.50 3.86,356.65 3.32,357.68 2.78,358.71 2.47,359.65 2.17,360.59 2.19,361.44 2.22,362.30 2.73,363.02 3.24,363.74 4.30,364.51 5.36,365.28 6.69,365.96 8.03,366.65 9.72,367.35 11.40,368.06 13.28,368.84 15.16,369.61 16.94,370.34 18.73,371.07 20.33,371.77 21.93,372.46 23.43,373.13 24.93,373.80 26.34,374.51 27.74,375.22 28.98,376.02 30.21,376.83 31.10,377.66 31.99,378.50 32.52,379.41 33.06,380.32 33.33,381.39 33.61,382.47 33.60,383.77 33.60,385.07 33.19,386.62 32.78,388.16 32.07,389.76 31.36,391.36 30.58,392.83 29.81,394.30 29.01,395.72 28.21,397.13 27.41,398.54 26.61,399.95 25.91,401.27 25.22,402.59 24.66,403.87 24.10,405.15 23.68,406.43 23.27,407.71 23.01,408.90 22.76,410.09 22.67,411.17 22.59,412.25 22.77,413.24 22.96,414.23 23.48,415.18 24.00,416.13 24.77,417.03 25.54,417.93 26.40,418.70 27.26,419.48 28.09,420.13 28.93,420.78 29.70,421.34 30.48,421.91 31.23,422.48 31.99,423.05 32.66,423.76 33.33,424.48 33.74,425.05 34.14,425.62 34.40,426.28 34.66,426.94 34.80,427.75 34.94,428.56 34.85,429.62 34.77,430.69 34.34,431.91 33.91,433.13 33.35,434.32 32.79,435.51 32.20,436.69 31.60,437.86 30.92,439.13 30.23,440.40 29.54,441.67 28.86,442.94 28.31,444.07 27.75,445.20 27.33,446.19 26.91,447.19 26.64,448.19 26.36,449.19 26.21,450.25 26.05,451.32 25.97,452.39 25.88,453.47 25.84,454.55 25.79,455.63 25.76,456.72 25.74,457.80 25.75,458.87 25.75,459.94 25.82,461.03 25.89,462.11 26.00,463.16 26.12,464.21 26.25,465.13 26.38,466.05 26.52,466.80 26.65,467.56 26.77,468.15 26.88,468.74 27.04,469.63 27.21,470.53 27.21,470.53" fill="none" stroke="none" stroke-width="4" stroke-linejoin="round" stroke-linecap="round" pointer-events="none"/><path d="M 22.26,0.21 Q 22.26,0.21 21.15,0.48 20.04,0.75 18.93,1.31 17.81,1.88 16.66,2.70 15.50,3.51 14.24,4.50 12.97,5.50 11.78,6.54 10.58,7.59 9.58,8.56 8.58,9.53 7.67,10.50 6.76,11.48 5.95,12.44 5.13,13.40 4.49,14.26 3.85,15.13 3.40,15.93 2.95,16.73 2.66,17.57 2.37,18.41 2.21,19.37 2.04,20.32 1.95,21.02 1.86,21.72 1.88,22.51 1.91,23.29 2.13,24.08 2.35,24.87 2.81,25.68 3.27,26.49 3.92,27.38 4.57,28.26 5.38,29.20 6.19,30.14 7.12,31.11 8.06,32.08 9.05,33.01 10.04,33.94 11.22,34.88 12.39,35.81 13.71,36.72 15.03,37.62 16.27,38.42 17.51,39.22 18.61,39.89 19.71,40.55 20.73,41.13 21.74,41.72 22.70,42.30 23.66,42.88 24.56,43.46 25.46,44.05 26.30,44.62 27.15,45.20 27.93,45.78 28.70,46.35 29.40,46.94 30.09,47.53 30.70,48.17 31.31,48.80 31.82,49.46 32.32,50.13 32.72,50.81 33.12,51.49 33.44,52.24 33.76,53.00 34.00,53.90 34.23,54.80 34.37,55.82 34.51,56.83 34.58,57.85 34.66,58.87 34.58,59.88 34.50,60.89 34.06,62.00 33.62,63.11 32.81,64.36 32.00,65.60 30.99,66.88 29.99,68.16 28.81,69.54 27.63,70.92 25.97,72.70 24.31,74.48 23.12,75.77 21.93,77.07 20.75,78.35 19.57,79.63 18.61,80.72 17.64,81.81 16.84,82.77 16.04,83.74 15.29,84.73 14.54,85.73 13.91,86.72 13.27,87.71 12.74,88.66 12.21,89.60 11.81,90.46 11.42,91.33 11.16,92.19 10.91,93.05 10.76,93.89 10.62,94.73 10.55,95.57 10.47,96.41 10.48,97.25 10.49,98.09 10.70,98.85 10.92,99.60 11.43,100.28 11.94,100.96 12.78,101.65 13.62,102.34 14.76,103.04 15.90,103.75 17.23,104.45 18.55,105.14 20.03,105.86 21.50,106.59 23.08,107.32 24.66,108.05 26.12,108.69 27.57,109.34 28.82,109.89 30.06,110.43 31.23,110.98 32.40,111.53 33.50,112.11 34.60,112.69 35.56,113.24 36.51,113.78 37.27,114.31 38.03,114.84 38.60,115.45 39.17,116.05 39.58,116.73 39.98,117.41 40.23,118.14 40.47,118.88 40.61,119.70 40.74,120.53 40.63,121.46 40.51,122.38 39.95,123.49 39.38,124.60 38.32,125.91 37.25,127.23 35.21,129.19 33.18,131.16 31.62,132.58 30.07,133.99 27.85,135.84 25.63,137.68 23.95,139.05 22.28,140.42 20.71,141.67 19.15,142.92 17.58,144.18 16.00,145.44 14.35,146.81 12.70,148.18 11.43,149.33 10.16,150.48 8.96,151.62 7.76,152.76 6.61,153.93 5.46,155.10 4.65,156.13 3.84,157.16 3.21,158.16 2.59,159.17 2.11,160.13 1.63,161.10 1.29,162.04 0.94,162.98 0.73,163.86 0.52,164.74 0.40,165.52 0.28,166.29 0.22,167.04 0.16,167.79 0.18,168.56 0.20,169.34 0.43,170.06 0.65,170.79 1.15,171.45 1.65,172.12 2.43,172.80 3.22,173.48 4.24,174.23 5.26,174.99 6.45,175.78 7.65,176.58 8.99,177.42 10.34,178.26 11.82,179.20 13.30,180.14 14.81,181.21 16.33,182.27 17.77,183.43 19.22,184.59 20.62,185.95 22.03,187.31 23.31,188.83 24.59,190.34 25.61,191.87 26.64,193.40 27.42,194.95 28.20,196.50 28.77,198.09 29.33,199.69 29.80,201.94 30.27,204.19 30.53,205.83 30.79,207.48 30.94,209.27 31.08,211.05 31.03,212.92 30.97,214.78 30.63,216.61 30.28,218.45 29.68,220.30 29.07,222.14 28.33,223.92 27.58,225.70 26.90,227.16 26.22,228.62 25.49,229.93 24.77,231.24 24.01,232.54 23.25,233.84 22.63,234.93 22.00,236.02 21.52,236.89 21.03,237.77 20.69,238.48 20.35,239.18 20.14,239.78 19.93,240.37 19.82,240.87 19.71,241.36 19.76,241.81 19.81,242.26 20.25,242.73 20.70,243.21 21.58,243.73 22.47,244.24 23.74,244.80 25.02,245.36 26.65,245.95 28.29,246.55 29.98,247.12 31.68,247.70 33.24,248.23 34.80,248.75 36.27,249.28 37.74,249.81 39.14,250.35 40.54,250.89 41.81,251.45 43.08,252.01 44.10,252.57 45.13,253.13 45.91,253.62 46.69,254.11 47.25,254.48 47.81,254.85 48.15,255.08 48.50,255.31 48.69,255.47 48.89,255.63 48.97,255.84 49.06,256.06 48.99,256.53 48.93,257.01 48.64,257.82 48.35,258.63 47.86,259.72 47.36,260.81 46.65,262.09 45.95,263.37 45.07,264.79 44.19,266.21 43.18,267.79 42.17,269.37 40.96,271.13 39.75,272.89 38.41,274.73 37.08,276.57 35.76,278.32 34.45,280.06 33.18,281.66 31.90,283.27 30.69,284.78 29.48,286.29 28.62,287.36 27.75,288.43 26.78,289.63 25.80,290.83 25.16,291.66 24.52,292.50 24.03,293.26 23.54,294.02 23.20,294.69 22.87,295.37 22.65,295.99 22.43,296.62 22.31,297.22 22.19,297.82 22.13,298.41 22.06,299.00 22.19,299.55 22.33,300.10 22.75,300.68 23.16,301.25 23.72,301.88 24.29,302.50 24.99,303.14 25.69,303.79 26.43,304.42 27.17,305.05 27.82,305.68 28.48,306.31 29.08,306.97 29.68,307.62 30.20,308.32 30.73,309.01 31.17,309.81 31.61,310.61 31.93,311.54 32.24,312.48 32.43,313.57 32.62,314.66 32.53,316.08 32.44,317.50 31.79,319.34 31.15,321.19 29.88,323.41 28.62,325.62 26.83,328.12 25.04,330.63 23.08,333.11 21.12,335.59 19.18,337.93 17.23,340.26 15.44,342.40 13.65,344.54 12.09,346.43 10.53,348.31 9.16,349.96 7.79,351.60 6.67,352.97 5.55,354.35 4.70,355.50 3.86,356.65 3.32,357.68 2.78,358.71 2.47,359.65 2.17,360.59 2.19,361.44 2.22,362.30 2.73,363.02 3.24,363.74 4.30,364.51 5.36,365.28 6.69,365.96 8.03,366.65 9.72,367.35 11.40,368.06 13.28,368.84 15.16,369.61 16.94,370.34 18.73,371.07 20.33,371.77 21.93,372.46 23.43,373.13 24.93,373.80 26.34,374.51 27.74,375.22 28.98,376.02 30.21,376.83 31.10,377.66 31.99,378.50 32.52,379.41 33.06,380.32 33.33,381.39 33.61,382.47 33.60,383.77 33.60,385.07 33.19,386.62 32.78,388.16 32.07,389.76 31.36,391.36 30.58,392.83 29.81,394.30 29.01,395.72 28.21,397.13 27.41,398.54 26.61,399.95 25.91,401.27 25.22,402.59 24.66,403.87 24.10,405.15 23.68,406.43 23.27,407.71 23.01,408.90 22.76,410.09 22.67,411.17 22.59,412.25 22.77,413.24 22.96,414.23 23.48,415.18 24.00,416.13 24.77,417.03 25.54,417.93 26.40,418.70 27.26,419.48 28.09,420.13 28.93,420.78 29.70,421.34 30.48,421.91 31.23,422.48 31.99,423.05 32.66,423.76 33.33,424.48 33.74,425.05 34.14,425.62 34.40,426.28 34.66,426.94 34.80,427.75 34.94,428.56 34.85,429.62 34.77,430.69 34.34,431.91 33.91,433.13 33.35,434.32 32.79,435.51 32.20,436.69 31.60,437.86 30.92,439.13 30.23,440.40 29.54,441.67 28.86,442.94 28.31,444.07 27.75,445.20 27.33,446.19 26.91,447.19 26.64,448.19 26.36,449.19 26.21,450.25 26.05,451.32 25.97,452.39 25.88,453.47 25.84,454.55 25.79,455.63 25.76,456.72 25.74,457.80 25.75,458.87 25.75,459.94 25.82,461.03 25.89,462.11 26.00,463.16 26.12,464.21 26.25,465.13 26.38,466.05 26.52,466.80 26.65,467.56 26.77,468.15 26.88,468.74 27.04,469.63 27.21,470.53 27.21,470.53" fill="none" stroke="#717d8a" stroke-width="4" stroke-dasharray="0.1 8" stroke-dashoffset="0" stroke-linejoin="round" stroke-linecap="round" pointer-events="none"/></g></g><g text-align="left" text-anchor="start" fill="#cecece" transform="translate(262.87, 50.24) rotate(0.00, 75.00, 43.50)"><text y="14" letter-spacing="-0.84" font-size="28px" font-family="Caveat Brush" text-align="left" alignment-baseline="central" transform="scale(2.7536777269002877)">client</text></g><g id="3f210b50-00c9-40c3-301e-3f6510cd4967_svg" class="tl-centered-g" transform="translate(83.21, 144.79) rotate(0.00, 259.89, 224.72)"><path d="M 520.49,87.00 Q 520.49,87.00 520.46,93.05 520.43,99.11 520.40,106.71 520.37,114.31 520.35,122.31 520.32,130.30 520.29,138.39 520.26,146.49 520.23,154.61 520.20,162.73 520.17,170.86 520.14,178.98 520.11,187.11 520.09,195.24 520.06,203.37 520.03,211.50 520.02,219.63 520.02,227.76 520.04,235.89 520.06,244.01 520.08,252.14 520.10,260.27 520.11,268.40 520.13,276.53 520.15,284.66 520.17,292.79 520.19,300.92 520.21,309.05 520.23,317.18 520.25,325.30 520.27,333.43 520.29,341.56 520.31,349.69 520.33,357.82 520.35,365.95 520.37,374.08 520.38,382.21 520.40,390.34 520.42,398.47 520.44,406.60 520.46,414.72 520.48,422.85 520.50,431.01 520.51,439.16 518.64,443.26 516.77,447.36 509.94,448.50 503.10,449.63 495.24,449.85 487.37,450.06 479.25,450.09 471.12,450.12 462.93,450.10 454.74,450.09 446.53,450.07 438.32,450.04 430.10,450.01 421.89,449.99 413.67,449.96 405.45,449.93 397.24,449.90 389.02,449.87 380.80,449.84 372.59,449.82 364.37,449.79 356.15,449.76 347.94,449.73 339.72,449.70 331.50,449.67 323.29,449.64 315.07,449.61 306.85,449.59 298.64,449.56 290.42,449.53 282.20,449.50 273.99,449.47 265.77,449.46 257.55,449.46 249.34,449.47 241.12,449.48 232.90,449.50 224.69,449.51 216.47,449.52 208.25,449.54 200.04,449.55 191.82,449.56 183.60,449.58 175.39,449.59 167.17,449.60 158.95,449.62 150.73,449.63 142.52,449.64 134.30,449.66 126.08,449.67 117.87,449.68 109.65,449.70 101.43,449.71 93.22,449.72 85.00,449.74 76.78,449.75 68.57,449.76 60.35,449.78 52.13,449.79 43.92,449.80 35.70,449.82 27.48,449.83 19.24,449.84 11.00,449.85 6.88,447.98 2.76,446.11 1.61,439.35 0.47,432.58 0.26,424.80 0.05,417.02 0.02,408.99 -0.01,400.96 0.00,392.86 0.01,384.76 0.03,376.65 0.06,368.53 0.09,360.41 0.11,352.29 0.14,344.17 0.17,336.05 0.20,327.92 0.23,319.80 0.25,311.68 0.28,303.56 0.31,295.43 0.34,287.31 0.37,279.19 0.39,271.07 0.42,262.94 0.45,254.82 0.48,246.70 0.51,238.58 0.51,230.45 0.52,222.33 0.50,214.21 0.48,206.09 0.46,197.96 0.44,189.84 0.42,181.72 0.40,173.60 0.38,165.47 0.36,157.35 0.34,149.23 0.32,141.11 0.30,132.99 0.28,124.86 0.26,116.74 0.24,108.62 0.22,100.50 0.20,92.37 0.18,84.25 0.16,76.13 0.14,68.01 0.12,59.88 0.10,51.76 0.08,43.64 0.06,35.52 0.04,27.39 0.02,19.25 0.01,11.10 1.88,7.00 3.74,2.90 10.58,1.76 17.41,0.62 25.28,0.40 33.15,0.19 41.27,0.15 49.40,0.12 57.59,0.12 65.78,0.13 73.99,0.15 82.20,0.17 90.42,0.19 98.64,0.21 106.85,0.24 115.07,0.26 123.29,0.28 131.50,0.30 139.72,0.33 147.94,0.35 156.16,0.37 164.37,0.40 172.59,0.42 180.81,0.44 189.02,0.46 197.24,0.49 205.46,0.51 213.68,0.53 221.89,0.56 230.11,0.58 238.33,0.60 246.55,0.62 254.76,0.63 262.98,0.63 271.20,0.61 279.42,0.59 287.63,0.57 295.85,0.55 304.07,0.53 312.29,0.51 320.50,0.49 328.72,0.48 336.94,0.46 345.15,0.44 353.37,0.42 361.59,0.40 369.81,0.38 378.02,0.36 386.24,0.34 394.46,0.32 402.68,0.30 410.89,0.28 419.11,0.27 427.33,0.25 435.55,0.23 443.76,0.21 451.98,0.19 460.20,0.17 468.41,0.15 476.63,0.13 484.85,0.11 493.07,0.09 501.31,0.08 509.55,0.07 513.67,1.93 517.80,3.80 518.94,10.57 520.08,17.34 520.29,25.12 520.50,32.91 520.53,40.95 520.57,48.98 520.55,57.09 520.54,65.19 520.51,73.32 520.49,81.44 520.46,89.57 520.43,97.69 520.40,105.82 520.37,113.95 520.35,122.08 520.32,130.21 520.29,138.34 520.26,146.47 520.23,154.60 520.20,162.72 520.17,170.85 520.14,178.98 520.11,187.11 520.09,195.24 520.06,203.37 520.03,211.50 520.02,219.63 520.02,227.76 520.04,235.89 520.06,244.01 520.07,254.93 520.09,265.84 520.06,266.02 520.03,266.19 519.95,266.36 519.86,266.52 519.73,266.64 519.60,266.76 519.44,266.84 519.27,266.92 519.09,266.94 518.91,266.96 518.73,266.92 518.56,266.88 518.40,266.78 518.25,266.69 518.13,266.55 518.01,266.41 517.94,266.25 517.88,266.08 517.87,265.90 517.86,265.71 517.91,265.54 517.96,265.37 518.06,265.22 518.16,265.07 518.30,264.96 518.45,264.85 518.62,264.79 518.79,264.73 518.97,264.73 519.15,264.73 519.33,264.79 519.50,264.85 519.64,264.96 519.79,265.07 519.89,265.22 519.99,265.37 520.04,265.54 520.09,265.72 520.08,265.90 520.07,266.08 520.00,266.25 519.93,266.41 519.81,266.55 519.70,266.69 519.54,266.78 519.39,266.88 519.21,266.92 519.03,266.96 518.85,266.94 518.67,266.92 518.51,266.84 518.34,266.76 518.21,266.64 518.08,266.51 517.99,266.35 517.91,266.19 517.88,266.01 517.85,265.84 517.85,265.84 517.85,265.84 517.88,254.92 517.91,244.01 517.94,235.88 517.97,227.75 517.98,219.63 517.98,211.50 517.96,203.37 517.94,195.24 517.92,187.11 517.90,178.98 517.88,170.85 517.86,162.72 517.85,154.59 517.83,146.46 517.81,138.34 517.79,130.21 517.77,122.08 517.75,113.95 517.73,105.82 517.71,97.69 517.69,89.56 517.67,81.44 517.65,73.32 517.62,65.20 517.59,57.10 517.55,49.00 517.48,41.00 517.40,33.00 517.15,25.39 516.91,17.78 516.23,11.68 515.55,5.58 512.50,4.46 509.45,3.35 501.26,3.33 493.07,3.31 484.85,3.29 476.63,3.26 468.41,3.24 460.20,3.22 451.98,3.20 443.76,3.17 435.54,3.15 427.33,3.13 419.11,3.10 410.89,3.08 402.68,3.06 394.46,3.04 386.24,3.01 378.02,2.99 369.81,2.97 361.59,2.94 353.37,2.92 345.15,2.90 336.94,2.88 328.72,2.85 320.50,2.83 312.28,2.81 304.07,2.78 295.85,2.76 287.63,2.74 279.42,2.72 271.20,2.69 262.98,2.67 254.76,2.67 246.55,2.67 238.33,2.69 230.11,2.70 221.89,2.72 213.68,2.74 205.46,2.76 197.24,2.78 189.02,2.80 180.81,2.82 172.59,2.84 164.37,2.86 156.16,2.88 147.94,2.89 139.72,2.91 131.50,2.93 123.29,2.95 115.07,2.97 106.85,2.99 98.64,3.01 90.42,3.03 82.20,3.05 74.00,3.07 65.79,3.10 57.60,3.13 49.42,3.16 41.33,3.24 33.24,3.32 25.55,3.56 17.86,3.81 11.69,4.48 5.52,5.15 4.40,8.18 3.29,11.20 3.27,19.30 3.24,27.40 3.21,35.52 3.19,43.64 3.16,51.76 3.13,59.88 3.10,68.01 3.07,76.13 3.04,84.25 3.02,92.37 2.99,100.50 2.96,108.62 2.93,116.74 2.90,124.86 2.87,132.99 2.85,141.11 2.82,149.23 2.79,157.35 2.76,165.48 2.73,173.60 2.71,181.72 2.68,189.84 2.65,197.97 2.62,206.09 2.59,214.21 2.56,222.33 2.56,230.46 2.56,238.58 2.58,246.70 2.60,254.82 2.62,262.95 2.64,271.07 2.66,279.19 2.68,287.31 2.70,295.43 2.71,303.56 2.73,311.68 2.75,319.80 2.77,327.92 2.79,336.05 2.81,344.17 2.84,352.29 2.86,360.41 2.88,368.53 2.90,376.65 2.92,384.76 2.96,392.85 2.99,400.94 3.07,408.93 3.15,416.93 3.40,424.53 3.64,432.13 4.32,438.23 5.00,444.33 8.05,445.45 11.10,446.56 19.29,446.59 27.49,446.61 35.70,446.64 43.92,446.67 52.14,446.70 60.35,446.73 68.57,446.76 76.79,446.78 85.00,446.81 93.22,446.84 101.44,446.87 109.65,446.90 117.87,446.93 126.09,446.96 134.30,446.98 142.52,447.01 150.74,447.04 158.95,447.07 167.17,447.10 175.39,447.13 183.60,447.16 191.82,447.19 200.04,447.21 208.25,447.24 216.47,447.27 224.69,447.30 232.90,447.33 241.12,447.36 249.34,447.39 257.56,447.41 265.77,447.42 273.99,447.43 282.21,447.42 290.42,447.40 298.64,447.39 306.86,447.38 315.07,447.36 323.29,447.35 331.51,447.34 339.72,447.32 347.94,447.31 356.16,447.30 364.37,447.28 372.59,447.27 380.81,447.26 389.02,447.24 397.24,447.23 405.46,447.22 413.67,447.20 421.89,447.19 430.10,447.18 438.32,447.16 446.53,447.14 454.74,447.13 462.92,447.10 471.10,447.07 479.19,447.00 487.28,446.93 494.97,446.69 502.66,446.45 508.83,445.78 515.00,445.11 516.11,442.09 517.23,439.06 517.25,430.96 517.28,422.85 517.31,414.72 517.33,406.59 517.36,398.46 517.39,390.34 517.42,382.21 517.45,374.08 517.48,365.95 517.51,357.82 517.54,349.69 517.57,341.56 517.59,333.43 517.62,325.30 517.65,317.17 517.68,309.05 517.71,300.92 517.74,292.79 517.77,284.66 517.80,276.53 517.83,268.40 517.85,260.27 517.88,252.14 517.91,244.01 517.94,235.88 517.97,227.76 517.98,219.63 517.98,211.50 517.96,203.37 517.94,195.24 517.92,187.11 517.90,178.98 517.88,170.86 517.86,162.73 517.85,154.61 517.83,146.49 517.81,138.39 517.79,130.30 517.77,122.30 517.75,114.31 517.73,106.71 517.71,99.11 517.69,93.05 517.67,87.00 517.69,86.83 517.71,86.66 517.77,86.50 517.83,86.34 517.93,86.20 518.02,86.06 518.15,85.95 518.28,85.84 518.43,85.76 518.58,85.68 518.74,85.64 518.91,85.60 519.08,85.60 519.25,85.60 519.41,85.64 519.58,85.68 519.73,85.76 519.88,85.84 520.01,85.95 520.13,86.06 520.23,86.20 520.33,86.34 520.39,86.50 520.45,86.66 520.47,86.83 Z" fill="#cecece" stroke="#cecece" stroke-width="2" pointer-events="none"/></g><g id="44050360-ae63-4468-087d-004f9e4ab337_svg" class="tl-centered-g" transform="translate(93.70, 156.86) rotate(0.00, 247.59, 29.25)"><path d="M 406.12,59.58 Q 406.12,59.58 399.91,59.56 393.69,59.53 385.89,59.50 378.09,59.47 369.88,59.44 361.67,59.41 353.36,59.38 345.06,59.35 336.72,59.32 328.38,59.29 320.04,59.26 311.70,59.23 303.36,59.20 295.01,59.17 286.67,59.14 278.32,59.11 269.98,59.08 261.63,59.05 253.29,59.04 244.94,59.03 236.60,59.05 228.25,59.06 219.91,59.08 211.57,59.09 203.22,59.11 194.88,59.12 186.53,59.14 178.19,59.15 169.84,59.17 161.50,59.18 153.15,59.20 144.81,59.21 136.46,59.23 128.12,59.24 119.77,59.26 111.43,59.27 103.08,59.29 94.74,59.30 86.39,59.32 78.05,59.33 69.71,59.34 61.36,59.36 53.02,59.37 44.67,59.39 36.33,59.40 27.98,59.42 19.61,59.43 11.25,59.44 7.17,57.70 3.09,55.97 1.94,52.62 0.78,49.28 0.59,45.75 0.40,42.22 0.41,38.72 0.42,35.22 0.39,31.73 0.35,28.24 0.24,24.75 0.12,21.26 0.00,17.76 -0.10,14.27 -0.19,10.71 -0.29,7.15 1.54,4.24 3.38,1.33 10.36,0.52 17.35,-0.29 25.31,-0.43 33.28,-0.56 41.54,-0.58 49.79,-0.60 58.12,-0.59 66.45,-0.58 74.80,-0.56 83.15,-0.54 91.50,-0.52 99.86,-0.50 108.21,-0.47 116.57,-0.45 124.93,-0.43 133.28,-0.41 141.64,-0.39 150.00,-0.37 158.35,-0.34 166.71,-0.32 175.07,-0.30 183.42,-0.28 191.78,-0.26 200.13,-0.24 208.49,-0.21 216.85,-0.19 225.20,-0.17 233.56,-0.15 241.92,-0.15 250.27,-0.15 258.63,-0.17 266.99,-0.20 275.34,-0.22 283.70,-0.24 292.06,-0.27 300.41,-0.29 308.77,-0.31 317.13,-0.33 325.48,-0.36 333.84,-0.38 342.19,-0.40 350.55,-0.43 358.91,-0.45 367.26,-0.47 375.62,-0.50 383.98,-0.52 392.33,-0.54 400.69,-0.57 409.05,-0.59 417.40,-0.61 425.76,-0.63 434.12,-0.66 442.47,-0.68 450.83,-0.70 459.18,-0.73 467.54,-0.75 475.92,-0.77 484.30,-0.79 488.39,0.95 492.48,2.69 493.59,6.06 494.70,9.43 494.85,12.99 494.99,16.55 494.93,20.08 494.87,23.61 494.86,27.14 494.85,30.66 494.91,34.19 494.98,37.72 495.05,41.25 495.11,44.78 495.16,48.37 495.20,51.96 493.35,54.87 491.50,57.78 484.52,58.59 477.55,59.41 469.59,59.53 461.63,59.66 453.39,59.67 445.14,59.68 436.83,59.66 428.51,59.64 420.17,59.62 411.83,59.59 403.49,59.56 395.15,59.53 386.80,59.50 378.46,59.47 370.11,59.44 361.77,59.41 353.42,59.38 345.08,59.35 336.73,59.32 328.39,59.29 320.05,59.26 311.70,59.23 303.36,59.20 295.01,59.17 286.67,59.14 278.32,59.11 269.98,59.08 261.63,59.05 253.29,59.04 244.94,59.03 236.60,59.05 228.25,59.06 217.05,59.08 205.85,59.09 205.68,59.06 205.50,59.03 205.34,58.94 205.18,58.86 205.06,58.73 204.93,58.60 204.86,58.44 204.78,58.27 204.76,58.09 204.74,57.91 204.78,57.74 204.82,57.56 204.91,57.41 205.01,57.26 205.14,57.14 205.28,57.02 205.45,56.96 205.62,56.89 205.80,56.88 205.97,56.87 206.15,56.92 206.32,56.97 206.47,57.07 206.62,57.17 206.73,57.31 206.84,57.46 206.89,57.63 206.95,57.80 206.95,57.98 206.95,58.16 206.89,58.33 206.84,58.50 206.73,58.64 206.62,58.78 206.47,58.88 206.32,58.99 206.15,59.03 205.97,59.08 205.79,59.07 205.61,59.06 205.45,58.99 205.28,58.93 205.14,58.81 205.01,58.69 204.91,58.54 204.82,58.39 204.78,58.21 204.74,58.03 204.76,57.86 204.78,57.68 204.86,57.51 204.93,57.35 205.06,57.22 205.18,57.09 205.34,57.01 205.50,56.92 205.68,56.89 205.85,56.86 205.85,56.86 205.85,56.86 217.06,56.90 228.26,56.93 236.60,56.96 244.95,56.99 253.29,57.00 261.63,57.00 269.98,56.99 278.32,56.97 286.67,56.96 295.01,56.95 303.36,56.93 311.70,56.92 320.05,56.90 328.39,56.89 336.74,56.87 345.08,56.86 353.43,56.84 361.77,56.83 370.12,56.81 378.46,56.80 386.80,56.78 395.15,56.77 403.49,56.75 411.83,56.74 420.17,56.72 428.51,56.70 436.82,56.68 445.13,56.65 453.35,56.60 461.57,56.54 469.41,56.38 477.25,56.21 483.47,55.81 489.69,55.42 490.83,53.55 491.98,51.68 492.08,48.22 492.18,44.75 492.30,41.23 492.43,37.70 492.54,34.18 492.66,30.65 492.67,27.14 492.69,23.63 492.56,20.17 492.44,16.71 492.17,13.48 491.90,10.25 491.21,7.61 490.52,4.96 487.36,3.72 484.21,2.49 475.87,2.47 467.54,2.45 459.19,2.43 450.83,2.41 442.47,2.39 434.12,2.36 425.76,2.34 417.40,2.32 409.05,2.30 400.69,2.28 392.33,2.25 383.98,2.23 375.62,2.21 367.26,2.19 358.91,2.17 350.55,2.15 342.19,2.12 333.84,2.10 325.48,2.08 317.13,2.06 308.77,2.04 300.41,2.02 292.06,1.99 283.70,1.97 275.34,1.95 266.99,1.93 258.63,1.91 250.27,1.88 241.92,1.89 233.56,1.89 225.20,1.91 216.85,1.93 208.49,1.96 200.14,1.98 191.78,2.00 183.42,2.02 175.07,2.05 166.71,2.07 158.35,2.09 150.00,2.12 141.64,2.14 133.28,2.16 124.93,2.19 116.57,2.21 108.21,2.23 99.86,2.26 91.50,2.28 83.15,2.30 74.80,2.33 66.45,2.35 58.13,2.39 49.80,2.42 41.57,2.48 33.34,2.55 25.49,2.72 17.64,2.89 11.41,3.29 5.19,3.69 4.06,5.54 2.93,7.40 2.87,10.83 2.82,14.25 2.75,17.74 2.68,21.24 2.61,24.73 2.54,28.22 2.57,31.70 2.61,35.17 2.78,38.60 2.95,42.02 3.27,45.22 3.58,48.42 4.30,51.04 5.03,53.66 8.18,54.91 11.34,56.16 19.66,56.18 27.99,56.21 36.33,56.24 44.67,56.27 53.02,56.30 61.36,56.33 69.71,56.36 78.05,56.39 86.40,56.42 94.74,56.45 103.09,56.48 111.43,56.51 119.78,56.54 128.12,56.57 136.47,56.60 144.81,56.63 153.15,56.66 161.50,56.69 169.84,56.72 178.19,56.75 186.53,56.78 194.88,56.81 203.22,56.84 211.57,56.87 219.91,56.90 228.26,56.93 236.60,56.96 244.95,56.99 253.29,57.00 261.63,57.00 269.98,56.99 278.32,56.97 286.67,56.96 295.01,56.95 303.36,56.93 311.70,56.92 320.04,56.90 328.39,56.89 336.72,56.87 345.06,56.86 353.37,56.84 361.68,56.83 369.88,56.81 378.09,56.80 385.89,56.78 393.69,56.77 399.91,56.75 406.13,56.73 406.30,56.75 406.47,56.77 406.63,56.84 406.79,56.90 406.93,56.99 407.07,57.09 407.19,57.22 407.30,57.35 407.38,57.50 407.46,57.65 407.50,57.82 407.54,57.99 407.54,58.16 407.54,58.33 407.50,58.50 407.46,58.67 407.38,58.82 407.30,58.97 407.18,59.10 407.07,59.23 406.93,59.32 406.79,59.42 406.63,59.48 406.47,59.54 406.29,59.56 Z" fill="#cecece" stroke="#cecece" stroke-width="2" pointer-events="none"/></g><g text-align="left" text-anchor="start" fill="#cecece" transform="translate(103.62, 159.43) rotate(0.00, 55.00, 24.50)"><text y="14" letter-spacing="-0.84" font-size="28px" font-family="Caveat Brush" text-align="left" alignment-baseline="central" transform="scale(1.3841856952170655)">site.com</text></g><g id="31ddc19f-55db-44f9-1e84-d4aaf9d71970_svg" class="tl-centered-g" transform="translate(102.64, 231.95) rotate(0.00, 237.96, 1.43)"><defs><mask id="31ddc19f-55db-44f9-1e84-d4aaf9d71970_clip"><rect x="-100" y="-100" width="675.92" height="202.86" fill="white"/><rect x="237.96" y="1.43" width="0" height="0" rx="4" ry="4" fill="black" opacity="1"/></mask></defs><g pointer-events="none" opacity="1" mask=""><path d="M -0.00,1.94 Q -0.00,1.94 59.48,1.62 118.97,1.30 178.46,0.97 237.95,0.64 297.44,0.30 356.93,-0.02 416.42,-0.37 475.91,-0.71 476.02,-0.69 476.14,-0.67 476.24,-0.62 476.34,-0.57 476.42,-0.48 476.50,-0.40 476.55,-0.29 476.60,-0.19 476.62,-0.08 476.63,0.03 476.60,0.14 476.58,0.26 476.52,0.35 476.46,0.45 476.37,0.53 476.29,0.61 476.18,0.65 476.07,0.69 475.96,0.70 475.84,0.71 475.73,0.68 475.62,0.65 475.52,0.58 475.43,0.52 475.36,0.43 475.29,0.33 475.25,0.22 475.21,0.11 475.21,0.00 475.21,-0.11 475.25,-0.22 475.28,-0.33 475.35,-0.42 475.42,-0.51 475.52,-0.58 475.61,-0.64 475.72,-0.67 475.83,-0.70 475.95,-0.70 476.06,-0.69 476.17,-0.65 476.28,-0.61 476.37,-0.54 476.46,-0.46 476.52,-0.36 476.58,-0.26 476.60,-0.15 476.63,-0.04 476.62,0.07 476.60,0.18 476.56,0.29 476.51,0.39 476.43,0.48 476.35,0.56 476.25,0.62 476.15,0.67 476.03,0.69 475.92,0.71 475.92,0.71 475.92,0.71 416.43,1.08 356.94,1.45 297.45,1.83 237.96,2.21 178.47,2.60 118.98,2.98 59.49,3.38 0.00,3.77 -0.10,3.76 -0.21,3.75 -0.31,3.71 -0.42,3.67 -0.51,3.61 -0.60,3.54 -0.67,3.46 -0.75,3.38 -0.80,3.28 -0.85,3.18 -0.88,3.08 -0.90,2.97 -0.90,2.86 -0.90,2.75 -0.88,2.64 -0.85,2.54 -0.80,2.44 -0.75,2.34 -0.68,2.26 -0.61,2.17 -0.52,2.11 -0.43,2.05 -0.32,2.01 -0.22,1.97 -0.11,1.95 Z" fill="#cecece" stroke="#cecece" stroke-width="2.11" stroke-dasharray="none" stroke-dashoffset="none" stroke-linecap="round" stroke-linejoin="round" pointer-events="stroke"/></g></g><g id="72a88195-52eb-40e0-1825-a55dcf5861df_svg" class="tl-centered-g" transform="translate(292.39, 255.28) rotate(0.00, 37.30, 34.35)"><path d="M 71.01,42.22 Q 71.01,42.22 68.63,46.87 66.26,51.52 63.39,54.44 60.52,57.36 55.94,59.97 51.36,62.59 45.12,63.88 38.87,65.18 31.73,64.13 24.59,63.08 18.07,59.12 11.55,55.15 7.54,48.59 3.54,42.04 3.55,34.29 3.57,26.54 7.95,19.68 12.33,12.82 19.93,8.77 27.53,4.72 36.19,4.47 44.84,4.22 52.26,7.45 59.68,10.69 64.35,16.11 69.01,21.54 70.58,27.56 72.15,33.58 71.23,38.92 70.31,44.27 67.98,48.28 65.65,52.30 62.98,54.92 60.30,57.53 58.08,59.00" stroke="none" fill="#345246" pointer-events="none"/><path d="M 71.01,42.22 Q 71.01,42.22 69.65,47.41 68.28,52.59 65.21,55.78 62.13,58.97 57.26,61.71 52.38,64.44 45.81,65.80 39.24,67.15 31.74,66.06 24.25,64.97 17.38,60.83 10.50,56.68 6.22,49.77 1.94,42.85 1.88,34.62 1.82,26.39 6.36,19.09 10.91,11.78 18.85,7.47 26.79,3.15 35.83,2.82 44.86,2.49 52.65,5.81 60.44,9.14 65.40,14.81 70.37,20.48 72.10,26.85 73.83,33.21 72.91,38.90 71.99,44.60 69.47,48.83 66.94,53.07 63.96,55.65 60.98,58.23 58.42,59.36 55.85,60.48 55.85,60.48 55.85,60.48 55.84,60.47 55.84,60.47 57.73,58.65 59.63,56.84 61.99,54.19 64.36,51.54 66.49,47.74 68.62,43.94 69.55,38.95 70.47,33.95 69.07,28.28 67.66,22.60 63.29,17.42 58.92,12.24 51.87,9.10 44.82,5.96 36.55,6.13 28.28,6.30 21.01,10.08 13.74,13.85 9.53,20.28 5.33,26.70 5.23,33.96 5.14,41.22 8.87,47.42 12.59,53.62 18.76,57.40 24.92,61.19 31.71,62.20 38.50,63.20 44.42,61.97 50.34,60.73 54.63,58.24 58.92,55.75 61.58,53.10 64.24,50.46 67.62,46.33 Z" fill="#36a64c" stroke="#36a64c" stroke-width="3.5" pointer-events="none" stroke-linecap="round" stroke-linejoin="round"/></g><g id="0fa32367-f6fd-4116-245a-4b177d865e44_svg" class="tl-centered-g" transform="translate(231.44, 362.83) rotate(0.00, 32.61, 31.59)"><path d="M 52.07,5.71 Q 52.07,5.71 56.70,9.03 61.34,12.35 63.41,16.37 65.49,20.38 66.40,25.84 67.32,31.31 66.07,37.70 64.82,44.08 60.62,50.13 56.42,56.19 49.36,60.15 42.30,64.11 33.68,64.36 25.06,64.62 17.14,60.55 9.22,56.47 4.40,48.92 -0.40,41.37 -0.66,32.53 -0.92,23.68 3.23,16.10 7.39,8.52 14.38,4.07 21.38,-0.38 29.07,-1.18 36.75,-1.98 43.35,0.18 49.94,2.35 54.55,6.17 59.15,10.00 61.63,14.23 64.12,18.47 64.94,22.10 65.77,25.73 65.58,28.20 65.40,30.66 65.39,30.67 65.39,30.67 65.38,30.67 65.38,30.67 64.70,28.45 64.03,26.24 62.83,23.10 61.63,19.96 59.26,16.27 56.90,12.58 52.83,9.07 48.76,5.57 42.85,3.51 36.95,1.44 30.00,2.02 23.05,2.61 16.66,6.49 10.27,10.37 6.38,17.12 2.50,23.86 2.57,31.81 2.63,39.77 6.84,46.64 11.05,53.52 18.12,57.31 25.20,61.11 32.97,61.00 40.75,60.89 47.14,57.43 53.54,53.96 57.36,48.59 61.18,43.23 62.33,37.54 63.48,31.86 62.66,27.01 61.84,22.15 60.13,18.64 58.41,15.12 55.23,10.43 Z" fill="#cecece" stroke="#cecece" stroke-width="3.5" pointer-events="none" stroke-linecap="round" stroke-linejoin="round"/></g><g id="d2beb661-ff60-4e46-1408-53beff735e67_svg" class="tl-centered-g" transform="translate(355.12, 360.89) rotate(0.00, 38.36, 35.45)"><path d="M 74.37,46.83 Q 74.37,46.83 71.87,50.93 69.37,55.03 66.66,57.65 63.94,60.27 59.74,62.76 55.54,65.25 49.80,66.83 44.07,68.41 37.23,68.23 30.38,68.06 23.46,65.45 16.53,62.85 10.99,57.69 5.45,52.53 2.82,45.46 0.19,38.40 1.45,30.81 2.71,23.22 7.83,16.86 12.95,10.49 20.80,6.84 28.65,3.20 37.35,2.99 46.05,2.79 53.68,5.77 61.31,8.75 66.51,13.89 71.71,19.03 74.02,24.99 76.33,30.96 76.10,36.59 75.88,42.22 73.95,46.80 72.02,51.37 69.34,54.64 66.67,57.92 64.04,60.00 61.41,62.08 59.38,63.24" stroke="none" fill="#345246" pointer-events="none"/><path d="M 74.38,46.84 Q 74.38,46.84 72.71,51.45 71.04,56.07 68.24,58.96 65.44,61.85 61.01,64.44 56.57,67.02 50.57,68.67 44.56,70.31 37.43,70.13 30.30,69.94 23.07,67.25 15.84,64.55 10.00,59.17 4.17,53.78 1.34,46.34 -1.48,38.90 -0.23,30.86 1.01,22.83 6.33,16.08 11.65,9.34 19.81,5.47 27.97,1.60 37.02,1.33 46.06,1.06 54.02,4.11 61.98,7.17 67.47,12.51 72.96,17.85 75.45,24.12 77.95,30.39 77.77,36.36 77.59,42.33 75.58,47.19 73.56,52.04 70.66,55.43 67.76,58.83 64.86,60.79 61.95,62.76 59.66,63.59 57.37,64.41 57.36,64.40 57.36,64.40 57.36,64.39 57.36,64.39 59.11,62.89 60.87,61.40 63.22,59.20 65.57,57.01 68.03,53.86 70.49,50.70 72.33,46.41 74.16,42.12 74.44,36.82 74.71,31.53 72.58,25.86 70.46,20.20 65.54,15.27 60.63,10.33 53.33,7.42 46.04,4.52 37.68,4.66 29.33,4.79 21.79,8.22 14.26,11.64 9.33,17.63 4.41,23.62 3.14,30.76 1.88,37.90 4.31,44.59 6.74,51.28 11.98,56.21 17.23,61.15 23.85,63.66 30.47,66.17 37.02,66.34 43.57,66.52 49.04,65.00 54.51,63.47 58.47,61.08 62.44,58.69 65.07,56.34 67.70,53.99 71.03,50.41 Z" fill="#36a64c" stroke="#36a64c" stroke-width="3.5" pointer-events="none" stroke-linecap="round" stroke-linejoin="round"/></g><g id="c82bf294-8f4f-48b9-3268-d6967a63c2e7_svg" class="tl-centered-g" transform="translate(162.49, 460.02) rotate(0.00, 30.65, 33.88)"><path d="M 64.01,30.52 Q 64.01,30.52 64.77,36.28 65.53,42.05 63.83,46.38 62.14,50.72 58.60,55.21 55.06,59.70 49.34,63.24 43.63,66.79 36.13,67.95 28.63,69.11 20.70,66.68 12.77,64.26 6.52,58.03 0.28,51.80 -2.16,42.96 -4.60,34.12 -2.16,25.09 0.28,16.06 7.02,9.56 13.77,3.06 22.71,0.93 31.65,-1.20 40.13,1.24 48.60,3.69 54.54,9.45 60.47,15.22 63.02,22.33 65.58,29.45 65.14,36.13 64.70,42.82 62.36,48.01 60.01,53.21 56.88,56.57 53.76,59.92 50.89,61.65 48.02,63.38 46.04,63.94 44.07,64.50 44.07,64.50 44.06,64.50 44.06,64.49 44.06,64.49 45.58,63.28 47.09,62.08 49.40,60.09 51.71,58.10 54.33,54.93 56.96,51.77 59.12,47.13 61.28,42.49 61.79,36.48 62.29,30.47 60.12,24.01 57.94,17.55 52.69,12.23 47.43,6.92 39.82,4.56 32.20,2.19 24.08,3.96 15.96,5.74 9.76,11.49 3.56,17.24 1.21,25.35 -1.14,33.45 0.92,41.45 2.99,49.45 8.52,55.13 14.05,60.81 21.14,63.07 28.23,65.33 34.94,64.34 41.65,63.36 46.74,60.21 51.82,57.06 54.91,53.05 58.00,49.05 59.43,45.35 60.87,41.66 62.43,36.09 Z" fill="#cecece" stroke="#cecece" stroke-width="3.5" pointer-events="none" stroke-linecap="round" stroke-linejoin="round"/></g><g id="ed4727c6-b96a-4fcb-0e6f-3d49cfd6e37b_svg" class="tl-centered-g" transform="translate(429.04, 457.08) rotate(0.00, 30.65, 33.88)"><path d="M 33.78,3.11 Q 33.78,3.11 39.73,4.10 45.68,5.08 49.38,8.45 53.08,11.82 56.00,17.34 58.91,22.85 59.64,30.21 60.36,37.57 57.64,45.25 54.92,52.94 48.56,58.48 42.20,64.02 33.73,65.01 25.27,66.00 17.58,61.63 9.88,57.25 5.74,49.00 1.59,40.76 2.18,31.67 2.76,22.59 7.31,15.60 11.85,8.61 18.34,5.24 24.83,1.88 31.17,2.00 37.51,2.12 42.36,4.51 47.20,6.90 50.07,10.12 52.94,13.34 54.06,16.13 55.18,18.93 55.18,18.93 55.18,18.93 55.17,18.93 55.17,18.94 53.30,16.88 51.42,14.83 48.57,12.30 45.72,9.76 41.50,7.66 37.27,5.55 31.73,5.29 26.19,5.02 20.38,7.86 14.58,10.69 10.38,16.88 6.18,23.07 5.49,31.26 4.81,39.45 8.36,46.94 11.91,54.43 18.61,58.47 25.31,62.51 32.74,61.80 40.17,61.09 45.85,56.28 51.53,51.47 54.03,44.62 56.53,37.78 55.92,31.20 55.31,24.63 52.74,19.77 50.16,14.90 47.08,12.10 43.99,9.30 38.88,6.22 Z" fill="#cecece" stroke="#cecece" stroke-width="3.5" pointer-events="none" stroke-linecap="round" stroke-linejoin="round"/></g><g id="124149ce-21c3-40af-0123-a118338decd5_svg" class="tl-centered-g" transform="translate(288.91, 459.06) rotate(0.00, 38.64, 29.99)"><path d="M 11.24,50.02 Q 11.24,50.02 8.46,45.86 5.67,41.69 4.59,38.15 3.51,34.61 3.51,30.02 3.50,25.44 5.40,20.31 7.31,15.17 11.67,10.44 16.03,5.71 22.73,2.65 29.44,-0.41 37.49,-0.65 45.54,-0.88 53.15,2.24 60.77,5.37 65.98,11.40 71.20,17.43 72.62,24.92 74.04,32.42 71.42,39.51 68.80,46.60 63.09,51.66 57.38,56.73 50.23,58.98 43.08,61.23 36.16,60.79 29.24,60.35 23.68,58.02 18.13,55.69 14.35,52.48 10.57,49.27 8.40,46.07 6.24,42.87 5.22,40.28 4.20,37.68 3.84,36.01" stroke="none" fill="#345246" pointer-events="none"/><path d="M 11.23,50.03 Q 11.23,50.03 7.52,46.47 3.81,42.91 2.53,39.09 1.26,35.26 1.29,30.33 1.33,25.39 3.37,19.90 5.41,14.41 10.02,9.38 14.63,4.35 21.67,1.10 28.71,-2.15 37.13,-2.43 45.55,-2.72 53.54,0.51 61.53,3.74 67.06,10.06 72.60,16.37 74.18,24.30 75.76,32.23 73.08,39.76 70.39,47.29 64.44,52.68 58.48,58.07 51.02,60.48 43.56,62.89 36.33,62.48 29.10,62.07 23.27,59.67 17.44,57.27 13.46,53.89 9.49,50.51 7.30,47.07 5.10,43.63 4.30,40.79 3.49,37.96 3.48,36.15 3.46,34.35 3.46,34.35 3.47,34.34 3.47,34.34 3.48,34.34 4.20,35.87 4.92,37.40 6.14,39.76 7.37,42.11 9.50,45.07 11.64,48.03 15.23,51.07 18.82,54.11 24.10,56.37 29.38,58.63 35.99,59.10 42.60,59.56 49.44,57.48 56.28,55.39 61.75,50.65 67.21,45.91 69.76,39.26 72.31,32.62 71.05,25.55 69.79,18.48 64.90,12.74 60.00,6.99 52.76,3.96 45.52,0.94 37.85,1.13 30.17,1.32 23.80,4.20 17.42,7.08 13.31,11.51 9.20,15.94 7.44,20.71 5.67,25.48 5.72,29.72 5.77,33.95 6.65,37.22 7.54,40.48 9.39,45.25 Z" fill="#36a64c" stroke="#36a64c" stroke-width="3.5" pointer-events="none" stroke-linecap="round" stroke-linejoin="round"/></g><g id="51e348e5-95de-4516-393e-d8e23a175934_svg" class="tl-centered-g" transform="translate(281.00, 319.40) rotate(0.00, 15.04, 24.02)"><defs><mask id="51e348e5-95de-4516-393e-d8e23a175934_clip"><rect x="-100" y="-100" width="230.07" height="248.04" fill="white"/><rect x="15.03" y="24.02" width="0" height="0" rx="2" ry="2" fill="black" opacity="1"/></mask></defs><g pointer-events="none" opacity="1" mask=""><path d="M 30.91,0.52 Q 30.91,0.52 27.12,6.51 23.34,12.50 19.56,18.49 15.78,24.48 12.01,30.48 8.23,36.48 4.46,42.47 0.69,48.47 0.61,48.57 0.52,48.67 0.40,48.74 0.29,48.81 0.16,48.83 0.03,48.86 -0.10,48.84 -0.23,48.83 -0.35,48.77 -0.47,48.71 -0.56,48.62 -0.66,48.52 -0.72,48.40 -0.78,48.28 -0.80,48.15 -0.82,48.02 -0.80,47.89 -0.77,47.76 -0.71,47.64 -0.64,47.52 -0.54,47.43 -0.45,47.34 -0.32,47.29 -0.20,47.24 -0.07,47.22 0.05,47.21 0.18,47.24 0.31,47.27 0.43,47.35 0.54,47.42 0.62,47.52 0.71,47.62 0.76,47.75 0.80,47.87 0.81,48.01 0.81,48.14 0.78,48.27 0.74,48.39 0.66,48.50 0.58,48.61 0.48,48.69 0.37,48.77 0.24,48.81 0.11,48.85 -0.01,48.85 -0.14,48.85 -0.27,48.80 -0.39,48.76 -0.50,48.67 -0.60,48.59 -0.68,48.48 -0.75,48.37 -0.78,48.24 -0.82,48.11 -0.81,47.98 -0.80,47.84 -0.75,47.72 -0.69,47.60 -0.69,47.60 -0.69,47.60 3.04,41.59 6.79,35.57 10.54,29.56 14.28,23.55 18.02,17.53 21.76,11.51 25.49,5.49 29.22,-0.52 29.30,-0.62 29.37,-0.71 29.47,-0.78 29.56,-0.85 29.67,-0.90 29.78,-0.95 29.90,-0.97 30.02,-0.99 30.14,-0.98 30.26,-0.97 30.37,-0.93 30.49,-0.90 30.59,-0.83 30.69,-0.77 30.77,-0.68 30.86,-0.60 30.92,-0.49 30.98,-0.39 31.01,-0.27 31.05,-0.16 31.05,-0.04 31.06,0.07 31.03,0.19 31.01,0.31 30.96,0.41 Z" fill="#cecece" stroke="#cecece" stroke-width="2.11" stroke-dasharray="none" stroke-dashoffset="none" stroke-linecap="round" stroke-linejoin="round" pointer-events="stroke"/></g></g><g id="a53f5447-b858-45a7-311b-77688eb79a35_svg" class="tl-centered-g" transform="translate(347.95, 319.59) rotate(0.00, 13.84, 22.69)"><defs><mask id="a53f5447-b858-45a7-311b-77688eb79a35_clip"><rect x="-100" y="-100" width="227.67" height="245.38" fill="white"/><rect x="13.83" y="22.69" width="0" height="0" rx="2" ry="2" fill="black" opacity="1"/></mask></defs><g pointer-events="none" opacity="1" mask=""><path d="M 0.74,-0.45 Q 0.74,-0.45 4.17,5.23 7.59,10.92 11.03,16.61 14.46,22.30 17.90,27.98 21.34,33.67 24.79,39.35 28.23,45.03 28.27,45.13 28.31,45.23 28.32,45.34 28.32,45.44 28.30,45.55 28.27,45.65 28.21,45.74 28.15,45.83 28.06,45.89 27.98,45.96 27.88,45.99 27.78,46.03 27.67,46.03 27.56,46.03 27.46,46.00 27.36,45.96 27.27,45.90 27.19,45.83 27.13,45.74 27.07,45.66 27.04,45.55 27.01,45.45 27.01,45.34 27.02,45.24 27.06,45.14 27.10,45.04 27.16,44.95 27.23,44.87 27.32,44.82 27.42,44.76 27.52,44.74 27.63,44.71 27.73,44.72 27.84,44.74 27.94,44.78 28.03,44.82 28.11,44.90 28.19,44.97 28.24,45.07 28.29,45.16 28.31,45.27 28.33,45.37 28.31,45.48 28.29,45.58 28.24,45.68 28.19,45.77 28.12,45.85 28.04,45.92 27.94,45.97 27.85,46.01 27.74,46.02 27.63,46.04 27.53,46.01 27.42,45.99 27.33,45.94 27.24,45.88 27.17,45.80 27.10,45.72 27.10,45.72 27.10,45.72 23.63,40.06 20.15,34.39 16.68,28.73 13.20,23.07 9.72,17.41 6.23,11.76 2.74,6.10 -0.74,0.45 -0.79,0.36 -0.83,0.26 -0.85,0.16 -0.87,0.05 -0.87,-0.04 -0.86,-0.15 -0.83,-0.25 -0.80,-0.35 -0.74,-0.44 -0.69,-0.53 -0.61,-0.61 -0.54,-0.68 -0.45,-0.74 -0.36,-0.79 -0.26,-0.83 -0.16,-0.86 -0.05,-0.86 0.04,-0.87 0.15,-0.85 0.25,-0.83 0.35,-0.79 0.45,-0.75 0.53,-0.68 0.61,-0.62 0.68,-0.54 Z" fill="#36a64c" stroke="#36a64c" stroke-width="2.11" stroke-dasharray="none" stroke-dashoffset="none" stroke-linecap="round" stroke-linejoin="round" pointer-events="stroke"/></g></g><g id="6f2fde05-e58b-4246-23ca-9c0d47e9ba86_svg" class="tl-centered-g" transform="translate(212.49, 420.51) rotate(0.00, 16.59, 23.56)"><defs><mask id="6f2fde05-e58b-4246-23ca-9c0d47e9ba86_clip"><rect x="-100" y="-100" width="233.18" height="247.12" fill="white"/><rect x="16.59" y="23.56" width="0" height="0" rx="2" ry="2" fill="black" opacity="1"/></mask></defs><g pointer-events="none" opacity="1" mask=""><path d="M 33.87,0.49 Q 33.87,0.49 29.69,6.35 25.51,12.22 21.34,18.09 17.16,23.96 13.00,29.84 8.83,35.72 4.67,41.60 0.51,47.48 0.44,47.55 0.37,47.62 0.28,47.67 0.18,47.71 0.08,47.73 -0.01,47.74 -0.11,47.72 -0.21,47.71 -0.29,47.66 -0.38,47.61 -0.45,47.53 -0.52,47.46 -0.56,47.36 -0.60,47.27 -0.61,47.17 -0.62,47.07 -0.60,46.97 -0.57,46.87 -0.52,46.79 -0.47,46.70 -0.39,46.64 -0.31,46.57 -0.21,46.54 -0.12,46.50 -0.02,46.50 0.07,46.49 0.17,46.52 0.27,46.55 0.35,46.61 0.43,46.67 0.49,46.75 0.55,46.83 0.58,46.93 0.62,47.02 0.61,47.13 0.61,47.23 0.58,47.32 0.54,47.42 0.48,47.50 0.42,47.58 0.33,47.63 0.25,47.69 0.15,47.71 0.05,47.74 -0.04,47.73 -0.14,47.72 -0.23,47.69 -0.33,47.65 -0.40,47.58 -0.48,47.51 -0.53,47.42 -0.58,47.34 -0.60,47.24 -0.62,47.14 -0.61,47.04 -0.60,46.94 -0.55,46.85 -0.51,46.75 -0.51,46.75 -0.51,46.75 3.62,40.85 7.75,34.95 11.88,29.05 16.01,23.15 20.13,17.24 24.25,11.33 28.36,5.42 32.48,-0.49 32.55,-0.56 32.62,-0.64 32.70,-0.70 32.79,-0.75 32.88,-0.79 32.98,-0.82 33.08,-0.84 33.18,-0.85 33.28,-0.83 33.39,-0.82 33.48,-0.78 33.58,-0.75 33.66,-0.69 33.75,-0.63 33.81,-0.55 33.88,-0.47 33.93,-0.38 33.98,-0.29 34.00,-0.19 34.02,-0.09 34.02,0.00 34.02,0.11 34.00,0.21 33.97,0.30 33.92,0.40 Z" fill="#cecece" stroke="#cecece" stroke-width="2.11" stroke-dasharray="none" stroke-dashoffset="none" stroke-linecap="round" stroke-linejoin="round" pointer-events="stroke"/></g></g><g id="60741afd-ee81-42eb-20d0-e88fd21bf14b_svg" class="tl-centered-g" transform="translate(345.08, 425.69) rotate(0.00, 13.44, 18.32)"><defs><mask id="60741afd-ee81-42eb-20d0-e88fd21bf14b_clip"><rect x="-100" y="-100" width="226.88" height="236.63" fill="white"/><rect x="13.44" y="18.31" width="0" height="0" rx="2" ry="2" fill="black" opacity="1"/></mask></defs><g pointer-events="none" opacity="1" mask=""><path d="M 27.65,0.56 Q 27.65,0.56 24.26,5.12 20.88,9.68 17.49,14.24 14.11,18.81 10.74,23.38 7.36,27.94 3.99,32.51 0.62,37.09 0.53,37.17 0.44,37.26 0.33,37.32 0.22,37.37 0.09,37.39 -0.02,37.40 -0.15,37.38 -0.27,37.35 -0.38,37.29 -0.49,37.23 -0.57,37.13 -0.65,37.04 -0.70,36.92 -0.75,36.80 -0.76,36.68 -0.77,36.55 -0.74,36.43 -0.71,36.31 -0.64,36.20 -0.57,36.10 -0.47,36.02 -0.37,35.94 -0.25,35.90 -0.13,35.86 -0.01,35.86 0.11,35.86 0.23,35.89 0.35,35.93 0.45,36.01 0.55,36.08 0.62,36.18 0.70,36.29 0.73,36.41 0.77,36.53 0.76,36.65 0.76,36.78 0.71,36.90 0.67,37.01 0.59,37.11 0.51,37.21 0.40,37.28 0.29,37.34 0.17,37.37 0.05,37.40 -0.07,37.39 -0.19,37.38 -0.31,37.33 -0.42,37.28 -0.51,37.19 -0.61,37.11 -0.67,37.00 -0.73,36.89 -0.75,36.76 -0.77,36.64 -0.75,36.51 -0.74,36.39 -0.68,36.28 -0.62,36.16 -0.62,36.16 -0.62,36.16 2.72,31.58 6.07,26.99 9.41,22.40 12.76,17.81 16.10,13.22 19.43,8.62 22.77,4.03 26.10,-0.56 26.18,-0.65 26.26,-0.73 26.36,-0.80 26.45,-0.86 26.56,-0.90 26.67,-0.93 26.79,-0.95 26.90,-0.96 27.02,-0.94 27.13,-0.92 27.24,-0.88 27.35,-0.83 27.44,-0.76 27.53,-0.70 27.61,-0.61 27.68,-0.52 27.73,-0.41 27.78,-0.31 27.81,-0.20 27.83,-0.08 27.83,0.02 27.83,0.14 27.79,0.25 27.76,0.36 27.71,0.46 Z" fill="#36a64c" stroke="#36a64c" stroke-width="2.11" stroke-dasharray="none" stroke-dashoffset="none" stroke-linecap="round" stroke-linejoin="round" pointer-events="stroke"/></g></g><g id="eec48b46-e777-4571-24c3-aef939cfdd00_svg" class="tl-centered-g" transform="translate(416.46, 424.74) rotate(0.00, 14.60, 18.05)"><defs><mask id="eec48b46-e777-4571-24c3-aef939cfdd00_clip"><rect x="-100" y="-100" width="229.2" height="236.1" fill="white"/><rect x="14.6" y="18.05" width="0" height="0" rx="2" ry="2" fill="black" opacity="1"/></mask></defs><g pointer-events="none" opacity="1" mask=""><path d="M 0.77,-0.62 Q 0.77,-0.62 4.40,3.90 8.02,8.43 11.66,12.96 15.29,17.48 18.92,22.01 22.56,26.53 26.20,31.05 29.84,35.57 29.91,35.69 29.97,35.81 30.00,35.94 30.03,36.07 30.01,36.20 29.99,36.34 29.93,36.46 29.87,36.58 29.78,36.67 29.68,36.77 29.56,36.83 29.44,36.89 29.31,36.91 29.17,36.93 29.04,36.90 28.91,36.88 28.79,36.81 28.68,36.74 28.59,36.64 28.50,36.54 28.44,36.42 28.39,36.30 28.38,36.16 28.37,36.03 28.40,35.90 28.43,35.77 28.50,35.66 28.57,35.54 28.68,35.46 28.78,35.37 28.91,35.33 29.04,35.28 29.17,35.28 29.30,35.27 29.43,35.31 29.56,35.35 29.67,35.43 29.78,35.51 29.86,35.61 29.94,35.72 29.98,35.85 30.02,35.98 30.01,36.11 30.01,36.25 29.97,36.38 29.92,36.50 29.84,36.61 29.75,36.71 29.64,36.78 29.53,36.86 29.40,36.89 29.26,36.92 29.13,36.91 29.00,36.90 28.87,36.85 28.75,36.80 28.65,36.71 28.55,36.62 28.55,36.62 28.55,36.62 24.89,32.11 21.23,27.61 17.57,23.11 13.90,18.61 10.23,14.11 6.57,9.61 2.89,5.12 -0.77,0.62 -0.84,0.52 -0.90,0.42 -0.94,0.30 -0.98,0.19 -0.98,0.07 -0.99,-0.04 -0.97,-0.16 -0.95,-0.28 -0.91,-0.39 -0.86,-0.50 -0.79,-0.59 -0.71,-0.69 -0.62,-0.77 -0.53,-0.84 -0.42,-0.89 -0.31,-0.94 -0.19,-0.97 -0.07,-0.99 0.04,-0.99 0.16,-0.98 0.28,-0.95 0.39,-0.91 0.50,-0.85 0.60,-0.79 0.69,-0.71 Z" fill="#cecece" stroke="#cecece" stroke-width="2.11" stroke-dasharray="none" stroke-dashoffset="none" stroke-linecap="round" stroke-linejoin="round" pointer-events="stroke"/></g></g></svg>