<svg xmlns="http://www.w3.org/2000/svg" viewBox="0 0 1504 688" width="1472" height="656" style="background-color: transparent;"><defs><style>@import url('https://fonts.googleapis.com/css2?family=Caveat+Brush&amp;family=Source+Code+Pro&amp;family=Source+Sans+Pro&amp;family=Crimson+Pro&amp;display=block');</style></defs><g id="7b46dbcf-8147-4efc-01a3-2a49d8bb646d_svg" class="tl-centered-g" transform="translate(16.00, 16.00) rotate(0.00, 736.00, 328.00)"><g pointer-events="none" stroke="transparent" stroke-width="4.23" stroke-linecap="round"><line x1="2.11" y1="2.11" x2="1469.88" y2="2.11" stroke-dasharray="0.03 6.46" stroke-dashoffset="0"/><line x1="1469.88" y1="2.11" x2="1469.88" y2="653.88" stroke-dasharray="0.03 6.48" stroke-dashoffset="0"/><line x1="1469.88" y1="653.88" x2="2.11" y2="653.88" stroke-dasharray="0.03 6.46" stroke-dashoffset="0"/><line x1="2.11" y1="653.88" x2="2.11" y2="2.11" stroke-dasharray="0.03 6.48" stroke-dashoffset="0"/></g></g><g text-align="center" text-anchor="middle" fill="#ebbb38" transform="translate(1120.65, 171.05) rotate(0.00, 130.00, 107.50)"><text y="48" letter-spacing="-2.88" font-size="96px" font-family="Caveat Brush" text-align="center" alignment-baseline="central" transform="scale(1.0651668988699499)" x="122.04">Best of </text><text y="144" letter-spacing="-2.88" font-size="96px" font-family="Caveat Brush" text-align="center" alignment-baseline="central" transform="scale(1.0651668988699499)" x="122.04">Both?</text></g><g id="0efa0f21-53b4-4130-32fe-f3faaa8b4834_svg" class="tl-centered-g" transform="translate(399.38, 284.16) rotate(0.00, 94.62, 0.50)"><defs><mask id="0efa0f21-53b4-4130-32fe-f3faaa8b4834_clip"><rect x="-100" y="-100" width="389.23" height="201" fill="white"/><rect x="94.61" y="0.13" width="0" height="0" rx="4" ry="4" fill="black" opacity="1"/></mask></defs><g pointer-events="none" opacity="1" mask=""><path d="M 0.00,-0.99 Q 0.00,-0.99 23.40,-0.92 46.81,-0.86 70.21,-0.80 93.62,-0.75 117.02,-0.70 140.42,-0.65 163.83,-0.61 187.23,-0.56 187.36,-0.54 187.50,-0.52 187.61,-0.46 187.73,-0.40 187.82,-0.30 187.91,-0.20 187.97,-0.08 188.02,0.03 188.04,0.16 188.05,0.29 188.02,0.42 187.99,0.55 187.92,0.66 187.86,0.78 187.76,0.86 187.65,0.95 187.53,1.00 187.41,1.04 187.28,1.05 187.14,1.06 187.02,1.02 186.89,0.99 186.78,0.91 186.67,0.84 186.59,0.73 186.51,0.63 186.47,0.50 186.43,0.38 186.43,0.24 186.43,0.11 186.47,-0.00 186.51,-0.13 186.59,-0.23 186.67,-0.34 186.78,-0.41 186.89,-0.49 187.02,-0.52 187.15,-0.56 187.28,-0.55 187.41,-0.54 187.53,-0.49 187.66,-0.45 187.76,-0.36 187.86,-0.27 187.93,-0.16 187.99,-0.05 188.02,0.07 188.05,0.20 188.04,0.33 188.02,0.47 187.97,0.59 187.91,0.71 187.82,0.80 187.73,0.90 187.61,0.96 187.49,1.02 187.36,1.04 187.23,1.06 187.23,1.06 187.23,1.06 163.83,1.05 140.42,1.03 117.02,1.01 93.61,1.00 70.21,0.99 46.80,0.98 23.40,0.99 -0.00,0.99 -0.11,0.97 -0.23,0.96 -0.35,0.91 -0.46,0.87 -0.55,0.80 -0.65,0.74 -0.73,0.65 -0.81,0.56 -0.87,0.45 -0.92,0.35 -0.95,0.23 -0.98,0.11 -0.98,-0.00 -0.98,-0.12 -0.95,-0.23 -0.92,-0.35 -0.87,-0.45 -0.81,-0.56 -0.73,-0.65 -0.65,-0.74 -0.55,-0.81 -0.45,-0.87 -0.34,-0.92 -0.23,-0.96 -0.11,-0.97 Z" fill="#cecece" stroke="#cecece" stroke-width="2.11" stroke-dasharray="none" stroke-dashoffset="none" stroke-linecap="round" stroke-linejoin="round" pointer-events="stroke"/><g><path d="M 175.39,-7.765635120413631 L 189.23,0.2528736432839963 175.37,8.23435059463077" fill="none" stroke="#cecece" stroke-width="4.23" stroke-linecap="round" stroke-linejoin="round" pointer-events="none"/></g></g></g><g id="d65e598a-5ef4-44bc-37b0-17fd76346cd6_svg" class="tl-centered-g" transform="translate(850.75, 282.47) rotate(0.00, 129.14, 0.65)"><defs><mask id="d65e598a-5ef4-44bc-37b0-17fd76346cd6_clip"><rect x="-100" y="-100" width="458.27" height="201.29" fill="white"/><rect x="129.13" y="0.64" width="0" height="0" rx="4" ry="4" fill="black" opacity="1"/></mask></defs><g pointer-events="none" opacity="1" mask=""><path d="M 0.00,-0.93 Q 0.00,-0.93 32.03,-0.73 64.07,-0.53 96.10,-0.35 128.14,-0.16 160.17,0.01 192.21,0.19 224.24,0.37 256.28,0.54 256.39,0.56 256.51,0.58 256.62,0.64 256.72,0.70 256.80,0.78 256.89,0.87 256.93,0.98 256.98,1.09 257.00,1.21 257.01,1.32 256.98,1.44 256.96,1.56 256.89,1.66 256.83,1.76 256.74,1.84 256.65,1.91 256.54,1.96 256.43,2.00 256.31,2.01 256.19,2.01 256.07,1.98 255.96,1.95 255.86,1.88 255.76,1.81 255.69,1.72 255.62,1.62 255.58,1.51 255.54,1.40 255.55,1.28 255.55,1.16 255.58,1.05 255.62,0.93 255.70,0.84 255.77,0.74 255.87,0.68 255.97,0.61 256.08,0.58 256.20,0.55 256.32,0.55 256.44,0.56 256.55,0.61 256.66,0.65 256.75,0.73 256.84,0.81 256.90,0.91 256.96,1.01 256.98,1.13 257.01,1.24 257.00,1.36 256.98,1.48 256.93,1.59 256.88,1.70 256.80,1.78 256.72,1.87 256.61,1.93 256.50,1.98 256.39,2.00 256.27,2.02 256.27,2.02 256.27,2.02 224.23,1.87 192.20,1.73 160.16,1.59 128.13,1.44 96.10,1.31 64.06,1.18 32.03,1.05 -0.00,0.93 -0.11,0.91 -0.22,0.90 -0.33,0.86 -0.43,0.82 -0.52,0.75 -0.62,0.69 -0.69,0.61 -0.76,0.52 -0.82,0.42 -0.87,0.32 -0.89,0.21 -0.92,0.10 -0.92,-0.00 -0.92,-0.11 -0.89,-0.22 -0.86,-0.33 -0.81,-0.43 -0.76,-0.53 -0.68,-0.61 -0.61,-0.70 -0.52,-0.76 -0.42,-0.82 -0.32,-0.86 -0.21,-0.90 -0.10,-0.91 Z" fill="#cecece" stroke="#cecece" stroke-width="2.11" stroke-dasharray="none" stroke-dashoffset="none" stroke-linecap="round" stroke-linejoin="round" pointer-events="stroke"/><g><path d="M 244.46,-6.773449144226952 L 258.27,1.2959774218304811 244.38,9.226349436084636" fill="none" stroke="#cecece" stroke-width="4.23" stroke-linecap="round" stroke-linejoin="round" pointer-events="none"/></g></g></g><g text-align="center" text-anchor="middle" fill="#ebbb38" transform="translate(119.92, 344.65) rotate(0.00, 147.00, 26.50)"><text y="14" letter-spacing="-0.84" font-size="28px" font-family="Caveat Brush" text-align="center" alignment-baseline="central" transform="scale(1.5473618973839462)" x="95.00">aka "Dynamic Sites"</text></g><g text-align="center" text-anchor="middle" fill="#cecece" transform="translate(134.46, 186.82) rotate(0.00, 104.00, 70.00)"><text y="48" letter-spacing="-2.88" font-size="96px" font-family="Caveat Brush" text-align="center" alignment-baseline="central" transform="scale(1.3577142015322219)" x="76.59">MPA</text></g><g text-align="center" text-anchor="middle" fill="#cecece" transform="translate(627.87, 192.77) rotate(0.00, 88.00, 70.00)"><text y="48" letter-spacing="-2.88" font-size="96px" font-family="Caveat Brush" text-align="center" alignment-baseline="central" transform="scale(1.3577142015322219)" x="64.81">SPA</text></g><g text-align="center" text-anchor="middle" fill="#cecece" transform="translate(582.52, 346.60) rotate(0.00, 136.00, 24.00)"><text y="14" letter-spacing="-0.84" font-size="28px" font-family="Caveat Brush" text-align="center" alignment-baseline="central" transform="scale(1.3577142015322219)" x="100.16">Client Side Rendering</text></g><g text-align="left" text-anchor="start" fill="#ebbb38" transform="translate(1153.26, 371.95) rotate(0.00, 91.50, 35.50)"><text y="14" letter-spacing="-0.84" font-size="28px" font-family="Caveat Brush" text-align="left" alignment-baseline="central" transform="scale(2.1614335260115625)">"Hybrid"</text></g></svg>