<svg xmlns="http://www.w3.org/2000/svg" viewBox="0 0 1504 688" width="1472" height="656" style="background-color: transparent;"><defs><style>@import url('https://fonts.googleapis.com/css2?family=Caveat+Brush&amp;family=Source+Code+Pro&amp;family=Source+Sans+Pro&amp;family=Crimson+Pro&amp;display=block');</style></defs><g id="c286159d-3cd8-4d6d-2ca8-8004c36d8abf_svg" class="tl-centered-g" transform="translate(16.00, 16.00) rotate(0.00, 736.00, 328.00)"><g pointer-events="none" stroke="transparent" stroke-width="4.23" stroke-linecap="round"><line x1="2.11" y1="2.11" x2="1469.88" y2="2.11" stroke-dasharray="0.03 6.46" stroke-dashoffset="0"/><line x1="1469.88" y1="2.11" x2="1469.88" y2="653.88" stroke-dasharray="0.03 6.48" stroke-dashoffset="0"/><line x1="1469.88" y1="653.88" x2="2.11" y2="653.88" stroke-dasharray="0.03 6.46" stroke-dashoffset="0"/><line x1="2.11" y1="653.88" x2="2.11" y2="2.11" stroke-dasharray="0.03 6.48" stroke-dashoffset="0"/></g></g><g id="f52a5e6c-4c6b-42ab-27ac-01a9ccb145db_svg" class="tl-centered-g" transform="translate(714.62, 96.54) rotate(0.00, 24.68, 235.26)"><g opacity="1"><path d="M 22.26,0.21 Q 22.26,0.21 21.15,0.48 20.04,0.75 18.93,1.31 17.81,1.88 16.66,2.70 15.50,3.51 14.24,4.50 12.97,5.50 11.78,6.54 10.58,7.59 9.58,8.56 8.58,9.53 7.67,10.50 6.76,11.48 5.95,12.44 5.13,13.40 4.49,14.26 3.85,15.13 3.40,15.93 2.95,16.73 2.66,17.57 2.37,18.41 2.21,19.37 2.04,20.32 1.95,21.02 1.86,21.72 1.88,22.51 1.91,23.29 2.13,24.08 2.35,24.87 2.81,25.68 3.27,26.49 3.92,27.38 4.57,28.26 5.38,29.20 6.19,30.14 7.12,31.11 8.06,32.08 9.05,33.01 10.04,33.94 11.22,34.88 12.39,35.81 13.71,36.72 15.03,37.62 16.27,38.42 17.51,39.22 18.61,39.89 19.71,40.55 20.73,41.13 21.74,41.72 22.70,42.30 23.66,42.88 24.56,43.46 25.46,44.05 26.30,44.62 27.15,45.20 27.93,45.78 28.70,46.35 29.40,46.94 30.09,47.53 30.70,48.17 31.31,48.80 31.82,49.46 32.32,50.13 32.72,50.81 33.12,51.49 33.44,52.24 33.76,53.00 34.00,53.90 34.23,54.80 34.37,55.82 34.51,56.83 34.58,57.85 34.66,58.87 34.58,59.88 34.50,60.89 34.06,62.00 33.62,63.11 32.81,64.36 32.00,65.60 30.99,66.88 29.99,68.16 28.81,69.54 27.63,70.92 25.97,72.70 24.31,74.48 23.12,75.77 21.93,77.07 20.75,78.35 19.57,79.63 18.61,80.72 17.64,81.81 16.84,82.77 16.04,83.74 15.29,84.73 14.54,85.73 13.91,86.72 13.27,87.71 12.74,88.66 12.21,89.60 11.81,90.46 11.42,91.33 11.16,92.19 10.91,93.05 10.76,93.89 10.62,94.73 10.55,95.57 10.47,96.41 10.48,97.25 10.49,98.09 10.70,98.85 10.92,99.60 11.43,100.28 11.94,100.96 12.78,101.65 13.62,102.34 14.76,103.04 15.90,103.75 17.23,104.45 18.55,105.14 20.03,105.86 21.50,106.59 23.08,107.32 24.66,108.05 26.12,108.69 27.57,109.34 28.82,109.89 30.06,110.43 31.23,110.98 32.40,111.53 33.50,112.11 34.60,112.69 35.56,113.24 36.51,113.78 37.27,114.31 38.03,114.84 38.60,115.45 39.17,116.05 39.58,116.73 39.98,117.41 40.23,118.14 40.47,118.88 40.61,119.70 40.74,120.53 40.63,121.46 40.51,122.38 39.95,123.49 39.38,124.60 38.32,125.91 37.25,127.23 35.21,129.19 33.18,131.16 31.62,132.58 30.07,133.99 27.85,135.84 25.63,137.68 23.95,139.05 22.28,140.42 20.71,141.67 19.15,142.92 17.58,144.18 16.00,145.44 14.35,146.81 12.70,148.18 11.43,149.33 10.16,150.48 8.96,151.62 7.76,152.76 6.61,153.93 5.46,155.10 4.65,156.13 3.84,157.16 3.21,158.16 2.59,159.17 2.11,160.13 1.63,161.10 1.29,162.04 0.94,162.98 0.73,163.86 0.52,164.74 0.40,165.52 0.28,166.29 0.22,167.04 0.16,167.79 0.18,168.56 0.20,169.34 0.43,170.06 0.65,170.79 1.15,171.45 1.65,172.12 2.43,172.80 3.22,173.48 4.24,174.23 5.26,174.99 6.45,175.78 7.65,176.58 8.99,177.42 10.34,178.26 11.82,179.20 13.30,180.14 14.81,181.21 16.33,182.27 17.77,183.43 19.22,184.59 20.62,185.95 22.03,187.31 23.31,188.83 24.59,190.34 25.61,191.87 26.64,193.40 27.42,194.95 28.20,196.50 28.77,198.09 29.33,199.69 29.80,201.94 30.27,204.19 30.53,205.83 30.79,207.48 30.94,209.27 31.08,211.05 31.03,212.92 30.97,214.78 30.63,216.61 30.28,218.45 29.68,220.30 29.07,222.14 28.33,223.92 27.58,225.70 26.90,227.16 26.22,228.62 25.49,229.93 24.77,231.24 24.01,232.54 23.25,233.84 22.63,234.93 22.00,236.02 21.52,236.89 21.03,237.77 20.69,238.48 20.35,239.18 20.14,239.78 19.93,240.37 19.82,240.87 19.71,241.36 19.76,241.81 19.81,242.26 20.25,242.73 20.70,243.21 21.58,243.73 22.47,244.24 23.74,244.80 25.02,245.36 26.65,245.95 28.29,246.55 29.98,247.12 31.68,247.70 33.24,248.23 34.80,248.75 36.27,249.28 37.74,249.81 39.14,250.35 40.54,250.89 41.81,251.45 43.08,252.01 44.10,252.57 45.13,253.13 45.91,253.62 46.69,254.11 47.25,254.48 47.81,254.85 48.15,255.08 48.50,255.31 48.69,255.47 48.89,255.63 48.97,255.84 49.06,256.06 48.99,256.53 48.93,257.01 48.64,257.82 48.35,258.63 47.86,259.72 47.36,260.81 46.65,262.09 45.95,263.37 45.07,264.79 44.19,266.21 43.18,267.79 42.17,269.37 40.96,271.13 39.75,272.89 38.41,274.73 37.08,276.57 35.76,278.32 34.45,280.06 33.18,281.66 31.90,283.27 30.69,284.78 29.48,286.29 28.62,287.36 27.75,288.43 26.78,289.63 25.80,290.83 25.16,291.66 24.52,292.50 24.03,293.26 23.54,294.02 23.20,294.69 22.87,295.37 22.65,295.99 22.43,296.62 22.31,297.22 22.19,297.82 22.13,298.41 22.06,299.00 22.19,299.55 22.33,300.10 22.75,300.68 23.16,301.25 23.72,301.88 24.29,302.50 24.99,303.14 25.69,303.79 26.43,304.42 27.17,305.05 27.82,305.68 28.48,306.31 29.08,306.97 29.68,307.62 30.20,308.32 30.73,309.01 31.17,309.81 31.61,310.61 31.93,311.54 32.24,312.48 32.43,313.57 32.62,314.66 32.53,316.08 32.44,317.50 31.79,319.34 31.15,321.19 29.88,323.41 28.62,325.62 26.83,328.12 25.04,330.63 23.08,333.11 21.12,335.59 19.18,337.93 17.23,340.26 15.44,342.40 13.65,344.54 12.09,346.43 10.53,348.31 9.16,349.96 7.79,351.60 6.67,352.97 5.55,354.35 4.70,355.50 3.86,356.65 3.32,357.68 2.78,358.71 2.47,359.65 2.17,360.59 2.19,361.44 2.22,362.30 2.73,363.02 3.24,363.74 4.30,364.51 5.36,365.28 6.69,365.96 8.03,366.65 9.72,367.35 11.40,368.06 13.28,368.84 15.16,369.61 16.94,370.34 18.73,371.07 20.33,371.77 21.93,372.46 23.43,373.13 24.93,373.80 26.34,374.51 27.74,375.22 28.98,376.02 30.21,376.83 31.10,377.66 31.99,378.50 32.52,379.41 33.06,380.32 33.33,381.39 33.61,382.47 33.60,383.77 33.60,385.07 33.19,386.62 32.78,388.16 32.07,389.76 31.36,391.36 30.58,392.83 29.81,394.30 29.01,395.72 28.21,397.13 27.41,398.54 26.61,399.95 25.91,401.27 25.22,402.59 24.66,403.87 24.10,405.15 23.68,406.43 23.27,407.71 23.01,408.90 22.76,410.09 22.67,411.17 22.59,412.25 22.77,413.24 22.96,414.23 23.48,415.18 24.00,416.13 24.77,417.03 25.54,417.93 26.40,418.70 27.26,419.48 28.09,420.13 28.93,420.78 29.70,421.34 30.48,421.91 31.23,422.48 31.99,423.05 32.66,423.76 33.33,424.48 33.74,425.05 34.14,425.62 34.40,426.28 34.66,426.94 34.80,427.75 34.94,428.56 34.85,429.62 34.77,430.69 34.34,431.91 33.91,433.13 33.35,434.32 32.79,435.51 32.20,436.69 31.60,437.86 30.92,439.13 30.23,440.40 29.54,441.67 28.86,442.94 28.31,444.07 27.75,445.20 27.33,446.19 26.91,447.19 26.64,448.19 26.36,449.19 26.21,450.25 26.05,451.32 25.97,452.39 25.88,453.47 25.84,454.55 25.79,455.63 25.76,456.72 25.74,457.80 25.75,458.87 25.75,459.94 25.82,461.03 25.89,462.11 26.00,463.16 26.12,464.21 26.25,465.13 26.38,466.05 26.52,466.80 26.65,467.56 26.77,468.15 26.88,468.74 27.04,469.63 27.21,470.53 27.21,470.53" fill="none" stroke="none" stroke-width="4" stroke-linejoin="round" stroke-linecap="round" pointer-events="none"/><path d="M 22.26,0.21 Q 22.26,0.21 21.15,0.48 20.04,0.75 18.93,1.31 17.81,1.88 16.66,2.70 15.50,3.51 14.24,4.50 12.97,5.50 11.78,6.54 10.58,7.59 9.58,8.56 8.58,9.53 7.67,10.50 6.76,11.48 5.95,12.44 5.13,13.40 4.49,14.26 3.85,15.13 3.40,15.93 2.95,16.73 2.66,17.57 2.37,18.41 2.21,19.37 2.04,20.32 1.95,21.02 1.86,21.72 1.88,22.51 1.91,23.29 2.13,24.08 2.35,24.87 2.81,25.68 3.27,26.49 3.92,27.38 4.57,28.26 5.38,29.20 6.19,30.14 7.12,31.11 8.06,32.08 9.05,33.01 10.04,33.94 11.22,34.88 12.39,35.81 13.71,36.72 15.03,37.62 16.27,38.42 17.51,39.22 18.61,39.89 19.71,40.55 20.73,41.13 21.74,41.72 22.70,42.30 23.66,42.88 24.56,43.46 25.46,44.05 26.30,44.62 27.15,45.20 27.93,45.78 28.70,46.35 29.40,46.94 30.09,47.53 30.70,48.17 31.31,48.80 31.82,49.46 32.32,50.13 32.72,50.81 33.12,51.49 33.44,52.24 33.76,53.00 34.00,53.90 34.23,54.80 34.37,55.82 34.51,56.83 34.58,57.85 34.66,58.87 34.58,59.88 34.50,60.89 34.06,62.00 33.62,63.11 32.81,64.36 32.00,65.60 30.99,66.88 29.99,68.16 28.81,69.54 27.63,70.92 25.97,72.70 24.31,74.48 23.12,75.77 21.93,77.07 20.75,78.35 19.57,79.63 18.61,80.72 17.64,81.81 16.84,82.77 16.04,83.74 15.29,84.73 14.54,85.73 13.91,86.72 13.27,87.71 12.74,88.66 12.21,89.60 11.81,90.46 11.42,91.33 11.16,92.19 10.91,93.05 10.76,93.89 10.62,94.73 10.55,95.57 10.47,96.41 10.48,97.25 10.49,98.09 10.70,98.85 10.92,99.60 11.43,100.28 11.94,100.96 12.78,101.65 13.62,102.34 14.76,103.04 15.90,103.75 17.23,104.45 18.55,105.14 20.03,105.86 21.50,106.59 23.08,107.32 24.66,108.05 26.12,108.69 27.57,109.34 28.82,109.89 30.06,110.43 31.23,110.98 32.40,111.53 33.50,112.11 34.60,112.69 35.56,113.24 36.51,113.78 37.27,114.31 38.03,114.84 38.60,115.45 39.17,116.05 39.58,116.73 39.98,117.41 40.23,118.14 40.47,118.88 40.61,119.70 40.74,120.53 40.63,121.46 40.51,122.38 39.95,123.49 39.38,124.60 38.32,125.91 37.25,127.23 35.21,129.19 33.18,131.16 31.62,132.58 30.07,133.99 27.85,135.84 25.63,137.68 23.95,139.05 22.28,140.42 20.71,141.67 19.15,142.92 17.58,144.18 16.00,145.44 14.35,146.81 12.70,148.18 11.43,149.33 10.16,150.48 8.96,151.62 7.76,152.76 6.61,153.93 5.46,155.10 4.65,156.13 3.84,157.16 3.21,158.16 2.59,159.17 2.11,160.13 1.63,161.10 1.29,162.04 0.94,162.98 0.73,163.86 0.52,164.74 0.40,165.52 0.28,166.29 0.22,167.04 0.16,167.79 0.18,168.56 0.20,169.34 0.43,170.06 0.65,170.79 1.15,171.45 1.65,172.12 2.43,172.80 3.22,173.48 4.24,174.23 5.26,174.99 6.45,175.78 7.65,176.58 8.99,177.42 10.34,178.26 11.82,179.20 13.30,180.14 14.81,181.21 16.33,182.27 17.77,183.43 19.22,184.59 20.62,185.95 22.03,187.31 23.31,188.83 24.59,190.34 25.61,191.87 26.64,193.40 27.42,194.95 28.20,196.50 28.77,198.09 29.33,199.69 29.80,201.94 30.27,204.19 30.53,205.83 30.79,207.48 30.94,209.27 31.08,211.05 31.03,212.92 30.97,214.78 30.63,216.61 30.28,218.45 29.68,220.30 29.07,222.14 28.33,223.92 27.58,225.70 26.90,227.16 26.22,228.62 25.49,229.93 24.77,231.24 24.01,232.54 23.25,233.84 22.63,234.93 22.00,236.02 21.52,236.89 21.03,237.77 20.69,238.48 20.35,239.18 20.14,239.78 19.93,240.37 19.82,240.87 19.71,241.36 19.76,241.81 19.81,242.26 20.25,242.73 20.70,243.21 21.58,243.73 22.47,244.24 23.74,244.80 25.02,245.36 26.65,245.95 28.29,246.55 29.98,247.12 31.68,247.70 33.24,248.23 34.80,248.75 36.27,249.28 37.74,249.81 39.14,250.35 40.54,250.89 41.81,251.45 43.08,252.01 44.10,252.57 45.13,253.13 45.91,253.62 46.69,254.11 47.25,254.48 47.81,254.85 48.15,255.08 48.50,255.31 48.69,255.47 48.89,255.63 48.97,255.84 49.06,256.06 48.99,256.53 48.93,257.01 48.64,257.82 48.35,258.63 47.86,259.72 47.36,260.81 46.65,262.09 45.95,263.37 45.07,264.79 44.19,266.21 43.18,267.79 42.17,269.37 40.96,271.13 39.75,272.89 38.41,274.73 37.08,276.57 35.76,278.32 34.45,280.06 33.18,281.66 31.90,283.27 30.69,284.78 29.48,286.29 28.62,287.36 27.75,288.43 26.78,289.63 25.80,290.83 25.16,291.66 24.52,292.50 24.03,293.26 23.54,294.02 23.20,294.69 22.87,295.37 22.65,295.99 22.43,296.62 22.31,297.22 22.19,297.82 22.13,298.41 22.06,299.00 22.19,299.55 22.33,300.10 22.75,300.68 23.16,301.25 23.72,301.88 24.29,302.50 24.99,303.14 25.69,303.79 26.43,304.42 27.17,305.05 27.82,305.68 28.48,306.31 29.08,306.97 29.68,307.62 30.20,308.32 30.73,309.01 31.17,309.81 31.61,310.61 31.93,311.54 32.24,312.48 32.43,313.57 32.62,314.66 32.53,316.08 32.44,317.50 31.79,319.34 31.15,321.19 29.88,323.41 28.62,325.62 26.83,328.12 25.04,330.63 23.08,333.11 21.12,335.59 19.18,337.93 17.23,340.26 15.44,342.40 13.65,344.54 12.09,346.43 10.53,348.31 9.16,349.96 7.79,351.60 6.67,352.97 5.55,354.35 4.70,355.50 3.86,356.65 3.32,357.68 2.78,358.71 2.47,359.65 2.17,360.59 2.19,361.44 2.22,362.30 2.73,363.02 3.24,363.74 4.30,364.51 5.36,365.28 6.69,365.96 8.03,366.65 9.72,367.35 11.40,368.06 13.28,368.84 15.16,369.61 16.94,370.34 18.73,371.07 20.33,371.77 21.93,372.46 23.43,373.13 24.93,373.80 26.34,374.51 27.74,375.22 28.98,376.02 30.21,376.83 31.10,377.66 31.99,378.50 32.52,379.41 33.06,380.32 33.33,381.39 33.61,382.47 33.60,383.77 33.60,385.07 33.19,386.62 32.78,388.16 32.07,389.76 31.36,391.36 30.58,392.83 29.81,394.30 29.01,395.72 28.21,397.13 27.41,398.54 26.61,399.95 25.91,401.27 25.22,402.59 24.66,403.87 24.10,405.15 23.68,406.43 23.27,407.71 23.01,408.90 22.76,410.09 22.67,411.17 22.59,412.25 22.77,413.24 22.96,414.23 23.48,415.18 24.00,416.13 24.77,417.03 25.54,417.93 26.40,418.70 27.26,419.48 28.09,420.13 28.93,420.78 29.70,421.34 30.48,421.91 31.23,422.48 31.99,423.05 32.66,423.76 33.33,424.48 33.74,425.05 34.14,425.62 34.40,426.28 34.66,426.94 34.80,427.75 34.94,428.56 34.85,429.62 34.77,430.69 34.34,431.91 33.91,433.13 33.35,434.32 32.79,435.51 32.20,436.69 31.60,437.86 30.92,439.13 30.23,440.40 29.54,441.67 28.86,442.94 28.31,444.07 27.75,445.20 27.33,446.19 26.91,447.19 26.64,448.19 26.36,449.19 26.21,450.25 26.05,451.32 25.97,452.39 25.88,453.47 25.84,454.55 25.79,455.63 25.76,456.72 25.74,457.80 25.75,458.87 25.75,459.94 25.82,461.03 25.89,462.11 26.00,463.16 26.12,464.21 26.25,465.13 26.38,466.05 26.52,466.80 26.65,467.56 26.77,468.15 26.88,468.74 27.04,469.63 27.21,470.53 27.21,470.53" fill="none" stroke="#717d8a" stroke-width="4" stroke-dasharray="0.1 8" stroke-dashoffset="0" stroke-linejoin="round" stroke-linecap="round" pointer-events="none"/></g></g><g text-align="left" text-anchor="start" fill="#cecece" transform="translate(262.87, 50.24) rotate(0.00, 75.00, 43.50)"><text y="14" letter-spacing="-0.84" font-size="28px" font-family="Caveat Brush" text-align="left" alignment-baseline="central" transform="scale(2.7536777269002877)">client</text></g><g id="3f210b50-00c9-40c3-301e-3f6510cd4967_svg" class="tl-centered-g" transform="translate(83.21, 144.79) rotate(0.00, 259.89, 224.72)"><path d="M 520.49,87.00 Q 520.49,87.00 520.46,93.05 520.43,99.11 520.40,106.71 520.37,114.31 520.35,122.31 520.32,130.30 520.29,138.39 520.26,146.49 520.23,154.61 520.20,162.73 520.17,170.86 520.14,178.98 520.11,187.11 520.09,195.24 520.06,203.37 520.03,211.50 520.02,219.63 520.02,227.76 520.04,235.89 520.06,244.01 520.08,252.14 520.10,260.27 520.11,268.40 520.13,276.53 520.15,284.66 520.17,292.79 520.19,300.92 520.21,309.05 520.23,317.18 520.25,325.30 520.27,333.43 520.29,341.56 520.31,349.69 520.33,357.82 520.35,365.95 520.37,374.08 520.38,382.21 520.40,390.34 520.42,398.47 520.44,406.60 520.46,414.72 520.48,422.85 520.50,431.01 520.51,439.16 518.64,443.26 516.77,447.36 509.94,448.50 503.10,449.63 495.24,449.85 487.37,450.06 479.25,450.09 471.12,450.12 462.93,450.10 454.74,450.09 446.53,450.07 438.32,450.04 430.10,450.01 421.89,449.99 413.67,449.96 405.45,449.93 397.24,449.90 389.02,449.87 380.80,449.84 372.59,449.82 364.37,449.79 356.15,449.76 347.94,449.73 339.72,449.70 331.50,449.67 323.29,449.64 315.07,449.61 306.85,449.59 298.64,449.56 290.42,449.53 282.20,449.50 273.99,449.47 265.77,449.46 257.55,449.46 249.34,449.47 241.12,449.48 232.90,449.50 224.69,449.51 216.47,449.52 208.25,449.54 200.04,449.55 191.82,449.56 183.60,449.58 175.39,449.59 167.17,449.60 158.95,449.62 150.73,449.63 142.52,449.64 134.30,449.66 126.08,449.67 117.87,449.68 109.65,449.70 101.43,449.71 93.22,449.72 85.00,449.74 76.78,449.75 68.57,449.76 60.35,449.78 52.13,449.79 43.92,449.80 35.70,449.82 27.48,449.83 19.24,449.84 11.00,449.85 6.88,447.98 2.76,446.11 1.61,439.35 0.47,432.58 0.26,424.80 0.05,417.02 0.02,408.99 -0.01,400.96 0.00,392.86 0.01,384.76 0.03,376.65 0.06,368.53 0.09,360.41 0.11,352.29 0.14,344.17 0.17,336.05 0.20,327.92 0.23,319.80 0.25,311.68 0.28,303.56 0.31,295.43 0.34,287.31 0.37,279.19 0.39,271.07 0.42,262.94 0.45,254.82 0.48,246.70 0.51,238.58 0.51,230.45 0.52,222.33 0.50,214.21 0.48,206.09 0.46,197.96 0.44,189.84 0.42,181.72 0.40,173.60 0.38,165.47 0.36,157.35 0.34,149.23 0.32,141.11 0.30,132.99 0.28,124.86 0.26,116.74 0.24,108.62 0.22,100.50 0.20,92.37 0.18,84.25 0.16,76.13 0.14,68.01 0.12,59.88 0.10,51.76 0.08,43.64 0.06,35.52 0.04,27.39 0.02,19.25 0.01,11.10 1.88,7.00 3.74,2.90 10.58,1.76 17.41,0.62 25.28,0.40 33.15,0.19 41.27,0.15 49.40,0.12 57.59,0.12 65.78,0.13 73.99,0.15 82.20,0.17 90.42,0.19 98.64,0.21 106.85,0.24 115.07,0.26 123.29,0.28 131.50,0.30 139.72,0.33 147.94,0.35 156.16,0.37 164.37,0.40 172.59,0.42 180.81,0.44 189.02,0.46 197.24,0.49 205.46,0.51 213.68,0.53 221.89,0.56 230.11,0.58 238.33,0.60 246.55,0.62 254.76,0.63 262.98,0.63 271.20,0.61 279.42,0.59 287.63,0.57 295.85,0.55 304.07,0.53 312.29,0.51 320.50,0.49 328.72,0.48 336.94,0.46 345.15,0.44 353.37,0.42 361.59,0.40 369.81,0.38 378.02,0.36 386.24,0.34 394.46,0.32 402.68,0.30 410.89,0.28 419.11,0.27 427.33,0.25 435.55,0.23 443.76,0.21 451.98,0.19 460.20,0.17 468.41,0.15 476.63,0.13 484.85,0.11 493.07,0.09 501.31,0.08 509.55,0.07 513.67,1.93 517.80,3.80 518.94,10.57 520.08,17.34 520.29,25.12 520.50,32.91 520.53,40.95 520.57,48.98 520.55,57.09 520.54,65.19 520.51,73.32 520.49,81.44 520.46,89.57 520.43,97.69 520.40,105.82 520.37,113.95 520.35,122.08 520.32,130.21 520.29,138.34 520.26,146.47 520.23,154.60 520.20,162.72 520.17,170.85 520.14,178.98 520.11,187.11 520.09,195.24 520.06,203.37 520.03,211.50 520.02,219.63 520.02,227.76 520.04,235.89 520.06,244.01 520.07,254.93 520.09,265.84 520.06,266.02 520.03,266.19 519.95,266.36 519.86,266.52 519.73,266.64 519.60,266.76 519.44,266.84 519.27,266.92 519.09,266.94 518.91,266.96 518.73,266.92 518.56,266.88 518.40,266.78 518.25,266.69 518.13,266.55 518.01,266.41 517.94,266.25 517.88,266.08 517.87,265.90 517.86,265.71 517.91,265.54 517.96,265.37 518.06,265.22 518.16,265.07 518.30,264.96 518.45,264.85 518.62,264.79 518.79,264.73 518.97,264.73 519.15,264.73 519.33,264.79 519.50,264.85 519.64,264.96 519.79,265.07 519.89,265.22 519.99,265.37 520.04,265.54 520.09,265.72 520.08,265.90 520.07,266.08 520.00,266.25 519.93,266.41 519.81,266.55 519.70,266.69 519.54,266.78 519.39,266.88 519.21,266.92 519.03,266.96 518.85,266.94 518.67,266.92 518.51,266.84 518.34,266.76 518.21,266.64 518.08,266.51 517.99,266.35 517.91,266.19 517.88,266.01 517.85,265.84 517.85,265.84 517.85,265.84 517.88,254.92 517.91,244.01 517.94,235.88 517.97,227.75 517.98,219.63 517.98,211.50 517.96,203.37 517.94,195.24 517.92,187.11 517.90,178.98 517.88,170.85 517.86,162.72 517.85,154.59 517.83,146.46 517.81,138.34 517.79,130.21 517.77,122.08 517.75,113.95 517.73,105.82 517.71,97.69 517.69,89.56 517.67,81.44 517.65,73.32 517.62,65.20 517.59,57.10 517.55,49.00 517.48,41.00 517.40,33.00 517.15,25.39 516.91,17.78 516.23,11.68 515.55,5.58 512.50,4.46 509.45,3.35 501.26,3.33 493.07,3.31 484.85,3.29 476.63,3.26 468.41,3.24 460.20,3.22 451.98,3.20 443.76,3.17 435.54,3.15 427.33,3.13 419.11,3.10 410.89,3.08 402.68,3.06 394.46,3.04 386.24,3.01 378.02,2.99 369.81,2.97 361.59,2.94 353.37,2.92 345.15,2.90 336.94,2.88 328.72,2.85 320.50,2.83 312.28,2.81 304.07,2.78 295.85,2.76 287.63,2.74 279.42,2.72 271.20,2.69 262.98,2.67 254.76,2.67 246.55,2.67 238.33,2.69 230.11,2.70 221.89,2.72 213.68,2.74 205.46,2.76 197.24,2.78 189.02,2.80 180.81,2.82 172.59,2.84 164.37,2.86 156.16,2.88 147.94,2.89 139.72,2.91 131.50,2.93 123.29,2.95 115.07,2.97 106.85,2.99 98.64,3.01 90.42,3.03 82.20,3.05 74.00,3.07 65.79,3.10 57.60,3.13 49.42,3.16 41.33,3.24 33.24,3.32 25.55,3.56 17.86,3.81 11.69,4.48 5.52,5.15 4.40,8.18 3.29,11.20 3.27,19.30 3.24,27.40 3.21,35.52 3.19,43.64 3.16,51.76 3.13,59.88 3.10,68.01 3.07,76.13 3.04,84.25 3.02,92.37 2.99,100.50 2.96,108.62 2.93,116.74 2.90,124.86 2.87,132.99 2.85,141.11 2.82,149.23 2.79,157.35 2.76,165.48 2.73,173.60 2.71,181.72 2.68,189.84 2.65,197.97 2.62,206.09 2.59,214.21 2.56,222.33 2.56,230.46 2.56,238.58 2.58,246.70 2.60,254.82 2.62,262.95 2.64,271.07 2.66,279.19 2.68,287.31 2.70,295.43 2.71,303.56 2.73,311.68 2.75,319.80 2.77,327.92 2.79,336.05 2.81,344.17 2.84,352.29 2.86,360.41 2.88,368.53 2.90,376.65 2.92,384.76 2.96,392.85 2.99,400.94 3.07,408.93 3.15,416.93 3.40,424.53 3.64,432.13 4.32,438.23 5.00,444.33 8.05,445.45 11.10,446.56 19.29,446.59 27.49,446.61 35.70,446.64 43.92,446.67 52.14,446.70 60.35,446.73 68.57,446.76 76.79,446.78 85.00,446.81 93.22,446.84 101.44,446.87 109.65,446.90 117.87,446.93 126.09,446.96 134.30,446.98 142.52,447.01 150.74,447.04 158.95,447.07 167.17,447.10 175.39,447.13 183.60,447.16 191.82,447.19 200.04,447.21 208.25,447.24 216.47,447.27 224.69,447.30 232.90,447.33 241.12,447.36 249.34,447.39 257.56,447.41 265.77,447.42 273.99,447.43 282.21,447.42 290.42,447.40 298.64,447.39 306.86,447.38 315.07,447.36 323.29,447.35 331.51,447.34 339.72,447.32 347.94,447.31 356.16,447.30 364.37,447.28 372.59,447.27 380.81,447.26 389.02,447.24 397.24,447.23 405.46,447.22 413.67,447.20 421.89,447.19 430.10,447.18 438.32,447.16 446.53,447.14 454.74,447.13 462.92,447.10 471.10,447.07 479.19,447.00 487.28,446.93 494.97,446.69 502.66,446.45 508.83,445.78 515.00,445.11 516.11,442.09 517.23,439.06 517.25,430.96 517.28,422.85 517.31,414.72 517.33,406.59 517.36,398.46 517.39,390.34 517.42,382.21 517.45,374.08 517.48,365.95 517.51,357.82 517.54,349.69 517.57,341.56 517.59,333.43 517.62,325.30 517.65,317.17 517.68,309.05 517.71,300.92 517.74,292.79 517.77,284.66 517.80,276.53 517.83,268.40 517.85,260.27 517.88,252.14 517.91,244.01 517.94,235.88 517.97,227.76 517.98,219.63 517.98,211.50 517.96,203.37 517.94,195.24 517.92,187.11 517.90,178.98 517.88,170.86 517.86,162.73 517.85,154.61 517.83,146.49 517.81,138.39 517.79,130.30 517.77,122.30 517.75,114.31 517.73,106.71 517.71,99.11 517.69,93.05 517.67,87.00 517.69,86.83 517.71,86.66 517.77,86.50 517.83,86.34 517.93,86.20 518.02,86.06 518.15,85.95 518.28,85.84 518.43,85.76 518.58,85.68 518.74,85.64 518.91,85.60 519.08,85.60 519.25,85.60 519.41,85.64 519.58,85.68 519.73,85.76 519.88,85.84 520.01,85.95 520.13,86.06 520.23,86.20 520.33,86.34 520.39,86.50 520.45,86.66 520.47,86.83 Z" fill="#cecece" stroke="#cecece" stroke-width="2" pointer-events="none"/></g><g id="44050360-ae63-4468-087d-004f9e4ab337_svg" class="tl-centered-g" transform="translate(93.70, 156.86) rotate(0.00, 247.59, 29.25)"><path d="M 406.12,59.58 Q 406.12,59.58 399.91,59.56 393.69,59.53 385.89,59.50 378.09,59.47 369.88,59.44 361.67,59.41 353.36,59.38 345.06,59.35 336.72,59.32 328.38,59.29 320.04,59.26 311.70,59.23 303.36,59.20 295.01,59.17 286.67,59.14 278.32,59.11 269.98,59.08 261.63,59.05 253.29,59.04 244.94,59.03 236.60,59.05 228.25,59.06 219.91,59.08 211.57,59.09 203.22,59.11 194.88,59.12 186.53,59.14 178.19,59.15 169.84,59.17 161.50,59.18 153.15,59.20 144.81,59.21 136.46,59.23 128.12,59.24 119.77,59.26 111.43,59.27 103.08,59.29 94.74,59.30 86.39,59.32 78.05,59.33 69.71,59.34 61.36,59.36 53.02,59.37 44.67,59.39 36.33,59.40 27.98,59.42 19.61,59.43 11.25,59.44 7.17,57.70 3.09,55.97 1.94,52.62 0.78,49.28 0.59,45.75 0.40,42.22 0.41,38.72 0.42,35.22 0.39,31.73 0.35,28.24 0.24,24.75 0.12,21.26 0.00,17.76 -0.10,14.27 -0.19,10.71 -0.29,7.15 1.54,4.24 3.38,1.33 10.36,0.52 17.35,-0.29 25.31,-0.43 33.28,-0.56 41.54,-0.58 49.79,-0.60 58.12,-0.59 66.45,-0.58 74.80,-0.56 83.15,-0.54 91.50,-0.52 99.86,-0.50 108.21,-0.47 116.57,-0.45 124.93,-0.43 133.28,-0.41 141.64,-0.39 150.00,-0.37 158.35,-0.34 166.71,-0.32 175.07,-0.30 183.42,-0.28 191.78,-0.26 200.13,-0.24 208.49,-0.21 216.85,-0.19 225.20,-0.17 233.56,-0.15 241.92,-0.15 250.27,-0.15 258.63,-0.17 266.99,-0.20 275.34,-0.22 283.70,-0.24 292.06,-0.27 300.41,-0.29 308.77,-0.31 317.13,-0.33 325.48,-0.36 333.84,-0.38 342.19,-0.40 350.55,-0.43 358.91,-0.45 367.26,-0.47 375.62,-0.50 383.98,-0.52 392.33,-0.54 400.69,-0.57 409.05,-0.59 417.40,-0.61 425.76,-0.63 434.12,-0.66 442.47,-0.68 450.83,-0.70 459.18,-0.73 467.54,-0.75 475.92,-0.77 484.30,-0.79 488.39,0.95 492.48,2.69 493.59,6.06 494.70,9.43 494.85,12.99 494.99,16.55 494.93,20.08 494.87,23.61 494.86,27.14 494.85,30.66 494.91,34.19 494.98,37.72 495.05,41.25 495.11,44.78 495.16,48.37 495.20,51.96 493.35,54.87 491.50,57.78 484.52,58.59 477.55,59.41 469.59,59.53 461.63,59.66 453.39,59.67 445.14,59.68 436.83,59.66 428.51,59.64 420.17,59.62 411.83,59.59 403.49,59.56 395.15,59.53 386.80,59.50 378.46,59.47 370.11,59.44 361.77,59.41 353.42,59.38 345.08,59.35 336.73,59.32 328.39,59.29 320.05,59.26 311.70,59.23 303.36,59.20 295.01,59.17 286.67,59.14 278.32,59.11 269.98,59.08 261.63,59.05 253.29,59.04 244.94,59.03 236.60,59.05 228.25,59.06 217.05,59.08 205.85,59.09 205.68,59.06 205.50,59.03 205.34,58.94 205.18,58.86 205.06,58.73 204.93,58.60 204.86,58.44 204.78,58.27 204.76,58.09 204.74,57.91 204.78,57.74 204.82,57.56 204.91,57.41 205.01,57.26 205.14,57.14 205.28,57.02 205.45,56.96 205.62,56.89 205.80,56.88 205.97,56.87 206.15,56.92 206.32,56.97 206.47,57.07 206.62,57.17 206.73,57.31 206.84,57.46 206.89,57.63 206.95,57.80 206.95,57.98 206.95,58.16 206.89,58.33 206.84,58.50 206.73,58.64 206.62,58.78 206.47,58.88 206.32,58.99 206.15,59.03 205.97,59.08 205.79,59.07 205.61,59.06 205.45,58.99 205.28,58.93 205.14,58.81 205.01,58.69 204.91,58.54 204.82,58.39 204.78,58.21 204.74,58.03 204.76,57.86 204.78,57.68 204.86,57.51 204.93,57.35 205.06,57.22 205.18,57.09 205.34,57.01 205.50,56.92 205.68,56.89 205.85,56.86 205.85,56.86 205.85,56.86 217.06,56.90 228.26,56.93 236.60,56.96 244.95,56.99 253.29,57.00 261.63,57.00 269.98,56.99 278.32,56.97 286.67,56.96 295.01,56.95 303.36,56.93 311.70,56.92 320.05,56.90 328.39,56.89 336.74,56.87 345.08,56.86 353.43,56.84 361.77,56.83 370.12,56.81 378.46,56.80 386.80,56.78 395.15,56.77 403.49,56.75 411.83,56.74 420.17,56.72 428.51,56.70 436.82,56.68 445.13,56.65 453.35,56.60 461.57,56.54 469.41,56.38 477.25,56.21 483.47,55.81 489.69,55.42 490.83,53.55 491.98,51.68 492.08,48.22 492.18,44.75 492.30,41.23 492.43,37.70 492.54,34.18 492.66,30.65 492.67,27.14 492.69,23.63 492.56,20.17 492.44,16.71 492.17,13.48 491.90,10.25 491.21,7.61 490.52,4.96 487.36,3.72 484.21,2.49 475.87,2.47 467.54,2.45 459.19,2.43 450.83,2.41 442.47,2.39 434.12,2.36 425.76,2.34 417.40,2.32 409.05,2.30 400.69,2.28 392.33,2.25 383.98,2.23 375.62,2.21 367.26,2.19 358.91,2.17 350.55,2.15 342.19,2.12 333.84,2.10 325.48,2.08 317.13,2.06 308.77,2.04 300.41,2.02 292.06,1.99 283.70,1.97 275.34,1.95 266.99,1.93 258.63,1.91 250.27,1.88 241.92,1.89 233.56,1.89 225.20,1.91 216.85,1.93 208.49,1.96 200.14,1.98 191.78,2.00 183.42,2.02 175.07,2.05 166.71,2.07 158.35,2.09 150.00,2.12 141.64,2.14 133.28,2.16 124.93,2.19 116.57,2.21 108.21,2.23 99.86,2.26 91.50,2.28 83.15,2.30 74.80,2.33 66.45,2.35 58.13,2.39 49.80,2.42 41.57,2.48 33.34,2.55 25.49,2.72 17.64,2.89 11.41,3.29 5.19,3.69 4.06,5.54 2.93,7.40 2.87,10.83 2.82,14.25 2.75,17.74 2.68,21.24 2.61,24.73 2.54,28.22 2.57,31.70 2.61,35.17 2.78,38.60 2.95,42.02 3.27,45.22 3.58,48.42 4.30,51.04 5.03,53.66 8.18,54.91 11.34,56.16 19.66,56.18 27.99,56.21 36.33,56.24 44.67,56.27 53.02,56.30 61.36,56.33 69.71,56.36 78.05,56.39 86.40,56.42 94.74,56.45 103.09,56.48 111.43,56.51 119.78,56.54 128.12,56.57 136.47,56.60 144.81,56.63 153.15,56.66 161.50,56.69 169.84,56.72 178.19,56.75 186.53,56.78 194.88,56.81 203.22,56.84 211.57,56.87 219.91,56.90 228.26,56.93 236.60,56.96 244.95,56.99 253.29,57.00 261.63,57.00 269.98,56.99 278.32,56.97 286.67,56.96 295.01,56.95 303.36,56.93 311.70,56.92 320.04,56.90 328.39,56.89 336.72,56.87 345.06,56.86 353.37,56.84 361.68,56.83 369.88,56.81 378.09,56.80 385.89,56.78 393.69,56.77 399.91,56.75 406.13,56.73 406.30,56.75 406.47,56.77 406.63,56.84 406.79,56.90 406.93,56.99 407.07,57.09 407.19,57.22 407.30,57.35 407.38,57.50 407.46,57.65 407.50,57.82 407.54,57.99 407.54,58.16 407.54,58.33 407.50,58.50 407.46,58.67 407.38,58.82 407.30,58.97 407.18,59.10 407.07,59.23 406.93,59.32 406.79,59.42 406.63,59.48 406.47,59.54 406.29,59.56 Z" fill="#cecece" stroke="#cecece" stroke-width="2" pointer-events="none"/></g><g text-align="left" text-anchor="start" fill="#cecece" transform="translate(103.62, 159.43) rotate(0.00, 55.00, 24.50)"><text y="14" letter-spacing="-0.84" font-size="28px" font-family="Caveat Brush" text-align="left" alignment-baseline="central" transform="scale(1.3841856952170655)">site.com</text></g><g id="31ddc19f-55db-44f9-1e84-d4aaf9d71970_svg" class="tl-centered-g" transform="translate(102.64, 231.95) rotate(0.00, 237.96, 1.43)"><defs><mask id="31ddc19f-55db-44f9-1e84-d4aaf9d71970_clip"><rect x="-100" y="-100" width="675.92" height="202.86" fill="white"/><rect x="237.96" y="1.43" width="0" height="0" rx="4" ry="4" fill="black" opacity="1"/></mask></defs><g pointer-events="none" opacity="1" mask=""><path d="M -0.00,1.94 Q -0.00,1.94 59.48,1.62 118.97,1.30 178.46,0.97 237.95,0.64 297.44,0.30 356.93,-0.02 416.42,-0.37 475.91,-0.71 476.02,-0.69 476.14,-0.67 476.24,-0.62 476.34,-0.57 476.42,-0.48 476.50,-0.40 476.55,-0.29 476.60,-0.19 476.62,-0.08 476.63,0.03 476.60,0.14 476.58,0.26 476.52,0.35 476.46,0.45 476.37,0.53 476.29,0.61 476.18,0.65 476.07,0.69 475.96,0.70 475.84,0.71 475.73,0.68 475.62,0.65 475.52,0.58 475.43,0.52 475.36,0.43 475.29,0.33 475.25,0.22 475.21,0.11 475.21,0.00 475.21,-0.11 475.25,-0.22 475.28,-0.33 475.35,-0.42 475.42,-0.51 475.52,-0.58 475.61,-0.64 475.72,-0.67 475.83,-0.70 475.95,-0.70 476.06,-0.69 476.17,-0.65 476.28,-0.61 476.37,-0.54 476.46,-0.46 476.52,-0.36 476.58,-0.26 476.60,-0.15 476.63,-0.04 476.62,0.07 476.60,0.18 476.56,0.29 476.51,0.39 476.43,0.48 476.35,0.56 476.25,0.62 476.15,0.67 476.03,0.69 475.92,0.71 475.92,0.71 475.92,0.71 416.43,1.08 356.94,1.45 297.45,1.83 237.96,2.21 178.47,2.60 118.98,2.98 59.49,3.38 0.00,3.77 -0.10,3.76 -0.21,3.75 -0.31,3.71 -0.42,3.67 -0.51,3.61 -0.60,3.54 -0.67,3.46 -0.75,3.38 -0.80,3.28 -0.85,3.18 -0.88,3.08 -0.90,2.97 -0.90,2.86 -0.90,2.75 -0.88,2.64 -0.85,2.54 -0.80,2.44 -0.75,2.34 -0.68,2.26 -0.61,2.17 -0.52,2.11 -0.43,2.05 -0.32,2.01 -0.22,1.97 -0.11,1.95 Z" fill="#cecece" stroke="#cecece" stroke-width="2.11" stroke-dasharray="none" stroke-dashoffset="none" stroke-linecap="round" stroke-linejoin="round" pointer-events="stroke"/></g></g><g text-align="left" text-anchor="start" fill="#cecece" transform="translate(1052.46, 64.96) rotate(0.00, 154.50, 43.50)"><text y="14" letter-spacing="-0.84" font-size="28px" font-family="Caveat Brush" text-align="left" alignment-baseline="central" transform="scale(2.7536777269002877)">Node Server</text></g><g id="151ece60-e502-4dec-2b8a-210819cbc986_svg" class="tl-centered-g" transform="translate(1165.97, 242.08) rotate(0.00, 37.30, 34.35)"><path d="M 47.66,-1.16 Q 47.66,-1.16 52.80,-0.20 57.95,0.75 61.27,3.25 64.59,5.76 67.74,9.85 70.88,13.94 73.12,19.60 75.36,25.27 75.69,32.18 76.01,39.09 73.58,46.33 71.14,53.56 65.63,59.66 60.13,65.77 52.14,69.14 44.16,72.52 35.19,72.00 26.23,71.48 18.34,66.87 10.44,62.26 5.54,54.53 0.63,46.80 -0.18,37.82 -1.01,28.83 2.15,20.69 5.32,12.55 11.38,6.85 17.43,1.15 24.75,-1.41 32.07,-3.98 39.12,-3.64 46.18,-3.30 51.95,-0.91 57.73,1.48 61.80,4.93 65.88,8.37 68.29,11.96 70.69,15.54 71.77,18.57 72.85,21.60 73.07,23.66 73.29,25.71 73.29,25.71 73.28,25.72 73.28,25.72 73.27,25.72 72.36,23.97 71.45,22.23 69.99,19.66 68.52,17.08 66.14,13.97 63.75,10.86 60.05,7.75 56.34,4.64 51.13,2.38 45.92,0.12 39.50,-0.28 33.09,-0.69 26.39,1.53 19.68,3.76 14.08,8.86 8.48,13.96 5.46,21.33 2.45,28.71 3.07,36.91 3.69,45.10 8.04,52.21 12.40,59.33 19.52,63.63 26.64,67.94 34.78,68.52 42.92,69.10 50.19,66.12 57.47,63.14 62.49,57.67 67.52,52.19 69.75,45.69 71.97,39.18 71.66,32.99 71.35,26.80 69.29,21.78 67.23,16.77 64.33,13.25 61.44,9.74 58.67,7.48 55.90,5.23 51.78,2.04 Z" fill="#cecece" stroke="#cecece" stroke-width="3.5" pointer-events="none" stroke-linecap="round" stroke-linejoin="round"/></g><g id="ecac8fcd-8db9-4a78-0747-c12a5381aa4a_svg" class="tl-centered-g" transform="translate(1105.02, 349.63) rotate(0.00, 32.61, 31.59)"><path d="M 35.55,-2.19 Q 35.55,-2.19 40.70,-1.65 45.84,-1.11 49.33,1.38 52.83,3.88 56.05,8.29 59.27,12.69 61.30,18.98 63.33,25.28 63.07,32.79 62.80,40.31 59.52,47.56 56.23,54.81 50.05,59.83 43.88,64.84 36.08,65.87 28.29,66.90 21.00,63.37 13.70,59.84 8.93,52.78 4.16,45.71 2.95,37.23 1.73,28.75 3.86,21.05 5.99,13.35 10.37,7.90 14.76,2.46 19.99,-0.27 25.22,-3.01 30.11,-3.38 35.00,-3.75 38.75,-2.59 42.49,-1.44 44.77,0.30 47.04,2.05 47.04,2.06 47.04,2.06 47.04,2.06 47.03,2.07 44.51,1.30 41.99,0.52 38.59,-0.09 35.20,-0.70 30.95,-0.31 26.69,0.08 22.02,2.40 17.35,4.73 13.32,9.56 9.28,14.40 7.23,21.40 5.18,28.40 6.17,36.16 7.15,43.92 11.31,50.38 15.47,56.83 21.83,60.11 28.19,63.40 35.03,62.64 41.88,61.89 47.42,57.51 52.96,53.12 55.99,46.59 59.01,40.05 59.28,33.23 59.55,26.41 57.72,20.76 55.88,15.11 53.01,11.26 50.13,7.41 47.28,5.18 44.44,2.96 39.99,0.39 Z" fill="#cecece" stroke="#cecece" stroke-width="3.5" pointer-events="none" stroke-linecap="round" stroke-linejoin="round"/></g><g id="453cd7c2-df7d-427f-1f1d-4dab9f9c4011_svg" class="tl-centered-g" transform="translate(1228.70, 347.69) rotate(0.00, 38.36, 35.45)"><path d="M -0.09,39.86 Q -0.09,39.86 -1.26,35.47 -2.44,31.08 -1.86,27.52 -1.27,23.96 0.67,19.88 2.62,15.80 6.12,11.67 9.62,7.55 14.80,4.11 19.99,0.67 26.67,-1.19 33.36,-3.06 40.85,-2.57 48.35,-2.08 55.50,1.20 62.66,4.49 68.11,10.40 73.56,16.31 76.10,23.99 78.65,31.66 77.68,39.70 76.71,47.75 72.42,54.64 68.14,61.53 61.50,66.07 54.86,70.62 47.25,72.28 39.63,73.95 32.38,72.90 25.13,71.84 19.21,68.75 13.29,65.66 9.15,61.45 5.02,57.23 2.67,52.74 0.32,48.25 -0.55,44.16 -1.43,40.07 -1.28,36.83 -1.13,33.59 -0.47,31.42 0.18,29.25 0.18,29.25 0.19,29.25 0.19,29.25 0.20,29.25 0.35,31.39 0.51,33.54 0.87,36.49 1.24,39.44 2.23,43.09 3.22,46.75 5.37,50.80 7.52,54.86 11.24,58.75 14.95,62.64 20.33,65.53 25.71,68.43 32.35,69.48 38.99,70.54 45.99,69.11 53.00,67.67 59.12,63.61 65.24,59.55 69.23,53.36 73.22,47.16 74.21,39.89 75.20,32.63 72.99,25.65 70.77,18.67 65.87,13.26 60.98,7.84 54.49,4.81 48.00,1.77 41.19,1.31 34.38,0.85 28.36,2.56 22.33,4.27 17.74,7.40 13.15,10.53 10.18,14.25 7.22,17.97 5.62,21.57 4.01,25.17 3.14,28.14 2.26,31.11 1.09,35.48 Z" fill="#cecece" stroke="#cecece" stroke-width="3.5" pointer-events="none" stroke-linecap="round" stroke-linejoin="round"/></g><g id="0c8f575f-01d0-41a8-24cd-4913b7cf502a_svg" class="tl-centered-g" transform="translate(1036.07, 446.82) rotate(0.00, 30.65, 33.88)"><path d="M 5.48,20.44 Q 5.48,20.44 7.36,15.01 9.24,9.58 12.57,6.69 15.89,3.79 20.75,1.92 25.61,0.05 31.58,0.35 37.55,0.65 43.48,4.08 49.40,7.51 53.63,14.06 57.86,20.62 58.92,29.05 59.98,37.48 57.26,45.59 54.55,53.71 48.68,59.21 42.81,64.71 35.51,66.16 28.20,67.60 21.54,65.02 14.88,62.44 10.32,57.19 5.77,51.94 3.72,45.82 1.67,39.70 1.69,34.14 1.70,28.59 3.06,24.43 4.43,20.27 6.23,17.79 8.03,15.31 8.03,15.31 8.04,15.31 8.04,15.31 8.05,15.32 7.26,18.07 6.46,20.82 5.71,24.72 4.95,28.61 4.97,33.64 4.99,38.67 6.74,44.22 8.49,49.77 12.42,54.53 16.35,59.30 22.10,61.72 27.86,64.15 34.26,63.05 40.65,61.95 45.94,57.15 51.22,52.35 53.77,45.05 56.31,37.76 55.45,30.13 54.58,22.51 50.92,16.64 47.25,10.78 42.19,7.76 37.13,4.74 32.10,4.47 27.07,4.20 23.01,5.85 18.94,7.49 16.15,9.83 13.36,12.17 9.43,16.31 Z" fill="#cecece" stroke="#cecece" stroke-width="3.5" pointer-events="none" stroke-linecap="round" stroke-linejoin="round"/></g><g id="a7f0adab-cc71-4ad8-0752-e6ec5626d998_svg" class="tl-centered-g" transform="translate(1302.62, 443.88) rotate(0.00, 30.65, 33.88)"><path d="M 8.11,56.01 Q 8.11,56.01 5.06,51.30 2.02,46.59 1.29,42.08 0.57,37.58 0.84,31.92 1.12,26.27 3.00,20.07 4.89,13.88 8.83,8.31 12.76,2.75 18.64,-0.62 24.52,-4.00 31.40,-3.75 38.29,-3.50 44.53,0.90 50.78,5.30 54.75,13.01 58.72,20.71 59.48,29.82 60.24,38.92 57.80,47.25 55.35,55.57 50.55,61.39 45.74,67.22 39.86,69.74 33.99,72.26 28.36,71.70 22.74,71.14 18.29,68.47 13.83,65.81 10.91,62.25 7.98,58.68 6.49,55.24 5.00,51.80 4.60,49.19 4.21,46.57 4.22,46.57 4.22,46.57 4.23,46.56 4.23,46.56 5.48,48.74 6.72,50.91 8.51,53.83 10.31,56.74 12.99,59.83 15.67,62.93 19.47,65.34 23.27,67.75 28.07,68.39 32.88,69.04 38.05,66.96 43.23,64.88 47.65,59.68 52.07,54.47 54.42,46.79 56.76,39.11 56.16,30.65 55.55,22.20 52.06,15.11 48.58,8.03 43.19,4.00 37.80,-0.03 31.91,-0.39 26.01,-0.76 20.84,2.12 15.68,5.01 12.10,10.02 8.53,15.04 6.80,20.76 5.08,26.47 4.89,31.70 4.69,36.93 5.35,40.97 6.01,45.01 7.07,50.51 Z" fill="#cecece" stroke="#cecece" stroke-width="3.5" pointer-events="none" stroke-linecap="round" stroke-linejoin="round"/></g><g id="f9e01aea-5faa-48a8-31c3-828884e46996_svg" class="tl-centered-g" transform="translate(1162.49, 445.86) rotate(0.00, 38.64, 29.99)"><path d="M 3.18,17.87 Q 3.18,17.87 5.18,13.44 7.17,9.01 10.33,6.43 13.49,3.85 18.29,1.71 23.08,-0.43 29.38,-1.56 35.68,-2.69 42.94,-2.01 50.19,-1.32 57.25,1.73 64.32,4.80 69.64,10.29 74.96,15.77 76.96,22.95 78.96,30.13 76.72,37.48 74.49,44.83 68.36,50.57 62.23,56.30 53.71,59.15 45.19,62.00 36.28,61.57 27.38,61.14 19.91,57.89 12.45,54.64 7.56,49.61 2.67,44.59 0.63,38.99 -1.40,33.39 -1.04,28.25 -0.68,23.11 1.22,19.08 3.13,15.05 5.66,12.41 8.19,9.77 10.54,8.43 12.89,7.10 12.90,7.10 12.90,7.11 12.90,7.11 12.90,7.12 11.29,9.06 9.67,11.01 7.76,13.68 5.86,16.34 4.27,19.89 2.68,23.45 2.28,27.91 1.87,32.36 3.56,37.33 5.24,42.30 9.59,46.91 13.94,51.52 20.79,54.59 27.64,57.67 35.91,58.16 44.18,58.65 52.07,56.14 59.96,53.63 65.58,48.58 71.21,43.54 73.33,37.15 75.46,30.76 73.82,24.45 72.18,18.14 67.44,13.19 62.71,8.23 56.24,5.41 49.76,2.58 43.08,1.98 36.39,1.38 30.65,2.48 24.90,3.58 20.64,5.61 16.39,7.65 13.54,9.71 10.70,11.77 6.95,14.82 Z" fill="#cecece" stroke="#cecece" stroke-width="3.5" pointer-events="none" stroke-linecap="round" stroke-linejoin="round"/></g><g id="2b1f4109-66ae-45fe-1b8d-7a82dd1f6180_svg" class="tl-centered-g" transform="translate(1154.58, 306.20) rotate(0.00, 15.04, 24.02)"><defs><mask id="2b1f4109-66ae-45fe-1b8d-7a82dd1f6180_clip"><rect x="-100" y="-100" width="230.07" height="248.04" fill="white"/><rect x="15.03" y="24.02" width="0" height="0" rx="2" ry="2" fill="black" opacity="1"/></mask></defs><g pointer-events="none" opacity="1" mask=""><path d="M 30.92,0.53 Q 30.92,0.53 27.13,6.52 23.35,12.51 19.57,18.50 15.79,24.49 12.02,30.49 8.25,36.49 4.48,42.48 0.71,48.48 0.62,48.58 0.53,48.69 0.41,48.75 0.29,48.82 0.16,48.85 0.03,48.88 -0.10,48.86 -0.23,48.84 -0.36,48.78 -0.48,48.72 -0.58,48.63 -0.67,48.53 -0.74,48.41 -0.80,48.29 -0.82,48.15 -0.84,48.02 -0.81,47.89 -0.79,47.75 -0.72,47.63 -0.66,47.51 -0.56,47.42 -0.46,47.33 -0.33,47.27 -0.21,47.22 -0.07,47.21 0.06,47.19 0.19,47.23 0.32,47.26 0.44,47.33 0.55,47.40 0.64,47.51 0.72,47.61 0.77,47.74 0.82,47.87 0.83,48.00 0.83,48.14 0.79,48.27 0.75,48.40 0.67,48.51 0.60,48.62 0.49,48.71 0.38,48.79 0.25,48.83 0.12,48.87 -0.01,48.87 -0.15,48.86 -0.27,48.82 -0.40,48.77 -0.51,48.69 -0.62,48.60 -0.69,48.49 -0.77,48.37 -0.80,48.24 -0.83,48.11 -0.82,47.98 -0.81,47.84 -0.76,47.71 -0.71,47.59 -0.71,47.59 -0.71,47.59 3.03,41.58 6.78,35.56 10.52,29.55 14.27,23.54 18.01,17.52 21.75,11.50 25.48,5.48 29.21,-0.53 29.29,-0.62 29.36,-0.72 29.46,-0.79 29.56,-0.87 29.67,-0.91 29.78,-0.96 29.90,-0.98 30.02,-1.00 30.14,-0.99 30.26,-0.98 30.38,-0.95 30.49,-0.91 30.60,-0.84 30.70,-0.78 30.78,-0.69 30.87,-0.60 30.93,-0.50 30.99,-0.39 31.02,-0.28 31.06,-0.16 31.06,-0.04 31.07,0.07 31.05,0.19 31.02,0.31 30.97,0.42 Z" fill="#cecece" stroke="#cecece" stroke-width="2.11" stroke-dasharray="none" stroke-dashoffset="none" stroke-linecap="round" stroke-linejoin="round" pointer-events="stroke"/></g></g><g id="4d14dca1-8210-40ae-3253-aacb16f23298_svg" class="tl-centered-g" transform="translate(1221.53, 306.39) rotate(0.00, 13.83, 22.69)"><defs><mask id="4d14dca1-8210-40ae-3253-aacb16f23298_clip"><rect x="-100" y="-100" width="227.66" height="245.38" fill="white"/><rect x="13.83" y="22.69" width="0" height="0" rx="2" ry="2" fill="black" opacity="1"/></mask></defs><g pointer-events="none" opacity="1" mask=""><path d="M 0.77,-0.47 Q 0.77,-0.47 4.20,5.21 7.62,10.91 11.05,16.59 14.49,22.28 17.93,27.96 21.37,33.65 24.81,39.33 28.26,45.01 28.30,45.11 28.34,45.22 28.35,45.33 28.36,45.45 28.33,45.56 28.30,45.67 28.23,45.76 28.17,45.86 28.08,45.93 27.99,46.00 27.88,46.03 27.77,46.07 27.66,46.07 27.55,46.07 27.44,46.03 27.33,46.00 27.24,45.93 27.15,45.86 27.08,45.77 27.02,45.67 26.99,45.56 26.96,45.46 26.96,45.34 26.97,45.23 27.01,45.12 27.05,45.02 27.12,44.93 27.20,44.84 27.29,44.78 27.39,44.72 27.50,44.70 27.61,44.67 27.73,44.68 27.84,44.70 27.94,44.74 28.05,44.79 28.13,44.87 28.21,44.95 28.27,45.05 28.32,45.15 28.34,45.26 28.36,45.37 28.34,45.48 28.32,45.60 28.27,45.70 28.22,45.80 28.14,45.88 28.05,45.96 27.95,46.00 27.85,46.05 27.73,46.07 27.62,46.08 27.51,46.05 27.40,46.03 27.30,45.97 27.20,45.91 27.13,45.83 27.05,45.74 27.05,45.74 27.05,45.74 23.58,40.08 20.11,34.41 16.64,28.75 13.16,23.09 9.68,17.43 6.20,11.77 2.71,6.12 -0.77,0.47 -0.82,0.37 -0.86,0.27 -0.88,0.16 -0.90,0.05 -0.90,-0.05 -0.89,-0.16 -0.86,-0.26 -0.82,-0.36 -0.77,-0.46 -0.71,-0.55 -0.63,-0.63 -0.56,-0.71 -0.46,-0.76 -0.37,-0.82 -0.27,-0.85 -0.16,-0.89 -0.05,-0.89 0.05,-0.90 0.15,-0.88 0.26,-0.86 0.36,-0.82 0.46,-0.77 0.55,-0.71 0.63,-0.64 0.70,-0.55 Z" fill="#cecece" stroke="#cecece" stroke-width="2.11" stroke-dasharray="none" stroke-dashoffset="none" stroke-linecap="round" stroke-linejoin="round" pointer-events="stroke"/></g></g><g id="9df832fd-4828-4826-3130-bba7c219a531_svg" class="tl-centered-g" transform="translate(1086.07, 407.31) rotate(0.00, 16.59, 23.56)"><defs><mask id="9df832fd-4828-4826-3130-bba7c219a531_clip"><rect x="-100" y="-100" width="233.18" height="247.12" fill="white"/><rect x="16.59" y="23.56" width="0" height="0" rx="2" ry="2" fill="black" opacity="1"/></mask></defs><g pointer-events="none" opacity="1" mask=""><path d="M 34.00,0.58 Q 34.00,0.58 29.83,6.45 25.66,12.32 21.49,18.20 17.33,24.08 13.16,29.96 9.00,35.84 4.85,41.72 0.69,47.60 0.59,47.70 0.50,47.80 0.37,47.86 0.25,47.92 0.12,47.94 -0.01,47.96 -0.15,47.94 -0.28,47.91 -0.40,47.85 -0.52,47.78 -0.61,47.68 -0.71,47.58 -0.76,47.45 -0.82,47.33 -0.83,47.19 -0.84,47.05 -0.81,46.92 -0.78,46.79 -0.70,46.67 -0.63,46.55 -0.53,46.47 -0.42,46.38 -0.29,46.33 -0.16,46.28 -0.03,46.28 0.10,46.27 0.23,46.31 0.36,46.35 0.48,46.43 0.59,46.51 0.67,46.62 0.75,46.73 0.79,46.86 0.83,46.99 0.83,47.13 0.83,47.27 0.78,47.40 0.74,47.53 0.65,47.63 0.57,47.74 0.45,47.82 0.34,47.89 0.20,47.93 0.07,47.96 -0.06,47.95 -0.19,47.94 -0.32,47.89 -0.45,47.83 -0.55,47.74 -0.65,47.65 -0.72,47.53 -0.79,47.41 -0.82,47.28 -0.84,47.15 -0.83,47.01 -0.81,46.87 -0.75,46.75 -0.69,46.63 -0.69,46.63 -0.69,46.63 3.44,40.73 7.58,34.83 11.71,28.93 15.84,23.03 19.97,17.13 24.10,11.23 28.22,5.32 32.35,-0.58 32.43,-0.67 32.51,-0.76 32.61,-0.83 32.71,-0.90 32.83,-0.94 32.94,-0.98 33.06,-0.99 33.18,-1.01 33.31,-0.99 33.43,-0.98 33.54,-0.93 33.65,-0.89 33.75,-0.82 33.85,-0.75 33.93,-0.65 34.01,-0.56 34.07,-0.45 34.12,-0.35 34.15,-0.23 34.18,-0.11 34.18,0.00 34.18,0.13 34.15,0.24 34.12,0.36 34.06,0.47 Z" fill="#cecece" stroke="#cecece" stroke-width="2.11" stroke-dasharray="none" stroke-dashoffset="none" stroke-linecap="round" stroke-linejoin="round" pointer-events="stroke"/></g></g><g id="aa353af3-8c1b-4bab-0e55-849fd9079bb7_svg" class="tl-centered-g" transform="translate(1218.66, 412.49) rotate(0.00, 13.44, 18.32)"><defs><mask id="aa353af3-8c1b-4bab-0e55-849fd9079bb7_clip"><rect x="-100" y="-100" width="226.88" height="236.63" fill="white"/><rect x="13.44" y="18.31" width="0" height="0" rx="2" ry="2" fill="black" opacity="1"/></mask></defs><g pointer-events="none" opacity="1" mask=""><path d="M 27.57,0.50 Q 27.57,0.50 24.17,5.06 20.78,9.61 17.39,14.17 14.01,18.73 10.63,23.30 7.25,27.86 3.88,32.43 0.50,37.00 0.43,37.07 0.36,37.14 0.27,37.19 0.17,37.23 0.07,37.24 -0.02,37.26 -0.12,37.24 -0.22,37.22 -0.31,37.16 -0.40,37.11 -0.46,37.04 -0.53,36.96 -0.57,36.87 -0.61,36.77 -0.62,36.67 -0.62,36.57 -0.60,36.47 -0.57,36.37 -0.52,36.28 -0.46,36.20 -0.38,36.14 -0.30,36.07 -0.20,36.04 -0.11,36.00 -0.01,36.00 0.09,36.00 0.18,36.03 0.28,36.06 0.36,36.12 0.45,36.18 0.50,36.27 0.56,36.35 0.59,36.45 0.62,36.55 0.62,36.65 0.61,36.75 0.58,36.85 0.54,36.94 0.48,37.02 0.41,37.10 0.33,37.15 0.24,37.21 0.14,37.23 0.04,37.25 -0.05,37.25 -0.15,37.24 -0.25,37.19 -0.34,37.15 -0.42,37.08 -0.49,37.02 -0.54,36.93 -0.59,36.84 -0.61,36.74 -0.63,36.64 -0.61,36.53 -0.60,36.43 -0.55,36.34 -0.50,36.25 -0.50,36.25 -0.50,36.25 2.83,31.66 6.18,27.07 9.52,22.48 12.86,17.89 16.20,13.29 19.53,8.70 22.86,4.09 26.18,-0.50 26.26,-0.58 26.33,-0.65 26.41,-0.71 26.50,-0.76 26.60,-0.80 26.69,-0.83 26.80,-0.84 26.90,-0.85 27.00,-0.84 27.10,-0.82 27.20,-0.78 27.29,-0.74 27.38,-0.68 27.46,-0.62 27.53,-0.54 27.59,-0.46 27.64,-0.37 27.68,-0.28 27.71,-0.17 27.73,-0.07 27.72,0.02 27.72,0.12 27.69,0.22 27.67,0.32 27.62,0.41 Z" fill="#cecece" stroke="#cecece" stroke-width="2.11" stroke-dasharray="none" stroke-dashoffset="none" stroke-linecap="round" stroke-linejoin="round" pointer-events="stroke"/></g></g><g id="fdf57383-7ba9-46f7-260a-40ba00d18e91_svg" class="tl-centered-g" transform="translate(1290.04, 411.54) rotate(0.00, 14.60, 18.05)"><defs><mask id="fdf57383-7ba9-46f7-260a-40ba00d18e91_clip"><rect x="-100" y="-100" width="229.2" height="236.1" fill="white"/><rect x="14.6" y="18.05" width="0" height="0" rx="2" ry="2" fill="black" opacity="1"/></mask></defs><g pointer-events="none" opacity="1" mask=""><path d="M 0.77,-0.63 Q 0.77,-0.63 4.40,3.90 8.03,8.43 11.66,12.96 15.29,17.48 18.93,22.01 22.56,26.53 26.20,31.05 29.84,35.57 29.91,35.69 29.98,35.80 30.00,35.94 30.03,36.07 30.01,36.20 29.99,36.34 29.93,36.46 29.87,36.58 29.78,36.68 29.68,36.77 29.56,36.83 29.44,36.89 29.31,36.91 29.17,36.93 29.04,36.90 28.91,36.88 28.79,36.81 28.67,36.75 28.58,36.65 28.49,36.55 28.44,36.42 28.39,36.30 28.37,36.16 28.36,36.03 28.40,35.90 28.43,35.77 28.50,35.65 28.57,35.54 28.68,35.45 28.78,35.37 28.91,35.32 29.04,35.28 29.17,35.27 29.31,35.27 29.43,35.31 29.56,35.35 29.67,35.42 29.78,35.50 29.86,35.61 29.94,35.72 29.98,35.85 30.02,35.98 30.02,36.11 30.02,36.25 29.97,36.38 29.92,36.50 29.84,36.61 29.75,36.71 29.64,36.79 29.53,36.86 29.40,36.89 29.27,36.93 29.13,36.92 29.00,36.91 28.87,36.85 28.75,36.80 28.65,36.71 28.55,36.62 28.55,36.62 28.55,36.62 24.89,32.12 21.23,27.61 17.56,23.11 13.90,18.61 10.23,14.11 6.56,9.61 2.89,5.12 -0.77,0.63 -0.84,0.52 -0.90,0.42 -0.94,0.31 -0.98,0.19 -0.99,0.07 -1.00,-0.04 -0.98,-0.16 -0.96,-0.28 -0.91,-0.39 -0.86,-0.50 -0.79,-0.60 -0.71,-0.69 -0.62,-0.77 -0.53,-0.84 -0.42,-0.90 -0.31,-0.95 -0.19,-0.97 -0.07,-0.99 0.04,-0.99 0.16,-0.98 0.28,-0.95 0.39,-0.92 0.50,-0.85 0.60,-0.79 0.69,-0.71 Z" fill="#cecece" stroke="#cecece" stroke-width="2.11" stroke-dasharray="none" stroke-dashoffset="none" stroke-linecap="round" stroke-linejoin="round" pointer-events="stroke"/></g></g></svg>