<svg xmlns="http://www.w3.org/2000/svg" viewBox="0 0 1504 688" width="1504" height="688" style="background-color: transparent;"><defs><style>@import url('https://fonts.googleapis.com/css2?family=Caveat+Brush&amp;family=Source+Code+Pro&amp;family=Source+Sans+Pro&amp;family=Crimson+Pro&amp;display=block');</style></defs><g id="c286159d-3cd8-4d6d-2ca8-8004c36d8abf_svg" class="tl-centered-g" transform="translate(16.00, 16.00) rotate(0.00, 736.00, 328.00)"><g pointer-events="none" stroke="transparent" stroke-width="4.23" stroke-linecap="round"><line x1="2.11" y1="2.11" x2="1469.88" y2="2.11" stroke-dasharray="0.03 6.46" stroke-dashoffset="0"/><line x1="1469.88" y1="2.11" x2="1469.88" y2="653.88" stroke-dasharray="0.03 6.48" stroke-dashoffset="0"/><line x1="1469.88" y1="653.88" x2="2.11" y2="653.88" stroke-dasharray="0.03 6.46" stroke-dashoffset="0"/><line x1="2.11" y1="653.88" x2="2.11" y2="2.11" stroke-dasharray="0.03 6.48" stroke-dashoffset="0"/></g></g><text font-size="32.63098053773135px" font-family="Caveat Brush" font-weight="normal" line-height="32.63098053773135px" letter-spacing="-0.03em" text-align="left" dominant-baseline="mathematical" alignment-baseline="mathematical" text-anchor="start" fill="#36a64c" transform="translate(212.48, 159.85) rotate(0.00, 63.00, 21.50)"><tspan y="16.315490268865673px" x="4">/path/path
</tspan></text><text font-size="77.10297635320805px" font-family="Caveat Brush" font-weight="normal" line-height="77.10297635320805px" letter-spacing="-0.03em" text-align="left" dominant-baseline="mathematical" alignment-baseline="mathematical" text-anchor="start" fill="#cecece" transform="translate(60.41, 48.30) rotate(0.00, 291.00, 43.50)"><tspan y="38.551488176604025px" x="4">Normal CSR with React
</tspan></text><g id="3f210b50-00c9-40c3-301e-3f6510cd4967_svg" class="tl-centered-g" transform="translate(83.21, 144.79) rotate(0.00, 259.89, 224.72)"><path d="M520.492,87.004Q520.492,87.004 520.46,93.060 520.43,99.116 520.40,106.716 520.38,114.317 520.35,122.311 520.32,130.305 520.29,138.400 520.26,146.495 520.23,154.615 520.20,162.735 520.17,170.862 520.14,178.989 520.12,187.117 520.09,195.245 520.06,203.374 520.03,211.503 520.02,219.632 520.02,227.761 520.04,235.890 520.06,244.019 520.08,252.148 520.10,260.277 520.12,268.406 520.13,276.535 520.15,284.665 520.17,292.794 520.19,300.923 520.21,309.052 520.23,317.181 520.25,325.310 520.27,333.439 520.29,341.568 520.31,349.697 520.33,357.826 520.35,365.955 520.37,374.084 520.38,382.213 520.40,390.342 520.42,398.471 520.44,406.600 520.46,414.729 520.48,422.858 520.50,431.012 520.51,439.166 518.64,443.267 516.77,447.368 509.94,448.504 503.10,449.640 495.24,449.851 487.37,450.061 479.25,450.092 471.12,450.123 462.93,450.110 454.74,450.096 446.53,450.071 438.32,450.046 430.10,450.019 421.89,449.991 413.67,449.963 405.46,449.934 397.24,449.906 389.02,449.877 380.81,449.849 372.59,449.820 364.37,449.791 356.15,449.763 347.94,449.734 339.72,449.705 331.50,449.677 323.29,449.648 315.07,449.620 306.85,449.591 298.64,449.562 290.42,449.534 282.20,449.505 273.99,449.476 265.77,449.469 257.55,449.461 249.34,449.474 241.12,449.488 232.90,449.501 224.69,449.514 216.47,449.528 208.25,449.541 200.04,449.554 191.82,449.567 183.60,449.581 175.39,449.594 167.17,449.607 158.95,449.621 150.74,449.634 142.52,449.647 134.30,449.661 126.09,449.674 117.87,449.687 109.65,449.700 101.43,449.714 93.22,449.727 85.00,449.740 76.78,449.754 68.57,449.767 60.35,449.780 52.13,449.794 43.92,449.807 35.70,449.820 27.48,449.833 19.24,449.842 11.00,449.850 6.88,447.983 2.76,446.116 1.61,439.351 0.47,432.586 0.26,424.806 0.05,417.027 0.02,408.996 -0.011,400.966 0.00,392.867 0.01,384.769 0.03,376.652 0.06,368.536 0.09,360.415 0.11,352.294 0.14,344.172 0.17,336.050 0.20,327.928 0.23,319.806 0.25,311.683 0.28,303.561 0.31,295.439 0.34,287.316 0.37,279.194 0.40,271.071 0.42,262.949 0.45,254.826 0.48,246.704 0.51,238.582 0.51,230.459 0.52,222.337 0.50,214.214 0.48,206.092 0.46,197.970 0.44,189.847 0.42,181.725 0.40,173.602 0.38,165.480 0.36,157.357 0.34,149.235 0.32,141.113 0.30,132.990 0.28,124.868 0.26,116.745 0.24,108.623 0.22,100.500 0.20,92.378 0.18,84.256 0.16,76.133 0.14,68.011 0.12,59.888 0.10,51.766 0.08,43.643 0.06,35.521 0.04,27.399 0.02,19.251 0.01,11.104 1.88,7.005 3.74,2.906 10.58,1.766 17.41,0.626 25.28,0.410 33.15,0.194 41.27,0.157 49.40,0.121 57.59,0.128 65.78,0.136 73.99,0.155 82.20,0.174 90.42,0.196 98.64,0.218 106.85,0.241 115.07,0.263 123.29,0.286 131.50,0.309 139.72,0.332 147.94,0.355 156.16,0.378 164.37,0.400 172.59,0.423 180.81,0.446 189.03,0.469 197.24,0.492 205.46,0.515 213.68,0.538 221.89,0.561 230.11,0.583 238.33,0.606 246.55,0.629 254.76,0.631 262.98,0.633 271.20,0.614 279.42,0.595 287.63,0.576 295.85,0.557 304.07,0.538 312.29,0.519 320.50,0.500 328.72,0.481 336.94,0.461 345.15,0.442 353.37,0.423 361.59,0.404 369.81,0.385 378.02,0.366 386.24,0.347 394.46,0.328 402.68,0.309 410.89,0.290 419.11,0.271 427.33,0.252 435.55,0.233 443.76,0.214 451.98,0.195 460.20,0.176 468.41,0.157 476.63,0.138 484.85,0.118 493.07,0.099 501.31,0.085 509.55,0.071 513.67,1.937 517.80,3.803 518.94,10.572 520.08,17.341 520.29,25.127 520.50,32.913 520.53,40.950 520.57,48.987 520.55,57.092 520.54,65.197 520.51,73.320 520.49,81.443 520.46,89.571 520.43,97.698 520.40,105.827 520.38,113.955 520.35,122.084 520.32,130.213 520.29,138.342 520.26,146.471 520.23,154.600 520.20,162.729 520.17,170.858 520.14,178.987 520.12,187.116 520.09,195.245 520.06,203.374 520.03,211.503 520.02,219.632 520.02,227.761 520.04,235.890 520.06,244.019 520.08,254.931 520.09,265.842 520.06,266.021 520.03,266.200 519.95,266.360 519.86,266.520 519.73,266.645 519.60,266.769 519.44,266.845 519.27,266.921 519.09,266.941 518.91,266.960 518.73,266.921 518.56,266.882 518.40,266.789 518.25,266.695 518.13,266.557 518.01,266.419 517.95,266.250 517.88,266.082 517.87,265.901 517.86,265.720 517.91,265.545 517.96,265.370 518.06,265.220 518.16,265.070 518.30,264.961 518.45,264.851 518.62,264.794 518.79,264.736 518.97,264.736 519.15,264.736 519.33,264.794 519.50,264.852 519.64,264.962 519.79,265.072 519.89,265.222 519.99,265.372 520.04,265.547 520.09,265.721 520.08,265.902 520.07,266.083 520.00,266.252 519.93,266.420 519.81,266.558 519.70,266.696 519.54,266.789 519.39,266.883 519.21,266.922 519.03,266.960 518.85,266.941 518.67,266.921 518.51,266.845 518.34,266.768 518.21,266.644 518.08,266.519 518.00,266.359 517.91,266.198 517.88,266.019 517.85,265.841 517.85,265.841 517.85,265.841 517.88,254.929 517.91,244.018 517.94,235.889 517.97,227.760 517.98,219.631 517.98,211.502 517.96,203.373 517.94,195.244 517.92,187.115 517.90,178.986 517.88,170.857 517.87,162.728 517.85,154.599 517.83,146.470 517.81,138.341 517.79,130.212 517.77,122.083 517.75,113.954 517.73,105.825 517.71,97.697 517.69,89.570 517.67,81.443 517.65,73.322 517.62,65.201 517.59,57.104 517.55,49.008 517.48,41.007 517.40,33.005 517.15,25.397 516.91,17.788 516.23,11.685 515.55,5.582 512.50,4.467 509.45,3.352 501.26,3.334 493.07,3.316 484.85,3.293 476.63,3.270 468.41,3.247 460.20,3.224 451.98,3.201 443.76,3.178 435.54,3.155 427.33,3.132 419.11,3.110 410.89,3.087 402.68,3.064 394.46,3.041 386.24,3.018 378.02,2.995 369.81,2.972 361.59,2.949 353.37,2.927 345.15,2.904 336.94,2.881 328.72,2.858 320.50,2.835 312.28,2.812 304.07,2.789 295.85,2.766 287.63,2.744 279.42,2.721 271.20,2.698 262.98,2.675 254.76,2.673 246.55,2.671 238.33,2.690 230.11,2.709 221.89,2.728 213.68,2.747 205.46,2.766 197.24,2.785 189.02,2.805 180.81,2.824 172.59,2.843 164.37,2.862 156.16,2.881 147.94,2.900 139.72,2.919 131.50,2.938 123.29,2.957 115.07,2.976 106.85,2.996 98.64,3.015 90.42,3.035 82.21,3.055 74.00,3.078 65.79,3.101 57.60,3.135 49.42,3.169 41.33,3.247 33.24,3.325 25.55,3.568 17.86,3.811 11.69,4.485 5.52,5.158 4.40,8.181 3.29,11.205 3.27,19.302 3.24,27.400 3.21,35.523 3.19,43.645 3.16,51.767 3.13,59.890 3.10,68.012 3.07,76.135 3.04,84.257 3.02,92.379 2.99,100.502 2.96,108.624 2.93,116.747 2.90,124.869 2.88,132.991 2.85,141.114 2.82,149.236 2.79,157.359 2.76,165.481 2.73,173.603 2.71,181.726 2.68,189.848 2.65,197.971 2.62,206.093 2.59,214.215 2.56,222.338 2.56,230.460 2.56,238.583 2.58,246.705 2.60,254.828 2.62,262.950 2.64,271.072 2.66,279.195 2.68,287.317 2.70,295.440 2.72,303.562 2.74,311.685 2.76,319.807 2.78,327.929 2.80,336.052 2.82,344.173 2.84,352.295 2.86,360.416 2.88,368.536 2.90,376.650 2.92,384.765 2.96,392.855 3.00,400.945 3.07,408.939 3.15,416.934 3.40,424.537 3.64,432.139 4.32,438.238 5.00,444.336 8.05,445.453 11.10,446.570 19.29,446.593 27.49,446.617 35.70,446.646 43.92,446.675 52.14,446.703 60.35,446.732 68.57,446.760 76.79,446.789 85.00,446.818 93.22,446.846 101.44,446.875 109.65,446.904 117.87,446.932 126.09,446.961 134.30,446.990 142.52,447.018 150.74,447.047 158.95,447.075 167.17,447.104 175.39,447.133 183.60,447.161 191.82,447.190 200.04,447.219 208.26,447.247 216.47,447.276 224.69,447.305 232.91,447.333 241.12,447.362 249.34,447.390 257.56,447.419 265.77,447.427 273.99,447.434 282.21,447.421 290.42,447.408 298.64,447.395 306.86,447.381 315.07,447.368 323.29,447.355 331.51,447.341 339.72,447.328 347.94,447.315 356.16,447.301 364.37,447.288 372.59,447.275 380.81,447.262 389.02,447.248 397.24,447.235 405.46,447.221 413.67,447.208 421.89,447.194 430.10,447.180 438.32,447.166 446.53,447.149 454.74,447.132 462.92,447.103 471.10,447.075 479.19,447.003 487.28,446.930 494.97,446.692 502.66,446.454 508.83,445.784 515.00,445.115 516.12,442.090 517.23,439.065 517.25,430.961 517.28,422.856 517.31,414.727 517.34,406.598 517.36,398.469 517.39,390.340 517.42,382.211 517.45,374.082 517.48,365.953 517.51,357.824 517.54,349.695 517.57,341.566 517.60,333.437 517.62,325.308 517.65,317.179 517.68,309.050 517.71,300.921 517.74,292.792 517.77,284.663 517.80,276.534 517.83,268.405 517.86,260.276 517.88,252.147 517.91,244.018 517.94,235.889 517.97,227.760 517.98,219.631 517.98,211.502 517.96,203.373 517.94,195.244 517.92,187.116 517.90,178.987 517.88,170.860 517.87,162.734 517.85,154.613 517.83,146.493 517.81,138.398 517.79,130.304 517.77,122.309 517.75,114.315 517.73,106.715 517.71,99.114 517.69,93.058 517.67,87.002 517.69,86.833 517.71,86.665 517.77,86.506 517.83,86.347 517.93,86.207 518.02,86.068 518.15,85.955 518.28,85.843 518.43,85.764 518.58,85.685 518.74,85.644 518.91,85.604 519.08,85.604 519.25,85.604 519.41,85.645 519.58,85.686 519.73,85.765 519.88,85.844 520.01,85.956 520.13,86.069 520.23,86.209 520.33,86.349 520.39,86.508 520.45,86.667 520.47,86.835 Z" fill="#cecece" stroke="#cecece" stroke-width="2" pointer-events="none"/></g><g id="44050360-ae63-4468-087d-004f9e4ab337_svg" class="tl-centered-g" transform="translate(93.70, 156.86) rotate(0.00, 247.59, 29.25)"><path d="M406.129,59.590Q406.129,59.590 399.91,59.562 393.69,59.534 385.89,59.504 378.09,59.474 369.88,59.445 361.67,59.415 353.37,59.385 345.06,59.355 336.72,59.325 328.38,59.295 320.04,59.265 311.70,59.235 303.36,59.204 295.01,59.174 286.67,59.144 278.32,59.114 269.98,59.084 261.63,59.054 253.29,59.047 244.94,59.039 236.60,59.054 228.25,59.069 219.91,59.083 211.57,59.098 203.22,59.113 194.88,59.128 186.53,59.143 178.19,59.157 169.84,59.172 161.50,59.187 153.15,59.202 144.81,59.216 136.46,59.231 128.12,59.246 119.77,59.261 111.43,59.276 103.08,59.290 94.74,59.305 86.40,59.320 78.05,59.335 69.71,59.350 61.36,59.364 53.02,59.379 44.67,59.394 36.33,59.409 27.98,59.424 19.61,59.434 11.25,59.444 7.17,57.709 3.09,55.974 1.94,52.629 0.79,49.283 0.59,45.753 0.40,42.222 0.41,38.726 0.42,35.230 0.39,31.738 0.35,28.245 0.24,24.753 0.12,21.260 0.01,17.767 -0.104,14.274 -0.198,10.713 -0.292,7.151 1.54,4.245 3.38,1.339 10.36,0.521 17.35,-0.297 25.31,-0.434 33.28,-0.570 41.54,-0.588 49.79,-0.605 58.12,-0.594 66.45,-0.582 74.80,-0.563 83.15,-0.544 91.50,-0.523 99.86,-0.501 108.22,-0.480 116.57,-0.458 124.93,-0.436 133.28,-0.415 141.64,-0.393 150.00,-0.371 158.35,-0.350 166.71,-0.328 175.07,-0.306 183.42,-0.284 191.78,-0.262 200.14,-0.241 208.49,-0.219 216.85,-0.197 225.20,-0.175 233.56,-0.154 241.92,-0.154 250.27,-0.155 258.63,-0.178 266.99,-0.201 275.34,-0.224 283.70,-0.247 292.06,-0.270 300.41,-0.293 308.77,-0.316 317.13,-0.339 325.48,-0.362 333.84,-0.386 342.20,-0.409 350.55,-0.432 358.91,-0.455 367.26,-0.478 375.62,-0.501 383.98,-0.524 392.33,-0.547 400.69,-0.570 409.05,-0.593 417.40,-0.616 425.76,-0.639 434.12,-0.662 442.47,-0.685 450.83,-0.708 459.19,-0.731 467.54,-0.755 475.92,-0.773 484.30,-0.791 488.39,0.951 492.48,2.692 493.59,6.063 494.70,9.434 494.85,12.996 494.99,16.558 494.93,20.086 494.87,23.615 494.86,27.141 494.85,30.667 494.92,34.196 494.98,37.724 495.05,41.252 495.11,44.781 495.16,48.374 495.20,51.966 493.35,54.875 491.50,57.783 484.53,58.596 477.55,59.410 469.59,59.539 461.63,59.668 453.39,59.678 445.15,59.688 436.83,59.668 428.51,59.648 420.17,59.621 411.83,59.593 403.49,59.564 395.15,59.534 386.80,59.505 378.46,59.475 370.11,59.445 361.77,59.415 353.42,59.385 345.08,59.355 336.74,59.325 328.39,59.295 320.05,59.265 311.70,59.235 303.36,59.204 295.01,59.174 286.67,59.144 278.32,59.114 269.98,59.084 261.63,59.054 253.29,59.047 244.94,59.039 236.60,59.054 228.25,59.069 217.05,59.081 205.85,59.093 205.68,59.064 205.50,59.034 205.34,58.950 205.18,58.866 205.06,58.735 204.93,58.604 204.86,58.441 204.78,58.277 204.76,58.098 204.74,57.920 204.78,57.744 204.82,57.568 204.91,57.414 205.01,57.260 205.14,57.144 205.28,57.027 205.45,56.961 205.62,56.895 205.80,56.885 205.98,56.875 206.15,56.924 206.32,56.972 206.47,57.073 206.62,57.174 206.73,57.318 206.84,57.461 206.89,57.632 206.95,57.802 206.95,57.982 206.95,58.162 206.89,58.332 206.84,58.503 206.73,58.646 206.62,58.789 206.47,58.890 206.32,58.991 206.15,59.039 205.97,59.087 205.79,59.077 205.61,59.067 205.45,59.000 205.28,58.933 205.14,58.816 205.01,58.700 204.91,58.546 204.82,58.391 204.78,58.216 204.74,58.040 204.76,57.861 204.78,57.682 204.86,57.519 204.93,57.356 205.06,57.225 205.18,57.095 205.34,57.011 205.50,56.927 205.68,56.898 205.86,56.869 205.86,56.869 205.86,56.869 217.06,56.901 228.26,56.934 236.60,56.964 244.95,56.994 253.29,57.002 261.64,57.009 269.98,56.995 278.32,56.980 286.67,56.965 295.01,56.950 303.36,56.936 311.70,56.921 320.05,56.906 328.39,56.891 336.74,56.876 345.08,56.862 353.43,56.847 361.77,56.832 370.12,56.817 378.46,56.802 386.80,56.787 395.15,56.772 403.49,56.757 411.83,56.741 420.17,56.724 428.51,56.707 436.82,56.682 445.13,56.657 453.35,56.603 461.57,56.548 469.41,56.381 477.25,56.213 483.47,55.820 489.69,55.426 490.84,53.555 491.98,51.684 492.08,48.221 492.18,44.758 492.31,41.232 492.43,37.706 492.54,34.182 492.66,30.659 492.67,27.147 492.69,23.635 492.56,20.175 492.44,16.715 492.17,13.486 491.90,10.257 491.21,7.611 490.52,4.966 487.36,3.728 484.21,2.490 475.87,2.473 467.54,2.456 459.19,2.434 450.83,2.412 442.47,2.391 434.12,2.369 425.76,2.347 417.40,2.325 409.05,2.303 400.69,2.282 392.33,2.260 383.98,2.238 375.62,2.216 367.26,2.195 358.91,2.173 350.55,2.151 342.20,2.129 333.84,2.108 325.48,2.086 317.13,2.064 308.77,2.042 300.41,2.021 292.06,1.999 283.70,1.977 275.34,1.955 266.99,1.933 258.63,1.912 250.27,1.890 241.92,1.891 233.56,1.891 225.20,1.914 216.85,1.937 208.49,1.960 200.14,1.983 191.78,2.007 183.42,2.030 175.07,2.053 166.71,2.076 158.35,2.099 150.00,2.122 141.64,2.145 133.28,2.168 124.93,2.191 116.57,2.214 108.22,2.237 99.86,2.261 91.51,2.284 83.15,2.308 74.80,2.334 66.45,2.359 58.13,2.392 49.80,2.426 41.57,2.488 33.34,2.550 25.49,2.725 17.64,2.900 11.42,3.297 5.19,3.694 4.06,5.549 2.93,7.405 2.87,10.831 2.82,14.256 2.75,17.749 2.68,21.243 2.61,24.733 2.54,28.223 2.57,31.701 2.61,35.180 2.78,38.605 2.95,42.030 3.27,45.226 3.58,48.422 4.31,51.043 5.03,53.664 8.19,54.913 11.34,56.162 19.66,56.188 27.99,56.213 36.33,56.243 44.67,56.273 53.02,56.303 61.36,56.333 69.71,56.363 78.05,56.393 86.40,56.423 94.74,56.453 103.09,56.484 111.43,56.514 119.78,56.544 128.12,56.574 136.47,56.604 144.81,56.634 153.16,56.664 161.50,56.694 169.84,56.724 178.19,56.754 186.53,56.784 194.88,56.814 203.22,56.844 211.57,56.874 219.91,56.904 228.26,56.934 236.60,56.964 244.95,56.994 253.29,57.002 261.64,57.009 269.98,56.995 278.32,56.980 286.67,56.965 295.01,56.950 303.36,56.936 311.70,56.921 320.04,56.906 328.39,56.891 336.72,56.876 345.06,56.862 353.37,56.847 361.68,56.832 369.88,56.817 378.09,56.802 385.89,56.787 393.69,56.772 399.91,56.755 406.13,56.738 406.30,56.759 406.47,56.780 406.63,56.841 406.79,56.902 406.93,57.000 407.07,57.098 407.19,57.226 407.30,57.355 407.38,57.507 407.46,57.660 407.50,57.826 407.54,57.993 407.54,58.165 407.54,58.337 407.50,58.504 407.46,58.671 407.38,58.823 407.30,58.975 407.18,59.104 407.07,59.232 406.93,59.330 406.79,59.427 406.63,59.488 406.47,59.549 406.30,59.569 Z" fill="#cecece" stroke="#cecece" stroke-width="2" pointer-events="none"/></g><text font-size="38.757199466077836px" font-family="Caveat Brush" font-weight="normal" line-height="38.757199466077836px" letter-spacing="-0.03em" text-align="left" dominant-baseline="mathematical" alignment-baseline="mathematical" text-anchor="start" fill="#cecece" transform="translate(103.62, 159.43) rotate(0.00, 55.00, 24.50)"><tspan y="19.378599733038918px" x="4">site.com
</tspan></text><g id="31ddc19f-55db-44f9-1e84-d4aaf9d71970_svg" class="tl-centered-g" transform="translate(102.64, 231.95) rotate(0.00, 237.96, 1.43)"><defs><mask id="31ddc19f-55db-44f9-1e84-d4aaf9d71970_clip"><rect x="-100" y="-100" width="675.92" height="202.86" fill="white"/><rect x="237.96" y="1.43" width="0" height="0" rx="4" ry="4" fill="black" opacity="1"/></mask></defs><g pointer-events="none" opacity="1" mask=""><path d="M-0.006,1.944Q-0.006,1.944 59.48,1.624 118.97,1.304 178.46,0.974 237.95,0.644 297.44,0.307 356.93,-0.030 416.42,-0.372 475.91,-0.715 476.03,-0.697 476.14,-0.679 476.24,-0.625 476.34,-0.571 476.42,-0.488 476.50,-0.405 476.55,-0.300 476.60,-0.195 476.62,-0.080 476.63,0.034 476.61,0.147 476.58,0.261 476.52,0.360 476.46,0.459 476.38,0.535 476.29,0.610 476.18,0.654 476.07,0.697 475.96,0.704 475.84,0.711 475.73,0.681 475.62,0.650 475.52,0.586 475.43,0.522 475.36,0.430 475.29,0.338 475.25,0.229 475.21,0.120 475.21,0.004 475.21,-0.111 475.25,-0.221 475.28,-0.331 475.35,-0.423 475.42,-0.516 475.52,-0.581 475.61,-0.647 475.72,-0.678 475.83,-0.710 475.95,-0.704 476.07,-0.699 476.17,-0.657 476.28,-0.614 476.37,-0.540 476.46,-0.466 476.52,-0.367 476.58,-0.268 476.60,-0.156 476.63,-0.043 476.62,0.072 476.61,0.187 476.56,0.292 476.51,0.398 476.43,0.482 476.35,0.566 476.25,0.621 476.15,0.676 476.03,0.695 475.92,0.715 475.92,0.715 475.92,0.715 416.43,1.087 356.94,1.460 297.45,1.838 237.96,2.216 178.47,2.601 118.98,2.986 59.49,3.381 0.00,3.776 -0.104,3.763 -0.214,3.750 -0.317,3.712 -0.421,3.673 -0.512,3.611 -0.603,3.549 -0.677,3.467 -0.751,3.385 -0.802,3.287 -0.854,3.190 -0.881,3.083 -0.908,2.976 -0.909,2.865 -0.910,2.755 -0.884,2.648 -0.858,2.540 -0.807,2.442 -0.757,2.344 -0.684,2.261 -0.611,2.178 -0.521,2.115 -0.430,2.052 -0.327,2.012 -0.224,1.972 -0.115,1.958 Z" fill="#cecece" stroke="#cecece" stroke-width="2.11" stroke-dasharray="none" stroke-dashoffset="none" stroke-linecap="round" stroke-linejoin="round" pointer-events="stroke"/></g></g><g id="72a88195-52eb-40e0-1825-a55dcf5861df_svg" class="tl-centered-g" transform="translate(292.39, 255.28) rotate(0.00, 37.30, 34.35)"><path d="M71.011,42.222Q71.011,42.222 68.63,46.875 66.26,51.529 63.39,54.447 60.53,57.365 55.94,59.978 51.36,62.590 45.12,63.885 38.87,65.181 31.73,64.134 24.59,63.088 18.07,59.120 11.55,55.153 7.54,48.598 3.54,42.043 3.56,34.296 3.57,26.549 7.95,19.686 12.33,12.823 19.93,8.777 27.53,4.730 36.19,4.478 44.84,4.226 52.26,7.460 59.68,10.694 64.35,16.120 69.01,21.546 70.58,27.566 72.15,33.586 71.23,38.930 70.31,44.273 67.98,48.290 65.65,52.307 62.98,54.922 60.30,57.538 58.08,59.010 " stroke="none" fill="#345246" pointer-events="none"/><path d="M71.020,42.226Q71.020,42.226 69.65,47.411 68.28,52.596 65.21,55.786 62.13,58.977 57.26,61.712 52.38,64.448 45.81,65.801 39.24,67.154 31.74,66.066 24.25,64.979 17.38,60.832 10.50,56.685 6.22,49.770 1.94,42.856 1.88,34.626 1.82,26.395 6.36,19.092 10.91,11.788 18.85,7.471 26.79,3.153 35.83,2.822 44.86,2.491 52.65,5.817 60.44,9.143 65.40,14.814 70.37,20.485 72.10,26.850 73.83,33.215 72.91,38.908 71.99,44.600 69.47,48.837 66.94,53.073 63.96,55.654 60.98,58.234 58.42,59.362 55.85,60.490 55.85,60.486 55.85,60.481 55.84,60.477 55.84,60.473 57.73,58.657 59.63,56.842 61.99,54.191 64.36,51.541 66.49,47.743 68.62,43.945 69.55,38.951 70.47,33.957 69.07,28.282 67.66,22.606 63.29,17.425 58.92,12.244 51.87,9.103 44.82,5.962 36.55,6.134 28.28,6.307 21.01,10.082 13.74,13.858 9.53,20.281 5.33,26.703 5.23,33.967 5.14,41.230 8.87,47.426 12.59,53.622 18.76,57.409 24.93,61.196 31.72,62.202 38.51,63.208 44.42,61.970 50.34,60.733 54.63,58.243 58.92,55.753 61.58,53.108 64.24,50.462 67.62,46.340 Z" fill="#36a64c" stroke="#36a64c" stroke-width="3.5" pointer-events="none" stroke-linecap="round" stroke-linejoin="round"/></g><g id="0fa32367-f6fd-4116-245a-4b177d865e44_svg" class="tl-centered-g" transform="translate(231.44, 362.83) rotate(0.00, 32.61, 31.59)"><path d="M52.072,5.719Q52.072,5.719 56.70,9.039 61.34,12.358 63.41,16.370 65.49,20.383 66.40,25.849 67.32,31.314 66.07,37.701 64.82,44.088 60.62,50.140 56.42,56.192 49.36,60.151 42.30,64.111 33.68,64.370 25.06,64.628 17.14,60.551 9.22,56.474 4.41,48.927 -0.408,41.380 -0.664,32.533 -0.921,23.686 3.23,16.106 7.39,8.525 14.38,4.071 21.38,-0.382 29.07,-1.182 36.75,-1.981 43.35,0.186 49.94,2.353 54.55,6.178 59.15,10.003 61.63,14.238 64.12,18.473 64.94,22.103 65.77,25.732 65.58,28.201 65.40,30.670 65.39,30.670 65.39,30.671 65.38,30.671 65.38,30.672 64.70,28.459 64.03,26.246 62.83,23.107 61.63,19.967 59.26,16.274 56.90,12.581 52.83,9.079 48.76,5.578 42.85,3.511 36.95,1.445 30.00,2.028 23.05,2.611 16.66,6.495 10.27,10.380 6.38,17.121 2.50,23.863 2.57,31.819 2.63,39.776 6.84,46.648 11.05,53.521 18.12,57.319 25.20,61.117 32.97,61.008 40.75,60.899 47.14,57.432 53.54,53.966 57.36,48.599 61.18,43.231 62.33,37.550 63.48,31.869 62.66,27.014 61.84,22.159 60.13,18.643 58.41,15.128 55.23,10.431 Z" fill="#cecece" stroke="#cecece" stroke-width="3.5" pointer-events="none" stroke-linecap="round" stroke-linejoin="round"/></g><g id="d2beb661-ff60-4e46-1408-53beff735e67_svg" class="tl-centered-g" transform="translate(355.12, 360.89) rotate(0.00, 38.36, 35.45)"><path d="M74.378,46.839Q74.378,46.839 71.87,50.937 69.37,55.034 66.66,57.654 63.94,60.274 59.74,62.763 55.54,65.252 49.80,66.836 44.07,68.419 37.23,68.240 30.39,68.061 23.46,65.457 16.53,62.853 10.99,57.694 5.45,52.536 2.82,45.469 0.19,38.403 1.45,30.815 2.71,23.227 7.83,16.861 12.96,10.495 20.80,6.849 28.65,3.203 37.35,2.998 46.05,2.794 53.68,5.774 61.31,8.753 66.51,13.892 71.71,19.030 74.02,24.997 76.33,30.965 76.10,36.597 75.88,42.228 73.95,46.802 72.02,51.376 69.34,54.650 66.67,57.923 64.04,60.004 61.41,62.085 59.39,63.244 " stroke="none" fill="#345246" pointer-events="none"/><path d="M74.386,46.845Q74.386,46.845 72.71,51.458 71.04,56.071 68.24,58.962 65.44,61.852 61.01,64.440 56.57,67.028 50.57,68.671 44.56,70.314 37.43,70.131 30.30,69.949 23.07,67.251 15.84,64.553 10.00,59.171 4.17,53.788 1.34,46.346 -1.490,38.905 -0.236,30.868 1.01,22.832 6.33,16.088 11.65,9.344 19.81,5.476 27.97,1.607 37.02,1.337 46.06,1.066 54.02,4.118 61.98,7.171 67.47,12.512 72.96,17.853 75.45,24.126 77.95,30.399 77.77,36.367 77.59,42.336 75.58,47.190 73.56,52.044 70.66,55.437 67.76,58.830 64.86,60.800 61.95,62.769 59.66,63.590 57.37,64.411 57.36,64.407 57.36,64.403 57.36,64.398 57.36,64.394 59.11,62.897 60.87,61.401 63.22,59.208 65.57,57.016 68.03,53.862 70.49,50.708 72.33,46.415 74.16,42.121 74.44,36.826 74.71,31.531 72.58,25.869 70.46,20.207 65.54,15.271 60.63,10.336 53.33,7.429 46.04,4.522 37.68,4.660 29.33,4.799 21.79,8.222 14.26,11.645 9.33,17.634 4.41,23.622 3.14,30.761 1.88,37.901 4.31,44.592 6.74,51.284 11.98,56.218 17.23,61.152 23.85,63.662 30.47,66.172 37.02,66.348 43.57,66.524 49.04,65.001 54.51,63.477 58.47,61.086 62.44,58.695 65.07,56.346 67.70,53.997 71.03,50.416 Z" fill="#36a64c" stroke="#36a64c" stroke-width="3.5" pointer-events="none" stroke-linecap="round" stroke-linejoin="round"/></g><g id="c82bf294-8f4f-48b9-3268-d6967a63c2e7_svg" class="tl-centered-g" transform="translate(162.49, 460.02) rotate(0.00, 30.65, 33.88)"><path d="M64.012,30.521Q64.012,30.521 64.77,36.287 65.53,42.052 63.83,46.390 62.14,50.727 58.60,55.214 55.06,59.702 49.35,63.249 43.63,66.797 36.13,67.954 28.63,69.112 20.70,66.688 12.77,64.265 6.52,58.034 0.28,51.803 -2.163,42.961 -4.607,34.120 -2.161,25.091 0.28,16.062 7.03,9.564 13.77,3.066 22.71,0.931 31.65,-1.204 40.13,1.244 48.60,3.693 54.54,9.459 60.47,15.225 63.02,22.339 65.58,29.453 65.14,36.136 64.70,42.820 62.36,48.018 60.01,53.216 56.88,56.573 53.76,59.930 50.89,61.655 48.02,63.381 46.04,63.945 44.07,64.510 44.07,64.505 44.07,64.501 44.06,64.496 44.06,64.492 45.58,63.288 47.09,62.084 49.40,60.093 51.71,58.102 54.34,54.939 56.96,51.775 59.12,47.133 61.28,42.490 61.79,36.483 62.29,30.476 60.12,24.015 57.94,17.555 52.69,12.240 47.44,6.925 39.82,4.560 32.20,2.195 24.08,3.968 15.96,5.742 9.76,11.496 3.56,17.250 1.21,25.353 -1.142,33.456 0.92,41.454 2.99,49.452 8.52,55.135 14.05,60.819 21.14,63.076 28.23,65.333 34.94,64.350 41.65,63.366 46.74,60.214 51.82,57.062 54.91,53.058 58.00,49.054 59.43,45.358 60.87,41.662 62.43,36.091 Z" fill="#cecece" stroke="#cecece" stroke-width="3.5" pointer-events="none" stroke-linecap="round" stroke-linejoin="round"/></g><g id="ed4727c6-b96a-4fcb-0e6f-3d49cfd6e37b_svg" class="tl-centered-g" transform="translate(429.04, 457.08) rotate(0.00, 30.65, 33.88)"><path d="M33.781,3.116Q33.781,3.116 39.73,4.102 45.68,5.087 49.38,8.458 53.08,11.828 56.00,17.344 58.91,22.859 59.64,30.217 60.36,37.574 57.64,45.259 54.92,52.944 48.56,58.485 42.20,64.026 33.74,65.017 25.27,66.009 17.58,61.631 9.89,57.252 5.74,49.007 1.59,40.761 2.18,31.680 2.76,22.599 7.31,15.605 11.85,8.612 18.34,5.248 24.83,1.884 31.17,2.006 37.51,2.128 42.36,4.518 47.20,6.908 50.07,10.126 52.94,13.344 54.06,16.138 55.19,18.931 55.18,18.934 55.18,18.936 55.17,18.939 55.17,18.941 53.30,16.888 51.42,14.834 48.57,12.300 45.72,9.767 41.50,7.661 37.27,5.556 31.73,5.292 26.19,5.028 20.38,7.860 14.58,10.692 10.38,16.882 6.18,23.071 5.49,31.265 4.81,39.458 8.36,46.946 11.92,54.434 18.61,58.477 25.31,62.520 32.74,61.807 40.17,61.094 45.85,56.282 51.53,51.470 54.03,44.627 56.53,37.783 55.92,31.207 55.32,24.632 52.74,19.771 50.16,14.910 47.08,12.110 43.99,9.309 38.88,6.222 Z" fill="#cecece" stroke="#cecece" stroke-width="3.5" pointer-events="none" stroke-linecap="round" stroke-linejoin="round"/></g><g id="124149ce-21c3-40af-0123-a118338decd5_svg" class="tl-centered-g" transform="translate(288.91, 459.06) rotate(0.00, 38.64, 29.99)"><path d="M11.248,50.027Q11.248,50.027 8.46,45.862 5.67,41.698 4.59,38.155 3.51,34.612 3.51,30.028 3.50,25.444 5.40,20.311 7.31,15.179 11.67,10.448 16.03,5.718 22.73,2.651 29.44,-0.416 37.49,-0.653 45.54,-0.890 53.15,2.241 60.77,5.372 65.98,11.402 71.20,17.431 72.62,24.929 74.04,32.428 71.42,39.515 68.80,46.602 63.09,51.668 57.38,56.734 50.23,58.982 43.08,61.230 36.16,60.793 29.24,60.357 23.69,58.026 18.13,55.695 14.35,52.485 10.57,49.275 8.40,46.074 6.24,42.874 5.22,40.280 4.20,37.687 3.84,36.018 " stroke="none" fill="#345246" pointer-events="none"/><path d="M11.240,50.032Q11.240,50.032 7.52,46.472 3.81,42.912 2.53,39.091 1.26,35.270 1.29,30.334 1.33,25.399 3.37,19.907 5.41,14.415 10.02,9.384 14.63,4.353 21.67,1.100 28.71,-2.152 37.13,-2.438 45.55,-2.723 53.54,0.513 61.53,3.749 67.06,10.063 72.60,16.376 74.18,24.304 75.76,32.233 73.08,39.763 70.39,47.293 64.44,52.682 58.48,58.070 51.02,60.482 43.56,62.893 36.33,62.486 29.10,62.078 23.27,59.677 17.44,57.276 13.46,53.895 9.49,50.515 7.30,47.073 5.10,43.632 4.30,40.798 3.49,37.963 3.48,36.157 3.46,34.351 3.47,34.350 3.47,34.349 3.47,34.348 3.48,34.347 4.20,35.878 4.92,37.410 6.14,39.763 7.37,42.116 9.50,45.076 11.64,48.036 15.23,51.075 18.82,54.113 24.10,56.374 29.38,58.635 35.99,59.101 42.61,59.568 49.44,57.483 56.28,55.398 61.75,50.654 67.21,45.910 69.76,39.266 72.31,32.622 71.05,25.554 69.79,18.487 64.90,12.741 60.00,6.994 52.76,3.969 45.52,0.944 37.85,1.132 30.17,1.320 23.80,4.201 17.42,7.082 13.31,11.513 9.20,15.943 7.44,20.716 5.67,25.489 5.72,29.722 5.77,33.955 6.65,37.220 7.54,40.485 9.39,45.253 Z" fill="#36a64c" stroke="#36a64c" stroke-width="3.5" pointer-events="none" stroke-linecap="round" stroke-linejoin="round"/></g><g id="51e348e5-95de-4516-393e-d8e23a175934_svg" class="tl-centered-g" transform="translate(281.00, 319.40) rotate(0.00, 15.04, 24.02)"><defs><mask id="51e348e5-95de-4516-393e-d8e23a175934_clip"><rect x="-100" y="-100" width="230.07" height="248.04" fill="white"/><rect x="15.03" y="24.02" width="0" height="0" rx="2" ry="2" fill="black" opacity="1"/></mask></defs><g pointer-events="none" opacity="1" mask=""><path d="M30.914,0.528Q30.914,0.528 27.12,6.516 23.34,12.504 19.56,18.497 15.78,24.489 12.01,30.485 8.23,36.481 4.46,42.479 0.69,48.478 0.61,48.578 0.52,48.678 0.40,48.745 0.29,48.811 0.16,48.838 0.03,48.864 -0.102,48.847 -0.235,48.831 -0.355,48.772 -0.475,48.714 -0.570,48.621 -0.665,48.527 -0.726,48.408 -0.786,48.289 -0.805,48.157 -0.824,48.025 -0.801,47.894 -0.777,47.763 -0.712,47.646 -0.648,47.529 -0.549,47.439 -0.451,47.349 -0.329,47.296 -0.206,47.242 -0.074,47.230 0.05,47.218 0.18,47.249 0.31,47.280 0.43,47.350 0.54,47.421 0.62,47.524 0.71,47.628 0.76,47.752 0.80,47.877 0.81,48.010 0.81,48.144 0.78,48.272 0.74,48.400 0.66,48.509 0.58,48.618 0.48,48.696 0.37,48.775 0.24,48.816 0.11,48.856 -0.015,48.854 -0.148,48.851 -0.274,48.806 -0.399,48.762 -0.504,48.679 -0.609,48.596 -0.682,48.485 -0.754,48.373 -0.788,48.244 -0.821,48.114 -0.812,47.981 -0.802,47.848 -0.750,47.725 -0.699,47.602 -0.699,47.602 -0.699,47.602 3.04,41.591 6.79,35.579 10.54,29.565 14.28,23.551 18.02,17.533 21.76,11.516 25.49,5.494 29.22,-0.528 29.30,-0.621 29.37,-0.715 29.47,-0.787 29.56,-0.860 29.67,-0.907 29.78,-0.955 29.90,-0.974 30.02,-0.994 30.14,-0.985 30.26,-0.976 30.37,-0.939 30.49,-0.901 30.59,-0.837 30.69,-0.774 30.77,-0.688 30.86,-0.601 30.92,-0.498 30.98,-0.394 31.01,-0.279 31.05,-0.164 31.05,-0.044 31.06,0.076 31.03,0.193 31.01,0.311 30.96,0.419 Z" fill="#cecece" stroke="#cecece" stroke-width="2.11" stroke-dasharray="none" stroke-dashoffset="none" stroke-linecap="round" stroke-linejoin="round" pointer-events="stroke"/></g></g><g id="a53f5447-b858-45a7-311b-77688eb79a35_svg" class="tl-centered-g" transform="translate(347.95, 319.59) rotate(0.00, 13.84, 22.69)"><defs><mask id="a53f5447-b858-45a7-311b-77688eb79a35_clip"><rect x="-100" y="-100" width="227.67" height="245.38" fill="white"/><rect x="13.83" y="22.69" width="0" height="0" rx="2" ry="2" fill="black" opacity="1"/></mask></defs><g pointer-events="none" opacity="1" mask=""><path d="M0.750,-0.457Q0.750,-0.457 4.17,5.236 7.59,10.929 11.03,16.617 14.46,22.305 17.90,27.989 21.34,33.673 24.79,39.354 28.23,45.035 28.27,45.135 28.31,45.234 28.32,45.341 28.32,45.448 28.30,45.551 28.27,45.655 28.21,45.744 28.15,45.833 28.06,45.898 27.98,45.963 27.88,45.998 27.78,46.033 27.67,46.033 27.56,46.034 27.46,46.000 27.36,45.967 27.27,45.903 27.19,45.838 27.13,45.750 27.07,45.662 27.04,45.558 27.01,45.455 27.01,45.348 27.02,45.241 27.06,45.142 27.10,45.042 27.17,44.960 27.23,44.878 27.33,44.822 27.42,44.766 27.52,44.743 27.63,44.719 27.73,44.730 27.84,44.741 27.94,44.785 28.03,44.830 28.11,44.903 28.19,44.976 28.24,45.071 28.29,45.165 28.31,45.271 28.33,45.376 28.31,45.482 28.29,45.588 28.24,45.683 28.19,45.778 28.12,45.852 28.04,45.926 27.94,45.972 27.85,46.017 27.74,46.029 27.63,46.041 27.53,46.019 27.42,45.997 27.33,45.942 27.24,45.887 27.17,45.806 27.10,45.725 27.10,45.725 27.10,45.725 23.63,40.061 20.15,34.397 16.68,28.736 13.20,23.075 9.72,17.418 6.23,11.761 2.74,6.109 -0.750,0.457 -0.794,0.361 -0.837,0.264 -0.857,0.160 -0.876,0.056 -0.870,-0.049 -0.864,-0.155 -0.833,-0.256 -0.802,-0.357 -0.748,-0.448 -0.693,-0.539 -0.619,-0.614 -0.544,-0.689 -0.454,-0.744 -0.363,-0.799 -0.262,-0.831 -0.162,-0.863 -0.056,-0.870 0.05,-0.877 0.15,-0.858 0.25,-0.839 0.35,-0.796 0.45,-0.753 0.53,-0.688 0.61,-0.623 0.68,-0.540 Z" fill="#36a64c" stroke="#36a64c" stroke-width="2.11" stroke-dasharray="none" stroke-dashoffset="none" stroke-linecap="round" stroke-linejoin="round" pointer-events="stroke"/></g></g><g id="6f2fde05-e58b-4246-23ca-9c0d47e9ba86_svg" class="tl-centered-g" transform="translate(212.49, 420.51) rotate(0.00, 16.59, 23.56)"><defs><mask id="6f2fde05-e58b-4246-23ca-9c0d47e9ba86_clip"><rect x="-100" y="-100" width="233.18" height="247.12" fill="white"/><rect x="16.59" y="23.56" width="0" height="0" rx="2" ry="2" fill="black" opacity="1"/></mask></defs><g pointer-events="none" opacity="1" mask=""><path d="M33.877,0.491Q33.877,0.491 29.69,6.357 25.51,12.223 21.34,18.095 17.16,23.967 13.00,29.844 8.83,35.720 4.67,41.601 0.51,47.481 0.44,47.553 0.37,47.626 0.28,47.672 0.19,47.717 0.08,47.732 -0.011,47.747 -0.111,47.729 -0.211,47.710 -0.299,47.661 -0.388,47.612 -0.457,47.537 -0.525,47.462 -0.566,47.370 -0.607,47.277 -0.616,47.176 -0.625,47.075 -0.602,46.976 -0.578,46.878 -0.524,46.792 -0.470,46.706 -0.392,46.641 -0.314,46.577 -0.219,46.541 -0.124,46.506 -0.022,46.502 0.07,46.498 0.17,46.527 0.27,46.556 0.35,46.614 0.43,46.673 0.49,46.755 0.55,46.836 0.59,46.933 0.62,47.030 0.61,47.131 0.61,47.232 0.58,47.328 0.54,47.423 0.48,47.503 0.42,47.583 0.33,47.638 0.25,47.694 0.15,47.719 0.05,47.744 -0.045,47.737 -0.146,47.730 -0.239,47.690 -0.333,47.651 -0.409,47.584 -0.485,47.517 -0.536,47.429 -0.586,47.342 -0.606,47.242 -0.626,47.143 -0.614,47.042 -0.601,46.941 -0.557,46.850 -0.512,46.759 -0.512,46.759 -0.513,46.759 3.62,40.859 7.75,34.960 11.88,29.056 16.01,23.153 20.13,17.245 24.25,11.337 28.36,5.423 32.48,-0.491 32.55,-0.567 32.62,-0.644 32.70,-0.701 32.79,-0.759 32.88,-0.794 32.98,-0.830 33.08,-0.841 33.18,-0.853 33.29,-0.839 33.39,-0.826 33.48,-0.789 33.58,-0.751 33.66,-0.692 33.75,-0.633 33.81,-0.555 33.88,-0.478 33.93,-0.386 33.98,-0.295 34.00,-0.195 34.02,-0.095 34.02,0.008 34.02,0.111 34.00,0.210 33.97,0.310 33.92,0.401 Z" fill="#cecece" stroke="#cecece" stroke-width="2.11" stroke-dasharray="none" stroke-dashoffset="none" stroke-linecap="round" stroke-linejoin="round" pointer-events="stroke"/></g></g><g id="60741afd-ee81-42eb-20d0-e88fd21bf14b_svg" class="tl-centered-g" transform="translate(345.08, 425.69) rotate(0.00, 13.44, 18.32)"><defs><mask id="60741afd-ee81-42eb-20d0-e88fd21bf14b_clip"><rect x="-100" y="-100" width="226.88" height="236.63" fill="white"/><rect x="13.44" y="18.31" width="0" height="0" rx="2" ry="2" fill="black" opacity="1"/></mask></defs><g pointer-events="none" opacity="1" mask=""><path d="M27.655,0.569Q27.655,0.569 24.26,5.127 20.88,9.686 17.50,14.250 14.11,18.814 10.74,23.381 7.36,27.949 3.99,32.520 0.62,37.090 0.53,37.178 0.44,37.266 0.33,37.321 0.22,37.376 0.09,37.392 -0.029,37.407 -0.152,37.382 -0.276,37.357 -0.385,37.294 -0.493,37.231 -0.577,37.137 -0.660,37.042 -0.708,36.926 -0.757,36.810 -0.766,36.684 -0.775,36.559 -0.743,36.437 -0.711,36.315 -0.642,36.210 -0.574,36.105 -0.475,36.027 -0.376,35.949 -0.257,35.907 -0.139,35.865 -0.013,35.863 0.11,35.860 0.23,35.899 0.35,35.937 0.45,36.011 0.55,36.086 0.62,36.189 0.70,36.292 0.73,36.412 0.77,36.533 0.76,36.659 0.76,36.784 0.71,36.902 0.67,37.020 0.59,37.117 0.51,37.214 0.40,37.281 0.30,37.348 0.17,37.377 0.05,37.406 -0.070,37.394 -0.196,37.383 -0.311,37.332 -0.426,37.281 -0.518,37.196 -0.611,37.111 -0.672,37.001 -0.733,36.891 -0.755,36.767 -0.778,36.643 -0.759,36.518 -0.741,36.394 -0.684,36.282 -0.627,36.170 -0.627,36.170 -0.627,36.170 2.72,31.583 6.07,26.996 9.41,22.406 12.76,17.816 16.10,13.223 19.44,8.629 22.77,4.030 26.10,-0.569 26.18,-0.653 26.26,-0.738 26.36,-0.801 26.45,-0.864 26.56,-0.902 26.67,-0.940 26.79,-0.950 26.90,-0.961 27.02,-0.944 27.13,-0.926 27.24,-0.882 27.35,-0.838 27.44,-0.769 27.53,-0.701 27.61,-0.612 27.68,-0.523 27.73,-0.419 27.78,-0.315 27.81,-0.201 27.83,-0.088 27.83,0.028 27.83,0.144 27.80,0.255 27.76,0.367 27.71,0.468 Z" fill="#36a64c" stroke="#36a64c" stroke-width="2.11" stroke-dasharray="none" stroke-dashoffset="none" stroke-linecap="round" stroke-linejoin="round" pointer-events="stroke"/></g></g><g id="eec48b46-e777-4571-24c3-aef939cfdd00_svg" class="tl-centered-g" transform="translate(416.46, 424.74) rotate(0.00, 14.60, 18.05)"><defs><mask id="eec48b46-e777-4571-24c3-aef939cfdd00_clip"><rect x="-100" y="-100" width="229.2" height="236.1" fill="white"/><rect x="14.6" y="18.05" width="0" height="0" rx="2" ry="2" fill="black" opacity="1"/></mask></defs><g pointer-events="none" opacity="1" mask=""><path d="M0.777,-0.629Q0.777,-0.629 4.40,3.903 8.02,8.436 11.66,12.963 15.29,17.490 18.92,22.013 22.56,26.537 26.20,31.057 29.84,35.577 29.91,35.694 29.97,35.811 30.00,35.943 30.03,36.075 30.01,36.208 29.99,36.341 29.93,36.462 29.87,36.583 29.78,36.678 29.68,36.773 29.56,36.833 29.44,36.894 29.31,36.912 29.18,36.931 29.04,36.906 28.91,36.881 28.79,36.815 28.68,36.749 28.59,36.649 28.50,36.550 28.44,36.426 28.39,36.303 28.38,36.169 28.37,36.035 28.40,35.904 28.43,35.774 28.50,35.660 28.58,35.547 28.68,35.462 28.78,35.378 28.91,35.331 29.04,35.284 29.17,35.280 29.31,35.276 29.43,35.316 29.56,35.355 29.67,35.433 29.78,35.511 29.86,35.620 29.94,35.729 29.98,35.857 30.02,35.985 30.02,36.120 30.01,36.254 29.97,36.381 29.92,36.507 29.84,36.612 29.75,36.717 29.64,36.790 29.53,36.862 29.40,36.895 29.27,36.928 29.13,36.917 29.00,36.907 28.87,36.854 28.75,36.801 28.65,36.712 28.55,36.622 28.55,36.622 28.55,36.623 24.89,32.118 21.23,27.613 17.57,23.112 13.90,18.610 10.24,14.112 6.57,9.614 2.89,5.122 -0.777,0.629 -0.841,0.527 -0.905,0.424 -0.943,0.310 -0.980,0.195 -0.990,0.075 -0.999,-0.045 -0.979,-0.164 -0.959,-0.283 -0.911,-0.393 -0.863,-0.504 -0.791,-0.600 -0.718,-0.696 -0.624,-0.772 -0.530,-0.847 -0.421,-0.899 -0.312,-0.950 -0.194,-0.973 -0.076,-0.997 0.04,-0.991 0.16,-0.986 0.28,-0.952 0.39,-0.918 0.50,-0.857 0.60,-0.796 0.69,-0.713 Z" fill="#cecece" stroke="#cecece" stroke-width="2.11" stroke-dasharray="none" stroke-dashoffset="none" stroke-linecap="round" stroke-linejoin="round" pointer-events="stroke"/></g></g><text font-size="116.05831093193783px" font-family="Caveat Brush" font-weight="normal" line-height="116.05831093193783px" letter-spacing="-0.03em" text-align="center" dominant-baseline="mathematical" alignment-baseline="mathematical" text-anchor="middle" fill="#ebbb38" transform="translate(697.71, 166.51) rotate(0.00, 329.00, 121.00)"><tspan y="58.02915546596891px" x="333">How does SSR
</tspan><tspan y="174.08746639790672px" x="333">
work with React?
</tspan></text></svg>