<svg xmlns="http://www.w3.org/2000/svg" viewBox="0 0 1504 688" width="1472" height="656" style="background-color: transparent;"><defs><style>@import url('https://fonts.googleapis.com/css2?family=Caveat+Brush&amp;family=Source+Code+Pro&amp;family=Source+Sans+Pro&amp;family=Crimson+Pro&amp;display=block');</style></defs><g text-align="center" text-anchor="middle" fill="#cecece" transform="translate(134.46, 186.82) rotate(0.00, 104.00, 70.00)"><text y="48" letter-spacing="-2.88" font-size="96px" font-family="Caveat Brush" text-align="center" alignment-baseline="central" transform="scale(1.3577142015322219)" x="76.59">MPA</text></g><g text-align="center" text-anchor="middle" fill="#cecece" transform="translate(627.87, 192.77) rotate(0.00, 88.00, 70.00)"><text y="48" letter-spacing="-2.88" font-size="96px" font-family="Caveat Brush" text-align="center" alignment-baseline="central" transform="scale(1.3577142015322219)" x="64.81">SPA</text></g><g text-align="center" text-anchor="middle" fill="#cecece" transform="translate(582.52, 346.60) rotate(0.00, 136.00, 24.00)"><text y="14" letter-spacing="-0.84" font-size="28px" font-family="Caveat Brush" text-align="center" alignment-baseline="central" transform="scale(1.3577142015322219)" x="100.16">Client Side Rendering</text></g><g id="53d00650-33d8-43b9-1254-3af231717719_svg" class="tl-centered-g" transform="translate(399.38, 284.16) rotate(0.00, 94.62, 0.50)"><defs><mask id="53d00650-33d8-43b9-1254-3af231717719_clip"><rect x="-100" y="-100" width="389.23" height="201" fill="white"/><rect x="94.61" y="0.13" width="0" height="0" rx="4" ry="4" fill="black" opacity="1"/></mask></defs><g pointer-events="none" opacity="1" mask=""><path d="M 0.00,-0.85 Q 0.00,-0.85 23.40,-0.78 46.81,-0.71 70.21,-0.64 93.62,-0.58 117.02,-0.53 140.42,-0.47 163.83,-0.42 187.23,-0.38 187.33,-0.36 187.44,-0.34 187.53,-0.29 187.62,-0.25 187.69,-0.17 187.76,-0.10 187.80,-0.01 187.84,0.08 187.85,0.18 187.86,0.28 187.84,0.38 187.82,0.48 187.77,0.57 187.71,0.65 187.64,0.72 187.56,0.79 187.46,0.82 187.37,0.86 187.27,0.87 187.16,0.87 187.07,0.85 186.97,0.82 186.88,0.76 186.80,0.70 186.74,0.62 186.68,0.54 186.64,0.44 186.61,0.35 186.61,0.24 186.61,0.14 186.64,0.05 186.68,-0.04 186.74,-0.12 186.80,-0.20 186.88,-0.26 186.97,-0.32 187.07,-0.35 187.17,-0.37 187.27,-0.37 187.37,-0.36 187.46,-0.32 187.56,-0.29 187.64,-0.22 187.71,-0.15 187.77,-0.07 187.82,0.01 187.84,0.11 187.86,0.21 187.85,0.31 187.84,0.42 187.80,0.51 187.76,0.60 187.68,0.67 187.61,0.75 187.52,0.80 187.43,0.84 187.33,0.86 187.23,0.88 187.23,0.88 187.23,0.88 163.83,0.86 140.42,0.85 117.02,0.84 93.61,0.83 70.21,0.83 46.80,0.83 23.40,0.84 -0.00,0.85 -0.10,0.84 -0.20,0.83 -0.30,0.79 -0.39,0.75 -0.48,0.69 -0.56,0.63 -0.63,0.56 -0.70,0.48 -0.75,0.39 -0.80,0.30 -0.82,0.20 -0.84,0.10 -0.84,-0.00 -0.84,-0.10 -0.82,-0.20 -0.79,-0.30 -0.75,-0.39 -0.70,-0.48 -0.63,-0.56 -0.56,-0.64 -0.48,-0.69 -0.39,-0.75 -0.30,-0.79 -0.20,-0.83 -0.10,-0.84 Z" fill="#cecece" stroke="#cecece" stroke-width="2.11" stroke-dasharray="none" stroke-dashoffset="none" stroke-linecap="round" stroke-linejoin="round" pointer-events="stroke"/><g><path d="M 175.39,-7.765635120413631 L 189.23,0.2528736432839963 175.37,8.23435059463077" fill="none" stroke="#cecece" stroke-width="4.23" stroke-linecap="round" stroke-linejoin="round" pointer-events="none"/></g></g></g><g id="0ee1bb60-e2d9-4d54-1338-e88014686f8d_svg" class="tl-centered-g" transform="translate(850.75, 282.47) rotate(0.00, 129.14, 0.65)"><defs><mask id="0ee1bb60-e2d9-4d54-1338-e88014686f8d_clip"><rect x="-100" y="-100" width="458.27" height="201.29" fill="white"/><rect x="129.13" y="0.64" width="0" height="0" rx="4" ry="4" fill="black" opacity="1"/></mask></defs><g pointer-events="none" opacity="1" mask=""><path d="M 0.00,-0.94 Q 0.00,-0.94 32.03,-0.74 64.07,-0.54 96.10,-0.36 128.14,-0.17 160.17,0.00 192.21,0.18 224.24,0.36 256.28,0.53 256.40,0.55 256.52,0.57 256.62,0.63 256.73,0.69 256.81,0.77 256.90,0.86 256.95,0.97 257.00,1.08 257.01,1.20 257.02,1.33 257.00,1.44 256.97,1.56 256.91,1.67 256.84,1.77 256.75,1.85 256.66,1.93 256.54,1.97 256.43,2.01 256.31,2.02 256.19,2.03 256.07,1.99 255.95,1.96 255.85,1.89 255.75,1.82 255.68,1.73 255.61,1.63 255.57,1.51 255.53,1.40 255.53,1.28 255.53,1.16 255.57,1.04 255.61,0.93 255.69,0.83 255.76,0.73 255.86,0.67 255.96,0.60 256.08,0.57 256.20,0.53 256.32,0.54 256.44,0.55 256.55,0.59 256.66,0.64 256.76,0.72 256.85,0.80 256.91,0.90 256.97,1.01 257.00,1.13 257.02,1.24 257.01,1.36 257.00,1.49 256.94,1.60 256.89,1.71 256.81,1.79 256.72,1.88 256.62,1.94 256.51,1.99 256.39,2.01 256.27,2.03 256.27,2.03 256.27,2.03 224.23,1.89 192.20,1.74 160.16,1.60 128.13,1.46 96.10,1.32 64.06,1.19 32.03,1.06 -0.00,0.94 -0.11,0.92 -0.22,0.91 -0.33,0.87 -0.44,0.83 -0.53,0.76 -0.62,0.70 -0.70,0.61 -0.77,0.53 -0.82,0.43 -0.88,0.32 -0.90,0.21 -0.93,0.10 -0.93,-0.00 -0.93,-0.11 -0.90,-0.22 -0.87,-0.33 -0.82,-0.43 -0.77,-0.53 -0.69,-0.62 -0.62,-0.70 -0.52,-0.77 -0.43,-0.83 -0.32,-0.87 -0.22,-0.91 -0.10,-0.92 Z" fill="#cecece" stroke="#cecece" stroke-width="2.11" stroke-dasharray="none" stroke-dashoffset="none" stroke-linecap="round" stroke-linejoin="round" pointer-events="stroke"/><g><path d="M 244.46,-6.773449144226952 L 258.27,1.2959774218304811 244.38,9.226349436084636" fill="none" stroke="#cecece" stroke-width="4.23" stroke-linecap="round" stroke-linejoin="round" pointer-events="none"/></g></g></g><g id="7b46dbcf-8147-4efc-01a3-2a49d8bb646d_svg" class="tl-centered-g" transform="translate(16.00, 16.00) rotate(0.00, 736.00, 328.00)"><g pointer-events="none" stroke="transparent" stroke-width="4.23" stroke-linecap="round"><line x1="2.11" y1="2.11" x2="1469.88" y2="2.11" stroke-dasharray="0.03 6.46" stroke-dashoffset="0"/><line x1="1469.88" y1="2.11" x2="1469.88" y2="653.88" stroke-dasharray="0.03 6.48" stroke-dashoffset="0"/><line x1="1469.88" y1="653.88" x2="2.11" y2="653.88" stroke-dasharray="0.03 6.46" stroke-dashoffset="0"/><line x1="2.11" y1="653.88" x2="2.11" y2="2.11" stroke-dasharray="0.03 6.48" stroke-dashoffset="0"/></g></g><g text-align="center" text-anchor="middle" fill="#ebbb38" transform="translate(119.92, 344.65) rotate(0.00, 147.00, 26.50)"><text y="14" letter-spacing="-0.84" font-size="28px" font-family="Caveat Brush" text-align="center" alignment-baseline="central" transform="scale(1.5473618973839462)" x="95.00">aka "Dynamic Sites"</text></g><g text-align="center" text-anchor="middle" fill="#cecece" transform="translate(1158.37, 217.75) rotate(0.00, 105.50, 50.50)"><text y="24" letter-spacing="-1.44" font-size="48px" font-family="Caveat Brush" text-align="center" alignment-baseline="central" transform="scale(1.887299900242374)" x="55.89">Hybrid</text></g><g text-align="center" text-anchor="middle" fill="#cecece" transform="translate(1165.20, 320.50) rotate(0.00, 101.50, 29.50)"><text y="14" letter-spacing="-0.84" font-size="28px" font-family="Caveat Brush" text-align="center" alignment-baseline="central" transform="scale(1.7343687116220288)" x="58.52">Best of Both</text></g></svg>