<svg xmlns="http://www.w3.org/2000/svg" viewBox="0 0 1504 688" width="1472" height="656" style="background-color: transparent;"><defs><style>@import url('https://fonts.googleapis.com/css2?family=Caveat+Brush&amp;family=Source+Code+Pro&amp;family=Source+Sans+Pro&amp;family=Crimson+Pro&amp;display=block');</style></defs><g id="c286159d-3cd8-4d6d-2ca8-8004c36d8abf_svg" class="tl-centered-g" transform="translate(16.00, 16.00) rotate(0.00, 736.00, 328.00)"><g pointer-events="none" stroke="transparent" stroke-width="4.23" stroke-linecap="round"><line x1="2.11" y1="2.11" x2="1469.88" y2="2.11" stroke-dasharray="0.03 6.46" stroke-dashoffset="0"/><line x1="1469.88" y1="2.11" x2="1469.88" y2="653.88" stroke-dasharray="0.03 6.48" stroke-dashoffset="0"/><line x1="1469.88" y1="653.88" x2="2.11" y2="653.88" stroke-dasharray="0.03 6.46" stroke-dashoffset="0"/><line x1="2.11" y1="653.88" x2="2.11" y2="2.11" stroke-dasharray="0.03 6.48" stroke-dashoffset="0"/></g></g><g text-align="left" text-anchor="start" fill="#36a64c" transform="translate(212.48, 159.85) rotate(0.00, 63.00, 21.50)"><text y="14" letter-spacing="-0.84" font-size="28px" font-family="Caveat Brush" text-align="left" alignment-baseline="central" transform="scale(1.165392162061834)">/path/path</text></g><g id="f52a5e6c-4c6b-42ab-27ac-01a9ccb145db_svg" class="tl-centered-g" transform="translate(714.62, 96.54) rotate(0.00, 24.68, 235.26)"><g opacity="1"><path d="M 22.26,0.21 Q 22.26,0.21 21.15,0.48 20.04,0.75 18.93,1.31 17.81,1.88 16.66,2.70 15.50,3.51 14.24,4.50 12.97,5.50 11.78,6.54 10.58,7.59 9.58,8.56 8.58,9.53 7.67,10.50 6.76,11.48 5.95,12.44 5.13,13.40 4.49,14.26 3.85,15.13 3.40,15.93 2.95,16.73 2.66,17.57 2.37,18.41 2.21,19.37 2.04,20.32 1.95,21.02 1.86,21.72 1.88,22.51 1.91,23.29 2.13,24.08 2.35,24.87 2.81,25.68 3.27,26.49 3.92,27.38 4.57,28.26 5.38,29.20 6.19,30.14 7.12,31.11 8.06,32.08 9.05,33.01 10.04,33.94 11.22,34.88 12.39,35.81 13.71,36.72 15.03,37.62 16.27,38.42 17.51,39.22 18.61,39.89 19.71,40.55 20.73,41.13 21.74,41.72 22.70,42.30 23.66,42.88 24.56,43.46 25.46,44.05 26.30,44.62 27.15,45.20 27.93,45.78 28.70,46.35 29.40,46.94 30.09,47.53 30.70,48.17 31.31,48.80 31.82,49.46 32.32,50.13 32.72,50.81 33.12,51.49 33.44,52.24 33.76,53.00 34.00,53.90 34.23,54.80 34.37,55.82 34.51,56.83 34.58,57.85 34.66,58.87 34.58,59.88 34.50,60.89 34.06,62.00 33.62,63.11 32.81,64.36 32.00,65.60 30.99,66.88 29.99,68.16 28.81,69.54 27.63,70.92 25.97,72.70 24.31,74.48 23.12,75.77 21.93,77.07 20.75,78.35 19.57,79.63 18.61,80.72 17.64,81.81 16.84,82.77 16.04,83.74 15.29,84.73 14.54,85.73 13.91,86.72 13.27,87.71 12.74,88.66 12.21,89.60 11.81,90.46 11.42,91.33 11.16,92.19 10.91,93.05 10.76,93.89 10.62,94.73 10.55,95.57 10.47,96.41 10.48,97.25 10.49,98.09 10.70,98.85 10.92,99.60 11.43,100.28 11.94,100.96 12.78,101.65 13.62,102.34 14.76,103.04 15.90,103.75 17.23,104.45 18.55,105.14 20.03,105.86 21.50,106.59 23.08,107.32 24.66,108.05 26.12,108.69 27.57,109.34 28.82,109.89 30.06,110.43 31.23,110.98 32.40,111.53 33.50,112.11 34.60,112.69 35.56,113.24 36.51,113.78 37.27,114.31 38.03,114.84 38.60,115.45 39.17,116.05 39.58,116.73 39.98,117.41 40.23,118.14 40.47,118.88 40.61,119.70 40.74,120.53 40.63,121.46 40.51,122.38 39.95,123.49 39.38,124.60 38.32,125.91 37.25,127.23 35.21,129.19 33.18,131.16 31.62,132.58 30.07,133.99 27.85,135.84 25.63,137.68 23.95,139.05 22.28,140.42 20.71,141.67 19.15,142.92 17.58,144.18 16.00,145.44 14.35,146.81 12.70,148.18 11.43,149.33 10.16,150.48 8.96,151.62 7.76,152.76 6.61,153.93 5.46,155.10 4.65,156.13 3.84,157.16 3.21,158.16 2.59,159.17 2.11,160.13 1.63,161.10 1.29,162.04 0.94,162.98 0.73,163.86 0.52,164.74 0.40,165.52 0.28,166.29 0.22,167.04 0.16,167.79 0.18,168.56 0.20,169.34 0.43,170.06 0.65,170.79 1.15,171.45 1.65,172.12 2.43,172.80 3.22,173.48 4.24,174.23 5.26,174.99 6.45,175.78 7.65,176.58 8.99,177.42 10.34,178.26 11.82,179.20 13.30,180.14 14.81,181.21 16.33,182.27 17.77,183.43 19.22,184.59 20.62,185.95 22.03,187.31 23.31,188.83 24.59,190.34 25.61,191.87 26.64,193.40 27.42,194.95 28.20,196.50 28.77,198.09 29.33,199.69 29.80,201.94 30.27,204.19 30.53,205.83 30.79,207.48 30.94,209.27 31.08,211.05 31.03,212.92 30.97,214.78 30.63,216.61 30.28,218.45 29.68,220.30 29.07,222.14 28.33,223.92 27.58,225.70 26.90,227.16 26.22,228.62 25.49,229.93 24.77,231.24 24.01,232.54 23.25,233.84 22.63,234.93 22.00,236.02 21.52,236.89 21.03,237.77 20.69,238.48 20.35,239.18 20.14,239.78 19.93,240.37 19.82,240.87 19.71,241.36 19.76,241.81 19.81,242.26 20.25,242.73 20.70,243.21 21.58,243.73 22.47,244.24 23.74,244.80 25.02,245.36 26.65,245.95 28.29,246.55 29.98,247.12 31.68,247.70 33.24,248.23 34.80,248.75 36.27,249.28 37.74,249.81 39.14,250.35 40.54,250.89 41.81,251.45 43.08,252.01 44.10,252.57 45.13,253.13 45.91,253.62 46.69,254.11 47.25,254.48 47.81,254.85 48.15,255.08 48.50,255.31 48.69,255.47 48.89,255.63 48.97,255.84 49.06,256.06 48.99,256.53 48.93,257.01 48.64,257.82 48.35,258.63 47.86,259.72 47.36,260.81 46.65,262.09 45.95,263.37 45.07,264.79 44.19,266.21 43.18,267.79 42.17,269.37 40.96,271.13 39.75,272.89 38.41,274.73 37.08,276.57 35.76,278.32 34.45,280.06 33.18,281.66 31.90,283.27 30.69,284.78 29.48,286.29 28.62,287.36 27.75,288.43 26.78,289.63 25.80,290.83 25.16,291.66 24.52,292.50 24.03,293.26 23.54,294.02 23.20,294.69 22.87,295.37 22.65,295.99 22.43,296.62 22.31,297.22 22.19,297.82 22.13,298.41 22.06,299.00 22.19,299.55 22.33,300.10 22.75,300.68 23.16,301.25 23.72,301.88 24.29,302.50 24.99,303.14 25.69,303.79 26.43,304.42 27.17,305.05 27.82,305.68 28.48,306.31 29.08,306.97 29.68,307.62 30.20,308.32 30.73,309.01 31.17,309.81 31.61,310.61 31.93,311.54 32.24,312.48 32.43,313.57 32.62,314.66 32.53,316.08 32.44,317.50 31.79,319.34 31.15,321.19 29.88,323.41 28.62,325.62 26.83,328.12 25.04,330.63 23.08,333.11 21.12,335.59 19.18,337.93 17.23,340.26 15.44,342.40 13.65,344.54 12.09,346.43 10.53,348.31 9.16,349.96 7.79,351.60 6.67,352.97 5.55,354.35 4.70,355.50 3.86,356.65 3.32,357.68 2.78,358.71 2.47,359.65 2.17,360.59 2.19,361.44 2.22,362.30 2.73,363.02 3.24,363.74 4.30,364.51 5.36,365.28 6.69,365.96 8.03,366.65 9.72,367.35 11.40,368.06 13.28,368.84 15.16,369.61 16.94,370.34 18.73,371.07 20.33,371.77 21.93,372.46 23.43,373.13 24.93,373.80 26.34,374.51 27.74,375.22 28.98,376.02 30.21,376.83 31.10,377.66 31.99,378.50 32.52,379.41 33.06,380.32 33.33,381.39 33.61,382.47 33.60,383.77 33.60,385.07 33.19,386.62 32.78,388.16 32.07,389.76 31.36,391.36 30.58,392.83 29.81,394.30 29.01,395.72 28.21,397.13 27.41,398.54 26.61,399.95 25.91,401.27 25.22,402.59 24.66,403.87 24.10,405.15 23.68,406.43 23.27,407.71 23.01,408.90 22.76,410.09 22.67,411.17 22.59,412.25 22.77,413.24 22.96,414.23 23.48,415.18 24.00,416.13 24.77,417.03 25.54,417.93 26.40,418.70 27.26,419.48 28.09,420.13 28.93,420.78 29.70,421.34 30.48,421.91 31.23,422.48 31.99,423.05 32.66,423.76 33.33,424.48 33.74,425.05 34.14,425.62 34.40,426.28 34.66,426.94 34.80,427.75 34.94,428.56 34.85,429.62 34.77,430.69 34.34,431.91 33.91,433.13 33.35,434.32 32.79,435.51 32.20,436.69 31.60,437.86 30.92,439.13 30.23,440.40 29.54,441.67 28.86,442.94 28.31,444.07 27.75,445.20 27.33,446.19 26.91,447.19 26.64,448.19 26.36,449.19 26.21,450.25 26.05,451.32 25.97,452.39 25.88,453.47 25.84,454.55 25.79,455.63 25.76,456.72 25.74,457.80 25.75,458.87 25.75,459.94 25.82,461.03 25.89,462.11 26.00,463.16 26.12,464.21 26.25,465.13 26.38,466.05 26.52,466.80 26.65,467.56 26.77,468.15 26.88,468.74 27.04,469.63 27.21,470.53 27.21,470.53" fill="none" stroke="none" stroke-width="4" stroke-linejoin="round" stroke-linecap="round" pointer-events="none"/><path d="M 22.26,0.21 Q 22.26,0.21 21.15,0.48 20.04,0.75 18.93,1.31 17.81,1.88 16.66,2.70 15.50,3.51 14.24,4.50 12.97,5.50 11.78,6.54 10.58,7.59 9.58,8.56 8.58,9.53 7.67,10.50 6.76,11.48 5.95,12.44 5.13,13.40 4.49,14.26 3.85,15.13 3.40,15.93 2.95,16.73 2.66,17.57 2.37,18.41 2.21,19.37 2.04,20.32 1.95,21.02 1.86,21.72 1.88,22.51 1.91,23.29 2.13,24.08 2.35,24.87 2.81,25.68 3.27,26.49 3.92,27.38 4.57,28.26 5.38,29.20 6.19,30.14 7.12,31.11 8.06,32.08 9.05,33.01 10.04,33.94 11.22,34.88 12.39,35.81 13.71,36.72 15.03,37.62 16.27,38.42 17.51,39.22 18.61,39.89 19.71,40.55 20.73,41.13 21.74,41.72 22.70,42.30 23.66,42.88 24.56,43.46 25.46,44.05 26.30,44.62 27.15,45.20 27.93,45.78 28.70,46.35 29.40,46.94 30.09,47.53 30.70,48.17 31.31,48.80 31.82,49.46 32.32,50.13 32.72,50.81 33.12,51.49 33.44,52.24 33.76,53.00 34.00,53.90 34.23,54.80 34.37,55.82 34.51,56.83 34.58,57.85 34.66,58.87 34.58,59.88 34.50,60.89 34.06,62.00 33.62,63.11 32.81,64.36 32.00,65.60 30.99,66.88 29.99,68.16 28.81,69.54 27.63,70.92 25.97,72.70 24.31,74.48 23.12,75.77 21.93,77.07 20.75,78.35 19.57,79.63 18.61,80.72 17.64,81.81 16.84,82.77 16.04,83.74 15.29,84.73 14.54,85.73 13.91,86.72 13.27,87.71 12.74,88.66 12.21,89.60 11.81,90.46 11.42,91.33 11.16,92.19 10.91,93.05 10.76,93.89 10.62,94.73 10.55,95.57 10.47,96.41 10.48,97.25 10.49,98.09 10.70,98.85 10.92,99.60 11.43,100.28 11.94,100.96 12.78,101.65 13.62,102.34 14.76,103.04 15.90,103.75 17.23,104.45 18.55,105.14 20.03,105.86 21.50,106.59 23.08,107.32 24.66,108.05 26.12,108.69 27.57,109.34 28.82,109.89 30.06,110.43 31.23,110.98 32.40,111.53 33.50,112.11 34.60,112.69 35.56,113.24 36.51,113.78 37.27,114.31 38.03,114.84 38.60,115.45 39.17,116.05 39.58,116.73 39.98,117.41 40.23,118.14 40.47,118.88 40.61,119.70 40.74,120.53 40.63,121.46 40.51,122.38 39.95,123.49 39.38,124.60 38.32,125.91 37.25,127.23 35.21,129.19 33.18,131.16 31.62,132.58 30.07,133.99 27.85,135.84 25.63,137.68 23.95,139.05 22.28,140.42 20.71,141.67 19.15,142.92 17.58,144.18 16.00,145.44 14.35,146.81 12.70,148.18 11.43,149.33 10.16,150.48 8.96,151.62 7.76,152.76 6.61,153.93 5.46,155.10 4.65,156.13 3.84,157.16 3.21,158.16 2.59,159.17 2.11,160.13 1.63,161.10 1.29,162.04 0.94,162.98 0.73,163.86 0.52,164.74 0.40,165.52 0.28,166.29 0.22,167.04 0.16,167.79 0.18,168.56 0.20,169.34 0.43,170.06 0.65,170.79 1.15,171.45 1.65,172.12 2.43,172.80 3.22,173.48 4.24,174.23 5.26,174.99 6.45,175.78 7.65,176.58 8.99,177.42 10.34,178.26 11.82,179.20 13.30,180.14 14.81,181.21 16.33,182.27 17.77,183.43 19.22,184.59 20.62,185.95 22.03,187.31 23.31,188.83 24.59,190.34 25.61,191.87 26.64,193.40 27.42,194.95 28.20,196.50 28.77,198.09 29.33,199.69 29.80,201.94 30.27,204.19 30.53,205.83 30.79,207.48 30.94,209.27 31.08,211.05 31.03,212.92 30.97,214.78 30.63,216.61 30.28,218.45 29.68,220.30 29.07,222.14 28.33,223.92 27.58,225.70 26.90,227.16 26.22,228.62 25.49,229.93 24.77,231.24 24.01,232.54 23.25,233.84 22.63,234.93 22.00,236.02 21.52,236.89 21.03,237.77 20.69,238.48 20.35,239.18 20.14,239.78 19.93,240.37 19.82,240.87 19.71,241.36 19.76,241.81 19.81,242.26 20.25,242.73 20.70,243.21 21.58,243.73 22.47,244.24 23.74,244.80 25.02,245.36 26.65,245.95 28.29,246.55 29.98,247.12 31.68,247.70 33.24,248.23 34.80,248.75 36.27,249.28 37.74,249.81 39.14,250.35 40.54,250.89 41.81,251.45 43.08,252.01 44.10,252.57 45.13,253.13 45.91,253.62 46.69,254.11 47.25,254.48 47.81,254.85 48.15,255.08 48.50,255.31 48.69,255.47 48.89,255.63 48.97,255.84 49.06,256.06 48.99,256.53 48.93,257.01 48.64,257.82 48.35,258.63 47.86,259.72 47.36,260.81 46.65,262.09 45.95,263.37 45.07,264.79 44.19,266.21 43.18,267.79 42.17,269.37 40.96,271.13 39.75,272.89 38.41,274.73 37.08,276.57 35.76,278.32 34.45,280.06 33.18,281.66 31.90,283.27 30.69,284.78 29.48,286.29 28.62,287.36 27.75,288.43 26.78,289.63 25.80,290.83 25.16,291.66 24.52,292.50 24.03,293.26 23.54,294.02 23.20,294.69 22.87,295.37 22.65,295.99 22.43,296.62 22.31,297.22 22.19,297.82 22.13,298.41 22.06,299.00 22.19,299.55 22.33,300.10 22.75,300.68 23.16,301.25 23.72,301.88 24.29,302.50 24.99,303.14 25.69,303.79 26.43,304.42 27.17,305.05 27.82,305.68 28.48,306.31 29.08,306.97 29.68,307.62 30.20,308.32 30.73,309.01 31.17,309.81 31.61,310.61 31.93,311.54 32.24,312.48 32.43,313.57 32.62,314.66 32.53,316.08 32.44,317.50 31.79,319.34 31.15,321.19 29.88,323.41 28.62,325.62 26.83,328.12 25.04,330.63 23.08,333.11 21.12,335.59 19.18,337.93 17.23,340.26 15.44,342.40 13.65,344.54 12.09,346.43 10.53,348.31 9.16,349.96 7.79,351.60 6.67,352.97 5.55,354.35 4.70,355.50 3.86,356.65 3.32,357.68 2.78,358.71 2.47,359.65 2.17,360.59 2.19,361.44 2.22,362.30 2.73,363.02 3.24,363.74 4.30,364.51 5.36,365.28 6.69,365.96 8.03,366.65 9.72,367.35 11.40,368.06 13.28,368.84 15.16,369.61 16.94,370.34 18.73,371.07 20.33,371.77 21.93,372.46 23.43,373.13 24.93,373.80 26.34,374.51 27.74,375.22 28.98,376.02 30.21,376.83 31.10,377.66 31.99,378.50 32.52,379.41 33.06,380.32 33.33,381.39 33.61,382.47 33.60,383.77 33.60,385.07 33.19,386.62 32.78,388.16 32.07,389.76 31.36,391.36 30.58,392.83 29.81,394.30 29.01,395.72 28.21,397.13 27.41,398.54 26.61,399.95 25.91,401.27 25.22,402.59 24.66,403.87 24.10,405.15 23.68,406.43 23.27,407.71 23.01,408.90 22.76,410.09 22.67,411.17 22.59,412.25 22.77,413.24 22.96,414.23 23.48,415.18 24.00,416.13 24.77,417.03 25.54,417.93 26.40,418.70 27.26,419.48 28.09,420.13 28.93,420.78 29.70,421.34 30.48,421.91 31.23,422.48 31.99,423.05 32.66,423.76 33.33,424.48 33.74,425.05 34.14,425.62 34.40,426.28 34.66,426.94 34.80,427.75 34.94,428.56 34.85,429.62 34.77,430.69 34.34,431.91 33.91,433.13 33.35,434.32 32.79,435.51 32.20,436.69 31.60,437.86 30.92,439.13 30.23,440.40 29.54,441.67 28.86,442.94 28.31,444.07 27.75,445.20 27.33,446.19 26.91,447.19 26.64,448.19 26.36,449.19 26.21,450.25 26.05,451.32 25.97,452.39 25.88,453.47 25.84,454.55 25.79,455.63 25.76,456.72 25.74,457.80 25.75,458.87 25.75,459.94 25.82,461.03 25.89,462.11 26.00,463.16 26.12,464.21 26.25,465.13 26.38,466.05 26.52,466.80 26.65,467.56 26.77,468.15 26.88,468.74 27.04,469.63 27.21,470.53 27.21,470.53" fill="none" stroke="#717d8a" stroke-width="4" stroke-dasharray="0.1 8" stroke-dashoffset="0" stroke-linejoin="round" stroke-linecap="round" pointer-events="none"/></g></g><g text-align="left" text-anchor="start" fill="#cecece" transform="translate(262.87, 50.24) rotate(0.00, 75.00, 43.50)"><text y="14" letter-spacing="-0.84" font-size="28px" font-family="Caveat Brush" text-align="left" alignment-baseline="central" transform="scale(2.7536777269002877)">client</text></g><g id="3f210b50-00c9-40c3-301e-3f6510cd4967_svg" class="tl-centered-g" transform="translate(83.21, 144.79) rotate(0.00, 259.89, 224.72)"><path d="M 520.49,87.00 Q 520.49,87.00 520.46,93.05 520.43,99.11 520.40,106.71 520.37,114.31 520.35,122.31 520.32,130.30 520.29,138.39 520.26,146.49 520.23,154.61 520.20,162.73 520.17,170.86 520.14,178.98 520.11,187.11 520.09,195.24 520.06,203.37 520.03,211.50 520.02,219.63 520.02,227.76 520.04,235.89 520.06,244.01 520.08,252.14 520.10,260.27 520.11,268.40 520.13,276.53 520.15,284.66 520.17,292.79 520.19,300.92 520.21,309.05 520.23,317.18 520.25,325.30 520.27,333.43 520.29,341.56 520.31,349.69 520.33,357.82 520.35,365.95 520.37,374.08 520.38,382.21 520.40,390.34 520.42,398.47 520.44,406.60 520.46,414.72 520.48,422.85 520.50,431.01 520.51,439.16 518.64,443.26 516.77,447.36 509.94,448.50 503.10,449.63 495.24,449.85 487.37,450.06 479.25,450.09 471.12,450.12 462.93,450.10 454.74,450.09 446.53,450.07 438.32,450.04 430.10,450.01 421.89,449.99 413.67,449.96 405.45,449.93 397.24,449.90 389.02,449.87 380.80,449.84 372.59,449.82 364.37,449.79 356.15,449.76 347.94,449.73 339.72,449.70 331.50,449.67 323.29,449.64 315.07,449.61 306.85,449.59 298.64,449.56 290.42,449.53 282.20,449.50 273.99,449.47 265.77,449.46 257.55,449.46 249.34,449.47 241.12,449.48 232.90,449.50 224.69,449.51 216.47,449.52 208.25,449.54 200.04,449.55 191.82,449.56 183.60,449.58 175.39,449.59 167.17,449.60 158.95,449.62 150.73,449.63 142.52,449.64 134.30,449.66 126.08,449.67 117.87,449.68 109.65,449.70 101.43,449.71 93.22,449.72 85.00,449.74 76.78,449.75 68.57,449.76 60.35,449.78 52.13,449.79 43.92,449.80 35.70,449.82 27.48,449.83 19.24,449.84 11.00,449.85 6.88,447.98 2.76,446.11 1.61,439.35 0.47,432.58 0.26,424.80 0.05,417.02 0.02,408.99 -0.01,400.96 0.00,392.86 0.01,384.76 0.03,376.65 0.06,368.53 0.09,360.41 0.11,352.29 0.14,344.17 0.17,336.05 0.20,327.92 0.23,319.80 0.25,311.68 0.28,303.56 0.31,295.43 0.34,287.31 0.37,279.19 0.39,271.07 0.42,262.94 0.45,254.82 0.48,246.70 0.51,238.58 0.51,230.45 0.52,222.33 0.50,214.21 0.48,206.09 0.46,197.96 0.44,189.84 0.42,181.72 0.40,173.60 0.38,165.47 0.36,157.35 0.34,149.23 0.32,141.11 0.30,132.99 0.28,124.86 0.26,116.74 0.24,108.62 0.22,100.50 0.20,92.37 0.18,84.25 0.16,76.13 0.14,68.01 0.12,59.88 0.10,51.76 0.08,43.64 0.06,35.52 0.04,27.39 0.02,19.25 0.01,11.10 1.88,7.00 3.74,2.90 10.58,1.76 17.41,0.62 25.28,0.40 33.15,0.19 41.27,0.15 49.40,0.12 57.59,0.12 65.78,0.13 73.99,0.15 82.20,0.17 90.42,0.19 98.64,0.21 106.85,0.24 115.07,0.26 123.29,0.28 131.50,0.30 139.72,0.33 147.94,0.35 156.16,0.37 164.37,0.40 172.59,0.42 180.81,0.44 189.02,0.46 197.24,0.49 205.46,0.51 213.68,0.53 221.89,0.56 230.11,0.58 238.33,0.60 246.55,0.62 254.76,0.63 262.98,0.63 271.20,0.61 279.42,0.59 287.63,0.57 295.85,0.55 304.07,0.53 312.29,0.51 320.50,0.49 328.72,0.48 336.94,0.46 345.15,0.44 353.37,0.42 361.59,0.40 369.81,0.38 378.02,0.36 386.24,0.34 394.46,0.32 402.68,0.30 410.89,0.28 419.11,0.27 427.33,0.25 435.55,0.23 443.76,0.21 451.98,0.19 460.20,0.17 468.41,0.15 476.63,0.13 484.85,0.11 493.07,0.09 501.31,0.08 509.55,0.07 513.67,1.93 517.80,3.80 518.94,10.57 520.08,17.34 520.29,25.12 520.50,32.91 520.53,40.95 520.57,48.98 520.55,57.09 520.54,65.19 520.51,73.32 520.49,81.44 520.46,89.57 520.43,97.69 520.40,105.82 520.37,113.95 520.35,122.08 520.32,130.21 520.29,138.34 520.26,146.47 520.23,154.60 520.20,162.72 520.17,170.85 520.14,178.98 520.11,187.11 520.09,195.24 520.06,203.37 520.03,211.50 520.02,219.63 520.02,227.76 520.04,235.89 520.06,244.01 520.07,254.93 520.09,265.84 520.06,266.02 520.03,266.19 519.95,266.36 519.86,266.52 519.73,266.64 519.60,266.76 519.44,266.84 519.27,266.92 519.09,266.94 518.91,266.96 518.73,266.92 518.56,266.88 518.40,266.78 518.25,266.69 518.13,266.55 518.01,266.41 517.94,266.25 517.88,266.08 517.87,265.90 517.86,265.71 517.91,265.54 517.96,265.37 518.06,265.22 518.16,265.07 518.30,264.96 518.45,264.85 518.62,264.79 518.79,264.73 518.97,264.73 519.15,264.73 519.33,264.79 519.50,264.85 519.64,264.96 519.79,265.07 519.89,265.22 519.99,265.37 520.04,265.54 520.09,265.72 520.08,265.90 520.07,266.08 520.00,266.25 519.93,266.41 519.81,266.55 519.70,266.69 519.54,266.78 519.39,266.88 519.21,266.92 519.03,266.96 518.85,266.94 518.67,266.92 518.51,266.84 518.34,266.76 518.21,266.64 518.08,266.51 517.99,266.35 517.91,266.19 517.88,266.01 517.85,265.84 517.85,265.84 517.85,265.84 517.88,254.92 517.91,244.01 517.94,235.88 517.97,227.75 517.98,219.63 517.98,211.50 517.96,203.37 517.94,195.24 517.92,187.11 517.90,178.98 517.88,170.85 517.86,162.72 517.85,154.59 517.83,146.46 517.81,138.34 517.79,130.21 517.77,122.08 517.75,113.95 517.73,105.82 517.71,97.69 517.69,89.56 517.67,81.44 517.65,73.32 517.62,65.20 517.59,57.10 517.55,49.00 517.48,41.00 517.40,33.00 517.15,25.39 516.91,17.78 516.23,11.68 515.55,5.58 512.50,4.46 509.45,3.35 501.26,3.33 493.07,3.31 484.85,3.29 476.63,3.26 468.41,3.24 460.20,3.22 451.98,3.20 443.76,3.17 435.54,3.15 427.33,3.13 419.11,3.10 410.89,3.08 402.68,3.06 394.46,3.04 386.24,3.01 378.02,2.99 369.81,2.97 361.59,2.94 353.37,2.92 345.15,2.90 336.94,2.88 328.72,2.85 320.50,2.83 312.28,2.81 304.07,2.78 295.85,2.76 287.63,2.74 279.42,2.72 271.20,2.69 262.98,2.67 254.76,2.67 246.55,2.67 238.33,2.69 230.11,2.70 221.89,2.72 213.68,2.74 205.46,2.76 197.24,2.78 189.02,2.80 180.81,2.82 172.59,2.84 164.37,2.86 156.16,2.88 147.94,2.89 139.72,2.91 131.50,2.93 123.29,2.95 115.07,2.97 106.85,2.99 98.64,3.01 90.42,3.03 82.20,3.05 74.00,3.07 65.79,3.10 57.60,3.13 49.42,3.16 41.33,3.24 33.24,3.32 25.55,3.56 17.86,3.81 11.69,4.48 5.52,5.15 4.40,8.18 3.29,11.20 3.27,19.30 3.24,27.40 3.21,35.52 3.19,43.64 3.16,51.76 3.13,59.88 3.10,68.01 3.07,76.13 3.04,84.25 3.02,92.37 2.99,100.50 2.96,108.62 2.93,116.74 2.90,124.86 2.87,132.99 2.85,141.11 2.82,149.23 2.79,157.35 2.76,165.48 2.73,173.60 2.71,181.72 2.68,189.84 2.65,197.97 2.62,206.09 2.59,214.21 2.56,222.33 2.56,230.46 2.56,238.58 2.58,246.70 2.60,254.82 2.62,262.95 2.64,271.07 2.66,279.19 2.68,287.31 2.70,295.43 2.71,303.56 2.73,311.68 2.75,319.80 2.77,327.92 2.79,336.05 2.81,344.17 2.84,352.29 2.86,360.41 2.88,368.53 2.90,376.65 2.92,384.76 2.96,392.85 2.99,400.94 3.07,408.93 3.15,416.93 3.40,424.53 3.64,432.13 4.32,438.23 5.00,444.33 8.05,445.45 11.10,446.56 19.29,446.59 27.49,446.61 35.70,446.64 43.92,446.67 52.14,446.70 60.35,446.73 68.57,446.76 76.79,446.78 85.00,446.81 93.22,446.84 101.44,446.87 109.65,446.90 117.87,446.93 126.09,446.96 134.30,446.98 142.52,447.01 150.74,447.04 158.95,447.07 167.17,447.10 175.39,447.13 183.60,447.16 191.82,447.19 200.04,447.21 208.25,447.24 216.47,447.27 224.69,447.30 232.90,447.33 241.12,447.36 249.34,447.39 257.56,447.41 265.77,447.42 273.99,447.43 282.21,447.42 290.42,447.40 298.64,447.39 306.86,447.38 315.07,447.36 323.29,447.35 331.51,447.34 339.72,447.32 347.94,447.31 356.16,447.30 364.37,447.28 372.59,447.27 380.81,447.26 389.02,447.24 397.24,447.23 405.46,447.22 413.67,447.20 421.89,447.19 430.10,447.18 438.32,447.16 446.53,447.14 454.74,447.13 462.92,447.10 471.10,447.07 479.19,447.00 487.28,446.93 494.97,446.69 502.66,446.45 508.83,445.78 515.00,445.11 516.11,442.09 517.23,439.06 517.25,430.96 517.28,422.85 517.31,414.72 517.33,406.59 517.36,398.46 517.39,390.34 517.42,382.21 517.45,374.08 517.48,365.95 517.51,357.82 517.54,349.69 517.57,341.56 517.59,333.43 517.62,325.30 517.65,317.17 517.68,309.05 517.71,300.92 517.74,292.79 517.77,284.66 517.80,276.53 517.83,268.40 517.85,260.27 517.88,252.14 517.91,244.01 517.94,235.88 517.97,227.76 517.98,219.63 517.98,211.50 517.96,203.37 517.94,195.24 517.92,187.11 517.90,178.98 517.88,170.86 517.86,162.73 517.85,154.61 517.83,146.49 517.81,138.39 517.79,130.30 517.77,122.30 517.75,114.31 517.73,106.71 517.71,99.11 517.69,93.05 517.67,87.00 517.69,86.83 517.71,86.66 517.77,86.50 517.83,86.34 517.93,86.20 518.02,86.06 518.15,85.95 518.28,85.84 518.43,85.76 518.58,85.68 518.74,85.64 518.91,85.60 519.08,85.60 519.25,85.60 519.41,85.64 519.58,85.68 519.73,85.76 519.88,85.84 520.01,85.95 520.13,86.06 520.23,86.20 520.33,86.34 520.39,86.50 520.45,86.66 520.47,86.83 Z" fill="#cecece" stroke="#cecece" stroke-width="2" pointer-events="none"/></g><g id="44050360-ae63-4468-087d-004f9e4ab337_svg" class="tl-centered-g" transform="translate(93.70, 156.86) rotate(0.00, 247.59, 29.25)"><path d="M 406.12,59.58 Q 406.12,59.58 399.91,59.56 393.69,59.53 385.89,59.50 378.09,59.47 369.88,59.44 361.67,59.41 353.36,59.38 345.06,59.35 336.72,59.32 328.38,59.29 320.04,59.26 311.70,59.23 303.36,59.20 295.01,59.17 286.67,59.14 278.32,59.11 269.98,59.08 261.63,59.05 253.29,59.04 244.94,59.03 236.60,59.05 228.25,59.06 219.91,59.08 211.57,59.09 203.22,59.11 194.88,59.12 186.53,59.14 178.19,59.15 169.84,59.17 161.50,59.18 153.15,59.20 144.81,59.21 136.46,59.23 128.12,59.24 119.77,59.26 111.43,59.27 103.08,59.29 94.74,59.30 86.39,59.32 78.05,59.33 69.71,59.34 61.36,59.36 53.02,59.37 44.67,59.39 36.33,59.40 27.98,59.42 19.61,59.43 11.25,59.44 7.17,57.70 3.09,55.97 1.94,52.62 0.78,49.28 0.59,45.75 0.40,42.22 0.41,38.72 0.42,35.22 0.39,31.73 0.35,28.24 0.24,24.75 0.12,21.26 0.00,17.76 -0.10,14.27 -0.19,10.71 -0.29,7.15 1.54,4.24 3.38,1.33 10.36,0.52 17.35,-0.29 25.31,-0.43 33.28,-0.56 41.54,-0.58 49.79,-0.60 58.12,-0.59 66.45,-0.58 74.80,-0.56 83.15,-0.54 91.50,-0.52 99.86,-0.50 108.21,-0.47 116.57,-0.45 124.93,-0.43 133.28,-0.41 141.64,-0.39 150.00,-0.37 158.35,-0.34 166.71,-0.32 175.07,-0.30 183.42,-0.28 191.78,-0.26 200.13,-0.24 208.49,-0.21 216.85,-0.19 225.20,-0.17 233.56,-0.15 241.92,-0.15 250.27,-0.15 258.63,-0.17 266.99,-0.20 275.34,-0.22 283.70,-0.24 292.06,-0.27 300.41,-0.29 308.77,-0.31 317.13,-0.33 325.48,-0.36 333.84,-0.38 342.19,-0.40 350.55,-0.43 358.91,-0.45 367.26,-0.47 375.62,-0.50 383.98,-0.52 392.33,-0.54 400.69,-0.57 409.05,-0.59 417.40,-0.61 425.76,-0.63 434.12,-0.66 442.47,-0.68 450.83,-0.70 459.18,-0.73 467.54,-0.75 475.92,-0.77 484.30,-0.79 488.39,0.95 492.48,2.69 493.59,6.06 494.70,9.43 494.85,12.99 494.99,16.55 494.93,20.08 494.87,23.61 494.86,27.14 494.85,30.66 494.91,34.19 494.98,37.72 495.05,41.25 495.11,44.78 495.16,48.37 495.20,51.96 493.35,54.87 491.50,57.78 484.52,58.59 477.55,59.41 469.59,59.53 461.63,59.66 453.39,59.67 445.14,59.68 436.83,59.66 428.51,59.64 420.17,59.62 411.83,59.59 403.49,59.56 395.15,59.53 386.80,59.50 378.46,59.47 370.11,59.44 361.77,59.41 353.42,59.38 345.08,59.35 336.73,59.32 328.39,59.29 320.05,59.26 311.70,59.23 303.36,59.20 295.01,59.17 286.67,59.14 278.32,59.11 269.98,59.08 261.63,59.05 253.29,59.04 244.94,59.03 236.60,59.05 228.25,59.06 217.05,59.08 205.85,59.09 205.68,59.06 205.50,59.03 205.34,58.94 205.18,58.86 205.06,58.73 204.93,58.60 204.86,58.44 204.78,58.27 204.76,58.09 204.74,57.91 204.78,57.74 204.82,57.56 204.91,57.41 205.01,57.26 205.14,57.14 205.28,57.02 205.45,56.96 205.62,56.89 205.80,56.88 205.97,56.87 206.15,56.92 206.32,56.97 206.47,57.07 206.62,57.17 206.73,57.31 206.84,57.46 206.89,57.63 206.95,57.80 206.95,57.98 206.95,58.16 206.89,58.33 206.84,58.50 206.73,58.64 206.62,58.78 206.47,58.88 206.32,58.99 206.15,59.03 205.97,59.08 205.79,59.07 205.61,59.06 205.45,58.99 205.28,58.93 205.14,58.81 205.01,58.69 204.91,58.54 204.82,58.39 204.78,58.21 204.74,58.03 204.76,57.86 204.78,57.68 204.86,57.51 204.93,57.35 205.06,57.22 205.18,57.09 205.34,57.01 205.50,56.92 205.68,56.89 205.85,56.86 205.85,56.86 205.85,56.86 217.06,56.90 228.26,56.93 236.60,56.96 244.95,56.99 253.29,57.00 261.63,57.00 269.98,56.99 278.32,56.97 286.67,56.96 295.01,56.95 303.36,56.93 311.70,56.92 320.05,56.90 328.39,56.89 336.74,56.87 345.08,56.86 353.43,56.84 361.77,56.83 370.12,56.81 378.46,56.80 386.80,56.78 395.15,56.77 403.49,56.75 411.83,56.74 420.17,56.72 428.51,56.70 436.82,56.68 445.13,56.65 453.35,56.60 461.57,56.54 469.41,56.38 477.25,56.21 483.47,55.81 489.69,55.42 490.83,53.55 491.98,51.68 492.08,48.22 492.18,44.75 492.30,41.23 492.43,37.70 492.54,34.18 492.66,30.65 492.67,27.14 492.69,23.63 492.56,20.17 492.44,16.71 492.17,13.48 491.90,10.25 491.21,7.61 490.52,4.96 487.36,3.72 484.21,2.49 475.87,2.47 467.54,2.45 459.19,2.43 450.83,2.41 442.47,2.39 434.12,2.36 425.76,2.34 417.40,2.32 409.05,2.30 400.69,2.28 392.33,2.25 383.98,2.23 375.62,2.21 367.26,2.19 358.91,2.17 350.55,2.15 342.19,2.12 333.84,2.10 325.48,2.08 317.13,2.06 308.77,2.04 300.41,2.02 292.06,1.99 283.70,1.97 275.34,1.95 266.99,1.93 258.63,1.91 250.27,1.88 241.92,1.89 233.56,1.89 225.20,1.91 216.85,1.93 208.49,1.96 200.14,1.98 191.78,2.00 183.42,2.02 175.07,2.05 166.71,2.07 158.35,2.09 150.00,2.12 141.64,2.14 133.28,2.16 124.93,2.19 116.57,2.21 108.21,2.23 99.86,2.26 91.50,2.28 83.15,2.30 74.80,2.33 66.45,2.35 58.13,2.39 49.80,2.42 41.57,2.48 33.34,2.55 25.49,2.72 17.64,2.89 11.41,3.29 5.19,3.69 4.06,5.54 2.93,7.40 2.87,10.83 2.82,14.25 2.75,17.74 2.68,21.24 2.61,24.73 2.54,28.22 2.57,31.70 2.61,35.17 2.78,38.60 2.95,42.02 3.27,45.22 3.58,48.42 4.30,51.04 5.03,53.66 8.18,54.91 11.34,56.16 19.66,56.18 27.99,56.21 36.33,56.24 44.67,56.27 53.02,56.30 61.36,56.33 69.71,56.36 78.05,56.39 86.40,56.42 94.74,56.45 103.09,56.48 111.43,56.51 119.78,56.54 128.12,56.57 136.47,56.60 144.81,56.63 153.15,56.66 161.50,56.69 169.84,56.72 178.19,56.75 186.53,56.78 194.88,56.81 203.22,56.84 211.57,56.87 219.91,56.90 228.26,56.93 236.60,56.96 244.95,56.99 253.29,57.00 261.63,57.00 269.98,56.99 278.32,56.97 286.67,56.96 295.01,56.95 303.36,56.93 311.70,56.92 320.04,56.90 328.39,56.89 336.72,56.87 345.06,56.86 353.37,56.84 361.68,56.83 369.88,56.81 378.09,56.80 385.89,56.78 393.69,56.77 399.91,56.75 406.13,56.73 406.30,56.75 406.47,56.77 406.63,56.84 406.79,56.90 406.93,56.99 407.07,57.09 407.19,57.22 407.30,57.35 407.38,57.50 407.46,57.65 407.50,57.82 407.54,57.99 407.54,58.16 407.54,58.33 407.50,58.50 407.46,58.67 407.38,58.82 407.30,58.97 407.18,59.10 407.07,59.23 406.93,59.32 406.79,59.42 406.63,59.48 406.47,59.54 406.29,59.56 Z" fill="#cecece" stroke="#cecece" stroke-width="2" pointer-events="none"/></g><g text-align="left" text-anchor="start" fill="#cecece" transform="translate(103.62, 159.43) rotate(0.00, 55.00, 24.50)"><text y="14" letter-spacing="-0.84" font-size="28px" font-family="Caveat Brush" text-align="left" alignment-baseline="central" transform="scale(1.3841856952170655)">site.com</text></g><g id="31ddc19f-55db-44f9-1e84-d4aaf9d71970_svg" class="tl-centered-g" transform="translate(102.64, 231.95) rotate(0.00, 237.96, 1.43)"><defs><mask id="31ddc19f-55db-44f9-1e84-d4aaf9d71970_clip"><rect x="-100" y="-100" width="675.92" height="202.86" fill="white"/><rect x="237.96" y="1.43" width="0" height="0" rx="4" ry="4" fill="black" opacity="1"/></mask></defs><g pointer-events="none" opacity="1" mask=""><path d="M -0.00,1.94 Q -0.00,1.94 59.48,1.62 118.97,1.30 178.46,0.97 237.95,0.64 297.44,0.30 356.93,-0.02 416.42,-0.37 475.91,-0.71 476.02,-0.69 476.14,-0.67 476.24,-0.62 476.34,-0.57 476.42,-0.48 476.50,-0.40 476.55,-0.29 476.60,-0.19 476.62,-0.08 476.63,0.03 476.60,0.14 476.58,0.26 476.52,0.35 476.46,0.45 476.37,0.53 476.29,0.61 476.18,0.65 476.07,0.69 475.96,0.70 475.84,0.71 475.73,0.68 475.62,0.65 475.52,0.58 475.43,0.52 475.36,0.43 475.29,0.33 475.25,0.22 475.21,0.11 475.21,0.00 475.21,-0.11 475.25,-0.22 475.28,-0.33 475.35,-0.42 475.42,-0.51 475.52,-0.58 475.61,-0.64 475.72,-0.67 475.83,-0.70 475.95,-0.70 476.06,-0.69 476.17,-0.65 476.28,-0.61 476.37,-0.54 476.46,-0.46 476.52,-0.36 476.58,-0.26 476.60,-0.15 476.63,-0.04 476.62,0.07 476.60,0.18 476.56,0.29 476.51,0.39 476.43,0.48 476.35,0.56 476.25,0.62 476.15,0.67 476.03,0.69 475.92,0.71 475.92,0.71 475.92,0.71 416.43,1.08 356.94,1.45 297.45,1.83 237.96,2.21 178.47,2.60 118.98,2.98 59.49,3.38 0.00,3.77 -0.10,3.76 -0.21,3.75 -0.31,3.71 -0.42,3.67 -0.51,3.61 -0.60,3.54 -0.67,3.46 -0.75,3.38 -0.80,3.28 -0.85,3.18 -0.88,3.08 -0.90,2.97 -0.90,2.86 -0.90,2.75 -0.88,2.64 -0.85,2.54 -0.80,2.44 -0.75,2.34 -0.68,2.26 -0.61,2.17 -0.52,2.11 -0.43,2.05 -0.32,2.01 -0.22,1.97 -0.11,1.95 Z" fill="#cecece" stroke="#cecece" stroke-width="2.11" stroke-dasharray="none" stroke-dashoffset="none" stroke-linecap="round" stroke-linejoin="round" pointer-events="stroke"/></g></g><g text-align="left" text-anchor="start" fill="#cecece" transform="translate(1052.46, 64.96) rotate(0.00, 154.50, 43.50)"><text y="14" letter-spacing="-0.84" font-size="28px" font-family="Caveat Brush" text-align="left" alignment-baseline="central" transform="scale(2.7536777269002877)">Node Server</text></g><g id="151ece60-e502-4dec-2b8a-210819cbc986_svg" class="tl-centered-g" transform="translate(1165.97, 242.08) rotate(0.00, 37.30, 34.35)"><path d="M 47.66,-1.16 Q 47.66,-1.16 52.29,0.91 56.92,2.99 59.97,5.37 63.02,7.75 66.03,11.55 69.05,15.35 71.20,20.69 73.36,26.03 73.67,32.59 73.99,39.14 71.66,46.01 69.33,52.88 64.06,58.67 58.80,64.46 51.17,67.63 43.54,70.81 34.98,70.26 26.43,69.71 18.93,65.25 11.42,60.79 6.79,53.37 2.16,45.95 1.44,37.36 0.72,28.77 3.81,21.01 6.90,13.25 12.73,7.85 18.56,2.45 25.57,0.05 32.58,-2.33 39.31,-1.96 46.05,-1.58 51.54,0.73 57.04,3.06 60.93,6.34 64.81,9.61 67.21,12.96 69.61,16.31 70.88,19.11 72.15,21.91 72.72,23.81" stroke="none" fill="#345246" pointer-events="none"/><path d="M 47.66,-1.16 Q 47.66,-1.16 52.80,-0.20 57.95,0.75 61.27,3.25 64.59,5.76 67.74,9.85 70.88,13.94 73.12,19.60 75.36,25.27 75.69,32.18 76.01,39.09 73.58,46.33 71.14,53.56 65.63,59.66 60.13,65.77 52.14,69.14 44.16,72.52 35.19,72.00 26.23,71.48 18.34,66.87 10.44,62.26 5.54,54.53 0.63,46.80 -0.18,37.82 -1.01,28.83 2.15,20.69 5.32,12.55 11.38,6.85 17.43,1.15 24.75,-1.41 32.07,-3.98 39.12,-3.64 46.18,-3.30 51.95,-0.91 57.73,1.48 61.80,4.93 65.88,8.37 68.29,11.96 70.69,15.54 71.77,18.57 72.85,21.60 73.07,23.66 73.29,25.71 73.29,25.71 73.28,25.72 73.28,25.72 73.27,25.72 72.36,23.97 71.45,22.23 69.99,19.66 68.52,17.08 66.14,13.97 63.75,10.86 60.05,7.75 56.34,4.64 51.13,2.38 45.92,0.12 39.50,-0.28 33.09,-0.69 26.39,1.53 19.68,3.76 14.08,8.86 8.48,13.96 5.46,21.33 2.45,28.71 3.07,36.91 3.69,45.10 8.04,52.21 12.40,59.33 19.52,63.63 26.64,67.94 34.78,68.52 42.92,69.10 50.19,66.12 57.47,63.14 62.49,57.67 67.52,52.19 69.75,45.69 71.97,39.18 71.66,32.99 71.35,26.80 69.29,21.78 67.23,16.77 64.33,13.25 61.44,9.74 58.67,7.48 55.90,5.23 51.78,2.04 Z" fill="#36a64c" stroke="#36a64c" stroke-width="3.5" pointer-events="none" stroke-linecap="round" stroke-linejoin="round"/></g><g id="ecac8fcd-8db9-4a78-0747-c12a5381aa4a_svg" class="tl-centered-g" transform="translate(1105.02, 349.63) rotate(0.00, 32.61, 31.59)"><path d="M 35.55,-2.19 Q 35.55,-2.19 40.70,-1.65 45.84,-1.11 49.33,1.38 52.83,3.88 56.05,8.29 59.27,12.69 61.30,18.98 63.33,25.28 63.07,32.79 62.80,40.31 59.52,47.56 56.23,54.81 50.05,59.83 43.88,64.84 36.08,65.87 28.29,66.90 21.00,63.37 13.70,59.84 8.93,52.78 4.16,45.71 2.95,37.23 1.73,28.75 3.86,21.05 5.99,13.35 10.37,7.90 14.76,2.46 19.99,-0.27 25.22,-3.01 30.11,-3.38 35.00,-3.75 38.75,-2.59 42.49,-1.44 44.77,0.30 47.04,2.05 47.04,2.06 47.04,2.06 47.04,2.06 47.03,2.07 44.51,1.30 41.99,0.52 38.59,-0.09 35.20,-0.70 30.95,-0.31 26.69,0.08 22.02,2.40 17.35,4.73 13.32,9.56 9.28,14.40 7.23,21.40 5.18,28.40 6.17,36.16 7.15,43.92 11.31,50.38 15.47,56.83 21.83,60.11 28.19,63.40 35.03,62.64 41.88,61.89 47.42,57.51 52.96,53.12 55.99,46.59 59.01,40.05 59.28,33.23 59.55,26.41 57.72,20.76 55.88,15.11 53.01,11.26 50.13,7.41 47.28,5.18 44.44,2.96 39.99,0.39 Z" fill="#cecece" stroke="#cecece" stroke-width="3.5" pointer-events="none" stroke-linecap="round" stroke-linejoin="round"/></g><g id="453cd7c2-df7d-427f-1f1d-4dab9f9c4011_svg" class="tl-centered-g" transform="translate(1228.70, 347.69) rotate(0.00, 38.36, 35.45)"><path d="M -0.08,39.86 Q -0.08,39.86 -0.08,35.48 -0.08,31.09 0.64,27.83 1.37,24.57 3.14,20.73 4.92,16.89 8.15,12.96 11.38,9.04 16.27,5.76 21.16,2.47 27.51,0.68 33.87,-1.10 41.02,-0.62 48.17,-0.15 54.99,3.00 61.82,6.16 66.99,11.83 72.16,17.49 74.54,24.82 76.93,32.14 75.95,39.80 74.96,47.45 70.83,54.00 66.69,60.54 60.31,64.84 53.93,69.15 46.62,70.69 39.31,72.24 32.36,71.19 25.42,70.14 19.77,67.14 14.12,64.15 10.19,60.10 6.27,56.05 4.02,51.77 1.77,47.50 0.84,43.63 -0.09,39.76 -0.20,36.66 -0.30,33.57 -0.05,31.41" stroke="none" fill="#345246" pointer-events="none"/><path d="M -0.09,39.86 Q -0.09,39.86 -1.26,35.47 -2.44,31.08 -1.86,27.52 -1.27,23.96 0.67,19.88 2.62,15.80 6.12,11.67 9.62,7.55 14.80,4.11 19.99,0.67 26.67,-1.19 33.36,-3.06 40.85,-2.57 48.35,-2.08 55.50,1.20 62.66,4.49 68.11,10.40 73.56,16.31 76.10,23.99 78.65,31.66 77.68,39.70 76.71,47.75 72.42,54.64 68.14,61.53 61.50,66.07 54.86,70.62 47.25,72.28 39.63,73.95 32.38,72.90 25.13,71.84 19.21,68.75 13.29,65.66 9.15,61.45 5.02,57.23 2.67,52.74 0.32,48.25 -0.55,44.16 -1.43,40.07 -1.28,36.83 -1.13,33.59 -0.47,31.42 0.18,29.25 0.18,29.25 0.19,29.25 0.19,29.25 0.20,29.25 0.35,31.39 0.51,33.54 0.87,36.49 1.24,39.44 2.23,43.09 3.22,46.75 5.37,50.80 7.52,54.86 11.24,58.75 14.95,62.64 20.33,65.53 25.71,68.43 32.35,69.48 38.99,70.54 45.99,69.11 53.00,67.67 59.12,63.61 65.24,59.55 69.23,53.36 73.22,47.16 74.21,39.89 75.20,32.63 72.99,25.65 70.77,18.67 65.87,13.26 60.98,7.84 54.49,4.81 48.00,1.77 41.19,1.31 34.38,0.85 28.36,2.56 22.33,4.27 17.74,7.40 13.15,10.53 10.18,14.25 7.22,17.97 5.62,21.57 4.01,25.17 3.14,28.14 2.26,31.11 1.09,35.48 Z" fill="#36a64c" stroke="#36a64c" stroke-width="3.5" pointer-events="none" stroke-linecap="round" stroke-linejoin="round"/></g><g id="0c8f575f-01d0-41a8-24cd-4913b7cf502a_svg" class="tl-centered-g" transform="translate(1036.07, 446.82) rotate(0.00, 30.65, 33.88)"><path d="M 5.48,20.44 Q 5.48,20.44 7.36,15.01 9.24,9.58 12.57,6.69 15.89,3.79 20.75,1.92 25.61,0.05 31.58,0.35 37.55,0.65 43.48,4.08 49.40,7.51 53.63,14.06 57.86,20.62 58.92,29.05 59.98,37.48 57.26,45.59 54.55,53.71 48.68,59.21 42.81,64.71 35.51,66.16 28.20,67.60 21.54,65.02 14.88,62.44 10.32,57.19 5.77,51.94 3.72,45.82 1.67,39.70 1.69,34.14 1.70,28.59 3.06,24.43 4.43,20.27 6.23,17.79 8.03,15.31 8.03,15.31 8.04,15.31 8.04,15.31 8.05,15.32 7.26,18.07 6.46,20.82 5.71,24.72 4.95,28.61 4.97,33.64 4.99,38.67 6.74,44.22 8.49,49.77 12.42,54.53 16.35,59.30 22.10,61.72 27.86,64.15 34.26,63.05 40.65,61.95 45.94,57.15 51.22,52.35 53.77,45.05 56.31,37.76 55.45,30.13 54.58,22.51 50.92,16.64 47.25,10.78 42.19,7.76 37.13,4.74 32.10,4.47 27.07,4.20 23.01,5.85 18.94,7.49 16.15,9.83 13.36,12.17 9.43,16.31 Z" fill="#cecece" stroke="#cecece" stroke-width="3.5" pointer-events="none" stroke-linecap="round" stroke-linejoin="round"/></g><g id="a7f0adab-cc71-4ad8-0752-e6ec5626d998_svg" class="tl-centered-g" transform="translate(1302.62, 443.88) rotate(0.00, 30.65, 33.88)"><path d="M 8.11,56.01 Q 8.11,56.01 5.06,51.30 2.02,46.59 1.29,42.08 0.57,37.58 0.84,31.92 1.12,26.27 3.00,20.07 4.89,13.88 8.83,8.31 12.76,2.75 18.64,-0.62 24.52,-4.00 31.40,-3.75 38.29,-3.50 44.53,0.90 50.78,5.30 54.75,13.01 58.72,20.71 59.48,29.82 60.24,38.92 57.80,47.25 55.35,55.57 50.55,61.39 45.74,67.22 39.86,69.74 33.99,72.26 28.36,71.70 22.74,71.14 18.29,68.47 13.83,65.81 10.91,62.25 7.98,58.68 6.49,55.24 5.00,51.80 4.60,49.19 4.21,46.57 4.22,46.57 4.22,46.57 4.23,46.56 4.23,46.56 5.48,48.74 6.72,50.91 8.51,53.83 10.31,56.74 12.99,59.83 15.67,62.93 19.47,65.34 23.27,67.75 28.07,68.39 32.88,69.04 38.05,66.96 43.23,64.88 47.65,59.68 52.07,54.47 54.42,46.79 56.76,39.11 56.16,30.65 55.55,22.20 52.06,15.11 48.58,8.03 43.19,4.00 37.80,-0.03 31.91,-0.39 26.01,-0.76 20.84,2.12 15.68,5.01 12.10,10.02 8.53,15.04 6.80,20.76 5.08,26.47 4.89,31.70 4.69,36.93 5.35,40.97 6.01,45.01 7.07,50.51 Z" fill="#cecece" stroke="#cecece" stroke-width="3.5" pointer-events="none" stroke-linecap="round" stroke-linejoin="round"/></g><g id="f9e01aea-5faa-48a8-31c3-828884e46996_svg" class="tl-centered-g" transform="translate(1162.49, 445.86) rotate(0.00, 38.64, 29.99)"><path d="M 3.19,17.87 Q 3.19,17.87 6.06,14.13 8.93,10.39 11.94,8.07 14.94,5.75 19.46,3.66 23.99,1.57 30.02,0.45 36.04,-0.65 43.01,-0.01 49.98,0.63 56.75,3.57 63.51,6.51 68.54,11.74 73.57,16.96 75.39,23.70 77.21,30.45 75.03,37.31 72.85,44.18 66.97,49.57 61.09,54.97 52.89,57.65 44.69,60.33 36.10,59.87 27.51,59.40 20.35,56.24 13.19,53.08 8.58,48.26 3.96,43.44 2.10,38.16 0.23,32.88 0.61,28.08 0.99,23.28 2.74,19.49 4.49,15.70 6.71,13.04 8.93,10.39 10.92,8.75" stroke="none" fill="#345246" pointer-events="none"/><path d="M 3.18,17.87 Q 3.18,17.87 5.18,13.44 7.17,9.01 10.33,6.43 13.49,3.85 18.29,1.71 23.08,-0.43 29.38,-1.56 35.68,-2.69 42.94,-2.01 50.19,-1.32 57.25,1.73 64.32,4.80 69.64,10.29 74.96,15.77 76.96,22.95 78.96,30.13 76.72,37.48 74.49,44.83 68.36,50.57 62.23,56.30 53.71,59.15 45.19,62.00 36.28,61.57 27.38,61.14 19.91,57.89 12.45,54.64 7.56,49.61 2.67,44.59 0.63,38.99 -1.40,33.39 -1.04,28.25 -0.68,23.11 1.22,19.08 3.13,15.05 5.66,12.41 8.19,9.77 10.54,8.43 12.89,7.10 12.90,7.10 12.90,7.11 12.90,7.11 12.90,7.12 11.29,9.06 9.67,11.01 7.76,13.68 5.86,16.34 4.27,19.89 2.68,23.45 2.28,27.91 1.87,32.36 3.56,37.33 5.24,42.30 9.59,46.91 13.94,51.52 20.79,54.59 27.64,57.67 35.91,58.16 44.18,58.65 52.07,56.14 59.96,53.63 65.58,48.58 71.21,43.54 73.33,37.15 75.46,30.76 73.82,24.45 72.18,18.14 67.44,13.19 62.71,8.23 56.24,5.41 49.76,2.58 43.08,1.98 36.39,1.38 30.65,2.48 24.90,3.58 20.64,5.61 16.39,7.65 13.54,9.71 10.70,11.77 6.95,14.82 Z" fill="#36a64c" stroke="#36a64c" stroke-width="3.5" pointer-events="none" stroke-linecap="round" stroke-linejoin="round"/></g><g id="2b1f4109-66ae-45fe-1b8d-7a82dd1f6180_svg" class="tl-centered-g" transform="translate(1154.58, 306.20) rotate(0.00, 15.04, 24.02)"><defs><mask id="2b1f4109-66ae-45fe-1b8d-7a82dd1f6180_clip"><rect x="-100" y="-100" width="230.07" height="248.04" fill="white"/><rect x="15.03" y="24.02" width="0" height="0" rx="2" ry="2" fill="black" opacity="1"/></mask></defs><g pointer-events="none" opacity="1" mask=""><path d="M 30.92,0.53 Q 30.92,0.53 27.13,6.52 23.35,12.51 19.57,18.50 15.79,24.49 12.02,30.49 8.25,36.49 4.48,42.48 0.71,48.48 0.62,48.58 0.53,48.69 0.41,48.75 0.29,48.82 0.16,48.85 0.03,48.88 -0.10,48.86 -0.23,48.84 -0.36,48.78 -0.48,48.72 -0.58,48.63 -0.67,48.53 -0.74,48.41 -0.80,48.29 -0.82,48.15 -0.84,48.02 -0.81,47.89 -0.79,47.75 -0.72,47.63 -0.66,47.51 -0.56,47.42 -0.46,47.33 -0.33,47.27 -0.21,47.22 -0.07,47.21 0.06,47.19 0.19,47.23 0.32,47.26 0.44,47.33 0.55,47.40 0.64,47.51 0.72,47.61 0.77,47.74 0.82,47.87 0.83,48.00 0.83,48.14 0.79,48.27 0.75,48.40 0.67,48.51 0.60,48.62 0.49,48.71 0.38,48.79 0.25,48.83 0.12,48.87 -0.01,48.87 -0.15,48.86 -0.27,48.82 -0.40,48.77 -0.51,48.69 -0.62,48.60 -0.69,48.49 -0.77,48.37 -0.80,48.24 -0.83,48.11 -0.82,47.98 -0.81,47.84 -0.76,47.71 -0.71,47.59 -0.71,47.59 -0.71,47.59 3.03,41.58 6.78,35.56 10.52,29.55 14.27,23.54 18.01,17.52 21.75,11.50 25.48,5.48 29.21,-0.53 29.29,-0.62 29.36,-0.72 29.46,-0.79 29.56,-0.87 29.67,-0.91 29.78,-0.96 29.90,-0.98 30.02,-1.00 30.14,-0.99 30.26,-0.98 30.38,-0.95 30.49,-0.91 30.60,-0.84 30.70,-0.78 30.78,-0.69 30.87,-0.60 30.93,-0.50 30.99,-0.39 31.02,-0.28 31.06,-0.16 31.06,-0.04 31.07,0.07 31.05,0.19 31.02,0.31 30.97,0.42 Z" fill="#cecece" stroke="#cecece" stroke-width="2.11" stroke-dasharray="none" stroke-dashoffset="none" stroke-linecap="round" stroke-linejoin="round" pointer-events="stroke"/></g></g><g id="4d14dca1-8210-40ae-3253-aacb16f23298_svg" class="tl-centered-g" transform="translate(1221.53, 306.39) rotate(0.00, 13.83, 22.69)"><defs><mask id="4d14dca1-8210-40ae-3253-aacb16f23298_clip"><rect x="-100" y="-100" width="227.66" height="245.38" fill="white"/><rect x="13.83" y="22.69" width="0" height="0" rx="2" ry="2" fill="black" opacity="1"/></mask></defs><g pointer-events="none" opacity="1" mask=""><path d="M 0.77,-0.47 Q 0.77,-0.47 4.20,5.21 7.62,10.91 11.05,16.59 14.49,22.28 17.93,27.96 21.37,33.65 24.81,39.33 28.26,45.01 28.30,45.11 28.34,45.22 28.35,45.33 28.36,45.45 28.33,45.56 28.30,45.67 28.23,45.76 28.17,45.86 28.08,45.93 27.99,46.00 27.88,46.03 27.77,46.07 27.66,46.07 27.55,46.07 27.44,46.03 27.33,46.00 27.24,45.93 27.15,45.86 27.08,45.77 27.02,45.67 26.99,45.56 26.96,45.46 26.96,45.34 26.97,45.23 27.01,45.12 27.05,45.02 27.12,44.93 27.20,44.84 27.29,44.78 27.39,44.72 27.50,44.70 27.61,44.67 27.73,44.68 27.84,44.70 27.94,44.74 28.05,44.79 28.13,44.87 28.21,44.95 28.27,45.05 28.32,45.15 28.34,45.26 28.36,45.37 28.34,45.48 28.32,45.60 28.27,45.70 28.22,45.80 28.14,45.88 28.05,45.96 27.95,46.00 27.85,46.05 27.73,46.07 27.62,46.08 27.51,46.05 27.40,46.03 27.30,45.97 27.20,45.91 27.13,45.83 27.05,45.74 27.05,45.74 27.05,45.74 23.58,40.08 20.11,34.41 16.64,28.75 13.16,23.09 9.68,17.43 6.20,11.77 2.71,6.12 -0.77,0.47 -0.82,0.37 -0.86,0.27 -0.88,0.16 -0.90,0.05 -0.90,-0.05 -0.89,-0.16 -0.86,-0.26 -0.82,-0.36 -0.77,-0.46 -0.71,-0.55 -0.63,-0.63 -0.56,-0.71 -0.46,-0.76 -0.37,-0.82 -0.27,-0.85 -0.16,-0.89 -0.05,-0.89 0.05,-0.90 0.15,-0.88 0.26,-0.86 0.36,-0.82 0.46,-0.77 0.55,-0.71 0.63,-0.64 0.70,-0.55 Z" fill="#36a64c" stroke="#36a64c" stroke-width="2.11" stroke-dasharray="none" stroke-dashoffset="none" stroke-linecap="round" stroke-linejoin="round" pointer-events="stroke"/></g></g><g id="9df832fd-4828-4826-3130-bba7c219a531_svg" class="tl-centered-g" transform="translate(1086.07, 407.31) rotate(0.00, 16.59, 23.56)"><defs><mask id="9df832fd-4828-4826-3130-bba7c219a531_clip"><rect x="-100" y="-100" width="233.18" height="247.12" fill="white"/><rect x="16.59" y="23.56" width="0" height="0" rx="2" ry="2" fill="black" opacity="1"/></mask></defs><g pointer-events="none" opacity="1" mask=""><path d="M 34.00,0.58 Q 34.00,0.58 29.83,6.45 25.66,12.32 21.49,18.20 17.33,24.08 13.16,29.96 9.00,35.84 4.85,41.72 0.69,47.60 0.59,47.70 0.50,47.80 0.37,47.86 0.25,47.92 0.12,47.94 -0.01,47.96 -0.15,47.94 -0.28,47.91 -0.40,47.85 -0.52,47.78 -0.61,47.68 -0.71,47.58 -0.76,47.45 -0.82,47.33 -0.83,47.19 -0.84,47.05 -0.81,46.92 -0.78,46.79 -0.70,46.67 -0.63,46.55 -0.53,46.47 -0.42,46.38 -0.29,46.33 -0.16,46.28 -0.03,46.28 0.10,46.27 0.23,46.31 0.36,46.35 0.48,46.43 0.59,46.51 0.67,46.62 0.75,46.73 0.79,46.86 0.83,46.99 0.83,47.13 0.83,47.27 0.78,47.40 0.74,47.53 0.65,47.63 0.57,47.74 0.45,47.82 0.34,47.89 0.20,47.93 0.07,47.96 -0.06,47.95 -0.19,47.94 -0.32,47.89 -0.45,47.83 -0.55,47.74 -0.65,47.65 -0.72,47.53 -0.79,47.41 -0.82,47.28 -0.84,47.15 -0.83,47.01 -0.81,46.87 -0.75,46.75 -0.69,46.63 -0.69,46.63 -0.69,46.63 3.44,40.73 7.58,34.83 11.71,28.93 15.84,23.03 19.97,17.13 24.10,11.23 28.22,5.32 32.35,-0.58 32.43,-0.67 32.51,-0.76 32.61,-0.83 32.71,-0.90 32.83,-0.94 32.94,-0.98 33.06,-0.99 33.18,-1.01 33.31,-0.99 33.43,-0.98 33.54,-0.93 33.65,-0.89 33.75,-0.82 33.85,-0.75 33.93,-0.65 34.01,-0.56 34.07,-0.45 34.12,-0.35 34.15,-0.23 34.18,-0.11 34.18,0.00 34.18,0.13 34.15,0.24 34.12,0.36 34.06,0.47 Z" fill="#cecece" stroke="#cecece" stroke-width="2.11" stroke-dasharray="none" stroke-dashoffset="none" stroke-linecap="round" stroke-linejoin="round" pointer-events="stroke"/></g></g><g id="aa353af3-8c1b-4bab-0e55-849fd9079bb7_svg" class="tl-centered-g" transform="translate(1218.66, 412.49) rotate(0.00, 13.44, 18.32)"><defs><mask id="aa353af3-8c1b-4bab-0e55-849fd9079bb7_clip"><rect x="-100" y="-100" width="226.88" height="236.63" fill="white"/><rect x="13.44" y="18.31" width="0" height="0" rx="2" ry="2" fill="black" opacity="1"/></mask></defs><g pointer-events="none" opacity="1" mask=""><path d="M 27.57,0.50 Q 27.57,0.50 24.17,5.06 20.78,9.61 17.39,14.17 14.01,18.73 10.63,23.30 7.25,27.86 3.88,32.43 0.50,37.00 0.43,37.07 0.36,37.14 0.27,37.19 0.17,37.23 0.07,37.24 -0.02,37.26 -0.12,37.24 -0.22,37.22 -0.31,37.16 -0.40,37.11 -0.46,37.04 -0.53,36.96 -0.57,36.87 -0.61,36.77 -0.62,36.67 -0.62,36.57 -0.60,36.47 -0.57,36.37 -0.52,36.28 -0.46,36.20 -0.38,36.14 -0.30,36.07 -0.20,36.04 -0.11,36.00 -0.01,36.00 0.09,36.00 0.18,36.03 0.28,36.06 0.36,36.12 0.45,36.18 0.50,36.27 0.56,36.35 0.59,36.45 0.62,36.55 0.62,36.65 0.61,36.75 0.58,36.85 0.54,36.94 0.48,37.02 0.41,37.10 0.33,37.15 0.24,37.21 0.14,37.23 0.04,37.25 -0.05,37.25 -0.15,37.24 -0.25,37.19 -0.34,37.15 -0.42,37.08 -0.49,37.02 -0.54,36.93 -0.59,36.84 -0.61,36.74 -0.63,36.64 -0.61,36.53 -0.60,36.43 -0.55,36.34 -0.50,36.25 -0.50,36.25 -0.50,36.25 2.83,31.66 6.18,27.07 9.52,22.48 12.86,17.89 16.20,13.29 19.53,8.70 22.86,4.09 26.18,-0.50 26.26,-0.58 26.33,-0.65 26.41,-0.71 26.50,-0.76 26.60,-0.80 26.69,-0.83 26.80,-0.84 26.90,-0.85 27.00,-0.84 27.10,-0.82 27.20,-0.78 27.29,-0.74 27.38,-0.68 27.46,-0.62 27.53,-0.54 27.59,-0.46 27.64,-0.37 27.68,-0.28 27.71,-0.17 27.73,-0.07 27.72,0.02 27.72,0.12 27.69,0.22 27.67,0.32 27.62,0.41 Z" fill="#36a64c" stroke="#36a64c" stroke-width="2.11" stroke-dasharray="none" stroke-dashoffset="none" stroke-linecap="round" stroke-linejoin="round" pointer-events="stroke"/></g></g><g id="fdf57383-7ba9-46f7-260a-40ba00d18e91_svg" class="tl-centered-g" transform="translate(1290.04, 411.54) rotate(0.00, 14.60, 18.05)"><defs><mask id="fdf57383-7ba9-46f7-260a-40ba00d18e91_clip"><rect x="-100" y="-100" width="229.2" height="236.1" fill="white"/><rect x="14.6" y="18.05" width="0" height="0" rx="2" ry="2" fill="black" opacity="1"/></mask></defs><g pointer-events="none" opacity="1" mask=""><path d="M 0.77,-0.63 Q 0.77,-0.63 4.40,3.90 8.03,8.43 11.66,12.96 15.29,17.48 18.93,22.01 22.56,26.53 26.20,31.05 29.84,35.57 29.91,35.69 29.98,35.80 30.00,35.94 30.03,36.07 30.01,36.20 29.99,36.34 29.93,36.46 29.87,36.58 29.78,36.68 29.68,36.77 29.56,36.83 29.44,36.89 29.31,36.91 29.17,36.93 29.04,36.90 28.91,36.88 28.79,36.81 28.67,36.75 28.58,36.65 28.49,36.55 28.44,36.42 28.39,36.30 28.37,36.16 28.36,36.03 28.40,35.90 28.43,35.77 28.50,35.65 28.57,35.54 28.68,35.45 28.78,35.37 28.91,35.32 29.04,35.28 29.17,35.27 29.31,35.27 29.43,35.31 29.56,35.35 29.67,35.42 29.78,35.50 29.86,35.61 29.94,35.72 29.98,35.85 30.02,35.98 30.02,36.11 30.02,36.25 29.97,36.38 29.92,36.50 29.84,36.61 29.75,36.71 29.64,36.79 29.53,36.86 29.40,36.89 29.27,36.93 29.13,36.92 29.00,36.91 28.87,36.85 28.75,36.80 28.65,36.71 28.55,36.62 28.55,36.62 28.55,36.62 24.89,32.12 21.23,27.61 17.56,23.11 13.90,18.61 10.23,14.11 6.56,9.61 2.89,5.12 -0.77,0.63 -0.84,0.52 -0.90,0.42 -0.94,0.31 -0.98,0.19 -0.99,0.07 -1.00,-0.04 -0.98,-0.16 -0.96,-0.28 -0.91,-0.39 -0.86,-0.50 -0.79,-0.60 -0.71,-0.69 -0.62,-0.77 -0.53,-0.84 -0.42,-0.90 -0.31,-0.95 -0.19,-0.97 -0.07,-0.99 0.04,-0.99 0.16,-0.98 0.28,-0.95 0.39,-0.92 0.50,-0.85 0.60,-0.79 0.69,-0.71 Z" fill="#cecece" stroke="#cecece" stroke-width="2.11" stroke-dasharray="none" stroke-dashoffset="none" stroke-linecap="round" stroke-linejoin="round" pointer-events="stroke"/></g></g><g id="a42abfe7-82ec-4df6-3a7c-9e87014173af_svg" class="tl-centered-g" transform="translate(113.83, 248.82) rotate(0.00, 54.56, 159.16)"><path d="M 34.23,316.90 Q 34.23,316.90 29.36,316.83 24.48,316.77 18.37,316.69 12.25,316.61 8.08,313.98 3.91,311.35 2.88,304.44 1.84,297.52 1.60,289.51 1.36,281.50 1.33,273.21 1.30,264.92 1.31,256.56 1.33,248.20 1.36,239.82 1.39,231.44 1.43,223.06 1.46,214.68 1.49,206.29 1.53,197.91 1.56,189.53 1.60,181.14 1.64,172.76 1.67,164.37 1.71,155.99 1.74,147.60 1.78,139.22 1.81,130.83 1.85,122.45 1.88,114.07 1.92,105.68 1.95,97.30 1.99,88.91 2.02,80.53 2.06,72.14 2.09,63.76 2.13,55.37 2.16,46.99 2.20,38.61 2.23,30.22 2.27,21.84 2.30,13.45 4.92,8.71 7.54,3.96 13.02,2.76 18.50,1.56 24.71,1.26 30.92,0.97 37.32,0.90 43.72,0.83 50.16,0.83 56.61,0.82 63.06,0.83 69.52,0.83 75.98,0.84 82.44,0.86 88.90,0.87 95.36,0.88 99.62,3.49 103.88,6.10 104.96,13.03 106.04,19.97 106.31,28.00 106.59,36.04 106.65,44.36 106.72,52.67 106.74,61.06 106.75,69.45 106.75,77.86 106.75,86.26 106.75,94.67 106.75,103.08 106.75,111.50 106.74,119.91 106.74,128.32 106.74,136.74 106.73,145.15 106.73,153.56 106.73,161.97 106.72,170.39 106.72,178.80 106.72,187.21 106.71,195.62 106.71,204.04 106.70,212.45 106.70,220.86 106.70,229.28 106.69,237.69 106.69,246.10 106.69,254.51 106.68,262.93 106.68,271.34 106.68,279.75 106.67,288.17 106.67,296.58 106.67,304.99 104.06,309.74 101.45,314.50 95.91,315.65 90.37,316.79 84.08,317.02 77.80,317.25 71.32,317.25 64.84,317.24 58.31,317.18 51.79,317.11 45.25,317.03 38.71,316.95 29.93,316.84" fill="#404a53" pointer-events="none"/><path d="M 34.20,319.13 Q 34.20,319.13 29.33,319.23 24.45,319.33 18.22,319.38 11.99,319.43 6.95,316.26 1.92,313.10 0.51,305.51 -0.88,297.93 -1.07,289.75 -1.26,281.58 -1.23,273.25 -1.20,264.93 -1.12,256.56 -1.04,248.20 -0.95,239.82 -0.85,231.44 -0.76,223.05 -0.66,214.67 -0.56,206.29 -0.46,197.90 -0.36,189.52 -0.27,181.13 -0.17,172.75 -0.07,164.37 -0.10,155.98 -0.13,147.60 -0.15,139.21 -0.18,130.83 -0.21,122.44 -0.24,114.06 -0.27,105.67 -0.29,97.29 -0.32,88.90 -0.35,80.52 -0.38,72.13 -0.41,63.75 -0.43,55.36 -0.46,46.98 -0.49,38.59 -0.52,30.21 -0.52,21.74 -0.53,13.27 2.56,7.68 5.66,2.08 11.81,0.57 17.96,-0.93 24.39,-1.10 30.82,-1.26 37.26,-1.16 43.70,-1.07 50.15,-1.08 56.61,-1.08 63.06,-1.24 69.52,-1.39 75.99,-1.55 82.45,-1.70 89.02,-1.82 95.59,-1.93 100.72,1.20 105.86,4.35 107.31,11.95 108.77,19.54 108.99,27.75 109.22,35.95 109.23,44.30 109.23,52.65 109.18,61.05 109.13,69.44 109.07,77.85 109.01,86.26 108.94,94.67 108.88,103.09 108.81,111.50 108.75,119.91 108.68,128.32 108.61,136.74 108.55,145.15 108.48,153.56 108.54,161.97 108.60,170.39 108.66,178.80 108.72,187.21 108.78,195.63 108.84,204.04 108.90,212.45 108.96,220.86 109.02,229.28 109.08,237.69 109.14,246.10 109.20,254.52 109.26,262.93 109.32,271.34 109.38,279.75 109.44,288.17 109.47,296.67 109.51,305.16 106.40,310.78 103.30,316.39 97.09,317.85 90.88,319.30 84.38,319.40 77.88,319.49 71.36,319.32 64.84,319.15 58.30,319.09 51.77,319.02 45.23,319.11 38.68,319.19 29.90,319.24 21.11,319.29 20.71,319.21 20.30,319.14 19.93,318.94 19.57,318.74 19.29,318.44 19.01,318.14 18.84,317.76 18.67,317.38 18.63,316.97 18.59,316.55 18.68,316.15 18.78,315.75 19.00,315.39 19.22,315.04 19.53,314.78 19.85,314.51 20.24,314.36 20.63,314.22 21.04,314.20 21.46,314.18 21.85,314.30 22.25,314.41 22.59,314.65 22.93,314.89 23.18,315.22 23.43,315.55 23.55,315.95 23.68,316.34 23.68,316.76 23.67,317.17 23.53,317.56 23.40,317.95 23.14,318.28 22.88,318.61 22.54,318.84 22.19,319.06 21.79,319.17 21.39,319.28 20.98,319.25 20.56,319.22 20.18,319.06 19.80,318.90 19.48,318.63 19.17,318.36 18.96,318.00 18.75,317.64 18.67,317.24 18.59,316.83 18.64,316.42 18.69,316.01 18.87,315.63 19.04,315.26 19.33,314.96 19.62,314.66 19.99,314.48 20.36,314.29 20.77,314.22 21.18,314.16 21.18,314.16 21.18,314.16 29.96,314.44 38.74,314.71 45.27,314.96 51.81,315.20 58.32,315.26 64.84,315.33 71.28,315.17 77.71,315.02 83.79,314.65 89.86,314.28 94.73,313.44 99.60,312.60 101.71,308.71 103.82,304.82 103.87,296.49 103.91,288.16 103.98,279.75 104.05,271.34 104.11,262.93 104.18,254.51 104.25,246.10 104.31,237.69 104.38,229.28 104.45,220.86 104.51,212.45 104.58,204.04 104.65,195.62 104.71,187.21 104.78,178.80 104.85,170.39 104.91,161.97 104.98,153.56 104.92,145.15 104.86,136.73 104.80,128.32 104.74,119.91 104.68,111.50 104.62,103.08 104.56,94.67 104.50,86.26 104.43,77.86 104.37,69.45 104.29,61.07 104.21,52.69 104.08,44.41 103.95,36.13 103.63,28.26 103.31,20.39 102.60,14.12 101.89,7.85 98.52,5.78 95.14,3.71 88.79,3.56 82.44,3.42 75.98,3.24 69.52,3.07 63.06,2.90 56.61,2.73 50.17,2.74 43.74,2.75 37.38,2.97 31.03,3.20 25.04,3.63 19.04,4.06 14.23,4.95 9.41,5.84 7.28,9.74 5.15,13.63 5.07,21.93 4.99,30.23 4.90,38.62 4.80,47.00 4.70,55.39 4.60,63.77 4.50,72.15 4.40,80.54 4.31,88.92 4.21,97.31 4.11,105.69 4.01,114.07 3.91,122.46 3.81,130.84 3.72,139.23 3.62,147.61 3.52,156.00 3.42,164.38 3.45,172.76 3.48,181.15 3.50,189.53 3.53,197.92 3.56,206.30 3.59,214.69 3.62,223.07 3.65,231.45 3.68,239.83 3.71,248.21 3.76,256.56 3.80,264.91 3.90,273.17 4.00,281.42 4.28,289.27 4.57,297.11 5.24,303.36 5.91,309.61 9.21,311.70 12.51,313.79 18.51,314.00 24.52,314.21 29.39,314.43 34.26,314.66 34.53,314.69 34.80,314.73 35.05,314.83 35.30,314.93 35.52,315.08 35.74,315.24 35.91,315.44 36.09,315.65 36.21,315.89 36.34,316.13 36.40,316.39 36.46,316.66 36.45,316.93 36.45,317.19 36.38,317.46 36.31,317.72 36.19,317.95 36.06,318.19 35.88,318.39 35.69,318.59 35.47,318.74 35.25,318.89 34.99,318.98 34.74,319.08 34.47,319.10 Z" fill="#717d8a" stroke="#717d8a" stroke-width="3.5" pointer-events="none"/></g><g id="3017822e-edfc-4980-32d6-646b0b0bccd0_svg" class="tl-centered-g" transform="translate(247.38, 248.47) rotate(0.00, 160.69, 51.98)"><path d="M 232.50,102.03 Q 232.50,102.03 226.53,102.04 220.57,102.04 213.08,102.04 205.59,102.04 197.72,102.04 189.85,102.05 181.87,102.05 173.90,102.05 165.90,102.05 157.90,102.05 149.90,102.06 141.89,102.06 133.89,102.06 125.88,102.06 117.87,102.06 109.87,102.07 101.86,102.07 93.85,102.07 85.84,102.07 77.84,102.07 69.83,102.08 61.82,102.08 53.82,102.08 45.81,102.08 37.80,102.09 29.79,102.09 21.79,102.09 13.78,102.09 9.13,99.48 4.48,96.88 3.28,91.57 2.09,86.26 1.77,80.26 1.46,74.26 1.36,68.08 1.27,61.90 1.24,55.68 1.20,49.46 1.18,43.23 1.16,37.00 1.15,30.76 1.13,24.53 1.12,18.29 1.10,12.06 3.70,7.86 6.31,3.66 12.93,2.64 19.55,1.61 27.19,1.39 34.84,1.17 42.74,1.16 50.65,1.15 58.62,1.19 66.59,1.23 74.58,1.29 82.57,1.34 90.57,1.40 98.56,1.46 106.55,1.52 114.55,1.58 122.54,1.64 130.54,1.70 138.53,1.76 146.53,1.82 154.52,1.88 162.52,1.93 170.51,1.99 178.51,2.05 186.50,2.11 194.50,2.17 202.49,2.23 210.49,2.29 218.48,2.35 226.48,2.41 234.47,2.47 242.47,2.53 250.46,2.59 258.46,2.65 266.45,2.71 274.45,2.77 282.44,2.83 290.44,2.88 298.43,2.94 306.43,3.00 311.08,5.63 315.72,8.25 316.94,13.44 318.16,18.63 318.51,24.47 318.86,30.32 318.98,36.33 319.10,42.34 319.17,48.40 319.24,54.45 319.29,60.52 319.34,66.58 319.39,72.65 319.44,78.72 319.49,84.79 319.54,90.86 316.94,95.01 314.35,99.17 307.72,100.23 301.09,101.29 293.44,101.56 285.78,101.84 277.86,101.91 269.95,101.98 261.96,102.00 253.98,102.02 245.98,102.02 237.98,102.03 229.97,102.03 221.96,102.04 213.96,102.04 205.95,102.04 197.94,102.04 189.94,102.05 181.93,102.05 173.92,102.05 165.92,102.05 157.91,102.05 149.90,102.06 141.89,102.06 131.15,102.06" fill="#404a53" pointer-events="none"/><path d="M 232.50,104.32 Q 232.50,104.32 226.53,104.26 220.57,104.21 213.08,104.15 205.59,104.09 197.72,104.03 189.85,103.98 181.87,103.92 173.90,103.86 165.90,103.86 157.90,103.86 149.90,103.93 141.89,103.99 133.89,104.05 125.88,104.11 117.87,104.17 109.87,104.24 101.86,104.30 93.85,104.36 85.84,104.42 77.84,104.48 69.83,104.55 61.82,104.61 53.82,104.67 45.81,104.73 37.80,104.79 29.79,104.86 21.70,104.89 13.60,104.93 8.10,101.85 2.60,98.77 1.10,92.79 -0.40,86.81 -0.59,80.59 -0.77,74.37 -0.70,68.15 -0.63,61.93 -0.66,55.70 -0.70,49.47 -0.88,43.24 -1.06,37.01 -1.24,30.77 -1.42,24.54 -1.57,18.18 -1.71,11.83 1.42,6.75 4.56,1.68 11.84,0.27 19.13,-1.12 26.94,-1.29 34.76,-1.46 42.70,-1.41 50.65,-1.37 58.63,-1.26 66.61,-1.16 74.60,-1.05 82.59,-0.93 90.58,-0.82 98.57,-0.70 106.57,-0.58 114.56,-0.46 122.56,-0.34 130.55,-0.22 138.55,-0.10 146.54,0.01 154.54,0.07 162.53,0.13 170.53,0.12 178.52,0.12 186.52,0.12 194.51,0.12 202.51,0.12 210.50,0.12 218.50,0.12 226.50,0.12 234.49,0.12 242.49,0.12 250.48,0.12 258.48,0.12 266.47,0.12 274.47,0.12 282.46,0.12 290.46,0.12 298.54,0.14 306.63,0.16 312.11,3.25 317.59,6.33 319.12,12.19 320.66,18.05 320.87,24.12 321.09,30.19 321.05,36.25 321.02,42.30 321.08,48.37 321.15,54.43 321.36,60.50 321.58,66.56 321.79,72.63 322.00,78.70 322.18,84.89 322.36,91.08 319.23,96.12 316.11,101.15 308.82,102.59 301.53,104.02 293.70,104.25 285.87,104.48 277.92,104.49 269.97,104.51 261.98,104.47 253.98,104.43 245.98,104.37 237.98,104.32 229.97,104.26 221.96,104.21 213.96,104.15 205.95,104.09 197.94,104.03 189.94,103.98 181.93,103.92 173.92,103.86 165.92,103.86 157.91,103.86 149.90,103.93 141.89,103.99 131.15,104.05 120.40,104.11 120.07,104.06 119.74,104.01 119.45,103.85 119.16,103.70 118.93,103.45 118.70,103.21 118.56,102.91 118.42,102.61 118.39,102.28 118.35,101.95 118.42,101.63 118.49,101.31 118.67,101.02 118.84,100.74 119.09,100.52 119.34,100.31 119.65,100.19 119.96,100.06 120.29,100.04 120.62,100.03 120.94,100.11 121.26,100.20 121.53,100.39 121.81,100.58 122.01,100.84 122.21,101.10 122.31,101.42 122.42,101.73 122.42,102.06 122.42,102.40 122.31,102.71 122.21,103.02 122.01,103.29 121.81,103.55 121.53,103.74 121.26,103.92 120.94,104.01 120.62,104.10 120.29,104.08 119.96,104.07 119.65,103.94 119.34,103.82 119.09,103.61 118.84,103.39 118.67,103.11 118.49,102.82 118.42,102.50 118.35,102.17 118.39,101.85 118.42,101.52 118.56,101.21 118.70,100.91 118.93,100.67 119.16,100.43 119.45,100.28 119.74,100.12 120.07,100.07 120.40,100.01 120.40,100.01 120.40,100.01 131.15,100.07 141.89,100.13 149.90,100.19 157.91,100.24 165.91,100.24 173.92,100.24 181.93,100.18 189.94,100.12 197.94,100.05 205.95,99.99 213.96,99.93 221.96,99.87 229.97,99.80 237.97,99.74 245.97,99.67 253.97,99.61 261.95,99.53 269.92,99.45 277.81,99.32 285.69,99.19 293.17,98.87 300.66,98.56 306.62,97.87 312.58,97.19 314.65,93.91 316.72,90.64 316.80,84.69 316.88,78.74 316.99,72.67 317.11,66.60 317.22,60.54 317.33,54.47 317.26,48.43 317.19,42.38 316.91,36.42 316.62,30.45 316.14,24.83 315.67,19.21 314.76,14.69 313.85,10.17 310.04,8.00 306.23,5.84 298.33,5.75 290.42,5.65 282.42,5.53 274.43,5.41 266.44,5.29 258.44,5.18 250.45,5.06 242.45,4.94 234.46,4.82 226.46,4.70 218.47,4.58 210.47,4.46 202.48,4.34 194.48,4.22 186.49,4.10 178.49,3.98 170.50,3.86 162.51,3.74 154.51,3.69 146.51,3.63 138.52,3.63 130.52,3.63 122.53,3.63 114.53,3.63 106.54,3.63 98.54,3.63 90.55,3.63 82.56,3.63 74.57,3.64 66.58,3.64 58.62,3.66 50.65,3.68 42.78,3.75 34.91,3.82 27.44,4.08 19.97,4.34 14.01,5.00 8.06,5.65 5.99,8.97 3.92,12.28 3.81,18.40 3.69,24.52 3.55,30.76 3.40,36.99 3.26,43.22 3.12,49.45 3.15,55.66 3.18,61.88 3.44,68.01 3.69,74.14 4.14,79.92 4.59,85.70 5.47,90.34 6.36,94.98 10.16,97.12 13.96,99.25 21.88,99.29 29.79,99.32 37.80,99.38 45.81,99.44 53.81,99.49 61.82,99.55 69.83,99.61 77.84,99.67 85.84,99.72 93.85,99.78 101.86,99.84 109.86,99.90 117.87,99.96 125.88,100.01 133.89,100.07 141.89,100.13 149.90,100.19 157.90,100.24 165.90,100.24 173.90,100.24 181.87,100.18 189.85,100.12 197.72,100.05 205.59,99.99 213.08,99.93 220.57,99.87 226.53,99.81 232.50,99.75 232.77,99.78 233.04,99.81 233.30,99.91 233.56,100.01 233.79,100.16 234.02,100.32 234.20,100.53 234.38,100.73 234.51,100.98 234.64,101.22 234.70,101.49 234.77,101.76 234.77,102.03 234.77,102.31 234.70,102.58 234.64,102.85 234.51,103.09 234.38,103.33 234.20,103.54 234.02,103.75 233.79,103.90 233.56,104.06 233.30,104.16 233.05,104.26 232.77,104.29 Z" fill="#717d8a" stroke="#717d8a" stroke-width="3.5" pointer-events="none"/></g><g id="a1ae2cce-9ced-42a1-1f79-4299060865b2_svg" class="tl-centered-g" transform="translate(256.00, 380.37) rotate(0.00, 153.19, 89.31)"><path d="M 2.50,89.86 Q 2.50,89.86 2.50,83.87 2.50,77.88 2.50,70.36 2.49,62.84 2.49,54.94 2.49,47.03 2.48,39.03 2.48,31.02 2.48,22.99 2.47,14.96 5.08,10.30 7.69,5.65 14.30,4.46 20.92,3.27 28.56,2.97 36.19,2.66 44.09,2.59 51.99,2.51 59.96,2.49 67.92,2.47 75.90,2.46 83.89,2.45 91.87,2.45 99.86,2.45 107.85,2.45 115.84,2.45 123.82,2.44 131.81,2.44 139.80,2.44 147.79,2.44 155.78,2.44 163.76,2.44 171.75,2.44 179.74,2.44 187.73,2.43 195.72,2.43 203.70,2.43 211.69,2.43 219.68,2.43 227.67,2.43 235.66,2.43 243.65,2.43 251.63,2.42 259.62,2.42 267.61,2.42 275.60,2.42 283.59,2.42 291.57,2.42 296.22,5.03 300.86,7.63 302.03,14.30 303.19,20.97 303.47,28.68 303.75,36.39 303.80,44.36 303.85,52.33 303.85,60.36 303.84,68.40 303.82,76.46 303.80,84.51 303.78,92.57 303.75,100.63 303.73,108.69 303.70,116.75 303.68,124.81 303.65,132.87 303.62,140.93 303.60,148.99 303.57,157.05 303.55,165.11 300.93,169.77 298.32,174.44 291.71,175.62 285.11,176.80 277.48,177.09 269.86,177.39 261.98,177.45 254.09,177.52 246.14,177.53 238.20,177.54 230.23,177.53 222.26,177.53 214.29,177.52 206.32,177.51 198.35,177.50 190.38,177.49 182.41,177.48 174.44,177.47 166.46,177.46 158.49,177.45 150.52,177.44 142.55,177.43 134.58,177.42 126.60,177.40 118.63,177.39 110.66,177.38 102.69,177.37 94.72,177.36 86.74,177.35 78.77,177.34 70.80,177.33 62.83,177.32 54.86,177.31 46.88,177.30 38.91,177.29 30.94,177.28 22.97,177.27 15.00,177.26 10.36,174.65 5.72,172.04 4.53,165.38 3.34,158.73 3.04,151.04 2.73,143.35 2.65,135.40 2.57,127.46 2.55,119.44 2.53,111.42 2.52,103.39 2.51,95.36 2.51,87.32 2.50,79.28 2.50,68.49" fill="#404a53" pointer-events="none"/><path d="M 0.75,89.86 Q 0.75,89.86 0.64,83.87 0.52,77.88 0.41,70.36 0.29,62.84 0.17,54.94 0.05,47.03 -0.05,39.03 -0.17,31.02 -0.26,22.90 -0.36,14.78 2.77,9.25 5.90,3.71 13.17,2.13 20.43,0.55 28.26,0.29 36.09,0.03 44.03,0.02 51.97,0.00 59.94,0.04 67.92,0.08 75.90,0.14 83.89,0.20 91.87,0.26 99.86,0.32 107.85,0.38 115.84,0.44 123.82,0.50 131.81,0.57 139.80,0.63 147.79,0.69 155.78,0.63 163.76,0.56 171.75,0.50 179.74,0.43 187.73,0.37 195.72,0.30 203.70,0.24 211.69,0.18 219.68,0.11 227.67,0.05 235.66,-0.01 243.65,-0.07 251.63,-0.14 259.62,-0.20 267.61,-0.27 275.60,-0.33 283.68,-0.37 291.76,-0.41 297.28,2.72 302.80,5.86 304.31,13.19 305.81,20.52 306.00,28.41 306.18,36.30 306.12,44.30 306.06,52.31 305.94,60.36 305.82,68.40 305.68,76.46 305.55,84.51 305.64,92.57 305.73,100.63 305.82,108.69 305.91,116.76 305.99,124.82 306.08,132.88 306.17,140.94 306.26,149.00 306.32,157.15 306.39,165.30 303.25,170.83 300.10,176.37 292.85,177.94 285.59,179.52 277.78,179.77 269.96,180.02 262.04,180.02 254.12,180.03 246.16,179.97 238.20,179.92 230.23,179.85 222.26,179.78 214.29,179.71 206.32,179.64 198.35,179.57 190.38,179.49 182.40,179.42 174.43,179.34 166.46,179.27 158.49,179.20 150.52,179.25 142.55,179.30 134.57,179.36 126.60,179.41 118.63,179.46 110.66,179.51 102.69,179.57 94.71,179.62 86.74,179.67 78.77,179.72 70.80,179.78 62.83,179.83 54.85,179.88 46.88,179.93 38.91,179.99 30.94,180.04 22.87,180.07 14.81,180.10 9.30,176.96 3.78,173.82 2.25,166.51 0.73,159.19 0.51,151.32 0.30,143.45 0.34,135.46 0.37,127.48 0.46,119.45 0.55,111.43 0.66,103.39 0.76,95.36 0.64,87.32 0.52,79.28 0.40,68.49 0.29,57.70 0.34,57.35 0.40,56.99 0.57,56.68 0.73,56.36 0.99,56.12 1.25,55.87 1.58,55.72 1.90,55.57 2.25,55.53 2.61,55.50 2.96,55.57 3.31,55.65 3.61,55.83 3.92,56.02 4.15,56.29 4.38,56.56 4.51,56.89 4.64,57.22 4.66,57.58 4.68,57.94 4.59,58.28 4.49,58.62 4.29,58.92 4.09,59.21 3.81,59.43 3.52,59.65 3.19,59.76 2.85,59.87 2.49,59.87 2.13,59.87 1.80,59.76 1.46,59.65 1.17,59.43 0.89,59.21 0.69,58.92 0.49,58.62 0.39,58.28 0.30,57.94 0.32,57.58 0.34,57.22 0.47,56.89 0.60,56.56 0.83,56.29 1.06,56.02 1.37,55.83 1.67,55.65 2.02,55.57 2.37,55.50 2.73,55.53 3.08,55.57 3.40,55.72 3.73,55.87 3.99,56.12 4.25,56.36 4.41,56.68 4.58,56.99 4.64,57.35 4.70,57.70 4.70,57.70 4.70,57.70 4.59,68.49 4.48,79.28 4.37,87.32 4.26,95.35 4.38,103.39 4.50,111.42 4.64,119.42 4.78,127.43 4.97,135.35 5.16,143.26 5.56,150.76 5.96,158.26 6.81,164.26 7.65,170.25 11.42,172.34 15.18,174.42 23.06,174.47 30.94,174.52 38.92,174.59 46.89,174.66 54.86,174.74 62.83,174.81 70.80,174.89 78.78,174.96 86.75,175.03 94.72,175.11 102.69,175.18 110.66,175.25 118.63,175.33 126.61,175.40 134.58,175.48 142.55,175.55 150.52,175.62 158.49,175.70 166.47,175.64 174.44,175.59 182.41,175.54 190.38,175.49 198.35,175.43 206.32,175.38 214.29,175.33 222.26,175.27 230.23,175.21 238.19,175.16 246.13,175.08 254.07,175.01 261.92,174.88 269.76,174.75 277.19,174.42 284.63,174.08 290.58,173.29 296.53,172.50 298.62,168.71 300.71,164.93 300.82,156.95 300.94,148.98 301.08,140.92 301.22,132.86 301.36,124.80 301.50,116.74 301.63,108.68 301.77,100.62 301.91,92.56 302.05,84.51 301.96,76.45 301.86,68.40 301.76,60.37 301.65,52.34 301.48,44.41 301.32,36.47 300.95,28.95 300.57,21.43 299.75,15.42 298.92,9.41 295.16,7.33 291.39,5.26 283.50,5.22 275.60,5.18 267.61,5.12 259.62,5.06 251.63,5.00 243.65,4.93 235.66,4.87 227.67,4.81 219.68,4.75 211.69,4.69 203.71,4.62 195.72,4.56 187.73,4.50 179.74,4.44 171.75,4.38 163.76,4.31 155.78,4.25 147.79,4.19 139.80,4.25 131.81,4.32 123.82,4.38 115.84,4.45 107.85,4.51 99.86,4.58 91.87,4.64 83.89,4.71 75.91,4.78 67.93,4.85 59.97,4.93 52.02,5.02 44.16,5.16 36.30,5.30 28.85,5.64 21.40,5.99 15.44,6.79 9.47,7.58 7.39,11.36 5.31,15.14 5.23,23.08 5.14,31.02 5.03,39.02 4.92,47.03 4.81,54.94 4.70,62.84 4.59,70.36 4.48,77.88 4.37,83.87 4.25,89.85 4.23,90.06 4.20,90.27 4.13,90.47 4.05,90.67 3.93,90.84 3.82,91.02 3.66,91.16 3.50,91.30 3.31,91.39 3.13,91.49 2.92,91.54 2.72,91.59 2.51,91.59 2.29,91.59 2.09,91.54 1.88,91.49 1.70,91.39 1.51,91.30 1.35,91.16 1.20,91.02 1.08,90.84 0.96,90.67 0.88,90.47 0.81,90.28 0.78,90.07 Z" fill="#717d8a" stroke="#717d8a" stroke-width="3.5" pointer-events="none"/></g><g id="0c41d678-e009-4805-3b8d-f1119565ebb2_svg" class="tl-centered-g" transform="translate(507.64, 300.41) rotate(0.00, 223.52, 1.00)"><defs><mask id="0c41d678-e009-4805-3b8d-f1119565ebb2_clip"><rect x="-100" y="-100" width="647.04" height="202" fill="white"/><rect x="223.52" y="1" width="0" height="0" rx="4" ry="4" fill="black" opacity="1"/></mask></defs><g pointer-events="none" opacity="1" mask=""><path d="M 447.04,1.57 Q 447.04,1.57 391.60,1.75 336.16,1.93 280.71,2.13 225.27,2.33 169.83,2.54 114.39,2.75 58.94,2.97 3.50,3.19 3.31,3.16 3.11,3.13 2.94,3.04 2.77,2.95 2.63,2.80 2.50,2.66 2.41,2.49 2.33,2.31 2.31,2.11 2.29,1.92 2.33,1.73 2.37,1.54 2.47,1.37 2.57,1.20 2.72,1.07 2.87,0.94 3.05,0.87 3.23,0.80 3.43,0.79 3.62,0.78 3.81,0.83 4.00,0.88 4.16,0.99 4.32,1.10 4.44,1.25 4.56,1.41 4.63,1.59 4.69,1.78 4.69,1.97 4.69,2.17 4.63,2.36 4.57,2.54 4.45,2.70 4.33,2.85 4.17,2.97 4.01,3.08 3.82,3.13 3.63,3.18 3.44,3.17 3.24,3.16 3.06,3.09 2.88,3.02 2.73,2.89 2.58,2.77 2.47,2.60 2.37,2.43 2.33,2.24 2.29,2.05 2.31,1.86 2.33,1.66 2.41,1.48 2.49,1.30 2.62,1.16 2.76,1.02 2.93,0.93 3.10,0.83 3.30,0.80 3.49,0.77 3.49,0.77 3.49,0.77 58.93,0.49 114.37,0.22 169.82,-0.06 225.26,-0.34 280.70,-0.64 336.14,-0.94 391.59,-1.25 447.03,-1.57 447.22,-1.55 447.40,-1.52 447.58,-1.46 447.76,-1.39 447.92,-1.28 448.07,-1.18 448.20,-1.04 448.33,-0.89 448.42,-0.73 448.50,-0.56 448.55,-0.38 448.60,-0.19 448.60,-0.00 448.60,0.18 448.55,0.36 448.51,0.55 448.42,0.71 448.33,0.88 448.21,1.03 448.08,1.17 447.93,1.28 447.77,1.39 447.60,1.45 447.42,1.52 447.23,1.55 Z" fill="#36a64c" stroke="#36a64c" stroke-width="3.33" stroke-dasharray="none" stroke-dashoffset="none" stroke-linecap="round" stroke-linejoin="round" pointer-events="stroke"/><g><path d="M 24.31,15.891375334323072 L 0,2 24.18,-12.108344452380798" fill="none" stroke="#36a64c" stroke-width="6.66" stroke-linecap="round" stroke-linejoin="round" pointer-events="none"/></g></g></g><g id="551ea7c9-4551-4a68-2f5a-38782f7c3b7a_svg" class="tl-centered-g" transform="translate(693.13, 238.81) rotate(0.00, 96.75, 66.67)"><path d="M 190.71,91.63 Q 190.71,91.63 190.74,97.81 190.76,103.98 190.78,111.74 190.81,119.49 188.21,124.07 185.61,128.66 179.00,129.86 172.40,131.06 164.77,131.40 157.14,131.74 149.25,131.86 141.36,131.98 133.41,132.05 125.46,132.11 117.48,132.16 109.51,132.21 101.54,132.26 93.56,132.31 85.58,132.35 77.61,132.40 69.63,132.45 61.65,132.49 53.68,132.54 45.70,132.58 37.72,132.63 29.74,132.67 21.77,132.72 13.79,132.76 9.15,130.17 4.51,127.57 3.38,120.73 2.26,113.89 2.03,105.97 1.80,98.04 1.80,89.85 1.80,81.65 1.86,73.38 1.92,65.11 1.99,56.82 2.07,48.53 2.15,40.24 2.22,31.95 2.30,23.66 2.38,15.36 5.01,10.64 7.64,5.92 14.20,4.68 20.76,3.45 28.33,3.10 35.89,2.75 43.71,2.63 51.53,2.50 59.42,2.44 67.31,2.38 75.21,2.33 83.11,2.28 91.02,2.23 98.93,2.19 106.84,2.14 114.75,2.10 122.66,2.05 130.56,2.01 138.47,1.96 146.38,1.92 154.29,1.88 162.20,1.83 170.11,1.79 178.02,1.74 182.64,4.34 187.27,6.93 188.47,13.77 189.67,20.61 189.99,28.53 190.32,36.46 190.43,44.65 190.53,52.85 190.58,61.12 190.63,69.39 190.66,77.67 190.69,85.96 190.73,97.08" fill="#595642" pointer-events="none"/><path d="M 192.95,91.62 Q 192.95,91.62 193.14,97.80 193.32,103.97 193.48,111.82 193.65,119.67 190.53,125.13 187.40,130.59 180.14,132.14 172.87,133.70 165.06,133.96 157.25,134.21 149.32,134.23 141.40,134.25 133.44,134.21 125.47,134.17 117.50,134.12 109.52,134.07 101.55,134.11 93.57,134.16 85.60,134.31 77.62,134.46 69.64,134.61 61.67,134.76 53.69,134.91 45.71,135.06 37.74,135.20 29.76,135.35 21.69,135.48 13.62,135.60 8.09,132.46 2.55,129.32 1.14,121.81 -0.26,114.30 -0.34,106.21 -0.43,98.11 -0.26,89.88 -0.10,81.65 -0.04,73.37 0.01,65.09 -0.07,56.80 -0.16,48.51 -0.24,40.22 -0.33,31.93 -0.39,23.55 -0.45,15.17 2.68,9.58 5.83,4.00 13.05,2.40 20.27,0.81 28.02,0.54 35.78,0.28 43.64,0.26 51.50,0.24 59.40,0.28 67.29,0.32 75.20,0.37 83.10,0.42 91.01,0.38 98.92,0.33 106.83,0.19 114.74,0.04 122.64,-0.10 130.55,-0.25 138.46,-0.40 146.37,-0.54 154.28,-0.69 162.19,-0.84 170.19,-0.96 178.19,-1.09 183.70,2.03 189.21,5.16 190.70,12.67 192.19,20.17 192.37,28.27 192.56,36.36 192.50,44.59 192.44,52.83 192.49,61.10 192.54,69.37 192.73,77.66 192.93,85.95 193.13,97.08 193.33,108.20 193.27,108.61 193.20,109.02 193.01,109.39 192.82,109.76 192.52,110.04 192.22,110.33 191.84,110.50 191.47,110.68 191.05,110.72 190.64,110.77 190.24,110.68 189.83,110.60 189.47,110.38 189.12,110.17 188.85,109.86 188.58,109.54 188.43,109.16 188.27,108.77 188.25,108.36 188.22,107.94 188.33,107.54 188.44,107.14 188.67,106.80 188.90,106.46 189.23,106.20 189.56,105.95 189.96,105.82 190.35,105.68 190.76,105.68 191.18,105.68 191.57,105.81 191.96,105.94 192.29,106.19 192.63,106.44 192.86,106.79 193.09,107.13 193.21,107.53 193.32,107.93 193.30,108.34 193.28,108.75 193.12,109.14 192.97,109.53 192.70,109.84 192.44,110.16 192.08,110.37 191.73,110.59 191.32,110.68 190.92,110.77 190.51,110.73 190.09,110.68 189.72,110.51 189.34,110.34 189.04,110.05 188.74,109.77 188.54,109.40 188.35,109.04 188.28,108.63 188.21,108.22 188.21,108.22 188.21,108.22 188.33,97.09 188.45,85.97 188.58,77.68 188.71,69.40 188.67,61.14 188.62,52.87 188.35,44.71 188.09,36.55 187.61,28.80 187.14,21.05 186.24,14.88 185.33,8.71 181.59,6.65 177.85,4.58 170.03,4.55 162.22,4.51 154.31,4.45 146.40,4.39 138.49,4.33 130.58,4.28 122.67,4.22 114.76,4.16 106.85,4.10 98.94,4.04 91.03,4.09 83.13,4.13 75.23,4.28 67.32,4.44 59.45,4.60 51.57,4.77 43.79,5.00 36.01,5.22 28.63,5.65 21.25,6.08 15.35,6.96 9.44,7.84 7.33,11.70 5.22,15.56 5.00,23.77 4.79,31.97 4.55,40.26 4.31,48.55 4.07,56.84 3.83,65.12 3.77,73.38 3.71,81.65 3.88,89.81 4.04,97.98 4.41,105.73 4.79,113.48 5.62,119.65 6.46,125.82 10.21,127.87 13.96,129.92 21.84,129.96 29.73,129.99 37.71,130.05 45.68,130.11 53.66,130.17 61.64,130.22 69.62,130.28 77.60,130.34 85.57,130.40 93.55,130.45 101.53,130.41 109.50,130.36 117.47,130.21 125.44,130.05 133.38,129.89 141.33,129.72 149.18,129.50 157.03,129.27 164.47,128.85 171.92,128.42 177.87,127.57 183.81,126.72 185.89,123.02 187.97,119.31 188.08,111.65 188.19,103.99 188.34,97.81 188.48,91.64 188.51,91.37 188.54,91.10 188.64,90.85 188.73,90.60 188.88,90.37 189.03,90.15 189.24,89.97 189.44,89.79 189.68,89.67 189.91,89.54 190.18,89.47 190.44,89.41 190.71,89.41 190.98,89.41 191.24,89.47 191.50,89.53 191.74,89.66 191.98,89.78 192.18,89.96 192.38,90.14 192.54,90.36 192.69,90.58 192.79,90.83 192.89,91.09 192.92,91.35 Z" fill="#ebbb38" stroke="#ebbb38" stroke-width="3.5" pointer-events="none"/></g><g text-align="left" text-anchor="start" fill="#cecece" transform="translate(716.19, 266.14) rotate(0.00, 69.50, 39.00)"><text y="24" letter-spacing="-1.44" font-size="48px" font-family="Caveat Brush" text-align="left" alignment-baseline="central" transform="scale(1.4094797687861271)">HTML</text></g></svg>