<svg xmlns="http://www.w3.org/2000/svg" viewBox="0 0 1504 688" width="1472" height="656" style="background-color: transparent;"><defs><style>@import url('https://fonts.googleapis.com/css2?family=Caveat+Brush&amp;family=Source+Code+Pro&amp;family=Source+Sans+Pro&amp;family=Crimson+Pro&amp;display=block');</style></defs><g id="8b096ef8-8051-467e-0588-95e7dcca1653_svg" class="tl-centered-g" transform="translate(16.00, 16.00) rotate(0.00, 736.00, 328.00)"><g pointer-events="none" stroke="transparent" stroke-width="4.23" stroke-linecap="round"><line x1="2.11" y1="2.11" x2="1469.88" y2="2.11" stroke-dasharray="0.03 6.46" stroke-dashoffset="0"/><line x1="1469.88" y1="2.11" x2="1469.88" y2="653.88" stroke-dasharray="0.03 6.48" stroke-dashoffset="0"/><line x1="1469.88" y1="653.88" x2="2.11" y2="653.88" stroke-dasharray="0.03 6.46" stroke-dashoffset="0"/><line x1="2.11" y1="653.88" x2="2.11" y2="2.11" stroke-dasharray="0.03 6.48" stroke-dashoffset="0"/></g></g><g id="3164c3bd-22cd-4b13-37b8-cfc96555a925_svg" class="tl-centered-g" transform="translate(96.29, 288.50) rotate(0.00, 185.25, 51.77)"><g opacity="1"><path d="M 261.49,14.87 Q 261.49,14.87 259.40,14.64 257.31,14.41 253.69,13.92 250.06,13.42 246.09,12.65 242.11,11.88 239.00,11.21 235.88,10.54 232.32,9.76 228.77,8.98 224.81,8.17 220.86,7.36 216.39,6.66 211.93,5.95 206.63,5.35 201.33,4.75 195.66,4.30 189.99,3.84 185.02,3.57 180.05,3.29 175.07,3.12 170.09,2.95 164.17,2.84 158.25,2.73 152.08,2.66 145.90,2.59 140.44,2.55 134.97,2.50 130.23,2.47 125.50,2.44 120.94,2.42 116.38,2.40 111.81,2.43 107.24,2.45 102.79,2.58 98.34,2.71 94.03,3.02 89.71,3.33 85.54,3.83 81.38,4.33 77.37,4.95 73.37,5.57 69.59,6.28 65.81,7.00 62.38,7.83 58.94,8.67 55.82,9.57 52.70,10.48 49.85,11.40 47.01,12.33 42.05,14.29 37.10,16.26 32.75,18.53 28.40,20.80 24.36,23.48 20.32,26.17 17.99,28.10 15.65,30.04 13.85,32.17 12.05,34.29 10.07,37.77 8.09,41.25 7.38,44.87 6.67,48.50 6.54,51.39 6.42,54.28 7.36,57.34 8.31,60.40 10.54,63.12 12.76,65.85 16.43,69.42 20.10,73.00 22.39,74.85 24.68,76.70 27.49,78.72 30.30,80.75 33.76,82.93 37.23,85.11 40.75,86.87 44.28,88.62 47.64,89.82 51.00,91.03 54.58,92.01 58.15,92.99 62.65,94.06 67.15,95.14 72.50,96.12 77.84,97.11 83.22,97.86 88.59,98.61 93.50,99.13 98.41,99.66 103.96,99.97 109.52,100.29 116.03,100.48 122.54,100.66 130.07,100.77 137.59,100.88 143.18,100.95 148.77,101.01 153.88,101.05 159.00,101.09 163.59,101.12 168.18,101.14 173.90,101.15 179.63,101.17 185.97,101.10 192.31,101.03 198.24,100.84 204.17,100.65 209.88,100.31 215.58,99.97 220.49,99.56 225.39,99.16 230.32,98.64 235.25,98.12 241.28,97.35 247.30,96.59 253.48,95.73 259.65,94.88 265.21,94.03 270.76,93.18 275.66,92.34 280.55,91.49 285.09,90.63 289.64,89.77 294.06,88.86 298.49,87.95 302.81,87.01 307.13,86.08 311.42,85.12 315.71,84.17 319.93,83.20 324.14,82.23 328.10,81.21 332.06,80.19 335.38,79.08 338.69,77.96 341.34,76.89 343.99,75.81 348.33,73.79 352.67,71.76 355.68,69.94 358.70,68.11 361.10,66.10 363.50,64.10 363.11,61.16 362.72,58.23 358.81,55.55 354.89,52.86 352.25,51.23 349.62,49.60 346.90,48.09 344.19,46.58 341.16,44.99 338.13,43.40 334.71,41.71 331.29,40.02 327.36,38.20 323.43,36.39 319.54,34.81 315.66,33.24 312.01,32.09 308.36,30.94 304.79,29.99 301.22,29.04 298.05,28.33 294.88,27.61 289.96,26.74 285.04,25.87 281.50,25.35 277.96,24.83 274.70,24.60 271.44,24.37 270.64,24.15 269.84,23.93 269.15,23.46 268.46,22.99 267.95,22.33 267.45,21.67 267.18,20.88 266.92,20.09 266.92,19.26 266.92,18.42 267.18,17.64 267.45,16.85 267.95,16.18 268.46,15.52 269.14,15.05 269.83,14.59 270.63,14.36 271.44,14.14 272.27,14.19 273.10,14.23 273.87,14.54 274.65,14.85 275.28,15.38 275.92,15.92 276.34,16.64 276.77,17.35 276.95,18.16 277.13,18.97 277.04,19.80 276.95,20.63 276.60,21.39 276.25,22.14 275.68,22.75 275.11,23.35 274.37,23.74 273.64,24.13 272.82,24.27 272.00,24.40 271.17,24.27 270.35,24.13 269.62,23.74 268.88,23.35 268.31,22.75 267.74,22.14 267.39,21.39 267.04,20.63 266.95,19.80 266.86,18.98 267.04,18.16 267.21,17.35 267.64,16.64 268.07,15.92 268.71,15.39 269.34,14.85 270.11,14.54 270.89,14.23 271.72,14.19 272.55,14.14 272.55,14.14 272.55,14.14 276.30,14.90 280.05,15.66 283.47,16.72 286.89,17.79 291.76,19.25 296.62,20.72 299.78,21.61 302.93,22.49 306.61,23.44 310.28,24.38 314.13,25.44 317.97,26.49 322.13,27.68 326.29,28.87 330.56,30.16 334.83,31.46 338.62,32.76 342.40,34.05 345.74,35.37 349.09,36.70 352.12,38.03 355.15,39.37 358.16,40.80 361.18,42.22 363.76,43.66 366.34,45.10 369.41,47.72 372.49,50.34 374.24,53.46 375.99,56.58 375.93,59.94 375.87,63.30 374.53,66.11 373.19,68.92 370.56,71.20 367.93,73.48 365.41,74.77 362.88,76.06 359.20,77.50 355.51,78.94 350.70,80.33 345.89,81.72 343.03,82.42 340.18,83.12 336.69,83.96 333.21,84.81 329.19,85.77 325.17,86.73 320.95,87.70 316.72,88.67 312.41,89.63 308.11,90.59 303.77,91.53 299.42,92.47 294.96,93.39 290.50,94.31 285.92,95.18 281.34,96.04 276.40,96.89 271.46,97.75 265.87,98.60 260.29,99.46 254.09,100.32 247.89,101.18 241.81,101.95 235.74,102.73 230.76,103.25 225.77,103.78 220.82,104.19 215.86,104.60 210.09,104.95 204.33,105.30 198.35,105.50 192.37,105.70 186.00,105.78 179.62,105.86 173.89,105.86 168.16,105.86 163.57,105.86 158.97,105.85 153.85,105.84 148.73,105.83 143.13,105.80 137.54,105.78 129.98,105.72 122.43,105.67 115.85,105.55 109.27,105.44 103.59,105.21 97.91,104.98 92.91,104.59 87.91,104.19 82.40,103.62 76.89,103.04 71.39,102.29 65.88,101.53 61.14,100.77 56.39,100.00 52.49,99.10 48.59,98.21 44.88,97.03 41.17,95.86 37.19,94.38 33.20,92.90 29.05,91.15 24.90,89.40 21.49,87.54 18.08,85.68 15.30,83.80 12.53,81.93 10.06,79.97 7.59,78.02 3.74,74.14 -0.09,70.26 -2.61,65.88 -5.13,61.49 -5.58,57.57 -6.03,53.65 -5.72,50.17 -5.40,46.70 -4.54,42.90 -3.69,39.11 -2.11,35.90 -0.54,32.69 1.69,29.82 3.94,26.95 6.69,24.40 9.45,21.85 12.28,20.11 15.11,18.36 19.77,15.66 24.43,12.95 29.42,10.88 34.40,8.82 37.04,8.00 39.68,7.18 42.46,6.48 45.24,5.77 48.24,5.11 51.24,4.46 54.52,3.81 57.80,3.17 61.38,2.55 64.96,1.93 68.82,1.36 72.68,0.79 76.75,0.24 80.82,-0.29 85.10,-0.81 89.37,-1.32 93.79,-1.65 98.20,-1.98 102.70,-2.12 107.20,-2.27 111.79,-2.32 116.38,-2.37 120.94,-2.39 125.50,-2.40 130.25,-2.41 134.99,-2.42 140.45,-2.44 145.92,-2.45 152.11,-2.47 158.30,-2.48 164.24,-2.48 170.19,-2.49 175.22,-2.47 180.25,-2.46 185.28,-2.39 190.32,-2.33 196.08,-2.17 201.85,-2.00 207.26,-1.79 212.68,-1.57 217.33,-1.37 221.99,-1.18 226.16,-0.91 230.32,-0.64 233.99,-0.26 237.65,0.12 240.97,0.54 244.29,0.96 248.20,1.88 252.11,2.80 255.45,3.59 258.80,4.38 260.87,4.77 262.94,5.16 263.51,5.32 264.08,5.48 264.59,5.76 265.11,6.05 265.54,6.46 265.97,6.86 266.29,7.36 266.62,7.85 266.81,8.41 267.01,8.97 267.06,9.56 267.12,10.15 267.03,10.73 266.95,11.31 266.72,11.86 266.50,12.41 266.15,12.89 265.80,13.36 265.35,13.74 264.89,14.12 264.36,14.39 263.83,14.65 263.25,14.77 262.68,14.90 262.09,14.88 Z" fill="#ebbb38" stroke="#ebbb38" stroke-width="2.5" stroke-linejoin="round" stroke-linecap="round" pointer-events="none"/></g></g><g id="d9243c92-e701-4971-374c-d7457ab50a74_svg" class="tl-centered-g" transform="translate(162.39, 201.75) rotate(0.00, 127.46, 140.94)"><g opacity="1"><path d="M 4.99,0.13 Q 4.99,0.13 5.03,2.25 5.06,4.36 5.15,8.58 5.25,12.80 5.71,17.85 6.18,22.90 6.83,25.92 7.48,28.95 8.45,32.24 9.42,35.53 10.74,39.31 12.06,43.08 13.82,47.20 15.58,51.31 17.77,55.70 19.96,60.08 22.57,64.84 25.18,69.60 28.10,74.54 31.01,79.49 34.11,84.38 37.22,89.27 40.49,94.17 43.76,99.06 47.20,104.02 50.64,108.98 54.17,113.81 57.70,118.65 61.16,123.18 64.63,127.70 68.09,132.05 71.54,136.40 75.19,140.88 78.84,145.35 82.59,149.99 86.35,154.63 90.01,159.19 93.68,163.74 96.84,167.68 100.01,171.62 103.23,175.66 106.46,179.71 109.76,183.70 113.06,187.69 117.69,193.01 122.31,198.32 125.27,201.67 128.22,205.01 131.01,207.94 133.80,210.88 136.79,214.00 139.77,217.12 143.36,220.61 146.95,224.10 150.51,227.34 154.07,230.57 157.24,233.27 160.40,235.98 163.81,238.72 167.23,241.46 170.75,244.04 174.28,246.63 177.93,249.25 181.58,251.88 185.26,254.51 188.94,257.14 192.39,259.52 195.84,261.90 199.06,263.95 202.28,266.00 205.22,267.70 208.16,269.41 210.74,270.75 213.31,272.09 217.22,273.61 221.13,275.13 224.20,275.73 227.26,276.33 230.82,276.26 234.38,276.18 236.89,273.77 239.41,271.35 241.43,268.30 243.46,265.24 245.11,261.68 246.77,258.12 247.38,255.04 248.00,251.97 248.29,247.81 248.58,243.65 248.70,240.49 248.82,237.33 248.62,234.39 248.41,231.46 247.97,228.57 247.53,225.68 246.91,222.34 246.30,219.01 245.51,215.44 244.73,211.87 243.74,208.26 242.76,204.66 241.23,200.37 239.69,196.07 237.51,191.38 235.33,186.69 232.92,182.47 230.52,178.24 227.86,174.20 225.19,170.16 222.28,166.06 219.37,161.96 216.21,157.77 213.06,153.57 209.66,149.31 206.27,145.05 202.56,140.65 198.85,136.24 194.78,131.61 190.71,126.97 186.41,122.24 182.11,117.50 178.05,113.21 174.00,108.91 170.35,105.19 166.70,101.46 163.10,97.89 159.50,94.32 155.83,90.85 152.17,87.39 148.60,84.19 145.03,81.00 141.65,78.11 138.28,75.22 135.09,72.54 131.89,69.87 128.84,67.33 125.79,64.80 122.86,62.29 119.92,59.79 117.14,57.33 114.36,54.86 111.73,52.47 109.09,50.08 106.59,47.79 104.10,45.49 101.75,43.27 99.40,41.04 96.77,38.43 94.14,35.82 90.23,32.45 86.33,29.07 82.76,26.38 79.20,23.69 75.96,21.53 72.72,19.37 70.00,17.77 67.29,16.17 64.59,14.67 61.90,13.18 58.89,11.66 55.89,10.15 53.19,9.23 50.48,8.31 47.36,8.23 44.24,8.14 42.00,9.85 39.76,11.55 39.85,12.08 39.93,12.61 39.66,13.74 39.39,14.87 38.77,15.85 38.15,16.84 37.25,17.57 36.35,18.31 35.27,18.71 34.18,19.12 33.02,19.16 31.86,19.20 30.75,18.87 29.64,18.54 28.69,17.87 27.74,17.20 27.05,16.26 26.37,15.32 26.02,14.22 25.67,13.11 25.69,11.95 25.72,10.79 26.11,9.69 26.50,8.60 27.22,7.69 27.94,6.78 28.92,6.15 29.89,5.51 31.01,5.23 32.14,4.94 33.30,5.02 34.45,5.11 35.52,5.56 36.59,6.01 37.46,6.78 38.33,7.55 38.91,8.55 39.49,9.56 39.72,10.70 39.95,11.84 39.80,12.99 39.65,14.14 39.14,15.18 38.63,16.23 37.82,17.06 37.01,17.88 35.97,18.41 34.93,18.93 33.78,19.09 32.63,19.26 31.49,19.05 30.35,18.84 29.34,18.28 28.32,17.71 27.54,16.85 26.76,15.99 26.29,14.93 25.82,13.87 25.72,12.71 25.62,11.56 25.62,11.56 25.62,11.56 26.97,7.42 28.33,3.28 30.47,1.28 32.61,-0.71 35.70,-2.52 38.79,-4.33 41.60,-4.85 44.41,-5.37 47.52,-5.07 50.64,-4.76 53.39,-3.97 56.14,-3.18 58.84,-1.82 61.54,-0.46 64.65,1.54 67.76,3.55 70.48,5.42 73.21,7.28 75.88,9.31 78.55,11.34 81.72,13.99 84.90,16.64 88.41,19.95 91.92,23.26 95.42,27.11 98.93,30.95 101.62,33.57 104.31,36.19 106.46,38.53 108.62,40.87 110.95,43.29 113.28,45.72 115.75,48.22 118.21,50.72 120.83,53.28 123.44,55.84 126.24,58.43 129.03,61.02 131.98,63.64 134.94,66.27 138.12,68.98 141.30,71.69 144.71,74.61 148.13,77.53 151.75,80.77 155.37,84.00 159.08,87.50 162.78,90.99 166.42,94.58 170.05,98.17 173.74,101.92 177.44,105.66 181.53,109.97 185.63,114.28 189.98,119.03 194.33,123.77 198.46,128.42 202.60,133.06 206.39,137.47 210.18,141.89 213.67,146.15 217.17,150.41 220.45,154.59 223.73,158.77 226.80,162.85 229.88,166.93 232.81,171.00 235.74,175.08 238.50,179.38 241.26,183.67 243.89,188.44 246.52,193.21 248.64,197.65 250.76,202.08 252.12,205.77 253.49,209.46 254.68,213.11 255.88,216.76 256.86,220.26 257.85,223.76 258.55,227.00 259.24,230.25 259.75,233.64 260.25,237.03 260.54,240.53 260.83,244.03 260.83,246.89 260.83,249.74 260.30,253.73 259.76,257.72 258.37,262.11 256.97,266.50 255.38,269.20 253.79,271.89 251.82,274.58 249.85,277.27 247.51,279.57 245.17,281.86 241.99,283.81 238.81,285.76 235.26,286.18 231.71,286.59 228.38,285.92 225.05,285.25 221.44,283.82 217.83,282.39 213.91,279.99 209.99,277.60 207.54,275.89 205.09,274.19 202.27,272.20 199.46,270.20 196.32,267.98 193.17,265.75 189.70,263.34 186.24,260.93 182.55,258.29 178.86,255.66 175.19,253.03 171.52,250.40 167.91,247.77 164.29,245.13 160.80,242.35 157.31,239.56 154.12,236.80 150.93,234.04 147.30,230.76 143.67,227.49 140.01,223.95 136.35,220.42 133.32,217.28 130.28,214.15 127.52,211.11 124.76,208.07 121.79,204.72 118.82,201.36 114.16,196.00 109.50,190.65 106.16,186.63 102.83,182.61 99.60,178.57 96.38,174.54 93.21,170.60 90.04,166.67 86.37,162.13 82.71,157.59 78.95,152.97 75.18,148.34 71.50,143.86 67.82,139.37 64.32,135.00 60.82,130.64 57.29,126.10 53.76,121.55 50.15,116.70 46.55,111.85 43.03,106.90 39.51,101.95 36.13,97.07 32.75,92.18 29.49,87.30 26.22,82.41 23.12,77.50 20.01,72.59 17.14,67.89 14.27,63.18 11.70,58.82 9.14,54.46 6.87,50.35 4.61,46.25 2.68,42.37 0.75,38.50 -0.63,34.92 -2.01,31.33 -2.99,27.86 -3.97,24.39 -4.56,18.55 -5.15,12.72 -4.96,8.40 -4.76,4.08 -4.61,1.97 -4.45,-0.13 -4.37,-0.69 -4.28,-1.26 -4.07,-1.78 -3.85,-2.31 -3.51,-2.77 -3.17,-3.23 -2.74,-3.60 -2.30,-3.96 -1.79,-4.21 -1.27,-4.46 -0.72,-4.58 -0.16,-4.70 0.40,-4.69 0.97,-4.67 1.52,-4.52 2.07,-4.37 2.57,-4.09 3.06,-3.81 3.48,-3.42 3.89,-3.03 4.20,-2.55 4.51,-2.07 4.70,-1.53 4.89,-0.99 4.94,-0.43 Z" fill="#ebbb38" stroke="#ebbb38" stroke-width="2.5" stroke-linejoin="round" stroke-linecap="round" pointer-events="none"/></g></g><g id="647fb7f7-be70-4600-3c5f-a147a40142c2_svg" class="tl-centered-g" transform="translate(164.90, 177.95) rotate(0.00, 137.08, 146.23)"><g opacity="1"><path d="M 221.34,5.09 Q 221.34,5.09 219.60,5.09 217.86,5.08 214.05,5.24 210.24,5.39 206.06,6.51 201.89,7.62 198.73,8.93 195.57,10.24 191.41,12.27 187.24,14.30 181.27,17.77 175.30,21.25 168.00,25.95 160.71,30.64 154.31,35.10 147.92,39.55 142.18,43.84 136.43,48.13 130.49,52.87 124.55,57.61 118.58,62.86 112.62,68.11 107.12,73.39 101.62,78.67 97.26,83.12 92.91,87.57 89.29,91.49 85.67,95.41 82.25,99.25 78.84,103.10 75.61,106.89 72.37,110.69 69.30,114.63 66.22,118.57 63.34,122.59 60.46,126.60 58.02,130.22 55.58,133.84 53.54,137.20 51.50,140.56 49.70,143.84 47.90,147.13 46.32,150.25 44.74,153.37 43.36,156.30 41.98,159.24 40.72,162.02 39.47,164.81 38.22,167.47 36.97,170.14 35.78,172.64 34.59,175.15 32.24,179.98 29.89,184.82 27.52,189.39 25.15,193.96 22.82,198.60 20.50,203.24 19.05,205.91 17.60,208.57 16.02,212.46 14.43,216.35 13.08,220.23 11.73,224.10 10.66,227.58 9.58,231.05 8.90,233.86 8.23,236.67 7.72,239.65 7.22,242.63 6.89,245.74 6.55,248.86 6.48,253.00 6.42,257.14 6.43,260.25 6.45,263.36 6.49,266.16 6.53,268.97 6.60,272.72 6.66,276.48 7.09,279.35 7.51,282.23 10.77,283.18 14.03,284.13 16.94,284.58 19.85,285.02 23.51,285.26 27.17,285.50 31.68,285.63 36.18,285.77 41.46,284.94 46.74,284.11 49.95,283.21 53.16,282.31 57.04,281.10 60.93,279.89 65.13,278.32 69.33,276.74 73.34,275.04 77.36,273.33 80.92,271.53 84.49,269.74 87.85,267.76 91.22,265.78 94.73,263.54 98.24,261.31 101.72,258.82 105.19,256.33 108.50,253.69 111.82,251.05 115.33,247.99 118.85,244.93 122.69,241.32 126.54,237.71 130.30,233.97 134.07,230.22 137.77,226.32 141.47,222.42 145.32,218.21 149.17,214.00 153.13,209.60 157.09,205.20 161.08,200.65 165.07,196.11 169.12,191.48 173.17,186.85 176.88,182.65 180.59,178.45 183.84,174.73 187.10,171.01 190.24,167.39 193.38,163.77 196.59,160.04 199.80,156.31 203.50,152.01 207.21,147.72 209.62,144.72 212.03,141.72 214.30,138.84 216.57,135.96 218.78,133.16 220.99,130.37 222.94,127.74 224.90,125.11 226.75,122.57 228.59,120.03 230.49,117.46 232.39,114.90 234.44,112.23 236.48,109.56 238.60,106.85 240.72,104.13 242.88,101.42 245.04,98.70 247.13,96.05 249.22,93.40 251.03,90.95 252.84,88.51 255.71,84.28 258.58,80.04 260.34,76.80 262.10,73.56 263.24,70.79 264.39,68.03 265.45,64.34 266.50,60.64 267.06,57.56 267.62,54.48 267.64,51.35 267.67,48.22 265.01,45.12 262.34,42.02 260.01,39.98 257.69,37.94 255.06,36.10 252.42,34.26 249.77,33.04 247.12,31.82 242.58,30.76 238.03,29.70 234.91,29.27 231.78,28.83 228.36,28.52 224.93,28.21 221.40,28.16 217.87,28.10 214.13,28.33 210.40,28.56 206.76,29.04 203.13,29.52 199.99,30.12 196.85,30.73 194.13,31.38 191.41,32.04 186.90,33.27 182.39,34.50 178.35,36.03 174.32,37.56 173.48,37.72 172.63,37.87 171.79,37.75 170.94,37.62 170.17,37.24 169.41,36.85 168.81,36.24 168.21,35.63 167.83,34.86 167.46,34.09 167.35,33.24 167.24,32.39 167.41,31.55 167.58,30.71 168.01,29.96 168.44,29.22 169.08,28.65 169.72,28.09 170.51,27.76 171.30,27.42 172.16,27.36 173.01,27.30 173.84,27.51 174.67,27.73 175.39,28.20 176.11,28.66 176.64,29.34 177.17,30.01 177.46,30.82 177.74,31.62 177.76,32.48 177.78,33.34 177.52,34.15 177.26,34.97 176.75,35.66 176.25,36.35 175.55,36.85 174.85,37.34 174.03,37.58 173.20,37.83 172.35,37.80 171.49,37.77 170.69,37.46 169.89,37.16 169.22,36.62 168.56,36.08 168.11,35.35 167.65,34.62 167.45,33.79 167.25,32.96 167.33,32.10 167.41,31.25 167.75,30.47 168.10,29.68 168.68,29.05 169.25,28.42 170.00,28.00 170.75,27.59 170.75,27.59 170.75,27.59 172.59,27.02 174.44,26.46 177.39,25.91 180.35,25.36 184.99,24.53 189.62,23.71 192.47,23.17 195.32,22.64 198.55,22.04 201.78,21.44 205.57,20.68 209.36,19.91 213.41,19.21 217.46,18.50 221.34,18.13 225.21,17.77 228.92,17.65 232.63,17.53 236.25,17.60 239.88,17.67 243.18,18.03 246.48,18.39 249.20,19.03 251.91,19.67 255.75,21.48 259.59,23.29 262.88,25.59 266.18,27.89 268.81,30.22 271.44,32.56 274.41,35.73 277.37,38.91 278.83,42.25 280.29,45.59 280.27,49.01 280.24,52.42 279.61,55.79 278.98,59.15 277.73,62.93 276.48,66.71 275.18,69.65 273.88,72.59 272.19,75.52 270.49,78.45 268.08,81.83 265.66,85.20 262.36,89.27 259.06,93.34 257.10,95.74 255.15,98.14 253.02,100.76 250.89,103.38 248.73,106.07 246.58,108.75 244.44,111.44 242.29,114.14 240.19,116.75 238.08,119.36 236.03,121.82 233.99,124.28 231.93,126.70 229.87,129.12 227.68,131.63 225.49,134.13 223.12,136.80 220.75,139.46 218.30,142.21 215.85,144.95 213.28,147.84 210.71,150.74 207.01,155.03 203.31,159.33 200.10,163.07 196.88,166.80 193.74,170.43 190.59,174.06 187.33,177.79 184.08,181.53 180.38,185.72 176.68,189.92 172.64,194.56 168.60,199.20 164.60,203.77 160.61,208.34 156.65,212.78 152.69,217.21 148.83,221.46 144.97,225.72 141.25,229.69 137.53,233.66 133.75,237.50 129.97,241.33 126.11,245.04 122.25,248.76 118.72,251.96 115.19,255.15 111.86,257.97 108.53,260.80 105.05,263.51 101.57,266.23 98.07,268.74 94.56,271.26 91.11,273.44 87.66,275.63 84.08,277.69 80.50,279.75 76.59,281.93 72.67,284.10 68.58,286.29 64.48,288.48 60.62,290.48 56.75,292.48 53.27,293.94 49.79,295.41 46.35,296.52 42.91,297.62 39.67,298.21 36.43,298.80 31.59,298.96 26.76,299.11 22.53,299.01 18.30,298.90 14.62,298.41 10.94,297.92 7.86,297.06 4.79,296.20 2.14,294.83 -0.50,293.46 -2.90,290.29 -5.30,287.13 -5.90,284.08 -6.51,281.04 -6.56,277.59 -6.61,274.13 -6.53,270.19 -6.46,266.24 -6.40,263.12 -6.35,260.00 -6.25,256.93 -6.15,253.85 -5.91,250.68 -5.67,247.52 -5.14,243.97 -4.61,240.41 -3.83,237.04 -3.06,233.67 -2.03,230.53 -0.99,227.39 0.34,223.91 1.68,220.44 3.36,216.42 5.03,212.39 7.09,208.22 9.14,204.06 11.80,199.04 14.46,194.03 17.02,189.56 19.58,185.10 22.25,180.63 24.92,176.15 27.67,171.42 30.42,166.70 31.88,164.20 33.33,161.71 34.85,159.00 36.37,156.29 38.03,153.44 39.68,150.59 41.50,147.53 43.32,144.47 45.33,141.19 47.33,137.92 49.52,134.58 51.72,131.24 54.19,127.56 56.66,123.89 59.59,119.79 62.52,115.69 65.65,111.66 68.77,107.63 72.02,103.79 75.27,99.95 78.70,96.05 82.12,92.15 85.76,88.16 89.40,84.17 93.77,79.62 98.14,75.08 103.67,69.67 109.20,64.27 115.19,58.86 121.17,53.46 127.09,48.56 133.01,43.66 138.71,39.17 144.41,34.68 150.74,29.96 157.07,25.23 164.27,20.19 171.46,15.14 177.33,11.18 183.20,7.21 187.35,4.49 191.50,1.77 195.07,-0.14 198.64,-2.06 204.27,-3.38 209.90,-4.70 214.24,-4.58 218.57,-4.45 220.29,-4.20 222.01,-3.95 222.54,-3.84 223.08,-3.74 223.58,-3.51 224.07,-3.27 224.50,-2.93 224.92,-2.59 225.26,-2.15 225.59,-1.72 225.80,-1.22 226.02,-0.72 226.11,-0.18 226.21,0.35 226.17,0.90 226.12,1.44 225.96,1.96 225.79,2.48 225.50,2.95 225.21,3.41 224.82,3.79 224.42,4.17 223.95,4.45 223.48,4.73 222.96,4.88 222.43,5.04 221.89,5.06 Z" fill="#ebbb38" stroke="#ebbb38" stroke-width="2.5" stroke-linejoin="round" stroke-linecap="round" pointer-events="none"/></g></g><g id="92d311ba-5bdf-4657-12ce-55d88e8cc413_svg" class="tl-centered-g" transform="translate(286.43, 332.71) rotate(0.00, 0.50, 0.50)"><circle r="6" fill="#ebbb38" stroke="#ebbb38" pointer-events="all" opacity="1"/></g><g text-align="left" text-anchor="start" fill="#ebbb38" transform="translate(504.82, 364.76) rotate(0.00, 333.00, 46.50)"><text y="48" letter-spacing="-2.88" font-size="96px" font-family="Caveat Brush" text-align="left" alignment-baseline="central" transform="scale(0.864308224709397)">UI is a function of state </text></g><g id="7b18913d-cf05-4222-37c1-8ab6823a645b_svg" class="tl-centered-g" transform="translate(278.47, 327.44) rotate(0.00, 7.53, 12.27)"><g opacity="1"><path d="M 7.02,17.96 Q 7.02,17.96 6.07,18.21 5.12,18.47 8.17,17.90 11.21,17.33 9.45,15.00 7.68,12.66 6.45,9.32 5.23,5.97 5.05,2.88 4.87,-0.20 5.10,-1.42 5.33,-2.63 5.94,-3.71 6.55,-4.78 7.47,-5.61 8.39,-6.43 9.53,-6.92 10.66,-7.41 11.90,-7.51 13.13,-7.61 14.33,-7.31 15.53,-7.01 16.57,-6.35 17.61,-5.68 18.38,-4.72 19.16,-3.75 19.58,-2.59 20.01,-1.43 20.04,-0.20 20.07,1.03 19.71,2.21 19.35,3.39 18.63,4.40 17.90,5.40 16.90,6.12 15.90,6.84 14.71,7.20 13.53,7.57 12.30,7.53 11.06,7.50 9.90,7.07 8.74,6.64 7.78,5.87 6.82,5.09 6.15,4.05 5.49,3.01 5.19,1.81 4.89,0.61 4.99,-0.61 5.09,-1.84 5.58,-2.98 6.07,-4.11 6.90,-5.03 7.72,-5.95 8.80,-6.56 9.87,-7.17 11.09,-7.40 12.30,-7.63 13.53,-7.46 14.75,-7.30 15.86,-6.75 16.97,-6.20 17.84,-5.32 18.71,-4.45 19.26,-3.34 19.81,-2.23 19.98,-1.01 20.14,0.21 20.14,0.21 20.14,0.20 19.87,3.88 19.59,7.56 18.41,11.07 17.24,14.57 14.70,17.10 12.17,19.64 8.40,20.23 4.64,20.82 1.55,20.16 -1.52,19.50 -3.89,17.04 -6.25,14.58 -6.44,10.80 -6.63,7.02 -4.09,4.17 -1.54,1.32 1.98,0.63 5.51,-0.05 8.34,0.18 11.17,0.42 14.71,1.97 18.25,3.52 20.02,6.04 21.79,8.57 22.05,12.13 22.31,15.69 22.01,18.58 21.72,21.47 20.40,24.57 19.07,27.68 15.97,29.56 12.87,31.44 9.35,31.15 5.83,30.85 2.84,29.60 -0.15,28.35 -2.35,26.10 -4.54,23.84 -5.17,21.02 -5.80,18.19 -4.95,14.55 -4.10,10.90 -1.21,8.50 1.66,6.10 2.81,5.84 3.95,5.57 4.71,5.48 5.48,5.38 6.24,5.48 7.00,5.57 7.72,5.84 8.44,6.11 9.08,6.55 9.71,6.98 10.22,7.56 10.73,8.13 11.09,8.81 11.45,9.49 11.63,10.24 11.82,10.99 11.82,11.76 11.82,12.53 11.64,13.27 11.45,14.02 11.10,14.70 10.74,15.38 10.23,15.96 9.72,16.54 9.09,16.97 8.46,17.41 7.74,17.69 Z" fill="#ebbb38" stroke="#ebbb38" stroke-width="2.5" stroke-linejoin="round" stroke-linecap="round" pointer-events="none"/></g></g><g text-align="left" text-anchor="start" fill="#cecece" transform="translate(498.80, 199.62) rotate(0.00, 78.50, 94.00)"><text y="48" letter-spacing="-2.88" font-size="96px" font-family="Caveat Brush" text-align="left" alignment-baseline="central" transform="scale(1.8516697567891804)">UI</text></g><g text-align="left" text-anchor="start" fill="#cecece" transform="translate(820.75, 197.42) rotate(0.00, 229.00, 94.00)"><text y="48" letter-spacing="-2.88" font-size="96px" font-family="Caveat Brush" text-align="left" alignment-baseline="central" transform="scale(1.8516697567891804)">f(state)</text></g><g id="a4bafc98-2d03-4717-347d-d8f34879a43f_svg" class="tl-centered-g" transform="translate(677.87, 305.72) rotate(0.00, 56.97, 1.43)"><defs><mask id="a4bafc98-2d03-4717-347d-d8f34879a43f_clip"><rect x="-100" y="-100" width="313.94" height="202.85" fill="white"/><rect x="56.97" y="1.42" width="0" height="0" rx="3.56" ry="3.56" fill="black" opacity="1"/></mask></defs><g pointer-events="none" opacity="1" mask=""><path d="M 113.99,2.18 Q 113.99,2.18 100.37,2.42 86.75,2.66 73.13,2.92 59.51,3.19 45.89,3.48 32.27,3.76 18.65,4.06 5.03,4.36 4.77,4.32 4.51,4.29 4.27,4.17 4.03,4.05 3.85,3.86 3.66,3.67 3.54,3.44 3.42,3.20 3.39,2.94 3.35,2.67 3.40,2.41 3.46,2.15 3.59,1.92 3.72,1.69 3.92,1.51 4.11,1.34 4.36,1.23 4.60,1.13 4.87,1.11 5.13,1.09 5.39,1.15 5.64,1.21 5.87,1.36 6.09,1.50 6.26,1.71 6.42,1.92 6.51,2.17 6.60,2.41 6.61,2.68 6.62,2.95 6.54,3.20 6.46,3.45 6.31,3.67 6.15,3.88 5.93,4.04 5.72,4.19 5.47,4.27 5.21,4.35 4.95,4.34 4.68,4.33 4.43,4.24 4.18,4.15 3.98,3.98 3.77,3.81 3.63,3.59 3.49,3.36 3.42,3.11 3.36,2.85 3.38,2.58 3.40,2.32 3.51,2.08 3.61,1.83 3.79,1.64 3.97,1.44 4.20,1.31 4.43,1.18 4.69,1.13 4.95,1.08 4.95,1.08 4.95,1.08 18.57,0.70 32.19,0.32 45.80,-0.07 59.42,-0.47 73.03,-0.88 86.65,-1.30 100.27,-1.74 113.88,-2.18 114.14,-2.15 114.40,-2.13 114.65,-2.04 114.90,-1.95 115.12,-1.81 115.34,-1.67 115.52,-1.47 115.70,-1.28 115.83,-1.05 115.96,-0.82 116.03,-0.57 116.10,-0.31 116.10,-0.05 116.11,0.20 116.05,0.46 116.00,0.72 115.88,0.95 115.76,1.19 115.59,1.39 115.42,1.59 115.21,1.75 115.00,1.90 114.75,2.00 114.51,2.10 114.25,2.14 Z" fill="#ebbb38" stroke="#ebbb38" stroke-width="4.54" stroke-dasharray="none" stroke-dashoffset="none" stroke-linecap="round" stroke-linejoin="round" pointer-events="stroke"/><g><path d="M 33.36,21.017275866404777 L 0,2.85 32.41,-16.962724133595206" fill="none" stroke="#ebbb38" stroke-width="9.09" stroke-linecap="round" stroke-linejoin="round" pointer-events="none"/></g></g></g></svg>